<svg width="210" height="121" viewBox="0 0 210 121" fill="none" xmlns="http://www.w3.org/2000/svg">
<path d="M0 121H210V0H111.464V19.7385H0V121Z" fill="#6FACB6"/>
<path d="M203.204 113.117V27.0017V5.31421H116.214V15.7083V26.571H60.8252H5.43689L5.43689 69.8438V113.117H103.641H128.447H153.252H203.204Z" fill="#89D2DE"/>
<path d="M5.43688 26.5711L0 19.7385H111.456L116.214 26.5711H5.43688Z" fill="#C6E9F1"/>
<path d="M116.214 5.3142L111.456 0H210L203.204 5.3142H116.214Z" fill="#C6E9F1"/>
<ellipse cx="163.871" cy="43.4321" rx="24.1816" ry="25.2584" fill="#EE9D3D"/>
<path d="M176.059 28.2223C175.522 27.9101 174.931 27.7116 174.32 27.6381C173.71 27.5646 173.091 27.6175 172.5 27.7938C171.909 27.9702 171.358 28.2665 170.876 28.6658C170.395 29.0651 169.994 29.5596 169.696 30.1209L161.009 46.449L156.038 41.2564C155.607 40.7896 155.09 40.4173 154.519 40.1611C153.949 39.905 153.335 39.7702 152.713 39.7645C152.092 39.7589 151.476 39.8826 150.901 40.1283C150.326 40.374 149.804 40.7369 149.364 41.1958C148.925 41.6546 148.578 42.2003 148.342 42.8009C148.107 43.4015 147.989 44.0451 147.994 44.694C148 45.3429 148.129 45.9842 148.374 46.5805C148.619 47.1767 148.975 47.716 149.422 48.1668L158.78 57.9411C159.664 58.8673 160.857 59.3755 162.088 59.3755L162.736 59.3266C163.453 59.2219 164.137 58.9446 164.734 58.5168C165.331 58.0889 165.825 57.5222 166.177 56.8611L177.874 34.8688C178.173 34.3079 178.363 33.691 178.433 33.0534C178.504 32.4158 178.453 31.77 178.284 31.1528C178.116 30.5356 177.833 29.9592 177.451 29.4563C177.069 28.9535 176.596 28.5342 176.059 28.2223Z" fill="#FFE3CA"/>
<path d="M16.9562 97.0799C16.9562 95.5692 17.2935 94.2199 17.9682 93.0319C18.6575 91.8292 19.5889 90.8979 20.7622 90.2379C21.9502 89.5632 23.2775 89.2259 24.7442 89.2259C26.4602 89.2259 27.9635 89.6659 29.2542 90.5459C30.5449 91.4259 31.4469 92.6432 31.9602 94.1979H28.4182C28.0662 93.4646 27.5675 92.9146 26.9222 92.5479C26.2915 92.1812 25.5582 91.9979 24.7222 91.9979C23.8275 91.9979 23.0282 92.2106 22.3242 92.6359C21.6349 93.0466 21.0922 93.6332 20.6962 94.3959C20.3149 95.1586 20.1242 96.0532 20.1242 97.0799C20.1242 98.0919 20.3149 98.9866 20.6962 99.7639C21.0922 100.527 21.6349 101.121 22.3242 101.546C23.0282 101.957 23.8275 102.162 24.7222 102.162C25.5582 102.162 26.2915 101.979 26.9222 101.612C27.5675 101.231 28.0662 100.673 28.4182 99.9399H31.9602C31.4469 101.509 30.5449 102.734 29.2542 103.614C27.9782 104.479 26.4749 104.912 24.7442 104.912C23.2775 104.912 21.9502 104.582 20.7622 103.922C19.5889 103.247 18.6575 102.316 17.9682 101.128C17.2935 99.9399 16.9562 98.5906 16.9562 97.0799ZM40.0029 104.978C38.8296 104.978 37.7736 104.721 36.8349 104.208C35.8963 103.68 35.1556 102.939 34.6129 101.986C34.0849 101.033 33.8209 99.9326 33.8209 98.6859C33.8209 97.4392 34.0923 96.3392 34.6349 95.3859C35.1923 94.4326 35.9476 93.6992 36.9009 93.1859C37.8543 92.6579 38.9176 92.3939 40.0909 92.3939C41.2643 92.3939 42.3276 92.6579 43.2809 93.1859C44.2343 93.6992 44.9823 94.4326 45.5249 95.3859C46.0823 96.3392 46.3609 97.4392 46.3609 98.6859C46.3609 99.9326 46.0749 101.033 45.5029 101.986C44.9456 102.939 44.1829 103.68 43.2149 104.208C42.2616 104.721 41.1909 104.978 40.0029 104.978ZM40.0029 102.294C40.5603 102.294 41.0809 102.162 41.5649 101.898C42.0636 101.619 42.4596 101.209 42.7529 100.666C43.0463 100.123 43.1929 99.4632 43.1929 98.6859C43.1929 97.5272 42.8849 96.6399 42.2689 96.0239C41.6676 95.3932 40.9269 95.0779 40.0469 95.0779C39.1669 95.0779 38.4263 95.3932 37.8249 96.0239C37.2383 96.6399 36.9449 97.5272 36.9449 98.6859C36.9449 99.8446 37.2309 100.739 37.8029 101.37C38.3896 101.986 39.1229 102.294 40.0029 102.294ZM63.7562 92.4159C65.2522 92.4159 66.4549 92.8779 67.3642 93.8019C68.2882 94.7112 68.7502 95.9872 68.7502 97.6299V104.78H65.6702V98.0479C65.6702 97.0946 65.4282 96.3686 64.9442 95.8699C64.4602 95.3566 63.8002 95.0999 62.9642 95.0999C62.1282 95.0999 61.4609 95.3566 60.9622 95.8699C60.4782 96.3686 60.2362 97.0946 60.2362 98.0479V104.78H57.1562V98.0479C57.1562 97.0946 56.9142 96.3686 56.4302 95.8699C55.9462 95.3566 55.2862 95.0999 54.4502 95.0999C53.5996 95.0999 52.9249 95.3566 52.4262 95.8699C51.9422 96.3686 51.7002 97.0946 51.7002 98.0479V104.78H48.6202V92.5919H51.7002V94.0659C52.0962 93.5526 52.6022 93.1492 53.2182 92.8559C53.8489 92.5626 54.5382 92.4159 55.2862 92.4159C56.2396 92.4159 57.0902 92.6212 57.8382 93.0319C58.5862 93.4279 59.1656 93.9999 59.5762 94.7479C59.9722 94.0439 60.5442 93.4792 61.2922 93.0539C62.0549 92.6286 62.8762 92.4159 63.7562 92.4159ZM86.809 92.4159C88.305 92.4159 89.5076 92.8779 90.417 93.8019C91.341 94.7112 91.803 95.9872 91.803 97.6299V104.78H88.723V98.0479C88.723 97.0946 88.481 96.3686 87.997 95.8699C87.513 95.3566 86.853 95.0999 86.017 95.0999C85.181 95.0999 84.5136 95.3566 84.015 95.8699C83.531 96.3686 83.289 97.0946 83.289 98.0479V104.78H80.209V98.0479C80.209 97.0946 79.967 96.3686 79.483 95.8699C78.999 95.3566 78.339 95.0999 77.503 95.0999C76.6523 95.0999 75.9776 95.3566 75.479 95.8699C74.995 96.3686 74.753 97.0946 74.753 98.0479V104.78H71.673V92.5919H74.753V94.0659C75.149 93.5526 75.655 93.1492 76.271 92.8559C76.9016 92.5626 77.591 92.4159 78.339 92.4159C79.2923 92.4159 80.143 92.6212 80.891 93.0319C81.639 93.4279 82.2183 93.9999 82.629 94.7479C83.025 94.0439 83.597 93.4792 84.345 93.0539C85.1076 92.6286 85.929 92.4159 86.809 92.4159ZM106.232 92.5919V104.78H103.13V103.24C102.734 103.768 102.213 104.186 101.568 104.494C100.937 104.787 100.248 104.934 99.4997 104.934C98.5464 104.934 97.703 104.736 96.9697 104.34C96.2364 103.929 95.657 103.335 95.2317 102.558C94.821 101.766 94.6157 100.827 94.6157 99.7419V92.5919H97.6957V99.3019C97.6957 100.27 97.9377 101.018 98.4217 101.546C98.9057 102.059 99.5657 102.316 100.402 102.316C101.252 102.316 101.92 102.059 102.404 101.546C102.888 101.018 103.13 100.27 103.13 99.3019V92.5919H106.232ZM116.025 92.4159C117.477 92.4159 118.65 92.8779 119.545 93.8019C120.439 94.7112 120.887 95.9872 120.887 97.6299V104.78H117.807V98.0479C117.807 97.0799 117.565 96.3392 117.081 95.8259C116.597 95.2979 115.937 95.0339 115.101 95.0339C114.25 95.0339 113.575 95.2979 113.077 95.8259C112.593 96.3392 112.351 97.0799 112.351 98.0479V104.78H109.271V92.5919H112.351V94.1099C112.761 93.5819 113.282 93.1712 113.913 92.8779C114.558 92.5699 115.262 92.4159 116.025 92.4159ZM125.378 91.1399C124.835 91.1399 124.38 90.9712 124.014 90.6339C123.662 90.2819 123.486 89.8492 123.486 89.3359C123.486 88.8226 123.662 88.3972 124.014 88.0599C124.38 87.7079 124.835 87.5319 125.378 87.5319C125.92 87.5319 126.368 87.7079 126.72 88.0599C127.086 88.3972 127.27 88.8226 127.27 89.3359C127.27 89.8492 127.086 90.2819 126.72 90.6339C126.368 90.9712 125.92 91.1399 125.378 91.1399ZM126.896 92.5919V104.78H123.816V92.5919H126.896ZM129.147 98.6859C129.147 97.4246 129.403 96.3246 129.917 95.3859C130.43 94.4326 131.141 93.6992 132.051 93.1859C132.96 92.6579 134.001 92.3939 135.175 92.3939C136.685 92.3939 137.932 92.7752 138.915 93.5379C139.912 94.2859 140.579 95.3419 140.917 96.7059H137.595C137.419 96.1779 137.118 95.7672 136.693 95.4739C136.282 95.1659 135.769 95.0119 135.153 95.0119C134.273 95.0119 133.576 95.3346 133.063 95.9799C132.549 96.6106 132.293 97.5126 132.293 98.6859C132.293 99.8446 132.549 100.747 133.063 101.392C133.576 102.023 134.273 102.338 135.153 102.338C136.399 102.338 137.213 101.781 137.595 100.666H140.917C140.579 101.986 139.912 103.035 138.915 103.812C137.917 104.589 136.671 104.978 135.175 104.978C134.001 104.978 132.96 104.721 132.051 104.208C131.141 103.68 130.43 102.947 129.917 102.008C129.403 101.055 129.147 99.9472 129.147 98.6859ZM142.381 98.6419C142.381 97.4099 142.623 96.3172 143.107 95.3639C143.606 94.4106 144.273 93.6772 145.109 93.1639C145.96 92.6506 146.906 92.3939 147.947 92.3939C148.856 92.3939 149.648 92.5772 150.323 92.9439C151.012 93.3106 151.562 93.7726 151.973 94.3299V92.5919H155.075V104.78H151.973V102.998C151.577 103.57 151.027 104.047 150.323 104.428C149.634 104.795 148.834 104.978 147.925 104.978C146.898 104.978 145.96 104.714 145.109 104.186C144.273 103.658 143.606 102.917 143.107 101.964C142.623 100.996 142.381 99.8886 142.381 98.6419ZM151.973 98.6859C151.973 97.9379 151.826 97.2999 151.533 96.7719C151.24 96.2292 150.844 95.8186 150.345 95.5399C149.846 95.2466 149.311 95.0999 148.739 95.0999C148.167 95.0999 147.639 95.2392 147.155 95.5179C146.671 95.7966 146.275 96.2072 145.967 96.7499C145.674 97.2779 145.527 97.9086 145.527 98.6419C145.527 99.3752 145.674 100.021 145.967 100.578C146.275 101.121 146.671 101.539 147.155 101.832C147.654 102.125 148.182 102.272 148.739 102.272C149.311 102.272 149.846 102.133 150.345 101.854C150.844 101.561 151.24 101.15 151.533 100.622C151.826 100.079 151.973 99.4339 151.973 98.6859ZM161.669 95.1219V101.018C161.669 101.429 161.764 101.729 161.955 101.92C162.16 102.096 162.498 102.184 162.967 102.184H164.397V104.78H162.461C159.865 104.78 158.567 103.519 158.567 100.996V95.1219H157.115V92.5919H158.567V89.5779H161.669V92.5919H164.397V95.1219H161.669ZM168.174 91.1399C167.632 91.1399 167.177 90.9712 166.81 90.6339C166.458 90.2819 166.282 89.8492 166.282 89.3359C166.282 88.8226 166.458 88.3972 166.81 88.0599C167.177 87.7079 167.632 87.5319 168.174 87.5319C168.717 87.5319 169.164 87.7079 169.516 88.0599C169.883 88.3972 170.066 88.8226 170.066 89.3359C170.066 89.8492 169.883 90.2819 169.516 90.6339C169.164 90.9712 168.717 91.1399 168.174 91.1399ZM169.692 92.5919V104.78H166.612V92.5919H169.692ZM178.147 104.978C176.974 104.978 175.918 104.721 174.979 104.208C174.041 103.68 173.3 102.939 172.757 101.986C172.229 101.033 171.965 99.9326 171.965 98.6859C171.965 97.4392 172.237 96.3392 172.779 95.3859C173.337 94.4326 174.092 93.6992 175.045 93.1859C175.999 92.6579 177.062 92.3939 178.235 92.3939C179.409 92.3939 180.472 92.6579 181.425 93.1859C182.379 93.6992 183.127 94.4326 183.669 95.3859C184.227 96.3392 184.505 97.4392 184.505 98.6859C184.505 99.9326 184.219 101.033 183.647 101.986C183.09 102.939 182.327 103.68 181.359 104.208C180.406 104.721 179.335 104.978 178.147 104.978ZM178.147 102.294C178.705 102.294 179.225 102.162 179.709 101.898C180.208 101.619 180.604 101.209 180.897 100.666C181.191 100.123 181.337 99.4632 181.337 98.6859C181.337 97.5272 181.029 96.6399 180.413 96.0239C179.812 95.3932 179.071 95.0779 178.191 95.0779C177.311 95.0779 176.571 95.3932 175.969 96.0239C175.383 96.6399 175.089 97.5272 175.089 98.6859C175.089 99.8446 175.375 100.739 175.947 101.37C176.534 101.986 177.267 102.294 178.147 102.294ZM193.519 92.4159C194.971 92.4159 196.144 92.8779 197.039 93.8019C197.933 94.7112 198.381 95.9872 198.381 97.6299V104.78H195.301V98.0479C195.301 97.0799 195.059 96.3392 194.575 95.8259C194.091 95.2979 193.431 95.0339 192.595 95.0339C191.744 95.0339 191.069 95.2979 190.571 95.8259C190.087 96.3392 189.845 97.0799 189.845 98.0479V104.78H186.765V92.5919H189.845V94.1099C190.255 93.5819 190.776 93.1712 191.407 92.8779C192.052 92.5699 192.756 92.4159 193.519 92.4159Z" fill="#788995"/>
</svg>
