<svg width="295" height="159" viewBox="0 0 295 159" fill="none" xmlns="http://www.w3.org/2000/svg">
<path d="M7 158.869H295V0H159.865V25.9159H7V158.869Z" fill="#6FACB6"/>
<path d="M285.68 148.518V35.4521V6.97729H166.379V20.6243V34.8867H90.4175H14.4563L14.4563 91.7022V148.518H149.136H183.155H217.175H285.68Z" fill="#89D2DE"/>
<path d="M14.4563 34.8869L7 25.916H159.854L166.379 34.8869H14.4563Z" fill="#C6E9F1"/>
<path d="M166.379 6.97735L159.854 0H295L285.68 6.97735H166.379Z" fill="#C6E9F1"/>
<circle cx="231.738" cy="57.0247" r="33.1634" fill="#EE9D3D"/>
<path d="M248.452 37.0548C247.716 36.645 246.905 36.3843 246.068 36.2878C245.231 36.1913 244.383 36.2608 243.572 36.4923C242.762 36.7238 242.005 37.1128 241.345 37.6371C240.685 38.1614 240.134 38.8106 239.725 39.5477L227.813 60.9858L220.995 54.1681C220.403 53.5552 219.695 53.0664 218.912 52.7301C218.13 52.3938 217.288 52.2168 216.436 52.2094C215.584 52.202 214.739 52.3643 213.95 52.687C213.161 53.0096 212.445 53.4861 211.843 54.0885C211.24 54.691 210.764 55.4074 210.441 56.196C210.118 56.9846 209.956 57.8296 209.963 58.6816C209.971 59.5336 210.148 60.3756 210.484 61.1584C210.82 61.9413 211.309 62.6493 211.922 63.2412L224.755 76.0746C225.968 77.2905 227.604 77.9579 229.292 77.9579L230.181 77.8937C231.164 77.7561 232.102 77.3921 232.921 76.8304C233.74 76.2686 234.418 75.5245 234.9 74.6565L250.942 45.7815C251.351 45.045 251.612 44.2351 251.708 43.3979C251.805 42.5608 251.736 41.7129 251.504 40.9025C251.273 40.0921 250.885 39.3353 250.361 38.6751C249.837 38.0149 249.189 37.4643 248.452 37.0548V37.0548Z" fill="#FFE3CA"/>
<path d="M61.8025 130.275C61.8025 128.575 62.1859 127.05 62.9525 125.7C63.7192 124.333 64.7609 123.267 66.0775 122.5C67.4109 121.733 68.8859 121.35 70.5025 121.35C72.4025 121.35 74.0609 121.808 75.4775 122.725C76.8942 123.642 77.9275 124.942 78.5775 126.625H75.8525C75.3692 125.575 74.6692 124.767 73.7525 124.2C72.8525 123.633 71.7692 123.35 70.5025 123.35C69.2859 123.35 68.1942 123.633 67.2275 124.2C66.2609 124.767 65.5025 125.575 64.9525 126.625C64.4025 127.658 64.1275 128.875 64.1275 130.275C64.1275 131.658 64.4025 132.875 64.9525 133.925C65.5025 134.958 66.2609 135.758 67.2275 136.325C68.1942 136.892 69.2859 137.175 70.5025 137.175C71.7692 137.175 72.8525 136.9 73.7525 136.35C74.6692 135.783 75.3692 134.975 75.8525 133.925H78.5775C77.9275 135.592 76.8942 136.883 75.4775 137.8C74.0609 138.7 72.4025 139.15 70.5025 139.15C68.8859 139.15 67.4109 138.775 66.0775 138.025C64.7609 137.258 63.7192 136.2 62.9525 134.85C62.1859 133.5 61.8025 131.975 61.8025 130.275ZM87.9391 139.225C86.6557 139.225 85.4891 138.933 84.4391 138.35C83.4057 137.767 82.5891 136.942 81.9891 135.875C81.4057 134.792 81.1141 133.542 81.1141 132.125C81.1141 130.725 81.4141 129.492 82.0141 128.425C82.6307 127.342 83.4641 126.517 84.5141 125.95C85.5641 125.367 86.7391 125.075 88.0391 125.075C89.3391 125.075 90.5141 125.367 91.5641 125.95C92.6141 126.517 93.4391 127.333 94.0391 128.4C94.6557 129.467 94.9641 130.708 94.9641 132.125C94.9641 133.542 94.6474 134.792 94.0141 135.875C93.3974 136.942 92.5557 137.767 91.4891 138.35C90.4224 138.933 89.2391 139.225 87.9391 139.225ZM87.9391 137.225C88.7557 137.225 89.5224 137.033 90.2391 136.65C90.9557 136.267 91.5307 135.692 91.9641 134.925C92.4141 134.158 92.6391 133.225 92.6391 132.125C92.6391 131.025 92.4224 130.092 91.9891 129.325C91.5557 128.558 90.9891 127.992 90.2891 127.625C89.5891 127.242 88.8307 127.05 88.0141 127.05C87.1807 127.05 86.4141 127.242 85.7141 127.625C85.0307 127.992 84.4807 128.558 84.0641 129.325C83.6474 130.092 83.4391 131.025 83.4391 132.125C83.4391 133.242 83.6391 134.183 84.0391 134.95C84.4557 135.717 85.0057 136.292 85.6891 136.675C86.3724 137.042 87.1224 137.225 87.9391 137.225ZM114.43 125.05C115.497 125.05 116.447 125.275 117.28 125.725C118.114 126.158 118.772 126.817 119.255 127.7C119.739 128.583 119.98 129.658 119.98 130.925V139H117.73V131.25C117.73 129.883 117.389 128.842 116.705 128.125C116.039 127.392 115.13 127.025 113.98 127.025C112.797 127.025 111.855 127.408 111.155 128.175C110.455 128.925 110.105 130.017 110.105 131.45V139H107.855V131.25C107.855 129.883 107.514 128.842 106.83 128.125C106.164 127.392 105.255 127.025 104.105 127.025C102.922 127.025 101.98 127.408 101.28 128.175C100.58 128.925 100.23 130.017 100.23 131.45V139H97.9553V125.3H100.23V127.275C100.68 126.558 101.28 126.008 102.03 125.625C102.797 125.242 103.639 125.05 104.555 125.05C105.705 125.05 106.722 125.308 107.605 125.825C108.489 126.342 109.147 127.1 109.58 128.1C109.964 127.133 110.597 126.383 111.48 125.85C112.364 125.317 113.347 125.05 114.43 125.05ZM140.187 125.05C141.254 125.05 142.204 125.275 143.037 125.725C143.87 126.158 144.529 126.817 145.012 127.7C145.495 128.583 145.737 129.658 145.737 130.925V139H143.487V131.25C143.487 129.883 143.145 128.842 142.462 128.125C141.795 127.392 140.887 127.025 139.737 127.025C138.554 127.025 137.612 127.408 136.912 128.175C136.212 128.925 135.862 130.017 135.862 131.45V139H133.612V131.25C133.612 129.883 133.27 128.842 132.587 128.125C131.92 127.392 131.012 127.025 129.862 127.025C128.679 127.025 127.737 127.408 127.037 128.175C126.337 128.925 125.987 130.017 125.987 131.45V139H123.712V125.3H125.987V127.275C126.437 126.558 127.037 126.008 127.787 125.625C128.554 125.242 129.395 125.05 130.312 125.05C131.462 125.05 132.479 125.308 133.362 125.825C134.245 126.342 134.904 127.1 135.337 128.1C135.72 127.133 136.354 126.383 137.237 125.85C138.12 125.317 139.104 125.05 140.187 125.05ZM161.619 125.3V139H159.344V136.975C158.911 137.675 158.302 138.225 157.519 138.625C156.752 139.008 155.902 139.2 154.969 139.2C153.902 139.2 152.944 138.983 152.094 138.55C151.244 138.1 150.569 137.433 150.069 136.55C149.586 135.667 149.344 134.592 149.344 133.325V125.3H151.594V133.025C151.594 134.375 151.936 135.417 152.619 136.15C153.302 136.867 154.236 137.225 155.419 137.225C156.636 137.225 157.594 136.85 158.294 136.1C158.994 135.35 159.344 134.258 159.344 132.825V125.3H161.619ZM172.135 125.05C173.802 125.05 175.152 125.558 176.185 126.575C177.218 127.575 177.735 129.025 177.735 130.925V139H175.485V131.25C175.485 129.883 175.143 128.842 174.46 128.125C173.777 127.392 172.843 127.025 171.66 127.025C170.46 127.025 169.502 127.4 168.785 128.15C168.085 128.9 167.735 129.992 167.735 131.425V139H165.46V125.3H167.735V127.25C168.185 126.55 168.793 126.008 169.56 125.625C170.343 125.242 171.202 125.05 172.135 125.05ZM182.626 123.075C182.193 123.075 181.826 122.925 181.526 122.625C181.226 122.325 181.076 121.958 181.076 121.525C181.076 121.092 181.226 120.725 181.526 120.425C181.826 120.125 182.193 119.975 182.626 119.975C183.043 119.975 183.393 120.125 183.676 120.425C183.976 120.725 184.126 121.092 184.126 121.525C184.126 121.958 183.976 122.325 183.676 122.625C183.393 122.925 183.043 123.075 182.626 123.075ZM183.726 125.3V139H181.451V125.3H183.726ZM186.754 132.125C186.754 130.708 187.037 129.475 187.604 128.425C188.17 127.358 188.954 126.533 189.954 125.95C190.97 125.367 192.129 125.075 193.429 125.075C195.112 125.075 196.495 125.483 197.579 126.3C198.679 127.117 199.404 128.25 199.754 129.7H197.304C197.07 128.867 196.612 128.208 195.929 127.725C195.262 127.242 194.429 127 193.429 127C192.129 127 191.079 127.45 190.279 128.35C189.479 129.233 189.079 130.492 189.079 132.125C189.079 133.775 189.479 135.05 190.279 135.95C191.079 136.85 192.129 137.3 193.429 137.3C194.429 137.3 195.262 137.067 195.929 136.6C196.595 136.133 197.054 135.467 197.304 134.6H199.754C199.387 136 198.654 137.125 197.554 137.975C196.454 138.808 195.079 139.225 193.429 139.225C192.129 139.225 190.97 138.933 189.954 138.35C188.954 137.767 188.17 136.942 187.604 135.875C187.037 134.808 186.754 133.558 186.754 132.125ZM201.939 132.1C201.939 130.7 202.223 129.475 202.789 128.425C203.356 127.358 204.131 126.533 205.114 125.95C206.114 125.367 207.223 125.075 208.439 125.075C209.639 125.075 210.681 125.333 211.564 125.85C212.448 126.367 213.106 127.017 213.539 127.8V125.3H215.839V139H213.539V136.45C213.089 137.25 212.414 137.917 211.514 138.45C210.631 138.967 209.598 139.225 208.414 139.225C207.198 139.225 206.098 138.925 205.114 138.325C204.131 137.725 203.356 136.883 202.789 135.8C202.223 134.717 201.939 133.483 201.939 132.1ZM213.539 132.125C213.539 131.092 213.331 130.192 212.914 129.425C212.498 128.658 211.931 128.075 211.214 127.675C210.514 127.258 209.739 127.05 208.889 127.05C208.039 127.05 207.264 127.25 206.564 127.65C205.864 128.05 205.306 128.633 204.889 129.4C204.473 130.167 204.264 131.067 204.264 132.1C204.264 133.15 204.473 134.067 204.889 134.85C205.306 135.617 205.864 136.208 206.564 136.625C207.264 137.025 208.039 137.225 208.889 137.225C209.739 137.225 210.514 137.025 211.214 136.625C211.931 136.208 212.498 135.617 212.914 134.85C213.331 134.067 213.539 133.158 213.539 132.125ZM222.459 127.175V135.25C222.459 135.917 222.6 136.392 222.884 136.675C223.167 136.942 223.659 137.075 224.359 137.075H226.034V139H223.984C222.717 139 221.767 138.708 221.134 138.125C220.5 137.542 220.184 136.583 220.184 135.25V127.175H218.409V125.3H220.184V121.85H222.459V125.3H226.034V127.175H222.459ZM229.965 123.075C229.532 123.075 229.165 122.925 228.865 122.625C228.565 122.325 228.415 121.958 228.415 121.525C228.415 121.092 228.565 120.725 228.865 120.425C229.165 120.125 229.532 119.975 229.965 119.975C230.382 119.975 230.732 120.125 231.015 120.425C231.315 120.725 231.465 121.092 231.465 121.525C231.465 121.958 231.315 122.325 231.015 122.625C230.732 122.925 230.382 123.075 229.965 123.075ZM231.065 125.3V139H228.79V125.3H231.065ZM240.918 139.225C239.634 139.225 238.468 138.933 237.418 138.35C236.384 137.767 235.568 136.942 234.968 135.875C234.384 134.792 234.093 133.542 234.093 132.125C234.093 130.725 234.393 129.492 234.993 128.425C235.609 127.342 236.443 126.517 237.493 125.95C238.543 125.367 239.718 125.075 241.018 125.075C242.318 125.075 243.493 125.367 244.543 125.95C245.593 126.517 246.418 127.333 247.018 128.4C247.634 129.467 247.943 130.708 247.943 132.125C247.943 133.542 247.626 134.792 246.993 135.875C246.376 136.942 245.534 137.767 244.468 138.35C243.401 138.933 242.218 139.225 240.918 139.225ZM240.918 137.225C241.734 137.225 242.501 137.033 243.218 136.65C243.934 136.267 244.509 135.692 244.943 134.925C245.393 134.158 245.618 133.225 245.618 132.125C245.618 131.025 245.401 130.092 244.968 129.325C244.534 128.558 243.968 127.992 243.268 127.625C242.568 127.242 241.809 127.05 240.993 127.05C240.159 127.05 239.393 127.242 238.693 127.625C238.009 127.992 237.459 128.558 237.043 129.325C236.626 130.092 236.418 131.025 236.418 132.125C236.418 133.242 236.618 134.183 237.018 134.95C237.434 135.717 237.984 136.292 238.668 136.675C239.351 137.042 240.101 137.225 240.918 137.225ZM257.609 125.05C259.275 125.05 260.625 125.558 261.659 126.575C262.692 127.575 263.209 129.025 263.209 130.925V139H260.959V131.25C260.959 129.883 260.617 128.842 259.934 128.125C259.25 127.392 258.317 127.025 257.134 127.025C255.934 127.025 254.975 127.4 254.259 128.15C253.559 128.9 253.209 129.992 253.209 131.425V139H250.934V125.3H253.209V127.25C253.659 126.55 254.267 126.008 255.034 125.625C255.817 125.242 256.675 125.05 257.609 125.05Z" fill="#0B4870"/>
</svg>
