<svg width="293" height="161" viewBox="0 0 293 161" fill="none" xmlns="http://www.w3.org/2000/svg">
<path d="M5 160.127H293V0.742188H157.865V26.7422H5V160.127Z" fill="#6FACB6"/>
<path d="M283.68 149.742V36.3095V7.74219H164.379V21.4335V35.7422H88.4175H12.4563L12.4563 92.7422V149.742H147.136H181.155H215.175H283.68Z" fill="#89D2DE"/>
<path d="M12.4563 35.7422L5 26.7422H157.854L164.379 35.7422H12.4563Z" fill="#C6E9F1"/>
<path d="M164.379 7.74219L157.854 0.742188H293L283.68 7.74219H164.379Z" fill="#C6E9F1"/>
<path d="M61.8025 131.275C61.8025 129.575 62.1859 128.05 62.9525 126.7C63.7192 125.333 64.7609 124.267 66.0775 123.5C67.4109 122.733 68.8859 122.35 70.5025 122.35C72.4025 122.35 74.0609 122.808 75.4775 123.725C76.8942 124.642 77.9275 125.942 78.5775 127.625H75.8525C75.3692 126.575 74.6692 125.767 73.7525 125.2C72.8525 124.633 71.7692 124.35 70.5025 124.35C69.2859 124.35 68.1942 124.633 67.2275 125.2C66.2609 125.767 65.5025 126.575 64.9525 127.625C64.4025 128.658 64.1275 129.875 64.1275 131.275C64.1275 132.658 64.4025 133.875 64.9525 134.925C65.5025 135.958 66.2609 136.758 67.2275 137.325C68.1942 137.892 69.2859 138.175 70.5025 138.175C71.7692 138.175 72.8525 137.9 73.7525 137.35C74.6692 136.783 75.3692 135.975 75.8525 134.925H78.5775C77.9275 136.592 76.8942 137.883 75.4775 138.8C74.0609 139.7 72.4025 140.15 70.5025 140.15C68.8859 140.15 67.4109 139.775 66.0775 139.025C64.7609 138.258 63.7192 137.2 62.9525 135.85C62.1859 134.5 61.8025 132.975 61.8025 131.275ZM87.9391 140.225C86.6557 140.225 85.4891 139.933 84.4391 139.35C83.4057 138.767 82.5891 137.942 81.9891 136.875C81.4057 135.792 81.1141 134.542 81.1141 133.125C81.1141 131.725 81.4141 130.492 82.0141 129.425C82.6307 128.342 83.4641 127.517 84.5141 126.95C85.5641 126.367 86.7391 126.075 88.0391 126.075C89.3391 126.075 90.5141 126.367 91.5641 126.95C92.6141 127.517 93.4391 128.333 94.0391 129.4C94.6557 130.467 94.9641 131.708 94.9641 133.125C94.9641 134.542 94.6474 135.792 94.0141 136.875C93.3974 137.942 92.5557 138.767 91.4891 139.35C90.4224 139.933 89.2391 140.225 87.9391 140.225ZM87.9391 138.225C88.7557 138.225 89.5224 138.033 90.2391 137.65C90.9557 137.267 91.5307 136.692 91.9641 135.925C92.4141 135.158 92.6391 134.225 92.6391 133.125C92.6391 132.025 92.4224 131.092 91.9891 130.325C91.5557 129.558 90.9891 128.992 90.2891 128.625C89.5891 128.242 88.8307 128.05 88.0141 128.05C87.1807 128.05 86.4141 128.242 85.7141 128.625C85.0307 128.992 84.4807 129.558 84.0641 130.325C83.6474 131.092 83.4391 132.025 83.4391 133.125C83.4391 134.242 83.6391 135.183 84.0391 135.95C84.4557 136.717 85.0057 137.292 85.6891 137.675C86.3724 138.042 87.1224 138.225 87.9391 138.225ZM114.43 126.05C115.497 126.05 116.447 126.275 117.28 126.725C118.114 127.158 118.772 127.817 119.255 128.7C119.739 129.583 119.98 130.658 119.98 131.925V140H117.73V132.25C117.73 130.883 117.389 129.842 116.705 129.125C116.039 128.392 115.13 128.025 113.98 128.025C112.797 128.025 111.855 128.408 111.155 129.175C110.455 129.925 110.105 131.017 110.105 132.45V140H107.855V132.25C107.855 130.883 107.514 129.842 106.83 129.125C106.164 128.392 105.255 128.025 104.105 128.025C102.922 128.025 101.98 128.408 101.28 129.175C100.58 129.925 100.23 131.017 100.23 132.45V140H97.9553V126.3H100.23V128.275C100.68 127.558 101.28 127.008 102.03 126.625C102.797 126.242 103.639 126.05 104.555 126.05C105.705 126.05 106.722 126.308 107.605 126.825C108.489 127.342 109.147 128.1 109.58 129.1C109.964 128.133 110.597 127.383 111.48 126.85C112.364 126.317 113.347 126.05 114.43 126.05ZM140.187 126.05C141.254 126.05 142.204 126.275 143.037 126.725C143.87 127.158 144.529 127.817 145.012 128.7C145.495 129.583 145.737 130.658 145.737 131.925V140H143.487V132.25C143.487 130.883 143.145 129.842 142.462 129.125C141.795 128.392 140.887 128.025 139.737 128.025C138.554 128.025 137.612 128.408 136.912 129.175C136.212 129.925 135.862 131.017 135.862 132.45V140H133.612V132.25C133.612 130.883 133.27 129.842 132.587 129.125C131.92 128.392 131.012 128.025 129.862 128.025C128.679 128.025 127.737 128.408 127.037 129.175C126.337 129.925 125.987 131.017 125.987 132.45V140H123.712V126.3H125.987V128.275C126.437 127.558 127.037 127.008 127.787 126.625C128.554 126.242 129.395 126.05 130.312 126.05C131.462 126.05 132.479 126.308 133.362 126.825C134.245 127.342 134.904 128.1 135.337 129.1C135.72 128.133 136.354 127.383 137.237 126.85C138.12 126.317 139.104 126.05 140.187 126.05ZM161.619 126.3V140H159.344V137.975C158.911 138.675 158.302 139.225 157.519 139.625C156.752 140.008 155.902 140.2 154.969 140.2C153.902 140.2 152.944 139.983 152.094 139.55C151.244 139.1 150.569 138.433 150.069 137.55C149.586 136.667 149.344 135.592 149.344 134.325V126.3H151.594V134.025C151.594 135.375 151.936 136.417 152.619 137.15C153.302 137.867 154.236 138.225 155.419 138.225C156.636 138.225 157.594 137.85 158.294 137.1C158.994 136.35 159.344 135.258 159.344 133.825V126.3H161.619ZM172.135 126.05C173.802 126.05 175.152 126.558 176.185 127.575C177.218 128.575 177.735 130.025 177.735 131.925V140H175.485V132.25C175.485 130.883 175.143 129.842 174.46 129.125C173.777 128.392 172.843 128.025 171.66 128.025C170.46 128.025 169.502 128.4 168.785 129.15C168.085 129.9 167.735 130.992 167.735 132.425V140H165.46V126.3H167.735V128.25C168.185 127.55 168.793 127.008 169.56 126.625C170.343 126.242 171.202 126.05 172.135 126.05ZM182.626 124.075C182.193 124.075 181.826 123.925 181.526 123.625C181.226 123.325 181.076 122.958 181.076 122.525C181.076 122.092 181.226 121.725 181.526 121.425C181.826 121.125 182.193 120.975 182.626 120.975C183.043 120.975 183.393 121.125 183.676 121.425C183.976 121.725 184.126 122.092 184.126 122.525C184.126 122.958 183.976 123.325 183.676 123.625C183.393 123.925 183.043 124.075 182.626 124.075ZM183.726 126.3V140H181.451V126.3H183.726ZM186.754 133.125C186.754 131.708 187.037 130.475 187.604 129.425C188.17 128.358 188.954 127.533 189.954 126.95C190.97 126.367 192.129 126.075 193.429 126.075C195.112 126.075 196.495 126.483 197.579 127.3C198.679 128.117 199.404 129.25 199.754 130.7H197.304C197.07 129.867 196.612 129.208 195.929 128.725C195.262 128.242 194.429 128 193.429 128C192.129 128 191.079 128.45 190.279 129.35C189.479 130.233 189.079 131.492 189.079 133.125C189.079 134.775 189.479 136.05 190.279 136.95C191.079 137.85 192.129 138.3 193.429 138.3C194.429 138.3 195.262 138.067 195.929 137.6C196.595 137.133 197.054 136.467 197.304 135.6H199.754C199.387 137 198.654 138.125 197.554 138.975C196.454 139.808 195.079 140.225 193.429 140.225C192.129 140.225 190.97 139.933 189.954 139.35C188.954 138.767 188.17 137.942 187.604 136.875C187.037 135.808 186.754 134.558 186.754 133.125ZM201.939 133.1C201.939 131.7 202.223 130.475 202.789 129.425C203.356 128.358 204.131 127.533 205.114 126.95C206.114 126.367 207.223 126.075 208.439 126.075C209.639 126.075 210.681 126.333 211.564 126.85C212.448 127.367 213.106 128.017 213.539 128.8V126.3H215.839V140H213.539V137.45C213.089 138.25 212.414 138.917 211.514 139.45C210.631 139.967 209.598 140.225 208.414 140.225C207.198 140.225 206.098 139.925 205.114 139.325C204.131 138.725 203.356 137.883 202.789 136.8C202.223 135.717 201.939 134.483 201.939 133.1ZM213.539 133.125C213.539 132.092 213.331 131.192 212.914 130.425C212.498 129.658 211.931 129.075 211.214 128.675C210.514 128.258 209.739 128.05 208.889 128.05C208.039 128.05 207.264 128.25 206.564 128.65C205.864 129.05 205.306 129.633 204.889 130.4C204.473 131.167 204.264 132.067 204.264 133.1C204.264 134.15 204.473 135.067 204.889 135.85C205.306 136.617 205.864 137.208 206.564 137.625C207.264 138.025 208.039 138.225 208.889 138.225C209.739 138.225 210.514 138.025 211.214 137.625C211.931 137.208 212.498 136.617 212.914 135.85C213.331 135.067 213.539 134.158 213.539 133.125ZM222.459 128.175V136.25C222.459 136.917 222.6 137.392 222.884 137.675C223.167 137.942 223.659 138.075 224.359 138.075H226.034V140H223.984C222.717 140 221.767 139.708 221.134 139.125C220.5 138.542 220.184 137.583 220.184 136.25V128.175H218.409V126.3H220.184V122.85H222.459V126.3H226.034V128.175H222.459ZM229.965 124.075C229.532 124.075 229.165 123.925 228.865 123.625C228.565 123.325 228.415 122.958 228.415 122.525C228.415 122.092 228.565 121.725 228.865 121.425C229.165 121.125 229.532 120.975 229.965 120.975C230.382 120.975 230.732 121.125 231.015 121.425C231.315 121.725 231.465 122.092 231.465 122.525C231.465 122.958 231.315 123.325 231.015 123.625C230.732 123.925 230.382 124.075 229.965 124.075ZM231.065 126.3V140H228.79V126.3H231.065ZM240.918 140.225C239.634 140.225 238.468 139.933 237.418 139.35C236.384 138.767 235.568 137.942 234.968 136.875C234.384 135.792 234.093 134.542 234.093 133.125C234.093 131.725 234.393 130.492 234.993 129.425C235.609 128.342 236.443 127.517 237.493 126.95C238.543 126.367 239.718 126.075 241.018 126.075C242.318 126.075 243.493 126.367 244.543 126.95C245.593 127.517 246.418 128.333 247.018 129.4C247.634 130.467 247.943 131.708 247.943 133.125C247.943 134.542 247.626 135.792 246.993 136.875C246.376 137.942 245.534 138.767 244.468 139.35C243.401 139.933 242.218 140.225 240.918 140.225ZM240.918 138.225C241.734 138.225 242.501 138.033 243.218 137.65C243.934 137.267 244.509 136.692 244.943 135.925C245.393 135.158 245.618 134.225 245.618 133.125C245.618 132.025 245.401 131.092 244.968 130.325C244.534 129.558 243.968 128.992 243.268 128.625C242.568 128.242 241.809 128.05 240.993 128.05C240.159 128.05 239.393 128.242 238.693 128.625C238.009 128.992 237.459 129.558 237.043 130.325C236.626 131.092 236.418 132.025 236.418 133.125C236.418 134.242 236.618 135.183 237.018 135.95C237.434 136.717 237.984 137.292 238.668 137.675C239.351 138.042 240.101 138.225 240.918 138.225ZM257.609 126.05C259.275 126.05 260.625 126.558 261.659 127.575C262.692 128.575 263.209 130.025 263.209 131.925V140H260.959V132.25C260.959 130.883 260.617 129.842 259.934 129.125C259.25 128.392 258.317 128.025 257.134 128.025C255.934 128.025 254.975 128.4 254.259 129.15C253.559 129.9 253.209 130.992 253.209 132.425V140H250.934V126.3H253.209V128.25C253.659 127.55 254.267 127.008 255.034 126.625C255.817 126.242 256.675 126.05 257.609 126.05Z" fill="#0B4870"/>
<path d="M252.061 72.7515C240.013 72.7515 238.842 88.1609 245.81 93.1343C249.361 93.5872 247.226 94.1315 247.569 94.3432C248.905 95.1672 242.806 102.912 252.061 102.348C257.152 102.039 254.843 100.591 256.179 99.7678C258.15 99.7396 256.211 94.9464 256.213 94.536C264.167 90.8994 264.108 72.7515 252.061 72.7515Z" fill="#0E538C"/>
<path d="M263.595 100.971L256.803 98.0753C256.236 97.8336 255.866 97.2664 255.866 96.6375V94.7551H248.255V96.6375C248.255 97.2664 247.885 97.8336 247.318 98.0753L240.526 100.971C239.676 101.334 239.121 102.185 239.121 103.128V106.243C239.121 107.104 239.803 107.801 240.644 107.801H263.478C264.318 107.801 265 107.104 265 106.243V103.128C265 102.184 264.445 101.334 263.595 100.971Z" fill="#B36A32"/>
<path d="M263.595 100.971L257.028 98.1711L252.061 100.365L247.093 98.1711L240.527 100.971C239.676 101.334 239.121 102.185 239.121 103.128V106.243C239.121 107.104 239.803 107.801 240.644 107.801H263.478C264.318 107.801 265 107.104 265 106.243V103.128C265 102.184 264.445 101.334 263.595 100.971Z" fill="#FFBE55"/>
<path d="M252.061 100.365L247.705 97.0212C247.425 96.8069 247.026 96.8767 246.833 97.174L245.972 98.4952L248.643 102.321C248.845 102.612 249.246 102.669 249.519 102.446L252.061 100.365Z" fill="#FFE3CA"/>
<path d="M252.061 100.365L256.417 97.0212C256.697 96.8069 257.095 96.8767 257.289 97.174L258.15 98.4952L255.479 102.321C255.276 102.612 254.876 102.669 254.603 102.446L252.061 100.365Z" fill="#FFE3CA"/>
<path d="M244.597 84.744C244.585 85.1327 244.592 85.5226 244.631 85.9101L245.176 91.3611C245.268 92.3877 245.85 93.3016 246.73 93.8026L251.064 96.2663C251.754 96.6582 252.592 96.6582 253.282 96.2663L257.615 93.8026C258.496 93.3018 259.078 92.3877 259.169 91.3611L259.642 86.7713C259.642 80.5407 252.173 83.6559 248.367 79.7615C247.606 81.3193 244.882 82.7614 244.597 84.744Z" fill="#B77C48"/>
<path d="M205.902 97.6106V93.3328H195.153V97.6106L200.527 102.499L205.902 97.6106Z" fill="#FCD2B1"/>
<path d="M214.213 99.612L206.823 97.8328C206.711 97.8062 206.608 97.7603 206.512 97.7054L200.527 101.278L194.775 97.5317C194.626 97.675 194.442 97.7815 194.231 97.8323L186.842 99.6115C185.762 99.8718 185 100.857 185 101.991V106.777C185 107.452 185.535 108 186.194 108H214.86C215.519 108 216.054 107.452 216.054 106.777V101.991C216.054 100.857 215.292 99.8718 214.213 99.612Z" fill="#CCE9FF"/>
<path d="M202.02 108H199.034L199.407 102.5H201.647L202.02 108Z" fill="#0B4870"/>
<path d="M202.02 101.277H199.034V101.631C199.034 102.448 199.682 103.111 200.481 103.111H200.573C201.372 103.111 202.02 102.448 202.02 101.631V101.277H202.02Z" fill="#0E538C"/>
<path d="M195.068 96.25L200.527 101.278C200.527 101.278 198.998 102.067 197.111 103.658C196.722 103.987 196.134 103.854 195.925 103.384L193.36 97.6107L194.171 96.3653C194.374 96.0554 194.797 96.001 195.068 96.25Z" fill="#2A94F4"/>
<path d="M205.986 96.2498L200.527 101.277C200.527 101.277 202.056 102.067 203.943 103.658C204.332 103.987 204.92 103.854 205.129 103.384L207.693 97.6103L206.882 96.3648C206.68 96.0552 206.256 96.0008 205.986 96.2498Z" fill="#2A94F4"/>
<path d="M209.449 86.9594L208.774 89.7206C208.694 90.0474 208.407 90.2765 208.077 90.2765C207.981 90.2765 207.887 90.2564 207.804 90.2201L207.77 90.992C207.722 92.0874 207.198 93.1029 206.341 93.7605L203.872 95.6547C203.252 96.1308 202.498 96.3873 201.722 96.3873H199.332C198.558 96.3873 197.804 96.1308 197.183 95.6547L194.714 93.7605C193.858 93.1029 193.332 92.0874 193.285 90.992L193.25 90.2201C193.167 90.2564 193.073 90.2765 192.977 90.2765C192.649 90.2765 192.361 90.0474 192.282 89.7206L191.607 86.9594C191.412 86.1621 192.003 85.3882 192.807 85.3882H192.808C192.887 85.3882 192.961 85.3955 193.036 85.4098L192.764 79.2773H208.291L208.018 85.4098C208.092 85.3955 208.167 85.3882 208.245 85.3882H208.249C209.053 85.3882 209.642 86.1621 209.449 86.9594Z" fill="#FFE3CA"/>
<path d="M204.148 75.2288L204.707 79.2778C207.263 79.8006 207.631 83.9045 207.684 85.0772C207.694 85.2896 207.761 85.4951 207.873 85.6741L208.849 87.2216C208.849 87.2216 209.766 86.0122 210.043 82.9441C210.043 82.9443 210.567 72.7842 204.148 75.2288Z" fill="#0B4870"/>
<path d="M194.219 74.7512C190.225 77.7682 190.972 82.9438 190.972 82.9438C191.246 85.3878 192.167 87.2213 192.167 87.2213L193.361 85.999C193.361 85.999 192.9 82.4687 195.152 81.1105C197.243 79.8502 199.072 80.4992 200.938 80.4992C205.939 80.4992 207.339 78.5705 207.096 76.2217C206.971 75.0059 205.154 72.4743 200.527 72.5546C198.659 72.5871 196.036 73.7834 194.219 74.7512Z" fill="#0B4870"/>
<path d="M238.183 57.9997C237.649 58.5888 237.076 59.1477 236.471 59.6739C236.161 59.9433 235.841 60.2051 235.514 60.4543C235.231 60.6734 234.938 60.8874 234.643 61.0913C234.552 61.1542 234.461 61.2171 234.367 61.2776C233.848 61.6275 233.312 61.9548 232.756 62.2594C229.511 64.0494 225.697 65.0765 221.616 65.0765C218.191 65.0765 214.956 64.354 212.09 63.065C208.026 67.3021 201.533 66.9169 201.533 66.9169L206.636 59.5656C202.675 56.0663 200.217 51.1948 200.217 45.7997C200.217 41.9126 201.494 38.2949 203.688 35.2688C204.203 34.5589 204.768 33.8816 205.379 33.2422C205.981 32.6103 206.631 32.0111 207.32 31.4572C207.332 31.4446 207.342 31.4346 207.354 31.4295C207.954 30.9437 208.584 30.4905 209.241 30.0701C209.074 30.5006 208.921 30.9361 208.786 31.3767C208.21 33.2321 207.903 35.1832 207.903 37.1998C207.903 49.1128 218.622 58.7676 231.841 58.7676C233.836 58.7676 235.772 58.5485 237.624 58.1306C237.811 58.0904 237.998 58.045 238.183 57.9997Z" fill="#2A94F4"/>
<path d="M240.698 48.1672C240.698 52.7975 238.889 57.0454 235.87 60.368C233.849 60.869 231.723 61.1349 229.527 61.1349C216.307 61.1349 205.589 51.4796 205.589 39.5676C205.589 37.0691 206.061 34.6694 206.928 32.4371C210.421 30.2045 214.69 28.8901 219.301 28.8901C231.119 28.8899 240.698 37.5193 240.698 48.1672Z" fill="url(#paint0_linear)"/>
<path d="M246.285 54.9677L251.996 63.1935C251.996 63.1935 244.73 63.6247 240.185 58.8847C238.816 59.4985 237.371 59.9975 235.87 60.3678C233.849 60.8688 231.723 61.1346 229.527 61.1346C216.307 61.1346 205.589 51.4793 205.589 39.5673C205.589 37.0689 206.061 34.6692 206.928 32.4369C210.195 24.0285 219.08 18 229.526 18C242.747 18 253.465 27.6535 253.465 39.5673C253.466 45.6011 250.718 51.0536 246.285 54.9677Z" fill="#CCE9FF"/>
<path d="M236.824 37.5888L236.835 37.5963C236.835 39.6531 235.16 42.6898 234.489 43.8323C233.936 44.7758 233.498 46.981 233.362 47.7186C233.228 47.67 233.081 47.6446 232.926 47.6446H226.228C226.093 47.6446 225.962 47.6645 225.843 47.7022C225.689 46.9505 225.215 44.7685 224.666 43.8323C223.995 42.6898 222.32 39.6443 222.32 37.5872L222.331 37.5855C222.324 37.4536 222.32 37.3216 222.32 37.1877C222.32 33.0864 225.588 29.7622 229.576 29.7622C233.646 29.7622 236.835 33.0864 236.835 37.1877C236.835 37.3214 236.831 37.4568 236.824 37.5888Z" fill="#FFBE55"/>
<path d="M234.037 48.6687V48.8442H225.118V48.6687C225.118 48.179 225.42 47.8301 225.842 47.7017C225.963 47.6639 226.093 47.644 226.227 47.644H232.926C233.081 47.644 233.228 47.6695 233.362 47.7181C233.759 47.859 234.037 48.1989 234.037 48.6687Z" fill="#D3D3D3"/>
<path d="M233.019 42.0098L232.599 42.9443L232.532 43.0944L232.238 43.7431C232.233 43.7577 232.226 43.7723 232.223 43.7885C232.212 43.8156 232.203 43.8461 232.196 43.8788C232.193 43.8932 232.189 43.9111 232.185 43.9274C232.182 43.9435 232.178 43.9599 232.177 43.9763C232.173 43.9926 232.171 44.0087 232.17 44.0251C232.166 44.0412 232.165 44.0558 232.165 44.0722C232.161 44.1031 232.159 44.1318 232.159 44.1555V47.6441H231.534V44.1555C231.534 43.9531 231.592 43.718 231.675 43.5337L232.378 42.0388H231.539C231.519 42.0388 231.493 42.0388 231.467 42.0408C231.458 42.0408 231.449 42.0425 231.44 42.0443C231.433 42.0443 231.428 42.0461 231.422 42.0478C231.41 42.0516 231.399 42.0571 231.394 42.0642C231.389 42.0677 231.387 42.0695 231.385 42.0732V42.0753L230.79 43.0946C230.695 43.2628 230.543 43.3423 230.377 43.3353C230.211 43.3262 230.069 43.214 229.988 43.0352L229.575 42.1206L229.167 43.0297C229.086 43.2072 228.944 43.3134 228.778 43.3207C228.61 43.3298 228.462 43.2359 228.365 43.0657L227.771 42.0753C227.748 42.0352 227.662 42.0388 227.618 42.0388H226.775L227.474 43.5354C227.557 43.718 227.621 43.9531 227.621 44.1555V47.6441H227.073V44.1555C227.073 44.0452 226.996 43.8428 226.95 43.7416L226.151 42.0045C226.075 41.8381 226.075 41.6699 226.162 41.529C226.25 41.39 226.395 41.3175 226.575 41.3175H227.617C227.88 41.3175 228.168 41.4786 228.301 41.7135L228.739 42.4781L229.17 41.5166C229.315 41.1949 229.37 41.072 229.574 41.072H229.576C229.59 41.072 229.605 41.072 229.618 41.0738C229.776 41.0899 229.836 41.1984 229.951 41.4552C229.961 41.4751 229.97 41.4952 229.979 41.5149L230.187 41.9738L230.415 42.4801L230.853 41.7137C230.986 41.4789 231.274 41.3177 231.539 41.3177H232.581C232.629 41.3177 232.673 41.3233 232.715 41.3323C232.735 41.3376 232.752 41.3414 232.77 41.3484C232.787 41.354 232.805 41.361 232.821 41.3701C232.832 41.3736 232.842 41.3789 232.851 41.3862C232.866 41.3935 232.878 41.4008 232.888 41.4099C232.901 41.4172 232.913 41.4262 232.924 41.4388C232.938 41.4514 232.952 41.466 232.966 41.4821C232.978 41.4967 232.991 41.5131 233.001 41.531C233.09 41.672 233.095 41.8436 233.019 42.0098Z" fill="#2A94F4"/>
<path d="M234.03 52.9282C233.901 55.3217 231.995 57.2375 229.576 57.2375C227.236 57.2375 225.26 55.3217 225.125 52.9282H234.03Z" fill="#D3D3D3"/>
<path d="M234.036 50.2854H225.118V51.4855H234.036V50.2854Z" fill="#D3D3D3"/>
<path d="M234.662 49.1244V49.9829C234.662 50.1385 234.475 50.2848 234.321 50.2848H224.832C224.68 50.2848 224.571 50.1385 224.571 49.9829V49.1244C224.571 48.9689 224.68 48.8442 224.832 48.8442H234.321C234.475 48.8442 234.662 48.9689 234.662 49.1244Z" fill="#F2F2F2"/>
<path d="M234.662 51.7527V52.6092C234.662 52.7665 234.475 52.9274 234.321 52.9274H224.832C224.68 52.9274 224.571 52.7665 224.571 52.6092V51.7527C224.571 51.5954 224.68 51.4851 224.832 51.4851H234.321C234.475 51.4851 234.662 51.5954 234.662 51.7527Z" fill="#F2F2F2"/>
<path d="M229.616 26.9059C229.153 26.9059 228.794 26.5222 228.794 26.0489V23.5357C228.794 23.0626 229.153 22.679 229.616 22.679C230.078 22.679 230.437 23.0626 230.437 23.5357V26.0489C230.437 26.5222 230.078 26.9059 229.616 26.9059Z" fill="#F4C342"/>
<path d="M229.616 26.9059C229.153 26.9059 228.794 26.5222 228.794 26.0489V23.5357C228.794 23.0626 229.153 22.679 229.616 22.679C230.078 22.679 230.437 23.0626 230.437 23.5357V26.0489C230.437 26.5222 230.078 26.9059 229.616 26.9059Z" fill="#FFBE55"/>
<path d="M242.694 37.8763H240.238C239.776 37.8763 239.401 37.509 239.401 37.0357C239.401 36.5624 239.776 36.1953 240.238 36.1953H242.694C243.157 36.1953 243.532 36.5624 243.532 37.0357C243.532 37.509 243.157 37.8763 242.694 37.8763Z" fill="#F89B36"/>
<path d="M242.694 37.8763H240.238C239.776 37.8763 239.401 37.509 239.401 37.0357C239.401 36.5624 239.776 36.1953 240.238 36.1953H242.694C243.157 36.1953 243.532 36.5624 243.532 37.0357C243.532 37.509 243.157 37.8763 242.694 37.8763Z" fill="#FFBE55"/>
<path d="M218.916 37.8763H216.46C215.997 37.8763 215.622 37.509 215.622 37.0357C215.622 36.5624 215.997 36.1953 216.46 36.1953H218.916C219.378 36.1953 219.753 36.5624 219.753 37.0357C219.753 37.509 219.378 37.8763 218.916 37.8763Z" fill="#FFBE55"/>
<path d="M222.039 30.1009C221.824 30.1009 221.61 30.0173 221.446 29.8501L219.71 28.0727C219.383 27.7382 219.383 27.1956 219.71 26.861C220.037 26.5265 220.567 26.5265 220.894 26.861L222.631 28.6382C222.957 28.9728 222.957 29.5155 222.631 29.8501C222.467 30.0173 222.253 30.1009 222.039 30.1009Z" fill="#FFBE55"/>
<path d="M237.116 30.1009C236.901 30.1009 236.687 30.0173 236.524 29.8501C236.197 29.5155 236.197 28.973 236.524 28.6384L238.26 26.861C238.587 26.5265 239.117 26.5265 239.445 26.861C239.772 27.1959 239.772 27.7382 239.445 28.0727L237.708 29.8501C237.545 30.0173 237.33 30.1009 237.116 30.1009Z" fill="#F89B36"/>
<path d="M237.116 30.1009C236.901 30.1009 236.687 30.0173 236.524 29.8501C236.197 29.5155 236.197 28.973 236.524 28.6384L238.26 26.861C238.587 26.5265 239.117 26.5265 239.445 26.861C239.772 27.1959 239.772 27.7382 239.445 28.0727L237.708 29.8501C237.545 30.0173 237.33 30.1009 237.116 30.1009Z" fill="#FFBE55"/>
<defs>
<linearGradient id="paint0_linear" x1="223.144" y1="28.8899" x2="223.144" y2="61.1348" gradientUnits="userSpaceOnUse">
<stop offset="0.3943" stop-color="#80E8BE"/>
<stop offset="1" stop-color="#00C278"/>
</linearGradient>
</defs>
</svg>
