<svg width="210" height="121" viewBox="0 0 210 121" fill="none" xmlns="http://www.w3.org/2000/svg">
<path d="M0 121H210V0H111.464V19.7385H0V121Z" fill="#6FACB6"/>
<path d="M203.204 113.117V27.0017V5.31421H116.214V15.7083V26.571H60.8252H5.43689L5.43689 69.8438V113.117H103.641H128.447H153.252H203.204Z" fill="#89D2DE"/>
<path d="M5.43688 26.5711L0 19.7385H111.456L116.214 26.5711H5.43688Z" fill="#C6E9F1"/>
<path d="M116.214 5.3142L111.456 0H210L203.204 5.3142H116.214Z" fill="#C6E9F1"/>
<path d="M13.3104 97.0046C13.3104 95.4939 13.6477 94.1446 14.3224 92.9566C15.0117 91.7539 15.9431 90.8226 17.1164 90.1626C18.3044 89.4879 19.6317 89.1506 21.0984 89.1506C22.8144 89.1506 24.3177 89.5906 25.6084 90.4706C26.8991 91.3506 27.8011 92.5679 28.3144 94.1226H24.7724C24.4204 93.3893 23.9217 92.8393 23.2764 92.4726C22.6457 92.1059 21.9124 91.9226 21.0764 91.9226C20.1817 91.9226 19.3824 92.1353 18.6784 92.5606C17.9891 92.9713 17.4464 93.5579 17.0504 94.3206C16.6691 95.0833 16.4784 95.9779 16.4784 97.0046C16.4784 98.0166 16.6691 98.9113 17.0504 99.6886C17.4464 100.451 17.9891 101.045 18.6784 101.471C19.3824 101.881 20.1817 102.087 21.0764 102.087C21.9124 102.087 22.6457 101.903 23.2764 101.537C23.9217 101.155 24.4204 100.598 24.7724 99.8646H28.3144C27.8011 101.434 26.8991 102.659 25.6084 103.539C24.3324 104.404 22.8291 104.837 21.0984 104.837C19.6317 104.837 18.3044 104.507 17.1164 103.847C15.9431 103.172 15.0117 102.241 14.3224 101.053C13.6477 99.8646 13.3104 98.5153 13.3104 97.0046ZM36.3571 104.903C35.1838 104.903 34.1278 104.646 33.1891 104.133C32.2504 103.605 31.5098 102.864 30.9671 101.911C30.4391 100.957 30.1751 99.8573 30.1751 98.6106C30.1751 97.3639 30.4464 96.2639 30.9891 95.3106C31.5464 94.3573 32.3018 93.6239 33.2551 93.1106C34.2084 92.5826 35.2718 92.3186 36.4451 92.3186C37.6184 92.3186 38.6818 92.5826 39.6351 93.1106C40.5884 93.6239 41.3364 94.3573 41.8791 95.3106C42.4364 96.2639 42.7151 97.3639 42.7151 98.6106C42.7151 99.8573 42.4291 100.957 41.8571 101.911C41.2998 102.864 40.5371 103.605 39.5691 104.133C38.6158 104.646 37.5451 104.903 36.3571 104.903ZM36.3571 102.219C36.9144 102.219 37.4351 102.087 37.9191 101.823C38.4178 101.544 38.8138 101.133 39.1071 100.591C39.4004 100.048 39.5471 99.3879 39.5471 98.6106C39.5471 97.4519 39.2391 96.5646 38.6231 95.9486C38.0218 95.3179 37.2811 95.0026 36.4011 95.0026C35.5211 95.0026 34.7804 95.3179 34.1791 95.9486C33.5924 96.5646 33.2991 97.4519 33.2991 98.6106C33.2991 99.7693 33.5851 100.664 34.1571 101.295C34.7438 101.911 35.4771 102.219 36.3571 102.219ZM60.1104 92.3406C61.6064 92.3406 62.8091 92.8026 63.7184 93.7266C64.6424 94.6359 65.1044 95.9119 65.1044 97.5546V104.705H62.0244V97.9726C62.0244 97.0193 61.7824 96.2933 61.2984 95.7946C60.8144 95.2813 60.1544 95.0246 59.3184 95.0246C58.4824 95.0246 57.8151 95.2813 57.3164 95.7946C56.8324 96.2933 56.5904 97.0193 56.5904 97.9726V104.705H53.5104V97.9726C53.5104 97.0193 53.2684 96.2933 52.7844 95.7946C52.3004 95.2813 51.6404 95.0246 50.8044 95.0246C49.9537 95.0246 49.2791 95.2813 48.7804 95.7946C48.2964 96.2933 48.0544 97.0193 48.0544 97.9726V104.705H44.9744V92.5166H48.0544V93.9906C48.4504 93.4773 48.9564 93.0739 49.5724 92.7806C50.2031 92.4873 50.8924 92.3406 51.6404 92.3406C52.5937 92.3406 53.4444 92.5459 54.1924 92.9566C54.9404 93.3526 55.5197 93.9246 55.9304 94.6726C56.3264 93.9686 56.8984 93.4039 57.6464 92.9786C58.4091 92.5533 59.2304 92.3406 60.1104 92.3406ZM83.1631 92.3406C84.6591 92.3406 85.8618 92.8026 86.7711 93.7266C87.6951 94.6359 88.1571 95.9119 88.1571 97.5546V104.705H85.0771V97.9726C85.0771 97.0193 84.8351 96.2933 84.3511 95.7946C83.8671 95.2813 83.2071 95.0246 82.3711 95.0246C81.5351 95.0246 80.8678 95.2813 80.3691 95.7946C79.8851 96.2933 79.6431 97.0193 79.6431 97.9726V104.705H76.5631V97.9726C76.5631 97.0193 76.3211 96.2933 75.8371 95.7946C75.3531 95.2813 74.6931 95.0246 73.8571 95.0246C73.0065 95.0246 72.3318 95.2813 71.8331 95.7946C71.3491 96.2933 71.1071 97.0193 71.1071 97.9726V104.705H68.0271V92.5166H71.1071V93.9906C71.5031 93.4773 72.0091 93.0739 72.6251 92.7806C73.2558 92.4873 73.9451 92.3406 74.6931 92.3406C75.6465 92.3406 76.4971 92.5459 77.2451 92.9566C77.9931 93.3526 78.5725 93.9246 78.9831 94.6726C79.3791 93.9686 79.9511 93.4039 80.6991 92.9786C81.4618 92.5533 82.2831 92.3406 83.1631 92.3406ZM102.586 92.5166V104.705H99.4839V103.165C99.0879 103.693 98.5672 104.111 97.9219 104.419C97.2912 104.712 96.6019 104.859 95.8539 104.859C94.9005 104.859 94.0572 104.661 93.3239 104.265C92.5905 103.854 92.0112 103.26 91.5859 102.483C91.1752 101.691 90.9699 100.752 90.9699 99.6666V92.5166H94.0499V99.2266C94.0499 100.195 94.2919 100.943 94.7759 101.471C95.2599 101.984 95.9199 102.241 96.7559 102.241C97.6065 102.241 98.2739 101.984 98.7579 101.471C99.2419 100.943 99.4839 100.195 99.4839 99.2266V92.5166H102.586ZM112.379 92.3406C113.831 92.3406 115.004 92.8026 115.899 93.7266C116.793 94.6359 117.241 95.9119 117.241 97.5546V104.705H114.161V97.9726C114.161 97.0046 113.919 96.2639 113.435 95.7506C112.951 95.2226 112.291 94.9586 111.455 94.9586C110.604 94.9586 109.929 95.2226 109.431 95.7506C108.947 96.2639 108.705 97.0046 108.705 97.9726V104.705H105.625V92.5166H108.705V94.0346C109.115 93.5066 109.636 93.0959 110.267 92.8026C110.912 92.4946 111.616 92.3406 112.379 92.3406ZM121.732 91.0646C121.189 91.0646 120.734 90.8959 120.368 90.5586C120.016 90.2066 119.84 89.7739 119.84 89.2606C119.84 88.7473 120.016 88.3219 120.368 87.9846C120.734 87.6326 121.189 87.4566 121.732 87.4566C122.274 87.4566 122.722 87.6326 123.074 87.9846C123.44 88.3219 123.624 88.7473 123.624 89.2606C123.624 89.7739 123.44 90.2066 123.074 90.5586C122.722 90.8959 122.274 91.0646 121.732 91.0646ZM123.25 92.5166V104.705H120.17V92.5166H123.25ZM125.501 98.6106C125.501 97.3493 125.757 96.2493 126.271 95.3106C126.784 94.3573 127.495 93.6239 128.405 93.1106C129.314 92.5826 130.355 92.3186 131.529 92.3186C133.039 92.3186 134.286 92.6999 135.269 93.4626C136.266 94.2106 136.933 95.2666 137.271 96.6306H133.949C133.773 96.1026 133.472 95.6919 133.047 95.3986C132.636 95.0906 132.123 94.9366 131.507 94.9366C130.627 94.9366 129.93 95.2593 129.417 95.9046C128.903 96.5353 128.647 97.4373 128.647 98.6106C128.647 99.7693 128.903 100.671 129.417 101.317C129.93 101.947 130.627 102.263 131.507 102.263C132.753 102.263 133.567 101.705 133.949 100.591H137.271C136.933 101.911 136.266 102.959 135.269 103.737C134.271 104.514 133.025 104.903 131.529 104.903C130.355 104.903 129.314 104.646 128.405 104.133C127.495 103.605 126.784 102.871 126.271 101.933C125.757 100.979 125.501 99.8719 125.501 98.6106ZM138.735 98.5666C138.735 97.3346 138.977 96.2419 139.461 95.2886C139.96 94.3353 140.627 93.6019 141.463 93.0886C142.314 92.5753 143.26 92.3186 144.301 92.3186C145.21 92.3186 146.002 92.5019 146.677 92.8686C147.366 93.2353 147.916 93.6973 148.327 94.2546V92.5166H151.429V104.705H148.327V102.923C147.931 103.495 147.381 103.971 146.677 104.353C145.988 104.719 145.188 104.903 144.279 104.903C143.252 104.903 142.314 104.639 141.463 104.111C140.627 103.583 139.96 102.842 139.461 101.889C138.977 100.921 138.735 99.8133 138.735 98.5666ZM148.327 98.6106C148.327 97.8626 148.18 97.2246 147.887 96.6966C147.594 96.1539 147.198 95.7433 146.699 95.4646C146.2 95.1713 145.665 95.0246 145.093 95.0246C144.521 95.0246 143.993 95.1639 143.509 95.4426C143.025 95.7213 142.629 96.1319 142.321 96.6746C142.028 97.2026 141.881 97.8333 141.881 98.5666C141.881 99.2999 142.028 99.9453 142.321 100.503C142.629 101.045 143.025 101.463 143.509 101.757C144.008 102.05 144.536 102.197 145.093 102.197C145.665 102.197 146.2 102.057 146.699 101.779C147.198 101.485 147.594 101.075 147.887 100.547C148.18 100.004 148.327 99.3586 148.327 98.6106ZM158.023 95.0466V100.943C158.023 101.353 158.119 101.654 158.309 101.845C158.515 102.021 158.852 102.109 159.321 102.109H160.751V104.705H158.815C156.219 104.705 154.921 103.443 154.921 100.921V95.0466H153.469V92.5166H154.921V89.5026H158.023V92.5166H160.751V95.0466H158.023ZM164.529 91.0646C163.986 91.0646 163.531 90.8959 163.165 90.5586C162.813 90.2066 162.637 89.7739 162.637 89.2606C162.637 88.7473 162.813 88.3219 163.165 87.9846C163.531 87.6326 163.986 87.4566 164.529 87.4566C165.071 87.4566 165.519 87.6326 165.871 87.9846C166.237 88.3219 166.421 88.7473 166.421 89.2606C166.421 89.7739 166.237 90.2066 165.871 90.5586C165.519 90.8959 165.071 91.0646 164.529 91.0646ZM166.047 92.5166V104.705H162.967V92.5166H166.047ZM174.502 104.903C173.328 104.903 172.272 104.646 171.334 104.133C170.395 103.605 169.654 102.864 169.112 101.911C168.584 100.957 168.32 99.8573 168.32 98.6106C168.32 97.3639 168.591 96.2639 169.134 95.3106C169.691 94.3573 170.446 93.6239 171.4 93.1106C172.353 92.5826 173.416 92.3186 174.59 92.3186C175.763 92.3186 176.826 92.5826 177.78 93.1106C178.733 93.6239 179.481 94.3573 180.024 95.3106C180.581 96.2639 180.86 97.3639 180.86 98.6106C180.86 99.8573 180.574 100.957 180.002 101.911C179.444 102.864 178.682 103.605 177.714 104.133C176.76 104.646 175.69 104.903 174.502 104.903ZM174.502 102.219C175.059 102.219 175.58 102.087 176.064 101.823C176.562 101.544 176.958 101.133 177.252 100.591C177.545 100.048 177.692 99.3879 177.692 98.6106C177.692 97.4519 177.384 96.5646 176.768 95.9486C176.166 95.3179 175.426 95.0026 174.546 95.0026C173.666 95.0026 172.925 95.3179 172.324 95.9486C171.737 96.5646 171.444 97.4519 171.444 98.6106C171.444 99.7693 171.73 100.664 172.302 101.295C172.888 101.911 173.622 102.219 174.502 102.219ZM189.873 92.3406C191.325 92.3406 192.498 92.8026 193.393 93.7266C194.288 94.6359 194.735 95.9119 194.735 97.5546V104.705H191.655V97.9726C191.655 97.0046 191.413 96.2639 190.929 95.7506C190.445 95.2226 189.785 94.9586 188.949 94.9586C188.098 94.9586 187.424 95.2226 186.925 95.7506C186.441 96.2639 186.199 97.0046 186.199 97.9726V104.705H183.119V92.5166H186.199V94.0346C186.61 93.5066 187.13 93.0959 187.761 92.8026C188.406 92.4946 189.11 92.3406 189.873 92.3406Z" fill="#0B4870"/>
<path d="M178.003 54.6759C170.277 54.6759 169.526 64.4352 173.995 67.585C176.271 67.8718 174.903 68.2166 175.123 68.3507C175.979 68.8725 172.068 73.7775 178.003 73.4207C181.267 73.2246 179.787 72.3078 180.643 71.7862C181.907 71.7684 180.664 68.7327 180.665 68.4728C185.766 66.1696 185.728 54.6759 178.003 54.6759Z" fill="#0E538C"/>
<path d="M185.399 72.5481L181.044 70.7143C180.68 70.5613 180.443 70.202 180.443 69.8037V68.6116H175.562V69.8037C175.562 70.202 175.325 70.5613 174.961 70.7143L170.606 72.5481C170.061 72.7782 169.705 73.3169 169.705 73.9142V75.8875C169.705 76.4323 170.142 76.874 170.682 76.874H185.324C185.863 76.874 186.3 76.4323 186.3 75.8875V73.9142C186.3 73.3168 185.944 72.7782 185.399 72.5481Z" fill="#B36A32"/>
<path d="M185.399 72.5482L181.188 70.7751L178.002 72.1644L174.817 70.7751L170.606 72.5482C170.061 72.7783 169.705 73.317 169.705 73.9143V75.8876C169.705 76.4324 170.142 76.8741 170.682 76.8741H185.324C185.863 76.8741 186.3 76.4324 186.3 75.8876V73.9143C186.3 73.3169 185.944 72.7783 185.399 72.5482Z" fill="#FFBE55"/>
<path d="M178.003 72.1644L175.209 70.0468C175.03 69.9111 174.774 69.9553 174.65 70.1436L174.098 70.9804L175.811 73.4036C175.941 73.5879 176.198 73.624 176.373 73.4825L178.003 72.1644Z" fill="#FFE3CA"/>
<path d="M178.003 72.1644L180.796 70.0468C180.976 69.9111 181.231 69.9553 181.355 70.1436L181.907 70.9804L180.195 73.4036C180.065 73.5879 179.808 73.624 179.633 73.4825L178.003 72.1644Z" fill="#FFE3CA"/>
<path d="M173.217 62.2714C173.209 62.5176 173.214 62.7646 173.239 63.01L173.588 66.4622C173.647 67.1125 174.02 67.6912 174.585 68.0085L177.363 69.5689C177.806 69.8171 178.344 69.8171 178.786 69.5689L181.565 68.0085C182.129 67.6914 182.502 67.1125 182.561 66.4622L182.864 63.5554C182.864 59.6093 178.075 61.5823 175.634 59.1158C175.146 60.1025 173.399 61.0158 173.217 62.2714Z" fill="#B77C48"/>
<path d="M148.403 70.4202V67.7109H141.51V70.4202L144.957 73.5163L148.403 70.4202Z" fill="#FCD2B1"/>
<path d="M153.733 71.6875L148.994 70.5607C148.922 70.5438 148.856 70.5148 148.795 70.48L144.957 72.7424L141.268 70.37C141.173 70.4607 141.054 70.5282 140.92 70.5604L136.181 71.6872C135.489 71.852 135 72.4759 135 73.1941V76.2256C135 76.6531 135.343 76.9997 135.766 76.9997H154.148C154.571 76.9997 154.914 76.6531 154.914 76.2256V73.1941C154.914 72.4759 154.424 71.852 153.733 71.6875Z" fill="#CCE9FF"/>
<path d="M145.914 76.9999H143.999L144.239 73.5164H145.675L145.914 76.9999Z" fill="#0B4870"/>
<path d="M145.914 72.7426H143.999V72.9663C143.999 73.4841 144.415 73.9036 144.927 73.9036H144.986C145.499 73.9036 145.914 73.484 145.914 72.9663V72.7426H145.914Z" fill="#0E538C"/>
<path d="M141.456 69.5585L144.956 72.7426C144.956 72.7426 143.976 73.2428 142.766 74.2505C142.517 74.4587 142.139 74.3744 142.005 74.0768L140.361 70.4203L140.881 69.6315C141.011 69.4352 141.282 69.4008 141.456 69.5585Z" fill="#2A94F4"/>
<path d="M148.457 69.5581L144.957 72.7423C144.957 72.7423 145.937 73.2424 147.147 74.2501C147.397 74.4584 147.774 74.374 147.908 74.0765L149.552 70.4198L149.032 69.631C148.903 69.4349 148.631 69.4005 148.457 69.5581Z" fill="#2A94F4"/>
<path d="M150.678 63.6744L150.245 65.4232C150.194 65.6301 150.01 65.7752 149.798 65.7752C149.736 65.7752 149.676 65.7625 149.623 65.7395L149.601 66.2284C149.57 66.9221 149.235 67.5653 148.685 67.9818L147.101 69.1814C146.704 69.4829 146.22 69.6454 145.723 69.6454H144.191C143.694 69.6454 143.211 69.4829 142.812 69.1814L141.229 67.9818C140.68 67.5653 140.343 66.9221 140.313 66.2284L140.291 65.7395C140.237 65.7625 140.177 65.7752 140.116 65.7752C139.905 65.7752 139.72 65.6301 139.669 65.4232L139.237 63.6744C139.112 63.1694 139.491 62.6793 140.006 62.6793H140.007C140.057 62.6793 140.105 62.6839 140.153 62.693L139.979 58.8091H149.935L149.76 62.693C149.808 62.6839 149.856 62.6793 149.906 62.6793H149.908C150.424 62.6793 150.802 63.1694 150.678 63.6744Z" fill="#FFE3CA"/>
<path d="M147.279 56.245L147.637 58.8093C149.276 59.1405 149.512 61.7396 149.546 62.4823C149.552 62.6169 149.595 62.747 149.667 62.8603L150.293 63.8404C150.293 63.8404 150.881 63.0745 151.059 61.1313C151.059 61.1315 151.395 54.6968 147.279 56.245Z" fill="#0B4870"/>
<path d="M140.912 55.9425C138.351 57.8533 138.83 61.1312 138.83 61.1312C139.005 62.679 139.596 63.8403 139.596 63.8403L140.361 63.0662C140.361 63.0662 140.066 60.8303 141.51 59.9701C142.851 59.1719 144.023 59.583 145.22 59.583C148.427 59.583 149.325 58.3614 149.169 56.8738C149.089 56.1039 147.924 54.5005 144.957 54.5514C143.759 54.5719 142.077 55.3296 140.912 55.9425Z" fill="#0B4870"/>
<path d="M169.104 45.3331C168.761 45.7062 168.394 46.0601 168.006 46.3934C167.807 46.564 167.602 46.7298 167.392 46.8877C167.21 47.0264 167.023 47.1619 166.833 47.291C166.775 47.3309 166.717 47.3708 166.657 47.409C166.324 47.6307 165.98 47.8379 165.623 48.0309C163.543 49.1645 161.097 49.8151 158.48 49.8151C156.284 49.8151 154.209 49.3574 152.371 48.5411C149.765 51.2245 145.602 50.9806 145.602 50.9806L148.874 46.3248C146.334 44.1085 144.758 41.0233 144.758 37.6064C144.758 35.1446 145.577 32.8533 146.984 30.9368C147.314 30.4872 147.677 30.0583 148.068 29.6533C148.454 29.2531 148.871 28.8736 149.312 28.5228C149.32 28.5149 149.327 28.5085 149.335 28.5053C149.72 28.1976 150.123 27.9106 150.545 27.6443C150.437 27.9169 150.34 28.1928 150.253 28.4718C149.884 29.6469 149.686 30.8826 149.686 32.1598C149.686 39.7047 156.56 45.8194 165.037 45.8194C166.316 45.8194 167.558 45.6807 168.745 45.416C168.865 45.3905 168.985 45.3618 169.104 45.3331Z" fill="#2A94F4"/>
<path d="M170.717 39.1059C170.717 42.0384 169.556 44.7287 167.62 46.8331C166.325 47.1504 164.962 47.3188 163.553 47.3188C155.076 47.3188 148.203 41.2037 148.203 33.6595C148.203 32.0771 148.506 30.5573 149.061 29.1435C151.301 27.7296 154.039 26.8971 156.996 26.8971C164.574 26.8969 170.717 32.3622 170.717 39.1059Z" fill="url(#paint0_linear)"/>
<path d="M174.299 43.4128L177.961 48.6225C177.961 48.6225 173.302 48.8957 170.388 45.8936C169.51 46.2824 168.583 46.5984 167.62 46.8329C166.325 47.1502 164.962 47.3186 163.553 47.3186C155.076 47.3186 148.203 41.2036 148.203 33.6593C148.203 32.077 148.506 30.5571 149.061 29.1433C151.156 23.8181 156.854 20 163.553 20C172.03 20 178.904 26.1139 178.904 33.6593C178.904 37.4807 177.142 40.934 174.299 43.4128Z" fill="#CCE9FF"/>
<path d="M168.232 32.4062L168.239 32.4109C168.239 33.7136 167.165 35.6368 166.735 36.3604C166.38 36.958 166.099 38.3545 166.012 38.8217C165.926 38.7909 165.832 38.7748 165.732 38.7748H161.437C161.351 38.7748 161.267 38.7874 161.19 38.8114C161.092 38.3353 160.788 36.9533 160.436 36.3604C160.005 35.6368 158.932 33.708 158.932 32.4052L158.938 32.4041C158.934 32.3205 158.932 32.237 158.932 32.1522C158.932 29.5546 161.027 27.4493 163.585 27.4493C166.194 27.4493 168.239 29.5546 168.239 32.1522C168.239 32.2368 168.237 32.3226 168.232 32.4062Z" fill="#FFBE55"/>
<path d="M166.445 39.4234V39.5345H160.726V39.4234C160.726 39.1132 160.919 38.8922 161.19 38.8109C161.267 38.787 161.351 38.7744 161.437 38.7744H165.732C165.832 38.7744 165.926 38.7905 166.012 38.8213C166.267 38.9106 166.445 39.1258 166.445 39.4234Z" fill="#D3D3D3"/>
<path d="M165.792 35.2061L165.523 35.798L165.48 35.893L165.292 36.3039C165.288 36.3131 165.284 36.3224 165.281 36.3326C165.275 36.3498 165.269 36.3691 165.264 36.3898C165.262 36.3989 165.26 36.4102 165.258 36.4206C165.255 36.4308 165.253 36.4412 165.252 36.4515C165.25 36.4619 165.249 36.4721 165.248 36.4825C165.245 36.4927 165.244 36.5019 165.244 36.5123C165.242 36.5319 165.241 36.5501 165.241 36.5651V38.7745H164.84V36.5651C164.84 36.4369 164.877 36.2879 164.93 36.1712L165.381 35.2245H164.843C164.831 35.2245 164.814 35.2244 164.797 35.2257C164.791 35.2257 164.785 35.2268 164.78 35.228C164.775 35.228 164.772 35.2291 164.768 35.2302C164.761 35.2326 164.754 35.2361 164.75 35.2406C164.747 35.2428 164.746 35.2439 164.745 35.2463V35.2476L164.363 35.8932C164.302 35.9997 164.204 36.0501 164.098 36.0456C163.991 36.0398 163.901 35.9687 163.849 35.8555L163.584 35.2763L163.322 35.852C163.27 35.9644 163.179 36.0317 163.073 36.0363C162.965 36.0421 162.87 35.9826 162.808 35.8748L162.427 35.2476C162.412 35.2222 162.357 35.2245 162.329 35.2245H161.788L162.237 36.1723C162.29 36.2879 162.331 36.4369 162.331 36.5651V38.7745H161.98V36.5651C161.98 36.4952 161.93 36.367 161.9 36.3029L161.388 35.2028C161.34 35.0974 161.34 34.9909 161.395 34.9016C161.452 34.8136 161.544 34.7676 161.66 34.7676H162.328C162.497 34.7676 162.682 34.8697 162.767 35.0184L163.048 35.5027L163.324 34.8938C163.417 34.69 163.452 34.6122 163.583 34.6122H163.584C163.594 34.6122 163.603 34.6122 163.612 34.6133C163.712 34.6235 163.751 34.6922 163.825 34.8549C163.831 34.8675 163.837 34.8802 163.843 34.8926L163.976 35.1833L164.122 35.504L164.403 35.0186C164.488 34.8698 164.673 34.7678 164.843 34.7678H165.511C165.542 34.7678 165.57 34.7713 165.597 34.777C165.61 34.7804 165.621 34.7828 165.633 34.7873C165.644 34.7908 165.655 34.7952 165.665 34.801C165.672 34.8032 165.679 34.8065 165.685 34.8112C165.694 34.8158 165.702 34.8204 165.708 34.8262C165.716 34.8308 165.724 34.8365 165.731 34.8445C165.74 34.8525 165.749 34.8617 165.758 34.8719C165.766 34.8812 165.774 34.8915 165.781 34.9028C165.838 34.9921 165.841 35.1009 165.792 35.2061Z" fill="#2A94F4"/>
<path d="M166.44 42.1212C166.357 43.6371 165.135 44.8504 163.584 44.8504C162.084 44.8504 160.816 43.6371 160.73 42.1212H166.44Z" fill="#D3D3D3"/>
<path d="M166.445 40.4474H160.726V41.2075H166.445V40.4474Z" fill="#D3D3D3"/>
<path d="M166.846 39.7121V40.2558C166.846 40.3544 166.726 40.447 166.627 40.447H160.542C160.445 40.447 160.375 40.3544 160.375 40.2558V39.7121C160.375 39.6136 160.445 39.5347 160.542 39.5347H166.627C166.726 39.5347 166.846 39.6136 166.846 39.7121Z" fill="#F2F2F2"/>
<path d="M166.846 41.3765V41.919C166.846 42.0186 166.726 42.1205 166.627 42.1205H160.542C160.445 42.1205 160.375 42.0186 160.375 41.919V41.3765C160.375 41.2769 160.445 41.207 160.542 41.207H166.627C166.726 41.207 166.846 41.2769 166.846 41.3765Z" fill="#F2F2F2"/>
<path d="M163.61 25.6405C163.313 25.6405 163.083 25.3975 163.083 25.0977V23.506C163.083 23.2064 163.313 22.9634 163.61 22.9634C163.906 22.9634 164.136 23.2064 164.136 23.506V25.0977C164.137 25.3975 163.906 25.6405 163.61 25.6405Z" fill="#F4C342"/>
<path d="M163.61 25.6405C163.313 25.6405 163.083 25.3975 163.083 25.0977V23.506C163.083 23.2064 163.313 22.9634 163.61 22.9634C163.906 22.9634 164.136 23.2064 164.136 23.506V25.0977C164.137 25.3975 163.906 25.6405 163.61 25.6405Z" fill="#FFBE55"/>
<path d="M171.997 32.5883H170.422C170.125 32.5883 169.885 32.3557 169.885 32.0559C169.885 31.7562 170.125 31.5237 170.422 31.5237H171.997C172.293 31.5237 172.533 31.7562 172.533 32.0559C172.533 32.3557 172.293 32.5883 171.997 32.5883Z" fill="#F89B36"/>
<path d="M171.997 32.5883H170.422C170.125 32.5883 169.885 32.3557 169.885 32.0559C169.885 31.7562 170.125 31.5237 170.422 31.5237H171.997C172.293 31.5237 172.533 31.7562 172.533 32.0559C172.533 32.3557 172.293 32.5883 171.997 32.5883Z" fill="#FFBE55"/>
<path d="M156.748 32.5883H155.173C154.877 32.5883 154.636 32.3557 154.636 32.0559C154.636 31.7562 154.877 31.5237 155.173 31.5237H156.748C157.045 31.5237 157.285 31.7562 157.285 32.0559C157.285 32.3557 157.045 32.5883 156.748 32.5883Z" fill="#FFBE55"/>
<path d="M158.751 27.6639C158.613 27.6639 158.476 27.611 158.371 27.5051L157.258 26.3795C157.048 26.1676 157.048 25.824 157.258 25.6121C157.467 25.4001 157.807 25.4001 158.017 25.6121L159.131 26.7376C159.34 26.9495 159.34 27.2932 159.131 27.5051C159.026 27.611 158.888 27.6639 158.751 27.6639Z" fill="#FFBE55"/>
<path d="M168.419 27.6639C168.282 27.6639 168.145 27.611 168.04 27.5051C167.83 27.2932 167.83 26.9496 168.04 26.7377L169.153 25.6121C169.363 25.4001 169.703 25.4001 169.913 25.6121C170.122 25.8241 170.122 26.1676 169.913 26.3795L168.799 27.5051C168.694 27.611 168.557 27.6639 168.419 27.6639Z" fill="#F89B36"/>
<path d="M168.419 27.6639C168.282 27.6639 168.145 27.611 168.04 27.5051C167.83 27.2932 167.83 26.9496 168.04 26.7377L169.153 25.6121C169.363 25.4001 169.703 25.4001 169.913 25.6121C170.122 25.8241 170.122 26.1676 169.913 26.3795L168.799 27.5051C168.694 27.611 168.557 27.6639 168.419 27.6639Z" fill="#FFBE55"/>
<defs>
<linearGradient id="paint0_linear" x1="159.46" y1="26.897" x2="159.46" y2="47.3187" gradientUnits="userSpaceOnUse">
<stop offset="0.3943" stop-color="#80E8BE"/>
<stop offset="1" stop-color="#00C278"/>
</linearGradient>
</defs>
</svg>
