<svg width="288" height="160" viewBox="0 0 288 160" fill="none" xmlns="http://www.w3.org/2000/svg">
<path d="M0 159.384H288V0H152.865V26H0V159.384Z" fill="#6FACB6"/>
<path d="M278.68 149V35.5673V7H159.379V20.6913V35H83.4175H7.4563L7.4563 92V149H142.136H176.155H210.175H278.68Z" fill="#89D2DE"/>
<path d="M7.4563 35L0 26H152.854L159.379 35H7.4563Z" fill="#C6E9F1"/>
<path d="M159.379 7L152.854 0H288L278.68 7H159.379Z" fill="#C6E9F1"/>
<path d="M222.889 73.9796C212.48 73.9796 211.467 86.9907 217.489 91.1899C220.556 91.5722 218.712 92.0323 219.008 92.211C220.162 92.9063 214.892 99.4458 222.889 98.97C227.288 98.7082 225.293 97.4863 226.447 96.791C228.15 96.767 226.475 92.7198 226.476 92.3735C233.348 89.303 233.298 73.9796 222.889 73.9796Z" fill="#0E538C"/>
<path d="M232.855 97.8065L226.987 95.362C226.497 95.1575 226.177 94.6795 226.177 94.1481V92.5582H219.6V94.1481C219.6 94.6795 219.281 95.1575 218.792 95.362L212.923 97.8065C212.188 98.1133 211.709 98.8316 211.709 99.628V102.258C211.709 102.985 212.298 103.574 213.025 103.574H232.754C233.479 103.574 234.069 102.985 234.069 102.258V99.628C234.069 98.8314 233.59 98.1131 232.855 97.8065Z" fill="#783C0D"/>
<path d="M232.855 97.8065L227.181 95.443L222.889 97.2952L218.597 95.443L212.924 97.8065C212.188 98.1133 211.709 98.8316 211.709 99.6279V102.258C211.709 102.985 212.298 103.574 213.025 103.574H232.755C233.48 103.574 234.07 102.985 234.07 102.258V99.6279C234.069 98.8314 233.59 98.113 232.855 97.8065Z" fill="#FFBE55"/>
<path d="M222.889 97.295L219.125 94.4714C218.884 94.2907 218.539 94.3499 218.371 94.6005L217.628 95.7163L219.935 98.9472C220.111 99.1927 220.456 99.2412 220.692 99.0522L222.889 97.295Z" fill="#FFE3CA"/>
<path d="M222.889 97.2949L226.653 94.4713C226.895 94.2906 227.239 94.3498 227.406 94.6003L228.15 95.7162L225.843 98.9471C225.667 99.1926 225.321 99.2411 225.085 99.0521L222.889 97.2949Z" fill="#FFE3CA"/>
<path d="M216.441 84.1055C216.43 84.4335 216.436 84.7628 216.47 85.0901L216.941 89.6926C217.02 90.5594 217.523 91.331 218.284 91.7538L222.028 93.8345C222.624 94.1651 223.348 94.1651 223.944 93.8345L227.689 91.7538C228.45 91.331 228.953 90.5594 229.031 89.6926L229.44 85.8172C229.44 80.5564 222.987 83.1867 219.698 79.8986C219.04 81.2139 216.686 82.4308 216.441 84.1055Z" fill="#8D5522"/>
<path d="M199.473 94.9694V91.3573H190.185V94.9694L194.829 99.0974L199.473 94.9694Z" fill="#D19C72"/>
<path d="M206.654 96.6585L200.269 95.1564C200.172 95.1339 200.083 95.0954 200 95.0489L194.829 98.0652L189.859 94.9023C189.73 95.0234 189.571 95.1134 189.389 95.1564L183.004 96.6585C182.072 96.8783 181.413 97.7099 181.413 98.6675V102.709C181.413 103.279 181.875 103.741 182.445 103.741H207.213C207.783 103.741 208.245 103.279 208.245 102.709V98.6675C208.245 97.7099 207.586 96.8783 206.654 96.6585Z" fill="#CCE9FF"/>
<path d="M196.119 103.741H193.539L193.861 99.0973H195.797L196.119 103.741Z" fill="#FFBE55"/>
<path d="M196.119 98.0656H193.539V98.3633C193.539 99.0544 194.099 99.613 194.789 99.613H194.869C195.56 99.613 196.119 99.0544 196.119 98.3633V98.0656V98.0656Z" fill="#FFBE55"/>
<path d="M190.112 93.8204L194.829 98.0656C194.829 98.0656 193.508 98.7322 191.878 100.076C191.541 100.353 191.033 100.241 190.852 99.8445L188.636 94.969L189.337 93.9177C189.512 93.6559 189.878 93.6099 190.112 93.8204Z" fill="#2A94F4"/>
<path d="M199.545 93.8203L194.828 98.0655C194.828 98.0655 196.149 98.732 197.779 100.075C198.116 100.353 198.624 100.24 198.805 99.8444L201.02 94.9689L200.319 93.9175C200.145 93.6558 199.779 93.6098 199.545 93.8203Z" fill="#2A94F4"/>
<path d="M202.538 85.9757L201.955 88.3074C201.886 88.5835 201.637 88.7767 201.352 88.7767C201.269 88.7767 201.188 88.7602 201.116 88.7295L201.086 89.3813C201.045 90.3061 200.593 91.1637 199.852 91.7185L197.718 93.3182C197.183 93.7195 196.531 93.9365 195.861 93.9365H193.797C193.128 93.9365 192.476 93.7198 191.939 93.3182L189.806 91.7185C189.066 91.1637 188.612 90.3064 188.571 89.3813L188.542 88.7295C188.47 88.7602 188.388 88.7767 188.306 88.7767C188.022 88.7767 187.773 88.5835 187.705 88.3074L187.121 85.9757C186.953 85.3029 187.464 84.6493 188.158 84.6493H188.16C188.227 84.6493 188.291 84.6556 188.356 84.6673L188.121 79.489H201.537L201.301 84.6673C201.366 84.6556 201.43 84.6493 201.497 84.6493H201.5C202.196 84.6493 202.705 85.3029 202.538 85.9757Z" fill="#E6AF7F"/>
<path d="M197.958 76.0711L198.441 79.4895C200.65 79.9315 200.967 83.3966 201.014 84.387C201.022 84.5663 201.079 84.7395 201.177 84.891L202.019 86.1979C202.019 86.1979 202.812 85.1763 203.052 82.5858C203.051 82.5855 203.504 74.0069 197.958 76.0711Z" fill="#0B4870"/>
<path d="M189.379 75.6682C185.928 78.2154 186.573 82.5854 186.573 82.5854C186.81 84.6496 187.605 86.1975 187.605 86.1975L188.638 85.1651C188.638 85.1651 188.239 82.1843 190.185 81.0377C191.992 79.9731 193.572 80.5212 195.184 80.5212C199.506 80.5212 200.715 78.893 200.506 76.91C200.397 75.8837 198.828 73.7457 194.829 73.8135C193.215 73.8407 190.949 74.8506 189.379 75.6682Z" fill="#0B4870"/>
<path d="M254.814 94.9691V91.3569H245.526V94.9691L250.17 99.097L254.814 94.9691Z" fill="#FCD2B1"/>
<path d="M261.994 96.6584L255.609 95.1562C255.513 95.1337 255.424 95.0952 255.341 95.0487L250.17 98.0651L245.2 94.9022C245.071 95.0232 244.911 95.1132 244.73 95.1562L238.345 96.6584C237.413 96.8782 236.754 97.7098 236.754 98.6674V102.709C236.754 103.279 237.216 103.741 237.786 103.741H262.554C263.124 103.741 263.586 103.279 263.586 102.709V98.6674C263.586 97.7098 262.927 96.8782 261.994 96.6584Z" fill="#2A94F4"/>
<path d="M251.46 103.741H248.88L249.202 99.0972H251.137L251.46 103.741Z" fill="#0B4870"/>
<path d="M251.46 98.0652H248.88V98.363C248.88 99.054 249.44 99.6126 250.13 99.6126H250.21C250.9 99.6126 251.46 99.054 251.46 98.363V98.0652Z" fill="#0B4870"/>
<path d="M245.453 93.8203L250.17 98.0655C250.17 98.0655 248.849 98.732 247.218 100.075C246.882 100.353 246.374 100.24 246.193 99.8444L243.977 94.9689L244.679 93.9175C244.853 93.6558 245.219 93.6098 245.453 93.8203Z" fill="#0E538C"/>
<path d="M254.885 93.8202L250.169 98.0653C250.169 98.0653 251.49 98.7319 253.12 100.075C253.456 100.353 253.964 100.24 254.145 99.8443L256.361 94.9688L255.66 93.9174C255.486 93.6556 255.12 93.6096 254.885 93.8202Z" fill="#0E538C"/>
<path d="M257.878 85.9756L257.295 88.3073C257.227 88.5833 256.978 88.7766 256.693 88.7766C256.61 88.7766 256.528 88.7601 256.457 88.7294L256.428 89.3812C256.386 90.306 255.933 91.1636 255.193 91.7184L253.06 93.3181C252.524 93.7194 251.872 93.9364 251.202 93.9364H249.137C248.469 93.9364 247.816 93.7196 247.28 93.3181L245.147 91.7184C244.407 91.1636 243.953 90.3063 243.912 89.3812L243.882 88.7294C243.81 88.7601 243.729 88.7766 243.646 88.7766C243.363 88.7766 243.114 88.5833 243.045 88.3073L242.462 85.9756C242.293 85.3028 242.805 84.6492 243.499 84.6492H243.5C243.568 84.6492 243.632 84.6554 243.697 84.6672L243.462 79.4889H256.878L256.642 84.6672C256.707 84.6554 256.77 84.6492 256.838 84.6492H256.842C257.536 84.6492 258.045 85.3028 257.878 85.9756Z" fill="#FFE3CA"/>
<path d="M253.299 76.0707L253.782 79.4891C255.99 79.9312 256.308 83.3963 256.355 84.3866C256.362 84.5659 256.42 84.7392 256.517 84.8907L257.36 86.1976C257.36 86.1976 258.153 85.176 258.392 82.5854C258.392 82.5852 258.845 74.0065 253.299 76.0707Z" fill="#FFBE55"/>
<path d="M244.72 75.668C241.269 78.2153 241.914 82.5853 241.914 82.5853C242.151 84.6495 242.946 86.1974 242.946 86.1974L243.977 85.165C243.977 85.165 243.579 82.1842 245.526 81.0376C247.332 79.973 248.912 80.521 250.524 80.521C254.845 80.521 256.055 78.8929 255.845 76.9099C255.737 75.8836 254.168 73.7456 250.169 73.8133C248.556 73.8406 246.289 74.8504 244.72 75.668Z" fill="#FFBE55"/>
<path d="M269 27.4572V55.6529C269 59.2197 266.109 62.1106 262.543 62.1106H251.893L249.687 65.7149L247.336 69.8639L244.985 65.7149L242.779 62.1106H227.872L225.666 65.7149L223.315 69.8639L220.961 65.7149L218.758 62.1106H201.705L199.497 65.7149L197.148 69.8639L194.794 65.7149L192.591 62.1106H182.458C178.891 62.1106 176 59.2197 176 55.6529V27.4572C176 23.8903 178.891 21 182.458 21H262.543C266.11 21 269 23.8906 269 27.4572Z" fill="#CCE9FF"/>
<path d="M202.397 44.1421C202.783 44.9177 203.257 45.6468 203.809 46.3119L202.886 48.0313C202.585 48.5941 202.756 49.2874 203.274 49.6512L205.699 51.3366C206.222 51.7002 206.931 51.6124 207.353 51.1341L208.635 49.6812C209.484 49.9862 210.365 50.1843 211.261 50.2743L211.832 52.158C212.017 52.768 212.627 53.1411 213.251 53.0288L216.159 52.505C216.782 52.3925 217.224 51.8302 217.185 51.1939L217.065 49.2989C217.937 48.8956 218.75 48.3823 219.49 47.771L221.142 48.6551C221.705 48.9564 222.398 48.7861 222.762 48.2681L224.448 45.8423C224.811 45.3193 224.724 44.6107 224.245 44.1889L222.863 42.9648C223.185 42.0717 223.395 41.1441 223.476 40.199L225.175 39.6869C225.785 39.5017 226.157 38.8911 226.045 38.2678L225.521 35.36C225.409 34.7364 224.847 34.2946 224.21 34.3339L222.464 34.4424C222.07 33.5933 221.566 32.8037 220.974 32.0859L221.787 30.5665C222.088 30.0044 221.917 29.3108 221.4 28.9465L218.979 27.2649C218.456 26.9021 217.748 26.9891 217.326 27.4674L216.22 28.7228C215.293 28.3815 214.329 28.168 213.343 28.0837L212.848 26.4488C212.663 25.8382 212.052 25.4652 211.429 25.5777L208.521 26.1013C207.897 26.2138 207.455 26.7763 207.495 27.4129L207.601 29.1183C206.683 29.5504 205.832 30.1057 205.067 30.7715L203.536 29.9512C202.974 29.6501 202.281 29.8204 201.916 30.3382L200.231 32.7637C199.868 33.2873 199.955 33.9956 200.433 34.4171L201.809 35.6327C201.506 36.5221 201.321 37.4454 201.258 38.382L199.503 38.9096C198.892 39.0949 198.519 39.7052 198.632 40.3285L199.156 43.2368C199.268 43.8601 199.83 44.3017 200.467 44.2626L202.397 44.1421ZM211.516 34.3779C214.166 33.9008 216.712 35.6698 217.189 38.3195C217.666 40.9693 215.897 43.5158 213.247 43.9929C210.598 44.4704 208.051 42.701 207.574 40.0512C207.097 37.4017 208.866 34.8552 211.516 34.3779Z" fill="#2A94F4"/>
<path d="M241.809 37.7823L240.042 36.7632C239.497 36.4486 238.804 36.5937 238.432 37.098L237.728 38.0446C236.95 37.8283 236.146 37.7213 235.337 37.721L234.887 36.5954C234.657 36.0133 234.021 35.6948 233.416 35.8543L231.445 36.3854C230.841 36.5494 230.449 37.138 230.541 37.76L230.716 38.9557C229.996 39.372 229.339 39.8825 228.763 40.4791L227.629 39.9893C227.051 39.7415 226.382 39.9625 226.068 40.5071L225.05 42.2843C224.736 42.8288 224.88 43.5216 225.385 43.8934L226.442 44.679C226.26 45.4261 226.171 46.1912 226.179 46.9592L224.959 47.4455C224.377 47.6758 224.059 48.3116 224.218 48.9165L224.749 50.8877C224.913 51.492 225.502 51.8838 226.124 51.7918L227.501 51.5887C227.866 52.1973 228.304 52.7571 228.803 53.2652L228.246 54.5575C227.998 55.1354 228.219 55.8042 228.764 56.1187L230.531 57.1383C231.076 57.4524 231.769 57.3073 232.14 56.803L232.975 55.6822C233.688 55.8704 234.42 55.9749 235.156 55.9832L235.682 57.3066C235.912 57.8886 236.548 58.2069 237.153 58.0477L239.124 57.5169C239.728 57.3526 240.119 56.7638 240.028 56.1417L239.829 54.7896C240.514 54.3995 241.142 53.9242 241.702 53.3759L242.939 53.9075C243.517 54.1555 244.186 53.9342 244.5 53.3902L245.52 51.6227C245.834 51.0782 245.689 50.3854 245.184 50.0136L244.123 49.2287C244.325 48.4784 244.432 47.7048 244.433 46.9302L245.606 46.4624C246.188 46.2319 246.506 45.5964 246.346 44.9915L245.815 43.0198C245.652 42.4158 245.063 42.0242 244.441 42.116L243.211 42.2973C242.83 41.6319 242.368 41.0211 241.832 40.4738L242.318 39.3504C242.576 38.7704 242.353 38.0968 241.809 37.7823ZM236.349 50.7144C234.22 51.289 232.02 50.0208 231.45 47.8906C230.876 45.7609 232.144 43.5611 234.274 42.9918C236.403 42.4165 238.603 43.6854 239.173 45.8154C239.747 47.9451 238.479 50.1446 236.349 50.7144Z" fill="#2A94F4"/>
<path d="M69.5643 130.275C69.5643 128.575 69.9476 127.05 70.7143 125.7C71.4809 124.333 72.5226 123.267 73.8393 122.5C75.1726 121.733 76.6476 121.35 78.2643 121.35C80.1643 121.35 81.8226 121.808 83.2393 122.725C84.6559 123.642 85.6893 124.942 86.3393 126.625H83.6143C83.1309 125.575 82.4309 124.767 81.5143 124.2C80.6143 123.633 79.5309 123.35 78.2643 123.35C77.0476 123.35 75.9559 123.633 74.9893 124.2C74.0226 124.767 73.2643 125.575 72.7143 126.625C72.1643 127.658 71.8893 128.875 71.8893 130.275C71.8893 131.658 72.1643 132.875 72.7143 133.925C73.2643 134.958 74.0226 135.758 74.9893 136.325C75.9559 136.892 77.0476 137.175 78.2643 137.175C79.5309 137.175 80.6143 136.9 81.5143 136.35C82.4309 135.783 83.1309 134.975 83.6143 133.925H86.3393C85.6893 135.592 84.6559 136.883 83.2393 137.8C81.8226 138.7 80.1643 139.15 78.2643 139.15C76.6476 139.15 75.1726 138.775 73.8393 138.025C72.5226 137.258 71.4809 136.2 70.7143 134.85C69.9476 133.5 69.5643 131.975 69.5643 130.275ZM92.0008 127.525C92.4008 126.742 92.9674 126.133 93.7008 125.7C94.4508 125.267 95.3591 125.05 96.4258 125.05V127.4H95.8258C93.2758 127.4 92.0008 128.783 92.0008 131.55V139H89.7258V125.3H92.0008V127.525ZM100.227 123.075C99.7936 123.075 99.427 122.925 99.127 122.625C98.827 122.325 98.677 121.958 98.677 121.525C98.677 121.092 98.827 120.725 99.127 120.425C99.427 120.125 99.7936 119.975 100.227 119.975C100.644 119.975 100.994 120.125 101.277 120.425C101.577 120.725 101.727 121.092 101.727 121.525C101.727 121.958 101.577 122.325 101.277 122.625C100.994 122.925 100.644 123.075 100.227 123.075ZM101.327 125.3V139H99.052V125.3H101.327ZM107.979 127.175V135.25C107.979 135.917 108.121 136.392 108.404 136.675C108.688 136.942 109.179 137.075 109.879 137.075H111.554V139H109.504C108.238 139 107.288 138.708 106.654 138.125C106.021 137.542 105.704 136.583 105.704 135.25V127.175H103.929V125.3H105.704V121.85H107.979V125.3H111.554V127.175H107.979ZM115.486 123.075C115.052 123.075 114.686 122.925 114.386 122.625C114.086 122.325 113.936 121.958 113.936 121.525C113.936 121.092 114.086 120.725 114.386 120.425C114.686 120.125 115.052 119.975 115.486 119.975C115.902 119.975 116.252 120.125 116.536 120.425C116.836 120.725 116.986 121.092 116.986 121.525C116.986 121.958 116.836 122.325 116.536 122.625C116.252 122.925 115.902 123.075 115.486 123.075ZM116.586 125.3V139H114.311V125.3H116.586ZM119.613 132.125C119.613 130.708 119.896 129.475 120.463 128.425C121.03 127.358 121.813 126.533 122.813 125.95C123.83 125.367 124.988 125.075 126.288 125.075C127.971 125.075 129.355 125.483 130.438 126.3C131.538 127.117 132.263 128.25 132.613 129.7H130.163C129.93 128.867 129.471 128.208 128.788 127.725C128.121 127.242 127.288 127 126.288 127C124.988 127 123.938 127.45 123.138 128.35C122.338 129.233 121.938 130.492 121.938 132.125C121.938 133.775 122.338 135.05 123.138 135.95C123.938 136.85 124.988 137.3 126.288 137.3C127.288 137.3 128.121 137.067 128.788 136.6C129.455 136.133 129.913 135.467 130.163 134.6H132.613C132.246 136 131.513 137.125 130.413 137.975C129.313 138.808 127.938 139.225 126.288 139.225C124.988 139.225 123.83 138.933 122.813 138.35C121.813 137.767 121.03 136.942 120.463 135.875C119.896 134.808 119.613 133.558 119.613 132.125ZM134.799 132.1C134.799 130.7 135.082 129.475 135.649 128.425C136.215 127.358 136.99 126.533 137.974 125.95C138.974 125.367 140.082 125.075 141.299 125.075C142.499 125.075 143.54 125.333 144.424 125.85C145.307 126.367 145.965 127.017 146.399 127.8V125.3H148.699V139H146.399V136.45C145.949 137.25 145.274 137.917 144.374 138.45C143.49 138.967 142.457 139.225 141.274 139.225C140.057 139.225 138.957 138.925 137.974 138.325C136.99 137.725 136.215 136.883 135.649 135.8C135.082 134.717 134.799 133.483 134.799 132.1ZM146.399 132.125C146.399 131.092 146.19 130.192 145.774 129.425C145.357 128.658 144.79 128.075 144.074 127.675C143.374 127.258 142.599 127.05 141.749 127.05C140.899 127.05 140.124 127.25 139.424 127.65C138.724 128.05 138.165 128.633 137.749 129.4C137.332 130.167 137.124 131.067 137.124 132.1C137.124 133.15 137.332 134.067 137.749 134.85C138.165 135.617 138.724 136.208 139.424 136.625C140.124 137.025 140.899 137.225 141.749 137.225C142.599 137.225 143.374 137.025 144.074 136.625C144.79 136.208 145.357 135.617 145.774 134.85C146.19 134.067 146.399 133.158 146.399 132.125ZM154.818 120.5V139H152.543V120.5H154.818ZM176.086 121.575V123.425H171.336V139H169.061V123.425H164.286V121.575H176.086ZM185.686 125.05C186.719 125.05 187.653 125.275 188.486 125.725C189.319 126.158 189.969 126.817 190.436 127.7C190.919 128.583 191.161 129.658 191.161 130.925V139H188.911V131.25C188.911 129.883 188.569 128.842 187.886 128.125C187.203 127.392 186.269 127.025 185.086 127.025C183.886 127.025 182.928 127.4 182.211 128.15C181.511 128.9 181.161 129.992 181.161 131.425V139H178.886V120.5H181.161V127.25C181.611 126.55 182.228 126.008 183.011 125.625C183.811 125.242 184.703 125.05 185.686 125.05ZM196.052 123.075C195.619 123.075 195.252 122.925 194.952 122.625C194.652 122.325 194.502 121.958 194.502 121.525C194.502 121.092 194.652 120.725 194.952 120.425C195.252 120.125 195.619 119.975 196.052 119.975C196.469 119.975 196.819 120.125 197.102 120.425C197.402 120.725 197.552 121.092 197.552 121.525C197.552 121.958 197.402 122.325 197.102 122.625C196.819 122.925 196.469 123.075 196.052 123.075ZM197.152 125.3V139H194.877V125.3H197.152ZM207.704 125.05C209.371 125.05 210.721 125.558 211.754 126.575C212.788 127.575 213.304 129.025 213.304 130.925V139H211.054V131.25C211.054 129.883 210.713 128.842 210.029 128.125C209.346 127.392 208.413 127.025 207.229 127.025C206.029 127.025 205.071 127.4 204.354 128.15C203.654 128.9 203.304 129.992 203.304 131.425V139H201.029V125.3H203.304V127.25C203.754 126.55 204.363 126.008 205.129 125.625C205.913 125.242 206.771 125.05 207.704 125.05ZM224.671 139L219.296 132.95V139H217.021V120.5H219.296V131.375L224.571 125.3H227.746L221.296 132.125L227.771 139H224.671ZM231.062 123.075C230.629 123.075 230.262 122.925 229.962 122.625C229.662 122.325 229.512 121.958 229.512 121.525C229.512 121.092 229.662 120.725 229.962 120.425C230.262 120.125 230.629 119.975 231.062 119.975C231.479 119.975 231.829 120.125 232.112 120.425C232.412 120.725 232.562 121.092 232.562 121.525C232.562 121.958 232.412 122.325 232.112 122.625C231.829 122.925 231.479 123.075 231.062 123.075ZM232.162 125.3V139H229.887V125.3H232.162ZM242.714 125.05C244.381 125.05 245.731 125.558 246.764 126.575C247.798 127.575 248.314 129.025 248.314 130.925V139H246.064V131.25C246.064 129.883 245.723 128.842 245.039 128.125C244.356 127.392 243.423 127.025 242.239 127.025C241.039 127.025 240.081 127.4 239.364 128.15C238.664 128.9 238.314 129.992 238.314 131.425V139H236.039V125.3H238.314V127.25C238.764 126.55 239.373 126.008 240.139 125.625C240.923 125.242 241.781 125.05 242.714 125.05ZM257.68 125.075C258.864 125.075 259.897 125.333 260.78 125.85C261.68 126.367 262.347 127.017 262.78 127.8V125.3H265.08V139.3C265.08 140.55 264.814 141.658 264.28 142.625C263.747 143.608 262.98 144.375 261.98 144.925C260.997 145.475 259.847 145.75 258.53 145.75C256.73 145.75 255.23 145.325 254.03 144.475C252.83 143.625 252.122 142.467 251.905 141H254.155C254.405 141.833 254.922 142.5 255.705 143C256.489 143.517 257.43 143.775 258.53 143.775C259.78 143.775 260.797 143.383 261.58 142.6C262.38 141.817 262.78 140.717 262.78 139.3V136.425C262.33 137.225 261.664 137.892 260.78 138.425C259.897 138.958 258.864 139.225 257.68 139.225C256.464 139.225 255.355 138.925 254.355 138.325C253.372 137.725 252.597 136.883 252.03 135.8C251.464 134.717 251.18 133.483 251.18 132.1C251.18 130.7 251.464 129.475 252.03 128.425C252.597 127.358 253.372 126.533 254.355 125.95C255.355 125.367 256.464 125.075 257.68 125.075ZM262.78 132.125C262.78 131.092 262.572 130.192 262.155 129.425C261.739 128.658 261.172 128.075 260.455 127.675C259.755 127.258 258.98 127.05 258.13 127.05C257.28 127.05 256.505 127.25 255.805 127.65C255.105 128.05 254.547 128.633 254.13 129.4C253.714 130.167 253.505 131.067 253.505 132.1C253.505 133.15 253.714 134.067 254.13 134.85C254.547 135.617 255.105 136.208 255.805 136.625C256.505 137.025 257.28 137.225 258.13 137.225C258.98 137.225 259.755 137.025 260.455 136.625C261.172 136.208 261.739 135.617 262.155 134.85C262.572 134.067 262.78 133.158 262.78 132.125Z" fill="#0B4870"/>
</svg>
