<svg width="210" height="122" viewBox="0 0 210 122" fill="none" xmlns="http://www.w3.org/2000/svg">
<path d="M0 122H210V0H111.464V19.9016H0V122Z" fill="#6FACB6"/>
<path d="M203.204 114.051V27.2249V5.35815H116.214V15.8381V26.7906H60.8252H5.43689L5.43689 70.421V114.051H103.641H128.447H153.252H203.204Z" fill="#89D2DE"/>
<path d="M5.43688 26.7906L0 19.9016H111.456L116.214 26.7906H5.43688Z" fill="#C6E9F1"/>
<path d="M116.214 5.35812L111.456 0H210L203.204 5.35812H116.214Z" fill="#C6E9F1"/>
<path d="M34.6714 99.199C34.6714 97.8256 34.978 96.599 35.5914 95.519C36.218 94.4256 37.0647 93.579 38.1314 92.979C39.2114 92.3656 40.418 92.059 41.7514 92.059C43.3114 92.059 44.678 92.459 45.8514 93.259C47.0247 94.059 47.8447 95.1656 48.3114 96.579H45.0914C44.7714 95.9123 44.318 95.4123 43.7314 95.079C43.158 94.7456 42.4914 94.579 41.7314 94.579C40.918 94.579 40.1914 94.7723 39.5514 95.159C38.9247 95.5323 38.4314 96.0656 38.0714 96.759C37.7247 97.4523 37.5514 98.2656 37.5514 99.199C37.5514 100.119 37.7247 100.932 38.0714 101.639C38.4314 102.332 38.9247 102.872 39.5514 103.259C40.1914 103.632 40.918 103.819 41.7314 103.819C42.4914 103.819 43.158 103.652 43.7314 103.319C44.318 102.972 44.7714 102.466 45.0914 101.799H48.3114C47.8447 103.226 47.0247 104.339 45.8514 105.139C44.6914 105.926 43.3247 106.319 41.7514 106.319C40.418 106.319 39.2114 106.019 38.1314 105.419C37.0647 104.806 36.218 103.959 35.5914 102.879C34.978 101.799 34.6714 100.572 34.6714 99.199ZM53.5029 96.839C53.8629 96.2523 54.3296 95.7923 54.9029 95.459C55.4896 95.1256 56.1563 94.959 56.9029 94.959V97.899H56.1629C55.2829 97.899 54.6163 98.1056 54.1629 98.519C53.7229 98.9323 53.5029 99.6523 53.5029 100.679V106.199H50.7029V95.119H53.5029V96.839ZM60.2089 93.799C59.7155 93.799 59.3022 93.6456 58.9689 93.339C58.6489 93.019 58.4889 92.6256 58.4889 92.159C58.4889 91.6923 58.6489 91.3056 58.9689 90.999C59.3022 90.679 59.7155 90.519 60.2089 90.519C60.7022 90.519 61.1089 90.679 61.4289 90.999C61.7622 91.3056 61.9289 91.6923 61.9289 92.159C61.9289 92.6256 61.7622 93.019 61.4289 93.339C61.1089 93.6456 60.7022 93.799 60.2089 93.799ZM61.5889 95.119V106.199H58.7889V95.119H61.5889ZM67.6153 97.419V102.779C67.6153 103.152 67.7019 103.426 67.8753 103.599C68.0619 103.759 68.3686 103.839 68.7953 103.839H70.0953V106.199H68.3353C65.9753 106.199 64.7953 105.052 64.7953 102.759V97.419H63.4753V95.119H64.7953V92.379H67.6153V95.119H70.0953V97.419H67.6153ZM73.5292 93.799C73.0358 93.799 72.6225 93.6456 72.2892 93.339C71.9692 93.019 71.8092 92.6256 71.8092 92.159C71.8092 91.6923 71.9692 91.3056 72.2892 90.999C72.6225 90.679 73.0358 90.519 73.5292 90.519C74.0225 90.519 74.4292 90.679 74.7492 90.999C75.0825 91.3056 75.2492 91.6923 75.2492 92.159C75.2492 92.6256 75.0825 93.019 74.7492 93.339C74.4292 93.6456 74.0225 93.799 73.5292 93.799ZM74.9092 95.119V106.199H72.1092V95.119H74.9092ZM76.9556 100.659C76.9556 99.5123 77.1889 98.5123 77.6556 97.659C78.1222 96.7923 78.7689 96.1256 79.5956 95.659C80.4222 95.179 81.3689 94.939 82.4356 94.939C83.8089 94.939 84.9422 95.2856 85.8356 95.979C86.7422 96.659 87.3489 97.619 87.6556 98.859H84.6356C84.4756 98.379 84.2022 98.0056 83.8156 97.739C83.4422 97.459 82.9756 97.319 82.4156 97.319C81.6156 97.319 80.9822 97.6123 80.5156 98.199C80.0489 98.7723 79.8156 99.5923 79.8156 100.659C79.8156 101.712 80.0489 102.532 80.5156 103.119C80.9822 103.692 81.6156 103.979 82.4156 103.979C83.5489 103.979 84.2889 103.472 84.6356 102.459H87.6556C87.3489 103.659 86.7422 104.612 85.8356 105.319C84.9289 106.026 83.7956 106.379 82.4356 106.379C81.3689 106.379 80.4222 106.146 79.5956 105.679C78.7689 105.199 78.1222 104.532 77.6556 103.679C77.1889 102.812 76.9556 101.806 76.9556 100.659ZM88.9868 100.619C88.9868 99.499 89.2068 98.5056 89.6468 97.639C90.1002 96.7723 90.7068 96.1056 91.4668 95.639C92.2402 95.1723 93.1002 94.939 94.0468 94.939C94.8735 94.939 95.5935 95.1056 96.2068 95.439C96.8335 95.7723 97.3335 96.1923 97.7068 96.699V95.119H100.527V106.199H97.7068V104.579C97.3468 105.099 96.8468 105.532 96.2068 105.879C95.5802 106.212 94.8535 106.379 94.0268 106.379C93.0935 106.379 92.2402 106.139 91.4668 105.659C90.7068 105.179 90.1002 104.506 89.6468 103.639C89.2068 102.759 88.9868 101.752 88.9868 100.619ZM97.7068 100.659C97.7068 99.979 97.5735 99.399 97.3068 98.919C97.0402 98.4256 96.6802 98.0523 96.2268 97.799C95.7735 97.5323 95.2868 97.399 94.7668 97.399C94.2468 97.399 93.7668 97.5256 93.3268 97.779C92.8868 98.0323 92.5268 98.4056 92.2468 98.899C91.9802 99.379 91.8468 99.9523 91.8468 100.619C91.8468 101.286 91.9802 101.872 92.2468 102.379C92.5268 102.872 92.8868 103.252 93.3268 103.519C93.7802 103.786 94.2602 103.919 94.7668 103.919C95.2868 103.919 95.7735 103.792 96.2268 103.539C96.6802 103.272 97.0402 102.899 97.3068 102.419C97.5735 101.926 97.7068 101.339 97.7068 100.659ZM106.062 91.399V106.199H103.262V91.399H106.062ZM123.094 92.239V94.499H119.374V106.199H116.574V94.499H112.854V92.239H123.094ZM131.377 94.959C132.217 94.959 132.963 95.1456 133.617 95.519C134.27 95.879 134.777 96.419 135.137 97.139C135.51 97.8456 135.697 98.699 135.697 99.699V106.199H132.897V100.079C132.897 99.199 132.677 98.5256 132.237 98.059C131.797 97.579 131.197 97.339 130.437 97.339C129.663 97.339 129.05 97.579 128.597 98.059C128.157 98.5256 127.937 99.199 127.937 100.079V106.199H125.137V91.399H127.937V96.499C128.297 96.019 128.777 95.6456 129.377 95.379C129.977 95.099 130.643 94.959 131.377 94.959ZM139.779 93.799C139.286 93.799 138.873 93.6456 138.539 93.339C138.219 93.019 138.059 92.6256 138.059 92.159C138.059 91.6923 138.219 91.3056 138.539 90.999C138.873 90.679 139.286 90.519 139.779 90.519C140.273 90.519 140.679 90.679 140.999 90.999C141.333 91.3056 141.499 91.6923 141.499 92.159C141.499 92.6256 141.333 93.019 140.999 93.339C140.679 93.6456 140.273 93.799 139.779 93.799ZM141.159 95.119V106.199H138.359V95.119H141.159ZM150.066 94.959C151.386 94.959 152.452 95.379 153.266 96.219C154.079 97.0456 154.486 98.2056 154.486 99.699V106.199H151.686V100.079C151.686 99.199 151.466 98.5256 151.026 98.059C150.586 97.579 149.986 97.339 149.226 97.339C148.452 97.339 147.839 97.579 147.386 98.059C146.946 98.5256 146.726 99.199 146.726 100.079V106.199H143.926V95.119H146.726V96.499C147.099 96.019 147.572 95.6456 148.146 95.379C148.732 95.099 149.372 94.959 150.066 94.959ZM163.708 106.199L159.948 101.479V106.199H157.148V91.399H159.948V99.819L163.668 95.119H167.308L162.428 100.679L167.348 106.199H163.708ZM170.248 93.799C169.755 93.799 169.341 93.6456 169.008 93.339C168.688 93.019 168.528 92.6256 168.528 92.159C168.528 91.6923 168.688 91.3056 169.008 90.999C169.341 90.679 169.755 90.519 170.248 90.519C170.741 90.519 171.148 90.679 171.468 90.999C171.801 91.3056 171.968 91.6923 171.968 92.159C171.968 92.6256 171.801 93.019 171.468 93.339C171.148 93.6456 170.741 93.799 170.248 93.799ZM171.628 95.119V106.199H168.828V95.119H171.628ZM180.534 94.959C181.854 94.959 182.921 95.379 183.734 96.219C184.548 97.0456 184.954 98.2056 184.954 99.699V106.199H182.154V100.079C182.154 99.199 181.934 98.5256 181.494 98.059C181.054 97.579 180.454 97.339 179.694 97.339C178.921 97.339 178.308 97.579 177.854 98.059C177.414 98.5256 177.194 99.199 177.194 100.079V106.199H174.394V95.119H177.194V96.499C177.568 96.019 178.041 95.6456 178.614 95.379C179.201 95.099 179.841 94.959 180.534 94.959ZM191.957 94.939C192.784 94.939 193.51 95.1056 194.137 95.439C194.764 95.759 195.257 96.179 195.617 96.699V95.119H198.437V106.279C198.437 107.306 198.23 108.219 197.817 109.019C197.404 109.832 196.784 110.472 195.957 110.939C195.13 111.419 194.13 111.659 192.957 111.659C191.384 111.659 190.09 111.292 189.077 110.559C188.077 109.826 187.51 108.826 187.377 107.559H190.157C190.304 108.066 190.617 108.466 191.097 108.759C191.59 109.066 192.184 109.219 192.877 109.219C193.69 109.219 194.35 108.972 194.857 108.479C195.364 107.999 195.617 107.266 195.617 106.279V104.559C195.257 105.079 194.757 105.512 194.117 105.859C193.49 106.206 192.77 106.379 191.957 106.379C191.024 106.379 190.17 106.139 189.397 105.659C188.624 105.179 188.01 104.506 187.557 103.639C187.117 102.759 186.897 101.752 186.897 100.619C186.897 99.499 187.117 98.5056 187.557 97.639C188.01 96.7723 188.617 96.1056 189.377 95.639C190.15 95.1723 191.01 94.939 191.957 94.939ZM195.617 100.659C195.617 99.979 195.484 99.399 195.217 98.919C194.95 98.4256 194.59 98.0523 194.137 97.799C193.684 97.5323 193.197 97.399 192.677 97.399C192.157 97.399 191.677 97.5256 191.237 97.779C190.797 98.0323 190.437 98.4056 190.157 98.899C189.89 99.379 189.757 99.9523 189.757 100.619C189.757 101.286 189.89 101.872 190.157 102.379C190.437 102.872 190.797 103.252 191.237 103.519C191.69 103.786 192.17 103.919 192.677 103.919C193.197 103.919 193.684 103.792 194.137 103.539C194.59 103.272 194.95 102.899 195.217 102.419C195.484 101.926 195.617 101.339 195.617 100.659Z" fill="#0B4870"/>
<ellipse cx="163.871" cy="43.6494" rx="24.1816" ry="25.3847" fill="#EE9D3D"/>
<path d="M176.059 28.3634C175.522 28.0497 174.931 27.8502 174.32 27.7763C173.71 27.7024 173.091 27.7556 172.5 27.9328C171.909 28.1101 171.358 28.4078 170.876 28.8091C170.395 29.2104 169.994 29.7074 169.696 30.2716L161.009 46.6813L156.038 41.4627C155.607 40.9936 155.09 40.6194 154.519 40.362C153.949 40.1046 153.335 39.9691 152.713 39.9634C152.092 39.9577 151.476 40.082 150.901 40.329C150.326 40.5759 149.804 40.9406 149.364 41.4018C148.925 41.863 148.578 42.4114 148.342 43.015C148.107 43.6186 147.989 44.2654 147.994 44.9175C148 45.5697 148.129 46.2142 148.374 46.8134C148.619 47.4126 148.975 47.9546 149.422 48.4077L158.78 58.2309C159.664 59.1617 160.857 59.6725 162.088 59.6725L162.736 59.6233C163.453 59.518 164.137 59.2394 164.734 58.8094C165.331 58.3795 165.825 57.8098 166.177 57.1454L177.874 35.0432C178.173 34.4795 178.363 33.8595 178.433 33.2187C178.504 32.578 178.453 31.9289 178.284 31.3086C178.116 30.6883 177.833 30.109 177.451 29.6036C177.069 29.0983 176.596 28.6769 176.059 28.3634V28.3634Z" fill="#FFE3CA"/>
</svg>
