<svg width="289" height="160" viewBox="0 0 289 160" fill="none" xmlns="http://www.w3.org/2000/svg">
<path d="M1 159.384H289V0H153.865V26H1V159.384Z" fill="#6FACB6"/>
<path d="M279.68 149V35.5673V7H160.379V20.6913V35H84.4175H8.4563L8.4563 92V149H143.136H177.155H211.175H279.68Z" fill="#89D2DE"/>
<path d="M8.4563 35L1 26H153.854L160.379 35H8.4563Z" fill="#C6E9F1"/>
<path d="M160.379 7L153.854 0H289L279.68 7H160.379Z" fill="#C6E9F1"/>
<path d="M67.5643 130.275C67.5643 128.575 67.9476 127.05 68.7143 125.7C69.4809 124.333 70.5226 123.267 71.8393 122.5C73.1726 121.733 74.6476 121.35 76.2643 121.35C78.1643 121.35 79.8226 121.808 81.2393 122.725C82.6559 123.642 83.6893 124.942 84.3393 126.625H81.6143C81.1309 125.575 80.4309 124.767 79.5143 124.2C78.6143 123.633 77.5309 123.35 76.2643 123.35C75.0476 123.35 73.9559 123.633 72.9893 124.2C72.0226 124.767 71.2643 125.575 70.7143 126.625C70.1643 127.658 69.8893 128.875 69.8893 130.275C69.8893 131.658 70.1643 132.875 70.7143 133.925C71.2643 134.958 72.0226 135.758 72.9893 136.325C73.9559 136.892 75.0476 137.175 76.2643 137.175C77.5309 137.175 78.6143 136.9 79.5143 136.35C80.4309 135.783 81.1309 134.975 81.6143 133.925H84.3393C83.6893 135.592 82.6559 136.883 81.2393 137.8C79.8226 138.7 78.1643 139.15 76.2643 139.15C74.6476 139.15 73.1726 138.775 71.8393 138.025C70.5226 137.258 69.4809 136.2 68.7143 134.85C67.9476 133.5 67.5643 131.975 67.5643 130.275ZM90.0008 127.525C90.4008 126.742 90.9674 126.133 91.7008 125.7C92.4508 125.267 93.3591 125.05 94.4258 125.05V127.4H93.8258C91.2758 127.4 90.0008 128.783 90.0008 131.55V139H87.7258V125.3H90.0008V127.525ZM98.227 123.075C97.7936 123.075 97.427 122.925 97.127 122.625C96.827 122.325 96.677 121.958 96.677 121.525C96.677 121.092 96.827 120.725 97.127 120.425C97.427 120.125 97.7936 119.975 98.227 119.975C98.6436 119.975 98.9936 120.125 99.277 120.425C99.577 120.725 99.727 121.092 99.727 121.525C99.727 121.958 99.577 122.325 99.277 122.625C98.9936 122.925 98.6436 123.075 98.227 123.075ZM99.327 125.3V139H97.052V125.3H99.327ZM105.979 127.175V135.25C105.979 135.917 106.121 136.392 106.404 136.675C106.688 136.942 107.179 137.075 107.879 137.075H109.554V139H107.504C106.238 139 105.288 138.708 104.654 138.125C104.021 137.542 103.704 136.583 103.704 135.25V127.175H101.929V125.3H103.704V121.85H105.979V125.3H109.554V127.175H105.979ZM113.486 123.075C113.052 123.075 112.686 122.925 112.386 122.625C112.086 122.325 111.936 121.958 111.936 121.525C111.936 121.092 112.086 120.725 112.386 120.425C112.686 120.125 113.052 119.975 113.486 119.975C113.902 119.975 114.252 120.125 114.536 120.425C114.836 120.725 114.986 121.092 114.986 121.525C114.986 121.958 114.836 122.325 114.536 122.625C114.252 122.925 113.902 123.075 113.486 123.075ZM114.586 125.3V139H112.311V125.3H114.586ZM117.613 132.125C117.613 130.708 117.896 129.475 118.463 128.425C119.03 127.358 119.813 126.533 120.813 125.95C121.83 125.367 122.988 125.075 124.288 125.075C125.971 125.075 127.355 125.483 128.438 126.3C129.538 127.117 130.263 128.25 130.613 129.7H128.163C127.93 128.867 127.471 128.208 126.788 127.725C126.121 127.242 125.288 127 124.288 127C122.988 127 121.938 127.45 121.138 128.35C120.338 129.233 119.938 130.492 119.938 132.125C119.938 133.775 120.338 135.05 121.138 135.95C121.938 136.85 122.988 137.3 124.288 137.3C125.288 137.3 126.121 137.067 126.788 136.6C127.455 136.133 127.913 135.467 128.163 134.6H130.613C130.246 136 129.513 137.125 128.413 137.975C127.313 138.808 125.938 139.225 124.288 139.225C122.988 139.225 121.83 138.933 120.813 138.35C119.813 137.767 119.03 136.942 118.463 135.875C117.896 134.808 117.613 133.558 117.613 132.125ZM132.799 132.1C132.799 130.7 133.082 129.475 133.649 128.425C134.215 127.358 134.99 126.533 135.974 125.95C136.974 125.367 138.082 125.075 139.299 125.075C140.499 125.075 141.54 125.333 142.424 125.85C143.307 126.367 143.965 127.017 144.399 127.8V125.3H146.699V139H144.399V136.45C143.949 137.25 143.274 137.917 142.374 138.45C141.49 138.967 140.457 139.225 139.274 139.225C138.057 139.225 136.957 138.925 135.974 138.325C134.99 137.725 134.215 136.883 133.649 135.8C133.082 134.717 132.799 133.483 132.799 132.1ZM144.399 132.125C144.399 131.092 144.19 130.192 143.774 129.425C143.357 128.658 142.79 128.075 142.074 127.675C141.374 127.258 140.599 127.05 139.749 127.05C138.899 127.05 138.124 127.25 137.424 127.65C136.724 128.05 136.165 128.633 135.749 129.4C135.332 130.167 135.124 131.067 135.124 132.1C135.124 133.15 135.332 134.067 135.749 134.85C136.165 135.617 136.724 136.208 137.424 136.625C138.124 137.025 138.899 137.225 139.749 137.225C140.599 137.225 141.374 137.025 142.074 136.625C142.79 136.208 143.357 135.617 143.774 134.85C144.19 134.067 144.399 133.158 144.399 132.125ZM152.818 120.5V139H150.543V120.5H152.818ZM174.086 121.575V123.425H169.336V139H167.061V123.425H162.286V121.575H174.086ZM183.686 125.05C184.719 125.05 185.653 125.275 186.486 125.725C187.319 126.158 187.969 126.817 188.436 127.7C188.919 128.583 189.161 129.658 189.161 130.925V139H186.911V131.25C186.911 129.883 186.569 128.842 185.886 128.125C185.203 127.392 184.269 127.025 183.086 127.025C181.886 127.025 180.928 127.4 180.211 128.15C179.511 128.9 179.161 129.992 179.161 131.425V139H176.886V120.5H179.161V127.25C179.611 126.55 180.228 126.008 181.011 125.625C181.811 125.242 182.703 125.05 183.686 125.05ZM194.052 123.075C193.619 123.075 193.252 122.925 192.952 122.625C192.652 122.325 192.502 121.958 192.502 121.525C192.502 121.092 192.652 120.725 192.952 120.425C193.252 120.125 193.619 119.975 194.052 119.975C194.469 119.975 194.819 120.125 195.102 120.425C195.402 120.725 195.552 121.092 195.552 121.525C195.552 121.958 195.402 122.325 195.102 122.625C194.819 122.925 194.469 123.075 194.052 123.075ZM195.152 125.3V139H192.877V125.3H195.152ZM205.704 125.05C207.371 125.05 208.721 125.558 209.754 126.575C210.788 127.575 211.304 129.025 211.304 130.925V139H209.054V131.25C209.054 129.883 208.713 128.842 208.029 128.125C207.346 127.392 206.413 127.025 205.229 127.025C204.029 127.025 203.071 127.4 202.354 128.15C201.654 128.9 201.304 129.992 201.304 131.425V139H199.029V125.3H201.304V127.25C201.754 126.55 202.363 126.008 203.129 125.625C203.913 125.242 204.771 125.05 205.704 125.05ZM222.671 139L217.296 132.95V139H215.021V120.5H217.296V131.375L222.571 125.3H225.746L219.296 132.125L225.771 139H222.671ZM229.062 123.075C228.629 123.075 228.262 122.925 227.962 122.625C227.662 122.325 227.512 121.958 227.512 121.525C227.512 121.092 227.662 120.725 227.962 120.425C228.262 120.125 228.629 119.975 229.062 119.975C229.479 119.975 229.829 120.125 230.112 120.425C230.412 120.725 230.562 121.092 230.562 121.525C230.562 121.958 230.412 122.325 230.112 122.625C229.829 122.925 229.479 123.075 229.062 123.075ZM230.162 125.3V139H227.887V125.3H230.162ZM240.714 125.05C242.381 125.05 243.731 125.558 244.764 126.575C245.798 127.575 246.314 129.025 246.314 130.925V139H244.064V131.25C244.064 129.883 243.723 128.842 243.039 128.125C242.356 127.392 241.423 127.025 240.239 127.025C239.039 127.025 238.081 127.4 237.364 128.15C236.664 128.9 236.314 129.992 236.314 131.425V139H234.039V125.3H236.314V127.25C236.764 126.55 237.373 126.008 238.139 125.625C238.923 125.242 239.781 125.05 240.714 125.05ZM255.68 125.075C256.864 125.075 257.897 125.333 258.78 125.85C259.68 126.367 260.347 127.017 260.78 127.8V125.3H263.08V139.3C263.08 140.55 262.814 141.658 262.28 142.625C261.747 143.608 260.98 144.375 259.98 144.925C258.997 145.475 257.847 145.75 256.53 145.75C254.73 145.75 253.23 145.325 252.03 144.475C250.83 143.625 250.122 142.467 249.905 141H252.155C252.405 141.833 252.922 142.5 253.705 143C254.489 143.517 255.43 143.775 256.53 143.775C257.78 143.775 258.797 143.383 259.58 142.6C260.38 141.817 260.78 140.717 260.78 139.3V136.425C260.33 137.225 259.664 137.892 258.78 138.425C257.897 138.958 256.864 139.225 255.68 139.225C254.464 139.225 253.355 138.925 252.355 138.325C251.372 137.725 250.597 136.883 250.03 135.8C249.464 134.717 249.18 133.483 249.18 132.1C249.18 130.7 249.464 129.475 250.03 128.425C250.597 127.358 251.372 126.533 252.355 125.95C253.355 125.367 254.464 125.075 255.68 125.075ZM260.78 132.125C260.78 131.092 260.572 130.192 260.155 129.425C259.739 128.658 259.172 128.075 258.455 127.675C257.755 127.258 256.98 127.05 256.13 127.05C255.28 127.05 254.505 127.25 253.805 127.65C253.105 128.05 252.547 128.633 252.13 129.4C251.714 130.167 251.505 131.067 251.505 132.1C251.505 133.15 251.714 134.067 252.13 134.85C252.547 135.617 253.105 136.208 253.805 136.625C254.505 137.025 255.28 137.225 256.13 137.225C256.98 137.225 257.755 137.025 258.455 136.625C259.172 136.208 259.739 135.617 260.155 134.85C260.572 134.067 260.78 133.158 260.78 132.125Z" fill="#0B4870"/>
<circle cx="225.738" cy="57.0247" r="33.1634" fill="#EE9D3D"/>
<path d="M242.452 37.0547C241.716 36.6448 240.905 36.3842 240.068 36.2877C239.231 36.1911 238.383 36.2606 237.572 36.4922C236.762 36.7237 236.005 37.1127 235.345 37.637C234.685 38.1613 234.134 38.8105 233.725 39.5476L221.813 60.9857L214.995 54.1679C214.403 53.5551 213.695 53.0663 212.912 52.73C212.13 52.3937 211.288 52.2167 210.436 52.2093C209.584 52.2018 208.739 52.3642 207.95 52.6868C207.161 53.0095 206.445 53.4859 205.843 54.0884C205.24 54.6909 204.764 55.4073 204.441 56.1959C204.118 56.9845 203.956 57.8294 203.963 58.6814C203.971 59.5334 204.148 60.3754 204.484 61.1583C204.82 61.9411 205.309 62.6492 205.922 63.2411L218.755 76.0744C219.968 77.2904 221.604 77.9577 223.292 77.9577L224.181 77.8936C225.164 77.756 226.102 77.392 226.921 76.8303C227.74 76.2685 228.418 75.5244 228.9 74.6564L244.942 45.7814C245.351 45.0449 245.612 44.235 245.708 43.3978C245.805 42.5607 245.736 41.7127 245.504 40.9024C245.273 40.092 244.885 39.3351 244.361 38.675C243.837 38.0148 243.189 37.4642 242.452 37.0547V37.0547Z" fill="#FFE3CA"/>
</svg>
