<svg width="210" height="122" viewBox="0 0 210 122" fill="none" xmlns="http://www.w3.org/2000/svg">
<path d="M0 122H210V0H111.464V19.9016H0V122Z" fill="#6FACB6"/>
<path d="M203.204 114.051V27.2249V5.35815H116.214V15.8381V26.7906H60.8252H5.43689L5.43689 70.421V114.051H103.641H128.447H153.252H203.204Z" fill="#89D2DE"/>
<path d="M5.43688 26.7906L0 19.9016H111.456L116.214 26.7906H5.43688Z" fill="#C6E9F1"/>
<path d="M116.214 5.35812L111.456 0H210L203.204 5.35812H116.214Z" fill="#C6E9F1"/>
<path d="M160.747 56.4974C154.143 56.4974 153.501 65.4607 157.321 68.3535C159.267 68.6169 158.097 68.9338 158.285 69.057C159.017 69.536 155.674 74.041 160.747 73.7132C163.537 73.5329 162.272 72.6911 163.004 72.2121C164.084 72.1956 163.022 69.4075 163.023 69.1689C167.382 67.0536 167.35 56.4974 160.747 56.4974Z" fill="#0E538C"/>
<path d="M167.069 72.9117L163.346 71.2277C163.035 71.0868 162.833 70.7574 162.833 70.3914V69.2961H158.66V70.3914C158.66 70.7574 158.458 71.0868 158.147 71.2277L154.424 72.9117C153.958 73.123 153.654 73.6179 153.654 74.1665V75.9786C153.654 76.4791 154.028 76.8846 154.489 76.8846H167.005C167.465 76.8846 167.839 76.4791 167.839 75.9786V74.1665C167.839 73.6177 167.536 73.1228 167.069 72.9117Z" fill="#783C0D"/>
<path d="M167.07 72.9115L163.47 71.2833L160.747 72.5593L158.024 71.2833L154.425 72.9115C153.958 73.1229 153.654 73.6177 153.654 74.1663V75.9785C153.654 76.479 154.028 76.8845 154.489 76.8845H167.006C167.466 76.8845 167.84 76.479 167.84 75.9785V74.1663C167.839 73.6176 167.536 73.1227 167.07 72.9115Z" fill="#FFBE55"/>
<path d="M160.747 72.5594L158.359 70.6142C158.206 70.4897 157.987 70.5305 157.881 70.7031L157.409 71.4718L158.873 73.6976C158.984 73.8667 159.203 73.9001 159.353 73.7699L160.747 72.5594Z" fill="#FFE3CA"/>
<path d="M160.746 72.5594L163.135 70.6142C163.288 70.4897 163.507 70.5305 163.613 70.7031L164.084 71.4718L162.621 73.6976C162.509 73.8667 162.29 73.9001 162.14 73.7699L160.746 72.5594Z" fill="#FFE3CA"/>
<path d="M156.656 63.4731C156.649 63.6991 156.653 63.9259 156.674 64.1514L156.973 67.322C157.024 67.9192 157.342 68.4507 157.825 68.742L160.201 70.1754C160.579 70.4031 161.038 70.4031 161.416 70.1754L163.792 68.742C164.275 68.4507 164.594 67.9192 164.643 67.322L164.903 64.6523C164.903 61.0281 160.809 62.8401 158.723 60.575C158.305 61.4811 156.812 62.3194 156.656 63.4731Z" fill="#8D5522"/>
<path d="M145.891 70.9573V68.4689H139.999V70.9573L142.945 73.801L145.891 70.9573Z" fill="#D19C72"/>
<path d="M150.447 72.1208L146.396 71.086C146.335 71.0705 146.279 71.044 146.226 71.0119L142.945 73.0899L139.792 70.911C139.711 70.9944 139.609 71.0564 139.494 71.086L135.444 72.1208C134.852 72.2722 134.434 72.8451 134.434 73.5048V76.2889C134.434 76.6818 134.727 77.0001 135.089 77.0001H150.802C151.163 77.0001 151.456 76.6818 151.456 76.2889V73.5048C151.456 72.8451 151.038 72.2722 150.447 72.1208Z" fill="#CCE9FF"/>
<path d="M143.764 77.0003H142.127L142.331 73.801H143.559L143.764 77.0003Z" fill="#FFBE55"/>
<path d="M143.764 73.0902H142.127V73.2953C142.127 73.7714 142.482 74.1562 142.92 74.1562H142.971C143.409 74.1562 143.764 73.7714 143.764 73.2953V73.0902V73.0902Z" fill="#FFBE55"/>
<path d="M139.953 70.1659L142.945 73.0904C142.945 73.0904 142.107 73.5496 141.073 74.475C140.86 74.6661 140.537 74.5887 140.423 74.3159L139.017 70.9572L139.461 70.2329C139.572 70.0526 139.805 70.0209 139.953 70.1659Z" fill="#2A94F4"/>
<path d="M145.937 70.1659L142.945 73.0904C142.945 73.0904 143.783 73.5496 144.817 74.475C145.03 74.6661 145.353 74.5887 145.467 74.3159L146.873 70.9572L146.428 70.2329C146.318 70.0526 146.085 70.0209 145.937 70.1659Z" fill="#2A94F4"/>
<path d="M147.836 64.7615L147.466 66.3678C147.422 66.558 147.265 66.6911 147.084 66.6911C147.031 66.6911 146.979 66.6797 146.934 66.6586L146.915 67.1076C146.889 67.7447 146.602 68.3355 146.132 68.7177L144.778 69.8197C144.439 70.0962 144.025 70.2457 143.6 70.2457H142.29C141.866 70.2457 141.453 70.0963 141.112 69.8197L139.758 68.7177C139.289 68.3355 139.001 67.7449 138.975 67.1076L138.957 66.6586C138.911 66.6797 138.859 66.6911 138.807 66.6911C138.627 66.6911 138.469 66.558 138.425 66.3678L138.055 64.7615C137.948 64.298 138.273 63.8477 138.713 63.8477H138.714C138.757 63.8477 138.798 63.852 138.839 63.8601L138.69 60.2928H147.201L147.051 63.8601C147.092 63.852 147.133 63.8477 147.176 63.8477H147.178C147.619 63.8477 147.942 64.298 147.836 64.7615Z" fill="#E6AF7F"/>
<path d="M144.93 57.9383L145.237 60.2932C146.638 60.5977 146.84 62.9848 146.869 63.667C146.874 63.7905 146.911 63.9099 146.972 64.0143L147.507 64.9146C147.507 64.9146 148.01 64.2108 148.162 62.4262C148.161 62.426 148.449 56.5162 144.93 57.9383Z" fill="#0B4870"/>
<path d="M139.488 57.6606C137.298 59.4154 137.708 62.4259 137.708 62.4259C137.858 63.8479 138.362 64.9142 138.362 64.9142L139.017 64.203C139.017 64.203 138.765 62.1496 139.999 61.3597C141.145 60.6263 142.148 61.0038 143.171 61.0038C145.912 61.0038 146.679 59.8822 146.547 58.5161C146.478 57.8091 145.482 56.3362 142.946 56.3829C141.922 56.4017 140.483 57.0974 139.488 57.6606Z" fill="#0B4870"/>
<path d="M181 70.957V68.4686H175.108V70.957L178.054 73.8007L181 70.957Z" fill="#FCD2B1"/>
<path d="M185.555 72.1207L181.505 71.0859C181.444 71.0704 181.387 71.0439 181.335 71.0118L178.054 73.0897L174.901 70.9109C174.819 70.9943 174.718 71.0563 174.603 71.0859L170.552 72.1207C169.961 72.2721 169.543 72.845 169.543 73.5047V76.2888C169.543 76.6817 169.836 77 170.197 77H185.91C186.272 77 186.565 76.6817 186.565 76.2888V73.5047C186.565 72.845 186.147 72.2721 185.555 72.1207Z" fill="#2A94F4"/>
<path d="M178.873 77.0001H177.236L177.44 73.8009H178.668L178.873 77.0001Z" fill="#0B4870"/>
<path d="M178.873 73.09H177.236V73.2951C177.236 73.7712 177.591 74.156 178.028 74.156H178.08C178.517 74.156 178.873 73.7712 178.873 73.2951V73.09Z" fill="#0B4870"/>
<path d="M175.062 70.1656L178.054 73.0901C178.054 73.0901 177.216 73.5493 176.182 74.4748C175.968 74.6658 175.646 74.5885 175.531 74.3156L174.125 70.9569L174.57 70.2326C174.681 70.0523 174.913 70.0206 175.062 70.1656Z" fill="#0E538C"/>
<path d="M181.045 70.1655L178.053 73.09C178.053 73.09 178.891 73.5492 179.926 74.4747C180.139 74.6657 180.461 74.5884 180.576 74.3155L181.982 70.9568L181.537 70.2325C181.427 70.0522 181.194 70.0205 181.045 70.1655Z" fill="#0E538C"/>
<path d="M182.944 64.7614L182.574 66.3677C182.531 66.5579 182.373 66.691 182.192 66.691C182.139 66.691 182.088 66.6796 182.042 66.6585L182.024 67.1075C181.998 67.7446 181.71 68.3354 181.241 68.7176L179.887 69.8196C179.547 70.0961 179.134 70.2456 178.709 70.2456H177.399C176.975 70.2456 176.561 70.0962 176.22 69.8196L174.867 68.7176C174.398 68.3354 174.11 67.7448 174.084 67.1075L174.065 66.6585C174.02 66.6796 173.968 66.691 173.916 66.691C173.735 66.691 173.578 66.5579 173.534 66.3677L173.164 64.7614C173.057 64.2979 173.381 63.8476 173.822 63.8476H173.823C173.866 63.8476 173.906 63.8519 173.948 63.86L173.799 60.2927H182.31L182.16 63.86C182.201 63.8519 182.241 63.8476 182.284 63.8476H182.287C182.727 63.8476 183.05 64.2979 182.944 64.7614Z" fill="#FFE3CA"/>
<path d="M180.039 57.938L180.346 60.2929C181.747 60.5975 181.948 62.9846 181.978 63.6668C181.983 63.7903 182.019 63.9097 182.081 64.014L182.615 64.9144C182.615 64.9144 183.119 64.2106 183.27 62.426C183.27 62.4258 183.558 56.516 180.039 57.938Z" fill="#FFBE55"/>
<path d="M174.596 57.6605C172.407 59.4153 172.816 62.4257 172.816 62.4257C172.967 63.8478 173.471 64.9141 173.471 64.9141L174.126 64.2029C174.126 64.2029 173.873 62.1495 175.108 61.3596C176.254 60.6261 177.256 61.0037 178.279 61.0037C181.02 61.0037 181.788 59.8821 181.655 58.516C181.586 57.809 180.59 56.3361 178.054 56.3828C177.03 56.4016 175.592 57.0973 174.596 57.6605Z" fill="#FFBE55"/>
<path d="M190 24.4483V43.8722C190 46.3294 188.166 48.3209 185.904 48.3209H179.147L177.748 50.8039L176.256 53.6621L174.765 50.8039L173.365 48.3209H163.908L162.509 50.8039L161.017 53.6621L159.524 50.8039L158.126 48.3209H147.308L145.907 50.8039L144.416 53.6621L142.923 50.8039L141.525 48.3209H135.097C132.834 48.3209 131 46.3294 131 43.8722V24.4483C131 21.9911 132.834 20 135.097 20H185.904C188.166 20 190 21.9913 190 24.4483Z" fill="#CCE9FF"/>
<path d="M147.747 35.9425C147.991 36.4768 148.292 36.979 148.642 37.4372L148.057 38.6217C147.866 39.0094 147.974 39.487 148.303 39.7377L149.842 40.8987C150.173 41.1492 150.623 41.0887 150.891 40.7592L151.704 39.7583C152.243 39.9685 152.801 40.1049 153.37 40.1669L153.732 41.4645C153.85 41.8848 154.237 42.1418 154.632 42.0645L156.477 41.7036C156.873 41.6261 157.153 41.2387 157.128 40.8004L157.052 39.495C157.606 39.2171 158.121 38.8635 158.591 38.4424L159.639 39.0514C159.996 39.259 160.436 39.1417 160.667 38.7848L161.736 37.1137C161.966 36.7534 161.911 36.2653 161.607 35.9747L160.73 35.1314C160.935 34.5161 161.068 33.8771 161.119 33.226L162.197 32.8733C162.584 32.7457 162.82 32.3251 162.749 31.8957L162.417 29.8925C162.346 29.4629 161.989 29.1586 161.585 29.1856L160.477 29.2604C160.227 28.6754 159.907 28.1315 159.532 27.637L160.047 26.5903C160.239 26.2031 160.13 25.7253 159.802 25.4743L158.266 24.3158C157.935 24.0659 157.485 24.1258 157.218 24.4553L156.516 25.3201C155.928 25.085 155.316 24.9379 154.691 24.8799L154.377 23.7536C154.259 23.333 153.872 23.076 153.476 23.1535L151.631 23.5142C151.236 23.5917 150.956 23.9792 150.98 24.4178L151.048 25.5926C150.465 25.8903 149.926 26.2728 149.441 26.7315L148.469 26.1664C148.113 25.959 147.673 26.0763 147.442 26.433L146.373 28.1039C146.142 28.4646 146.197 28.9526 146.501 29.243L147.373 30.0804C147.182 30.6931 147.064 31.3291 147.024 31.9744L145.91 32.3378C145.523 32.4654 145.287 32.8859 145.358 33.3153L145.69 35.3188C145.761 35.7482 146.118 36.0524 146.522 36.0255L147.747 35.9425ZM153.532 29.2159C155.213 28.8873 156.828 30.1059 157.131 31.9313C157.433 33.7567 156.311 35.511 154.63 35.8396C152.949 36.1686 151.333 34.9497 151.031 33.1243C150.728 31.299 151.851 29.5447 153.532 29.2159Z" fill="#2A94F4"/>
<path d="M172.75 31.5611L171.629 30.859C171.283 30.6424 170.844 30.7423 170.608 31.0897L170.161 31.7418C169.667 31.5928 169.157 31.5191 168.644 31.5189L168.359 30.7435C168.212 30.3425 167.809 30.1231 167.425 30.2329L166.174 30.5988C165.791 30.7118 165.543 31.1172 165.601 31.5458L165.712 32.3694C165.256 32.6562 164.839 33.0079 164.473 33.4189L163.754 33.0815C163.387 32.9108 162.962 33.063 162.763 33.4382L162.118 34.6625C161.918 35.0376 162.01 35.5149 162.33 35.771L163.001 36.3122C162.885 36.8269 162.829 37.3539 162.834 37.8831L162.06 38.2181C161.691 38.3767 161.489 38.8147 161.59 39.2314L161.927 40.5893C162.031 41.0056 162.404 41.2755 162.799 41.2122L163.672 41.0723C163.904 41.4915 164.182 41.8772 164.499 42.2272L164.145 43.1175C163.988 43.5156 164.128 43.9763 164.474 44.193L165.595 44.8954C165.941 45.1117 166.38 45.0118 166.616 44.6644L167.145 43.8922C167.598 44.0219 168.062 44.0939 168.529 44.0996L168.862 45.0113C169.009 45.4123 169.412 45.6315 169.796 45.5218L171.046 45.1562C171.43 45.043 171.678 44.6374 171.62 44.2088L171.494 43.2773C171.928 43.0086 172.327 42.6812 172.682 42.3035L173.467 42.6697C173.833 42.8405 174.258 42.6881 174.457 42.3133L175.104 41.0957C175.303 40.7206 175.211 40.2433 174.891 39.9872L174.218 39.4465C174.346 38.9296 174.414 38.3967 174.414 37.8631L175.158 37.5408C175.528 37.382 175.73 36.9442 175.628 36.5275L175.291 35.1692C175.188 34.7531 174.814 34.4834 174.42 34.5466L173.639 34.6714C173.397 34.2131 173.104 33.7923 172.764 33.4153L173.073 32.6414C173.236 32.2418 173.095 31.7778 172.75 31.5611ZM169.286 40.47C167.935 40.8658 166.539 39.9922 166.178 38.5247C165.813 37.0575 166.618 35.5421 167.969 35.1499C169.32 34.7536 170.716 35.6277 171.077 37.0951C171.442 38.5622 170.637 40.0774 169.286 40.47Z" fill="#2A94F4"/>
<path d="M34.6714 99.199C34.6714 97.8256 34.978 96.599 35.5914 95.519C36.218 94.4256 37.0647 93.579 38.1314 92.979C39.2114 92.3656 40.418 92.059 41.7514 92.059C43.3114 92.059 44.678 92.459 45.8514 93.259C47.0247 94.059 47.8447 95.1656 48.3114 96.579H45.0914C44.7714 95.9123 44.318 95.4123 43.7314 95.079C43.158 94.7456 42.4914 94.579 41.7314 94.579C40.918 94.579 40.1914 94.7723 39.5514 95.159C38.9247 95.5323 38.4314 96.0656 38.0714 96.759C37.7247 97.4523 37.5514 98.2656 37.5514 99.199C37.5514 100.119 37.7247 100.932 38.0714 101.639C38.4314 102.332 38.9247 102.872 39.5514 103.259C40.1914 103.632 40.918 103.819 41.7314 103.819C42.4914 103.819 43.158 103.652 43.7314 103.319C44.318 102.972 44.7714 102.466 45.0914 101.799H48.3114C47.8447 103.226 47.0247 104.339 45.8514 105.139C44.6914 105.926 43.3247 106.319 41.7514 106.319C40.418 106.319 39.2114 106.019 38.1314 105.419C37.0647 104.806 36.218 103.959 35.5914 102.879C34.978 101.799 34.6714 100.572 34.6714 99.199ZM53.5029 96.839C53.8629 96.2523 54.3296 95.7923 54.9029 95.459C55.4896 95.1256 56.1563 94.959 56.9029 94.959V97.899H56.1629C55.2829 97.899 54.6163 98.1056 54.1629 98.519C53.7229 98.9323 53.5029 99.6523 53.5029 100.679V106.199H50.7029V95.119H53.5029V96.839ZM60.2089 93.799C59.7155 93.799 59.3022 93.6456 58.9689 93.339C58.6489 93.019 58.4889 92.6256 58.4889 92.159C58.4889 91.6923 58.6489 91.3056 58.9689 90.999C59.3022 90.679 59.7155 90.519 60.2089 90.519C60.7022 90.519 61.1089 90.679 61.4289 90.999C61.7622 91.3056 61.9289 91.6923 61.9289 92.159C61.9289 92.6256 61.7622 93.019 61.4289 93.339C61.1089 93.6456 60.7022 93.799 60.2089 93.799ZM61.5889 95.119V106.199H58.7889V95.119H61.5889ZM67.6153 97.419V102.779C67.6153 103.152 67.7019 103.426 67.8753 103.599C68.0619 103.759 68.3686 103.839 68.7953 103.839H70.0953V106.199H68.3353C65.9753 106.199 64.7953 105.052 64.7953 102.759V97.419H63.4753V95.119H64.7953V92.379H67.6153V95.119H70.0953V97.419H67.6153ZM73.5292 93.799C73.0358 93.799 72.6225 93.6456 72.2892 93.339C71.9692 93.019 71.8092 92.6256 71.8092 92.159C71.8092 91.6923 71.9692 91.3056 72.2892 90.999C72.6225 90.679 73.0358 90.519 73.5292 90.519C74.0225 90.519 74.4292 90.679 74.7492 90.999C75.0825 91.3056 75.2492 91.6923 75.2492 92.159C75.2492 92.6256 75.0825 93.019 74.7492 93.339C74.4292 93.6456 74.0225 93.799 73.5292 93.799ZM74.9092 95.119V106.199H72.1092V95.119H74.9092ZM76.9556 100.659C76.9556 99.5123 77.1889 98.5123 77.6556 97.659C78.1222 96.7923 78.7689 96.1256 79.5956 95.659C80.4222 95.179 81.3689 94.939 82.4356 94.939C83.8089 94.939 84.9422 95.2856 85.8356 95.979C86.7422 96.659 87.3489 97.619 87.6556 98.859H84.6356C84.4756 98.379 84.2022 98.0056 83.8156 97.739C83.4422 97.459 82.9756 97.319 82.4156 97.319C81.6156 97.319 80.9822 97.6123 80.5156 98.199C80.0489 98.7723 79.8156 99.5923 79.8156 100.659C79.8156 101.712 80.0489 102.532 80.5156 103.119C80.9822 103.692 81.6156 103.979 82.4156 103.979C83.5489 103.979 84.2889 103.472 84.6356 102.459H87.6556C87.3489 103.659 86.7422 104.612 85.8356 105.319C84.9289 106.026 83.7956 106.379 82.4356 106.379C81.3689 106.379 80.4222 106.146 79.5956 105.679C78.7689 105.199 78.1222 104.532 77.6556 103.679C77.1889 102.812 76.9556 101.806 76.9556 100.659ZM88.9868 100.619C88.9868 99.499 89.2068 98.5056 89.6468 97.639C90.1002 96.7723 90.7068 96.1056 91.4668 95.639C92.2402 95.1723 93.1002 94.939 94.0468 94.939C94.8735 94.939 95.5935 95.1056 96.2068 95.439C96.8335 95.7723 97.3335 96.1923 97.7068 96.699V95.119H100.527V106.199H97.7068V104.579C97.3468 105.099 96.8468 105.532 96.2068 105.879C95.5802 106.212 94.8535 106.379 94.0268 106.379C93.0935 106.379 92.2402 106.139 91.4668 105.659C90.7068 105.179 90.1002 104.506 89.6468 103.639C89.2068 102.759 88.9868 101.752 88.9868 100.619ZM97.7068 100.659C97.7068 99.979 97.5735 99.399 97.3068 98.919C97.0402 98.4256 96.6802 98.0523 96.2268 97.799C95.7735 97.5323 95.2868 97.399 94.7668 97.399C94.2468 97.399 93.7668 97.5256 93.3268 97.779C92.8868 98.0323 92.5268 98.4056 92.2468 98.899C91.9802 99.379 91.8468 99.9523 91.8468 100.619C91.8468 101.286 91.9802 101.872 92.2468 102.379C92.5268 102.872 92.8868 103.252 93.3268 103.519C93.7802 103.786 94.2602 103.919 94.7668 103.919C95.2868 103.919 95.7735 103.792 96.2268 103.539C96.6802 103.272 97.0402 102.899 97.3068 102.419C97.5735 101.926 97.7068 101.339 97.7068 100.659ZM106.062 91.399V106.199H103.262V91.399H106.062ZM123.094 92.239V94.499H119.374V106.199H116.574V94.499H112.854V92.239H123.094ZM131.377 94.959C132.217 94.959 132.963 95.1456 133.617 95.519C134.27 95.879 134.777 96.419 135.137 97.139C135.51 97.8456 135.697 98.699 135.697 99.699V106.199H132.897V100.079C132.897 99.199 132.677 98.5256 132.237 98.059C131.797 97.579 131.197 97.339 130.437 97.339C129.663 97.339 129.05 97.579 128.597 98.059C128.157 98.5256 127.937 99.199 127.937 100.079V106.199H125.137V91.399H127.937V96.499C128.297 96.019 128.777 95.6456 129.377 95.379C129.977 95.099 130.643 94.959 131.377 94.959ZM139.779 93.799C139.286 93.799 138.873 93.6456 138.539 93.339C138.219 93.019 138.059 92.6256 138.059 92.159C138.059 91.6923 138.219 91.3056 138.539 90.999C138.873 90.679 139.286 90.519 139.779 90.519C140.273 90.519 140.679 90.679 140.999 90.999C141.333 91.3056 141.499 91.6923 141.499 92.159C141.499 92.6256 141.333 93.019 140.999 93.339C140.679 93.6456 140.273 93.799 139.779 93.799ZM141.159 95.119V106.199H138.359V95.119H141.159ZM150.066 94.959C151.386 94.959 152.452 95.379 153.266 96.219C154.079 97.0456 154.486 98.2056 154.486 99.699V106.199H151.686V100.079C151.686 99.199 151.466 98.5256 151.026 98.059C150.586 97.579 149.986 97.339 149.226 97.339C148.452 97.339 147.839 97.579 147.386 98.059C146.946 98.5256 146.726 99.199 146.726 100.079V106.199H143.926V95.119H146.726V96.499C147.099 96.019 147.572 95.6456 148.146 95.379C148.732 95.099 149.372 94.959 150.066 94.959ZM163.708 106.199L159.948 101.479V106.199H157.148V91.399H159.948V99.819L163.668 95.119H167.308L162.428 100.679L167.348 106.199H163.708ZM170.248 93.799C169.755 93.799 169.341 93.6456 169.008 93.339C168.688 93.019 168.528 92.6256 168.528 92.159C168.528 91.6923 168.688 91.3056 169.008 90.999C169.341 90.679 169.755 90.519 170.248 90.519C170.741 90.519 171.148 90.679 171.468 90.999C171.801 91.3056 171.968 91.6923 171.968 92.159C171.968 92.6256 171.801 93.019 171.468 93.339C171.148 93.6456 170.741 93.799 170.248 93.799ZM171.628 95.119V106.199H168.828V95.119H171.628ZM180.534 94.959C181.854 94.959 182.921 95.379 183.734 96.219C184.548 97.0456 184.954 98.2056 184.954 99.699V106.199H182.154V100.079C182.154 99.199 181.934 98.5256 181.494 98.059C181.054 97.579 180.454 97.339 179.694 97.339C178.921 97.339 178.308 97.579 177.854 98.059C177.414 98.5256 177.194 99.199 177.194 100.079V106.199H174.394V95.119H177.194V96.499C177.568 96.019 178.041 95.6456 178.614 95.379C179.201 95.099 179.841 94.959 180.534 94.959ZM191.957 94.939C192.784 94.939 193.51 95.1056 194.137 95.439C194.764 95.759 195.257 96.179 195.617 96.699V95.119H198.437V106.279C198.437 107.306 198.23 108.219 197.817 109.019C197.404 109.832 196.784 110.472 195.957 110.939C195.13 111.419 194.13 111.659 192.957 111.659C191.384 111.659 190.09 111.292 189.077 110.559C188.077 109.826 187.51 108.826 187.377 107.559H190.157C190.304 108.066 190.617 108.466 191.097 108.759C191.59 109.066 192.184 109.219 192.877 109.219C193.69 109.219 194.35 108.972 194.857 108.479C195.364 107.999 195.617 107.266 195.617 106.279V104.559C195.257 105.079 194.757 105.512 194.117 105.859C193.49 106.206 192.77 106.379 191.957 106.379C191.024 106.379 190.17 106.139 189.397 105.659C188.624 105.179 188.01 104.506 187.557 103.639C187.117 102.759 186.897 101.752 186.897 100.619C186.897 99.499 187.117 98.5056 187.557 97.639C188.01 96.7723 188.617 96.1056 189.377 95.639C190.15 95.1723 191.01 94.939 191.957 94.939ZM195.617 100.659C195.617 99.979 195.484 99.399 195.217 98.919C194.95 98.4256 194.59 98.0523 194.137 97.799C193.684 97.5323 193.197 97.399 192.677 97.399C192.157 97.399 191.677 97.5256 191.237 97.779C190.797 98.0323 190.437 98.4056 190.157 98.899C189.89 99.379 189.757 99.9523 189.757 100.619C189.757 101.286 189.89 101.872 190.157 102.379C190.437 102.872 190.797 103.252 191.237 103.519C191.69 103.786 192.17 103.919 192.677 103.919C193.197 103.919 193.684 103.792 194.137 103.539C194.59 103.272 194.95 102.899 195.217 102.419C195.484 101.926 195.617 101.339 195.617 100.659Z" fill="#0B4870"/>
</svg>
