<svg width="542" height="596" viewBox="0 0 642 696" fill="none" xmlns="http://www.w3.org/2000/svg">
<path opacity="0.11" d="M115.091 620.291C115.091 620.291 9.43464 602.499 0.510156 434.578C-8.41432 266.658 101.375 187.7 202.599 222.506C237.099 234.368 273.216 202.497 227.935 154.032C178.88 101.553 246.562 -50.1325 496.627 16.7242C687.276 67.7054 624.804 201.239 557.302 298.768C495.969 387.311 629.896 360.952 620.732 516.592C610.25 695.295 115.091 620.291 115.091 620.291Z" fill="#2A94F4"/>
<path d="M222.115 424.561H87.888L90.4635 270H220.198L222.115 424.561Z" fill="#F7F7F7"/>
<path d="M370.357 424.561H81V444.091H370.357V424.561Z" fill="#606060"/>
<path d="M276.859 498.307H174.438V509.689H276.859V498.307Z" fill="#606060"/>
<path d="M81 689.711L205.643 432.469L218.701 438.819L97.0521 689.771L81 689.711Z" fill="#606060"/>
<path d="M370.297 689.711L245.654 432.469L232.656 438.819L354.245 689.771L370.297 689.711Z" fill="#606060"/>
<path d="M156.049 394.068C184.2 394.068 207.021 373.067 207.021 347.161C207.021 321.254 184.2 300.253 156.049 300.253C127.899 300.253 105.078 321.254 105.078 347.161C105.078 373.067 127.899 394.068 156.049 394.068Z" fill="#2A94F4"/>
<path d="M156.049 347.161H207.021C207.021 357.045 203.607 366.69 197.318 374.658C191.029 382.686 182.104 388.617 171.922 391.672L156.049 347.161Z" fill="#CCE9FF"/>
<path d="M156.049 347.161L122.029 312.235C131.372 304.567 143.471 300.253 156.049 300.253C184.021 300.253 207.021 321.4 207.021 347.161C207.021 347.221 207.021 347.34 207.021 347.4L156.049 347.161Z" fill="#0B4870"/>
<path d="M350.711 424.561H237.328L239.484 344.165H349.034L350.711 424.561Z" fill="#F7F7F7"/>
<path d="M280.453 367.769H268.115V414.976H280.453V367.769Z" fill="#0B4870"/>
<path d="M301.596 373.4H289.258V415.036H301.596V373.4Z" fill="#0B4870"/>
<path d="M322.68 361.778H310.341V414.976H322.68V361.778Z" fill="#FABB58"/>
<path d="M259.01 356.566H257.693V415.635H259.01V356.566Z" fill="#0B4870"/>
<path d="M340.049 414.976H257.693V415.994H340.049V414.976Z" fill="#0B4870"/>
<path d="M103.042 398.861H98.5494V403.354H103.042V398.861Z" fill="#0B4870"/>
<path d="M122.867 400.418H105.557V401.856H122.867V400.418Z" fill="#0B4870"/>
<path d="M122.867 408.146H105.557V409.584H122.867V408.146Z" fill="#0B4870"/>
<path d="M122.867 415.934H105.557V417.372H122.867V415.934Z" fill="#0B4870"/>
<path d="M103.042 406.649H98.5494V411.142H103.042V406.649Z" fill="#2A94F4"/>
<path d="M103.042 414.377H98.5494V418.87H103.042V414.377Z" fill="#CCE9FF"/>
<path d="M474.425 194.027L396.201 169.465C409.078 128.308 452.383 103.986 494.25 114.41C537.914 125.253 564.867 170.124 554.026 213.796C543.185 257.469 498.323 284.427 454.659 273.584C445.615 271.367 437.05 267.593 429.263 262.441L474.425 194.027Z" fill="#FABB58"/>
<path d="M454.06 202.054L408 272.386C392.787 262.441 381.227 247.764 374.998 230.69C368.828 213.556 368.349 194.925 373.68 177.492L454.06 202.054Z" fill="#FABB58"/>
<path d="M504.133 394.776L489.039 383.633L607.513 222.962C609.849 219.787 614.342 219.068 617.576 221.464L621.11 224.1C624.284 226.436 625.003 230.929 622.607 234.164L504.133 394.776Z" fill="#F2F2F2"/>
<path d="M511.74 402.025L497.305 389.984L625.183 236.681C627.698 233.625 632.25 233.206 635.305 235.782L638.659 238.598C641.714 241.114 642.133 245.667 639.558 248.722L511.74 402.025Z" fill="#F7F7F7"/>
<path d="M623.075 230.081C623.895 228.839 621.784 226 618.36 223.74C614.936 221.481 611.496 220.657 610.676 221.9C609.856 223.142 611.967 225.981 615.391 228.241C618.815 230.5 622.255 231.324 623.075 230.081Z" fill="#D3D3D3"/>
<path d="M640.167 244.833C640.986 243.59 638.875 240.751 635.452 238.492C632.028 236.233 628.588 235.409 627.768 236.651C626.948 237.894 629.059 240.733 632.483 242.993C635.907 245.252 639.347 246.076 640.167 244.833Z" fill="#D3D3D3"/>
<path d="M556.183 661.784L558.159 674.065C558.938 678.977 556.063 683.71 551.331 685.267L530.248 692.217H579.422L573.492 661.784H556.183Z" fill="#FCD2B1"/>
<path d="M578.164 685.267L553.847 684.009C553.847 684.009 523.24 688.742 523.06 695.392H583.735L578.164 685.267Z" fill="#0E538C"/>
<path d="M425.61 661.784L420.578 677.18C419.5 680.535 416.805 683.171 413.451 684.309L389.552 692.217H438.727L445.675 661.784H425.61Z" fill="#FCD2B1"/>
<path d="M439.685 685.267L413.091 684.009C413.091 684.009 382.485 688.742 382.305 695.392H442.98L439.685 685.267Z" fill="#0E538C"/>
<path d="M549.594 377.763C549.594 377.763 561.573 385.73 565.047 416.283C568.521 446.836 563.67 469.002 566.425 486.854C569.18 504.706 574.571 666.936 574.571 666.936H548.456L504.912 377.942L549.594 377.763Z" fill="#FABB58"/>
<path d="M492.753 374.468H538.992C538.992 374.468 544.683 408.914 534.68 429.043C524.617 449.172 519.227 454.564 516.352 466.246C513.477 477.928 443.878 666.936 443.878 666.936H421.597L492.753 374.468Z" fill="#FABB58"/>
<path d="M559.417 277.418C559.417 277.418 605.896 343.675 600.565 361.588C595.235 379.5 541.868 359.671 541.868 359.671V348.528L578.404 353.141L550.672 305.694L559.417 277.418Z" fill="#FCD2B1"/>
<path d="M480.295 312.044C483.05 297.786 499.581 276.459 499.581 276.459H565.047L547.797 366.26C546.659 372.012 560.914 378.002 545.521 378.002H492.094C489.459 378.002 487.362 375.906 487.362 373.27V340.92C487.362 336.606 486.164 332.293 483.709 328.698C479.636 322.528 479.516 316.058 480.295 312.044Z" fill="#2A94F4"/>
<path d="M510.123 227.575L504.253 241.473C504.253 241.473 500.779 251.777 502.815 257.828C505.151 264.777 515.573 264.717 515.573 264.717L512.459 281.671H538.993V228.054L510.123 227.575Z" fill="#FFE3CA"/>
<path d="M511.62 233.266C506.828 230.031 505.93 223.441 509.644 219.008C514.854 212.837 523.839 205.409 536.597 206.308C549.175 207.206 561.274 214.934 561.573 232.966C561.753 245.008 564.748 253.335 573.253 268.432C581.219 282.63 568.461 298.625 570.258 311.745C572.055 324.864 574.211 324.625 574.571 336.007C575.948 380.758 532.823 379.2 510.901 377.643C489.399 376.085 481.433 331.694 496.227 314.62C511.021 297.547 506.05 278.017 507.547 269.989C511.141 250.519 520.365 246.685 518.927 236.92C516.232 236.082 513.716 234.704 511.62 233.266Z" fill="#0E538C"/>
<path d="M382.964 207.865C382.844 194.326 393.865 199.658 394.464 202.294C394.584 202.833 395.901 203.192 396.44 207.146C396.979 211.04 399.854 216.372 400.394 214.994C401.472 212.238 402.789 208.225 403.748 209.123C406.742 212.119 405.065 217.75 403.568 221.225C402.729 223.201 403.029 225.478 404.347 227.155L443.818 276.459H498.802C510.123 278.676 504.552 302.279 490.956 301.74C479.037 301.261 448.19 299.943 434.714 291.496C421.237 282.989 392.008 224.28 392.008 224.28C386.019 219.727 382.964 208.944 382.964 207.865Z" fill="#FCD2B1"/>
</svg>
