<svg width="470" height="344" viewBox="0 0 520 414" fill="none" xmlns="http://www.w3.org/2000/svg">
<path opacity="0.1" d="M361.381 386.872C372.16 381.781 543.996 384.186 516.666 258.899C489.335 133.611 314.77 148.535 272.235 61.4815C229.7 -25.5648 115.411 11.7429 50.8125 76.4061C-14.8112 142.099 -78.3851 439.535 299.135 305.455C446.056 253.277 354.157 382.288 354.157 382.288" fill="#2A94F4"/>
<path d="M263.852 22.287C243.281 18.8594 222.887 29.538 214.119 48.4781C211.559 54.0038 209.31 60.4632 207.663 67.9754C199.107 107.001 194.382 133.653 158.71 160.305C123.038 186.957 201.137 269.646 241.008 235.443C280.879 201.24 348.388 244.231 363.604 218.924C378.816 193.62 351.305 166.015 364.556 145.077C377.802 124.135 390.293 47.0371 354.161 21.3379C318.025 -4.36522 272.5 -10.0753 263.852 22.287Z" fill="#0B4870"/>
<path d="M253.211 184.102C253.211 184.102 166.779 176.248 183.891 381.781H372.16C372.16 381.781 389.99 188.383 302.809 184.102H253.211Z" fill="#2A94F4"/>
<path d="M259.011 124.373C259.011 124.373 252.355 189.813 253.307 203.139C254.259 216.465 294.391 227.885 301.799 208.849C306.287 197.317 294.391 124.373 294.391 124.373H259.011Z" fill="#AE7440"/>
<path d="M334.304 43.2638C334.304 43.2638 382.804 155.191 309.53 165.497C290.621 168.156 263.283 147.217 259.007 131.985C255.257 118.644 248.866 128.892 243.999 117.518C237.354 101.982 241.93 57.2777 256.155 86.0588C266.615 107.228 288.483 46.7144 309.403 56.2325C330.324 65.7545 334.304 43.2638 334.304 43.2638Z" fill="#AD6C33"/>
<path d="M223.635 410.965L154.887 193.574C154.887 193.574 99.8192 218.939 66.7156 240.423C66.7156 240.423 86.9524 296.003 101.969 326.417C116.985 356.831 124.739 366.683 149.651 379.452C174.563 392.225 223.635 410.965 223.635 410.965Z" fill="#0E538C"/>
<path d="M223.635 410.965L154.887 193.574C154.887 193.574 214.503 182.596 253.925 181.094C253.925 181.094 269.325 238.206 274.53 271.729C279.735 305.252 279.056 317.779 266.024 342.575C252.992 367.371 223.635 410.965 223.635 410.965Z" fill="#0E538C"/>
<path d="M76.2889 243.663C81.9085 258.749 97.2128 299.034 109.012 322.935C123.192 351.662 129.875 360.485 153.232 372.455C172.456 382.307 206.907 396.01 220.599 401.359L157.278 201.133C150.469 204.303 106.414 225.007 76.2889 243.663Z" fill="#F9F3ED"/>
<path d="M259.073 338.913C271.291 315.669 271.686 304.599 266.769 272.939C262.681 246.606 252.033 204.837 247.96 189.259C212.599 191.357 164.667 199.803 157.278 201.133L220.595 401.359C228.721 389.097 249.016 358.049 259.073 338.913Z" fill="#F9F3ED"/>
<path d="M82.0659 245.657C88.6874 263.291 102.429 298.954 113.235 320.845C126.839 348.404 132.758 356.662 155.378 368.259C172.913 377.247 203.333 389.504 218.768 395.576L158.71 205.667C151.808 208.895 111.25 228.027 82.0659 245.657Z" fill="#0E538C"/>
<path d="M254.904 336.715C266.738 314.201 266.83 304.041 262.113 273.662C258.37 249.546 249.104 212.461 244.379 194.216C210.377 196.61 166.211 204.33 158.71 205.667L218.768 395.572C227.896 381.723 245.726 354.176 254.904 336.715Z" fill="#0E538C"/>
<path d="M304.421 400.433L424.694 413.624C428.406 414.032 431.749 411.349 432.156 407.63L455.045 198.512C455.452 194.796 452.773 191.449 449.057 191.042L322.059 177.113L298.433 392.959C298.026 396.682 300.709 400.025 304.421 400.433Z" fill="#D3D3D3"/>
<path d="M446.489 190.765L441.991 190.274L322.059 177.117L317.56 176.625C312.428 176.06 307.811 179.772 307.246 184.909L284.917 388.878C284.353 394.016 288.061 398.638 293.193 399.203L408.327 411.834C413.459 412.398 418.077 408.687 418.641 403.549L428.844 310.332L433.342 310.823C438.474 311.388 443.092 307.676 443.657 302.539L454.761 201.09C455.33 195.953 451.621 191.33 446.489 190.765Z" fill="#F7F7F7"/>
<path d="M240.387 305.455V271.287C240.387 260.366 250.459 252.243 258.57 252.243H278.154C291.861 252.243 299.135 260.366 299.135 271.287V305.455H315.921V271.287C315.921 251.121 301.093 235.44 278.154 235.44H258.57C241.223 235.44 223.601 251.121 223.601 271.287V305.455H240.387Z" fill="#CCE9FF"/>
<path d="M324.316 392.836C324.316 402.077 318.72 409.079 309.488 409.079H232.832C223.601 409.079 215.206 402.077 215.206 392.836V310.497C215.206 301.255 223.597 299.853 232.832 299.853H309.488C318.72 299.853 324.316 301.252 324.316 310.497V392.836Z" fill="#FFBE55"/>
<path d="M284.868 342.706C284.868 334.863 278.714 328.423 270.88 328.423C263.045 328.423 257.172 334.863 257.172 342.706C257.172 348.308 259.971 352.788 265.564 355.309V381.635C265.564 385.274 267.521 388.075 271.16 388.075C274.799 388.075 276.757 385.274 276.757 381.635V355.309C282.349 352.785 284.868 348.304 284.868 342.706Z" fill="#333333"/>
<path d="M196.88 379.352L219.374 373.527C219.374 373.527 222.111 362.814 227.247 358.748C232.383 354.683 238.54 351.601 241.277 351.943C244.014 352.285 238.199 359.824 235.458 363.248C232.717 366.672 236.828 367.702 247.78 360.166C258.731 352.631 267.97 350.206 270.707 365.634C273.444 381.062 257.702 388.259 238.536 388.259C219.37 388.259 204.323 399.057 204.323 399.057C204.323 399.057 175.753 396.483 196.88 379.352Z" fill="#AD6C33"/>
<path d="M101.969 326.417C101.969 326.417 93.5623 326.878 85.9543 342.106C78.3463 357.334 88.0501 430.147 220.595 401.355L211.866 373.761C211.87 373.761 109.554 342.802 101.969 326.417Z" fill="#2A94F4"/>
<path d="M346.376 379.352L323.882 373.527C323.882 373.527 321.146 362.814 316.01 358.748C310.874 354.683 304.717 351.601 301.98 351.943C299.243 352.285 305.058 359.824 307.799 363.248C310.54 366.672 306.429 367.702 295.477 360.166C284.526 352.631 275.287 350.206 272.55 365.634C269.813 381.062 285.555 388.259 304.72 388.259C323.886 388.259 338.933 399.057 338.933 399.057C338.933 399.057 367.5 396.483 346.376 379.352Z" fill="#AD6C33"/>
<path d="M441.085 326.417C441.085 326.417 449.491 326.878 457.099 342.106C464.707 357.334 455.003 430.147 322.458 401.355L331.187 373.761C331.183 373.761 433.5 342.802 441.085 326.417Z" fill="#2A94F4"/>
</svg>
