<svg width="583" height="451" viewBox="0 0 583 451" fill="none" xmlns="http://www.w3.org/2000/svg">
<path d="M488.954 152.192C528.134 152.192 559.895 120.49 559.895 81.3837C559.895 42.277 528.134 10.5748 488.954 10.5748C449.775 10.5748 418.014 42.277 418.014 81.3837C418.014 120.49 449.775 152.192 488.954 152.192Z" stroke="#C1C1C1" stroke-miterlimit="10" stroke-dasharray="11.95 11.95"/>
<path d="M454.702 26.9619C470.36 32.4912 485.961 39.2054 496.928 49.7562C507.894 60.307 513.377 75.4843 506.82 88.1791C498.002 105.162 470.19 115.036 470.021 133.429C469.908 146.575 485.057 156.675 500.319 161.414C515.581 166.21 532.483 167.903 546.332 174.899C567.247 185.45 577.082 205.874 581.096 225.509C585.278 245.877 583.583 269.066 565.664 283.792C543.449 302.185 506.594 300.154 475.108 296.205C433.053 290.957 391.166 284.864 349.28 278.714C257.481 265.286 165.682 251.801 73.883 238.373C64.0474 236.906 53.8161 235.326 45.7893 230.53C29.9054 220.939 28.5487 201.135 37.8191 186.973C47.0329 172.811 64.1039 163.22 81.0619 154.926C98.0198 146.632 115.939 138.733 128.657 126.433C141.376 114.133 147.707 95.9653 138.041 81.9728C129.901 70.1243 112.378 63.8051 104.746 51.7309C94.6848 35.8201 106.273 15.5648 124.474 5.40899C142.676 -4.74685 371.834 -2.2079 454.702 26.9619Z" fill="url(#paint0_linear)"/>
<path d="M562.552 451H15.4882C7.97022 451 1.86536 444.907 1.86536 437.402V411.561C1.86536 404.057 7.97022 397.964 15.4882 397.964H562.552C570.07 397.964 576.175 404.057 576.175 411.561V437.402C576.175 444.907 570.07 451 562.552 451Z" fill="#F2F2F2"/>
<path d="M192.416 64.6265H1.58276V176.397H192.416V64.6265Z" fill="#CCE9FF"/>
<path d="M198.973 59.0408H8.13989V170.812H198.973V59.0408Z" fill="white" stroke="#CCE9FF" stroke-miterlimit="10"/>
<path d="M198.973 59.0408H8.13989V68.576H198.973V59.0408Z" fill="white" stroke="#CCE9FF" stroke-miterlimit="10"/>
<path d="M13.736 66.4884C15.016 66.4884 16.0536 65.4527 16.0536 64.1751C16.0536 62.8976 15.016 61.8619 13.736 61.8619C12.4561 61.8619 11.4185 62.8976 11.4185 64.1751C11.4185 65.4527 12.4561 66.4884 13.736 66.4884Z" fill="#CCE9FF"/>
<path d="M20.6888 66.4884C21.9688 66.4884 23.0064 65.4527 23.0064 64.1751C23.0064 62.8976 21.9688 61.8619 20.6888 61.8619C19.4088 61.8619 18.3712 62.8976 18.3712 64.1751C18.3712 65.4527 19.4088 66.4884 20.6888 66.4884Z" fill="#CCE9FF"/>
<path d="M27.698 66.4884C28.9779 66.4884 30.0155 65.4527 30.0155 64.1751C30.0155 62.8976 28.9779 61.8619 27.698 61.8619C26.418 61.8619 25.3804 62.8976 25.3804 64.1751C25.3804 65.4527 26.418 66.4884 27.698 66.4884Z" fill="#CCE9FF"/>
<path d="M192.416 75.3466H13.2273V101.413H192.416V75.3466Z" fill="#CCE9FF"/>
<path d="M150.926 131.712H54.8307C50.1955 131.712 46.4082 127.931 46.4082 123.305C46.4082 118.678 50.1955 114.898 54.8307 114.898H150.926C155.561 114.898 159.348 118.678 159.348 123.305C159.292 127.931 155.561 131.712 150.926 131.712Z" stroke="#EFEFEF" stroke-miterlimit="10"/>
<path d="M159.518 139.385H46.1256V142.206H159.518V139.385Z" fill="#EFEFEF"/>
<path d="M159.744 145.648H46.3518V148.469H159.744V145.648Z" fill="#EFEFEF"/>
<path d="M159.744 152.192H46.3518V155.014H159.744V152.192Z" fill="#EFEFEF"/>
<path d="M569.335 186.158H378.502V297.929H569.335V186.158Z" fill="#CCE9FF"/>
<path d="M575.892 180.572H385.059V292.343H575.892V180.572Z" fill="white" stroke="#CCE9FF" stroke-miterlimit="10"/>
<path d="M575.892 180.572H385.059V190.108H575.892V180.572Z" fill="white" stroke="#CCE9FF" stroke-miterlimit="10"/>
<path d="M390.655 188.02C391.935 188.02 392.972 186.984 392.972 185.707C392.972 184.429 391.935 183.394 390.655 183.394C389.375 183.394 388.337 184.429 388.337 185.707C388.337 186.984 389.375 188.02 390.655 188.02Z" fill="#CCE9FF"/>
<path d="M397.664 188.02C398.944 188.02 399.982 186.984 399.982 185.707C399.982 184.429 398.944 183.394 397.664 183.394C396.384 183.394 395.346 184.429 395.346 185.707C395.346 186.984 396.384 188.02 397.664 188.02Z" fill="#CCE9FF"/>
<path d="M404.673 188.02C405.953 188.02 406.991 186.984 406.991 185.707C406.991 184.429 405.953 183.394 404.673 183.394C403.393 183.394 402.356 184.429 402.356 185.707C402.356 186.984 403.393 188.02 404.673 188.02Z" fill="#CCE9FF"/>
<path d="M422.423 195.016H388.337V286.306H422.423V195.016Z" fill="#CCE9FF"/>
<path d="M555.373 195.016H427.962V205.736H555.373V195.016Z" fill="#CCE9FF"/>
<path d="M555.373 212.676H427.962V216.4H555.373V212.676Z" fill="#EFEFEF"/>
<path d="M555.373 219.39H427.962V223.114H555.373V219.39Z" fill="#EFEFEF"/>
<path d="M555.373 226.048H427.962V229.772H555.373V226.048Z" fill="#EFEFEF"/>
<path d="M495.172 232.706H427.962V236.43H495.172V232.706Z" fill="#EFEFEF"/>
<path d="M551.925 286.306H431.41C429.489 286.306 427.962 284.783 427.962 282.864V245.457C427.962 243.539 429.489 242.015 431.41 242.015H551.925C553.847 242.015 555.373 243.539 555.373 245.457V282.864C555.373 284.726 553.847 286.306 551.925 286.306Z" stroke="#EFEFEF" stroke-miterlimit="10"/>
<path d="M412.757 96.561H155.9V247.037H412.757V96.561Z" fill="#2A94F4"/>
<path d="M421.575 89.057H164.718V239.533H421.575V89.057Z" fill="white" stroke="#2A94F4" stroke-miterlimit="10"/>
<path d="M421.575 89.057H164.718V101.921H421.575V89.057Z" fill="white" stroke="#2A94F4" stroke-miterlimit="10"/>
<path d="M172.236 99.1C173.984 99.1 175.402 97.6854 175.402 95.9404C175.402 94.1954 173.984 92.7808 172.236 92.7808C170.488 92.7808 169.071 94.1954 169.071 95.9404C169.071 97.6854 170.488 99.1 172.236 99.1Z" fill="#2A94F4"/>
<path d="M181.676 99.1C183.424 99.1 184.842 97.6854 184.842 95.9404C184.842 94.1954 183.424 92.7808 181.676 92.7808C179.928 92.7808 178.511 94.1954 178.511 95.9404C178.511 97.6854 179.928 99.1 181.676 99.1Z" fill="#2A94F4"/>
<path d="M191.06 99.1C192.808 99.1 194.225 97.6854 194.225 95.9404C194.225 94.1954 192.808 92.7808 191.06 92.7808C189.311 92.7808 187.894 94.1954 187.894 95.9404C187.894 97.6854 189.311 99.1 191.06 99.1Z" fill="#2A94F4"/>
<path d="M205.078 189.487C219.595 189.487 231.363 177.741 231.363 163.251C231.363 148.761 219.595 137.015 205.078 137.015C190.561 137.015 178.793 148.761 178.793 163.251C178.793 177.741 190.561 189.487 205.078 189.487Z" fill="#2A94F4"/>
<path d="M231.363 198.514H178.793V202.408H231.363V198.514Z" fill="#F2F2F2"/>
<path d="M231.363 205.68H178.793V209.573H231.363V205.68Z" fill="#F2F2F2"/>
<path d="M231.363 212.845H178.793V216.739H231.363V212.845Z" fill="#F2F2F2"/>
<path d="M209.318 220.011H178.793V223.904H209.318V220.011Z" fill="#F2F2F2"/>
<path d="M381.441 189.487C395.958 189.487 407.726 177.741 407.726 163.251C407.726 148.761 395.958 137.015 381.441 137.015C366.924 137.015 355.156 148.761 355.156 163.251C355.156 177.741 366.924 189.487 381.441 189.487Z" fill="#2A94F4"/>
<path d="M407.726 198.514H355.156V202.408H407.726V198.514Z" fill="#F2F2F2"/>
<path d="M407.726 205.68H355.156V209.573H407.726V205.68Z" fill="#F2F2F2"/>
<path d="M407.726 212.845H355.156V216.739H407.726V212.845Z" fill="#F2F2F2"/>
<path d="M385.68 220.011H355.156V223.904H385.68V220.011Z" fill="#F2F2F2"/>
<path d="M293.26 189.487C307.776 189.487 319.544 177.741 319.544 163.251C319.544 148.761 307.776 137.015 293.26 137.015C278.743 137.015 266.975 148.761 266.975 163.251C266.975 177.741 278.743 189.487 293.26 189.487Z" fill="#2A94F4"/>
<path d="M319.544 198.514H266.975V202.408H319.544V198.514Z" fill="#F2F2F2"/>
<path d="M319.544 205.68H266.975V209.573H319.544V205.68Z" fill="#F2F2F2"/>
<path d="M319.544 212.845H266.975V216.739H319.544V212.845Z" fill="#F2F2F2"/>
<path d="M297.499 220.011H266.975V223.904H297.499V220.011Z" fill="#F2F2F2"/>
<path d="M407.726 108.24H178.793V126.859H407.726V108.24Z" fill="#F2F2F2"/>
<path d="M415.244 88.3799V152.192L397.664 131.712L378.502 152.192V88.3799H415.244Z" fill="#CCE9FF"/>
<path d="M415.244 88.3799V152.192L397.664 131.712V88.3799H415.244Z" fill="#A4DCFF"/>
<path d="M392.407 87.3643L397.382 76.9828L402.639 87.2515L414.057 88.7749L405.917 96.8995L408.009 108.24L397.721 102.993L387.603 108.466L389.411 97.1252L381.045 89.1698L392.407 87.3643Z" fill="#FFBE55"/>
<path d="M394.216 109.538L391.785 103.557L395.968 96.561C395.968 96.561 403.656 103.388 403.317 104.911C402.978 106.491 396.308 111.513 396.308 111.513L394.216 109.538Z" fill="#DB9C63"/>
<path d="M293.429 256.29C291.394 259.224 291.903 266.277 291.903 266.277C291.903 266.277 297.612 270.113 298.177 269.041C298.46 267.461 298.403 263.568 298.403 263.568C298.403 263.568 299.817 267.01 300.382 266.784C300.382 264.528 297.669 256.29 297.669 256.29H293.429Z" fill="#DB9C63"/>
<path d="M334.072 409.361C337.35 420.307 337.52 427.247 346.056 428.319C354.535 429.391 373.527 428.319 373.527 428.319C373.527 428.319 369.514 416.301 361.826 415.172C354.195 414.1 334.072 409.361 334.072 409.361Z" fill="#0B4870"/>
<path d="M270.197 409.361C273.475 420.307 273.645 427.247 282.18 428.319C290.659 429.391 309.652 428.319 309.652 428.319C309.652 428.319 305.639 416.301 297.951 415.172C290.264 414.044 270.197 409.361 270.197 409.361Z" fill="#0B4870"/>
<path d="M353.347 141.924C353.347 151.967 351.878 160.091 343.625 160.091C335.372 160.091 323.501 151.967 323.501 141.924C323.501 131.881 330.171 123.756 338.424 123.756C346.677 123.756 353.347 131.881 353.347 141.924Z" fill="#DB9C63"/>
<path d="M345.886 159.302L346.79 166.241H335.937L337.237 158.117L345.886 159.302Z" fill="#DB9C63"/>
<path d="M352.047 141.021C352.047 151.459 346.282 160.769 336.389 160.769C326.497 160.769 316.266 148.299 316.266 137.805C316.266 127.367 324.293 122.063 334.128 122.063C344.077 122.063 352.047 130.527 352.047 141.021Z" fill="#0E538C"/>
<path d="M345.886 126.859C350.747 129.624 355.326 132.84 355.326 138.708C354.704 141.924 346.903 140.005 346.903 140.005L345.886 126.859Z" fill="#0E538C"/>
<path d="M350.182 149.484C351.712 149.484 352.952 147.943 352.952 146.043C352.952 144.142 351.712 142.601 350.182 142.601C348.652 142.601 347.412 144.142 347.412 146.043C347.412 147.943 348.652 149.484 350.182 149.484Z" fill="#DB9C63"/>
<path d="M325.423 133.291C330.45 133.291 334.524 129.224 334.524 124.207C334.524 119.191 330.45 115.124 325.423 115.124C320.397 115.124 316.323 119.191 316.323 124.207C316.323 129.224 320.397 133.291 325.423 133.291Z" fill="#0E538C"/>
<path d="M336.276 163.985C321.353 166.072 310.331 167.821 300.156 207.598C291.677 240.774 292.581 256.911 292.581 256.911L299.817 257.7C299.817 257.7 305.639 207.203 322.653 190.954L328.928 213.974H352.047L355.665 189.938L357.643 176.736C357.643 176.736 395.234 162.179 399.53 110.723C392.294 108.466 392.294 108.466 392.294 108.466C392.294 108.466 387.32 153.49 346.451 163.985H336.276V163.985Z" fill="#FFBE55"/>
<path d="M328.984 213.917C322.258 219.785 262.792 413.818 262.792 413.818C262.792 413.818 299.478 421.943 311.405 421.379L337.294 253.695L323.445 421.379L378.558 416.978C378.558 416.978 368.836 233.214 352.047 213.917C343.399 212.507 328.984 213.917 328.984 213.917Z" fill="#0E538C"/>
<path d="M62.7444 419.066C76.8761 419.066 82.8679 407.781 85.242 395.82C87.8988 382.335 85.9769 367.948 85.9769 367.948H39.6251C39.6251 367.948 39.5686 368.512 39.4555 369.471C38.5511 377.991 35.7248 419.066 62.7444 419.066Z" fill="#B6E7FF"/>
<path d="M39.5686 367.948C39.5686 368.963 49.9695 369.753 62.7445 369.753C75.5195 369.753 85.9203 368.907 85.9203 367.948C85.9203 366.932 75.5195 366.142 62.7445 366.142C49.9695 366.142 39.5686 366.989 39.5686 367.948Z" fill="#85DDFF"/>
<path d="M0 239.702C0 239.702 24.476 276.827 39.1164 299.509C53.7567 322.19 57.6005 326.873 59.3529 334.208C61.1052 341.543 62.6879 368.568 62.6879 368.568H63.7619C63.7619 368.568 63.3662 345.661 62.0661 337.932C60.766 330.484 62.1792 327.776 63.1967 319.933C64.2707 312.091 65.6273 299.565 57.7136 290.82C49.7433 282.131 51.8914 273.555 49.065 267.8C46.2952 262.045 24.589 255.049 21.8192 249.124C18.9929 243.144 6.78318 239.533 0 239.702Z" fill="#2A94F4"/>
<path d="M0 239.702C0 239.702 7.68761 248.391 12.9446 251.381C18.2015 254.372 20.6322 251.72 24.6456 258.885C28.6589 266.051 28.8285 269.154 32.5027 272.821C36.177 276.489 40.5295 276.658 40.8687 284.67C41.2078 292.682 39.1164 299.509 39.1164 299.509C39.1164 299.509 1.52622 241.62 0 239.702Z" fill="#41AAF7"/>
<path d="M60.7094 368.512H59.6354C59.6354 368.512 59.2962 361.064 56.3568 357.51C54.4349 355.197 46.3516 352.545 38.3814 349.385C33.9723 347.636 29.6198 345.718 26.2847 343.63C16.9578 337.706 8.08317 318.692 7.34832 315.307C7.06569 314.122 6.95264 313.388 6.95264 312.937C6.95264 312.034 7.40485 311.865 8.19622 310.962C8.59191 310.511 9.72244 310.68 11.0791 311.075C15.0925 312.316 18.484 315.025 20.5755 318.636C22.4974 321.964 25.6064 326.196 29.3937 327.212C35.9507 328.961 35.3855 330.033 37.8161 336.69C40.2468 343.348 46.3516 344.42 53.9827 352.319C61.7268 360.218 60.7094 368.512 60.7094 368.512Z" fill="#2A94F4"/>
<path d="M38.3249 349.329C33.9158 347.58 29.5632 345.661 26.2282 343.574C16.9578 337.706 8.08317 318.692 7.34832 315.307C7.06569 314.122 6.95264 313.388 6.95264 312.937C6.95264 313.163 7.40485 316.153 12.2661 318.184C17.297 320.272 18.2579 320.272 18.9363 323.431C19.6146 326.591 20.1233 329.976 22.7801 330.653C25.3803 331.33 27.0195 328.34 29.111 333.136C31.2025 337.932 32.1635 339.568 34.0854 340.245C36.0073 340.922 37.4204 339.906 37.8726 343.63C38.1553 345.887 38.2683 348.031 38.3249 349.329Z" fill="#41AAF7"/>
<path d="M68.7928 368.512H70.0929C70.0929 368.512 72.6366 322.529 76.1412 318.297C78.4023 315.532 85.8072 310.624 95.3037 306.843C100.504 304.756 105.705 302.555 109.605 300.073C120.628 293.077 131.142 270.565 132.046 266.559C132.385 265.148 132.498 264.302 132.498 263.738C132.498 262.666 131.933 262.496 131.028 261.424C130.576 260.916 129.22 261.086 127.58 261.594C122.832 263.06 118.819 266.277 116.332 270.565C114.014 274.514 110.34 279.479 105.874 280.72C98.0735 282.808 98.7518 284.106 95.869 291.948C92.9861 299.847 85.7507 301.145 76.7065 310.454C67.6057 319.708 68.7928 368.512 68.7928 368.512Z" fill="#2A94F4"/>
<path d="M95.2472 306.843C100.448 304.756 105.648 302.555 109.548 300.073C120.571 293.077 131.085 270.565 131.989 266.559C132.329 265.148 132.442 264.302 132.442 263.738C132.385 264.02 131.876 267.574 126.167 269.944C120.232 272.37 119.045 272.37 118.254 276.15C117.462 279.874 116.84 283.936 113.731 284.67C110.622 285.46 108.701 281.962 106.213 287.66C103.726 293.359 102.596 295.277 100.335 296.067C98.0735 296.857 96.3777 295.672 95.869 300.073C95.5298 302.725 95.3602 305.264 95.2472 306.843Z" fill="#41AAF7"/>
<path d="M62.7444 419.066C76.876 419.066 82.8678 407.781 85.242 395.82C71.393 390.573 53.9263 382.166 39.3989 369.471C38.551 377.991 35.7247 419.066 62.7444 419.066Z" fill="#CCE9FF"/>
<path d="M531.632 419.066C540.676 419.066 544.463 411.844 545.99 404.227C547.685 395.594 546.442 386.454 546.442 386.454H516.878C516.878 386.454 516.822 386.792 516.765 387.413C516.2 392.886 514.391 419.066 531.632 419.066Z" fill="#B6E7FF"/>
<path d="M516.879 386.454C516.879 387.075 523.492 387.639 531.688 387.639C539.885 387.639 546.498 387.131 546.498 386.454C546.498 385.833 539.885 385.269 531.688 385.269C523.492 385.326 516.879 385.833 516.879 386.454Z" fill="#85DDFF"/>
<path d="M488.954 304.643C488.954 304.643 504.556 328.34 513.939 342.784C523.323 357.228 525.753 360.218 526.884 364.901C528.014 369.584 528.975 386.792 528.975 386.792H529.654C529.654 386.792 529.427 372.179 528.579 367.214C527.788 362.475 528.636 360.726 529.314 355.761C529.993 350.739 530.897 342.727 525.81 337.198C520.722 331.612 522.079 326.196 520.27 322.529C518.461 318.861 504.669 314.404 502.917 310.624C501.108 306.843 493.307 304.53 488.954 304.643Z" fill="#2A94F4"/>
<path d="M488.954 304.644C488.954 304.644 493.872 310.23 497.207 312.092C500.542 314.01 502.125 312.318 504.669 316.888C507.213 321.458 507.326 323.433 509.7 325.802C512.074 328.116 514.844 328.228 515.07 333.363C515.296 338.497 513.939 342.841 513.939 342.841C513.939 342.841 489.972 305.829 488.954 304.644Z" fill="#41AAF7"/>
<path d="M532.819 386.793H533.667C533.667 386.793 535.306 357.453 537.511 354.745C538.924 352.996 543.672 349.837 549.72 347.467C553.055 346.169 556.334 344.702 558.878 343.122C565.887 338.665 572.614 324.334 573.179 321.739C573.405 320.836 573.461 320.328 573.461 319.933C573.461 319.256 573.122 319.143 572.501 318.466C572.218 318.128 571.37 318.241 570.296 318.579C567.244 319.482 564.7 321.569 563.117 324.334C561.647 326.873 559.33 330.033 556.447 330.822C551.473 332.12 551.925 332.967 550.059 337.988C548.251 343.01 543.615 343.856 537.85 349.78C532.084 355.648 532.819 386.793 532.819 386.793Z" fill="#2A94F4"/>
<path d="M549.72 347.467C553.056 346.169 556.334 344.702 558.878 343.122C565.887 338.665 572.614 324.334 573.179 321.739C573.405 320.836 573.462 320.328 573.462 319.933C573.462 320.102 573.122 322.359 569.448 323.883C565.661 325.462 564.926 325.462 564.417 327.832C563.909 330.202 563.513 332.797 561.534 333.305C559.556 333.813 558.312 331.556 556.73 335.223C555.147 338.834 554.412 340.076 552.942 340.583C551.473 341.091 550.399 340.358 550.06 343.122C549.89 344.815 549.777 346.451 549.72 347.467Z" fill="#41AAF7"/>
<path d="M531.632 419.066C540.676 419.066 544.463 411.844 545.99 404.227C537.115 400.898 525.979 395.481 516.765 387.413C516.2 392.886 514.391 419.066 531.632 419.066Z" fill="#CCE9FF"/>
<defs>
<linearGradient id="paint0_linear" x1="307.522" y1="0" x2="307.522" y2="298.863" gradientUnits="userSpaceOnUse">
<stop stop-color="#7ED4C9"/>
<stop offset="0.484375" stop-color="#A3EDF8"/>
<stop offset="1" stop-color="#D2F3EF"/>
</linearGradient>
</defs>
</svg>
