<svg width="210" height="121" viewBox="0 0 210 121" fill="none" xmlns="http://www.w3.org/2000/svg">
<path d="M0 121H210V0H111.464V19.7385H0V121Z" fill="#6FACB6"/>
<path d="M203.204 113.117V27.0017V5.31421H116.214V15.7083V26.571H60.8252H5.43689L5.43689 69.8438V113.117H103.641H128.447H153.252H203.204Z" fill="#89D2DE"/>
<path d="M5.43688 26.5711L0 19.7385H111.456L116.214 26.5711H5.43688Z" fill="#C6E9F1"/>
<path d="M116.214 5.3142L111.456 0H210L203.204 5.3142H116.214Z" fill="#C6E9F1"/>
<path d="M21.1819 91.5488C22.6485 91.5488 23.9352 91.8355 25.0419 92.4088C26.1619 92.9821 27.0219 93.8021 27.6219 94.8688C28.2352 95.9221 28.5419 97.1488 28.5419 98.5488C28.5419 99.9488 28.2352 101.175 27.6219 102.229C27.0219 103.269 26.1619 104.075 25.0419 104.649C23.9352 105.222 22.6485 105.509 21.1819 105.509H16.3019V91.5488H21.1819ZM21.0819 103.129C22.5485 103.129 23.6819 102.729 24.4819 101.929C25.2819 101.129 25.6819 100.002 25.6819 98.5488C25.6819 97.0955 25.2819 95.9621 24.4819 95.1488C23.6819 94.3221 22.5485 93.9088 21.0819 93.9088H19.1019V103.129H21.0819ZM32.0578 93.1088C31.5645 93.1088 31.1511 92.9555 30.8178 92.6488C30.4978 92.3288 30.3378 91.9355 30.3378 91.4688C30.3378 91.0021 30.4978 90.6155 30.8178 90.3088C31.1511 89.9888 31.5645 89.8288 32.0578 89.8288C32.5511 89.8288 32.9578 89.9888 33.2778 90.3088C33.6111 90.6155 33.7778 91.0021 33.7778 91.4688C33.7778 91.9355 33.6111 92.3288 33.2778 92.6488C32.9578 92.9555 32.5511 93.1088 32.0578 93.1088ZM33.4378 94.4288V105.509H30.6378V94.4288H33.4378ZM40.5442 94.2488C41.3709 94.2488 42.0975 94.4155 42.7242 94.7488C43.3509 95.0688 43.8442 95.4888 44.2042 96.0088V94.4288H47.0242V105.589C47.0242 106.615 46.8175 107.529 46.4042 108.329C45.9909 109.142 45.3709 109.782 44.5442 110.249C43.7175 110.729 42.7175 110.969 41.5442 110.969C39.9709 110.969 38.6775 110.602 37.6642 109.869C36.6642 109.135 36.0975 108.135 35.9642 106.869H38.7442C38.8909 107.375 39.2042 107.775 39.6842 108.069C40.1775 108.375 40.7709 108.529 41.4642 108.529C42.2775 108.529 42.9375 108.282 43.4442 107.789C43.9509 107.309 44.2042 106.575 44.2042 105.589V103.869C43.8442 104.389 43.3442 104.822 42.7042 105.169C42.0775 105.515 41.3575 105.689 40.5442 105.689C39.6109 105.689 38.7575 105.449 37.9842 104.969C37.2109 104.489 36.5975 103.815 36.1442 102.949C35.7042 102.069 35.4842 101.062 35.4842 99.9288C35.4842 98.8088 35.7042 97.8155 36.1442 96.9488C36.5975 96.0821 37.2042 95.4155 37.9642 94.9488C38.7375 94.4821 39.5975 94.2488 40.5442 94.2488ZM44.2042 99.9688C44.2042 99.2888 44.0709 98.7088 43.8042 98.2288C43.5375 97.7355 43.1775 97.3621 42.7242 97.1088C42.2709 96.8421 41.7842 96.7088 41.2642 96.7088C40.7442 96.7088 40.2642 96.8355 39.8242 97.0888C39.3842 97.3421 39.0242 97.7155 38.7442 98.2088C38.4775 98.6888 38.3442 99.2621 38.3442 99.9288C38.3442 100.595 38.4775 101.182 38.7442 101.689C39.0242 102.182 39.3842 102.562 39.8242 102.829C40.2775 103.095 40.7575 103.229 41.2642 103.229C41.7842 103.229 42.2709 103.102 42.7242 102.849C43.1775 102.582 43.5375 102.209 43.8042 101.729C44.0709 101.235 44.2042 100.649 44.2042 99.9688ZM51.1789 93.1088C50.6856 93.1088 50.2722 92.9555 49.9389 92.6488C49.6189 92.3288 49.4589 91.9355 49.4589 91.4688C49.4589 91.0021 49.6189 90.6155 49.9389 90.3088C50.2722 89.9888 50.6856 89.8288 51.1789 89.8288C51.6722 89.8288 52.0789 89.9888 52.3989 90.3088C52.7322 90.6155 52.8989 91.0021 52.8989 91.4688C52.8989 91.9355 52.7322 92.3288 52.3989 92.6488C52.0789 92.9555 51.6722 93.1088 51.1789 93.1088ZM52.5589 94.4288V105.509H49.7589V94.4288H52.5589ZM58.5853 96.7288V102.089C58.5853 102.462 58.672 102.735 58.8453 102.909C59.032 103.069 59.3386 103.149 59.7653 103.149H61.0653V105.509H59.3053C56.9453 105.509 55.7653 104.362 55.7653 102.069V96.7288H54.4453V94.4288H55.7653V91.6888H58.5853V94.4288H61.0653V96.7288H58.5853ZM62.3592 99.9288C62.3592 98.8088 62.5792 97.8155 63.0192 96.9488C63.4725 96.0821 64.0792 95.4155 64.8392 94.9488C65.6125 94.4821 66.4725 94.2488 67.4192 94.2488C68.2459 94.2488 68.9659 94.4155 69.5792 94.7488C70.2059 95.0821 70.7059 95.5021 71.0792 96.0088V94.4288H73.8992V105.509H71.0792V103.889C70.7192 104.409 70.2192 104.842 69.5792 105.189C68.9525 105.522 68.2259 105.689 67.3992 105.689C66.4659 105.689 65.6125 105.449 64.8392 104.969C64.0792 104.489 63.4725 103.815 63.0192 102.949C62.5792 102.069 62.3592 101.062 62.3592 99.9288ZM71.0792 99.9688C71.0792 99.2888 70.9459 98.7088 70.6792 98.2288C70.4125 97.7355 70.0525 97.3621 69.5992 97.1088C69.1459 96.8421 68.6592 96.7088 68.1392 96.7088C67.6192 96.7088 67.1392 96.8355 66.6992 97.0888C66.2592 97.3421 65.8992 97.7155 65.6192 98.2088C65.3525 98.6888 65.2192 99.2621 65.2192 99.9288C65.2192 100.595 65.3525 101.182 65.6192 101.689C65.8992 102.182 66.2592 102.562 66.6992 102.829C67.1525 103.095 67.6325 103.229 68.1392 103.229C68.6592 103.229 69.1459 103.102 69.5992 102.849C70.0525 102.582 70.4125 102.209 70.6792 101.729C70.9459 101.235 71.0792 100.649 71.0792 99.9688ZM79.4339 90.7088V105.509H76.6339V90.7088H79.4339ZM94.8459 105.509L89.7659 99.2888V105.509H86.9659V91.5488H89.7659V97.8088L94.8459 91.5488H98.2259L92.4659 98.4688L98.3859 105.509H94.8459ZM106.368 94.2688C107.688 94.2688 108.754 94.6888 109.568 95.5288C110.381 96.3555 110.788 97.5155 110.788 99.0088V105.509H107.988V99.3888C107.988 98.5088 107.768 97.8355 107.328 97.3688C106.888 96.8888 106.288 96.6488 105.528 96.6488C104.754 96.6488 104.141 96.8888 103.688 97.3688C103.248 97.8355 103.028 98.5088 103.028 99.3888V105.509H100.228V94.4288H103.028V95.8088C103.401 95.3288 103.874 94.9555 104.448 94.6888C105.034 94.4088 105.674 94.2688 106.368 94.2688ZM118.37 105.689C117.304 105.689 116.344 105.455 115.49 104.989C114.637 104.509 113.964 103.835 113.47 102.969C112.99 102.102 112.75 101.102 112.75 99.9688C112.75 98.8355 112.997 97.8355 113.49 96.9688C113.997 96.1021 114.684 95.4355 115.55 94.9688C116.417 94.4888 117.384 94.2488 118.45 94.2488C119.517 94.2488 120.484 94.4888 121.35 94.9688C122.217 95.4355 122.897 96.1021 123.39 96.9688C123.897 97.8355 124.15 98.8355 124.15 99.9688C124.15 101.102 123.89 102.102 123.37 102.969C122.864 103.835 122.17 104.509 121.29 104.989C120.424 105.455 119.45 105.689 118.37 105.689ZM118.37 103.249C118.877 103.249 119.35 103.129 119.79 102.889C120.244 102.635 120.604 102.262 120.87 101.769C121.137 101.275 121.27 100.675 121.27 99.9688C121.27 98.9155 120.99 98.1088 120.43 97.5488C119.884 96.9755 119.21 96.6888 118.41 96.6888C117.61 96.6888 116.937 96.9755 116.39 97.5488C115.857 98.1088 115.59 98.9155 115.59 99.9688C115.59 101.022 115.85 101.835 116.37 102.409C116.904 102.969 117.57 103.249 118.37 103.249ZM141.564 94.4288L138.324 105.509H135.304L133.284 97.7688L131.264 105.509H128.224L124.964 94.4288H127.804L129.764 102.869L131.884 94.4288H134.844L136.924 102.849L138.884 94.4288H141.564ZM145.879 90.7088V105.509H143.079V90.7088H145.879ZM158.946 99.7288C158.946 100.129 158.919 100.489 158.866 100.809H150.766C150.832 101.609 151.112 102.235 151.606 102.689C152.099 103.142 152.706 103.369 153.426 103.369C154.466 103.369 155.206 102.922 155.646 102.029H158.666C158.346 103.095 157.732 103.975 156.826 104.669C155.919 105.349 154.806 105.689 153.486 105.689C152.419 105.689 151.459 105.455 150.606 104.989C149.766 104.509 149.106 103.835 148.626 102.969C148.159 102.102 147.926 101.102 147.926 99.9688C147.926 98.8221 148.159 97.8155 148.626 96.9488C149.092 96.0821 149.746 95.4155 150.586 94.9488C151.426 94.4821 152.392 94.2488 153.486 94.2488C154.539 94.2488 155.479 94.4755 156.306 94.9288C157.146 95.3821 157.792 96.0288 158.246 96.8688C158.712 97.6955 158.946 98.6488 158.946 99.7288ZM156.046 98.9288C156.032 98.2088 155.772 97.6355 155.266 97.2088C154.759 96.7688 154.139 96.5488 153.406 96.5488C152.712 96.5488 152.126 96.7621 151.646 97.1888C151.179 97.6021 150.892 98.1821 150.786 98.9288H156.046ZM160.269 99.9288C160.269 98.8088 160.489 97.8155 160.929 96.9488C161.383 96.0821 161.996 95.4155 162.769 94.9488C163.543 94.4821 164.403 94.2488 165.349 94.2488C166.069 94.2488 166.756 94.4088 167.409 94.7288C168.063 95.0355 168.583 95.4488 168.969 95.9688V90.7088H171.809V105.509H168.969V103.869C168.623 104.415 168.136 104.855 167.509 105.189C166.883 105.522 166.156 105.689 165.329 105.689C164.396 105.689 163.543 105.449 162.769 104.969C161.996 104.489 161.383 103.815 160.929 102.949C160.489 102.069 160.269 101.062 160.269 99.9288ZM168.989 99.9688C168.989 99.2888 168.856 98.7088 168.589 98.2288C168.323 97.7355 167.963 97.3621 167.509 97.1088C167.056 96.8421 166.569 96.7088 166.049 96.7088C165.529 96.7088 165.049 96.8355 164.609 97.0888C164.169 97.3421 163.809 97.7155 163.529 98.2088C163.263 98.6888 163.129 99.2621 163.129 99.9288C163.129 100.595 163.263 101.182 163.529 101.689C163.809 102.182 164.169 102.562 164.609 102.829C165.063 103.095 165.543 103.229 166.049 103.229C166.569 103.229 167.056 103.102 167.509 102.849C167.963 102.582 168.323 102.209 168.589 101.729C168.856 101.235 168.989 100.649 168.989 99.9688ZM178.884 94.2488C179.711 94.2488 180.437 94.4155 181.064 94.7488C181.691 95.0688 182.184 95.4888 182.544 96.0088V94.4288H185.364V105.589C185.364 106.615 185.157 107.529 184.744 108.329C184.331 109.142 183.711 109.782 182.884 110.249C182.057 110.729 181.057 110.969 179.884 110.969C178.311 110.969 177.017 110.602 176.004 109.869C175.004 109.135 174.437 108.135 174.304 106.869H177.084C177.231 107.375 177.544 107.775 178.024 108.069C178.517 108.375 179.111 108.529 179.804 108.529C180.617 108.529 181.277 108.282 181.784 107.789C182.291 107.309 182.544 106.575 182.544 105.589V103.869C182.184 104.389 181.684 104.822 181.044 105.169C180.417 105.515 179.697 105.689 178.884 105.689C177.951 105.689 177.097 105.449 176.324 104.969C175.551 104.489 174.937 103.815 174.484 102.949C174.044 102.069 173.824 101.062 173.824 99.9288C173.824 98.8088 174.044 97.8155 174.484 96.9488C174.937 96.0821 175.544 95.4155 176.304 94.9488C177.077 94.4821 177.937 94.2488 178.884 94.2488ZM182.544 99.9688C182.544 99.2888 182.411 98.7088 182.144 98.2288C181.877 97.7355 181.517 97.3621 181.064 97.1088C180.611 96.8421 180.124 96.7088 179.604 96.7088C179.084 96.7088 178.604 96.8355 178.164 97.0888C177.724 97.3421 177.364 97.7155 177.084 98.2088C176.817 98.6888 176.684 99.2621 176.684 99.9288C176.684 100.595 176.817 101.182 177.084 101.689C177.364 102.182 177.724 102.562 178.164 102.829C178.617 103.095 179.097 103.229 179.604 103.229C180.124 103.229 180.611 103.102 181.064 102.849C181.517 102.582 181.877 102.209 182.144 101.729C182.411 101.235 182.544 100.649 182.544 99.9688ZM198.399 99.7288C198.399 100.129 198.372 100.489 198.319 100.809H190.219C190.285 101.609 190.565 102.235 191.059 102.689C191.552 103.142 192.159 103.369 192.879 103.369C193.919 103.369 194.659 102.922 195.099 102.029H198.119C197.799 103.095 197.185 103.975 196.279 104.669C195.372 105.349 194.259 105.689 192.939 105.689C191.872 105.689 190.912 105.455 190.059 104.989C189.219 104.509 188.559 103.835 188.079 102.969C187.612 102.102 187.379 101.102 187.379 99.9688C187.379 98.8221 187.612 97.8155 188.079 96.9488C188.545 96.0821 189.199 95.4155 190.039 94.9488C190.879 94.4821 191.845 94.2488 192.939 94.2488C193.992 94.2488 194.932 94.4755 195.759 94.9288C196.599 95.3821 197.245 96.0288 197.699 96.8688C198.165 97.6955 198.399 98.6488 198.399 99.7288ZM195.499 98.9288C195.485 98.2088 195.225 97.6355 194.719 97.2088C194.212 96.7688 193.592 96.5488 192.859 96.5488C192.165 96.5488 191.579 96.7621 191.099 97.1888C190.632 97.6021 190.345 98.1821 190.239 98.9288H195.499Z" fill="#0B4870"/>
<ellipse cx="163.871" cy="43.2915" rx="24.1816" ry="25.1767" fill="#EE9D3D"/>
<path d="M176.059 28.1308C175.522 27.8197 174.931 27.6218 174.32 27.5485C173.71 27.4752 173.091 27.528 172.5 27.7038C171.909 27.8795 171.358 28.1749 170.876 28.5729C170.395 28.9709 169.994 29.4638 169.696 30.0233L161.009 46.2985L156.038 41.1227C155.607 40.6574 155.09 40.2863 154.519 40.031C153.949 39.7757 153.335 39.6413 152.713 39.6357C152.092 39.6301 151.476 39.7534 150.901 39.9983C150.326 40.2432 149.804 40.6049 149.364 41.0623C148.925 41.5197 148.578 42.0636 148.342 42.6623C148.107 43.2609 147.989 43.9024 147.994 44.5492C148 45.196 148.129 45.8352 148.374 46.4296C148.619 47.0239 148.975 47.5614 149.422 48.0108L158.78 57.7535C159.664 58.6766 160.857 59.1832 162.088 59.1832L162.736 59.1345C163.453 59.0301 164.137 58.7537 164.734 58.3273C165.331 57.9008 165.825 57.3359 166.177 56.6769L177.874 34.7558C178.173 34.1967 178.363 33.5819 178.433 32.9463C178.504 32.3108 178.453 31.6671 178.284 31.0519C178.116 30.4367 177.833 29.8621 177.451 29.3609C177.069 28.8597 176.596 28.4417 176.059 28.1308V28.1308Z" fill="#FFE3CA"/>
</svg>
