<svg width="210" height="121" viewBox="0 0 210 121" fill="none" xmlns="http://www.w3.org/2000/svg">
<path d="M0 121H210V0H111.464V19.7385H0V121Z" fill="#6FACB6"/>
<path d="M203.204 113.117V27.0017V5.31421H116.214V15.7083V26.571H60.8252H5.43689L5.43689 69.8438V113.117H103.641H128.447H153.252H203.204Z" fill="#89D2DE"/>
<path d="M5.43688 26.5711L0 19.7385H111.456L116.214 26.5711H5.43688Z" fill="#C6E9F1"/>
<path d="M116.214 5.3142L111.456 0H210L203.204 5.3142H116.214Z" fill="#C6E9F1"/>
<path d="M20.8384 90.8757C22.3051 90.8757 23.5917 91.1624 24.6984 91.7357C25.8184 92.309 26.6784 93.129 27.2784 94.1957C27.8917 95.249 28.1984 96.4757 28.1984 97.8757C28.1984 99.2757 27.8917 100.502 27.2784 101.556C26.6784 102.596 25.8184 103.402 24.6984 103.976C23.5917 104.549 22.3051 104.836 20.8384 104.836H15.9584V90.8757H20.8384ZM20.7384 102.456C22.2051 102.456 23.3384 102.056 24.1384 101.256C24.9384 100.456 25.3384 99.329 25.3384 97.8757C25.3384 96.4224 24.9384 95.289 24.1384 94.4757C23.3384 93.649 22.2051 93.2357 20.7384 93.2357H18.7584V102.456H20.7384ZM31.7143 92.4357C31.221 92.4357 30.8077 92.2824 30.4743 91.9757C30.1543 91.6557 29.9943 91.2624 29.9943 90.7957C29.9943 90.329 30.1543 89.9424 30.4743 89.6357C30.8077 89.3157 31.221 89.1557 31.7143 89.1557C32.2077 89.1557 32.6143 89.3157 32.9343 89.6357C33.2677 89.9424 33.4343 90.329 33.4343 90.7957C33.4343 91.2624 33.2677 91.6557 32.9343 91.9757C32.6143 92.2824 32.2077 92.4357 31.7143 92.4357ZM33.0943 93.7557V104.836H30.2943V93.7557H33.0943ZM40.2007 93.5757C41.0274 93.5757 41.7541 93.7424 42.3807 94.0757C43.0074 94.3957 43.5007 94.8157 43.8607 95.3357V93.7557H46.6807V104.916C46.6807 105.942 46.4741 106.856 46.0607 107.656C45.6474 108.469 45.0274 109.109 44.2007 109.576C43.3741 110.056 42.3741 110.296 41.2007 110.296C39.6274 110.296 38.3341 109.929 37.3207 109.196C36.3207 108.462 35.7541 107.462 35.6207 106.196H38.4007C38.5474 106.702 38.8607 107.102 39.3407 107.396C39.8341 107.702 40.4274 107.856 41.1207 107.856C41.9341 107.856 42.5941 107.609 43.1007 107.116C43.6074 106.636 43.8607 105.902 43.8607 104.916V103.196C43.5007 103.716 43.0007 104.149 42.3607 104.496C41.7341 104.842 41.0141 105.016 40.2007 105.016C39.2674 105.016 38.4141 104.776 37.6407 104.296C36.8674 103.816 36.2541 103.142 35.8007 102.276C35.3607 101.396 35.1407 100.389 35.1407 99.2557C35.1407 98.1357 35.3607 97.1424 35.8007 96.2757C36.2541 95.409 36.8607 94.7424 37.6207 94.2757C38.3941 93.809 39.2541 93.5757 40.2007 93.5757ZM43.8607 99.2957C43.8607 98.6157 43.7274 98.0357 43.4607 97.5557C43.1941 97.0624 42.8341 96.689 42.3807 96.4357C41.9274 96.169 41.4407 96.0357 40.9207 96.0357C40.4007 96.0357 39.9207 96.1624 39.4807 96.4157C39.0407 96.669 38.6807 97.0424 38.4007 97.5357C38.1341 98.0157 38.0007 98.589 38.0007 99.2557C38.0007 99.9224 38.1341 100.509 38.4007 101.016C38.6807 101.509 39.0407 101.889 39.4807 102.156C39.9341 102.422 40.4141 102.556 40.9207 102.556C41.4407 102.556 41.9274 102.429 42.3807 102.176C42.8341 101.909 43.1941 101.536 43.4607 101.056C43.7274 100.562 43.8607 99.9757 43.8607 99.2957ZM50.8354 92.4357C50.3421 92.4357 49.9288 92.2824 49.5954 91.9757C49.2754 91.6557 49.1154 91.2624 49.1154 90.7957C49.1154 90.329 49.2754 89.9424 49.5954 89.6357C49.9288 89.3157 50.3421 89.1557 50.8354 89.1557C51.3288 89.1557 51.7354 89.3157 52.0554 89.6357C52.3888 89.9424 52.5554 90.329 52.5554 90.7957C52.5554 91.2624 52.3888 91.6557 52.0554 91.9757C51.7354 92.2824 51.3288 92.4357 50.8354 92.4357ZM52.2154 93.7557V104.836H49.4154V93.7557H52.2154ZM58.2418 96.0557V101.416C58.2418 101.789 58.3285 102.062 58.5018 102.236C58.6885 102.396 58.9952 102.476 59.4218 102.476H60.7218V104.836H58.9618C56.6018 104.836 55.4218 103.689 55.4218 101.396V96.0557H54.1018V93.7557H55.4218V91.0157H58.2418V93.7557H60.7218V96.0557H58.2418ZM62.0157 99.2557C62.0157 98.1357 62.2357 97.1424 62.6757 96.2757C63.1291 95.409 63.7357 94.7424 64.4957 94.2757C65.2691 93.809 66.1291 93.5757 67.0757 93.5757C67.9024 93.5757 68.6224 93.7424 69.2357 94.0757C69.8624 94.409 70.3624 94.829 70.7357 95.3357V93.7557H73.5557V104.836H70.7357V103.216C70.3757 103.736 69.8757 104.169 69.2357 104.516C68.6091 104.849 67.8824 105.016 67.0557 105.016C66.1224 105.016 65.2691 104.776 64.4957 104.296C63.7357 103.816 63.1291 103.142 62.6757 102.276C62.2357 101.396 62.0157 100.389 62.0157 99.2557ZM70.7357 99.2957C70.7357 98.6157 70.6024 98.0357 70.3357 97.5557C70.0691 97.0624 69.7091 96.689 69.2557 96.4357C68.8024 96.169 68.3157 96.0357 67.7957 96.0357C67.2757 96.0357 66.7957 96.1624 66.3557 96.4157C65.9157 96.669 65.5557 97.0424 65.2757 97.5357C65.0091 98.0157 64.8757 98.589 64.8757 99.2557C64.8757 99.9224 65.0091 100.509 65.2757 101.016C65.5557 101.509 65.9157 101.889 66.3557 102.156C66.8091 102.422 67.2891 102.556 67.7957 102.556C68.3157 102.556 68.8024 102.429 69.2557 102.176C69.7091 101.909 70.0691 101.536 70.3357 101.056C70.6024 100.562 70.7357 99.9757 70.7357 99.2957ZM79.0904 90.0357V104.836H76.2904V90.0357H79.0904ZM94.5025 104.836L89.4225 98.6157V104.836H86.6225V90.8757H89.4225V97.1357L94.5025 90.8757H97.8825L92.1225 97.7957L98.0425 104.836H94.5025ZM106.024 93.5957C107.344 93.5957 108.411 94.0157 109.224 94.8557C110.038 95.6824 110.444 96.8424 110.444 98.3357V104.836H107.644V98.7157C107.644 97.8357 107.424 97.1624 106.984 96.6957C106.544 96.2157 105.944 95.9757 105.184 95.9757C104.411 95.9757 103.798 96.2157 103.344 96.6957C102.904 97.1624 102.684 97.8357 102.684 98.7157V104.836H99.8842V93.7557H102.684V95.1357C103.058 94.6557 103.531 94.2824 104.104 94.0157C104.691 93.7357 105.331 93.5957 106.024 93.5957ZM118.027 105.016C116.96 105.016 116 104.782 115.147 104.316C114.294 103.836 113.62 103.162 113.127 102.296C112.647 101.429 112.407 100.429 112.407 99.2957C112.407 98.1624 112.654 97.1624 113.147 96.2957C113.654 95.429 114.34 94.7624 115.207 94.2957C116.074 93.8157 117.04 93.5757 118.107 93.5757C119.174 93.5757 120.14 93.8157 121.007 94.2957C121.874 94.7624 122.554 95.429 123.047 96.2957C123.554 97.1624 123.807 98.1624 123.807 99.2957C123.807 100.429 123.547 101.429 123.027 102.296C122.52 103.162 121.827 103.836 120.947 104.316C120.08 104.782 119.107 105.016 118.027 105.016ZM118.027 102.576C118.534 102.576 119.007 102.456 119.447 102.216C119.9 101.962 120.26 101.589 120.527 101.096C120.794 100.602 120.927 100.002 120.927 99.2957C120.927 98.2424 120.647 97.4357 120.087 96.8757C119.54 96.3024 118.867 96.0157 118.067 96.0157C117.267 96.0157 116.594 96.3024 116.047 96.8757C115.514 97.4357 115.247 98.2424 115.247 99.2957C115.247 100.349 115.507 101.162 116.027 101.736C116.56 102.296 117.227 102.576 118.027 102.576ZM141.221 93.7557L137.981 104.836H134.961L132.941 97.0957L130.921 104.836H127.881L124.621 93.7557H127.461L129.421 102.196L131.541 93.7557H134.501L136.581 102.176L138.541 93.7557H141.221ZM145.536 90.0357V104.836H142.736V90.0357H145.536ZM158.602 99.0557C158.602 99.4557 158.575 99.8157 158.522 100.136H150.422C150.489 100.936 150.769 101.562 151.262 102.016C151.755 102.469 152.362 102.696 153.082 102.696C154.122 102.696 154.862 102.249 155.302 101.356H158.322C158.002 102.422 157.389 103.302 156.482 103.996C155.575 104.676 154.462 105.016 153.142 105.016C152.075 105.016 151.115 104.782 150.262 104.316C149.422 103.836 148.762 103.162 148.282 102.296C147.815 101.429 147.582 100.429 147.582 99.2957C147.582 98.149 147.815 97.1424 148.282 96.2757C148.749 95.409 149.402 94.7424 150.242 94.2757C151.082 93.809 152.049 93.5757 153.142 93.5757C154.195 93.5757 155.135 93.8024 155.962 94.2557C156.802 94.709 157.449 95.3557 157.902 96.1957C158.369 97.0224 158.602 97.9757 158.602 99.0557ZM155.702 98.2557C155.689 97.5357 155.429 96.9624 154.922 96.5357C154.415 96.0957 153.795 95.8757 153.062 95.8757C152.369 95.8757 151.782 96.089 151.302 96.5157C150.835 96.929 150.549 97.509 150.442 98.2557H155.702ZM159.926 99.2557C159.926 98.1357 160.146 97.1424 160.586 96.2757C161.039 95.409 161.653 94.7424 162.426 94.2757C163.199 93.809 164.059 93.5757 165.006 93.5757C165.726 93.5757 166.413 93.7357 167.066 94.0557C167.719 94.3624 168.239 94.7757 168.626 95.2957V90.0357H171.466V104.836H168.626V103.196C168.279 103.742 167.793 104.182 167.166 104.516C166.539 104.849 165.813 105.016 164.986 105.016C164.053 105.016 163.199 104.776 162.426 104.296C161.653 103.816 161.039 103.142 160.586 102.276C160.146 101.396 159.926 100.389 159.926 99.2557ZM168.646 99.2957C168.646 98.6157 168.513 98.0357 168.246 97.5557C167.979 97.0624 167.619 96.689 167.166 96.4357C166.713 96.169 166.226 96.0357 165.706 96.0357C165.186 96.0357 164.706 96.1624 164.266 96.4157C163.826 96.669 163.466 97.0424 163.186 97.5357C162.919 98.0157 162.786 98.589 162.786 99.2557C162.786 99.9224 162.919 100.509 163.186 101.016C163.466 101.509 163.826 101.889 164.266 102.156C164.719 102.422 165.199 102.556 165.706 102.556C166.226 102.556 166.713 102.429 167.166 102.176C167.619 101.909 167.979 101.536 168.246 101.056C168.513 100.562 168.646 99.9757 168.646 99.2957ZM178.541 93.5757C179.367 93.5757 180.094 93.7424 180.721 94.0757C181.347 94.3957 181.841 94.8157 182.201 95.3357V93.7557H185.021V104.916C185.021 105.942 184.814 106.856 184.401 107.656C183.987 108.469 183.367 109.109 182.541 109.576C181.714 110.056 180.714 110.296 179.541 110.296C177.967 110.296 176.674 109.929 175.661 109.196C174.661 108.462 174.094 107.462 173.961 106.196H176.741C176.887 106.702 177.201 107.102 177.681 107.396C178.174 107.702 178.767 107.856 179.461 107.856C180.274 107.856 180.934 107.609 181.441 107.116C181.947 106.636 182.201 105.902 182.201 104.916V103.196C181.841 103.716 181.341 104.149 180.701 104.496C180.074 104.842 179.354 105.016 178.541 105.016C177.607 105.016 176.754 104.776 175.981 104.296C175.207 103.816 174.594 103.142 174.141 102.276C173.701 101.396 173.481 100.389 173.481 99.2557C173.481 98.1357 173.701 97.1424 174.141 96.2757C174.594 95.409 175.201 94.7424 175.961 94.2757C176.734 93.809 177.594 93.5757 178.541 93.5757ZM182.201 99.2957C182.201 98.6157 182.067 98.0357 181.801 97.5557C181.534 97.0624 181.174 96.689 180.721 96.4357C180.267 96.169 179.781 96.0357 179.261 96.0357C178.741 96.0357 178.261 96.1624 177.821 96.4157C177.381 96.669 177.021 97.0424 176.741 97.5357C176.474 98.0157 176.341 98.589 176.341 99.2557C176.341 99.9224 176.474 100.509 176.741 101.016C177.021 101.509 177.381 101.889 177.821 102.156C178.274 102.422 178.754 102.556 179.261 102.556C179.781 102.556 180.267 102.429 180.721 102.176C181.174 101.909 181.534 101.536 181.801 101.056C182.067 100.562 182.201 99.9757 182.201 99.2957ZM198.055 99.0557C198.055 99.4557 198.029 99.8157 197.975 100.136H189.875C189.942 100.936 190.222 101.562 190.715 102.016C191.209 102.469 191.815 102.696 192.535 102.696C193.575 102.696 194.315 102.249 194.755 101.356H197.775C197.455 102.422 196.842 103.302 195.935 103.996C195.029 104.676 193.915 105.016 192.595 105.016C191.529 105.016 190.569 104.782 189.715 104.316C188.875 103.836 188.215 103.162 187.735 102.296C187.269 101.429 187.035 100.429 187.035 99.2957C187.035 98.149 187.269 97.1424 187.735 96.2757C188.202 95.409 188.855 94.7424 189.695 94.2757C190.535 93.809 191.502 93.5757 192.595 93.5757C193.649 93.5757 194.589 93.8024 195.415 94.2557C196.255 94.709 196.902 95.3557 197.355 96.1957C197.822 97.0224 198.055 97.9757 198.055 99.0557ZM195.155 98.2557C195.142 97.5357 194.882 96.9624 194.375 96.5357C193.869 96.0957 193.249 95.8757 192.515 95.8757C191.822 95.8757 191.235 96.089 190.755 96.5157C190.289 96.929 190.002 97.509 189.895 98.2557H195.155Z" fill="#0B4870"/>
<path d="M173.463 44.6541L173.481 44.6661C173.481 48.0674 170.601 53.0886 169.447 54.9776C168.496 56.5377 167.742 60.1842 167.508 61.4037C167.278 61.323 167.025 61.281 166.758 61.281H155.238C155.008 61.281 154.783 61.3139 154.576 61.3765C154.312 60.1334 153.498 56.5257 152.553 54.9776C151.398 53.0885 148.518 48.0523 148.518 44.6511L148.537 44.648C148.525 44.4299 148.518 44.2116 148.518 43.9905C148.518 37.2089 154.139 31.7123 160.998 31.7123C167.997 31.7123 173.481 37.2089 173.481 43.9905C173.481 44.2118 173.475 44.4361 173.463 44.6541Z" fill="#FFBE55"/>
<path d="M168.669 62.9756V63.2656H153.331V62.9756C153.331 62.1657 153.85 61.5889 154.577 61.3765C154.783 61.3139 155.008 61.281 155.239 61.281H166.759C167.026 61.281 167.278 61.3228 167.509 61.4036C168.192 61.6366 168.669 62.1986 168.669 62.9756Z" fill="#D3D3D3"/>
<path d="M166.919 51.9648L166.196 53.5099L166.081 53.7581L165.577 54.831C165.568 54.855 165.556 54.8789 165.549 54.9058C165.531 54.9506 165.516 55.0014 165.504 55.0552C165.498 55.079 165.492 55.1089 165.486 55.1359C165.48 55.1627 165.473 55.1897 165.47 55.2165C165.464 55.2433 165.461 55.2703 165.458 55.2972C165.452 55.324 165.449 55.3479 165.449 55.3749C165.443 55.4259 165.44 55.4735 165.44 55.5124V61.2809H164.365V55.5126C164.365 55.1779 164.465 54.7892 164.607 54.4843L165.817 52.0126H164.374C164.34 52.0126 164.295 52.0126 164.249 52.0156C164.234 52.0156 164.219 52.0186 164.203 52.0217C164.191 52.0217 164.182 52.0247 164.173 52.0276C164.152 52.0336 164.134 52.0426 164.125 52.0545C164.115 52.0605 164.112 52.0636 164.109 52.0696V52.0726L163.086 53.7582C162.922 54.0361 162.66 54.1678 162.375 54.1559C162.089 54.1407 161.846 53.9555 161.706 53.6597L160.995 52.1473L160.294 53.6506C160.154 53.9436 159.911 54.1199 159.625 54.1319C159.337 54.1469 159.082 53.9914 158.915 53.7105L157.894 52.0726C157.854 52.0066 157.705 52.0127 157.63 52.0127H156.181L157.384 54.4875C157.526 54.7892 157.636 55.178 157.636 55.5127V61.2812H156.694V55.5126C156.694 55.3302 156.56 54.9953 156.481 54.8281L155.108 51.9557C154.977 51.6809 154.977 51.403 155.126 51.1696C155.278 50.9395 155.527 50.8199 155.837 50.8199H157.63C158.082 50.8199 158.577 51.086 158.805 51.4744L159.559 52.7387L160.3 51.1487C160.549 50.6166 160.643 50.4135 160.996 50.4135H160.999C161.023 50.4135 161.048 50.4135 161.072 50.4165C161.342 50.4433 161.446 50.6226 161.643 51.0469C161.661 51.08 161.677 51.1129 161.691 51.1456L162.05 51.9048L162.442 52.7417L163.195 51.4744C163.423 51.086 163.918 50.8199 164.374 50.8199H166.166C166.248 50.8199 166.324 50.829 166.397 50.8438C166.431 50.8528 166.461 50.8588 166.491 50.8706C166.522 50.8799 166.552 50.8916 166.579 50.9066C166.598 50.9125 166.616 50.9216 166.631 50.9334C166.655 50.9454 166.677 50.9574 166.695 50.9724C166.716 50.9842 166.737 50.9993 166.756 51.0201C166.78 51.041 166.804 51.065 166.829 51.092C166.85 51.1158 166.871 51.1427 166.889 51.1726C167.041 51.4059 167.05 51.6898 166.919 51.9648Z" fill="#2A94F4"/>
<path d="M168.658 70.0175C168.437 73.9747 165.159 77.1428 161 77.1428C156.975 77.1428 153.575 73.9748 153.344 70.0175H168.658Z" fill="#D3D3D3"/>
<path d="M168.67 65.6476H153.331V67.6323H168.67V65.6476Z" fill="#D3D3D3"/>
<path d="M169.745 63.7289V65.1487C169.745 65.4056 169.423 65.6477 169.159 65.6477H152.839C152.578 65.6477 152.389 65.4056 152.389 65.1487V63.7289C152.389 63.4719 152.578 63.2656 152.839 63.2656H169.159C169.423 63.2658 169.745 63.4719 169.745 63.7289Z" fill="#F2F2F2"/>
<path d="M169.745 68.0748V69.4914C169.745 69.7515 169.423 70.0175 169.159 70.0175H152.839C152.578 70.0175 152.389 69.7515 152.389 69.4914V68.0748C152.389 67.8147 152.578 67.6324 152.839 67.6324H169.159C169.423 67.6324 169.745 67.8147 169.745 68.0748Z" fill="#F2F2F2"/>
<path d="M161.067 26.9897C160.272 26.9897 159.655 26.3553 159.655 25.5728V21.417C159.655 20.6345 160.272 20 161.067 20C161.862 20 162.48 20.6345 162.48 21.417V25.5728C162.48 26.3553 161.862 26.9897 161.067 26.9897Z" fill="#F4C342"/>
<path d="M161.067 26.9897C160.272 26.9897 159.655 26.3553 159.655 25.5728V21.417C159.655 20.6345 160.272 20 161.067 20C161.862 20 162.48 20.6345 162.48 21.417V25.5728C162.48 26.3553 161.862 26.9897 161.067 26.9897Z" fill="#FFBE55"/>
<path d="M183.56 45.1294H179.336C178.541 45.1294 177.896 44.5217 177.896 43.7395C177.896 42.9567 178.541 42.3496 179.336 42.3496H183.56C184.355 42.3496 185 42.9567 185 43.7395C185 44.5217 184.355 45.1294 183.56 45.1294Z" fill="#F89B36"/>
<path d="M183.56 45.1294H179.336C178.541 45.1294 177.896 44.5217 177.896 43.7395C177.896 42.9567 178.541 42.3496 179.336 42.3496H183.56C184.355 42.3496 185 42.9567 185 43.7395C185 44.5217 184.355 45.1294 183.56 45.1294Z" fill="#FFBE55"/>
<path d="M142.664 45.1294H138.44C137.645 45.1294 137 44.5217 137 43.7395C137 42.9567 137.645 42.3496 138.44 42.3496H142.664C143.459 42.3496 144.104 42.9567 144.104 43.7395C144.104 44.5217 143.459 45.1294 142.664 45.1294Z" fill="#FFBE55"/>
<path d="M148.034 32.2732C147.666 32.2732 147.297 32.1349 147.016 31.8586L144.029 28.9199C143.467 28.3668 143.467 27.4695 144.029 26.9161C144.591 26.3628 145.503 26.3628 146.065 26.9161L149.053 29.8548C149.615 30.4077 149.615 31.305 149.053 31.8586C148.771 32.1349 148.403 32.2732 148.034 32.2732Z" fill="#FFBE55"/>
<path d="M173.965 32.2732C173.597 32.2732 173.228 32.1353 172.947 31.8586C172.385 31.3055 172.385 30.4085 172.947 29.8551L175.934 26.9161C176.496 26.3631 177.407 26.3628 177.97 26.9161C178.532 27.4694 178.532 28.3666 177.97 28.9199L174.983 31.8586C174.703 32.1353 174.334 32.2732 173.965 32.2732Z" fill="#F89B36"/>
<path d="M173.965 32.2732C173.597 32.2732 173.228 32.1353 172.947 31.8586C172.385 31.3055 172.385 30.4085 172.947 29.8551L175.934 26.9161C176.496 26.3631 177.407 26.3628 177.97 26.9161C178.532 27.4694 178.532 28.3666 177.97 28.9199L174.983 31.8586C174.703 32.1353 174.334 32.2732 173.965 32.2732Z" fill="#FFBE55"/>
</svg>
