<svg width="288" height="160" viewBox="0 0 288 160" fill="none" xmlns="http://www.w3.org/2000/svg">
<path d="M0 159.384H288V0H152.865V26H0V159.384Z" fill="#6FACB6"/>
<path d="M278.68 149V35.5673V7H159.379V20.6913V35H83.4175H7.4563L7.4563 92V149H142.136H176.155H210.175H278.68Z" fill="#89D2DE"/>
<path d="M7.4563 35L0 26H152.854L159.379 35H7.4563Z" fill="#C6E9F1"/>
<path d="M159.379 7L152.854 0H288L278.68 7H159.379Z" fill="#C6E9F1"/>
<path d="M52.2533 121.575C54.1533 121.575 55.795 121.933 57.1783 122.65C58.5783 123.35 59.645 124.358 60.3783 125.675C61.1283 126.992 61.5033 128.542 61.5033 130.325C61.5033 132.108 61.1283 133.658 60.3783 134.975C59.645 136.275 58.5783 137.275 57.1783 137.975C55.795 138.658 54.1533 139 52.2533 139H46.8283V121.575H52.2533ZM52.2533 137.125C54.5033 137.125 56.22 136.533 57.4033 135.35C58.5867 134.15 59.1783 132.475 59.1783 130.325C59.1783 128.158 58.5783 126.467 57.3783 125.25C56.195 124.033 54.4867 123.425 52.2533 123.425H49.1033V137.125H52.2533ZM65.6791 123.075C65.2458 123.075 64.8791 122.925 64.5791 122.625C64.2791 122.325 64.1291 121.958 64.1291 121.525C64.1291 121.092 64.2791 120.725 64.5791 120.425C64.8791 120.125 65.2458 119.975 65.6791 119.975C66.0958 119.975 66.4458 120.125 66.7291 120.425C67.0291 120.725 67.1791 121.092 67.1791 121.525C67.1791 121.958 67.0291 122.325 66.7291 122.625C66.4458 122.925 66.0958 123.075 65.6791 123.075ZM66.7791 125.3V139H64.5041V125.3H66.7791ZM76.3064 125.075C77.4898 125.075 78.5231 125.333 79.4064 125.85C80.3064 126.367 80.9731 127.017 81.4064 127.8V125.3H83.7064V139.3C83.7064 140.55 83.4398 141.658 82.9064 142.625C82.3731 143.608 81.6064 144.375 80.6064 144.925C79.6231 145.475 78.4731 145.75 77.1564 145.75C75.3564 145.75 73.8564 145.325 72.6564 144.475C71.4564 143.625 70.7481 142.467 70.5314 141H72.7814C73.0314 141.833 73.5481 142.5 74.3314 143C75.1148 143.517 76.0564 143.775 77.1564 143.775C78.4064 143.775 79.4231 143.383 80.2064 142.6C81.0064 141.817 81.4064 140.717 81.4064 139.3V136.425C80.9564 137.225 80.2898 137.892 79.4064 138.425C78.5231 138.958 77.4898 139.225 76.3064 139.225C75.0898 139.225 73.9814 138.925 72.9814 138.325C71.9981 137.725 71.2231 136.883 70.6564 135.8C70.0898 134.717 69.8064 133.483 69.8064 132.1C69.8064 130.7 70.0898 129.475 70.6564 128.425C71.2231 127.358 71.9981 126.533 72.9814 125.95C73.9814 125.367 75.0898 125.075 76.3064 125.075ZM81.4064 132.125C81.4064 131.092 81.1981 130.192 80.7814 129.425C80.3648 128.658 79.7981 128.075 79.0814 127.675C78.3814 127.258 77.6064 127.05 76.7564 127.05C75.9064 127.05 75.1314 127.25 74.4314 127.65C73.7314 128.05 73.1731 128.633 72.7564 129.4C72.3398 130.167 72.1314 131.067 72.1314 132.1C72.1314 133.15 72.3398 134.067 72.7564 134.85C73.1731 135.617 73.7314 136.208 74.4314 136.625C75.1314 137.025 75.9064 137.225 76.7564 137.225C77.6064 137.225 78.3814 137.025 79.0814 136.625C79.7981 136.208 80.3648 135.617 80.7814 134.85C81.1981 134.067 81.4064 133.158 81.4064 132.125ZM88.726 123.075C88.2926 123.075 87.926 122.925 87.626 122.625C87.326 122.325 87.176 121.958 87.176 121.525C87.176 121.092 87.326 120.725 87.626 120.425C87.926 120.125 88.2926 119.975 88.726 119.975C89.1426 119.975 89.4926 120.125 89.776 120.425C90.076 120.725 90.226 121.092 90.226 121.525C90.226 121.958 90.076 122.325 89.776 122.625C89.4926 122.925 89.1426 123.075 88.726 123.075ZM89.826 125.3V139H87.551V125.3H89.826ZM96.4783 127.175V135.25C96.4783 135.917 96.62 136.392 96.9033 136.675C97.1867 136.942 97.6783 137.075 98.3783 137.075H100.053V139H98.0033C96.7367 139 95.7867 138.708 95.1533 138.125C94.52 137.542 94.2033 136.583 94.2033 135.25V127.175H92.4283V125.3H94.2033V121.85H96.4783V125.3H100.053V127.175H96.4783ZM101.96 132.1C101.96 130.7 102.243 129.475 102.81 128.425C103.376 127.358 104.151 126.533 105.135 125.95C106.135 125.367 107.243 125.075 108.46 125.075C109.66 125.075 110.701 125.333 111.585 125.85C112.468 126.367 113.126 127.017 113.56 127.8V125.3H115.86V139H113.56V136.45C113.11 137.25 112.435 137.917 111.535 138.45C110.651 138.967 109.618 139.225 108.435 139.225C107.218 139.225 106.118 138.925 105.135 138.325C104.151 137.725 103.376 136.883 102.81 135.8C102.243 134.717 101.96 133.483 101.96 132.1ZM113.56 132.125C113.56 131.092 113.351 130.192 112.935 129.425C112.518 128.658 111.951 128.075 111.235 127.675C110.535 127.258 109.76 127.05 108.91 127.05C108.06 127.05 107.285 127.25 106.585 127.65C105.885 128.05 105.326 128.633 104.91 129.4C104.493 130.167 104.285 131.067 104.285 132.1C104.285 133.15 104.493 134.067 104.91 134.85C105.326 135.617 105.885 136.208 106.585 136.625C107.285 137.025 108.06 137.225 108.91 137.225C109.76 137.225 110.535 137.025 111.235 136.625C111.951 136.208 112.518 135.617 112.935 134.85C113.351 134.067 113.56 133.158 113.56 132.125ZM121.979 120.5V139H119.704V120.5H121.979ZM141.972 139L134.797 131.05V139H132.522V121.575H134.797V129.65L141.997 121.575H144.872L136.972 130.3L144.947 139H141.972ZM154.163 125.05C155.829 125.05 157.179 125.558 158.213 126.575C159.246 127.575 159.763 129.025 159.763 130.925V139H157.513V131.25C157.513 129.883 157.171 128.842 156.488 128.125C155.804 127.392 154.871 127.025 153.688 127.025C152.488 127.025 151.529 127.4 150.813 128.15C150.113 128.9 149.763 129.992 149.763 131.425V139H147.488V125.3H149.763V127.25C150.213 126.55 150.821 126.008 151.588 125.625C152.371 125.242 153.229 125.05 154.163 125.05ZM169.454 139.225C168.17 139.225 167.004 138.933 165.954 138.35C164.92 137.767 164.104 136.942 163.504 135.875C162.92 134.792 162.629 133.542 162.629 132.125C162.629 130.725 162.929 129.492 163.529 128.425C164.145 127.342 164.979 126.517 166.029 125.95C167.079 125.367 168.254 125.075 169.554 125.075C170.854 125.075 172.029 125.367 173.079 125.95C174.129 126.517 174.954 127.333 175.554 128.4C176.17 129.467 176.479 130.708 176.479 132.125C176.479 133.542 176.162 134.792 175.529 135.875C174.912 136.942 174.07 137.767 173.004 138.35C171.937 138.933 170.754 139.225 169.454 139.225ZM169.454 137.225C170.27 137.225 171.037 137.033 171.754 136.65C172.47 136.267 173.045 135.692 173.479 134.925C173.929 134.158 174.154 133.225 174.154 132.125C174.154 131.025 173.937 130.092 173.504 129.325C173.07 128.558 172.504 127.992 171.804 127.625C171.104 127.242 170.345 127.05 169.529 127.05C168.695 127.05 167.929 127.242 167.229 127.625C166.545 127.992 165.995 128.558 165.579 129.325C165.162 130.092 164.954 131.025 164.954 132.125C164.954 133.242 165.154 134.183 165.554 134.95C165.97 135.717 166.52 136.292 167.204 136.675C167.887 137.042 168.637 137.225 169.454 137.225ZM197.72 125.3L193.445 139H191.095L187.795 128.125L184.495 139H182.145L177.845 125.3H180.17L183.32 136.8L186.72 125.3H189.045L192.37 136.825L195.47 125.3H197.72ZM202.253 120.5V139H199.978V120.5H202.253ZM218.63 131.625C218.63 132.058 218.605 132.517 218.555 133H207.605C207.688 134.35 208.147 135.408 208.98 136.175C209.83 136.925 210.855 137.3 212.055 137.3C213.038 137.3 213.855 137.075 214.505 136.625C215.172 136.158 215.638 135.542 215.905 134.775H218.355C217.988 136.092 217.255 137.167 216.155 138C215.055 138.817 213.688 139.225 212.055 139.225C210.755 139.225 209.588 138.933 208.555 138.35C207.538 137.767 206.738 136.942 206.155 135.875C205.572 134.792 205.28 133.542 205.28 132.125C205.28 130.708 205.563 129.467 206.13 128.4C206.697 127.333 207.488 126.517 208.505 125.95C209.538 125.367 210.722 125.075 212.055 125.075C213.355 125.075 214.505 125.358 215.505 125.925C216.505 126.492 217.272 127.275 217.805 128.275C218.355 129.258 218.63 130.375 218.63 131.625ZM216.28 131.15C216.28 130.283 216.088 129.542 215.705 128.925C215.322 128.292 214.797 127.817 214.13 127.5C213.48 127.167 212.755 127 211.955 127C210.805 127 209.822 127.367 209.005 128.1C208.205 128.833 207.747 129.85 207.63 131.15H216.28ZM220.783 132.1C220.783 130.7 221.066 129.475 221.633 128.425C222.2 127.358 222.975 126.533 223.958 125.95C224.958 125.367 226.075 125.075 227.308 125.075C228.375 125.075 229.366 125.325 230.283 125.825C231.2 126.308 231.9 126.95 232.383 127.75V120.5H234.683V139H232.383V136.425C231.933 137.242 231.266 137.917 230.383 138.45C229.5 138.967 228.466 139.225 227.283 139.225C226.066 139.225 224.958 138.925 223.958 138.325C222.975 137.725 222.2 136.883 221.633 135.8C221.066 134.717 220.783 133.483 220.783 132.1ZM232.383 132.125C232.383 131.092 232.175 130.192 231.758 129.425C231.341 128.658 230.775 128.075 230.058 127.675C229.358 127.258 228.583 127.05 227.733 127.05C226.883 127.05 226.108 127.25 225.408 127.65C224.708 128.05 224.15 128.633 223.733 129.4C223.316 130.167 223.108 131.067 223.108 132.1C223.108 133.15 223.316 134.067 223.733 134.85C224.15 135.617 224.708 136.208 225.408 136.625C226.108 137.025 226.883 137.225 227.733 137.225C228.583 137.225 229.358 137.025 230.058 136.625C230.775 136.208 231.341 135.617 231.758 134.85C232.175 134.067 232.383 133.158 232.383 132.125ZM244.178 125.075C245.361 125.075 246.394 125.333 247.278 125.85C248.178 126.367 248.844 127.017 249.278 127.8V125.3H251.578V139.3C251.578 140.55 251.311 141.658 250.778 142.625C250.244 143.608 249.478 144.375 248.478 144.925C247.494 145.475 246.344 145.75 245.028 145.75C243.228 145.75 241.728 145.325 240.528 144.475C239.328 143.625 238.619 142.467 238.403 141H240.653C240.903 141.833 241.419 142.5 242.203 143C242.986 143.517 243.928 143.775 245.028 143.775C246.278 143.775 247.294 143.383 248.078 142.6C248.878 141.817 249.278 140.717 249.278 139.3V136.425C248.828 137.225 248.161 137.892 247.278 138.425C246.394 138.958 245.361 139.225 244.178 139.225C242.961 139.225 241.853 138.925 240.853 138.325C239.869 137.725 239.094 136.883 238.528 135.8C237.961 134.717 237.678 133.483 237.678 132.1C237.678 130.7 237.961 129.475 238.528 128.425C239.094 127.358 239.869 126.533 240.853 125.95C241.853 125.367 242.961 125.075 244.178 125.075ZM249.278 132.125C249.278 131.092 249.069 130.192 248.653 129.425C248.236 128.658 247.669 128.075 246.953 127.675C246.253 127.258 245.478 127.05 244.628 127.05C243.778 127.05 243.003 127.25 242.303 127.65C241.603 128.05 241.044 128.633 240.628 129.4C240.211 130.167 240.003 131.067 240.003 132.1C240.003 133.15 240.211 134.067 240.628 134.85C241.044 135.617 241.603 136.208 242.303 136.625C243.003 137.025 243.778 137.225 244.628 137.225C245.478 137.225 246.253 137.025 246.953 136.625C247.669 136.208 248.236 135.617 248.653 134.85C249.069 134.067 249.278 133.158 249.278 132.125ZM267.922 131.625C267.922 132.058 267.897 132.517 267.847 133H256.897C256.98 134.35 257.439 135.408 258.272 136.175C259.122 136.925 260.147 137.3 261.347 137.3C262.33 137.3 263.147 137.075 263.797 136.625C264.464 136.158 264.93 135.542 265.197 134.775H267.647C267.28 136.092 266.547 137.167 265.447 138C264.347 138.817 262.98 139.225 261.347 139.225C260.047 139.225 258.88 138.933 257.847 138.35C256.83 137.767 256.03 136.942 255.447 135.875C254.864 134.792 254.572 133.542 254.572 132.125C254.572 130.708 254.855 129.467 255.422 128.4C255.989 127.333 256.78 126.517 257.797 125.95C258.83 125.367 260.014 125.075 261.347 125.075C262.647 125.075 263.797 125.358 264.797 125.925C265.797 126.492 266.564 127.275 267.097 128.275C267.647 129.258 267.922 130.375 267.922 131.625ZM265.572 131.15C265.572 130.283 265.38 129.542 264.997 128.925C264.614 128.292 264.089 127.817 263.422 127.5C262.772 127.167 262.047 127 261.247 127C260.097 127 259.114 127.367 258.297 128.1C257.497 128.833 257.039 129.85 256.922 131.15H265.572Z" fill="#0B4870"/>
<path d="M244.13 54.2617L244.158 54.2808C244.158 59.6974 239.646 67.6937 237.837 70.7018C236.347 73.1863 235.167 78.9933 234.8 80.9354C234.439 80.807 234.044 80.7401 233.625 80.7401H215.576C215.214 80.7401 214.862 80.7925 214.538 80.8922C214.124 78.9124 212.849 73.1673 211.368 70.7018C209.559 67.6934 205.047 59.6733 205.047 54.2569L205.076 54.2521C205.057 53.9047 205.047 53.5571 205.047 53.2048C205.047 42.4052 213.853 33.6519 224.6 33.6519C235.567 33.6519 244.158 42.4052 244.158 53.2048C244.158 53.5573 244.149 53.9146 244.13 54.2617Z" fill="#FFBE55"/>
<path d="M236.619 83.4388V83.9006H212.587V83.4388C212.587 82.1489 213.401 81.2304 214.539 80.8922C214.863 80.7925 215.215 80.7401 215.577 80.7401H233.626C234.044 80.7401 234.439 80.8067 234.801 80.9354C235.872 81.3065 236.619 82.2013 236.619 83.4388Z" fill="#D3D3D3"/>
<path d="M233.877 65.9044L232.745 68.365L232.564 68.7602L231.774 70.4688C231.76 70.507 231.741 70.5451 231.731 70.5878C231.703 70.6593 231.679 70.7402 231.66 70.8259C231.65 70.8638 231.641 70.9113 231.631 70.9543C231.622 70.997 231.612 71.04 231.607 71.0827C231.598 71.1255 231.593 71.1684 231.588 71.2112C231.579 71.2539 231.574 71.292 231.574 71.335C231.564 71.4161 231.56 71.4919 231.56 71.5539V80.7403H229.875V71.5542C229.875 71.0212 230.032 70.4022 230.255 69.9167L232.15 65.9804H229.889C229.837 65.9804 229.765 65.9804 229.694 65.9852C229.67 65.9852 229.646 65.9901 229.622 65.9949C229.603 65.9949 229.589 65.9997 229.575 66.0043C229.541 66.014 229.513 66.0282 229.499 66.0473C229.484 66.0567 229.48 66.0618 229.475 66.0712V66.076L227.871 68.7604C227.614 69.2029 227.204 69.4127 226.757 69.3936C226.309 69.3695 225.929 69.0745 225.71 68.6035L224.596 66.195L223.496 68.589C223.278 69.0557 222.897 69.3364 222.449 69.3555C221.997 69.3794 221.597 69.1317 221.336 68.6844L219.736 66.076C219.674 65.971 219.441 65.9806 219.322 65.9806H217.052L218.937 69.9218C219.161 70.4022 219.332 71.0214 219.332 71.5544V80.7408H217.857V71.5542C217.857 71.2638 217.647 70.7305 217.523 70.4642L215.372 65.8899C215.167 65.4522 215.167 65.0097 215.401 64.638C215.638 64.2715 216.029 64.081 216.514 64.081H219.323C220.032 64.081 220.807 64.5049 221.165 65.1234L222.345 67.1367L223.506 64.6046C223.897 63.7573 224.044 63.4338 224.597 63.4338H224.601C224.64 63.4338 224.678 63.4338 224.716 63.4387C225.139 63.4814 225.301 63.767 225.611 64.4427C225.639 64.4953 225.663 64.5477 225.687 64.5998L226.248 65.8088L226.862 67.1416L228.043 65.1234C228.4 64.5049 229.176 64.081 229.889 64.081H232.698C232.826 64.081 232.945 64.0955 233.059 64.1192C233.112 64.1334 233.159 64.1431 233.207 64.1619C233.254 64.1766 233.302 64.1952 233.345 64.2191C233.373 64.2285 233.402 64.243 233.426 64.2619C233.464 64.2809 233.497 64.3 233.526 64.3239C233.559 64.3427 233.592 64.3669 233.621 64.3999C233.659 64.4333 233.697 64.4714 233.735 64.5144C233.769 64.5523 233.802 64.5952 233.831 64.6428C234.068 65.0143 234.082 65.4665 233.877 65.9044Z" fill="#2A94F4"/>
<path d="M236.6 94.6528C236.252 100.955 231.116 106 224.6 106C218.294 106 212.968 100.955 212.606 94.6528H236.6Z" fill="#D3D3D3"/>
<path d="M236.62 87.6938H212.588V90.8546H236.62V87.6938Z" fill="#D3D3D3"/>
<path d="M238.305 84.6384V86.8994C238.305 87.3085 237.8 87.6941 237.386 87.6941H211.817C211.407 87.6941 211.112 87.3085 211.112 86.8994V84.6384C211.112 84.2292 211.407 83.9006 211.817 83.9006H237.386C237.8 83.9009 238.305 84.2292 238.305 84.6384Z" fill="#F2F2F2"/>
<path d="M238.305 91.559V93.815C238.305 94.2292 237.8 94.6529 237.386 94.6529H211.817C211.407 94.6529 211.112 94.2292 211.112 93.815V91.559C211.112 91.1448 211.407 90.8546 211.817 90.8546H237.386C237.8 90.8546 238.305 91.1448 238.305 91.559Z" fill="#F2F2F2"/>
<path d="M224.709 26.1311C223.462 26.1311 222.495 25.1209 222.495 23.8747V17.2566C222.495 16.0105 223.462 15 224.709 15C225.954 15 226.922 16.0105 226.922 17.2566V23.8747C226.922 25.1209 225.954 26.1311 224.709 26.1311Z" fill="#F4C342"/>
<path d="M224.709 26.1311C223.462 26.1311 222.495 25.1209 222.495 23.8747V17.2566C222.495 16.0105 223.462 15 224.709 15C225.954 15 226.922 16.0105 226.922 17.2566V23.8747C226.922 25.1209 225.954 26.1311 224.709 26.1311Z" fill="#FFBE55"/>
<path d="M259.95 55.0185H253.331C252.085 55.0185 251.075 54.0507 251.075 52.8051C251.075 51.5585 252.085 50.5917 253.331 50.5917H259.95C261.196 50.5917 262.206 51.5585 262.206 52.8051C262.206 54.0507 261.196 55.0185 259.95 55.0185Z" fill="#F89B36"/>
<path d="M259.95 55.0185H253.331C252.085 55.0185 251.075 54.0507 251.075 52.8051C251.075 51.5585 252.085 50.5917 253.331 50.5917H259.95C261.196 50.5917 262.206 51.5585 262.206 52.8051C262.206 54.0507 261.196 55.0185 259.95 55.0185Z" fill="#FFBE55"/>
<path d="M195.874 55.0185H189.256C188.011 55.0185 187 54.0507 187 52.8051C187 51.5585 188.011 50.5917 189.256 50.5917H195.874C197.12 50.5917 198.131 51.5585 198.131 52.8051C198.131 54.0507 197.12 55.0185 195.874 55.0185Z" fill="#FFBE55"/>
<path d="M204.289 34.5451C203.711 34.5451 203.134 34.3249 202.693 33.8848L198.013 29.205C197.132 28.3241 197.132 26.8952 198.013 26.0139C198.894 25.1327 200.323 25.1327 201.204 26.0139L205.884 30.6937C206.765 31.5744 206.765 33.0032 205.884 33.8848C205.443 34.3249 204.866 34.5451 204.289 34.5451Z" fill="#FFBE55"/>
<path d="M244.916 34.5451C244.339 34.5451 243.762 34.3255 243.321 33.8849C242.44 33.004 242.44 31.5756 243.321 30.6943L248.001 26.0139C248.881 25.1333 250.31 25.1328 251.192 26.0139C252.073 26.8951 252.073 28.3239 251.192 29.2051L246.512 33.8849C246.072 34.3255 245.494 34.5451 244.916 34.5451Z" fill="#F89B36"/>
<path d="M244.916 34.5451C244.339 34.5451 243.762 34.3255 243.321 33.8849C242.44 33.004 242.44 31.5756 243.321 30.6943L248.001 26.0139C248.881 25.1333 250.31 25.1328 251.192 26.0139C252.073 26.8951 252.073 28.3239 251.192 29.2051L246.512 33.8849C246.072 34.3255 245.494 34.5451 244.916 34.5451Z" fill="#FFBE55"/>
</svg>
