<svg width="288" height="160" viewBox="0 0 288 160" fill="none" xmlns="http://www.w3.org/2000/svg">
<path d="M0 159.384H288V0H152.865V26H0V159.384Z" fill="#6FACB6"/>
<path d="M278.68 149V35.5673V7H159.379V20.6913V35H83.4175H7.4563L7.4563 92V149H142.136H176.155H210.175H278.68Z" fill="#89D2DE"/>
<path d="M7.4563 35L0 26H152.854L159.379 35H7.4563Z" fill="#C6E9F1"/>
<path d="M159.379 7L152.854 0H288L278.68 7H159.379Z" fill="#C6E9F1"/>
<path d="M53.2533 121.575C55.1533 121.575 56.795 121.933 58.1783 122.65C59.5783 123.35 60.645 124.358 61.3783 125.675C62.1283 126.992 62.5033 128.542 62.5033 130.325C62.5033 132.108 62.1283 133.658 61.3783 134.975C60.645 136.275 59.5783 137.275 58.1783 137.975C56.795 138.658 55.1533 139 53.2533 139H47.8283V121.575H53.2533ZM53.2533 137.125C55.5033 137.125 57.22 136.533 58.4033 135.35C59.5867 134.15 60.1783 132.475 60.1783 130.325C60.1783 128.158 59.5783 126.467 58.3783 125.25C57.195 124.033 55.4867 123.425 53.2533 123.425H50.1033V137.125H53.2533ZM66.6791 123.075C66.2458 123.075 65.8791 122.925 65.5791 122.625C65.2791 122.325 65.1291 121.958 65.1291 121.525C65.1291 121.092 65.2791 120.725 65.5791 120.425C65.8791 120.125 66.2458 119.975 66.6791 119.975C67.0958 119.975 67.4458 120.125 67.7291 120.425C68.0291 120.725 68.1791 121.092 68.1791 121.525C68.1791 121.958 68.0291 122.325 67.7291 122.625C67.4458 122.925 67.0958 123.075 66.6791 123.075ZM67.7791 125.3V139H65.5041V125.3H67.7791ZM77.3064 125.075C78.4898 125.075 79.5231 125.333 80.4064 125.85C81.3064 126.367 81.9731 127.017 82.4064 127.8V125.3H84.7064V139.3C84.7064 140.55 84.4398 141.658 83.9064 142.625C83.3731 143.608 82.6064 144.375 81.6064 144.925C80.6231 145.475 79.4731 145.75 78.1564 145.75C76.3564 145.75 74.8564 145.325 73.6564 144.475C72.4564 143.625 71.7481 142.467 71.5314 141H73.7814C74.0314 141.833 74.5481 142.5 75.3314 143C76.1148 143.517 77.0564 143.775 78.1564 143.775C79.4064 143.775 80.4231 143.383 81.2064 142.6C82.0064 141.817 82.4064 140.717 82.4064 139.3V136.425C81.9564 137.225 81.2898 137.892 80.4064 138.425C79.5231 138.958 78.4898 139.225 77.3064 139.225C76.0898 139.225 74.9814 138.925 73.9814 138.325C72.9981 137.725 72.2231 136.883 71.6564 135.8C71.0898 134.717 70.8064 133.483 70.8064 132.1C70.8064 130.7 71.0898 129.475 71.6564 128.425C72.2231 127.358 72.9981 126.533 73.9814 125.95C74.9814 125.367 76.0898 125.075 77.3064 125.075ZM82.4064 132.125C82.4064 131.092 82.1981 130.192 81.7814 129.425C81.3648 128.658 80.7981 128.075 80.0814 127.675C79.3814 127.258 78.6064 127.05 77.7564 127.05C76.9064 127.05 76.1314 127.25 75.4314 127.65C74.7314 128.05 74.1731 128.633 73.7564 129.4C73.3398 130.167 73.1314 131.067 73.1314 132.1C73.1314 133.15 73.3398 134.067 73.7564 134.85C74.1731 135.617 74.7314 136.208 75.4314 136.625C76.1314 137.025 76.9064 137.225 77.7564 137.225C78.6064 137.225 79.3814 137.025 80.0814 136.625C80.7981 136.208 81.3648 135.617 81.7814 134.85C82.1981 134.067 82.4064 133.158 82.4064 132.125ZM89.726 123.075C89.2926 123.075 88.926 122.925 88.626 122.625C88.326 122.325 88.176 121.958 88.176 121.525C88.176 121.092 88.326 120.725 88.626 120.425C88.926 120.125 89.2926 119.975 89.726 119.975C90.1426 119.975 90.4926 120.125 90.776 120.425C91.076 120.725 91.226 121.092 91.226 121.525C91.226 121.958 91.076 122.325 90.776 122.625C90.4926 122.925 90.1426 123.075 89.726 123.075ZM90.826 125.3V139H88.551V125.3H90.826ZM97.4783 127.175V135.25C97.4783 135.917 97.62 136.392 97.9033 136.675C98.1867 136.942 98.6783 137.075 99.3783 137.075H101.053V139H99.0033C97.7367 139 96.7867 138.708 96.1533 138.125C95.52 137.542 95.2033 136.583 95.2033 135.25V127.175H93.4283V125.3H95.2033V121.85H97.4783V125.3H101.053V127.175H97.4783ZM102.96 132.1C102.96 130.7 103.243 129.475 103.81 128.425C104.376 127.358 105.151 126.533 106.135 125.95C107.135 125.367 108.243 125.075 109.46 125.075C110.66 125.075 111.701 125.333 112.585 125.85C113.468 126.367 114.126 127.017 114.56 127.8V125.3H116.86V139H114.56V136.45C114.11 137.25 113.435 137.917 112.535 138.45C111.651 138.967 110.618 139.225 109.435 139.225C108.218 139.225 107.118 138.925 106.135 138.325C105.151 137.725 104.376 136.883 103.81 135.8C103.243 134.717 102.96 133.483 102.96 132.1ZM114.56 132.125C114.56 131.092 114.351 130.192 113.935 129.425C113.518 128.658 112.951 128.075 112.235 127.675C111.535 127.258 110.76 127.05 109.91 127.05C109.06 127.05 108.285 127.25 107.585 127.65C106.885 128.05 106.326 128.633 105.91 129.4C105.493 130.167 105.285 131.067 105.285 132.1C105.285 133.15 105.493 134.067 105.91 134.85C106.326 135.617 106.885 136.208 107.585 136.625C108.285 137.025 109.06 137.225 109.91 137.225C110.76 137.225 111.535 137.025 112.235 136.625C112.951 136.208 113.518 135.617 113.935 134.85C114.351 134.067 114.56 133.158 114.56 132.125ZM122.979 120.5V139H120.704V120.5H122.979ZM142.972 139L135.797 131.05V139H133.522V121.575H135.797V129.65L142.997 121.575H145.872L137.972 130.3L145.947 139H142.972ZM155.163 125.05C156.829 125.05 158.179 125.558 159.213 126.575C160.246 127.575 160.763 129.025 160.763 130.925V139H158.513V131.25C158.513 129.883 158.171 128.842 157.488 128.125C156.804 127.392 155.871 127.025 154.688 127.025C153.488 127.025 152.529 127.4 151.813 128.15C151.113 128.9 150.763 129.992 150.763 131.425V139H148.488V125.3H150.763V127.25C151.213 126.55 151.821 126.008 152.588 125.625C153.371 125.242 154.229 125.05 155.163 125.05ZM170.454 139.225C169.17 139.225 168.004 138.933 166.954 138.35C165.92 137.767 165.104 136.942 164.504 135.875C163.92 134.792 163.629 133.542 163.629 132.125C163.629 130.725 163.929 129.492 164.529 128.425C165.145 127.342 165.979 126.517 167.029 125.95C168.079 125.367 169.254 125.075 170.554 125.075C171.854 125.075 173.029 125.367 174.079 125.95C175.129 126.517 175.954 127.333 176.554 128.4C177.17 129.467 177.479 130.708 177.479 132.125C177.479 133.542 177.162 134.792 176.529 135.875C175.912 136.942 175.07 137.767 174.004 138.35C172.937 138.933 171.754 139.225 170.454 139.225ZM170.454 137.225C171.27 137.225 172.037 137.033 172.754 136.65C173.47 136.267 174.045 135.692 174.479 134.925C174.929 134.158 175.154 133.225 175.154 132.125C175.154 131.025 174.937 130.092 174.504 129.325C174.07 128.558 173.504 127.992 172.804 127.625C172.104 127.242 171.345 127.05 170.529 127.05C169.695 127.05 168.929 127.242 168.229 127.625C167.545 127.992 166.995 128.558 166.579 129.325C166.162 130.092 165.954 131.025 165.954 132.125C165.954 133.242 166.154 134.183 166.554 134.95C166.97 135.717 167.52 136.292 168.204 136.675C168.887 137.042 169.637 137.225 170.454 137.225ZM198.72 125.3L194.445 139H192.095L188.795 128.125L185.495 139H183.145L178.845 125.3H181.17L184.32 136.8L187.72 125.3H190.045L193.37 136.825L196.47 125.3H198.72ZM203.253 120.5V139H200.978V120.5H203.253ZM219.63 131.625C219.63 132.058 219.605 132.517 219.555 133H208.605C208.688 134.35 209.147 135.408 209.98 136.175C210.83 136.925 211.855 137.3 213.055 137.3C214.038 137.3 214.855 137.075 215.505 136.625C216.172 136.158 216.638 135.542 216.905 134.775H219.355C218.988 136.092 218.255 137.167 217.155 138C216.055 138.817 214.688 139.225 213.055 139.225C211.755 139.225 210.588 138.933 209.555 138.35C208.538 137.767 207.738 136.942 207.155 135.875C206.572 134.792 206.28 133.542 206.28 132.125C206.28 130.708 206.563 129.467 207.13 128.4C207.697 127.333 208.488 126.517 209.505 125.95C210.538 125.367 211.722 125.075 213.055 125.075C214.355 125.075 215.505 125.358 216.505 125.925C217.505 126.492 218.272 127.275 218.805 128.275C219.355 129.258 219.63 130.375 219.63 131.625ZM217.28 131.15C217.28 130.283 217.088 129.542 216.705 128.925C216.322 128.292 215.797 127.817 215.13 127.5C214.48 127.167 213.755 127 212.955 127C211.805 127 210.822 127.367 210.005 128.1C209.205 128.833 208.747 129.85 208.63 131.15H217.28ZM221.783 132.1C221.783 130.7 222.066 129.475 222.633 128.425C223.2 127.358 223.975 126.533 224.958 125.95C225.958 125.367 227.075 125.075 228.308 125.075C229.375 125.075 230.366 125.325 231.283 125.825C232.2 126.308 232.9 126.95 233.383 127.75V120.5H235.683V139H233.383V136.425C232.933 137.242 232.266 137.917 231.383 138.45C230.5 138.967 229.466 139.225 228.283 139.225C227.066 139.225 225.958 138.925 224.958 138.325C223.975 137.725 223.2 136.883 222.633 135.8C222.066 134.717 221.783 133.483 221.783 132.1ZM233.383 132.125C233.383 131.092 233.175 130.192 232.758 129.425C232.341 128.658 231.775 128.075 231.058 127.675C230.358 127.258 229.583 127.05 228.733 127.05C227.883 127.05 227.108 127.25 226.408 127.65C225.708 128.05 225.15 128.633 224.733 129.4C224.316 130.167 224.108 131.067 224.108 132.1C224.108 133.15 224.316 134.067 224.733 134.85C225.15 135.617 225.708 136.208 226.408 136.625C227.108 137.025 227.883 137.225 228.733 137.225C229.583 137.225 230.358 137.025 231.058 136.625C231.775 136.208 232.341 135.617 232.758 134.85C233.175 134.067 233.383 133.158 233.383 132.125ZM245.178 125.075C246.361 125.075 247.394 125.333 248.278 125.85C249.178 126.367 249.844 127.017 250.278 127.8V125.3H252.578V139.3C252.578 140.55 252.311 141.658 251.778 142.625C251.244 143.608 250.478 144.375 249.478 144.925C248.494 145.475 247.344 145.75 246.028 145.75C244.228 145.75 242.728 145.325 241.528 144.475C240.328 143.625 239.619 142.467 239.403 141H241.653C241.903 141.833 242.419 142.5 243.203 143C243.986 143.517 244.928 143.775 246.028 143.775C247.278 143.775 248.294 143.383 249.078 142.6C249.878 141.817 250.278 140.717 250.278 139.3V136.425C249.828 137.225 249.161 137.892 248.278 138.425C247.394 138.958 246.361 139.225 245.178 139.225C243.961 139.225 242.853 138.925 241.853 138.325C240.869 137.725 240.094 136.883 239.528 135.8C238.961 134.717 238.678 133.483 238.678 132.1C238.678 130.7 238.961 129.475 239.528 128.425C240.094 127.358 240.869 126.533 241.853 125.95C242.853 125.367 243.961 125.075 245.178 125.075ZM250.278 132.125C250.278 131.092 250.069 130.192 249.653 129.425C249.236 128.658 248.669 128.075 247.953 127.675C247.253 127.258 246.478 127.05 245.628 127.05C244.778 127.05 244.003 127.25 243.303 127.65C242.603 128.05 242.044 128.633 241.628 129.4C241.211 130.167 241.003 131.067 241.003 132.1C241.003 133.15 241.211 134.067 241.628 134.85C242.044 135.617 242.603 136.208 243.303 136.625C244.003 137.025 244.778 137.225 245.628 137.225C246.478 137.225 247.253 137.025 247.953 136.625C248.669 136.208 249.236 135.617 249.653 134.85C250.069 134.067 250.278 133.158 250.278 132.125ZM268.922 131.625C268.922 132.058 268.897 132.517 268.847 133H257.897C257.98 134.35 258.439 135.408 259.272 136.175C260.122 136.925 261.147 137.3 262.347 137.3C263.33 137.3 264.147 137.075 264.797 136.625C265.464 136.158 265.93 135.542 266.197 134.775H268.647C268.28 136.092 267.547 137.167 266.447 138C265.347 138.817 263.98 139.225 262.347 139.225C261.047 139.225 259.88 138.933 258.847 138.35C257.83 137.767 257.03 136.942 256.447 135.875C255.864 134.792 255.572 133.542 255.572 132.125C255.572 130.708 255.855 129.467 256.422 128.4C256.989 127.333 257.78 126.517 258.797 125.95C259.83 125.367 261.014 125.075 262.347 125.075C263.647 125.075 264.797 125.358 265.797 125.925C266.797 126.492 267.564 127.275 268.097 128.275C268.647 129.258 268.922 130.375 268.922 131.625ZM266.572 131.15C266.572 130.283 266.38 129.542 265.997 128.925C265.614 128.292 265.089 127.817 264.422 127.5C263.772 127.167 263.047 127 262.247 127C261.097 127 260.114 127.367 259.297 128.1C258.497 128.833 258.039 129.85 257.922 131.15H266.572Z" fill="#0B4870"/>
<circle cx="224.738" cy="57.0247" r="33.1634" fill="#EE9D3D"/>
<path d="M241.452 37.0547C240.716 36.6448 239.905 36.3842 239.068 36.2877C238.231 36.1911 237.383 36.2606 236.572 36.4922C235.762 36.7237 235.005 37.1127 234.345 37.637C233.685 38.1613 233.134 38.8105 232.725 39.5476L220.813 60.9857L213.995 54.1679C213.403 53.5551 212.695 53.0663 211.912 52.73C211.13 52.3937 210.288 52.2167 209.436 52.2093C208.584 52.2018 207.739 52.3642 206.95 52.6868C206.161 53.0095 205.445 53.4859 204.843 54.0884C204.24 54.6909 203.764 55.4073 203.441 56.1959C203.118 56.9845 202.956 57.8294 202.963 58.6814C202.971 59.5334 203.148 60.3754 203.484 61.1583C203.82 61.9411 204.309 62.6492 204.922 63.2411L217.755 76.0744C218.968 77.2904 220.604 77.9577 222.292 77.9577L223.181 77.8936C224.164 77.756 225.102 77.392 225.921 76.8303C226.74 76.2685 227.418 75.5244 227.9 74.6564L243.942 45.7814C244.351 45.0449 244.612 44.235 244.708 43.3978C244.805 42.5607 244.736 41.7127 244.504 40.9024C244.273 40.092 243.885 39.3351 243.361 38.675C242.837 38.0148 242.189 37.4642 241.452 37.0547V37.0547Z" fill="#FFE3CA"/>
</svg>
