<svg width="932" height="528" viewBox="0 0 932 528" fill="none" xmlns="http://www.w3.org/2000/svg">
<path d="M566.216 100.496C653.754 15.3101 824.796 51.9343 880.389 129.197C935.982 206.459 945.18 393.701 870.168 471.946C795.155 550.192 509.685 546.809 460.666 376C411.646 205.192 478.679 185.681 566.216 100.496Z" fill="url(#paint0_linear)" fill-opacity="0.7"/>
<path d="M80.6433 35.0095C135.305 -17.7379 242.142 4.97252 276.877 52.835C311.612 100.697 317.387 216.671 270.547 265.121C223.707 313.572 45.4038 311.433 14.76 205.632C-15.8837 99.8306 25.9811 87.7569 80.6433 35.0095Z" fill="url(#paint1_linear)" fill-opacity="0.7"/>
<defs>
<linearGradient id="paint0_linear" x1="881.5" y1="152.5" x2="550" y2="458" gradientUnits="userSpaceOnUse">
<stop offset="0.0497995" stop-color="#61E0D1"/>
<stop offset="0.416667" stop-color="#7FD5DB"/>
<stop offset="0.505208" stop-color="#86D2DD"/>
<stop offset="0.578125" stop-color="#90D8E0"/>
<stop offset="1" stop-color="#CBFAF4"/>
</linearGradient>
<linearGradient id="paint1_linear" x1="76" y1="54" x2="223.5" y2="286" gradientUnits="userSpaceOnUse">
<stop stop-color="#61E0D1"/>
<stop offset="0.338542" stop-color="#85D7DD"/>
<stop offset="0.505208" stop-color="#8ED5E0"/>
<stop offset="0.630208" stop-color="#9ADCE4"/>
<stop offset="0.901042" stop-color="#CBFAF4"/>
</linearGradient>
</defs>
</svg>
