<svg width="489" height="284" viewBox="0 0 489 284" fill="none" xmlns="http://www.w3.org/2000/svg">
<g clip-path="url(#clip0)">
<path opacity="0.11" d="M388.192 272.697C418.058 258.903 478.96 245.832 480.776 146.683C482.591 47.5343 348.218 -56.3374 247.74 37.2114C147.262 130.76 115.397 128.435 95.8132 119.383C35.2845 91.4055 -53.0874 160.56 19.5472 230.822C92.1817 301.084 358.326 286.49 388.192 272.697Z" fill="#2A94F4"/>
<path opacity="0.11" d="M239.473 284.163C361.968 284.163 461.27 277.156 461.27 268.513C461.27 259.871 361.968 252.864 239.473 252.864C116.977 252.864 17.6752 259.871 17.6752 268.513C17.6752 277.156 116.977 284.163 239.473 284.163Z" fill="#2A94F4"/>
<path d="M424.366 175.143H121.692C118.491 175.143 115.897 172.549 115.897 169.349V69.4977C115.897 66.298 118.491 63.7041 121.692 63.7041H424.366C427.567 63.7041 430.161 66.298 430.161 69.4977V169.349C430.161 172.549 427.566 175.143 424.366 175.143Z" fill="#FFBE55"/>
<path d="M428.434 75.387H117.624V186.826H428.434V75.387Z" fill="#D3D3D3"/>
<path opacity="0.73" d="M425.53 97.4055H120.528V208.844H425.53V97.4055Z" fill="#F7F7F7"/>
<path d="M422.626 119.424H123.432V230.863H422.626V119.424Z" fill="#F7F7F7"/>
<path d="M93.2355 252.904C93.2355 252.904 105.895 219.452 108.367 212.841C106.108 191.04 88.8806 172.321 88.8806 172.321C88.8806 172.321 84.4821 165.643 79.5205 166.425C78.0568 166.655 76.541 167.429 75.1567 168.647C73.9568 162.223 69.6877 157.153 58.8786 157.785C58.8786 157.785 42.62 172.467 46.2491 214.283C46.2231 222.35 31.8046 267.663 31.8046 267.663L53.4533 266.865L42.0626 260.548C42.0626 260.548 59.4851 227.184 63.543 219.266C67.6012 211.347 71.3329 192.172 71.3329 192.172C71.3329 192.172 71.5959 191.551 71.9868 190.492C77.4871 203.15 92.5203 215.59 92.5203 215.59L84.5563 259.733L104.474 259.077L93.2355 252.904Z" fill="#FFBE55"/>
<path d="M93.2354 252.904C93.2354 252.904 89.323 253.85 85.7627 253.047L84.5565 259.733L104.474 259.077L93.2354 252.904Z" fill="#0E538C"/>
<path d="M42.0624 260.548C42.0624 260.548 37.2515 261.982 33.9834 260.697C32.6744 264.929 31.8046 267.663 31.8046 267.663L53.4533 266.865L42.0624 260.548Z" fill="#0E538C"/>
<path d="M106.166 131.18C106.166 131.18 114.371 140.186 121.089 151.146C127.806 162.106 145.842 172.504 145.842 172.504C145.842 172.504 144.719 179.158 142.734 178.7C140.749 178.242 115.049 164.95 115.049 164.95C115.049 164.95 101.024 153.676 99.189 147.065C98.2029 143.093 100.832 132.283 106.166 131.18Z" fill="#0B4870"/>
<path d="M145.841 172.503L156.428 170.38L152.529 174.808L164.18 181.347C164.18 181.347 157.688 184.504 155.153 183.742C152.618 182.981 142.734 178.7 142.734 178.7C142.734 178.7 143.266 173.02 145.841 172.503Z" fill="#FFE9E3"/>
<path d="M74.4018 125.33C76.8274 121.749 81.3074 120.181 85.451 121.422C92.5926 123.56 103.983 127.463 106.172 131.158C109.41 136.62 102.495 151.317 94.5965 156.763C90.6978 159.796 88.8501 172.42 88.8501 172.42C88.8501 172.42 67.2424 173.715 58.7844 158.089C60.5196 154.988 67.5138 135.497 74.4018 125.33Z" fill="#0E538C"/>
<path d="M96.1401 119.652L90.8639 127.966C90.8639 127.966 90.38 132.331 95.0428 133.401C99.7061 134.47 101.053 131.928 101.053 131.928L102.527 121.061C102.527 121.061 98.3821 118.919 96.1401 119.652Z" fill="#EFACA5"/>
<path d="M113.104 113.337C113.104 113.337 111.906 124.104 109.039 125.78C106.173 127.457 101.329 126.792 94.2009 120.96C92.3403 118.385 96.6173 109.339 98.0766 108.023C107.627 99.4098 112.294 109.409 113.104 113.337Z" fill="#FAB9AF"/>
<path d="M118.233 114.785C113.799 115.033 108.388 113.738 105.229 110.926C103.31 109.217 101.168 110.111 100.825 111.548C100.483 112.986 100.932 116.904 99.1833 115.708C97.435 114.511 99.6855 112.011 97.6286 112.181C95.5718 112.351 95.5329 117.345 93.7938 116.967C92.055 116.589 89.0139 111.822 92.3335 109.862C95.6533 107.901 95.4022 105.301 94.3369 101.864C93.272 98.427 99.1818 95.155 101.771 98.2829C104.36 101.411 107.119 100.926 111.222 100.718C116.242 100.465 114.166 105.863 117.664 107.574C119.053 108.253 120.919 107.662 122.205 108.581C125.177 110.703 122.703 114.153 119.99 114.596C119.429 114.688 118.84 114.751 118.233 114.785Z" fill="#0B4870"/>
<path d="M308.866 138.043C308.866 142.042 303.929 145.285 297.839 145.285H126.924C120.834 145.285 115.897 148.527 115.897 152.526V272.737H430.161V138.043C430.161 134.043 425.224 130.801 419.134 130.801H319.893C313.803 130.801 308.866 134.043 308.866 138.043Z" fill="#FFBE55"/>
<path d="M117.666 178.204L128.854 178.301L124.057 181.905L132.429 192.41C132.429 192.41 125.677 192.306 123.898 192.073C122.119 191.84 115.2 184.771 114.702 182.66C114.203 180.549 114.917 178.18 117.666 178.204Z" fill="#EFACA5"/>
<path d="M75.7524 123.485C74.9909 124.101 74.6337 125.088 74.7563 126.06C75.4078 131.222 78.1338 149.92 84.1998 157.091C88.8298 163.139 106.47 176.53 112.593 181.098C113.9 182.073 115.776 181.799 116.7 180.456C116.713 180.436 116.727 180.416 116.74 180.397C117.476 179.307 117.352 177.85 116.476 176.869C112.488 172.399 100.52 159.011 97.6423 155.792C97.2357 155.337 96.9842 154.77 96.9203 154.164C96.5168 150.34 93.5784 136.079 92.456 129.72C90.6391 119.424 80.2058 119.881 75.7524 123.485Z" fill="#0E538C"/>
</g>
<defs>
<clipPath id="clip0">
<rect width="505" height="284" fill="white" transform="translate(-16)"/>
</clipPath>
</defs>
</svg>
