<svg width="67" height="68" viewBox="0 0 67 68" fill="none" xmlns="http://www.w3.org/2000/svg">
<circle cx="33.7376" cy="34.0248" r="33.1634" fill="#36971E"/>
<path d="M50.4524 14.0547C49.7158 13.6449 48.9057 13.3842 48.0683 13.2877C47.231 13.1912 46.3828 13.2607 45.5723 13.4922C44.7618 13.7237 44.0049 14.1127 43.3449 14.637C42.6849 15.1613 42.1347 15.8105 41.7257 16.5476L29.8132 37.9857L22.9955 31.168C22.4036 30.5551 21.6955 30.0663 20.9127 29.73C20.1298 29.3937 19.2878 29.2167 18.4358 29.2093C17.5838 29.2019 16.7389 29.3642 15.9503 29.6869C15.1617 30.0095 14.4453 30.486 13.8428 31.0884C13.2403 31.6909 12.7638 32.4074 12.4412 33.1959C12.1186 33.9845 11.9562 34.8295 11.9636 35.6815C11.971 36.5335 12.148 37.3755 12.4843 38.1583C12.8206 38.9412 13.3095 39.6492 13.9223 40.2411L26.7556 53.0745C27.9684 54.2904 29.6046 54.9578 31.2922 54.9578L32.1809 54.8936C33.1645 54.756 34.1026 54.392 34.9216 53.8303C35.7405 53.2685 36.4179 52.5244 36.9004 51.6564L52.9421 22.7814C53.3516 22.0449 53.6121 21.235 53.7086 20.3979C53.8052 19.5607 53.7359 18.7128 53.5047 17.9024C53.2735 17.0921 52.8849 16.3352 52.3612 15.675C51.8375 15.0148 51.1889 14.4642 50.4524 14.0547Z" fill="#7FD66A"/>
</svg>
