<svg width="162" height="149" viewBox="0 0 202 189" fill="none" xmlns="http://www.w3.org/2000/svg">
<path d="M197.764 137.489H3.76639C1.94126 137.489 0.427734 136.022 0.427734 134.154V3.4087C0.427734 1.58538 1.89674 0.0733643 3.76639 0.0733643H197.72C199.545 0.0733643 201.058 1.54091 201.058 3.4087V134.154C201.058 136.022 199.589 137.489 197.764 137.489Z" fill="#F5F5F5"/>
<path d="M191.532 10.1683H9.9541V127.483H191.532V10.1683Z" fill="#ECECEC"/>
<path d="M191.532 10.1683H9.9541V15.3715H191.532V10.1683Z" fill="#ECECEC"/>
<path d="M191.532 13.9039H9.9541V19.1071H191.532V13.9039Z" fill="#ECECEC"/>
<path d="M152.938 94.041H23.9321V98.666H152.938V94.041Z" fill="#F5F5F5"/>
<path d="M152.938 103.335H23.9321V107.96H152.938V103.335Z" fill="#F5F5F5"/>
<path d="M179.202 29.6912H23.9321V34.3162H179.202V29.6912Z" fill="#F5F5F5"/>
<path d="M179.202 38.9856H23.9321V43.6106H179.202V38.9856Z" fill="#F5F5F5"/>
<path d="M73.2997 49.1251H23.9321V88.5266H73.2997V49.1251Z" fill="#F5F5F5"/>
<path d="M179.246 72.2501H76.9941V76.5194H179.246V72.2501Z" fill="#F5F5F5"/>
<path d="M152.982 81.856H76.9941V86.2586H152.982V81.856Z" fill="#F5F5F5"/>
<path d="M179.246 49.0806H76.9941V53.3498H179.246V49.0806Z" fill="#F5F5F5"/>
<path d="M135.398 58.8197H76.9941V63.0889H135.398V58.8197Z" fill="#F5F5F5"/>
<path d="M151.735 145.894L152.314 135.132L158.146 135.888L156.988 147.228L151.424 146.25L151.735 145.894Z" fill="#FACBB6"/>
<path d="M157.789 144.471C157.789 144.471 153.872 146.472 151.735 143.493L141.229 149.141L159.258 149.007L157.789 144.471Z" fill="#004970"/>
<path d="M159.257 148.998L141.228 149.112L141.238 150.758L159.267 150.644L159.257 148.998Z" fill="#01384F"/>
<path d="M157.967 73.7175C157.967 73.7175 152.759 76.786 152.136 93.9074C151.513 111.029 150.444 139.846 150.444 139.846H159.214L163.71 83.9904L162.508 73.7175H157.967Z" fill="#01384F"/>
<path d="M166.871 145.894L166.292 135.132L172.079 135.888L172.124 147.228L166.559 146.25L166.871 145.894Z" fill="#FACBB6"/>
<path d="M172.925 144.471C172.925 144.471 169.008 146.472 166.871 143.493L156.366 149.141L174.394 149.007L172.925 144.471Z" fill="#004970"/>
<path d="M174.393 148.998L156.364 149.112L156.374 150.758L174.403 150.644L174.393 148.998Z" fill="#01384F"/>
<path d="M169.853 75.9411C169.853 75.9411 175.106 82.0336 174.349 92.6622L174.082 139.935L164.111 139.668L160.95 75.3185L169.853 75.9411Z" fill="#01384F"/>
<path d="M125.382 54.4615L136.6 65.0901C138.069 66.4687 140.428 66.113 141.408 64.3341L142.476 62.3329L127.341 51.3485L125.382 54.4615Z" fill="#FACBB6"/>
<path d="M127.564 52.9495C126.985 54.7283 125.071 55.7512 123.246 55.1286C121.465 54.5504 120.441 52.6382 121.064 50.8148C121.643 49.036 123.557 48.0131 125.382 48.6357C127.163 49.2583 128.142 51.1706 127.564 52.9495Z" fill="#FACBB6"/>
<path d="M125.16 48.5913L121.999 46.6346C121.732 46.4567 121.376 46.5012 121.198 46.768C121.02 46.9903 121.064 47.2572 121.242 47.435L124.225 50.1033L125.16 48.5913Z" fill="#FACBB6"/>
<path d="M138.292 60.2428L152.715 54.9062L152.047 61.7103C152.047 61.7103 144.257 65.0901 139.405 65.8462C134.508 66.6466 138.292 60.2428 138.292 60.2428Z" fill="#FACBB6"/>
<path d="M156.499 54.6394C156.499 54.6394 155.163 52.5937 151.78 54.0168C148.397 55.4399 142.12 57.53 142.12 57.53L147.551 66.8245L157.834 62.9555L156.499 54.6394Z" fill="#FABB58"/>
<path d="M170.254 52.5937L162.642 51.8822L153.115 53.6166C153.115 53.6166 152.492 67.3582 154.095 74.3846C154.362 75.6298 155.519 76.4748 156.766 76.3858L170.387 76.5637C170.387 76.5637 172.301 75.2296 172.346 72.3834L171.367 53.661C171.278 53.1274 170.832 52.6382 170.254 52.5937Z" fill="#FABB58"/>
<path d="M181.205 76.1635C181.16 75.8967 182.941 72.8726 182.941 72.8726L177.955 62.5553C177.243 60.5096 172.925 53.3498 171.144 54.595C169.853 55.5289 170.699 63.4892 171.367 64.9567L176.664 75.0517L181.205 76.1635Z" fill="#FACBB6"/>
<path d="M169.497 52.5048C169.497 52.5048 173.86 52.8161 175.596 55.4843C177.732 58.8641 181.472 64.3341 181.472 64.3341L170.254 68.5144L169.497 52.5048Z" fill="#FABB58"/>
<path d="M178.043 70.9602L165.802 79.7656L167.76 82.6117L181.026 76.8749C183.074 75.9855 183.697 73.3172 182.228 71.6273C181.16 70.4711 179.423 70.1598 178.043 70.9602Z" fill="#FACBB6"/>
<path d="M168.072 82.2113C168.072 82.2113 166.425 86.1692 163.265 85.769C159.659 85.3243 159.347 82.4337 160.994 81.8555L163.443 82.0334C163.443 82.0334 163.487 80.4325 165.001 79.7654C165.357 79.5875 165.802 79.4986 166.292 79.4541L168.072 82.2113Z" fill="#FACBB6"/>
<path d="M165.579 79.5874L162.196 80.21C161.973 80.2545 161.795 80.4324 161.795 80.6992C161.795 80.966 161.973 81.1439 162.241 81.1884L165.49 81.4552L165.579 79.5874Z" fill="#FACBB6"/>
<path d="M151.646 41.9651C152.67 41.0757 153.872 39.1635 153.872 39.1635L154.896 36.5397L158.145 37.4291L156.587 40.631L155.697 41.2536L162.241 48.8582C162.241 48.8582 157.522 53.4387 152.937 50.5481C149.109 48.1022 149.732 43.6106 151.646 41.9651Z" fill="#01384F"/>
<path d="M169.497 38.274C169.497 38.274 169.853 40.631 171.856 41.9652C173.86 43.2993 174.394 48.1022 170.565 50.5036C166.025 53.3942 161.262 48.8137 161.262 48.8137L169.497 38.274Z" fill="#01384F"/>
<path d="M156.632 33.9604C156.632 33.9604 165.802 30.0024 168.918 36.095C170.743 39.6527 168.562 45.9231 164.066 47.7019C159.792 49.3919 160.994 35.4279 160.994 35.4279L156.632 33.9604Z" fill="#01384F"/>
<path d="M158.457 48.4135L158.813 52.9495C158.947 54.5505 159.971 55.351 161.573 55.2176C162.909 55.0842 164.11 54.2837 164.2 52.9495L163.309 45.7897L158.457 48.4135Z" fill="#FACBB6"/>
<path d="M158.68 51.7043L163.977 46.9459L158.413 47.9688L158.68 51.7043Z" fill="#F6B7A0"/>
<path d="M159.837 49.125C157.122 49.1694 154.896 47.0793 154.762 44.9002L154.54 39.6971C154.406 36.9399 156.454 34.5829 159.214 34.3161C162.018 34.0937 165.001 36.1394 165.224 38.9411L165.357 43.1214C165.491 46.3678 163.087 48.8581 159.837 49.125Z" fill="#FACBB6"/>
<path d="M164.556 42.6767C164.556 42.6767 164.333 40.8089 162.775 39.875C161.217 38.9411 156.899 37.6069 157.344 34.2716C157.344 34.2716 164.021 32.3149 166.47 36.6731C168.918 41.0757 164.556 42.6767 164.556 42.6767Z" fill="#01384F"/>
<path d="M159.125 34.316C159.125 34.316 158.635 37.0288 154.406 38.8966C154.406 38.8966 153.338 36.8954 156.187 34.2716C156.454 34.0492 156.81 33.8713 157.166 33.8713H160.416L159.125 34.316Z" fill="#01384F"/>
<path d="M166.381 52.1935L162.152 51.7488L156.543 52.994C156.543 52.994 156.543 57.0408 161.128 56.774C165.624 56.4627 166.381 52.1935 166.381 52.1935Z" fill="#FACBB6"/>
<path d="M61.0127 99.6886V154.477" stroke="#01384F" stroke-width="1.9084" stroke-miterlimit="10"/>
<path d="M83.8049 98.1766H38.2656V101.201H83.8049V98.1766Z" fill="#01384F"/>
<path d="M71.1178 97.9987H48.593C47.9253 97.9987 47.3911 97.4651 47.3911 96.798C47.3911 96.131 47.9253 95.5973 48.593 95.5973H71.1178C71.7855 95.5973 72.3197 96.131 72.3197 96.798C72.3197 97.4651 71.7855 97.9987 71.1178 97.9987Z" fill="#FABB58"/>
<path d="M117.547 132.375V187.163" stroke="#01384F" stroke-width="1.9084" stroke-miterlimit="10"/>
<path d="M140.295 130.863H94.7559V133.887H140.295V130.863Z" fill="#01384F"/>
<path d="M127.653 130.685H105.128C104.46 130.685 103.926 130.151 103.926 129.484C103.926 128.817 104.46 128.284 105.128 128.284H127.653C128.321 128.284 128.855 128.817 128.855 129.484C128.81 130.151 128.276 130.685 127.653 130.685Z" fill="#FABB58"/>
<path d="M23.576 107.516L47.3027 108.138C51.3536 108.316 54.3361 111.918 53.7574 115.876C53.2677 119.211 50.4187 121.657 47.0356 121.657H18.8128C18.8128 121.657 8.66331 118.055 11.8239 109.294L23.576 107.516Z" fill="#01384F"/>
<path d="M48.2817 150.742L52.2436 152.698C52.6443 152.921 52.9113 153.366 52.7778 153.81C52.6888 154.166 52.3326 154.433 51.4423 154.433C49.4837 154.477 40.8032 153.188 40.8032 153.188V154.077L36.7968 153.632C36.7968 153.632 36.5297 149.052 37.7316 148.385L48.2817 150.742Z" fill="#01384F"/>
<path d="M41.9157 146.161L48.3259 150.742C48.3259 150.742 47.6582 152.476 44.6312 151.32C41.6041 150.164 37.8203 148.385 37.8203 148.385L38.3545 145.627L41.9157 146.161Z" fill="#DBA27C"/>
<path d="M37.7759 148.385L41.6042 131.041L48.0144 131.663L42.6281 147.806L37.7759 148.385Z" fill="#DBA27C"/>
<path d="M53.7574 115.876L48.4156 144.382H36.1738L40.8925 116.321L53.7574 115.876Z" fill="#01384F"/>
<path d="M24.7332 107.516L42.6283 108.138C46.6792 108.316 49.6618 111.918 49.0831 115.876C48.5934 119.211 45.7444 121.657 42.3612 121.657H14.1385C14.1385 121.657 3.98899 118.055 7.14958 109.294L24.7332 107.516Z" fill="#01384F"/>
<path d="M43.6074 150.742L47.5693 152.698C47.9699 152.921 48.237 153.366 48.1035 153.81C48.0144 154.166 47.6583 154.433 46.768 154.433C44.8093 154.477 36.1288 153.188 36.1288 153.188V154.077L32.1225 153.632C32.1225 153.632 31.8554 149.052 33.0573 148.385L43.6074 150.742Z" fill="#01384F"/>
<path d="M37.2414 146.161L43.6516 150.742C43.6516 150.742 42.9839 152.476 39.9568 151.32C36.9298 150.164 33.146 148.385 33.146 148.385L33.6802 145.627L37.2414 146.161Z" fill="#DBA27C"/>
<path d="M33.1016 148.385L36.9299 131.041L43.3401 131.663L37.9092 147.806L33.1016 148.385Z" fill="#DBA27C"/>
<path d="M49.0832 115.876L43.6968 144.382H31.4551L36.2182 116.321L49.0832 115.876Z" fill="#01384F"/>
<path d="M17.4328 124.548H13.6045V145.583H17.4328V124.548Z" fill="#01384F"/>
<path d="M14.5836 142.915L3.63281 147.895L3.76636 149.274L15.2068 145.583L14.5836 142.915Z" fill="#01384F"/>
<path d="M16.4533 142.915L27.4486 147.895L27.2705 149.274L15.8301 145.583L16.4533 142.915Z" fill="#01384F"/>
<path d="M4.1225 154.433C5.57302 154.433 6.7489 153.258 6.7489 151.809C6.7489 150.36 5.57302 149.185 4.1225 149.185C2.67198 149.185 1.49609 150.36 1.49609 151.809C1.49609 153.258 2.67198 154.433 4.1225 154.433Z" fill="#01384F"/>
<path d="M27.4487 154.433C28.8992 154.433 30.0751 153.258 30.0751 151.809C30.0751 150.36 28.8992 149.185 27.4487 149.185C25.9981 149.185 24.8223 150.36 24.8223 151.809C24.8223 153.258 25.9981 154.433 27.4487 154.433Z" fill="#01384F"/>
<path d="M26.2913 126.015H4.16717C2.96526 126.015 1.94141 125.037 1.94141 123.792C1.94141 122.591 2.92074 121.568 4.16717 121.568H26.3358C27.5377 121.568 28.5616 122.547 28.5616 123.792C28.5171 125.037 27.5377 126.015 26.2913 126.015Z" fill="#01384F"/>
<path d="M75.0354 158.479H71.207V179.514H75.0354V158.479Z" fill="#01384F"/>
<path d="M72.1861 176.846L61.2354 181.782L61.3689 183.205L72.8093 179.514L72.1861 176.846Z" fill="#01384F"/>
<path d="M74.0558 176.846L85.0511 181.782L84.8731 183.205L73.4326 179.514L74.0558 176.846Z" fill="#01384F"/>
<path d="M61.7255 188.32C63.1761 188.32 64.3519 187.145 64.3519 185.696C64.3519 184.247 63.1761 183.072 61.7255 183.072C60.275 183.072 59.0991 184.247 59.0991 185.696C59.0991 187.145 60.275 188.32 61.7255 188.32Z" fill="#01384F"/>
<path d="M85.0517 188.32C86.5022 188.32 87.6781 187.145 87.6781 185.696C87.6781 184.247 86.5022 183.072 85.0517 183.072C83.6012 183.072 82.4253 184.247 82.4253 185.696C82.4253 187.145 83.6012 188.32 85.0517 188.32Z" fill="#01384F"/>
<path d="M83.8944 159.947H61.7258C60.5239 159.947 59.5 158.969 59.5 157.723C59.5 156.523 60.4793 155.5 61.7258 155.5H83.8944C85.0963 155.5 86.1202 156.478 86.1202 157.723C86.1202 158.969 85.1408 159.947 83.8944 159.947Z" fill="#01384F"/>
<path d="M23.4422 82.0336L32.8349 94.7079C34.2149 96.5757 34.0369 99.1995 32.3453 100.845C30.2976 102.802 27.0034 102.535 25.3118 100.267L16.8984 88.8821L23.4422 82.0336Z" fill="#ECA646"/>
<path d="M40.9365 86.9699C40.9365 86.9699 43.1623 83.1454 46.8571 82.256C49.7506 81.5889 52.1099 85.6803 53.0447 87.5036C53.2673 87.9483 53.0002 88.4819 52.555 88.6153C52.2879 88.7043 51.9763 88.5709 51.7983 88.3485L50.7744 87.1033C50.7744 87.1033 50.9525 89.8605 48.4596 89.5937C45.9222 89.3269 45.121 88.4374 45.121 88.4374L42.3165 90.2608L40.9365 86.9699Z" fill="#DBA17B"/>
<path d="M27.4932 94.9302L41.1594 85.6802L44.8096 91.1946L30.6538 102.046L27.4932 94.9302Z" fill="#2A94F4"/>
<path d="M23.7982 79.3208C23.7982 79.3208 17.6551 81.7222 13.248 90.2607C8.841 98.7992 7.14941 109.339 7.14941 109.339C7.14941 109.339 15.2957 111.607 24.6885 107.56L28.0271 96.9314C28.0271 96.9314 30.9206 93.5071 28.0271 82.8785L23.7982 79.3208Z" fill="#2A94F4"/>
<path d="M45.0762 91.1502C45.0762 91.1502 48.1032 87.9038 51.9315 87.9038C54.9141 87.9038 56.2495 92.4399 56.7392 94.4411C56.8282 94.9303 56.4721 95.375 55.9824 95.375C55.6708 95.375 55.4037 95.1971 55.2702 94.9303L54.5579 93.4627C54.5579 93.4627 54.1128 96.22 51.709 95.375C49.3051 94.53 48.7264 93.4627 48.7264 93.4627L45.5658 94.5745L45.0762 91.1502Z" fill="#DBA17B"/>
<path d="M30.1636 95.7307L45.6104 89.905L47.8807 96.0865L31.5881 103.38L30.1636 95.7307Z" fill="#2A94F4"/>
<path d="M24.6438 83.4122L34.0365 96.0865C35.4165 97.9543 35.2384 100.578 33.5469 102.224C31.4991 104.18 28.205 103.913 26.5134 101.645L18.1445 90.3053L24.6438 83.4122Z" fill="#2A94F4"/>
<path d="M31.8552 73.4507L35.9952 73.5841C38.1764 75.8966 37.3751 80.3437 37.3751 80.3437L30.6533 78.387L31.8552 73.4507Z" fill="#01384F"/>
<path d="M32.3008 76.697L28.0718 82.8785L23.7983 79.3208L29.986 70.3376L32.3008 76.697Z" fill="#DBA17B"/>
<path d="M37.7312 64.3341C37.7312 64.3341 40.5357 65.6682 39.6454 69.4038C39.6454 69.4038 38.9777 72.1165 37.9538 75.9855C37.4196 78.0312 35.0603 79.143 33.1907 78.1646C32.0333 77.542 30.8314 76.6526 29.8965 75.3629L28.6501 73.2728C25.9792 67.6694 31.6772 61.6213 37.3306 64.1117C37.4641 64.2007 37.5977 64.2451 37.7312 64.3341Z" fill="#DBA17B"/>
<path d="M38.1766 73.1394L39.1559 74.7849C39.2895 75.0072 39.1114 75.2741 38.8443 75.2296L37.4644 75.0072L38.1766 73.1394Z" fill="#DBA17B"/>
<path d="M31.8998 69.804C31.8998 69.804 32.7456 60.2872 39.4675 66.2019C39.4675 66.2019 37.8649 60.4206 30.1637 61.399C28.5612 61.6213 26.558 62.911 25.8457 64.3786C24.6883 66.7355 25.4451 69.2704 26.558 73.8064L30.0302 71.5384C30.3863 71.0047 31.8998 69.804 31.8998 69.804Z" fill="#01384F"/>
<path d="M30.1641 66.4688L30.6537 70.6046C41.5155 70.3823 38.3104 64.4231 38.3104 64.4231C38.3104 64.4231 30.9208 59.7092 30.1641 66.4688Z" fill="#01384F"/>
<path d="M34.6154 69.6705L32.6567 71.3604L31.5884 68.4253L34.6154 69.6705Z" fill="#01384F"/>
<path d="M36.7077 64.5119C36.7077 64.5119 39.9573 66.0684 39.7792 68.5588C39.7792 68.5588 43.2514 66.5575 38.0431 63.8003C34.927 62.1549 36.7077 64.5119 36.7077 64.5119Z" fill="#01384F"/>
<path d="M30.6535 71.7607C30.6535 71.7607 28.6948 76.0744 28.6503 77.8088L20.4595 74.9627C20.4595 74.9627 22.8633 72.4723 23.6201 70.2487C24.2433 68.4699 24.5104 64.1562 28.0716 62.1995L27.8936 67.9362L30.6535 71.7607Z" fill="#01384F"/>
<path d="M28.7395 70.2486C28.3388 71.316 28.873 72.4722 29.9414 72.8724C31.0098 73.2727 32.1672 72.739 32.5678 71.6717C32.9684 70.6044 32.4342 69.4482 31.3659 69.0479C30.342 68.6477 29.1401 69.1813 28.7395 70.2486Z" fill="#DBA17B"/>
<path d="M23.7983 79.3208C23.7983 79.3208 25.0893 83.1453 28.4725 84.5684L27.4931 80.3436L23.7983 79.3208Z" fill="#DBA17B"/>
<path d="M81.4903 103.647C81.4903 103.647 79.0865 108.183 77.7065 112.23C77.0388 114.142 81.6239 117.477 81.8464 117.433C82.1135 117.388 82.3361 117.21 82.3806 116.899C82.6922 114.809 83.4935 111.162 85.6748 108.716L81.4903 103.647Z" fill="#F6B7A0"/>
<path d="M79.3091 106.181C80.1994 108.894 82.5142 111.474 84.7845 111.429C87.2773 111.385 89.3695 109.428 90.3934 107.071C90.3934 107.071 90.4379 107.071 90.4824 107.071C90.794 107.071 91.6398 107.071 91.7289 106.804C91.8179 106.537 91.1947 103.824 91.1947 103.335C91.2392 102.09 91.2392 100.978 91.1056 100.044C90.616 95.7752 88.5683 94.5745 86.0754 94.3966C83.9387 94.2632 81.4013 96.7091 79.9323 99.4218C79.7097 99.8665 78.2407 102.891 79.3091 106.181Z" fill="#F6B7A0"/>
<path d="M95.1567 102.134C93.3761 103.157 91.1504 102.046 89.6814 100.978C89.5478 100.889 89.4143 100.8 89.2807 100.711C87.6336 99.733 85.4524 100.4 84.473 102.046C83.8943 102.979 83.3157 104.18 83.2266 105.336C83.1376 107.115 80.0215 108.716 78.7751 106.003C77.6622 103.513 77.039 100.044 79.0422 95.5972C79.3538 94.8857 79.7544 94.3076 80.4221 93.9073C79.977 94.7967 80.2441 95.1525 80.2886 95.3749C80.4667 94.9746 81.1344 93.8184 82.1137 93.2847C83.1821 92.7066 84.384 92.2619 85.6304 92.2174C85.2298 92.4398 84.9627 92.5732 84.9182 93.0179C84.9182 93.0179 86.3427 92.3508 87.3665 92.3508C89.4588 92.3953 90.9278 93.4181 91.9961 94.7967C92.5748 95.5083 93.1536 96.9314 93.8658 97.554C94.6226 98.1766 95.6019 98.4879 96.6703 98.31C97.3825 100.089 96.4032 101.467 95.1567 102.134Z" fill="#01384F"/>
<path d="M84.6956 103.469C85.0962 104.491 84.8736 105.514 84.1614 105.781C83.4937 106.048 82.6034 105.425 82.2027 104.447C81.8021 103.424 82.0247 102.401 82.7369 102.134C83.4491 101.823 84.2949 102.446 84.6956 103.469Z" fill="#F6B7A0"/>
<path d="M101.122 154.166L88.9249 182.538L86.2095 182.094L93.6881 153.232L101.122 154.166Z" fill="#01384F"/>
<path d="M86.2093 182.094L88.9247 182.538L89.5034 184.362C89.5034 184.362 97.6942 183.65 98.2729 187.163L92.6195 187.519C91.373 187.608 90.1266 187.43 88.9247 187.074L86.0312 186.185C85.319 185.963 84.9183 185.162 85.2299 184.451L86.2093 182.094Z" fill="#004970"/>
<path d="M78.9086 144.649L102.546 146.962C108.333 147.54 112.384 153.01 111.182 158.702C109.001 169.286 105.974 183.961 105.974 184.184C105.974 184.54 103.348 184.184 103.348 184.184L102.724 156.123L77.3951 155.633C74.19 155.589 71.7861 152.654 72.4094 149.496C72.9435 146.472 75.7925 144.338 78.9086 144.649Z" fill="#01384F"/>
<path d="M103.303 183.828H105.929V185.429C105.929 185.429 114.966 184.851 115.055 187.653H104.193C103.703 187.653 103.303 187.252 103.303 186.763V183.828Z" fill="#004970"/>
<path d="M70.05 114.186C69.2487 114.853 68.5365 115.698 67.8242 116.588C65.0198 120.368 63.5953 125.393 63.7288 130.641C64.174 148.74 68.8481 157.101 77.9737 155.233C81.9801 154.433 84.562 149.808 83.6717 144.871C82.3808 137.623 83.8498 130.285 87.6336 124.815C88.969 122.903 88.9245 120.056 87.5891 117.966C86.3872 116.054 83.2266 113.475 83.2266 113.475L77.9737 111.162C78.0183 111.207 72.8545 111.785 70.05 114.186Z" fill="#2A94F4"/>
<path d="M115.812 122.947L115.99 123.881L115.144 123.614L106.33 114.853C106.152 114.675 106.152 114.364 106.33 114.186C106.508 114.008 106.82 114.008 106.998 114.186L115.812 122.947Z" fill="#01384F"/>
<path d="M96.0022 124.459C95.201 125.704 93.4649 128.728 93.8655 131.397C89.9927 130.818 86.2089 129.217 82.9593 126.549C80.9561 124.904 78.5968 122.858 77.5284 121.613C75.8368 119.701 75.1246 117.077 75.7478 114.586C76.5045 111.562 78.5522 110.851 82.336 113.074C83.5825 113.786 84.6954 114.675 85.6747 115.698L91.3281 121.302C92.7081 122.68 94.3107 123.748 96.0022 124.459Z" fill="#2A94F4"/>
<path d="M115.233 119.745C114.076 118.233 113.096 117.433 112.473 118.011C112.028 118.367 111.761 118.9 111.761 119.701L110.87 120.457C110.559 120.724 110.514 121.168 110.737 121.524C110.87 121.746 111.093 121.969 111.449 122.236L110.959 122.68C108.289 124.726 105.083 125.704 101.923 125.704C100.988 125.704 100.098 125.615 99.2074 125.437C98.1835 127.394 98.3616 129.751 98.7622 131.619C103.926 131.263 109.001 129.04 112.785 124.948C112.963 124.77 113.141 124.593 113.274 124.37C113.586 123.97 113.942 123.614 114.298 123.303C115.01 122.636 116.346 121.213 115.233 119.745Z" fill="#F6B7A0"/>
<path d="M98.6734 131.574C97.0709 131.708 95.4684 131.619 93.8658 131.397C93.4652 128.728 95.2013 125.704 96.0025 124.459C97.0264 124.904 98.0502 125.215 99.1186 125.393C98.0947 127.394 98.2728 129.707 98.6734 131.574Z" fill="#2A94F4"/>
</svg>
