<svg width="207" height="119" viewBox="0 0 247 159" fill="none" xmlns="http://www.w3.org/2000/svg">
<path opacity="0.31" d="M237.516 144.641C237.036 144.648 234.086 140.703 233.52 140.157C228.9 135.685 226.127 130.772 224.044 125.427C222.456 121.352 221.271 117.024 219.978 112.457C219.105 109.376 217.698 105.933 214.649 104.961C211.683 104.018 208.488 105.975 206.665 108.496C204.839 111.018 203.921 114.076 202.361 116.77C199.532 121.651 194.523 123.696 190.382 119.406C184.468 113.276 181.804 104.917 178.053 97.4408C175.331 92.0132 173.051 85.6582 169.621 80.6529C164.39 73.0243 157.216 66.5168 147.678 66.5168C141.631 67.4315 136.305 72.7893 132.698 79.481C129.093 86.1727 126.987 94.1347 125.196 102.075C123.694 108.734 122.376 115.467 121.156 122.235C118.889 114.08 116.529 105.984 113.975 98.0284C111.209 89.4121 108.154 80.8276 103.911 73.9326C99.6679 67.0377 94.0497 61.953 88.4092 61.988C79.7167 63.6712 74.108 72.2526 70.4303 81.7613C68.0198 87.9956 66.8511 95.548 65.1424 102.135C62.7922 111.208 61.56 121.079 57.0438 129.022C53.8837 134.58 49.0246 133.164 45.7502 128.168C43.9431 125.411 42.6695 122.134 40.6465 119.618C38.6234 117.103 35.4316 115.464 32.8655 117.049C30.2263 118.678 29.4355 122.804 29.0798 126.421C28.5526 131.792 28.0921 136.867 27.225 141.732C27.0376 142.793 26.828 143.841 26.5962 144.88H117.351C117.288 145.267 117.224 145.658 117.164 146.045L237.516 144.641Z" fill="#DCE6EF"/>
<path opacity="0.77" d="M201.202 132.306C200.967 136.984 195.876 145.162 191.198 144.927C186.52 144.692 184.024 136.13 184.262 131.452C184.497 126.774 189.48 103.361 194.158 103.599C198.833 103.834 201.437 127.628 201.202 132.306Z" fill="#FFBE55"/>
<path d="M191.573 144.676C191.57 144.676 191.566 144.676 191.566 144.676C191.5 144.673 191.446 144.613 191.452 144.546L193.812 106.632C193.815 106.565 193.869 106.508 193.942 106.518C194.009 106.521 194.063 106.581 194.056 106.648L191.697 144.562C191.69 144.626 191.636 144.676 191.573 144.676Z" fill="#0B4870"/>
<path opacity="0.77" d="M190.493 131.331C189.429 133.672 188.616 136.127 188.127 138.687C187.879 139.982 187.721 141.389 188.308 142.574C188.95 143.866 190.372 144.619 191.795 144.854C195.273 145.426 198.751 143.295 200.789 140.421C202.828 137.546 203.711 134.031 204.521 130.604C205.16 127.904 205.785 125.163 206.989 122.648C207.503 121.568 210.524 117.405 209.094 116.325C207.141 114.791 201.488 116.458 197.868 120.415C194.882 123.668 192.316 127.329 190.493 131.331Z" fill="#FFBE55"/>
<path d="M191.796 144.975C191.786 144.975 191.777 144.975 191.764 144.972C191.697 144.956 191.659 144.886 191.675 144.822C191.716 144.657 196.001 128.336 206.046 119.043C206.097 118.999 206.173 118.999 206.221 119.05C206.268 119.101 206.265 119.177 206.214 119.224C196.22 128.466 191.958 144.721 191.916 144.883C191.904 144.94 191.853 144.975 191.796 144.975Z" fill="#0B4870"/>
<path opacity="0.77" d="M215.085 127.479C214.726 128.123 214.052 128.562 213.439 128.905C212.687 129.33 211.883 129.702 211.105 130.064C210.108 130.528 209.079 131.007 208.126 131.604C207.434 132.039 206.817 132.532 206.3 133.059C207.116 131.204 208.072 129.584 209.196 128.136C210.676 126.231 212.194 125.265 213.716 125.265C213.751 125.265 213.786 125.265 213.82 125.268C214.291 125.281 214.656 125.399 214.907 125.614C215.424 126.056 215.402 126.907 215.085 127.479Z" fill="#FFBE55"/>
<path opacity="0.77" d="M216.78 138.045C216.18 138.474 215.383 138.582 214.684 138.633C213.82 138.693 212.934 138.687 212.08 138.684C210.981 138.677 209.844 138.668 208.729 138.801C207.916 138.899 207.147 139.081 206.455 139.335C207.986 138.007 209.542 136.949 211.178 136.124C213.331 135.034 215.116 134.812 216.491 135.463C216.523 135.479 216.554 135.495 216.586 135.511C217.005 135.724 217.285 135.984 217.421 136.289C217.695 136.905 217.31 137.667 216.78 138.045Z" fill="#FFBE55"/>
<path opacity="0.77" d="M212.778 143.247C212.28 143.177 211.832 142.86 211.46 142.555C211.003 142.18 210.565 141.764 210.142 141.357C209.599 140.84 209.037 140.303 208.421 139.846C207.97 139.512 207.503 139.242 207.04 139.045C208.424 139.103 209.691 139.306 210.895 139.662C212.477 140.128 213.468 140.856 213.845 141.821C213.855 141.843 213.861 141.866 213.871 141.888C213.979 142.19 213.995 142.45 213.922 142.666C213.769 143.107 213.22 143.307 212.778 143.247Z" fill="#FFBE55"/>
<path d="M201.396 145.07C201.333 145.064 201.272 145.016 201.272 144.946C201.272 144.845 201.46 134.783 213.586 126.351C213.643 126.313 213.719 126.326 213.757 126.383C213.795 126.44 213.782 126.516 213.725 126.554C201.704 134.914 201.517 144.848 201.517 144.946C201.52 145.013 201.466 145.07 201.396 145.07Z" fill="#0B4870"/>
<path d="M201.397 145.07C201.377 145.07 201.362 145.067 201.343 145.057C201.279 145.029 201.254 144.956 201.282 144.892C201.32 144.813 205.182 136.787 215.31 136.787C215.38 136.787 215.434 136.841 215.434 136.911C215.434 136.981 215.38 137.035 215.31 137.035C205.344 137.035 201.543 144.918 201.508 144.997C201.489 145.042 201.444 145.07 201.397 145.07Z" fill="#0B4870"/>
<path d="M213.007 142.228C212.981 142.228 212.956 142.218 212.934 142.202C208.926 139.179 206.954 139.268 206.938 139.271C206.868 139.277 206.811 139.223 206.804 139.157C206.801 139.09 206.852 139.03 206.919 139.023C207.001 139.014 208.98 138.912 213.083 142.005C213.137 142.047 213.15 142.123 213.108 142.18C213.083 142.209 213.045 142.228 213.007 142.228Z" fill="#0B4870"/>
<path d="M57.8698 130.302C56.1072 128.266 53.8745 126.513 53.1694 123.944C52.6549 122.067 53.0615 120.082 53.2616 118.148C53.4616 116.214 53.3918 114.073 52.1405 112.587C51.1083 111.361 49.479 110.827 47.9133 110.491C46.3476 110.154 44.712 109.941 43.3209 109.144C41.0628 107.848 41.5138 105.647 40.3006 103.717C38.9413 101.551 35.7749 98.7843 33.0627 100.223C30.1916 101.747 30.6458 106.375 32.5545 108.417C33.8217 109.773 35.4446 111.072 35.632 112.92C35.9115 115.699 32.7292 118.202 33.6026 120.857C34.2505 122.817 36.7182 123.49 37.9409 125.154C39.1477 126.802 38.9032 129.108 38.195 131.023C37.4835 132.938 36.3656 134.707 35.9242 136.698C35.019 140.776 38.2204 143.593 41.8663 144.505C45.2169 145.34 52.4422 144.946 52.4422 144.946C55.021 144.044 57.8794 141.78 59.299 139.303C60.3693 137.432 60.5185 135.063 59.6896 133.072C59.2609 132.049 58.6066 131.15 57.8698 130.302Z" fill="#FFBE55"/>
<path d="M49.9555 144.965C49.892 144.965 49.8348 144.915 49.8316 144.848C48.5073 123.96 36.2958 104.879 36.172 104.688C36.1339 104.631 36.1498 104.555 36.2101 104.517C36.2673 104.479 36.3435 104.495 36.3816 104.555C36.5055 104.745 48.7518 123.884 50.0825 144.832C50.0857 144.899 50.0349 144.959 49.9682 144.962C49.9618 144.965 49.9587 144.965 49.9555 144.965Z" fill="#0B4870"/>
<path d="M25.2872 130.327C25.4778 130.165 25.7541 130.077 26.1098 130.067C26.1352 130.067 26.1638 130.067 26.1892 130.067C27.3357 130.067 28.4854 130.797 29.6065 132.236C30.4576 133.332 31.1786 134.558 31.7947 135.958C31.4041 135.558 30.9372 135.187 30.4132 134.859C29.6954 134.409 28.9141 134.046 28.1614 133.694C27.5739 133.421 26.9673 133.138 26.3988 132.817C25.9351 132.557 25.427 132.223 25.1538 131.738C24.9125 131.306 24.8966 130.661 25.2872 130.327Z" fill="#FFBE55"/>
<path d="M23.3885 138.398C23.4901 138.169 23.7029 137.972 24.0205 137.81C24.0427 137.797 24.0681 137.788 24.0904 137.775C25.1289 137.283 26.4787 137.451 28.1079 138.274C29.3465 138.899 30.5216 139.7 31.6808 140.703C31.1568 140.51 30.5756 140.373 29.9627 140.3C29.1179 140.198 28.2604 140.205 27.4283 140.211C26.7804 140.214 26.1103 140.221 25.4592 140.173C24.9288 140.135 24.3286 140.052 23.8744 139.728C23.4679 139.443 23.1789 138.865 23.3885 138.398Z" fill="#FFBE55"/>
<path d="M26.0312 143.225C25.974 143.063 25.9867 142.866 26.0693 142.637C26.0756 142.621 26.082 142.602 26.0883 142.587C26.3742 141.856 27.1237 141.307 28.321 140.954C29.2293 140.684 30.1885 140.532 31.2365 140.487C30.884 140.637 30.5315 140.84 30.1916 141.094C29.7248 141.44 29.2992 141.843 28.8895 142.237C28.5687 142.542 28.2384 142.86 27.8923 143.142C27.6128 143.371 27.273 143.612 26.895 143.666C26.5616 143.708 26.1487 143.555 26.0312 143.225Z" fill="#FFBE55"/>
<path d="M35.5014 145.07C35.4347 145.07 35.3775 145.016 35.3775 144.946C35.3775 144.87 35.2282 137.369 26.161 131.064C26.1038 131.026 26.0911 130.947 26.1292 130.893C26.1673 130.836 26.2467 130.823 26.3007 130.861C35.4823 137.245 35.6252 144.87 35.6252 144.946C35.6284 145.013 35.5712 145.07 35.5014 145.07C35.5045 145.07 35.5045 145.07 35.5014 145.07Z" fill="#0B4870"/>
<path d="M35.5041 145.07C35.4565 145.07 35.412 145.045 35.393 145C35.3644 144.94 32.4965 138.998 24.9823 138.998C24.9124 138.998 24.8584 138.944 24.8584 138.874C24.8584 138.804 24.9124 138.75 24.9823 138.75C32.6585 138.75 35.5867 144.835 35.6153 144.896C35.6439 144.959 35.6185 145.032 35.5549 145.061C35.5391 145.064 35.52 145.07 35.5041 145.07Z" fill="#0B4870"/>
<path d="M26.723 142.92C26.6848 142.92 26.6499 142.904 26.6245 142.869C26.5832 142.815 26.5927 142.736 26.6499 142.695C29.7591 140.348 31.2677 140.43 31.3312 140.433C31.3979 140.44 31.4519 140.497 31.4456 140.567C31.4392 140.634 31.382 140.691 31.3122 140.681C31.2963 140.681 29.8163 140.618 26.7992 142.892C26.7738 142.914 26.7484 142.92 26.723 142.92Z" fill="#0B4870"/>
<path d="M158.042 139.83H70.964C69.0457 139.83 67.4863 138.27 67.4863 136.352V19.1605C67.4863 17.2422 69.0457 15.6829 70.964 15.6829H96.9907V16.6356H70.964C69.5729 16.6356 68.4391 17.7694 68.4391 19.1605V136.352C68.4391 137.743 69.5729 138.877 70.964 138.877H158.042C159.433 138.877 160.566 137.743 160.566 136.352V19.1605C160.566 17.7694 159.433 16.6356 158.042 16.6356H132.021V15.6829H158.042C159.96 15.6829 161.519 17.2422 161.519 19.1605V136.352C161.519 138.267 159.96 139.83 158.042 139.83Z" fill="#FFBE55"/>
<path d="M154.408 133.669H74.597C73.9205 133.669 73.3711 133.119 73.3711 132.443V23.0702C73.3711 22.3937 73.9205 21.8442 74.597 21.8442H154.408C155.084 21.8442 155.634 22.3937 155.634 23.0702V132.443C155.634 133.119 155.084 133.669 154.408 133.669Z" fill="#F2F2F2"/>
<path d="M132.434 25.09H96.5713V13.355H106.953C107.023 9.25171 110.383 5.93286 114.503 5.93286C118.622 5.93286 121.982 9.25171 122.052 13.355H132.434V25.09ZM97.5241 24.1373H131.481V14.3078H121.058L121.089 13.6789C121.093 13.6154 121.099 13.5487 121.099 13.482C121.099 9.84561 118.139 6.88564 114.503 6.88564C110.866 6.88564 107.906 9.84561 107.906 13.482C107.906 13.5487 107.912 13.6154 107.916 13.6789L107.947 14.3078H97.5241V24.1373Z" fill="#FFBE55"/>
<path d="M114.503 17.9315C112.051 17.9315 110.053 15.9371 110.053 13.4821C110.053 11.0271 112.048 9.03259 114.503 9.03259C116.958 9.03259 118.952 11.0271 118.952 13.4821C118.952 15.9371 116.954 17.9315 114.503 17.9315ZM114.503 9.98855C112.575 9.98855 111.006 11.5575 111.006 13.4852C111.006 15.413 112.575 16.9819 114.503 16.9819C116.43 16.9819 117.999 15.413 117.999 13.4852C117.999 11.5575 116.43 9.98855 114.503 9.98855Z" fill="#FFBE55"/>
<path d="M239.739 158.218H7.26124C3.57717 158.218 0.591797 155.233 0.591797 151.549C0.591797 147.865 3.57717 144.88 7.26124 144.88H239.739C243.423 144.88 246.408 147.865 246.408 151.549C246.408 155.233 243.423 158.218 239.739 158.218Z" fill="#D3D3D3"/>
<path d="M97.4829 52.8891H83.7407V39.1469H97.4829V52.8891ZM84.0583 52.5715H97.1653V39.4644H84.0583V52.5715Z" fill="#0B4870"/>
<path d="M91.064 49.8591L86.5225 46.2925L87.3069 45.2953L90.9783 48.1758L98.9276 40.5187L99.8073 41.4333L91.064 49.8591Z" fill="#0B4870"/>
<path d="M147.51 43.1168H103.768C103.482 43.1168 103.25 42.8849 103.25 42.5991C103.25 42.3133 103.482 42.0814 103.768 42.0814H147.51C147.796 42.0814 148.027 42.3133 148.027 42.5991C148.027 42.8849 147.796 43.1168 147.51 43.1168Z" fill="#0B4870"/>
<path d="M147.51 45.3972H103.768C103.482 45.3972 103.25 45.1653 103.25 44.8795C103.25 44.5937 103.482 44.3618 103.768 44.3618H147.51C147.796 44.3618 148.027 44.5937 148.027 44.8795C148.027 45.1653 147.796 45.3972 147.51 45.3972Z" fill="#0B4870"/>
<path d="M147.51 47.6743H103.768C103.482 47.6743 103.25 47.4424 103.25 47.1566C103.25 46.8708 103.482 46.6389 103.768 46.6389H147.51C147.796 46.6389 148.027 46.8708 148.027 47.1566C148.027 47.4424 147.796 47.6743 147.51 47.6743Z" fill="#0B4870"/>
<path d="M147.51 49.9545H103.768C103.482 49.9545 103.25 49.7227 103.25 49.4369C103.25 49.151 103.482 48.9192 103.768 48.9192H147.51C147.796 48.9192 148.027 49.151 148.027 49.4369C148.027 49.7227 147.796 49.9545 147.51 49.9545Z" fill="#0B4870"/>
<path d="M97.4829 74.5011H83.7407V60.7589H97.4829V74.5011ZM84.0583 74.1836H97.1653V61.0765H84.0583V74.1836Z" fill="#0B4870"/>
<path d="M91.064 71.4711L86.5225 67.9046L87.3069 66.9073L90.9783 69.7879L98.9276 62.1307L99.8073 63.0454L91.064 71.4711Z" fill="#0B4870"/>
<path d="M147.51 64.7288H103.768C103.482 64.7288 103.25 64.497 103.25 64.2111C103.25 63.9253 103.482 63.6935 103.768 63.6935H147.51C147.796 63.6935 148.027 63.9253 148.027 64.2111C148.027 64.497 147.796 64.7288 147.51 64.7288Z" fill="#0B4870"/>
<path d="M147.51 67.0092H103.768C103.482 67.0092 103.25 66.7774 103.25 66.4916C103.25 66.2057 103.482 65.9739 103.768 65.9739H147.51C147.796 65.9739 148.027 66.2057 148.027 66.4916C148.027 66.7774 147.796 67.0092 147.51 67.0092Z" fill="#0B4870"/>
<path d="M147.51 69.2863H103.768C103.482 69.2863 103.25 69.0544 103.25 68.7686C103.25 68.4828 103.482 68.251 103.768 68.251H147.51C147.796 68.251 148.027 68.4828 148.027 68.7686C148.027 69.0544 147.796 69.2863 147.51 69.2863Z" fill="#0B4870"/>
<path d="M147.51 71.5666H103.768C103.482 71.5666 103.25 71.3348 103.25 71.0489C103.25 70.7631 103.482 70.5312 103.768 70.5312H147.51C147.796 70.5312 148.027 70.7631 148.027 71.0489C148.027 71.3348 147.796 71.5666 147.51 71.5666Z" fill="#0B4870"/>
<path d="M97.4829 96.1134H83.7407V82.3712H97.4829V96.1134ZM84.0583 95.7959H97.1653V82.6888H84.0583V95.7959Z" fill="#0B4870"/>
<path d="M91.064 93.0838L86.5225 89.5172L87.3069 88.52L90.9783 91.4005L98.9276 83.7434L99.8073 84.6581L91.064 93.0838Z" fill="#0B4870"/>
<path d="M147.51 86.341H103.768C103.482 86.341 103.25 86.1092 103.25 85.8233C103.25 85.5375 103.482 85.3057 103.768 85.3057H147.51C147.796 85.3057 148.027 85.5375 148.027 85.8233C148.027 86.1092 147.796 86.341 147.51 86.341Z" fill="#0B4870"/>
<path d="M147.51 88.6214H103.768C103.482 88.6214 103.25 88.3896 103.25 88.1037C103.25 87.8179 103.482 87.5861 103.768 87.5861H147.51C147.796 87.5861 148.027 87.8179 148.027 88.1037C148.027 88.3896 147.796 88.6214 147.51 88.6214Z" fill="#0B4870"/>
<path d="M147.51 90.8985H103.768C103.482 90.8985 103.25 90.6667 103.25 90.3809C103.25 90.0951 103.482 89.8633 103.768 89.8633H147.51C147.796 89.8633 148.027 90.0951 148.027 90.3809C148.027 90.6667 147.796 90.8985 147.51 90.8985Z" fill="#0B4870"/>
<path d="M147.51 93.1786H103.768C103.482 93.1786 103.25 92.9468 103.25 92.661C103.25 92.3751 103.482 92.1433 103.768 92.1433H147.51C147.796 92.1433 148.027 92.3751 148.027 92.661C148.027 92.9468 147.796 93.1786 147.51 93.1786Z" fill="#0B4870"/>
<path d="M97.4829 117.726H83.7407V103.983H97.4829V117.726ZM84.0583 117.408H97.1653V104.301H84.0583V117.408Z" fill="#0B4870"/>
<path d="M91.064 114.696L86.5225 111.129L87.3069 110.132L90.9783 113.013L98.9276 105.355L99.8073 106.27L91.064 114.696Z" fill="#0B4870"/>
<path d="M147.51 107.953H103.768C103.482 107.953 103.25 107.721 103.25 107.436C103.25 107.15 103.482 106.918 103.768 106.918H147.51C147.796 106.918 148.027 107.15 148.027 107.436C148.027 107.721 147.796 107.953 147.51 107.953Z" fill="#0B4870"/>
<path d="M147.51 110.234H103.768C103.482 110.234 103.25 110.002 103.25 109.716C103.25 109.43 103.482 109.198 103.768 109.198H147.51C147.796 109.198 148.027 109.43 148.027 109.716C148.027 110.002 147.796 110.234 147.51 110.234Z" fill="#0B4870"/>
<path d="M147.51 112.511H103.768C103.482 112.511 103.25 112.279 103.25 111.993C103.25 111.707 103.482 111.475 103.768 111.475H147.51C147.796 111.475 148.027 111.707 148.027 111.993C148.027 112.279 147.796 112.511 147.51 112.511Z" fill="#0B4870"/>
<path d="M147.51 114.791H103.768C103.482 114.791 103.25 114.559 103.25 114.274C103.25 113.988 103.482 113.756 103.768 113.756H147.51C147.796 113.756 148.027 113.988 148.027 114.274C148.027 114.559 147.796 114.791 147.51 114.791Z" fill="#0B4870"/>
<path d="M149.723 92.6229C150.435 92.1179 151.089 91.5335 151.391 91.362C151.518 91.2921 151.911 91.2032 152.023 91.1683C152.353 91.0698 152.88 90.9682 153.109 90.711L154.087 89.6375C154.551 89.1103 155.157 88.9356 155.681 89.3993C156.25 89.9011 156.081 90.6157 155.516 91.1238L154.846 91.8861C154.395 92.2926 154.17 92.8643 153.919 93.4169C153.41 94.5443 152.258 95.3923 151.273 95.9862C150.654 96.3578 149.717 96.0942 148.488 95.675C147.884 95.4685 147.011 94.9699 147.764 94.6872C148.396 94.4522 150.295 94.9635 151.133 93.2136C151.175 93.1279 151.264 92.8992 151.178 92.8198C150.924 92.5816 150.362 93.1215 149.987 93.293C149.46 93.5344 149.037 93.4518 148.907 93.2581C148.767 93.0548 149.215 92.9849 149.723 92.6229Z" fill="#FAB9AF"/>
<path d="M176.452 54.2292C176.452 54.2292 174.883 73.0624 169.252 79.4175C165.86 83.2476 157.561 89.8155 155.64 91.3208C155.395 91.5114 155.052 91.5209 154.798 91.3431C154.636 91.2287 154.452 91.089 154.293 90.9493C154.131 90.8063 153.944 90.5999 153.776 90.403C153.496 90.0759 153.509 89.59 153.801 89.2756C155.954 86.9349 164.402 77.658 165.431 75.2189C166.61 72.4209 168.639 55.9029 170.503 53.5114C172.367 51.1136 175.94 50.5959 176.452 54.2292Z" fill="#FFBE55"/>
<path d="M169.341 85.3404L174.143 51.612L187.091 49.8335L193.827 85.099L169.341 85.3404Z" fill="#FAB9AF"/>
<path d="M179.352 137.607L179.339 141.408C179.336 142.183 179.44 142.952 179.65 143.695L179.98 144.867C180.25 145.829 179.529 146.782 178.529 146.779C175.941 146.769 171.513 146.776 170.373 146.779C170.186 146.779 170.005 146.652 169.989 146.467C169.894 145.359 173.098 144.613 175.515 143.679C177.354 142.968 177.255 139.661 177.03 137.73C176.944 137 177.554 136.381 178.284 136.441C178.888 136.492 179.355 137 179.352 137.607Z" fill="#FAB9AF"/>
<path d="M197.149 136.539L198.458 140.887C198.515 141.081 198.601 141.262 198.715 141.427L199.642 142.806C200.233 143.682 199.807 144.876 198.797 145.184C198.797 145.184 196.924 145.842 194.996 146.477C193.02 147.125 190.534 146.585 190.534 146.061C190.534 144.902 191.613 145.823 193.424 144.613C194.03 144.206 194.656 143.784 195.215 143.346C196.771 142.123 195.412 139.029 194.459 137.286C194.116 136.66 194.481 135.882 195.18 135.733L195.631 135.638C196.292 135.501 196.952 135.892 197.149 136.539Z" fill="#FAB9AF"/>
<path d="M183.769 85.6675L169.417 84.4639C169.417 84.4639 167.972 94.9095 171.599 113.816C173.301 122.683 176.845 139.627 176.845 139.627C177.725 140.011 178.618 140.106 179.526 139.881C179.526 139.881 179.796 132.408 179.961 124.357C180.12 116.639 180.161 108.391 180.653 105.692C181.657 100.178 183.769 85.6675 183.769 85.6675Z" fill="#0B4870"/>
<path d="M180.806 85.8487C179.323 93.8012 176.013 105.692 182.391 116.862C188.765 128.031 195.463 139.646 195.463 139.646C196.326 139.681 197.108 139.369 197.835 138.817C197.835 138.817 196.717 133.754 195.101 127.841C193.252 121.076 190.912 113.12 191.578 108.973C192.83 101.198 194.265 90.8444 193.83 85.8137C193.392 80.7831 181.584 81.6691 180.806 85.8487Z" fill="#0B4870"/>
<path d="M168.845 84.4828L174.143 51.612L187.094 49.8335L194.053 84.5431C194.183 85.1942 193.761 85.8294 193.106 85.9532C190.696 86.4106 184.881 87.3634 178.37 87.3634C173.511 87.3634 170.78 86.4201 169.538 85.8199C169.036 85.5785 168.757 85.0354 168.845 84.4828Z" fill="#F2F2F2"/>
<path d="M194.479 97.2058C194.676 96.3578 194.784 95.4844 194.895 95.1573C194.943 95.0207 195.181 94.6936 195.241 94.592C195.425 94.2998 195.753 93.8742 195.753 93.5312L195.778 92.0798C195.778 91.3779 196.118 90.8475 196.816 90.8475C197.575 90.8475 197.922 91.4954 197.833 92.2513V93.2676C197.763 93.871 197.972 94.4491 198.15 95.0303C198.512 96.2117 198.211 97.6091 197.865 98.708C197.649 99.3972 196.769 99.8196 195.571 100.315C194.984 100.56 193.996 100.763 194.374 100.055C194.692 99.4607 196.454 98.5905 195.927 96.7198C195.902 96.6277 195.819 96.3959 195.702 96.3927C195.352 96.3832 195.289 97.1581 195.121 97.5361C194.885 98.0664 194.514 98.2824 194.285 98.2252C194.047 98.1617 194.336 97.8124 194.479 97.2058Z" fill="#FAB9AF"/>
<path d="M183.049 51.882C183.049 54.2512 183.481 56.595 184.287 58.8214C185.869 63.1755 188.245 71.4075 186.831 78.6613C184.802 89.1069 182.188 93.3278 185.574 95.7637C188.959 98.1964 195.451 94.1376 195.638 92.7815C195.826 91.4285 194.374 74.7962 192.732 67.5901C191.087 60.3839 186.482 50.024 186.482 50.024L184.532 50.2337C183.687 50.3226 183.049 51.034 183.049 51.882Z" fill="#FFBE55"/>
<path d="M189.133 50.7293C189.133 50.7293 200.414 65.8944 200.392 74.3836C200.379 79.5 198.499 89.9139 198.054 92.3149C197.997 92.6198 197.749 92.8548 197.438 92.8866C197.241 92.9088 197.009 92.9247 196.8 92.9247C196.587 92.9247 196.308 92.8929 196.05 92.858C195.625 92.7976 195.314 92.426 195.323 91.9941C195.39 88.815 195.593 76.2701 194.748 73.7579C193.78 70.8774 184.379 57.151 184.195 54.1212C184.007 51.0945 186.348 48.341 189.133 50.7293Z" fill="#FFBE55"/>
<path d="M177.656 51.1294C177.656 51.1294 175.411 55.9822 176.192 62.9565C176.976 69.9309 178.79 91.1683 172.444 94.376C170.434 95.3923 165.845 90.8951 165.845 89.2246C165.845 87.5541 167.376 81.9708 168.827 76.8925C170.278 71.8142 173.775 51.6598 173.775 51.6598L177.656 51.1294Z" fill="#FFBE55"/>
<path d="M179.463 36.085C182.353 36.085 183.432 38.143 183.486 41.9477C183.509 43.3737 182.867 44.7838 182.349 45.6858C181.965 46.3559 181.86 47.1499 182.079 47.8899L182.715 50.0368C183.147 52.0281 182.2 53.1238 180.803 53.5208C180.11 53.7177 179.281 53.5653 178.678 53.1746C177.96 52.7109 177.9 51.7105 178.033 50.8657L178.199 50.2528C178.421 49.427 177.941 48.5378 177.106 48.3567C174.88 47.8708 174.562 45.5492 173.965 41.9477C173.343 38.1938 176.572 36.085 179.463 36.085Z" fill="#FAB9AF"/>
<path d="M172.733 34.4145L174.39 34.9195C175 35.1037 175.648 35.11 176.261 34.9322L179.57 33.973C181.574 33.973 184.887 35.1037 184.467 37.9969L184.099 40.0422C183.953 40.8585 183.27 41.4714 182.441 41.5413C182.365 41.8239 182.108 42.0209 181.816 42.0209C181.457 42.0209 181.168 41.7318 181.168 41.373C181.168 40.4488 180.52 39.6643 179.621 39.461C178.516 39.2133 177.338 39.153 176.102 39.4865C173.803 40.1058 171.376 38.6798 171.148 36.3073C171.132 36.1581 171.125 36.0056 171.125 35.85C171.122 34.8909 171.913 34.189 172.733 34.4145Z" fill="#0B4870"/>
<path d="M181.895 42.0177C181.895 42.9006 182.222 43.6151 183.073 43.6151C183.924 43.6151 184.467 42.4019 184.467 41.519C184.467 40.6361 183.921 40.4202 183.073 40.4202C182.222 40.4202 181.895 41.1379 181.895 42.0177Z" fill="#FAB9AF"/>
<path d="M182.245 45.8923C182.245 45.8923 180.085 48.8586 177.401 48.4585C177.401 48.4585 177.96 48.7252 178.094 49.1572C178.094 49.1572 180.644 48.9698 182.245 45.8923Z" fill="#E8948B"/>
<path d="M187.971 4.52917C187.971 6.59033 186.612 8.26404 184.932 8.26404H148.895C147.218 8.26404 145.855 6.59351 145.855 4.52917C145.855 2.46801 147.215 0.794312 148.895 0.794312H184.932C186.612 0.797487 187.971 2.46801 187.971 4.52917Z" fill="#F2F2F2"/>
<path d="M58.9746 24.5247C58.9746 26.5859 57.3041 28.2596 55.2397 28.2596H10.961C8.89978 28.2596 7.22607 26.589 7.22607 24.5247C7.22607 22.4635 8.89661 20.7898 10.961 20.7898H55.2429C57.304 20.7898 58.9746 22.4603 58.9746 24.5247Z" fill="#F2F2F2"/>
<path d="M77.0778 4.51639C77.0778 6.57757 75.6931 8.25129 73.9877 8.25129H37.347C35.6415 8.25129 34.2568 6.58074 34.2568 4.51639C34.2568 2.45521 35.6415 0.781494 37.347 0.781494H73.9877C75.6931 0.781494 77.0778 2.45203 77.0778 4.51639Z" fill="#F2F2F2"/>
<path d="M227.422 20.7009C227.422 22.7621 225.752 24.4358 223.687 24.4358H179.409C177.348 24.4358 175.674 22.7653 175.674 20.7009C175.674 18.6398 177.344 16.9661 179.409 16.9661H223.691C225.752 16.9692 227.422 18.6398 227.422 20.7009Z" fill="#F2F2F2"/>
<path d="M179.736 143.994C179.736 143.994 177.729 144.88 175.858 143.501C175.858 143.501 171.241 144.241 169.916 145.607C168.592 146.973 169.551 147.649 171.215 147.62C172.876 147.592 179.298 147.525 179.298 147.525C179.298 147.525 180.946 146.518 179.736 143.994Z" fill="#0B4870"/>
<path d="M199.033 141.751C199.033 141.751 198.055 143.037 195.864 142.275C195.864 142.275 190.992 144.502 190.131 146.198C189.271 147.894 190.385 148.256 191.967 147.738C193.549 147.22 199.659 145.257 199.659 145.257C199.659 145.257 200.936 143.803 199.033 141.751Z" fill="#0B4870"/>
</svg>
