<svg width="208" height="136" viewBox="0 0 248 176" fill="none" xmlns="http://www.w3.org/2000/svg">
<g opacity="0.07">
<g opacity="0.07">
<path opacity="0.07" d="M220.075 66.6692C223.173 72.3495 227.727 77.7012 228.102 84.0856C228.713 94.3665 218.713 102.065 214.629 111.595C209.606 123.284 213.831 137.039 209.371 148.916C206.132 157.507 198.246 164.408 188.951 166.661C182.003 168.351 174.68 167.6 167.497 167.647C147.123 167.834 126.796 174.876 106.657 171.684C96.7048 170.088 87.3159 166.051 77.3637 164.783C65.3928 163.234 51.4503 165.112 42.9064 156.99C30.9356 145.63 39.8081 124.739 30.8417 111.126C27.9312 106.713 23.2837 103.286 21.7345 98.3567C19.9037 92.5356 22.8612 86.3859 26.5228 81.4098C30.1845 76.4806 34.7381 71.927 36.7098 66.1528C38.4937 60.942 37.4139 55.2617 35.2076 50.1917C31.8276 42.399 41.2634 24.5601 60.0412 25.9215C68.632 26.5317 72.5284 16.5795 81.9642 13.8098C92.7615 10.6645 106.328 13.1995 114.262 15.8284C122.336 18.5042 132.336 19.9126 136.983 13.0587C143.508 3.34119 163.037 1.83897 171.816 17.6123C175.008 23.3395 177.872 27.8462 184.679 27.3767C221.577 24.9826 215.427 58.2662 220.075 66.6692ZM119.473 13.4812C119.473 14.7956 119.473 17.049 125.294 16.6734C127.078 16.5795 128.533 15.5937 128.533 14.2792C128.533 12.9648 127.078 11.8851 125.294 11.8851C123.51 11.932 119.473 11.3687 119.473 13.4812ZM62.1537 19.9126C61.9659 20.0065 61.872 20.1942 61.7781 20.382C61.4026 20.9454 60.7453 21.3209 60.0881 21.6026C59.7126 21.7434 59.2901 21.8842 59.0084 22.1659C58.539 22.6353 58.5859 23.4804 59.1023 23.8559C59.5248 24.1845 60.0881 24.2315 60.6515 24.1845C62.6701 24.0906 64.6417 23.3395 66.2378 22.119C68.2565 20.4759 63.2803 19.3023 62.1537 19.9126ZM56.6142 22.917C55.9101 22.4476 55.0651 22.7292 54.3609 23.0579C54.2201 23.1517 54.0792 23.2456 54.0323 23.3865C53.9384 23.7151 54.3609 23.9498 54.6895 24.0437C55.2059 24.1845 55.7692 24.3723 56.2856 24.1845C56.802 24.0437 57.3184 23.3865 56.6142 22.917ZM30.8887 65.0262C30.3723 63.477 29.1987 62.7259 27.3678 63.6178C26.2881 64.1342 25.537 65.1201 24.8798 66.1059C23.847 67.702 22.9551 69.4859 23.1898 71.3167C23.3306 72.6781 24.1287 73.9456 25.2553 74.7437C25.7248 75.0723 26.2881 75.307 26.8515 75.307C27.5087 75.307 28.072 74.9315 28.5884 74.5559C29.762 73.664 30.654 72.4434 31.5459 71.3167C32.0153 70.7065 32.4848 70.0492 32.5787 69.3451C32.8134 67.702 31.3581 66.4345 30.8887 65.0262ZM219.605 112.44C219.136 112.628 218.666 112.863 218.432 113.285C218.244 113.614 218.15 113.989 218.15 114.365C218.056 115.163 218.009 115.914 218.009 116.712C218.009 117.557 218.103 118.496 218.76 119.106C219.652 119.904 221.061 119.623 222.187 119.294C222.845 119.106 223.549 118.918 223.971 118.402C224.3 118.026 224.394 117.557 224.488 117.088C224.769 115.538 225.614 113.191 224.675 112.346C223.643 111.501 221.248 111.783 219.605 112.44ZM154.4 172.717C154.165 172.951 153.93 173.186 153.789 173.468C153.414 174.266 153.789 175.299 154.634 175.627C155.057 175.815 155.526 175.815 155.996 175.768C159.892 175.721 164.07 175.58 167.168 173.327C167.544 173.045 167.92 172.67 167.873 172.247C167.779 171.684 167.121 171.449 166.558 171.355C162.662 170.651 157.498 169.806 154.4 172.717ZM80.6967 166.708C77.3167 166.238 71.9651 165.628 71.9651 168.351C71.9651 169.384 76.7534 170.369 77.5045 170.557C79.9456 171.168 82.2459 172.013 84.5931 172.904C89.0059 174.548 92.5737 172.341 89.0528 169.853C86.1892 167.835 83.4195 167.083 80.6967 166.708Z" fill="#2A94F4"/>
</g>
</g>
<g opacity="0.51">
<path opacity="0.51" d="M166.136 132.814C165.056 130.748 167.544 128.542 169.845 128.119C172.145 127.697 174.727 128.026 176.511 126.57C178.952 124.646 178.811 120.468 181.487 118.918C183.646 117.698 186.51 118.871 188.763 117.886C191.58 116.665 192.378 112.722 195.195 111.407C197.401 110.328 200.312 111.548 201.438 113.708C202.565 115.867 202.049 118.684 200.499 120.608C199.279 122.064 197.448 123.143 196.697 124.88C195.523 127.65 197.401 130.983 196.274 133.8C194.256 138.964 184.679 137.414 182.989 142.719C182.614 143.893 182.754 145.16 182.66 146.428C182.379 150.089 179.797 153.282 176.605 155.113C173.412 156.943 169.657 157.554 165.995 157.835C164.493 157.929 162.897 157.976 161.582 157.272C160.315 156.615 159.47 155.441 158.766 154.174C154.353 146.24 152.522 135.818 166.136 132.814Z" fill="#FFBE55"/>
</g>
<g opacity="0.51">
<path opacity="0.51" d="M94.6397 125.631C96.1419 123.19 93.3252 120.28 90.5555 119.576C87.7858 118.871 84.6405 119.012 82.528 117.087C79.7583 114.506 80.2747 109.389 77.1294 107.276C74.5944 105.586 71.0266 106.76 68.3038 105.351C64.9238 103.614 64.3605 98.6852 61.0744 96.8075C58.4455 95.3052 54.7838 96.4788 53.1877 99.0608C51.5916 101.643 51.9672 105.117 53.7041 107.605C55.0655 109.529 57.178 110.985 57.9761 113.191C59.1966 116.665 56.5677 120.608 57.6475 124.129C59.6661 130.654 71.543 129.622 73.0452 136.288C73.3738 137.79 73.0922 139.292 73.0922 140.841C73.0922 145.348 75.9558 149.526 79.7113 152.061C83.4669 154.596 87.9735 155.723 92.4333 156.38C94.2641 156.662 96.1888 156.849 97.8788 156.098C99.4749 155.441 100.649 154.033 101.634 152.577C107.784 143.142 110.976 130.561 94.6397 125.631Z" fill="#FFBE55"/>
</g>
<path d="M192.846 12.7767L189.56 13.9034L188.152 9.81922C185.523 2.26118 177.214 -1.77604 169.656 0.852846C162.098 3.48173 158.06 11.7909 160.689 19.3489L162.098 23.4331L158.812 24.5598C156.23 25.4517 154.868 28.2684 155.76 30.8503L165.008 57.5617C165.9 60.1436 168.764 61.5519 171.299 60.66L205.287 48.8769C207.869 47.985 209.277 45.1214 208.385 42.5395L199.137 15.8281C198.292 13.2462 195.475 11.8378 192.846 12.7767ZM166.933 17.1425C165.478 13.0114 167.684 8.45784 171.815 7.00256C175.946 5.54729 180.5 7.75367 181.955 11.9317L183.364 16.0159L168.341 21.2267L166.933 17.1425ZM186.65 41.5067L188.997 48.3136C189.091 48.5953 188.903 48.8769 188.621 49.0178L185.335 50.1444C185.101 50.2383 184.772 50.0975 184.678 49.8158L182.331 43.0089C179.796 42.915 177.449 41.3189 176.557 38.737C175.43 35.4509 177.167 31.8361 180.453 30.6625C183.739 29.5359 187.354 31.2728 188.527 34.5589C189.419 37.1409 188.574 39.8636 186.65 41.5067Z" fill="#FFBE55"/>
<path d="M157.592 145.019C160.925 143.611 163.882 140.935 166.37 138.4C173.036 131.499 177.167 122.533 179.374 113.238C181.345 104.835 181.768 96.197 181.392 87.6062C181.345 86.902 180.219 86.8551 180.266 87.6062C181.205 106.9 177.355 130.513 160.127 142.249C159.141 142.907 158.155 143.564 157.075 144.033C156.371 144.315 156.934 145.301 157.592 145.019Z" fill="#FFBE55"/>
<path d="M179.515 109.999C179.515 109.999 180.594 103.755 188.857 102.769C188.903 102.769 185.852 110.14 179.515 109.999Z" fill="#FFBE55"/>
<path d="M176.839 119.2C176.839 119.2 179.374 113.379 187.636 114.364C187.589 114.364 182.942 120.843 176.839 119.2Z" fill="#FFBE55"/>
<path d="M173.317 127.368C173.317 127.368 177.073 122.251 184.913 125.068C184.913 125.068 178.904 130.325 173.317 127.368Z" fill="#FFBE55"/>
<path d="M180.782 100.281C180.782 100.281 181.862 94.1313 189.983 93.1924C189.983 93.1924 187.026 100.469 180.782 100.281Z" fill="#FFBE55"/>
<path d="M180.923 89.6248C180.923 89.6248 176.275 85.4467 179.796 78.0294C179.796 78.0764 184.35 84.4139 180.923 89.6248Z" fill="#FFBE55"/>
<path d="M180.923 95.9624C180.923 95.9624 174.774 94.8357 173.882 86.7144C173.929 86.6675 181.158 89.7188 180.923 95.9624Z" fill="#FFBE55"/>
<path d="M180.313 105.304C180.313 105.304 174.163 104.177 173.271 96.056C173.318 96.056 180.547 99.0605 180.313 105.304Z" fill="#FFBE55"/>
<path d="M178.716 114.083C178.716 114.083 172.66 112.533 172.378 104.365C172.378 104.318 179.373 107.839 178.716 114.083Z" fill="#FFBE55"/>
<path d="M175.946 122.815C175.946 122.815 169.891 121.265 169.609 113.097C169.609 113.097 176.604 116.618 175.946 122.815Z" fill="#FFBE55"/>
<path d="M94.7799 142.672C91.4468 141.264 88.4893 138.588 86.0013 136.053C79.3352 129.152 75.2041 120.186 72.9977 110.891C71.026 102.487 70.6035 93.8497 70.9791 85.2589C71.026 84.5547 72.1527 84.5078 72.1057 85.2589C71.1669 104.553 75.0163 128.166 92.2449 139.902C93.2307 140.559 94.2165 141.217 95.2963 141.686C96.0004 141.968 95.4371 142.954 94.7799 142.672Z" fill="#FFBE55"/>
<path d="M72.8575 107.652C72.8575 107.652 71.7778 101.408 63.5157 100.422C63.4687 100.422 66.5201 107.793 72.8575 107.652Z" fill="#FFBE55"/>
<path d="M75.5804 116.853C75.5804 116.853 73.0454 111.032 64.7832 112.017C64.7832 112.017 69.4307 118.496 75.5804 116.853Z" fill="#FFBE55"/>
<path d="M79.1009 125.021C79.1009 125.021 75.3454 119.904 67.5056 122.721C67.4587 122.721 73.4676 127.978 79.1009 125.021Z" fill="#FFBE55"/>
<path d="M71.5898 97.9339C71.5898 97.9339 70.5101 91.7842 62.3887 90.8453C62.3887 90.8453 65.3462 98.1217 71.5898 97.9339Z" fill="#FFBE55"/>
<path d="M71.4959 87.2776C71.4959 87.2776 76.1435 83.0996 72.6226 75.6824C72.6226 75.7293 68.022 82.0668 71.4959 87.2776Z" fill="#FFBE55"/>
<path d="M71.4494 93.6153C71.4494 93.6153 77.5991 92.4886 78.4911 84.367C78.4911 84.32 71.2147 87.3715 71.4494 93.6153Z" fill="#FFBE55"/>
<path d="M72.0588 102.957C72.0588 102.957 78.2085 101.83 79.1004 93.709C79.1004 93.709 71.8241 96.7134 72.0588 102.957Z" fill="#FFBE55"/>
<path d="M73.6549 111.735C73.6549 111.735 79.7107 110.186 79.9923 102.018C79.9923 101.971 72.9977 105.492 73.6549 111.735Z" fill="#FFBE55"/>
<path d="M76.4254 120.468C76.4254 120.468 82.4813 118.918 82.7629 110.75C82.7629 110.75 75.7682 114.271 76.4254 120.468Z" fill="#FFBE55"/>
<path d="M154.211 159.009H101.023C95.5309 159.009 91.1182 154.549 91.1182 149.104V25.7804C91.1182 20.2879 95.5779 15.8751 101.023 15.8751H154.165C159.657 15.8751 164.07 20.3348 164.07 25.7804V149.104C164.117 154.549 159.657 159.009 154.211 159.009Z" fill="#2A94F4"/>
<path d="M153.789 153.939H101.446C97.5964 153.939 94.498 150.84 94.498 146.991V27.0009C94.498 23.1514 97.5964 20.0531 101.446 20.0531H153.789C157.638 20.0531 160.737 23.1514 160.737 27.0009V146.991C160.737 150.84 157.638 153.939 153.789 153.939Z" fill="#F7F7F7"/>
<path d="M147.451 20.0532H143.133C141.818 20.0532 140.738 21.1329 140.738 22.4474V24.1374C140.738 25.4518 139.659 26.5315 138.344 26.5315H119.144C117.829 26.5315 116.75 25.4518 116.75 24.1374V22.4474C116.75 21.1329 115.67 20.0532 114.356 20.0532H102.103V18.8326H147.451V20.0532Z" fill="#2A94F4"/>
<path opacity="0.17" d="M126.703 76.4803C131.992 76.4803 136.279 72.1926 136.279 66.9036C136.279 61.6145 131.992 57.3269 126.703 57.3269C121.414 57.3269 117.126 61.6145 117.126 66.9036C117.126 72.1926 121.414 76.4803 126.703 76.4803Z" fill="#2A94F4"/>
<path d="M130.411 64.6974C130.411 66.763 128.768 68.406 126.703 68.406C124.637 68.406 122.994 66.763 122.994 64.6974C122.994 62.6318 124.637 60.9888 126.703 60.9888C128.768 60.9888 130.411 62.6318 130.411 64.6974ZM132.289 79.9544V74.6496C132.289 71.6921 129.895 69.251 126.89 69.251H126.468C123.51 69.251 121.069 71.6452 121.069 74.6496V79.9544C121.069 80.7994 121.727 81.4566 122.572 81.4566H130.787C131.632 81.4566 132.289 80.7994 132.289 79.9544Z" fill="#2A94F4"/>
<path opacity="0.17" d="M149.659 87.4183H103.747C101.634 87.4183 99.9443 85.7284 99.9443 83.616C99.9443 81.5036 101.634 79.8136 103.747 79.8136H149.659C151.771 79.8136 153.461 81.5036 153.461 83.616C153.461 85.6815 151.771 87.4183 149.659 87.4183Z" fill="#2A94F4"/>
<path d="M148.061 84.6019H105.342C104.778 84.6019 104.356 84.1794 104.356 83.6161C104.356 83.0528 104.778 82.6302 105.342 82.6302H148.061C148.625 82.6302 149.047 83.0528 149.047 83.6161C149.047 84.1325 148.625 84.6019 148.061 84.6019Z" fill="#2A94F4"/>
<path opacity="0.17" d="M149.705 101.032H103.793C101.681 101.032 99.9907 99.3423 99.9907 97.2298C99.9907 95.1173 101.681 93.4272 103.793 93.4272H149.705C151.817 93.4272 153.507 95.1173 153.507 97.2298C153.507 99.3423 151.771 101.032 149.705 101.032Z" fill="#2A94F4"/>
<path d="M104.967 98.3094C104.404 98.3094 103.981 97.8869 103.981 97.3235C103.981 96.7602 104.404 96.3376 104.967 96.3376C105.531 96.3376 105.953 96.7602 105.953 97.3235C105.953 97.8869 105.484 98.3094 104.967 98.3094ZM108.911 97.3235C108.911 96.7602 108.488 96.3376 107.925 96.3376C107.361 96.3376 106.939 96.7602 106.939 97.3235C106.939 97.8869 107.361 98.3094 107.925 98.3094C108.441 98.3094 108.911 97.8869 108.911 97.3235ZM111.821 97.3235C111.821 96.7602 111.399 96.3376 110.835 96.3376C110.272 96.3376 109.849 96.7602 109.849 97.3235C109.849 97.8869 110.272 98.3094 110.835 98.3094C111.399 98.3094 111.821 97.8869 111.821 97.3235ZM114.779 97.3235C114.779 96.7602 114.356 96.3376 113.793 96.3376C113.229 96.3376 112.807 96.7602 112.807 97.3235C112.807 97.8869 113.229 98.3094 113.793 98.3094C114.356 98.3094 114.779 97.8869 114.779 97.3235ZM117.736 97.3235C117.736 96.7602 117.314 96.3376 116.75 96.3376C116.187 96.3376 115.764 96.7602 115.764 97.3235C115.764 97.8869 116.187 98.3094 116.75 98.3094C117.314 98.3094 117.736 97.8869 117.736 97.3235ZM120.694 97.3235C120.694 96.7602 120.271 96.3376 119.708 96.3376C119.144 96.3376 118.722 96.7602 118.722 97.3235C118.722 97.8869 119.144 98.3094 119.708 98.3094C120.224 98.3094 120.694 97.8869 120.694 97.3235ZM123.651 97.3235C123.651 96.7602 123.229 96.3376 122.665 96.3376C122.102 96.3376 121.679 96.7602 121.679 97.3235C121.679 97.8869 122.102 98.3094 122.665 98.3094C123.182 98.3094 123.651 97.8869 123.651 97.3235Z" fill="#2A94F4"/>
<path d="M64.2187 145.019C64.2187 145.019 63.2329 150.465 62.9982 151.404C62.8104 152.155 62.2471 152.718 61.6837 153.282C61.496 153.469 61.3551 153.845 61.2612 154.127C61.1674 154.361 61.2143 154.643 61.3551 154.878C63.8432 158.868 69.0539 159.619 69.1009 159.29C69.1948 158.68 68.2089 157.647 67.0823 157.225C65.9556 156.849 65.1106 155.817 64.829 154.643C64.5943 153.704 64.5943 152.718 64.8759 151.779L66.0965 147.601L64.2187 145.019Z" fill="#B97A59"/>
<path d="M61.167 145.63L62.3875 151.122C62.7631 152.812 62.5284 154.549 61.7303 156.098C61.2609 156.943 61.6834 158.023 62.5753 158.352C65.5328 159.384 71.2131 161.403 71.4478 161.168C72.7623 160.088 69.3353 158.258 66.8003 156.38C65.1103 155.112 64.4531 149.103 64.3123 144.55L61.5895 145.254C61.4017 145.254 61.2139 145.395 61.167 145.63Z" fill="#B97A59"/>
<path d="M66.2374 157.929C67.458 158.351 68.7724 158.445 69.993 158.633C70.1338 158.633 70.2746 158.727 70.3685 158.774C71.5421 159.666 72.1524 160.605 71.4482 161.168C71.1666 161.403 64.4535 159.009 61.8716 158.117C61.3082 157.929 61.0735 157.272 61.3552 156.755L61.8716 155.817C63.233 156.662 64.6882 157.413 66.2374 157.929Z" fill="#0B4870"/>
<path d="M62.4349 89.3902C59.3366 90.4699 57.4118 94.6949 58.8202 98.6382C59.6182 100.938 63.5146 108.872 67.3171 115.022C68.7724 117.369 68.9602 120.326 67.6927 122.768C67.5049 123.143 67.3171 123.566 67.1763 123.988C66.566 126.054 64.9699 137.696 64.1718 145.442C64.5474 146.334 65.3455 147.46 66.1435 147.695C68.8663 140.7 72.9974 128.119 73.6546 125.913C74.0302 124.692 74.4057 123.331 74.6405 122.016C76.5183 118.073 72.1055 99.1546 70.791 95.446C69.3827 91.5496 65.4863 88.3104 62.4349 89.3902Z" fill="#0B4870"/>
<path d="M64.3599 67.4669C67.1082 67.4669 69.336 64.5875 69.336 61.0356C69.336 57.4837 67.1082 54.6042 64.3599 54.6042C61.6117 54.6042 59.3838 57.4837 59.3838 61.0356C59.3838 64.5875 61.6117 67.4669 64.3599 67.4669Z" fill="#0B4870"/>
<path d="M63.1859 61.6929C63.0921 58.1251 60.2284 55.1207 56.6606 54.9329C53.5154 54.7451 50.7926 56.6699 49.7598 59.4396C49.3842 60.4254 48.4453 61.0357 47.4126 61.0357C46.9901 61.0357 46.5676 61.0826 46.0981 61.1765C43.5162 61.6929 41.4506 63.8993 41.2159 66.5751C40.9812 68.9693 42.1078 71.0817 43.8917 72.3023C44.6428 72.8187 45.1123 73.6637 45.2062 74.6026C45.8164 78.8276 49.6659 81.9728 54.0787 81.4564C57.8343 81.0339 60.8857 77.9356 61.2143 74.1331C61.402 71.8329 60.604 69.6734 59.1957 68.0773C61.5898 66.9976 63.2329 64.5096 63.1859 61.6929Z" fill="#0B4870"/>
<path d="M64.3589 52.4919C64.3589 52.4919 67.1756 54.2758 66.8 56.623C66.8 56.623 68.3022 55.5433 68.6308 51.9285C68.9125 49.3935 64.3589 52.4919 64.3589 52.4919Z" fill="#0B4870"/>
<path d="M68.9139 65.0259C70.4161 65.777 71.9183 66.3872 73.4675 66.7628C75.0167 67.1383 76.6128 67.1383 78.2558 66.9036C79.9458 66.6689 81.6828 66.1995 83.5605 65.8709C85.4383 65.5423 87.41 65.4484 89.2408 65.73C89.5694 65.777 89.8041 66.1056 89.7572 66.4342C89.7103 66.7158 89.4755 66.9506 89.1939 66.9506C87.41 67.0444 85.7669 67.3731 84.0769 67.9833C82.4339 68.5466 80.7439 69.2977 78.8661 69.861C76.9883 70.4243 74.8758 70.659 72.8572 70.4243C70.8386 70.1896 68.9139 69.6263 67.083 68.8752C66.0033 68.4527 65.44 67.1853 65.8625 66.1056C66.285 65.0259 67.5525 64.4626 68.6322 64.8851C68.6792 64.8851 68.7261 64.932 68.773 64.932L68.9139 65.0259Z" fill="#B97A59"/>
<path d="M67.5052 79.2972C68.6319 75.9171 70.8852 68.7346 70.6974 66.4343C70.5566 64.9321 69.336 63.8054 67.8338 63.8054H58.0224C56.4263 63.8054 55.0649 65.0729 55.018 66.716C54.9241 69.5327 56.2385 75.9641 56.9896 79.3441H67.5052V79.2972Z" fill="#FFBE55"/>
<path d="M64.2661 145.677C64.407 145.583 64.5009 145.395 64.5009 145.207C64.3131 138.025 63.8436 128.87 63.7028 127.134C63.7028 126.946 63.6559 126.758 63.6089 126.523C65.1581 118.026 65.3928 99.8119 65.5336 96.6197C65.7214 92.4416 63.1864 87.7002 59.9473 87.5124C56.6611 87.3716 53.1403 90.7516 52.1075 94.601C51.4034 97.136 54.0792 110.656 56.9897 120.467C57.6 122.533 57.6939 124.692 57.3653 126.805C57.1306 128.26 57.0836 129.809 57.1775 130.936C57.3184 132.673 59.2431 139.668 61.0739 145.723C61.1209 145.911 61.2617 146.052 61.4495 146.052C62.4353 146.287 63.3742 146.24 64.2661 145.677Z" fill="#0B4870"/>
<path d="M55.9089 83.569C56.4253 82.1607 56.5661 80.6115 56.3314 79.1563C55.8619 75.6824 54.97 69.204 55.0639 66.4343C55.1108 64.9321 56.3314 63.8054 57.7866 63.8054H59.2419C59.8052 65.0729 60.9788 66.0587 62.7627 66.0587C64.5935 66.0587 65.7202 65.0729 66.2835 63.8054H67.6449C66.1896 66.9507 66.706 71.1287 69.241 73.5699C68.7716 75.2599 68.3491 76.9029 68.0674 78.2643C67.6449 80.0951 67.8327 82.0199 68.5838 83.7568C69.8513 86.7612 70.8371 91.5496 70.5085 93.4743C60.2277 96.3849 53.1392 91.221 53.1392 91.221L55.9089 83.569Z" fill="#FFBE55"/>
<path d="M64.3596 64.4627L59.9468 63.9932L61.3551 59.158L64.2188 59.4866L64.3596 64.4627Z" fill="#B97A59"/>
<path d="M64.2183 59.4865L61.3546 59.111L60.9321 60.6132C61.5894 61.3174 62.3874 62.9135 63.4202 62.9135C63.7488 62.9135 64.0305 62.8196 64.3121 62.6318L64.2183 59.4865Z" fill="#AA6B4F"/>
<path d="M64.313 61.8336C63.3271 61.8336 62.2944 61.3641 60.8391 60.0966C59.9941 59.3925 59.3838 58.125 59.3838 57.233V52.4917H66.6602C66.6602 52.4917 67.2235 55.0267 66.6602 57.5147C66.2847 59.3925 65.0641 61.8336 64.313 61.8336Z" fill="#B97A59"/>
<path d="M60.6042 56.3411C60.6042 57.28 60.1817 58.0312 59.6184 58.0312C59.055 58.0312 58.4917 56.8106 58.4917 55.9186C58.4917 54.9797 59.102 54.698 59.6184 54.698C60.1817 54.6511 60.6042 55.4022 60.6042 56.3411Z" fill="#B97A59"/>
<path d="M58.4913 53.0552C58.4913 51.5999 59.7118 50.3793 61.1671 50.3793H63.6082C64.3124 50.3793 65.0166 50.1916 65.5799 49.8629C66.4249 49.3935 67.5516 49.5343 68.1149 50.3324C68.7721 51.1774 69.0538 52.351 67.4108 53.4307C66.6127 53.9471 65.4391 53.3838 64.641 53.6185C64.5941 53.6185 64.5471 53.6185 64.5002 53.6185H62.3407C61.5896 53.6185 61.0263 54.2288 60.9793 54.9799C60.9793 55.4494 60.5568 55.8249 60.0874 55.8249H59.9935L59.6649 54.6982L58.4443 56.3413V53.0552H58.4913Z" fill="#0B4870"/>
<path d="M91.8223 65.2139C91.8223 65.2139 90.6487 67.5141 89.8506 67.3733C89.0525 67.2325 88.4892 67.0447 88.63 65.8242C88.7709 64.6506 89.522 63.0545 90.1323 62.2095C90.7426 61.3645 92.4326 60.3787 92.7143 60.3787C93.6062 60.4256 92.2918 61.8339 91.6815 62.585C91.0712 63.2892 90.4609 64.1811 90.8834 64.3689C91.3059 64.5567 92.3856 63.1014 92.949 63.1483C93.5123 63.1953 91.8223 65.2139 91.8223 65.2139Z" fill="#B97A59"/>
<path d="M66.1425 52.3979C65.9077 53.4777 66.2364 54.0879 62.7155 55.7779C59.1478 57.4679 58.0681 56.7638 56.9414 58.5477C56.9414 58.5477 57.4108 55.5432 59.3825 54.5104C61.3542 53.4777 64.7341 52.8204 65.8139 50.4263C65.8139 50.4263 66.2833 51.6938 66.1425 52.3979Z" fill="#0B4870"/>
<path d="M58.0217 68.2185C57.8339 68.3593 57.693 68.4532 57.5522 68.594C57.4114 68.6879 57.2705 68.7818 57.1297 68.8757C56.848 69.0634 56.5664 69.2512 56.2847 69.3921C55.7214 69.7207 55.1111 70.0023 54.5008 70.284C53.2803 70.8004 51.9658 71.129 50.6514 71.3637C47.9755 71.7393 45.2528 71.3637 42.8116 70.4248C41.5911 69.9554 40.4644 69.3451 39.3847 68.6409C38.305 67.9368 37.3191 67.1387 36.3802 66.2937C34.5494 64.6037 32.9533 62.6321 31.5919 60.6135C31.4511 60.3788 31.498 60.0971 31.7327 59.9563C31.9205 59.8154 32.2022 59.8624 32.343 60.0502C33.9861 61.834 35.6761 63.4771 37.5539 64.8854C39.4316 66.2468 41.4502 67.4204 43.6097 68.0307C44.6894 68.3123 45.7691 68.5471 46.8489 68.594C47.9286 68.641 49.0083 68.5471 50.088 68.3593C51.1678 68.1715 52.2005 67.7959 53.1864 67.3734C53.6558 67.1387 54.1722 66.904 54.6416 66.6224C54.8764 66.4815 55.1111 66.3407 55.2989 66.1998C55.3928 66.106 55.5336 66.059 55.6275 65.9651L55.9091 65.7774L56.003 65.6835C56.7072 65.1201 57.74 65.261 58.3033 65.9651C58.8197 66.6693 58.7258 67.6551 58.0217 68.2185Z" fill="#B97A59"/>
<path d="M65.4391 52.6327C65.4391 52.6327 65.58 56.2944 68.7722 58.0313C68.7722 58.0313 67.3639 55.2616 67.4578 53.4777C67.5517 51.6468 65.2513 51.3651 65.4391 52.6327Z" fill="#0B4870"/>
<path d="M60.4629 156.38C60.2282 156.192 60.1343 155.817 60.2752 155.535C60.416 155.3 60.7446 154.69 60.9793 154.221C61.0732 154.033 61.3549 153.986 61.4957 154.174C63.0918 156.286 65.2982 157.695 67.7862 157.507C68.6782 157.882 69.4293 158.962 69.3354 159.478C69.3354 159.572 68.2557 159.854 66.9882 159.431C61.4488 157.601 60.4629 156.38 60.4629 156.38Z" fill="#0B4870"/>
<path d="M32.5313 58.4538C32.5313 58.4538 34.0805 60.5194 33.611 61.2236C33.1416 61.9278 32.6721 62.3033 31.6863 61.6461C30.6535 60.9889 29.5738 59.6275 29.0574 58.6416C28.541 57.6558 28.4471 55.731 28.541 55.4963C29.0104 54.6983 29.7146 56.5291 30.0902 57.4211C30.4657 58.313 30.9821 59.2519 31.3577 58.9233C31.7332 58.6416 30.8413 56.9986 31.1699 56.5291C31.4985 56.0127 32.5313 58.4538 32.5313 58.4538Z" fill="#B97A59"/>
<path d="M239.932 172.717H8.02639C3.98917 172.717 0.75 169.477 0.75 165.44C0.75 161.403 3.98917 158.164 8.02639 158.164H239.932C243.969 158.164 247.208 161.403 247.208 165.44C247.208 169.477 243.969 172.717 239.932 172.717Z" fill="#D3D3D3"/>
<path d="M58.3973 33.7139L55.3459 30.3809L17.9781 64.5565C15.3962 62.9134 12.1101 62.4909 9.01171 63.6646C3.84782 65.6362 1.26586 71.4104 3.28448 76.5743C5.30309 81.7382 11.0303 84.3202 16.1942 82.3016C21.3581 80.3299 23.9401 74.5557 21.9215 69.3918C21.7806 69.0162 21.5928 68.6407 21.4051 68.2651L49.7126 41.8353L53.0926 45.1684L56.4726 41.7414L53.7968 39.0656L54.8296 37.8451L57.5993 40.3331L59.9465 37.6573L57.0359 34.9814L58.3973 33.7139ZM14.9267 79.0154C11.5937 80.2829 7.79115 78.6399 6.52365 75.2599C5.25614 71.9268 6.8992 68.1243 10.2792 66.8568C13.6123 65.5893 17.4148 67.2323 18.6823 70.6123C19.9498 73.9924 18.2598 77.7479 14.9267 79.0154Z" fill="#FFBE55"/>
</svg>
