<svg width="210" height="121" viewBox="0 0 210 121" fill="none" xmlns="http://www.w3.org/2000/svg">
<path d="M0 121H210V0H111.464V19.7385H0V121Z" fill="#6FACB6"/>
<path d="M203.204 113.117V27.0017V5.31421H116.214V15.7083V26.571H60.8252H5.43689L5.43689 69.8438V113.117H103.641H128.447H153.252H203.204Z" fill="#89D2DE"/>
<path d="M5.43688 26.5711L0 19.7385H111.456L116.214 26.5711H5.43688Z" fill="#C6E9F1"/>
<path d="M116.214 5.3142L111.456 0H210L203.204 5.3142H116.214Z" fill="#C6E9F1"/>
<path d="M70.6951 97.0046C70.6951 101.603 74.0611 104.837 78.4831 104.837C81.8931 104.837 84.6651 103.033 85.6991 99.8646H82.1571C81.4311 101.361 80.1111 102.087 78.4611 102.087C75.7771 102.087 73.8631 100.107 73.8631 97.0046C73.8631 93.8806 75.7771 91.9226 78.4611 91.9226C80.1111 91.9226 81.4311 92.6486 82.1571 94.1226H85.6991C84.6651 90.9766 81.8931 89.1506 78.4831 89.1506C74.0611 89.1506 70.6951 92.4066 70.6951 97.0046ZM99.8358 92.5166H96.7338V99.2266C96.7338 101.185 95.6778 102.241 94.0058 102.241C92.3778 102.241 91.2998 101.185 91.2998 99.2266V92.5166H88.2198V99.6666C88.2198 103.011 90.2658 104.859 93.1038 104.859C94.6218 104.859 95.9638 104.199 96.7338 103.165V104.705H99.8358V92.5166ZM119.925 104.705H123.005V97.5546C123.005 94.1886 120.937 92.3406 118.011 92.3406C116.229 92.3406 114.623 93.2866 113.831 94.6726C112.995 93.1546 111.433 92.3406 109.541 92.3406C108.023 92.3406 106.725 92.9786 105.955 93.9906V92.5166H102.875V104.705H105.955V97.9726C105.955 96.0366 107.033 95.0246 108.705 95.0246C110.333 95.0246 111.411 96.0366 111.411 97.9726V104.705H114.491V97.9726C114.491 96.0366 115.569 95.0246 117.219 95.0246C118.847 95.0246 119.925 96.0366 119.925 97.9726V104.705ZM125.135 98.5666C125.135 102.373 127.599 104.903 130.679 104.903C132.615 104.903 134.001 103.979 134.727 102.923V104.705H137.829V92.5166H134.727V94.2546C134.001 93.2426 132.659 92.3186 130.701 92.3186C127.599 92.3186 125.135 94.7606 125.135 98.5666ZM134.727 98.6106C134.727 100.921 133.187 102.197 131.493 102.197C129.843 102.197 128.281 100.877 128.281 98.5666C128.281 96.2566 129.843 95.0246 131.493 95.0246C133.187 95.0246 134.727 96.3006 134.727 98.6106ZM143.918 98.6326C143.918 96.2786 145.018 95.5746 146.844 95.5746H147.658V92.3406C145.964 92.3406 144.688 93.1546 143.918 94.4086V92.5166H140.838V104.705H143.918V98.6326ZM159.192 101.229C159.104 96.7626 152.35 98.1486 152.35 95.9266C152.35 95.2226 152.944 94.7606 154.088 94.7606C155.298 94.7606 156.046 95.3986 156.134 96.3446H159.082C158.906 93.9246 157.124 92.3186 154.176 92.3186C151.162 92.3186 149.358 93.9466 149.358 95.9706C149.358 100.437 156.244 99.0506 156.244 101.229C156.244 101.933 155.584 102.483 154.374 102.483C153.142 102.483 152.284 101.779 152.174 100.855H149.072C149.204 103.121 151.338 104.903 154.396 104.903C157.366 104.903 159.192 103.319 159.192 101.229ZM160.928 98.5666C160.928 102.373 163.392 104.903 166.472 104.903C168.408 104.903 169.794 103.979 170.52 102.923V104.705H173.622V92.5166H170.52V94.2546C169.794 93.2426 168.452 92.3186 166.494 92.3186C163.392 92.3186 160.928 94.7606 160.928 98.5666ZM170.52 98.6106C170.52 100.921 168.98 102.197 167.286 102.197C165.636 102.197 164.074 100.877 164.074 98.5666C164.074 96.2566 165.636 95.0246 167.286 95.0246C168.98 95.0246 170.52 96.3006 170.52 98.6106ZM165.042 89.4586V91.6586L170.102 89.3486V86.8406L165.042 89.4586ZM176.631 104.705H179.711V92.5166H176.631V104.705ZM178.193 91.0646C179.271 91.0646 180.085 90.2726 180.085 89.2606C180.085 88.2486 179.271 87.4566 178.193 87.4566C177.093 87.4566 176.301 88.2486 176.301 89.2606C176.301 90.2726 177.093 91.0646 178.193 91.0646ZM181.962 98.5666C181.962 102.373 184.426 104.903 187.528 104.903C189.442 104.903 190.806 104.023 191.532 102.901V104.705H194.656V88.4246H191.532V94.2106C190.696 93.0666 189.156 92.3186 187.55 92.3186C184.426 92.3186 181.962 94.7606 181.962 98.5666ZM191.554 98.6106C191.554 100.921 190.014 102.197 188.32 102.197C186.67 102.197 185.108 100.877 185.108 98.5666C185.108 96.2566 186.67 95.0246 188.32 95.0246C190.014 95.0246 191.554 96.3006 191.554 98.6106Z" fill="#0B4870"/>
<path d="M178.003 54.6759C170.277 54.6759 169.526 64.4352 173.995 67.585C176.271 67.8718 174.903 68.2166 175.123 68.3507C175.979 68.8725 172.068 73.7775 178.003 73.4207C181.267 73.2246 179.787 72.3078 180.643 71.7862C181.907 71.7684 180.664 68.7327 180.665 68.4728C185.766 66.1696 185.728 54.6759 178.003 54.6759Z" fill="#0E538C"/>
<path d="M185.399 72.5481L181.044 70.7143C180.68 70.5613 180.443 70.202 180.443 69.8037V68.6116H175.562V69.8037C175.562 70.202 175.325 70.5613 174.961 70.7143L170.606 72.5481C170.061 72.7782 169.705 73.3169 169.705 73.9142V75.8875C169.705 76.4323 170.142 76.874 170.682 76.874H185.324C185.863 76.874 186.3 76.4323 186.3 75.8875V73.9142C186.3 73.3168 185.944 72.7782 185.399 72.5481Z" fill="#B36A32"/>
<path d="M185.399 72.5482L181.188 70.7751L178.002 72.1644L174.817 70.7751L170.606 72.5482C170.061 72.7783 169.705 73.317 169.705 73.9143V75.8876C169.705 76.4324 170.142 76.8741 170.682 76.8741H185.324C185.863 76.8741 186.3 76.4324 186.3 75.8876V73.9143C186.3 73.3169 185.944 72.7783 185.399 72.5482Z" fill="#FFBE55"/>
<path d="M178.003 72.1644L175.209 70.0468C175.03 69.9111 174.774 69.9553 174.65 70.1436L174.098 70.9804L175.811 73.4036C175.941 73.5879 176.198 73.624 176.372 73.4825L178.003 72.1644Z" fill="#FFE3CA"/>
<path d="M178.003 72.1644L180.796 70.0468C180.976 69.9111 181.231 69.9553 181.355 70.1436L181.907 70.9804L180.195 73.4036C180.065 73.5879 179.808 73.624 179.633 73.4825L178.003 72.1644Z" fill="#FFE3CA"/>
<path d="M173.217 62.2714C173.209 62.5176 173.214 62.7646 173.239 63.01L173.588 66.4622C173.647 67.1125 174.02 67.6912 174.585 68.0085L177.363 69.5689C177.806 69.8171 178.344 69.8171 178.786 69.5689L181.565 68.0085C182.129 67.6914 182.502 67.1125 182.561 66.4622L182.864 63.5554C182.864 59.6093 178.075 61.5823 175.634 59.1158C175.146 60.1025 173.399 61.0158 173.217 62.2714Z" fill="#B77C48"/>
<path d="M148.403 70.4202V67.7109H141.51V70.4202L144.957 73.5163L148.403 70.4202Z" fill="#FCD2B1"/>
<path d="M153.733 71.6875L148.994 70.5607C148.922 70.5438 148.856 70.5148 148.795 70.48L144.957 72.7424L141.268 70.37C141.173 70.4607 141.054 70.5282 140.92 70.5604L136.181 71.6872C135.489 71.852 135 72.4759 135 73.1941V76.2256C135 76.6531 135.343 76.9997 135.766 76.9997H154.148C154.571 76.9997 154.914 76.6531 154.914 76.2256V73.1941C154.914 72.4759 154.424 71.852 153.733 71.6875Z" fill="#CCE9FF"/>
<path d="M145.914 76.9999H143.999L144.239 73.5164H145.675L145.914 76.9999Z" fill="#0B4870"/>
<path d="M145.914 72.7426H143.999V72.9663C143.999 73.4841 144.415 73.9036 144.927 73.9036H144.986C145.499 73.9036 145.914 73.484 145.914 72.9663V72.7426H145.914Z" fill="#0E538C"/>
<path d="M141.456 69.5585L144.956 72.7426C144.956 72.7426 143.976 73.2428 142.766 74.2505C142.517 74.4587 142.139 74.3744 142.005 74.0768L140.361 70.4203L140.881 69.6315C141.011 69.4352 141.282 69.4008 141.456 69.5585Z" fill="#2A94F4"/>
<path d="M148.457 69.5581L144.957 72.7423C144.957 72.7423 145.937 73.2424 147.147 74.2501C147.397 74.4584 147.774 74.374 147.908 74.0765L149.552 70.4198L149.032 69.631C148.903 69.4349 148.631 69.4005 148.457 69.5581Z" fill="#2A94F4"/>
<path d="M150.678 63.6744L150.245 65.4232C150.194 65.6301 150.01 65.7752 149.798 65.7752C149.736 65.7752 149.676 65.7625 149.623 65.7395L149.601 66.2284C149.57 66.9221 149.234 67.5653 148.685 67.9818L147.101 69.1814C146.704 69.4829 146.22 69.6454 145.723 69.6454H144.191C143.694 69.6454 143.211 69.4829 142.812 69.1814L141.229 67.9818C140.68 67.5653 140.343 66.9221 140.312 66.2284L140.291 65.7395C140.237 65.7625 140.177 65.7752 140.115 65.7752C139.905 65.7752 139.72 65.6301 139.669 65.4232L139.237 63.6744C139.111 63.1694 139.491 62.6793 140.006 62.6793H140.007C140.057 62.6793 140.105 62.6839 140.153 62.693L139.979 58.8091H149.935L149.76 62.693C149.808 62.6839 149.856 62.6793 149.906 62.6793H149.908C150.424 62.6793 150.802 63.1694 150.678 63.6744Z" fill="#FFE3CA"/>
<path d="M147.279 56.245L147.637 58.8093C149.276 59.1405 149.512 61.7396 149.546 62.4823C149.553 62.6169 149.595 62.747 149.667 62.8603L150.293 63.8404C150.293 63.8404 150.881 63.0745 151.059 61.1313C151.059 61.1315 151.395 54.6968 147.279 56.245Z" fill="#0B4870"/>
<path d="M140.912 55.9425C138.351 57.8533 138.83 61.1312 138.83 61.1312C139.005 62.679 139.596 63.8403 139.596 63.8403L140.361 63.0662C140.361 63.0662 140.066 60.8303 141.51 59.9701C142.851 59.1719 144.023 59.583 145.22 59.583C148.427 59.583 149.325 58.3614 149.169 56.8738C149.089 56.1039 147.924 54.5005 144.957 54.5514C143.759 54.5719 142.077 55.3296 140.912 55.9425Z" fill="#0B4870"/>
<path d="M169.104 45.3331C168.761 45.7062 168.394 46.0601 168.006 46.3934C167.807 46.564 167.602 46.7298 167.392 46.8877C167.21 47.0264 167.023 47.1619 166.833 47.291C166.775 47.3309 166.717 47.3708 166.657 47.409C166.324 47.6307 165.98 47.8379 165.623 48.0309C163.543 49.1645 161.097 49.8151 158.48 49.8151C156.284 49.8151 154.209 49.3574 152.371 48.5411C149.765 51.2245 145.602 50.9806 145.602 50.9806L148.874 46.3248C146.334 44.1085 144.758 41.0233 144.758 37.6064C144.758 35.1446 145.577 32.8533 146.984 30.9368C147.314 30.4872 147.677 30.0583 148.068 29.6533C148.454 29.2531 148.871 28.8736 149.312 28.5228C149.32 28.5149 149.327 28.5085 149.335 28.5053C149.72 28.1976 150.123 27.9106 150.545 27.6443C150.437 27.9169 150.34 28.1928 150.253 28.4718C149.884 29.6469 149.686 30.8826 149.686 32.1598C149.686 39.7047 156.56 45.8194 165.037 45.8194C166.316 45.8194 167.558 45.6807 168.745 45.416C168.865 45.3905 168.985 45.3618 169.104 45.3331Z" fill="#2A94F4"/>
<path d="M170.717 39.1059C170.717 42.0384 169.556 44.7287 167.62 46.8331C166.324 47.1504 164.961 47.3188 163.553 47.3188C155.076 47.3188 148.203 41.2037 148.203 33.6595C148.203 32.0771 148.506 30.5573 149.061 29.1435C151.301 27.7296 154.039 26.8971 156.996 26.8971C164.574 26.8969 170.717 32.3622 170.717 39.1059Z" fill="url(#paint0_linear_1200_1468)"/>
<path d="M174.299 43.4128L177.961 48.6225C177.961 48.6225 173.302 48.8957 170.387 45.8936C169.51 46.2824 168.583 46.5984 167.62 46.8329C166.324 47.1502 164.961 47.3186 163.553 47.3186C155.076 47.3186 148.203 41.2036 148.203 33.6593C148.203 32.077 148.506 30.5571 149.061 29.1433C151.156 23.8181 156.854 20 163.553 20C172.03 20 178.904 26.1139 178.904 33.6593C178.904 37.4807 177.142 40.934 174.299 43.4128Z" fill="#CCE9FF"/>
<path d="M168.232 32.4062L168.239 32.4109C168.239 33.7136 167.165 35.6368 166.735 36.3604C166.38 36.958 166.099 38.3545 166.012 38.8217C165.926 38.7909 165.832 38.7748 165.732 38.7748H161.437C161.351 38.7748 161.267 38.7874 161.19 38.8114C161.092 38.3353 160.788 36.9533 160.436 36.3604C160.005 35.6368 158.932 33.708 158.932 32.4052L158.938 32.4041C158.934 32.3205 158.932 32.237 158.932 32.1522C158.932 29.5546 161.027 27.4493 163.585 27.4493C166.194 27.4493 168.239 29.5546 168.239 32.1522C168.239 32.2368 168.237 32.3226 168.232 32.4062Z" fill="#FFBE55"/>
<path d="M166.445 39.4234V39.5345H160.726V39.4234C160.726 39.1132 160.919 38.8922 161.19 38.8109C161.267 38.787 161.351 38.7744 161.437 38.7744H165.732C165.832 38.7744 165.926 38.7905 166.012 38.8213C166.267 38.9106 166.445 39.1258 166.445 39.4234Z" fill="#D3D3D3"/>
<path d="M165.792 35.2061L165.523 35.798L165.48 35.893L165.292 36.3039C165.288 36.3131 165.284 36.3224 165.281 36.3326C165.275 36.3498 165.269 36.3691 165.264 36.3898C165.262 36.3989 165.26 36.4102 165.258 36.4206C165.255 36.4308 165.253 36.4412 165.252 36.4515C165.25 36.4619 165.249 36.4721 165.248 36.4825C165.245 36.4927 165.244 36.5019 165.244 36.5123C165.242 36.5319 165.241 36.5501 165.241 36.5651V38.7745H164.84V36.5651C164.84 36.4369 164.877 36.2879 164.93 36.1712L165.381 35.2245H164.843C164.831 35.2245 164.814 35.2244 164.797 35.2257C164.791 35.2257 164.785 35.2268 164.78 35.228C164.775 35.228 164.772 35.2291 164.768 35.2302C164.761 35.2326 164.754 35.2361 164.75 35.2406C164.747 35.2428 164.746 35.2439 164.745 35.2463V35.2476L164.363 35.8932C164.302 35.9997 164.204 36.0501 164.098 36.0456C163.991 36.0398 163.901 35.9687 163.849 35.8555L163.584 35.2763L163.322 35.852C163.27 35.9644 163.179 36.0317 163.073 36.0363C162.965 36.0421 162.87 35.9826 162.808 35.8748L162.427 35.2476C162.412 35.2222 162.357 35.2245 162.328 35.2245H161.788L162.237 36.1723C162.29 36.2879 162.331 36.4369 162.331 36.5651V38.7745H161.98V36.5651C161.98 36.4952 161.93 36.367 161.9 36.3029L161.388 35.2028C161.339 35.0974 161.339 34.9909 161.395 34.9016C161.451 34.8136 161.544 34.7676 161.66 34.7676H162.328C162.497 34.7676 162.682 34.8697 162.767 35.0184L163.048 35.5027L163.324 34.8938C163.417 34.69 163.452 34.6122 163.583 34.6122H163.584C163.594 34.6122 163.603 34.6122 163.612 34.6133C163.712 34.6235 163.751 34.6922 163.825 34.8549C163.831 34.8675 163.837 34.8802 163.842 34.8926L163.976 35.1833L164.122 35.504L164.403 35.0186C164.488 34.8698 164.673 34.7678 164.843 34.7678H165.511C165.542 34.7678 165.57 34.7713 165.597 34.777C165.61 34.7804 165.621 34.7828 165.632 34.7873C165.644 34.7908 165.655 34.7952 165.665 34.801C165.672 34.8032 165.679 34.8065 165.685 34.8112C165.694 34.8158 165.702 34.8204 165.708 34.8262C165.716 34.8308 165.724 34.8365 165.731 34.8445C165.74 34.8525 165.749 34.8617 165.758 34.8719C165.766 34.8812 165.774 34.8915 165.781 34.9028C165.838 34.9921 165.841 35.1009 165.792 35.2061Z" fill="#2A94F4"/>
<path d="M166.44 42.1212C166.357 43.6371 165.135 44.8504 163.584 44.8504C162.084 44.8504 160.816 43.6371 160.73 42.1212H166.44Z" fill="#D3D3D3"/>
<path d="M166.445 40.4474H160.726V41.2075H166.445V40.4474Z" fill="#D3D3D3"/>
<path d="M166.846 39.7121V40.2558C166.846 40.3544 166.726 40.447 166.627 40.447H160.542C160.445 40.447 160.375 40.3544 160.375 40.2558V39.7121C160.375 39.6136 160.445 39.5347 160.542 39.5347H166.627C166.726 39.5347 166.846 39.6136 166.846 39.7121Z" fill="#F2F2F2"/>
<path d="M166.846 41.3765V41.919C166.846 42.0186 166.726 42.1205 166.627 42.1205H160.542C160.445 42.1205 160.375 42.0186 160.375 41.919V41.3765C160.375 41.2769 160.445 41.207 160.542 41.207H166.627C166.726 41.207 166.846 41.2769 166.846 41.3765Z" fill="#F2F2F2"/>
<path d="M163.61 25.6405C163.313 25.6405 163.083 25.3975 163.083 25.0977V23.506C163.083 23.2064 163.313 22.9634 163.61 22.9634C163.906 22.9634 164.136 23.2064 164.136 23.506V25.0977C164.137 25.3975 163.906 25.6405 163.61 25.6405Z" fill="#F4C342"/>
<path d="M163.61 25.6405C163.313 25.6405 163.083 25.3975 163.083 25.0977V23.506C163.083 23.2064 163.313 22.9634 163.61 22.9634C163.906 22.9634 164.136 23.2064 164.136 23.506V25.0977C164.137 25.3975 163.906 25.6405 163.61 25.6405Z" fill="#FFBE55"/>
<path d="M171.997 32.5883H170.422C170.125 32.5883 169.885 32.3557 169.885 32.0559C169.885 31.7562 170.125 31.5237 170.422 31.5237H171.997C172.293 31.5237 172.533 31.7562 172.533 32.0559C172.533 32.3557 172.293 32.5883 171.997 32.5883Z" fill="#F89B36"/>
<path d="M171.997 32.5883H170.422C170.125 32.5883 169.885 32.3557 169.885 32.0559C169.885 31.7562 170.125 31.5237 170.422 31.5237H171.997C172.293 31.5237 172.533 31.7562 172.533 32.0559C172.533 32.3557 172.293 32.5883 171.997 32.5883Z" fill="#FFBE55"/>
<path d="M156.748 32.5883H155.173C154.877 32.5883 154.636 32.3557 154.636 32.0559C154.636 31.7562 154.877 31.5237 155.173 31.5237H156.748C157.045 31.5237 157.285 31.7562 157.285 32.0559C157.285 32.3557 157.045 32.5883 156.748 32.5883Z" fill="#FFBE55"/>
<path d="M158.751 27.6639C158.613 27.6639 158.476 27.611 158.371 27.5051L157.258 26.3795C157.048 26.1676 157.048 25.824 157.258 25.6121C157.467 25.4001 157.807 25.4001 158.017 25.6121L159.131 26.7376C159.34 26.9495 159.34 27.2932 159.131 27.5051C159.026 27.611 158.888 27.6639 158.751 27.6639Z" fill="#FFBE55"/>
<path d="M168.419 27.6639C168.282 27.6639 168.145 27.611 168.04 27.5051C167.83 27.2932 167.83 26.9496 168.04 26.7377L169.153 25.6121C169.363 25.4001 169.703 25.4001 169.913 25.6121C170.122 25.8241 170.122 26.1676 169.913 26.3795L168.799 27.5051C168.694 27.611 168.557 27.6639 168.419 27.6639Z" fill="#F89B36"/>
<path d="M168.419 27.6639C168.282 27.6639 168.145 27.611 168.04 27.5051C167.83 27.2932 167.83 26.9496 168.04 26.7377L169.153 25.6121C169.363 25.4001 169.703 25.4001 169.913 25.6121C170.122 25.8241 170.122 26.1676 169.913 26.3795L168.799 27.5051C168.694 27.611 168.557 27.6639 168.419 27.6639Z" fill="#FFBE55"/>
<defs>
<linearGradient id="paint0_linear_1200_1468" x1="159.46" y1="26.897" x2="159.46" y2="47.3187" gradientUnits="userSpaceOnUse">
<stop offset="0.3943" stop-color="#80E8BE"/>
<stop offset="1" stop-color="#00C278"/>
</linearGradient>
</defs>
</svg>
