<svg width="210" height="121" viewBox="0 0 210 121" fill="none" xmlns="http://www.w3.org/2000/svg">
<path d="M0 121H210V0H111.464V19.7385H0V121Z" fill="#6FACB6"/>
<path d="M203.204 113.117V27.0017V5.31421H116.214V15.7083V26.571H60.8252H5.43689L5.43689 69.8438V113.117H103.641H128.447H153.252H203.204Z" fill="#89D2DE"/>
<path d="M5.43688 26.5711L0 19.7385H111.456L116.214 26.5711H5.43688Z" fill="#C6E9F1"/>
<path d="M116.214 5.3142L111.456 0H210L203.204 5.3142H116.214Z" fill="#C6E9F1"/>
<path d="M173.42 75.3913H143.976C142.637 75.3913 141.552 74.2385 141.552 72.8162V31.3257C141.552 29.9034 142.637 28.7506 143.976 28.7506H173.42C174.758 28.7506 175.843 29.9034 175.843 31.3257V72.8174C175.843 74.2385 174.758 75.3913 173.42 75.3913Z" fill="#F7F7F7"/>
<path d="M173.474 75.3912H143.923C142.615 75.3912 141.554 74.2637 141.554 72.8738V66.4229C141.554 66.4229 147.813 71.2602 158.699 71.2602C169.586 71.2602 175.845 66.4229 175.845 66.4229V72.8738C175.843 74.2649 174.784 75.3912 173.474 75.3912Z" fill="#D3D3D3"/>
<path d="M173.474 75.9797H143.923C142.311 75.9797 141 74.5863 141 72.8739V31.268C141 29.5557 142.311 28.1622 143.923 28.1622H173.475C175.087 28.1622 176.398 29.5557 176.398 31.268V72.8739C176.397 74.5863 175.086 75.9797 173.474 75.9797ZM143.923 29.3391C142.922 29.3391 142.107 30.2043 142.107 31.268V72.8739C142.107 73.9377 142.922 74.8029 143.923 74.8029H173.475C174.476 74.8029 175.291 73.9377 175.291 72.8739V31.268C175.291 30.2043 174.476 29.3391 173.475 29.3391H143.923Z" fill="#0B4870"/>
<path d="M163.362 25.5435C163.362 22.806 161.274 20.5883 158.699 20.5883C156.123 20.5883 154.036 22.8072 154.036 25.5435H146.415C145.851 25.5435 145.395 26.0297 145.395 26.6277V29.4134C145.395 30.0126 145.852 30.4976 146.415 30.4976H170.983C171.547 30.4976 172.003 30.0114 172.003 29.4134V26.6277C172.003 26.0285 171.546 25.5435 170.983 25.5435H163.362V25.5435ZM158.921 26.4207C157.8 26.5712 156.857 25.5688 156.998 24.3775C157.094 23.5653 157.712 22.9095 158.476 22.8072C159.598 22.6568 160.541 23.6591 160.4 24.8516C160.302 25.6639 159.685 26.3197 158.921 26.4207Z" fill="#D3D3D3"/>
<path d="M170.982 31.0874H146.415C145.547 31.0874 144.841 30.3365 144.841 29.4148V26.6279C144.841 25.7049 145.548 24.9553 146.415 24.9553H153.511C153.788 22.1744 156.009 20 158.698 20C161.387 20 163.608 22.1744 163.885 24.9553H170.982C171.851 24.9553 172.556 25.7061 172.556 26.6279V29.4136C172.557 30.3365 171.851 31.0874 170.982 31.0874ZM146.415 26.1321C146.157 26.1321 145.948 26.3547 145.948 26.6291V29.4148C145.948 29.6891 146.157 29.9117 146.415 29.9117H170.983C171.241 29.9117 171.451 29.6891 171.451 29.4148V26.6279C171.451 26.3535 171.241 26.1309 170.983 26.1309H162.81V25.5425C162.81 23.1346 160.966 21.1744 158.7 21.1744C156.434 21.1744 154.59 23.1334 154.59 25.5425V26.1309H146.415V26.1321ZM158.698 27.025C158.097 27.025 157.525 26.7759 157.095 26.3186C156.595 25.788 156.36 25.0539 156.449 24.3043C156.576 23.2345 157.399 22.3585 158.406 22.2237C159.111 22.1287 159.802 22.379 160.303 22.9096C160.802 23.4403 161.038 24.1743 160.948 24.9252C160.821 25.9961 159.997 26.8697 158.99 27.0045C158.893 27.0178 158.794 27.025 158.698 27.025ZM158.697 23.3813C158.647 23.3813 158.596 23.3849 158.545 23.391C158.032 23.4595 157.612 23.906 157.548 24.4511C157.502 24.8373 157.622 25.2152 157.878 25.4871C158.134 25.7591 158.49 25.8866 158.853 25.8385C159.366 25.7699 159.786 25.3247 159.851 24.7784C159.897 24.3921 159.776 24.0143 159.52 23.7423C159.299 23.5089 159.006 23.3813 158.697 23.3813Z" fill="#0B4870"/>
<path d="M178.378 67.6298H164.136V59.1885C164.136 55.0154 167.331 51.6208 171.258 51.6208C175.184 51.6208 178.378 55.0154 178.378 59.1885V67.6298V67.6298ZM166.307 65.3218H176.205V59.1885C176.205 56.2885 173.986 53.9288 171.257 53.9288C168.528 53.9288 166.307 56.2885 166.307 59.1885V65.3218Z" fill="#FFBE55"/>
<path d="M178.931 68.2181H163.583V59.1884C163.583 54.6916 167.025 51.0323 171.258 51.0323C175.49 51.0323 178.932 54.6904 178.932 59.1884V68.2181H178.931ZM164.689 67.0413H177.824V59.1884C177.824 55.3402 174.877 52.2092 171.257 52.2092C167.636 52.2092 164.689 55.3402 164.689 59.1884V67.0413ZM176.76 65.9102H165.755V59.1884C165.755 55.9635 168.223 53.3403 171.258 53.3403C174.292 53.3403 176.76 55.9635 176.76 59.1884V65.9102V65.9102ZM166.861 64.7333H175.653V59.1884C175.653 56.6121 173.681 54.5172 171.257 54.5172C168.833 54.5172 166.861 56.6121 166.861 59.1884V64.7333Z" fill="#0B4870"/>
<path d="M176.753 79.4114H165.762C163.721 79.4114 162.068 77.6534 162.068 75.4862V67.7416C162.068 65.5733 163.722 63.8164 165.762 63.8164H176.753C178.793 63.8164 180.446 65.5745 180.446 67.7416V75.4862C180.447 77.6546 178.793 79.4114 176.753 79.4114Z" fill="#FFBE55"/>
<path d="M176.835 80.0001H165.679C163.383 80.0001 161.514 78.0147 161.514 75.5743V67.6541C161.514 65.2137 163.383 63.2283 165.679 63.2283H176.835C179.132 63.2283 181 65.2137 181 67.6541V75.5743C181 78.0147 179.132 80.0001 176.835 80.0001ZM165.679 64.4051C163.993 64.4051 162.62 65.8635 162.62 67.6553V75.5755C162.62 77.3673 163.993 78.8257 165.679 78.8257H176.835C178.521 78.8257 179.894 77.3673 179.894 75.5755V67.6553C179.894 65.8635 178.521 64.4051 176.835 64.4051H165.679Z" fill="#0B4870"/>
<path d="M172.929 74.4153L172.188 71.4684C172.489 71.1892 172.689 70.7921 172.689 70.3336C172.689 69.4937 172.048 68.8126 171.257 68.8126C170.467 68.8126 169.826 69.4937 169.826 70.3336C169.826 70.7909 170.025 71.1892 170.327 71.4684L169.586 74.4153H172.929Z" fill="#FFBE55"/>
<path d="M173.65 75.0035H168.864L169.711 71.6366C169.426 71.2648 169.272 70.8136 169.272 70.3346C169.272 69.171 170.162 68.2252 171.257 68.2252C172.352 68.2252 173.242 69.171 173.242 70.3346C173.242 70.8136 173.088 71.2648 172.803 71.6366L173.65 75.0035ZM170.306 73.8267H172.207L171.564 71.266L171.824 71.0253C171.941 70.9183 172.136 70.6848 172.136 70.3346C172.136 69.8196 171.742 69.4021 171.257 69.4021C170.772 69.4021 170.379 69.8208 170.379 70.3346C170.379 70.6848 170.574 70.9183 170.69 71.0253L170.95 71.266L170.306 73.8267Z" fill="#0B4870"/>
<path d="M169.448 42.8763L166.816 40.0798L155.707 51.8856L150.581 46.4394L147.949 49.2371L155.659 57.4305L155.707 57.3812L155.753 57.4305L169.448 42.8763Z" fill="#CCE9FF"/>
<path d="M155.751 58.2633L155.705 58.2139L155.659 58.2633L147.165 49.2372L150.58 45.608L155.705 51.0542L166.815 39.2484L170.23 42.8776L155.751 58.2633ZM155.706 56.5485L155.753 56.5979L168.665 42.8764L166.816 40.9114L155.706 52.7172L150.581 47.2709L148.732 49.236L155.66 56.5979L155.706 56.5485Z" fill="#0B4870"/>
<path d="M22.5526 105.509H25.2166L20.6986 92.9268H17.7646L13.2466 105.509H15.8926L16.7206 103.115H21.7246L22.5526 105.509ZM21.0406 101.099H17.4046L19.2226 95.8428L21.0406 101.099ZM33.8894 105.509H36.4094V99.6588C36.4094 96.9048 34.7534 95.3928 32.4314 95.3928C31.1534 95.3928 30.0734 95.9328 29.4254 96.7788V95.5368H26.9054V105.509H29.4254V100.001C29.4254 98.3988 30.3074 97.5348 31.6754 97.5348C33.0074 97.5348 33.8894 98.3988 33.8894 100.001V105.509ZM45.6148 98.6508V94.9968H47.6128C49.0348 94.9968 49.6648 95.6808 49.6648 96.8328C49.6648 97.9488 49.0348 98.6508 47.6128 98.6508H45.6148ZM52.2568 96.8328C52.2568 94.6548 50.7448 92.9448 47.7208 92.9448H43.0948V105.509H45.6148V100.685H47.7208C50.9608 100.685 52.2568 98.7408 52.2568 96.8328ZM56.566 100.541C56.566 98.6148 57.466 98.0388 58.96 98.0388H59.626V95.3928C58.24 95.3928 57.196 96.0588 56.566 97.0848V95.5368H54.046V105.509H56.566V100.541ZM61.4313 105.509H63.9513V95.5368H61.4313V105.509ZM60.5133 93.0348V94.8348L64.6533 92.9448V90.8928L60.5133 93.0348ZM76.174 100.523C76.174 97.3728 73.924 95.3748 71.044 95.3748C68.164 95.3748 65.914 97.3728 65.914 100.523C65.914 103.655 68.092 105.671 70.972 105.671C73.87 105.671 76.174 103.655 76.174 100.523ZM68.47 100.523C68.47 98.5248 69.676 97.5708 71.008 97.5708C72.34 97.5708 73.582 98.5248 73.582 100.523C73.582 102.503 72.304 103.475 70.972 103.475C69.622 103.475 68.47 102.503 68.47 100.523ZM80.5426 96.9948V92.1888H78.0226V105.509H80.5426V104.087C81.1546 104.951 82.2706 105.671 83.8366 105.671C86.3926 105.671 88.3906 103.601 88.3906 100.487C88.3906 97.3728 86.3926 95.3748 83.8366 95.3748C82.3246 95.3748 81.1546 96.0768 80.5426 96.9948ZM85.8166 100.487C85.8166 102.377 84.5386 103.457 83.1706 103.457C81.8206 103.457 80.5426 102.413 80.5426 100.523C80.5426 98.6328 81.8206 97.5888 83.1706 97.5888C84.5386 97.5888 85.8166 98.5968 85.8166 100.487ZM90.2218 105.509H92.7418V100.001C92.7418 98.3988 93.6238 97.5348 94.9918 97.5348C96.3238 97.5348 97.2058 98.3988 97.2058 100.001V105.509H99.7258V99.6588C99.7258 96.9048 98.0878 95.3928 95.8378 95.3928C94.5058 95.3928 93.3898 95.9328 92.7418 96.7788V92.1888H90.2218V105.509ZM101.474 100.487C101.474 103.601 103.49 105.671 106.01 105.671C107.594 105.671 108.728 104.915 109.322 104.051V105.509H111.86V95.5368H109.322V96.9588C108.728 96.1308 107.63 95.3748 106.028 95.3748C103.49 95.3748 101.474 97.3728 101.474 100.487ZM109.322 100.523C109.322 102.413 108.062 103.457 106.676 103.457C105.326 103.457 104.048 102.377 104.048 100.487C104.048 98.5968 105.326 97.5888 106.676 97.5888C108.062 97.5888 109.322 98.6328 109.322 100.523ZM104.84 93.0348V94.8348L108.98 92.9448V90.8928L104.84 93.0348ZM114.321 105.509H116.841V95.5368H114.321V105.509ZM115.599 94.3488C116.481 94.3488 117.147 93.7008 117.147 92.8728C117.147 92.0448 116.481 91.3968 115.599 91.3968C114.699 91.3968 114.051 92.0448 114.051 92.8728C114.051 93.7008 114.699 94.3488 115.599 94.3488ZM118.683 100.487C118.683 103.601 120.699 105.671 123.237 105.671C124.803 105.671 125.919 104.951 126.513 104.033V105.509H129.069V92.1888H126.513V96.9228C125.829 95.9868 124.569 95.3748 123.255 95.3748C120.699 95.3748 118.683 97.3728 118.683 100.487ZM126.531 100.523C126.531 102.413 125.271 103.457 123.885 103.457C122.535 103.457 121.257 102.377 121.257 100.487C121.257 98.5968 122.535 97.5888 123.885 97.5888C125.271 97.5888 126.531 98.6328 126.531 100.523ZM135.814 97.4448C137.11 97.4448 138.154 98.2728 138.19 99.5868H133.456C133.654 98.2188 134.608 97.4448 135.814 97.4448ZM140.548 102.377H137.83C137.506 103.043 136.912 103.583 135.832 103.583C134.572 103.583 133.564 102.755 133.438 101.279H140.728C140.782 100.955 140.8 100.631 140.8 100.307C140.8 97.3368 138.766 95.3748 135.886 95.3748C132.934 95.3748 130.882 97.3728 130.882 100.523C130.882 103.655 132.988 105.671 135.886 105.671C138.352 105.671 140.008 104.213 140.548 102.377ZM141.992 100.487C141.992 103.601 144.008 105.671 146.528 105.671C148.112 105.671 149.246 104.915 149.84 104.051V105.509H152.378V95.5368H149.84V96.9588C149.246 96.1308 148.148 95.3748 146.546 95.3748C144.008 95.3748 141.992 97.3728 141.992 100.487ZM149.84 100.523C149.84 102.413 148.58 103.457 147.194 103.457C145.844 103.457 144.566 102.377 144.566 100.487C144.566 98.5968 145.844 97.5888 147.194 97.5888C148.58 97.5888 149.84 98.6328 149.84 100.523ZM154.191 100.523C154.191 103.655 156.243 105.671 159.123 105.671C161.607 105.671 163.281 104.267 163.821 102.143H161.103C160.797 103.043 160.149 103.511 159.105 103.511C157.701 103.511 156.765 102.467 156.765 100.523C156.765 98.5788 157.701 97.5168 159.105 97.5168C160.149 97.5168 160.815 98.0568 161.103 98.9028H163.821C163.281 96.6708 161.607 95.3748 159.123 95.3748C156.243 95.3748 154.191 97.3908 154.191 100.523ZM165.667 105.509H168.187V100.001C168.187 98.3988 169.069 97.5348 170.437 97.5348C171.769 97.5348 172.651 98.3988 172.651 100.001V105.509H175.171V99.6588C175.171 96.9048 173.533 95.3928 171.283 95.3928C169.951 95.3928 168.835 95.9328 168.187 96.7788V92.1888H165.667V105.509ZM176.919 100.487C176.919 103.601 178.935 105.671 181.455 105.671C183.039 105.671 184.173 104.915 184.767 104.051V105.509H187.305V95.5368H184.767V96.9588C184.173 96.1308 183.075 95.3748 181.473 95.3748C178.935 95.3748 176.919 97.3728 176.919 100.487ZM184.767 100.523C184.767 102.413 183.507 103.457 182.121 103.457C180.771 103.457 179.493 102.377 179.493 100.487C179.493 98.5968 180.771 97.5888 182.121 97.5888C183.507 97.5888 184.767 98.6328 184.767 100.523ZM197.507 102.665C197.435 99.0108 191.909 100.145 191.909 98.3268C191.909 97.7508 192.395 97.3728 193.331 97.3728C194.321 97.3728 194.933 97.8948 195.005 98.6688H197.417C197.273 96.6888 195.815 95.3748 193.403 95.3748C190.937 95.3748 189.461 96.7068 189.461 98.3628C189.461 102.017 195.095 100.883 195.095 102.665C195.095 103.241 194.555 103.691 193.565 103.691C192.557 103.691 191.855 103.115 191.765 102.359H189.227C189.335 104.213 191.081 105.671 193.583 105.671C196.013 105.671 197.507 104.375 197.507 102.665Z" fill="#0B4870"/>
</svg>
