<svg width="210" height="121" viewBox="0 0 210 121" fill="none" xmlns="http://www.w3.org/2000/svg">
<path d="M0 121H210V0H111.464V19.7385H0V121Z" fill="#6FACB6"/>
<path d="M203.204 113.117V27.0017V5.31421H116.214V15.7083V26.571H60.8252H5.43689L5.43689 69.8438V113.117H103.641H128.447H153.252H203.204Z" fill="#89D2DE"/>
<path d="M5.43688 26.5711L0 19.7385H111.456L116.214 26.5711H5.43688Z" fill="#C6E9F1"/>
<path d="M116.214 5.3142L111.456 0H210L203.204 5.3142H116.214Z" fill="#C6E9F1"/>
<path d="M137.933 49.8142L129.252 40.6824C128.916 40.3288 128.916 39.756 129.252 39.4024L137.933 30.2699C150.949 16.578 172.052 16.578 185.067 30.2699L193.748 39.4024C194.084 39.756 194.084 40.3288 193.748 40.6824L185.067 49.8142C173.869 61.5944 156.684 63.2393 143.814 54.7489C141.725 53.3712 139.75 51.7263 137.933 49.8142Z" fill="#CCE9FF"/>
<path d="M176.372 40.0416C176.372 48.682 169.714 55.6866 161.5 55.6866C153.286 55.6866 146.627 48.682 146.627 40.0416C146.627 31.4005 153.286 24.3958 161.5 24.3958C169.714 24.3958 176.372 31.4005 176.372 40.0416Z" fill="#2A94F4"/>
<path d="M172.654 38.8678H169.976C169.475 34.8446 166.44 31.651 162.615 31.1242V28.3074C162.615 27.6589 162.116 27.1343 161.5 27.1343C160.884 27.1343 160.384 27.6589 160.384 28.3074V31.1242C156.56 31.651 153.524 34.8448 153.023 38.8678H150.345C149.729 38.8678 149.229 39.3932 149.229 40.0417C149.229 40.6894 149.729 41.2148 150.345 41.2148H153.023C153.524 45.2381 156.56 48.4316 160.384 48.9584V51.7752C160.384 52.4237 160.884 52.9491 161.5 52.9491C162.116 52.9491 162.615 52.4237 162.615 51.7752V48.9584C166.44 48.4316 169.475 45.2379 169.976 41.2148H172.654C173.27 41.2148 173.77 40.6894 173.77 40.0417C173.77 39.3932 173.27 38.8678 172.654 38.8678ZM160.385 33.498V35.9031C159.025 36.309 157.952 37.4378 157.566 38.8676H155.28C155.743 36.1408 157.792 33.9861 160.385 33.498ZM160.385 46.5854C157.792 46.0975 155.743 43.9425 155.28 41.215H157.566C157.952 42.6456 159.025 43.7736 160.385 44.1802V46.5854V46.5854ZM161.5 41.9971C160.475 41.9971 159.64 41.1201 159.64 40.0417C159.64 38.9632 160.475 38.0855 161.5 38.0855C162.525 38.0855 163.359 38.9632 163.359 40.0417C163.359 41.1201 162.525 41.9971 161.5 41.9971ZM162.615 46.5854V44.1801C163.975 43.7734 165.048 42.6454 165.434 41.2148H167.72C167.256 43.9418 165.208 46.0973 162.615 46.5854ZM165.434 38.8678C165.048 37.438 163.975 36.3092 162.615 35.9033V33.4982C165.208 33.9861 167.256 36.141 167.72 38.8678H165.434Z" fill="#F7F7F7"/>
<path d="M130.617 37.9645L137.933 30.2689C150.948 16.577 172.051 16.577 185.067 30.2689L192.382 37.9645C183.881 32.6019 173.157 29.4019 161.5 29.4019C149.843 29.4019 139.118 32.6019 130.617 37.9645Z" fill="#FFBE55"/>
<path d="M19.1264 100.169C19.1264 103.849 21.6464 105.649 24.7064 105.649C27.7664 105.649 30.4064 103.849 30.4064 100.169V91.5488H27.5864V100.189C27.5864 102.109 26.5464 103.109 24.7464 103.109C22.9664 103.109 21.9264 102.109 21.9264 100.189V91.5488H19.1264V100.169ZM22.3264 88.7488V90.7488L26.9264 88.6488V86.3688L22.3264 88.7488ZM41.7117 102.349C41.6317 98.2888 35.4917 99.5488 35.4917 97.5288C35.4917 96.8888 36.0317 96.4688 37.0717 96.4688C38.1717 96.4688 38.8517 97.0488 38.9317 97.9088H41.6117C41.4517 95.7088 39.8317 94.2488 37.1517 94.2488C34.4117 94.2488 32.7717 95.7288 32.7717 97.5688C32.7717 101.629 39.0317 100.369 39.0317 102.349C39.0317 102.989 38.4317 103.489 37.3317 103.489C36.2117 103.489 35.4317 102.849 35.3317 102.009H32.5117C32.6317 104.069 34.5717 105.689 37.3517 105.689C40.0517 105.689 41.7117 104.249 41.7117 102.349ZM43.2902 99.9288C43.2902 103.389 45.5302 105.689 48.3302 105.689C50.0902 105.689 51.3502 104.849 52.0102 103.889V105.509H54.8302V94.4288H52.0102V96.0088C51.3502 95.0888 50.1302 94.2488 48.3502 94.2488C45.5302 94.2488 43.2902 96.4688 43.2902 99.9288ZM52.0102 99.9688C52.0102 102.069 50.6102 103.229 49.0702 103.229C47.5702 103.229 46.1502 102.029 46.1502 99.9288C46.1502 97.8288 47.5702 96.7088 49.0702 96.7088C50.6102 96.7088 52.0102 97.8688 52.0102 99.9688ZM47.0302 91.6488V93.6488L51.6302 91.5488V89.2688L47.0302 91.6488ZM57.5649 105.509H60.3649V94.4288H57.5649V105.509ZM58.9849 93.1088C59.9649 93.1088 60.7049 92.3888 60.7049 91.4688C60.7049 90.5488 59.9649 89.8288 58.9849 89.8288C57.9849 89.8288 57.2649 90.5488 57.2649 91.4688C57.2649 92.3888 57.9849 93.1088 58.9849 93.1088ZM62.4113 99.9288C62.4113 103.389 64.6513 105.689 67.4713 105.689C69.2113 105.689 70.4513 104.889 71.1113 103.869V105.509H73.9513V90.7088H71.1113V95.9688C70.3513 94.9288 68.9513 94.2488 67.4913 94.2488C64.6513 94.2488 62.4113 96.4688 62.4113 99.9288ZM71.1313 99.9688C71.1313 102.069 69.7313 103.229 68.1913 103.229C66.6913 103.229 65.2713 102.029 65.2713 99.9288C65.2713 97.8288 66.6913 96.7088 68.1913 96.7088C69.7313 96.7088 71.1313 97.8688 71.1313 99.9688ZM81.4516 105.509H84.2516V99.6088H88.7116V97.3888H84.2516V93.8088H90.0716V91.5488H81.4516V105.509ZM92.057 105.509H94.857V99.3888C94.857 97.6088 95.837 96.6488 97.357 96.6488C98.837 96.6488 99.817 97.6088 99.817 99.3888V105.509H102.617V99.0088C102.617 95.9488 100.797 94.2688 98.297 94.2688C96.817 94.2688 95.577 94.8688 94.857 95.8088V90.7088H92.057V105.509ZM108.08 99.9888C108.08 97.8488 109.08 97.2088 110.74 97.2088H111.48V94.2688C109.94 94.2688 108.78 95.0088 108.08 96.1488V94.4288H105.28V105.509H108.08V99.9888ZM118.126 96.5488C119.566 96.5488 120.726 97.4688 120.766 98.9288H115.506C115.726 97.4088 116.786 96.5488 118.126 96.5488ZM123.386 102.029H120.366C120.006 102.769 119.346 103.369 118.146 103.369C116.746 103.369 115.626 102.449 115.486 100.809H123.586C123.646 100.449 123.666 100.089 123.666 99.7288C123.666 96.4288 121.406 94.2488 118.206 94.2488C114.926 94.2488 112.646 96.4688 112.646 99.9688C112.646 103.449 114.986 105.689 118.206 105.689C120.946 105.689 122.786 104.069 123.386 102.029ZM124.989 99.9288C124.989 103.389 127.229 105.689 130.029 105.689C131.789 105.689 133.049 104.849 133.709 103.889V105.509H136.529V94.4288H133.709V96.0088C133.049 95.0888 131.829 94.2488 130.049 94.2488C127.229 94.2488 124.989 96.4688 124.989 99.9288ZM133.709 99.9688C133.709 102.069 132.309 103.229 130.769 103.229C129.269 103.229 127.849 102.029 127.849 99.9288C127.849 97.8288 129.269 96.7088 130.769 96.7088C132.309 96.7088 133.709 97.8688 133.709 99.9688ZM138.544 99.9288C138.544 103.389 140.784 105.689 143.604 105.689C145.344 105.689 146.604 104.829 147.264 103.869V105.589C147.264 107.649 146.064 108.529 144.524 108.529C143.124 108.529 142.084 107.869 141.804 106.869H139.024C139.304 109.409 141.484 110.969 144.604 110.969C148.244 110.969 150.084 108.589 150.084 105.589V94.4288H147.264V96.0088C146.604 95.0488 145.344 94.2488 143.604 94.2488C140.784 94.2488 138.544 96.4688 138.544 99.9288ZM147.264 99.9688C147.264 102.069 145.864 103.229 144.324 103.229C142.824 103.229 141.404 102.029 141.404 99.9288C141.404 97.8288 142.824 96.7088 144.324 96.7088C145.864 96.7088 147.264 97.8688 147.264 99.9688ZM155.619 99.9888C155.619 97.8488 156.619 97.2088 158.279 97.2088H159.019V94.2688C157.479 94.2688 156.319 95.0088 155.619 96.1488V94.4288H152.819V105.509H155.619V99.9888ZM160.185 99.9288C160.185 103.389 162.425 105.689 165.225 105.689C166.985 105.689 168.245 104.849 168.905 103.889V105.509H171.725V94.4288H168.905V96.0088C168.245 95.0888 167.025 94.2488 165.245 94.2488C162.425 94.2488 160.185 96.4688 160.185 99.9288ZM168.905 99.9688C168.905 102.069 167.505 103.229 165.965 103.229C164.465 103.229 163.045 102.029 163.045 99.9288C163.045 97.8288 164.465 96.7088 165.965 96.7088C167.505 96.7088 168.905 97.8688 168.905 99.9688ZM173.739 99.9688C173.739 103.449 176.019 105.689 179.219 105.689C181.979 105.689 183.839 104.129 184.439 101.769H181.419C181.079 102.769 180.359 103.289 179.199 103.289C177.639 103.289 176.599 102.129 176.599 99.9688C176.599 97.8088 177.639 96.6288 179.199 96.6288C180.359 96.6288 181.099 97.2288 181.419 98.1688H184.439C183.839 95.6888 181.979 94.2488 179.219 94.2488C176.019 94.2488 173.739 96.4888 173.739 99.9688ZM186.491 105.509H189.291V99.3888C189.291 97.6088 190.271 96.6488 191.791 96.6488C193.271 96.6488 194.251 97.6088 194.251 99.3888V105.509H197.051V99.0088C197.051 95.9488 195.231 94.2688 192.731 94.2688C191.251 94.2688 190.011 94.8688 189.291 95.8088V90.7088H186.491V105.509Z" fill="#0B4870"/>
</svg>
