<svg width="210" height="121" viewBox="0 0 210 121" fill="none" xmlns="http://www.w3.org/2000/svg">
<path d="M0 121H210V0H111.464V19.7385H0V121Z" fill="#6FACB6"/>
<path d="M203.204 113.117V27.0017V5.31421H116.214V15.7083V26.571H60.8252H5.43689L5.43689 69.8438V113.117H103.641H128.447H153.252H203.204Z" fill="#89D2DE"/>
<path d="M5.43688 26.5711L0 19.7385H111.456L116.214 26.5711H5.43688Z" fill="#C6E9F1"/>
<path d="M116.214 5.3142L111.456 0H210L203.204 5.3142H116.214Z" fill="#C6E9F1"/>
<path d="M52.0857 90.8557H43.9857V104.836H52.0857V102.556H46.7857V98.8557H51.4857V96.6357H46.7857V93.1357H52.0857V90.8557ZM65.3302 99.2957C65.3302 95.7957 62.8302 93.5757 59.6302 93.5757C56.4302 93.5757 53.9302 95.7957 53.9302 99.2957C53.9302 102.776 56.3502 105.016 59.5502 105.016C62.7702 105.016 65.3302 102.776 65.3302 99.2957ZM56.7702 99.2957C56.7702 97.0757 58.1102 96.0157 59.5902 96.0157C61.0702 96.0157 62.4502 97.0757 62.4502 99.2957C62.4502 101.496 61.0302 102.576 59.5502 102.576C58.0502 102.576 56.7702 101.496 56.7702 99.2957ZM67.3841 104.836H70.1841V90.0357H67.3841V104.836ZM72.2305 99.2557C72.2305 102.716 74.4705 105.016 77.2705 105.016C79.0305 105.016 80.2905 104.176 80.9505 103.216V104.836H83.7705V93.7557H80.9505V95.3357C80.2905 94.4157 79.0705 93.5757 77.2905 93.5757C74.4705 93.5757 72.2305 95.7957 72.2305 99.2557ZM80.9505 99.2957C80.9505 101.396 79.5505 102.556 78.0105 102.556C76.5105 102.556 75.0905 101.356 75.0905 99.2557C75.0905 97.1557 76.5105 96.0357 78.0105 96.0357C79.5505 96.0357 80.9505 97.1957 80.9505 99.2957ZM95.1052 101.676C95.0252 97.6157 88.8852 98.8757 88.8852 96.8557C88.8852 96.2157 89.4252 95.7957 90.4652 95.7957C91.5652 95.7957 92.2452 96.3757 92.3252 97.2357H95.0052C94.8452 95.0357 93.2252 93.5757 90.5452 93.5757C87.8052 93.5757 86.1652 95.0557 86.1652 96.8957C86.1652 100.956 92.4252 99.6957 92.4252 101.676C92.4252 102.316 91.8252 102.816 90.7252 102.816C89.6052 102.816 88.8252 102.176 88.7252 101.336H85.9052C86.0252 103.396 87.9652 105.016 90.7452 105.016C93.4452 105.016 95.1052 103.576 95.1052 101.676ZM107.049 90.8757H102.169V104.836H107.049C111.509 104.836 114.409 102.096 114.409 97.8757C114.409 93.6357 111.509 90.8757 107.049 90.8757ZM104.969 102.456V93.2357H106.949C109.889 93.2357 111.549 94.9757 111.549 97.8757C111.549 100.776 109.889 102.456 106.949 102.456H104.969ZM116.505 104.836H119.305V93.7557H116.505V104.836ZM117.925 92.4357C118.905 92.4357 119.645 91.7157 119.645 90.7957C119.645 89.8757 118.905 89.1557 117.925 89.1557C116.925 89.1557 116.205 89.8757 116.205 90.7957C116.205 91.7157 116.925 92.4357 117.925 92.4357ZM121.352 99.2557C121.352 102.716 123.592 105.016 126.412 105.016C128.152 105.016 129.412 104.156 130.072 103.196V104.916C130.072 106.976 128.872 107.856 127.332 107.856C125.932 107.856 124.892 107.196 124.612 106.196H121.832C122.112 108.736 124.292 110.296 127.412 110.296C131.052 110.296 132.892 107.916 132.892 104.916V93.7557H130.072V95.3357C129.412 94.3757 128.152 93.5757 126.412 93.5757C123.592 93.5757 121.352 95.7957 121.352 99.2557ZM130.072 99.2957C130.072 101.396 128.672 102.556 127.132 102.556C125.632 102.556 124.212 101.356 124.212 99.2557C124.212 97.1557 125.632 96.0357 127.132 96.0357C128.672 96.0357 130.072 97.1957 130.072 99.2957ZM135.626 104.836H138.426V93.7557H135.626V104.836ZM137.046 92.4357C138.026 92.4357 138.766 91.7157 138.766 90.7957C138.766 89.8757 138.026 89.1557 137.046 89.1557C136.046 89.1557 135.326 89.8757 135.326 90.7957C135.326 91.7157 136.046 92.4357 137.046 92.4357ZM141.633 101.396C141.633 103.936 143.053 104.836 145.173 104.836H146.933V102.476H145.633C144.753 102.476 144.453 102.156 144.453 101.416V96.0557H146.933V93.7557H144.453V91.0157H141.633V93.7557H140.313V96.0557H141.633V101.396ZM153.707 95.8757C155.147 95.8757 156.307 96.7957 156.347 98.2557H151.087C151.307 96.7357 152.367 95.8757 153.707 95.8757ZM158.967 101.356H155.947C155.587 102.096 154.927 102.696 153.727 102.696C152.327 102.696 151.207 101.776 151.067 100.136H159.167C159.227 99.7757 159.247 99.4157 159.247 99.0557C159.247 95.7557 156.987 93.5757 153.787 93.5757C150.507 93.5757 148.227 95.7957 148.227 99.2957C148.227 102.776 150.567 105.016 153.787 105.016C156.527 105.016 158.367 103.396 158.967 101.356ZM160.57 99.2557C160.57 102.716 162.81 105.016 165.61 105.016C167.37 105.016 168.63 104.176 169.29 103.216V104.836H172.11V93.7557H169.29V95.3357C168.63 94.4157 167.41 93.5757 165.63 93.5757C162.81 93.5757 160.57 95.7957 160.57 99.2557ZM169.29 99.2957C169.29 101.396 167.89 102.556 166.35 102.556C164.85 102.556 163.43 101.356 163.43 99.2557C163.43 97.1557 164.85 96.0357 166.35 96.0357C167.89 96.0357 169.29 97.1957 169.29 99.2957ZM174.125 99.2957C174.125 102.776 176.405 105.016 179.605 105.016C182.365 105.016 184.225 103.456 184.825 101.096H181.805C181.465 102.096 180.745 102.616 179.585 102.616C178.025 102.616 176.985 101.456 176.985 99.2957C176.985 97.1357 178.025 95.9557 179.585 95.9557C180.745 95.9557 181.485 96.5557 181.805 97.4957H184.825C184.225 95.0157 182.365 93.5757 179.605 93.5757C176.405 93.5757 174.125 95.8157 174.125 99.2957ZM186.876 104.836H189.676V98.7157C189.676 96.9357 190.656 95.9757 192.176 95.9757C193.656 95.9757 194.636 96.9357 194.636 98.7157V104.836H197.436V98.3357C197.436 95.2757 195.616 93.5957 193.116 93.5957C191.636 93.5957 190.396 94.1957 189.676 95.1357V90.0357H186.876V104.836Z" fill="#0B4870"/>
<path d="M173.463 44.6541L173.481 44.6661C173.481 48.0674 170.601 53.0886 169.447 54.9776C168.496 56.5377 167.742 60.1842 167.508 61.4037C167.278 61.323 167.025 61.281 166.758 61.281H155.238C155.007 61.281 154.783 61.3139 154.576 61.3765C154.312 60.1334 153.498 56.5257 152.553 54.9776C151.398 53.0885 148.518 48.0523 148.518 44.6511L148.537 44.648C148.525 44.4299 148.518 44.2116 148.518 43.9905C148.518 37.2089 154.139 31.7123 160.998 31.7123C167.997 31.7123 173.481 37.2089 173.481 43.9905C173.481 44.2118 173.475 44.4361 173.463 44.6541Z" fill="#FFBE55"/>
<path d="M168.669 62.9756V63.2656H153.331V62.9756C153.331 62.1657 153.85 61.5889 154.576 61.3765C154.783 61.3139 155.008 61.281 155.239 61.281H166.759C167.026 61.281 167.278 61.3228 167.509 61.4036C168.192 61.6366 168.669 62.1986 168.669 62.9756Z" fill="#D3D3D3"/>
<path d="M166.919 51.9648L166.196 53.5099L166.081 53.7581L165.577 54.831C165.568 54.855 165.556 54.8789 165.549 54.9058C165.531 54.9506 165.516 55.0014 165.504 55.0552C165.498 55.079 165.492 55.1089 165.486 55.1359C165.48 55.1627 165.473 55.1897 165.47 55.2165C165.464 55.2433 165.461 55.2703 165.458 55.2972C165.452 55.324 165.449 55.3479 165.449 55.3749C165.443 55.4259 165.44 55.4735 165.44 55.5124V61.2809H164.365V55.5126C164.365 55.1779 164.465 54.7892 164.607 54.4843L165.817 52.0126H164.374C164.34 52.0126 164.295 52.0126 164.249 52.0156C164.234 52.0156 164.219 52.0186 164.203 52.0217C164.191 52.0217 164.182 52.0247 164.173 52.0276C164.152 52.0336 164.134 52.0426 164.125 52.0545C164.115 52.0605 164.112 52.0636 164.109 52.0696V52.0726L163.086 53.7582C162.922 54.0361 162.66 54.1678 162.375 54.1559C162.089 54.1407 161.846 53.9555 161.706 53.6597L160.995 52.1473L160.294 53.6506C160.154 53.9436 159.911 54.1199 159.625 54.1319C159.337 54.1469 159.082 53.9914 158.915 53.7105L157.894 52.0726C157.854 52.0066 157.705 52.0127 157.63 52.0127H156.181L157.384 54.4875C157.526 54.7892 157.636 55.178 157.636 55.5127V61.2812H156.694V55.5126C156.694 55.3302 156.56 54.9953 156.481 54.8281L155.108 51.9557C154.977 51.6809 154.977 51.403 155.126 51.1696C155.278 50.9395 155.527 50.8199 155.837 50.8199H157.63C158.082 50.8199 158.577 51.086 158.805 51.4744L159.559 52.7387L160.3 51.1487C160.549 50.6166 160.643 50.4135 160.996 50.4135H160.999C161.023 50.4135 161.048 50.4135 161.072 50.4165C161.342 50.4433 161.446 50.6226 161.643 51.0469C161.661 51.08 161.677 51.1129 161.691 51.1456L162.05 51.9048L162.442 52.7417L163.195 51.4744C163.423 51.086 163.918 50.8199 164.374 50.8199H166.166C166.248 50.8199 166.324 50.829 166.397 50.8438C166.431 50.8528 166.461 50.8588 166.491 50.8706C166.522 50.8799 166.552 50.8916 166.579 50.9066C166.598 50.9125 166.616 50.9216 166.631 50.9334C166.655 50.9454 166.677 50.9574 166.695 50.9724C166.716 50.9842 166.737 50.9993 166.756 51.0201C166.78 51.041 166.804 51.065 166.829 51.092C166.85 51.1158 166.871 51.1427 166.889 51.1726C167.041 51.4059 167.05 51.6898 166.919 51.9648Z" fill="#2A94F4"/>
<path d="M168.658 70.0175C168.437 73.9747 165.159 77.1428 161 77.1428C156.975 77.1428 153.575 73.9748 153.344 70.0175H168.658Z" fill="#D3D3D3"/>
<path d="M168.67 65.6476H153.331V67.6323H168.67V65.6476Z" fill="#D3D3D3"/>
<path d="M169.745 63.7289V65.1487C169.745 65.4056 169.423 65.6477 169.159 65.6477H152.839C152.578 65.6477 152.389 65.4056 152.389 65.1487V63.7289C152.389 63.4719 152.578 63.2656 152.839 63.2656H169.159C169.423 63.2658 169.745 63.4719 169.745 63.7289Z" fill="#F2F2F2"/>
<path d="M169.745 68.0748V69.4914C169.745 69.7515 169.423 70.0175 169.159 70.0175H152.839C152.578 70.0175 152.389 69.7515 152.389 69.4914V68.0748C152.389 67.8147 152.578 67.6324 152.839 67.6324H169.159C169.423 67.6324 169.745 67.8147 169.745 68.0748Z" fill="#F2F2F2"/>
<path d="M161.067 26.9897C160.272 26.9897 159.655 26.3553 159.655 25.5728V21.417C159.655 20.6345 160.272 20 161.067 20C161.862 20 162.48 20.6345 162.48 21.417V25.5728C162.48 26.3553 161.862 26.9897 161.067 26.9897Z" fill="#F4C342"/>
<path d="M161.067 26.9897C160.272 26.9897 159.655 26.3553 159.655 25.5728V21.417C159.655 20.6345 160.272 20 161.067 20C161.862 20 162.48 20.6345 162.48 21.417V25.5728C162.48 26.3553 161.862 26.9897 161.067 26.9897Z" fill="#FFBE55"/>
<path d="M183.56 45.1294H179.336C178.541 45.1294 177.896 44.5217 177.896 43.7395C177.896 42.9567 178.541 42.3496 179.336 42.3496H183.56C184.355 42.3496 185 42.9567 185 43.7395C185 44.5217 184.355 45.1294 183.56 45.1294Z" fill="#F89B36"/>
<path d="M183.56 45.1294H179.336C178.541 45.1294 177.896 44.5217 177.896 43.7395C177.896 42.9567 178.541 42.3496 179.336 42.3496H183.56C184.355 42.3496 185 42.9567 185 43.7395C185 44.5217 184.355 45.1294 183.56 45.1294Z" fill="#FFBE55"/>
<path d="M142.664 45.1294H138.44C137.645 45.1294 137 44.5217 137 43.7395C137 42.9567 137.645 42.3496 138.44 42.3496H142.664C143.459 42.3496 144.104 42.9567 144.104 43.7395C144.104 44.5217 143.459 45.1294 142.664 45.1294Z" fill="#FFBE55"/>
<path d="M148.034 32.2732C147.666 32.2732 147.297 32.1349 147.016 31.8586L144.029 28.9199C143.467 28.3668 143.467 27.4695 144.029 26.9161C144.591 26.3628 145.503 26.3628 146.065 26.9161L149.053 29.8548C149.615 30.4077 149.615 31.305 149.053 31.8586C148.771 32.1349 148.403 32.2732 148.034 32.2732Z" fill="#FFBE55"/>
<path d="M173.965 32.2732C173.597 32.2732 173.228 32.1353 172.947 31.8586C172.385 31.3055 172.385 30.4085 172.947 29.8551L175.934 26.9161C176.496 26.3631 177.407 26.3628 177.97 26.9161C178.532 27.4694 178.532 28.3666 177.97 28.9199L174.983 31.8586C174.702 32.1353 174.334 32.2732 173.965 32.2732Z" fill="#F89B36"/>
<path d="M173.965 32.2732C173.597 32.2732 173.228 32.1353 172.947 31.8586C172.385 31.3055 172.385 30.4085 172.947 29.8551L175.934 26.9161C176.496 26.3631 177.407 26.3628 177.97 26.9161C178.532 27.4694 178.532 28.3666 177.97 28.9199L174.983 31.8586C174.702 32.1353 174.334 32.2732 173.965 32.2732Z" fill="#FFBE55"/>
</svg>
