<svg width="210" height="122" viewBox="0 0 210 122" fill="none" xmlns="http://www.w3.org/2000/svg">
<path d="M0 122H210V0H111.464V19.9016H0V122Z" fill="#6FACB6"/>
<path d="M203.204 114.051V27.2249V5.35815H116.214V15.8381V26.7906H60.8252H5.43689L5.43689 70.421V114.051H103.641H128.447H153.252H203.204Z" fill="#89D2DE"/>
<path d="M5.43688 26.7906L0 19.9016H111.456L116.214 26.7906H5.43688Z" fill="#C6E9F1"/>
<path d="M116.214 5.35812L111.456 0H210L203.204 5.35812H116.214Z" fill="#C6E9F1"/>
<path d="M21.186 105.573C21.186 102.375 16.532 103.389 16.532 101.569C16.532 100.828 17.065 100.477 17.78 100.503C18.56 100.516 19.041 100.984 19.08 101.582H21.082C20.965 99.944 19.691 98.995 17.832 98.995C15.96 98.995 14.634 99.983 14.634 101.621C14.621 104.91 19.301 103.727 19.301 105.69C19.301 106.34 18.794 106.795 17.936 106.795C17.091 106.795 16.61 106.314 16.558 105.586H14.608C14.634 107.302 16.09 108.29 17.975 108.29C20.042 108.29 21.186 107.003 21.186 105.573ZM32.8389 108.199H34.6589V103.974C34.6589 101.985 33.4369 100.893 31.7079 100.893C30.6549 100.893 29.7059 101.452 29.2379 102.271C28.7439 101.374 27.8209 100.893 26.7029 100.893C25.8059 100.893 25.0389 101.27 24.5839 101.868V100.997H22.7639V108.199H24.5839V104.221C24.5839 103.077 25.2209 102.479 26.2089 102.479C27.1709 102.479 27.8079 103.077 27.8079 104.221V108.199H29.6279V104.221C29.6279 103.077 30.2649 102.479 31.2399 102.479C32.2019 102.479 32.8389 103.077 32.8389 104.221V108.199ZM35.9179 104.572C35.9179 106.821 37.3739 108.316 39.1939 108.316C40.3379 108.316 41.1569 107.77 41.5859 107.146V108.199H43.4189V100.997H41.5859V102.024C41.1569 101.426 40.3639 100.88 39.2069 100.88C37.3739 100.88 35.9179 102.323 35.9179 104.572ZM41.5859 104.598C41.5859 105.963 40.6759 106.717 39.6749 106.717C38.6999 106.717 37.7769 105.937 37.7769 104.572C37.7769 103.207 38.6999 102.479 39.6749 102.479C40.6759 102.479 41.5859 103.233 41.5859 104.598ZM52.1515 104.598C52.1515 102.323 50.5265 100.88 48.4465 100.88C46.3665 100.88 44.7415 102.323 44.7415 104.598C44.7415 106.86 46.3145 108.316 48.3945 108.316C50.4875 108.316 52.1515 106.86 52.1515 104.598ZM46.5875 104.598C46.5875 103.155 47.4585 102.466 48.4205 102.466C49.3825 102.466 50.2795 103.155 50.2795 104.598C50.2795 106.028 49.3565 106.73 48.3945 106.73C47.4195 106.73 46.5875 106.028 46.5875 104.598ZM53.4865 108.199H55.3065V100.997H53.4865V108.199ZM54.4095 100.139C55.0465 100.139 55.5275 99.671 55.5275 99.073C55.5275 98.475 55.0465 98.007 54.4095 98.007C53.7595 98.007 53.2915 98.475 53.2915 99.073C53.2915 99.671 53.7595 100.139 54.4095 100.139ZM62.1487 108.199H63.9687V103.974C63.9687 101.985 62.7727 100.893 61.0957 100.893C60.1727 100.893 59.3927 101.283 58.9247 101.894V100.997H57.1047V108.199H58.9247V104.221C58.9247 103.064 59.5617 102.44 60.5497 102.44C61.5117 102.44 62.1487 103.064 62.1487 104.221V108.199ZM65.9854 105.963C65.9854 107.614 66.9084 108.199 68.2864 108.199H69.4304V106.665H68.5854C68.0134 106.665 67.8184 106.457 67.8184 105.976V102.492H69.4304V100.997H67.8184V99.216H65.9854V100.997H65.1274V102.492H65.9854V105.963ZM73.8335 102.375C74.7695 102.375 75.5235 102.973 75.5495 103.922H72.1305C72.2735 102.934 72.9625 102.375 73.8335 102.375ZM77.2525 105.937H75.2895C75.0555 106.418 74.6265 106.808 73.8465 106.808C72.9365 106.808 72.2085 106.21 72.1175 105.144H77.3825C77.4215 104.91 77.4345 104.676 77.4345 104.442C77.4345 102.297 75.9655 100.88 73.8855 100.88C71.7535 100.88 70.2715 102.323 70.2715 104.598C70.2715 106.86 71.7925 108.316 73.8855 108.316C75.6665 108.316 76.8625 107.263 77.2525 105.937ZM85.7179 104.598C85.7179 102.323 84.0929 100.88 82.0129 100.88C79.9329 100.88 78.3079 102.323 78.3079 104.598C78.3079 106.86 79.8809 108.316 81.9609 108.316C84.0539 108.316 85.7179 106.86 85.7179 104.598ZM80.1539 104.598C80.1539 103.155 81.0249 102.466 81.9869 102.466C82.9489 102.466 83.8459 103.155 83.8459 104.598C83.8459 106.028 82.9229 106.73 81.9609 106.73C80.9859 106.73 80.1539 106.028 80.1539 104.598ZM87.0529 108.199H88.8729V100.997H87.0529V108.199ZM87.9759 100.139C88.6129 100.139 89.0939 99.671 89.0939 99.073C89.0939 98.475 88.6129 98.007 87.9759 98.007C87.3259 98.007 86.8579 98.475 86.8579 99.073C86.8579 99.671 87.3259 100.139 87.9759 100.139ZM92.4911 104.611C92.4911 103.22 93.1411 102.804 94.2201 102.804H94.7011V100.893C93.7001 100.893 92.9461 101.374 92.4911 102.115V100.997H90.6711V108.199H92.4911V104.611ZM99.021 102.375C99.957 102.375 100.711 102.973 100.737 103.922H97.318C97.461 102.934 98.15 102.375 99.021 102.375ZM102.44 105.937H100.477C100.243 106.418 99.814 106.808 99.034 106.808C98.124 106.808 97.396 106.21 97.305 105.144H102.57C102.609 104.91 102.622 104.676 102.622 104.442C102.622 102.297 101.153 100.88 99.073 100.88C96.941 100.88 95.459 102.323 95.459 104.598C95.459 106.86 96.98 108.316 99.073 108.316C100.854 108.316 102.05 107.263 102.44 105.937ZM103.482 104.572C103.482 106.821 104.938 108.316 106.758 108.316C107.902 108.316 108.721 107.77 109.15 107.146V108.199H110.983V100.997H109.15V102.024C108.721 101.426 107.928 100.88 106.771 100.88C104.938 100.88 103.482 102.323 103.482 104.572ZM109.15 104.598C109.15 105.963 108.24 106.717 107.239 106.717C106.264 106.717 105.341 105.937 105.341 104.572C105.341 103.207 106.264 102.479 107.239 102.479C108.24 102.479 109.15 103.233 109.15 104.598ZM112.293 104.598C112.293 106.86 113.775 108.316 115.855 108.316C117.649 108.316 118.858 107.302 119.248 105.768H117.285C117.064 106.418 116.596 106.756 115.842 106.756C114.828 106.756 114.152 106.002 114.152 104.598C114.152 103.194 114.828 102.427 115.842 102.427C116.596 102.427 117.077 102.817 117.285 103.428H119.248C118.858 101.816 117.649 100.88 115.855 100.88C113.775 100.88 112.293 102.336 112.293 104.598ZM120.581 108.199H122.401V104.221C122.401 103.064 123.038 102.44 124.026 102.44C124.988 102.44 125.625 103.064 125.625 104.221V108.199H127.445V103.974C127.445 101.985 126.262 100.893 124.637 100.893C123.675 100.893 122.869 101.283 122.401 101.894V98.579H120.581V108.199ZM129.462 105.963C129.462 107.614 130.385 108.199 131.763 108.199H132.907V106.665H132.062C131.49 106.665 131.295 106.457 131.295 105.976V102.492H132.907V100.997H131.295V99.216H129.462V100.997H128.604V102.492H129.462V105.963ZM136.872 103.649C136.872 106.366 138.861 108.277 141.474 108.277C143.489 108.277 145.127 107.211 145.738 105.339H143.645C143.216 106.223 142.436 106.652 141.461 106.652C139.875 106.652 138.744 105.482 138.744 103.649C138.744 101.803 139.875 100.646 141.461 100.646C142.436 100.646 143.216 101.075 143.645 101.946H145.738C145.127 100.087 143.489 99.008 141.474 99.008C138.861 99.008 136.872 100.932 136.872 103.649ZM147.292 108.199H149.112V104.221C149.112 103.064 149.749 102.44 150.737 102.44C151.699 102.44 152.336 103.064 152.336 104.221V108.199H154.156V103.974C154.156 101.985 152.973 100.893 151.348 100.893C150.386 100.893 149.58 101.283 149.112 101.894V98.579H147.292V108.199ZM157.707 104.611C157.707 103.22 158.357 102.804 159.436 102.804H159.917V100.893C158.916 100.893 158.162 101.374 157.707 102.115V100.997H155.887V108.199H157.707V104.611ZM161.143 108.199H162.963V100.997H161.143V108.199ZM162.066 100.139C162.703 100.139 163.184 99.671 163.184 99.073C163.184 98.475 162.703 98.007 162.066 98.007C161.416 98.007 160.948 98.475 160.948 99.073C160.948 99.671 161.416 100.139 162.066 100.139ZM165.047 105.963C165.047 107.614 165.97 108.199 167.348 108.199H168.492V106.665H167.647C167.075 106.665 166.88 106.457 166.88 105.976V102.492H168.492V100.997H166.88V99.216H165.047V100.997H164.189V102.492H165.047V105.963ZM169.801 108.199H171.621V100.997H169.801V108.199ZM170.724 100.139C171.361 100.139 171.842 99.671 171.842 99.073C171.842 98.475 171.361 98.007 170.724 98.007C170.074 98.007 169.606 98.475 169.606 99.073C169.606 99.671 170.074 100.139 170.724 100.139ZM172.951 104.598C172.951 106.86 174.433 108.316 176.513 108.316C178.307 108.316 179.516 107.302 179.906 105.768H177.943C177.722 106.418 177.254 106.756 176.5 106.756C175.486 106.756 174.81 106.002 174.81 104.598C174.81 103.194 175.486 102.427 176.5 102.427C177.254 102.427 177.735 102.817 177.943 103.428H179.906C179.516 101.816 178.307 100.88 176.513 100.88C174.433 100.88 172.951 102.336 172.951 104.598ZM181.239 108.199H183.059V100.997H181.239V108.199ZM182.162 100.139C182.799 100.139 183.28 99.671 183.28 99.073C183.28 98.475 182.799 98.007 182.162 98.007C181.512 98.007 181.044 98.475 181.044 99.073C181.044 99.671 181.512 100.139 182.162 100.139ZM191.657 100.997H189.824V104.962C189.824 106.119 189.2 106.743 188.212 106.743C187.25 106.743 186.613 106.119 186.613 104.962V100.997H184.793V105.222C184.793 107.198 186.002 108.29 187.679 108.29C188.576 108.29 189.369 107.9 189.824 107.289V108.199H191.657V100.997ZM186.691 99.19V100.49L189.681 99.125V97.643L186.691 99.19ZM193.452 108.199H195.272V100.997H193.452V108.199ZM194.375 100.139C195.012 100.139 195.493 99.671 195.493 99.073C195.493 98.475 195.012 98.007 194.375 98.007C193.725 98.007 193.257 98.475 193.257 99.073C193.257 99.671 193.725 100.139 194.375 100.139ZM197.071 108.199H198.891V98.579H197.071V108.199Z" fill="#788995"/>
<ellipse cx="163.871" cy="43.6494" rx="24.1816" ry="25.3847" fill="#EE9D3D"/>
<path d="M176.059 28.3634C175.522 28.0497 174.931 27.8502 174.32 27.7763C173.71 27.7024 173.091 27.7556 172.5 27.9328C171.909 28.1101 171.358 28.4078 170.876 28.8091C170.395 29.2104 169.994 29.7074 169.696 30.2716L161.009 46.6813L156.038 41.4627C155.607 40.9936 155.09 40.6194 154.519 40.362C153.949 40.1046 153.335 39.9691 152.713 39.9634C152.092 39.9577 151.476 40.082 150.901 40.329C150.326 40.5759 149.804 40.9406 149.364 41.4018C148.925 41.863 148.578 42.4114 148.342 43.015C148.107 43.6186 147.989 44.2654 147.994 44.9175C147.999 45.5697 148.129 46.2142 148.374 46.8134C148.619 47.4126 148.975 47.9546 149.422 48.4077L158.78 58.2309C159.664 59.1617 160.857 59.6725 162.088 59.6725L162.736 59.6233C163.453 59.518 164.137 59.2394 164.734 58.8094C165.331 58.3795 165.825 57.8098 166.177 57.1454L177.874 35.0432C178.173 34.4795 178.363 33.8595 178.433 33.2187C178.504 32.578 178.453 31.9289 178.284 31.3086C178.116 30.6883 177.833 30.109 177.451 29.6036C177.069 29.0983 176.596 28.6769 176.059 28.3634V28.3634Z" fill="#FFE3CA"/>
</svg>
