<svg width="210" height="121" viewBox="0 0 210 121" fill="none" xmlns="http://www.w3.org/2000/svg">
<path d="M0 121H210V0H111.464V19.7385H0V121Z" fill="#6FACB6"/>
<path d="M203.204 113.117V27.0017V5.31421H116.214V15.7083V26.571H60.8252H5.43689L5.43689 69.8438V113.117H103.641H128.447H153.252H203.204Z" fill="#89D2DE"/>
<path d="M5.43688 26.5711L0 19.7385H111.456L116.214 26.5711H5.43688Z" fill="#C6E9F1"/>
<path d="M116.214 5.3142L111.456 0H210L203.204 5.3142H116.214Z" fill="#C6E9F1"/>
<path d="M16.9389 100.169C16.9389 103.849 19.4589 105.649 22.5189 105.649C25.5789 105.649 28.2189 103.849 28.2189 100.169V91.5488H25.3989V100.189C25.3989 102.109 24.3589 103.109 22.5589 103.109C20.7789 103.109 19.7389 102.109 19.7389 100.189V91.5488H16.9389V100.169ZM20.1389 88.7488V90.7488L24.7389 88.6488V86.3688L20.1389 88.7488ZM39.5242 102.349C39.4442 98.2888 33.3042 99.5488 33.3042 97.5288C33.3042 96.8888 33.8442 96.4688 34.8842 96.4688C35.9842 96.4688 36.6642 97.0488 36.7442 97.9088H39.4242C39.2642 95.7088 37.6442 94.2488 34.9642 94.2488C32.2242 94.2488 30.5842 95.7288 30.5842 97.5688C30.5842 101.629 36.8442 100.369 36.8442 102.349C36.8442 102.989 36.2442 103.489 35.1442 103.489C34.0242 103.489 33.2442 102.849 33.1442 102.009H30.3242C30.4442 104.069 32.3842 105.689 35.1642 105.689C37.8642 105.689 39.5242 104.249 39.5242 102.349ZM41.1027 99.9288C41.1027 103.389 43.3427 105.689 46.1427 105.689C47.9027 105.689 49.1627 104.849 49.8227 103.889V105.509H52.6427V94.4288H49.8227V96.0088C49.1627 95.0888 47.9427 94.2488 46.1627 94.2488C43.3427 94.2488 41.1027 96.4688 41.1027 99.9288ZM49.8227 99.9688C49.8227 102.069 48.4227 103.229 46.8827 103.229C45.3827 103.229 43.9627 102.029 43.9627 99.9288C43.9627 97.8288 45.3827 96.7088 46.8827 96.7088C48.4227 96.7088 49.8227 97.8688 49.8227 99.9688ZM44.8427 91.6488V93.6488L49.4427 91.5488V89.2688L44.8427 91.6488ZM55.3774 105.509H58.1774V94.4288H55.3774V105.509ZM56.7974 93.1088C57.7774 93.1088 58.5174 92.3888 58.5174 91.4688C58.5174 90.5488 57.7774 89.8288 56.7974 89.8288C55.7974 89.8288 55.0774 90.5488 55.0774 91.4688C55.0774 92.3888 55.7974 93.1088 56.7974 93.1088ZM60.2238 99.9288C60.2238 103.389 62.4638 105.689 65.2838 105.689C67.0238 105.689 68.2638 104.889 68.9238 103.869V105.509H71.7638V90.7088H68.9238V95.9688C68.1638 94.9288 66.7638 94.2488 65.3038 94.2488C62.4638 94.2488 60.2238 96.4688 60.2238 99.9288ZM68.9438 99.9688C68.9438 102.069 67.5438 103.229 66.0038 103.229C64.5038 103.229 63.0838 102.029 63.0838 99.9288C63.0838 97.8288 64.5038 96.7088 66.0038 96.7088C67.5438 96.7088 68.9438 97.8688 68.9438 99.9688ZM79.2641 105.509H82.0641V99.6088H86.5241V97.3888H82.0641V93.8088H87.8841V91.5488H79.2641V105.509ZM89.8695 105.509H92.6695V99.3888C92.6695 97.6088 93.6495 96.6488 95.1695 96.6488C96.6495 96.6488 97.6295 97.6088 97.6295 99.3888V105.509H100.43V99.0088C100.43 95.9488 98.6095 94.2688 96.1095 94.2688C94.6295 94.2688 93.3895 94.8688 92.6695 95.8088V90.7088H89.8695V105.509ZM105.892 99.9888C105.892 97.8488 106.892 97.2088 108.552 97.2088H109.292V94.2688C107.752 94.2688 106.592 95.0088 105.892 96.1488V94.4288H103.092V105.509H105.892V99.9888ZM115.938 96.5488C117.378 96.5488 118.538 97.4688 118.578 98.9288H113.318C113.538 97.4088 114.598 96.5488 115.938 96.5488ZM121.198 102.029H118.178C117.818 102.769 117.158 103.369 115.958 103.369C114.558 103.369 113.438 102.449 113.298 100.809H121.398C121.458 100.449 121.478 100.089 121.478 99.7288C121.478 96.4288 119.218 94.2488 116.018 94.2488C112.738 94.2488 110.458 96.4688 110.458 99.9688C110.458 103.449 112.798 105.689 116.018 105.689C118.758 105.689 120.598 104.069 121.198 102.029ZM122.802 99.9288C122.802 103.389 125.042 105.689 127.842 105.689C129.602 105.689 130.862 104.849 131.522 103.889V105.509H134.342V94.4288H131.522V96.0088C130.862 95.0888 129.642 94.2488 127.862 94.2488C125.042 94.2488 122.802 96.4688 122.802 99.9288ZM131.522 99.9688C131.522 102.069 130.122 103.229 128.582 103.229C127.082 103.229 125.662 102.029 125.662 99.9288C125.662 97.8288 127.082 96.7088 128.582 96.7088C130.122 96.7088 131.522 97.8688 131.522 99.9688ZM136.357 99.9288C136.357 103.389 138.597 105.689 141.417 105.689C143.157 105.689 144.417 104.829 145.077 103.869V105.589C145.077 107.649 143.877 108.529 142.337 108.529C140.937 108.529 139.897 107.869 139.617 106.869H136.837C137.117 109.409 139.297 110.969 142.417 110.969C146.057 110.969 147.897 108.589 147.897 105.589V94.4288H145.077V96.0088C144.417 95.0488 143.157 94.2488 141.417 94.2488C138.597 94.2488 136.357 96.4688 136.357 99.9288ZM145.077 99.9688C145.077 102.069 143.677 103.229 142.137 103.229C140.637 103.229 139.217 102.029 139.217 99.9288C139.217 97.8288 140.637 96.7088 142.137 96.7088C143.677 96.7088 145.077 97.8688 145.077 99.9688ZM153.431 99.9888C153.431 97.8488 154.431 97.2088 156.091 97.2088H156.831V94.2688C155.291 94.2688 154.131 95.0088 153.431 96.1488V94.4288H150.631V105.509H153.431V99.9888ZM157.997 99.9288C157.997 103.389 160.237 105.689 163.037 105.689C164.797 105.689 166.057 104.849 166.717 103.889V105.509H169.537V94.4288H166.717V96.0088C166.057 95.0888 164.837 94.2488 163.057 94.2488C160.237 94.2488 157.997 96.4688 157.997 99.9288ZM166.717 99.9688C166.717 102.069 165.317 103.229 163.777 103.229C162.277 103.229 160.857 102.029 160.857 99.9288C160.857 97.8288 162.277 96.7088 163.777 96.7088C165.317 96.7088 166.717 97.8688 166.717 99.9688ZM171.552 99.9688C171.552 103.449 173.832 105.689 177.032 105.689C179.792 105.689 181.652 104.129 182.252 101.769H179.232C178.892 102.769 178.172 103.289 177.012 103.289C175.452 103.289 174.412 102.129 174.412 99.9688C174.412 97.8088 175.452 96.6288 177.012 96.6288C178.172 96.6288 178.912 97.2288 179.232 98.1688H182.252C181.652 95.6888 179.792 94.2488 177.032 94.2488C173.832 94.2488 171.552 96.4888 171.552 99.9688ZM184.303 105.509H187.103V99.3888C187.103 97.6088 188.083 96.6488 189.603 96.6488C191.083 96.6488 192.063 97.6088 192.063 99.3888V105.509H194.863V99.0088C194.863 95.9488 193.043 94.2688 190.543 94.2688C189.063 94.2688 187.823 94.8688 187.103 95.8088V90.7088H184.303V105.509Z" fill="#788995"/>
<ellipse cx="160.225" cy="43.2915" rx="24.1816" ry="25.1767" fill="#EE9D3D"/>
<path d="M172.413 28.1308C171.876 27.8197 171.285 27.6218 170.675 27.5485C170.064 27.4752 169.446 27.528 168.855 27.7038C168.264 27.8795 167.712 28.1749 167.23 28.5729C166.749 28.9709 166.348 29.4638 166.05 30.0233L157.364 46.2985L152.392 41.1227C151.961 40.6574 151.444 40.2863 150.874 40.031C150.303 39.7757 149.689 39.6413 149.068 39.6357C148.446 39.6301 147.83 39.7533 147.255 39.9983C146.68 40.2432 146.158 40.6049 145.718 41.0623C145.279 41.5197 144.932 42.0636 144.696 42.6623C144.461 43.2609 144.343 43.9024 144.348 44.5492C144.354 45.196 144.483 45.8352 144.728 46.4296C144.973 47.0239 145.33 47.5614 145.776 48.0108L155.134 57.7535C156.018 58.6766 157.211 59.1832 158.442 59.1832L159.09 59.1345C159.807 59.0301 160.491 58.7537 161.088 58.3273C161.686 57.9008 162.179 57.3359 162.531 56.6769L174.228 34.7558C174.527 34.1967 174.717 33.5819 174.787 32.9463C174.858 32.3108 174.807 31.6671 174.639 31.0519C174.47 30.4367 174.187 29.8621 173.805 29.3609C173.423 28.8597 172.95 28.4417 172.413 28.1308V28.1308Z" fill="#FFE3CA"/>
</svg>
