<svg width="210" height="121" viewBox="0 0 210 121" fill="none" xmlns="http://www.w3.org/2000/svg">
<path d="M0 121H210V0H111.464V19.7385H0V121Z" fill="#6FACB6"/>
<path d="M203.204 113.117V27.0017V5.31421H116.214V15.7083V26.571H60.8252H5.43689L5.43689 69.8438V113.117H103.641H128.447H153.252H203.204Z" fill="#89D2DE"/>
<path d="M5.43688 26.5711L0 19.7385H111.456L116.214 26.5711H5.43688Z" fill="#C6E9F1"/>
<path d="M116.214 5.3142L111.456 0H210L203.204 5.3142H116.214Z" fill="#C6E9F1"/>
<ellipse cx="163.871" cy="43.4321" rx="24.1816" ry="25.2584" fill="#EE9D3D"/>
<path d="M176.059 28.2223C175.522 27.9101 174.931 27.7116 174.32 27.6381C173.71 27.5646 173.091 27.6175 172.5 27.7938C171.909 27.9702 171.358 28.2665 170.876 28.6658C170.395 29.0651 169.994 29.5596 169.696 30.1209L161.009 46.449L156.038 41.2564C155.607 40.7896 155.09 40.4173 154.519 40.1611C153.949 39.905 153.335 39.7702 152.713 39.7645C152.092 39.7589 151.476 39.8826 150.901 40.1283C150.326 40.374 149.804 40.7369 149.364 41.1958C148.925 41.6546 148.578 42.2003 148.342 42.8009C148.107 43.4015 147.989 44.0451 147.994 44.694C147.999 45.3429 148.129 45.9842 148.374 46.5805C148.619 47.1767 148.975 47.716 149.422 48.1668L158.78 57.9411C159.664 58.8672 160.857 59.3755 162.088 59.3755L162.736 59.3266C163.453 59.2219 164.137 58.9446 164.734 58.5168C165.331 58.0889 165.825 57.5222 166.177 56.8611L177.874 34.8688C178.173 34.3079 178.363 33.691 178.433 33.0534C178.504 32.4158 178.453 31.77 178.284 31.1528C178.116 30.5356 177.833 29.9592 177.451 29.4563C177.069 28.9535 176.596 28.5342 176.059 28.2223V28.2223Z" fill="#FFE3CA"/>
<path d="M74.341 97.0799C74.341 101.678 77.707 104.912 82.129 104.912C85.539 104.912 88.311 103.108 89.345 99.9399H85.803C85.077 101.436 83.757 102.162 82.107 102.162C79.423 102.162 77.509 100.182 77.509 97.0799C77.509 93.9559 79.423 91.9979 82.107 91.9979C83.757 91.9979 85.077 92.7239 85.803 94.1979H89.345C88.311 91.0519 85.539 89.2259 82.129 89.2259C77.707 89.2259 74.341 92.4819 74.341 97.0799ZM103.482 92.5919H100.38V99.3019C100.38 101.26 99.3237 102.316 97.6517 102.316C96.0237 102.316 94.9457 101.26 94.9457 99.3019V92.5919H91.8657V99.7419C91.8657 103.086 93.9117 104.934 96.7497 104.934C98.2677 104.934 99.6097 104.274 100.38 103.24V104.78H103.482V92.5919ZM123.571 104.78H126.651V97.6299C126.651 94.2639 124.583 92.4159 121.657 92.4159C119.875 92.4159 118.269 93.3619 117.477 94.7479C116.641 93.2299 115.079 92.4159 113.187 92.4159C111.669 92.4159 110.371 93.0539 109.601 94.0659V92.5919H106.521V104.78H109.601V98.0479C109.601 96.1119 110.679 95.0999 112.351 95.0999C113.979 95.0999 115.057 96.1119 115.057 98.0479V104.78H118.137V98.0479C118.137 96.1119 119.215 95.0999 120.865 95.0999C122.493 95.0999 123.571 96.1119 123.571 98.0479V104.78ZM128.781 98.6419C128.781 102.448 131.245 104.978 134.325 104.978C136.261 104.978 137.647 104.054 138.373 102.998V104.78H141.475V92.5919H138.373V94.3299C137.647 93.3179 136.305 92.3939 134.347 92.3939C131.245 92.3939 128.781 94.8359 128.781 98.6419ZM138.373 98.6859C138.373 100.996 136.833 102.272 135.139 102.272C133.489 102.272 131.927 100.952 131.927 98.6419C131.927 96.3319 133.489 95.0999 135.139 95.0999C136.833 95.0999 138.373 96.3759 138.373 98.6859ZM147.564 98.7079C147.564 96.3539 148.663 95.6499 150.49 95.6499H151.304V92.4159C149.61 92.4159 148.334 93.2299 147.564 94.4839V92.5919H144.484V104.78H147.564V98.7079ZM162.838 101.304C162.75 96.8379 155.996 98.2239 155.996 96.0019C155.996 95.2979 156.59 94.8359 157.734 94.8359C158.944 94.8359 159.692 95.4739 159.78 96.4199H162.728C162.552 93.9999 160.77 92.3939 157.822 92.3939C154.808 92.3939 153.004 94.0219 153.004 96.0459C153.004 100.512 159.89 99.1259 159.89 101.304C159.89 102.008 159.23 102.558 158.02 102.558C156.788 102.558 155.93 101.854 155.82 100.93H152.718C152.85 103.196 154.984 104.978 158.042 104.978C161.012 104.978 162.838 103.394 162.838 101.304ZM164.574 98.6419C164.574 102.448 167.038 104.978 170.118 104.978C172.054 104.978 173.44 104.054 174.166 102.998V104.78H177.268V92.5919H174.166V94.3299C173.44 93.3179 172.098 92.3939 170.14 92.3939C167.038 92.3939 164.574 94.8359 164.574 98.6419ZM174.166 98.6859C174.166 100.996 172.626 102.272 170.932 102.272C169.282 102.272 167.72 100.952 167.72 98.6419C167.72 96.3319 169.282 95.0999 170.932 95.0999C172.626 95.0999 174.166 96.3759 174.166 98.6859ZM168.688 89.5339V91.7339L173.748 89.4239V86.9159L168.688 89.5339ZM180.276 104.78H183.356V92.5919H180.276V104.78ZM181.838 91.1399C182.916 91.1399 183.73 90.3479 183.73 89.3359C183.73 88.3239 182.916 87.5319 181.838 87.5319C180.738 87.5319 179.946 88.3239 179.946 89.3359C179.946 90.3479 180.738 91.1399 181.838 91.1399ZM185.608 98.6419C185.608 102.448 188.072 104.978 191.174 104.978C193.088 104.978 194.452 104.098 195.178 102.976V104.78H198.302V88.4999H195.178V94.2859C194.342 93.1419 192.802 92.3939 191.196 92.3939C188.072 92.3939 185.608 94.8359 185.608 98.6419ZM195.2 98.6859C195.2 100.996 193.66 102.272 191.966 102.272C190.316 102.272 188.754 100.952 188.754 98.6419C188.754 96.3319 190.316 95.0999 191.966 95.0999C193.66 95.0999 195.2 96.3759 195.2 98.6859Z" fill="#788995"/>
</svg>
