<svg width="210" height="121" viewBox="0 0 210 121" fill="none" xmlns="http://www.w3.org/2000/svg">
<path d="M0 121H210V0H111.464V19.7385H0V121Z" fill="#6FACB6"/>
<path d="M203.204 113.117V27.0017V5.31421H116.214V15.7083V26.571H60.8252H5.43689L5.43689 69.8438V113.117H103.641H128.447H153.252H203.204Z" fill="#89D2DE"/>
<path d="M5.43688 26.5711L0 19.7385H111.456L116.214 26.5711H5.43688Z" fill="#C6E9F1"/>
<path d="M116.214 5.3142L111.456 0H210L203.204 5.3142H116.214Z" fill="#C6E9F1"/>
<path d="M21.0944 105.509H23.7584L19.2404 92.9268H16.3064L11.7884 105.509H14.4344L15.2624 103.115H20.2664L21.0944 105.509ZM19.5824 101.099H15.9464L17.7644 95.8428L19.5824 101.099ZM32.4311 105.509H34.9511V99.6588C34.9511 96.9048 33.2951 95.3928 30.9731 95.3928C29.6951 95.3928 28.6151 95.9328 27.9671 96.7788V95.5368H25.4471V105.509H27.9671V100.001C27.9671 98.3988 28.8491 97.5348 30.2171 97.5348C31.5491 97.5348 32.4311 98.3988 32.4311 100.001V105.509ZM44.1566 98.6508V94.9968H46.1546C47.5766 94.9968 48.2066 95.6808 48.2066 96.8328C48.2066 97.9488 47.5766 98.6508 46.1546 98.6508H44.1566ZM50.7986 96.8328C50.7986 94.6548 49.2866 92.9448 46.2626 92.9448H41.6366V105.509H44.1566V100.685H46.2626C49.5026 100.685 50.7986 98.7408 50.7986 96.8328ZM55.1077 100.541C55.1077 98.6148 56.0077 98.0388 57.5017 98.0388H58.1677V95.3928C56.7817 95.3928 55.7377 96.0588 55.1077 97.0848V95.5368H52.5877V105.509H55.1077V100.541ZM59.9731 105.509H62.4931V95.5368H59.9731V105.509ZM59.0551 93.0348V94.8348L63.1951 92.9448V90.8928L59.0551 93.0348ZM74.7158 100.523C74.7158 97.3728 72.4658 95.3748 69.5858 95.3748C66.7058 95.3748 64.4558 97.3728 64.4558 100.523C64.4558 103.655 66.6338 105.671 69.5138 105.671C72.4118 105.671 74.7158 103.655 74.7158 100.523ZM67.0118 100.523C67.0118 98.5248 68.2178 97.5708 69.5498 97.5708C70.8818 97.5708 72.1238 98.5248 72.1238 100.523C72.1238 102.503 70.8458 103.475 69.5138 103.475C68.1638 103.475 67.0118 102.503 67.0118 100.523ZM79.0843 96.9948V92.1888H76.5643V105.509H79.0843V104.087C79.6963 104.951 80.8123 105.671 82.3783 105.671C84.9343 105.671 86.9323 103.601 86.9323 100.487C86.9323 97.3728 84.9343 95.3748 82.3783 95.3748C80.8663 95.3748 79.6963 96.0768 79.0843 96.9948ZM84.3583 100.487C84.3583 102.377 83.0803 103.457 81.7123 103.457C80.3623 103.457 79.0843 102.413 79.0843 100.523C79.0843 98.6328 80.3623 97.5888 81.7123 97.5888C83.0803 97.5888 84.3583 98.5968 84.3583 100.487ZM88.7635 105.509H91.2835V100.001C91.2835 98.3988 92.1655 97.5348 93.5335 97.5348C94.8655 97.5348 95.7475 98.3988 95.7475 100.001V105.509H98.2675V99.6588C98.2675 96.9048 96.6295 95.3928 94.3795 95.3928C93.0475 95.3928 91.9315 95.9328 91.2835 96.7788V92.1888H88.7635V105.509ZM100.016 100.487C100.016 103.601 102.032 105.671 104.552 105.671C106.136 105.671 107.27 104.915 107.864 104.051V105.509H110.402V95.5368H107.864V96.9588C107.27 96.1308 106.172 95.3748 104.57 95.3748C102.032 95.3748 100.016 97.3728 100.016 100.487ZM107.864 100.523C107.864 102.413 106.604 103.457 105.218 103.457C103.868 103.457 102.59 102.377 102.59 100.487C102.59 98.5968 103.868 97.5888 105.218 97.5888C106.604 97.5888 107.864 98.6328 107.864 100.523ZM103.382 93.0348V94.8348L107.522 92.9448V90.8928L103.382 93.0348ZM112.863 105.509H115.383V95.5368H112.863V105.509ZM114.141 94.3488C115.023 94.3488 115.689 93.7008 115.689 92.8728C115.689 92.0448 115.023 91.3968 114.141 91.3968C113.241 91.3968 112.593 92.0448 112.593 92.8728C112.593 93.7008 113.241 94.3488 114.141 94.3488ZM117.225 100.487C117.225 103.601 119.241 105.671 121.779 105.671C123.345 105.671 124.461 104.951 125.055 104.033V105.509H127.611V92.1888H125.055V96.9228C124.371 95.9868 123.111 95.3748 121.797 95.3748C119.241 95.3748 117.225 97.3728 117.225 100.487ZM125.073 100.523C125.073 102.413 123.813 103.457 122.427 103.457C121.077 103.457 119.799 102.377 119.799 100.487C119.799 98.5968 121.077 97.5888 122.427 97.5888C123.813 97.5888 125.073 98.6328 125.073 100.523ZM134.356 97.4448C135.652 97.4448 136.696 98.2728 136.732 99.5868H131.998C132.196 98.2188 133.15 97.4448 134.356 97.4448ZM139.09 102.377H136.372C136.048 103.043 135.454 103.583 134.374 103.583C133.114 103.583 132.106 102.755 131.98 101.279H139.27C139.324 100.955 139.342 100.631 139.342 100.307C139.342 97.3368 137.308 95.3748 134.428 95.3748C131.476 95.3748 129.424 97.3728 129.424 100.523C129.424 103.655 131.53 105.671 134.428 105.671C136.894 105.671 138.55 104.213 139.09 102.377ZM140.533 100.487C140.533 103.601 142.549 105.671 145.069 105.671C146.653 105.671 147.787 104.915 148.381 104.051V105.509H150.919V95.5368H148.381V96.9588C147.787 96.1308 146.689 95.3748 145.087 95.3748C142.549 95.3748 140.533 97.3728 140.533 100.487ZM148.381 100.523C148.381 102.413 147.121 103.457 145.735 103.457C144.385 103.457 143.107 102.377 143.107 100.487C143.107 98.5968 144.385 97.5888 145.735 97.5888C147.121 97.5888 148.381 98.6328 148.381 100.523ZM152.733 100.523C152.733 103.655 154.785 105.671 157.665 105.671C160.149 105.671 161.823 104.267 162.363 102.143H159.645C159.339 103.043 158.691 103.511 157.647 103.511C156.243 103.511 155.307 102.467 155.307 100.523C155.307 98.5788 156.243 97.5168 157.647 97.5168C158.691 97.5168 159.357 98.0568 159.645 98.9028H162.363C161.823 96.6708 160.149 95.3748 157.665 95.3748C154.785 95.3748 152.733 97.3908 152.733 100.523ZM164.209 105.509H166.729V100.001C166.729 98.3988 167.611 97.5348 168.979 97.5348C170.311 97.5348 171.193 98.3988 171.193 100.001V105.509H173.713V99.6588C173.713 96.9048 172.075 95.3928 169.825 95.3928C168.493 95.3928 167.377 95.9328 166.729 96.7788V92.1888H164.209V105.509ZM175.461 100.487C175.461 103.601 177.477 105.671 179.997 105.671C181.581 105.671 182.715 104.915 183.309 104.051V105.509H185.847V95.5368H183.309V96.9588C182.715 96.1308 181.617 95.3748 180.015 95.3748C177.477 95.3748 175.461 97.3728 175.461 100.487ZM183.309 100.523C183.309 102.413 182.049 103.457 180.663 103.457C179.313 103.457 178.035 102.377 178.035 100.487C178.035 98.5968 179.313 97.5888 180.663 97.5888C182.049 97.5888 183.309 98.6328 183.309 100.523ZM196.048 102.665C195.976 99.0108 190.45 100.145 190.45 98.3268C190.45 97.7508 190.936 97.3728 191.872 97.3728C192.862 97.3728 193.474 97.8948 193.546 98.6688H195.958C195.814 96.6888 194.356 95.3748 191.944 95.3748C189.478 95.3748 188.002 96.7068 188.002 98.3628C188.002 102.017 193.636 100.883 193.636 102.665C193.636 103.241 193.096 103.691 192.106 103.691C191.098 103.691 190.396 103.115 190.306 102.359H187.768C187.876 104.213 189.622 105.671 192.124 105.671C194.554 105.671 196.048 104.375 196.048 102.665Z" fill="#788995"/>
<ellipse cx="160.225" cy="43.2915" rx="24.1816" ry="25.1767" fill="#EE9D3D"/>
<path d="M172.413 28.1308C171.876 27.8197 171.285 27.6218 170.675 27.5485C170.064 27.4752 169.446 27.528 168.855 27.7038C168.264 27.8795 167.712 28.1749 167.23 28.5729C166.749 28.9709 166.348 29.4638 166.05 30.0233L157.364 46.2985L152.392 41.1227C151.961 40.6574 151.444 40.2863 150.874 40.031C150.303 39.7757 149.689 39.6413 149.068 39.6357C148.446 39.6301 147.83 39.7534 147.255 39.9983C146.68 40.2432 146.158 40.6049 145.718 41.0623C145.279 41.5197 144.932 42.0636 144.696 42.6623C144.461 43.2609 144.343 43.9024 144.348 44.5492C144.354 45.196 144.483 45.8352 144.728 46.4296C144.973 47.0239 145.33 47.5614 145.776 48.0108L155.134 57.7535C156.018 58.6766 157.211 59.1832 158.442 59.1832L159.09 59.1345C159.807 59.0301 160.491 58.7537 161.088 58.3273C161.686 57.9008 162.179 57.3359 162.531 56.6769L174.228 34.7558C174.527 34.1967 174.717 33.5819 174.787 32.9463C174.858 32.3108 174.807 31.6671 174.639 31.0519C174.47 30.4367 174.187 29.8621 173.805 29.3609C173.423 28.8597 172.95 28.4417 172.413 28.1308V28.1308Z" fill="#FFE3CA"/>
</svg>
