<svg width="210" height="122" viewBox="0 0 210 122" fill="none" xmlns="http://www.w3.org/2000/svg">
<path d="M0 122H210V0H111.464V19.9016H0V122Z" fill="#6FACB6"/>
<path d="M203.204 114.051V27.2249V5.35815H116.214V15.8381V26.7906H60.8252H5.43689L5.43689 70.421V114.051H103.641H128.447H153.252H203.204Z" fill="#89D2DE"/>
<path d="M5.43688 26.7906L0 19.9016H111.456L116.214 26.7906H5.43688Z" fill="#C6E9F1"/>
<path d="M116.214 5.35812L111.456 0H210L203.204 5.35812H116.214Z" fill="#C6E9F1"/>
<path d="M160.747 56.4974C154.143 56.4974 153.501 65.4607 157.321 68.3535C159.267 68.6169 158.097 68.9338 158.285 69.057C159.017 69.536 155.674 74.041 160.747 73.7132C163.537 73.5329 162.272 72.6911 163.004 72.2121C164.084 72.1956 163.022 69.4075 163.023 69.1689C167.382 67.0536 167.35 56.4974 160.747 56.4974Z" fill="#0E538C"/>
<path d="M167.069 72.9117L163.346 71.2277C163.035 71.0868 162.833 70.7574 162.833 70.3914V69.2961H158.66V70.3914C158.66 70.7574 158.458 71.0868 158.147 71.2277L154.424 72.9117C153.958 73.123 153.654 73.6179 153.654 74.1665V75.9786C153.654 76.4791 154.028 76.8846 154.489 76.8846H167.005C167.465 76.8846 167.839 76.4791 167.839 75.9786V74.1665C167.839 73.6177 167.536 73.1228 167.069 72.9117Z" fill="#783C0D"/>
<path d="M167.07 72.9115L163.47 71.2833L160.747 72.5593L158.024 71.2833L154.425 72.9115C153.958 73.1229 153.654 73.6177 153.654 74.1663V75.9785C153.654 76.479 154.028 76.8845 154.489 76.8845H167.006C167.466 76.8845 167.84 76.479 167.84 75.9785V74.1663C167.839 73.6176 167.536 73.1227 167.07 72.9115Z" fill="#FFBE55"/>
<path d="M160.747 72.5594L158.359 70.6142C158.206 70.4897 157.987 70.5305 157.881 70.7031L157.409 71.4718L158.873 73.6976C158.984 73.8667 159.204 73.9001 159.353 73.7699L160.747 72.5594Z" fill="#FFE3CA"/>
<path d="M160.746 72.5594L163.135 70.6142C163.288 70.4897 163.507 70.5305 163.613 70.7031L164.084 71.4718L162.621 73.6976C162.509 73.8667 162.29 73.9001 162.14 73.7699L160.746 72.5594Z" fill="#FFE3CA"/>
<path d="M156.656 63.4731C156.649 63.6991 156.653 63.9259 156.674 64.1514L156.973 67.322C157.024 67.9192 157.342 68.4507 157.825 68.742L160.201 70.1754C160.579 70.4031 161.038 70.4031 161.416 70.1754L163.792 68.742C164.275 68.4507 164.594 67.9192 164.643 67.322L164.903 64.6523C164.903 61.0281 160.809 62.8401 158.723 60.575C158.305 61.4811 156.812 62.3194 156.656 63.4731Z" fill="#8D5522"/>
<path d="M145.891 70.9573V68.4689H139.999V70.9573L142.945 73.801L145.891 70.9573Z" fill="#D19C72"/>
<path d="M150.447 72.1208L146.396 71.086C146.335 71.0705 146.279 71.044 146.226 71.0119L142.945 73.0899L139.792 70.911C139.711 70.9944 139.609 71.0564 139.494 71.086L135.444 72.1208C134.852 72.2722 134.434 72.8451 134.434 73.5048V76.2889C134.434 76.6818 134.727 77.0001 135.089 77.0001H150.802C151.163 77.0001 151.456 76.6818 151.456 76.2889V73.5048C151.457 72.8451 151.038 72.2722 150.447 72.1208Z" fill="#CCE9FF"/>
<path d="M143.764 77.0003H142.127L142.332 73.801H143.559L143.764 77.0003Z" fill="#FFBE55"/>
<path d="M143.764 73.0902H142.127V73.2953C142.127 73.7714 142.482 74.1562 142.92 74.1562H142.971C143.409 74.1562 143.764 73.7714 143.764 73.2953V73.0902V73.0902Z" fill="#FFBE55"/>
<path d="M139.953 70.1659L142.945 73.0904C142.945 73.0904 142.107 73.5496 141.073 74.475C140.86 74.6661 140.537 74.5887 140.423 74.3159L139.017 70.9572L139.461 70.2329C139.572 70.0526 139.805 70.0209 139.953 70.1659Z" fill="#2A94F4"/>
<path d="M145.937 70.1659L142.945 73.0904C142.945 73.0904 143.783 73.5496 144.817 74.475C145.03 74.6661 145.353 74.5887 145.467 74.3159L146.873 70.9572L146.428 70.2329C146.318 70.0526 146.085 70.0209 145.937 70.1659Z" fill="#2A94F4"/>
<path d="M147.836 64.7615L147.466 66.3678C147.422 66.558 147.265 66.6911 147.084 66.6911C147.031 66.6911 146.98 66.6797 146.934 66.6586L146.915 67.1076C146.889 67.7447 146.602 68.3355 146.132 68.7177L144.778 69.8197C144.439 70.0962 144.025 70.2457 143.6 70.2457H142.29C141.866 70.2457 141.453 70.0963 141.112 69.8197L139.759 68.7177C139.29 68.3355 139.001 67.7449 138.975 67.1076L138.957 66.6586C138.911 66.6797 138.859 66.6911 138.807 66.6911C138.627 66.6911 138.469 66.558 138.426 66.3678L138.055 64.7615C137.949 64.298 138.273 63.8477 138.713 63.8477H138.714C138.757 63.8477 138.798 63.852 138.839 63.8601L138.69 60.2928H147.201L147.051 63.8601C147.092 63.852 147.133 63.8477 147.176 63.8477H147.178C147.619 63.8477 147.942 64.298 147.836 64.7615Z" fill="#E6AF7F"/>
<path d="M144.93 57.9383L145.237 60.2932C146.638 60.5977 146.84 62.9848 146.869 63.667C146.874 63.7905 146.911 63.9099 146.972 64.0143L147.507 64.9146C147.507 64.9146 148.01 64.2108 148.162 62.4262C148.161 62.426 148.449 56.5162 144.93 57.9383Z" fill="#0B4870"/>
<path d="M139.488 57.6606C137.298 59.4154 137.708 62.4259 137.708 62.4259C137.858 63.8479 138.362 64.9142 138.362 64.9142L139.017 64.203C139.017 64.203 138.765 62.1496 139.999 61.3597C141.145 60.6263 142.148 61.0038 143.171 61.0038C145.912 61.0038 146.679 59.8822 146.547 58.5161C146.478 57.8091 145.482 56.3362 142.946 56.3829C141.922 56.4017 140.483 57.0974 139.488 57.6606Z" fill="#0B4870"/>
<path d="M181 70.957V68.4686H175.108V70.957L178.054 73.8007L181 70.957Z" fill="#FCD2B1"/>
<path d="M185.556 72.1207L181.505 71.0859C181.444 71.0704 181.387 71.0439 181.335 71.0118L178.054 73.0897L174.901 70.9109C174.819 70.9943 174.718 71.0563 174.603 71.0859L170.552 72.1207C169.961 72.2721 169.543 72.845 169.543 73.5047V76.2888C169.543 76.6817 169.836 77 170.197 77H185.91C186.272 77 186.565 76.6817 186.565 76.2888V73.5047C186.565 72.845 186.147 72.2721 185.556 72.1207Z" fill="#2A94F4"/>
<path d="M178.873 77.0001H177.236L177.44 73.8009H178.668L178.873 77.0001Z" fill="#0B4870"/>
<path d="M178.873 73.09H177.236V73.2951C177.236 73.7712 177.591 74.156 178.029 74.156H178.08C178.517 74.156 178.873 73.7712 178.873 73.2951V73.09Z" fill="#0B4870"/>
<path d="M175.062 70.1656L178.054 73.0901C178.054 73.0901 177.216 73.5493 176.182 74.4748C175.969 74.6658 175.646 74.5885 175.531 74.3156L174.126 70.9569L174.571 70.2326C174.681 70.0523 174.913 70.0206 175.062 70.1656Z" fill="#0E538C"/>
<path d="M181.046 70.1655L178.054 73.09C178.054 73.09 178.892 73.5492 179.926 74.4747C180.139 74.6657 180.461 74.5884 180.576 74.3155L181.982 70.9568L181.537 70.2325C181.427 70.0522 181.194 70.0205 181.046 70.1655Z" fill="#0E538C"/>
<path d="M182.944 64.7614L182.574 66.3677C182.531 66.5579 182.373 66.691 182.192 66.691C182.14 66.691 182.088 66.6796 182.043 66.6585L182.024 67.1075C181.998 67.7446 181.71 68.3354 181.241 68.7176L179.887 69.8196C179.548 70.0961 179.134 70.2456 178.709 70.2456H177.399C176.975 70.2456 176.561 70.0962 176.221 69.8196L174.867 68.7176C174.398 68.3354 174.11 67.7448 174.084 67.1075L174.065 66.6585C174.02 66.6796 173.968 66.691 173.916 66.691C173.736 66.691 173.578 66.5579 173.534 66.3677L173.164 64.7614C173.057 64.2979 173.382 63.8476 173.822 63.8476H173.823C173.866 63.8476 173.907 63.8519 173.948 63.86L173.799 60.2927H182.31L182.16 63.86C182.201 63.8519 182.242 63.8476 182.285 63.8476H182.287C182.727 63.8476 183.05 64.2979 182.944 64.7614Z" fill="#FFE3CA"/>
<path d="M180.039 57.938L180.346 60.2929C181.747 60.5975 181.948 62.9846 181.978 63.6668C181.983 63.7903 182.019 63.9097 182.081 64.014L182.616 64.9144C182.616 64.9144 183.119 64.2106 183.27 62.426C183.27 62.4258 183.558 56.516 180.039 57.938Z" fill="#FFBE55"/>
<path d="M174.597 57.6605C172.407 59.4153 172.816 62.4257 172.816 62.4257C172.967 63.8478 173.471 64.9141 173.471 64.9141L174.126 64.2029C174.126 64.2029 173.873 62.1495 175.108 61.3596C176.254 60.6261 177.256 61.0037 178.279 61.0037C181.02 61.0037 181.788 59.8821 181.655 58.516C181.586 57.809 180.59 56.3361 178.054 56.3828C177.03 56.4016 175.592 57.0973 174.597 57.6605Z" fill="#FFBE55"/>
<path d="M190 24.4483V43.8722C190 46.3294 188.166 48.3209 185.904 48.3209H179.147L177.748 50.8039L176.256 53.6621L174.765 50.8039L173.365 48.3209H163.908L162.509 50.8039L161.017 53.6621L159.524 50.8039L158.126 48.3209H147.308L145.907 50.8039L144.416 53.6621L142.923 50.8039L141.525 48.3209H135.097C132.834 48.3209 131 46.3294 131 43.8722V24.4483C131 21.9911 132.834 20 135.097 20H185.904C188.166 20 190 21.9913 190 24.4483Z" fill="#CCE9FF"/>
<path d="M147.747 35.9425C147.992 36.4768 148.292 36.979 148.642 37.4372L148.057 38.6217C147.866 39.0094 147.974 39.487 148.303 39.7377L149.842 40.8987C150.173 41.1492 150.623 41.0887 150.891 40.7592L151.704 39.7583C152.243 39.9685 152.801 40.1049 153.37 40.1669L153.732 41.4645C153.85 41.8848 154.237 42.1418 154.632 42.0645L156.477 41.7036C156.873 41.6261 157.153 41.2387 157.128 40.8004L157.052 39.495C157.606 39.2171 158.121 38.8635 158.591 38.4424L159.639 39.0514C159.996 39.259 160.436 39.1417 160.667 38.7848L161.736 37.1137C161.966 36.7534 161.911 36.2653 161.607 35.9747L160.73 35.1314C160.935 34.5161 161.068 33.8771 161.119 33.226L162.197 32.8733C162.584 32.7457 162.82 32.3251 162.749 31.8957L162.417 29.8925C162.346 29.4629 161.989 29.1586 161.585 29.1856L160.478 29.2604C160.227 28.6754 159.907 28.1315 159.532 27.637L160.047 26.5903C160.239 26.2031 160.13 25.7253 159.802 25.4743L158.267 24.3158C157.935 24.0659 157.485 24.1258 157.218 24.4553L156.516 25.3201C155.928 25.085 155.317 24.9379 154.691 24.8799L154.377 23.7536C154.259 23.333 153.872 23.076 153.476 23.1535L151.632 23.5142C151.236 23.5917 150.956 23.9792 150.981 24.4178L151.048 25.5926C150.466 25.8903 149.926 26.2728 149.441 26.7315L148.469 26.1664C148.113 25.959 147.673 26.0763 147.442 26.433L146.373 28.1039C146.142 28.4646 146.197 28.9526 146.501 29.243L147.374 30.0804C147.182 30.6931 147.064 31.3291 147.024 31.9744L145.91 32.3378C145.523 32.4654 145.287 32.8859 145.358 33.3153L145.69 35.3188C145.761 35.7482 146.118 36.0524 146.522 36.0255L147.747 35.9425ZM153.532 29.2159C155.213 28.8873 156.828 30.1059 157.131 31.9313C157.433 33.7567 156.311 35.511 154.63 35.8396C152.949 36.1686 151.333 34.9497 151.031 33.1243C150.728 31.299 151.851 29.5447 153.532 29.2159Z" fill="#2A94F4"/>
<path d="M172.75 31.5611L171.629 30.859C171.283 30.6424 170.844 30.7423 170.608 31.0897L170.161 31.7418C169.667 31.5928 169.157 31.5191 168.644 31.5189L168.359 30.7435C168.212 30.3425 167.809 30.1231 167.425 30.2329L166.174 30.5988C165.791 30.7118 165.543 31.1172 165.601 31.5458L165.712 32.3694C165.256 32.6562 164.839 33.0079 164.473 33.4189L163.754 33.0815C163.387 32.9108 162.962 33.063 162.763 33.4382L162.118 34.6625C161.918 35.0376 162.01 35.5149 162.33 35.771L163.001 36.3122C162.885 36.8269 162.829 37.3539 162.834 37.8831L162.06 38.2181C161.691 38.3767 161.489 38.8147 161.59 39.2314L161.927 40.5893C162.031 41.0056 162.404 41.2755 162.799 41.2122L163.672 41.0723C163.904 41.4915 164.182 41.8772 164.499 42.2272L164.145 43.1175C163.988 43.5156 164.128 43.9763 164.474 44.193L165.595 44.8954C165.941 45.1117 166.38 45.0118 166.616 44.6644L167.145 43.8922C167.598 44.0219 168.062 44.0939 168.529 44.0996L168.862 45.0113C169.009 45.4123 169.412 45.6315 169.796 45.5218L171.046 45.1562C171.43 45.043 171.678 44.6374 171.62 44.2088L171.494 43.2773C171.928 43.0086 172.327 42.6812 172.682 42.3035L173.467 42.6697C173.833 42.8405 174.258 42.6881 174.457 42.3133L175.104 41.0957C175.303 40.7206 175.211 40.2433 174.891 39.9872L174.218 39.4465C174.346 38.9296 174.414 38.3967 174.414 37.8631L175.158 37.5408C175.528 37.382 175.73 36.9442 175.628 36.5275L175.291 35.1692C175.188 34.7531 174.814 34.4834 174.42 34.5466L173.639 34.6714C173.397 34.2131 173.104 33.7923 172.764 33.4153L173.073 32.6414C173.236 32.2418 173.095 31.7778 172.75 31.5611ZM169.286 40.47C167.935 40.8658 166.539 39.9922 166.178 38.5247C165.813 37.0575 166.618 35.5421 167.969 35.1499C169.32 34.7536 170.716 35.6277 171.077 37.0951C171.442 38.5622 170.637 40.0774 169.286 40.47Z" fill="#2A94F4"/>
<path d="M14.3165 106.472C14.3165 103.151 9.48354 104.204 9.48354 102.314C9.48354 101.544 10.037 101.18 10.7795 101.207C11.5895 101.22 12.089 101.706 12.1295 102.327H14.2085C14.087 100.626 12.764 99.641 10.8335 99.641C8.88954 99.641 7.51254 100.667 7.51254 102.368C7.49904 105.783 12.359 104.555 12.359 106.593C12.359 107.268 11.8325 107.741 10.9415 107.741C10.064 107.741 9.56454 107.241 9.51054 106.485H7.48554C7.51254 108.267 9.02454 109.293 10.982 109.293C13.1285 109.293 14.3165 107.957 14.3165 106.472ZM26.4176 109.199H28.3076V104.811C28.3076 102.746 27.0386 101.612 25.2431 101.612C24.1496 101.612 23.1641 102.192 22.6781 103.043C22.1651 102.111 21.2066 101.612 20.0456 101.612C19.1141 101.612 18.3176 102.003 17.8451 102.624V101.72H15.9551V109.199H17.8451V105.068C17.8451 103.88 18.5066 103.259 19.5326 103.259C20.5316 103.259 21.1931 103.88 21.1931 105.068V109.199H23.0831V105.068C23.0831 103.88 23.7446 103.259 24.7571 103.259C25.7561 103.259 26.4176 103.88 26.4176 105.068V109.199ZM29.6151 105.432C29.6151 107.768 31.1271 109.32 33.0171 109.32C34.2051 109.32 35.0556 108.753 35.5011 108.105V109.199H37.4046V101.72H35.5011V102.786C35.0556 102.165 34.2321 101.598 33.0306 101.598C31.1271 101.598 29.6151 103.097 29.6151 105.432ZM35.5011 105.459C35.5011 106.877 34.5561 107.66 33.5166 107.66C32.5041 107.66 31.5456 106.85 31.5456 105.432C31.5456 104.015 32.5041 103.259 33.5166 103.259C34.5561 103.259 35.5011 104.042 35.5011 105.459ZM46.473 105.459C46.473 103.097 44.7855 101.598 42.6255 101.598C40.4655 101.598 38.778 103.097 38.778 105.459C38.778 107.808 40.4115 109.32 42.5715 109.32C44.745 109.32 46.473 107.808 46.473 105.459ZM40.695 105.459C40.695 103.961 41.5995 103.245 42.5985 103.245C43.5975 103.245 44.529 103.961 44.529 105.459C44.529 106.944 43.5705 107.673 42.5715 107.673C41.559 107.673 40.695 106.944 40.695 105.459ZM47.8594 109.199H49.7494V101.72H47.8594V109.199ZM48.8179 100.829C49.4794 100.829 49.9789 100.343 49.9789 99.722C49.9789 99.101 49.4794 98.615 48.8179 98.615C48.1429 98.615 47.6569 99.101 47.6569 99.722C47.6569 100.343 48.1429 100.829 48.8179 100.829ZM56.8547 109.199H58.7447V104.811C58.7447 102.746 57.5027 101.612 55.7612 101.612C54.8027 101.612 53.9927 102.017 53.5067 102.651V101.72H51.6167V109.199H53.5067V105.068C53.5067 103.866 54.1682 103.218 55.1942 103.218C56.1932 103.218 56.8547 103.866 56.8547 105.068V109.199ZM60.839 106.877C60.839 108.591 61.7975 109.199 63.2285 109.199H64.4165V107.606H63.539C62.945 107.606 62.7425 107.39 62.7425 106.89V103.272H64.4165V101.72H62.7425V99.8705H60.839V101.72H59.948V103.272H60.839V106.877ZM68.9889 103.151C69.9609 103.151 70.7439 103.772 70.7709 104.757H67.2204C67.3689 103.731 68.0844 103.151 68.9889 103.151ZM72.5394 106.85H70.5009C70.2579 107.349 69.8124 107.754 69.0024 107.754C68.0574 107.754 67.3014 107.133 67.2069 106.026H72.6744C72.7149 105.783 72.7284 105.54 72.7284 105.297C72.7284 103.07 71.2029 101.598 69.0429 101.598C66.8289 101.598 65.2899 103.097 65.2899 105.459C65.2899 107.808 66.8694 109.32 69.0429 109.32C70.8924 109.32 72.1344 108.227 72.5394 106.85ZM81.3304 105.459C81.3304 103.097 79.6429 101.598 77.4829 101.598C75.3229 101.598 73.6354 103.097 73.6354 105.459C73.6354 107.808 75.2689 109.32 77.4289 109.32C79.6024 109.32 81.3304 107.808 81.3304 105.459ZM75.5524 105.459C75.5524 103.961 76.4569 103.245 77.4559 103.245C78.4549 103.245 79.3864 103.961 79.3864 105.459C79.3864 106.944 78.4279 107.673 77.4289 107.673C76.4164 107.673 75.5524 106.944 75.5524 105.459ZM82.7168 109.199H84.6068V101.72H82.7168V109.199ZM83.6753 100.829C84.3368 100.829 84.8363 100.343 84.8363 99.722C84.8363 99.101 84.3368 98.615 83.6753 98.615C83.0003 98.615 82.5143 99.101 82.5143 99.722C82.5143 100.343 83.0003 100.829 83.6753 100.829ZM88.3641 105.473C88.3641 104.028 89.0391 103.596 90.1596 103.596H90.6591V101.612C89.6196 101.612 88.8366 102.111 88.3641 102.881V101.72H86.4741V109.199H88.3641V105.473ZM95.1452 103.151C96.1172 103.151 96.9002 103.772 96.9272 104.757H93.3767C93.5252 103.731 94.2407 103.151 95.1452 103.151ZM98.6957 106.85H96.6572C96.4142 107.349 95.9687 107.754 95.1587 107.754C94.2137 107.754 93.4577 107.133 93.3632 106.026H98.8307C98.8712 105.783 98.8847 105.54 98.8847 105.297C98.8847 103.07 97.3592 101.598 95.1992 101.598C92.9852 101.598 91.4462 103.097 91.4462 105.459C91.4462 107.808 93.0257 109.32 95.1992 109.32C97.0487 109.32 98.2907 108.227 98.6957 106.85ZM99.7782 105.432C99.7782 107.768 101.29 109.32 103.18 109.32C104.368 109.32 105.219 108.753 105.664 108.105V109.199H107.568V101.72H105.664V102.786C105.219 102.165 104.395 101.598 103.194 101.598C101.29 101.598 99.7782 103.097 99.7782 105.432ZM105.664 105.459C105.664 106.877 104.719 107.66 103.68 107.66C102.667 107.66 101.709 106.85 101.709 105.432C101.709 104.015 102.667 103.259 103.68 103.259C104.719 103.259 105.664 104.042 105.664 105.459ZM108.928 105.459C108.928 107.808 110.467 109.32 112.627 109.32C114.49 109.32 115.745 108.267 116.15 106.674H114.112C113.882 107.349 113.396 107.7 112.613 107.7C111.56 107.7 110.858 106.917 110.858 105.459C110.858 104.001 111.56 103.205 112.613 103.205C113.396 103.205 113.896 103.61 114.112 104.244H116.15C115.745 102.57 114.49 101.598 112.627 101.598C110.467 101.598 108.928 103.11 108.928 105.459ZM117.535 109.199H119.425V105.068C119.425 103.866 120.086 103.218 121.112 103.218C122.111 103.218 122.773 103.866 122.773 105.068V109.199H124.663V104.811C124.663 102.746 123.434 101.612 121.747 101.612C120.748 101.612 119.911 102.017 119.425 102.651V99.209H117.535V109.199ZM126.757 106.877C126.757 108.591 127.715 109.199 129.146 109.199H130.334V107.606H129.457C128.863 107.606 128.66 107.39 128.66 106.89V103.272H130.334V101.72H128.66V99.8705H126.757V101.72H125.866V103.272H126.757V106.877ZM134.452 104.474C134.452 107.295 136.517 109.28 139.231 109.28C141.323 109.28 143.024 108.173 143.659 106.229H141.485C141.04 107.147 140.23 107.592 139.217 107.592C137.57 107.592 136.396 106.377 136.396 104.474C136.396 102.557 137.57 101.355 139.217 101.355C140.23 101.355 141.04 101.801 141.485 102.705H143.659C143.024 100.775 141.323 99.6545 139.231 99.6545C136.517 99.6545 134.452 101.652 134.452 104.474ZM145.273 109.199H147.163V105.068C147.163 103.866 147.824 103.218 148.85 103.218C149.849 103.218 150.511 103.866 150.511 105.068V109.199H152.401V104.811C152.401 102.746 151.172 101.612 149.485 101.612C148.486 101.612 147.649 102.017 147.163 102.651V99.209H145.273V109.199ZM156.088 105.473C156.088 104.028 156.763 103.596 157.884 103.596H158.383V101.612C157.344 101.612 156.561 102.111 156.088 102.881V101.72H154.198V109.199H156.088V105.473ZM159.656 109.199H161.546V101.72H159.656V109.199ZM160.615 100.829C161.276 100.829 161.776 100.343 161.776 99.722C161.776 99.101 161.276 98.615 160.615 98.615C159.94 98.615 159.454 99.101 159.454 99.722C159.454 100.343 159.94 100.829 160.615 100.829ZM163.711 106.877C163.711 108.591 164.669 109.199 166.1 109.199H167.288V107.606H166.411C165.817 107.606 165.614 107.39 165.614 106.89V103.272H167.288V101.72H165.614V99.8705H163.711V101.72H162.82V103.272H163.711V106.877ZM168.647 109.199H170.537V101.72H168.647V109.199ZM169.606 100.829C170.267 100.829 170.767 100.343 170.767 99.722C170.767 99.101 170.267 98.615 169.606 98.615C168.931 98.615 168.445 99.101 168.445 99.722C168.445 100.343 168.931 100.829 169.606 100.829ZM171.919 105.459C171.919 107.808 173.458 109.32 175.618 109.32C177.481 109.32 178.736 108.267 179.141 106.674H177.103C176.873 107.349 176.387 107.7 175.604 107.7C174.551 107.7 173.849 106.917 173.849 105.459C173.849 104.001 174.551 103.205 175.604 103.205C176.387 103.205 176.887 103.61 177.103 104.244H179.141C178.736 102.57 177.481 101.598 175.618 101.598C173.458 101.598 171.919 103.11 171.919 105.459ZM180.526 109.199H182.416V101.72H180.526V109.199ZM181.484 100.829C182.146 100.829 182.645 100.343 182.645 99.722C182.645 99.101 182.146 98.615 181.484 98.615C180.809 98.615 180.323 99.101 180.323 99.722C180.323 100.343 180.809 100.829 181.484 100.829ZM191.344 101.72H189.44V105.837C189.44 107.039 188.792 107.687 187.766 107.687C186.767 107.687 186.106 107.039 186.106 105.837V101.72H184.216V106.107C184.216 108.159 185.471 109.293 187.213 109.293C188.144 109.293 188.968 108.888 189.44 108.254V109.199H191.344V101.72ZM186.187 99.8435V101.193L189.292 99.776V98.237L186.187 99.8435ZM193.209 109.199H195.099V101.72H193.209V109.199ZM194.167 100.829C194.829 100.829 195.328 100.343 195.328 99.722C195.328 99.101 194.829 98.615 194.167 98.615C193.492 98.615 193.006 99.101 193.006 99.722C193.006 100.343 193.492 100.829 194.167 100.829ZM196.966 109.199H198.856V99.209H196.966V109.199Z" fill="#0B4870"/>
</svg>
