<svg width="210" height="122" viewBox="0 0 210 122" fill="none" xmlns="http://www.w3.org/2000/svg">
<path d="M0 122H210V0H111.464V19.9016H0V122Z" fill="#6FACB6"/>
<path d="M203.204 114.051V27.2249V5.35815H116.214V15.8381V26.7906H60.8252H5.43689L5.43689 70.421V114.051H103.641H128.447H153.252H203.204Z" fill="#89D2DE"/>
<path d="M5.43688 26.7906L0 19.9016H111.456L116.214 26.7906H5.43688Z" fill="#C6E9F1"/>
<path d="M116.214 5.35812L111.456 0H210L203.204 5.35812H116.214Z" fill="#C6E9F1"/>
<path d="M64.5515 106.199H67.5115L62.4915 92.219H59.2315L54.2115 106.199H57.1515L58.0715 103.539H63.6315L64.5515 106.199ZM62.8715 101.299H58.8315L60.8515 95.459L62.8715 101.299ZM77.1479 106.199H79.9479V99.699C79.9479 96.639 78.1079 94.959 75.5279 94.959C74.1079 94.959 72.9079 95.559 72.1879 96.499V95.119H69.3879V106.199H72.1879V100.079C72.1879 98.299 73.1679 97.339 74.6879 97.339C76.1679 97.339 77.1479 98.299 77.1479 100.079V106.199ZM95.9761 103.039C95.8961 98.979 89.7561 100.239 89.7561 98.219C89.7561 97.579 90.2961 97.159 91.3361 97.159C92.4361 97.159 93.1161 97.739 93.1961 98.599H95.8761C95.7161 96.399 94.0961 94.939 91.4161 94.939C88.6761 94.939 87.0361 96.419 87.0361 98.259C87.0361 102.319 93.2961 101.059 93.2961 103.039C93.2961 103.679 92.6961 104.179 91.5961 104.179C90.4761 104.179 89.6961 103.539 89.5961 102.699H86.7761C86.8961 104.759 88.8361 106.379 91.6161 106.379C94.3161 106.379 95.9761 104.939 95.9761 103.039ZM97.5546 100.619C97.5546 104.079 99.7946 106.379 102.595 106.379C104.355 106.379 105.615 105.539 106.275 104.579V106.199H109.095V95.119H106.275V96.699C105.615 95.779 104.395 94.939 102.615 94.939C99.7946 94.939 97.5546 97.159 97.5546 100.619ZM106.275 100.659C106.275 102.759 104.875 103.919 103.335 103.919C101.835 103.919 100.415 102.719 100.415 100.619C100.415 98.519 101.835 97.399 103.335 97.399C104.875 97.399 106.275 98.559 106.275 100.659ZM122.529 100.659C122.529 97.159 120.029 94.939 116.829 94.939C113.629 94.939 111.129 97.159 111.129 100.659C111.129 104.139 113.549 106.379 116.749 106.379C119.969 106.379 122.529 104.139 122.529 100.659ZM113.969 100.659C113.969 98.439 115.309 97.379 116.789 97.379C118.269 97.379 119.649 98.439 119.649 100.659C119.649 102.859 118.229 103.939 116.749 103.939C115.249 103.939 113.969 102.859 113.969 100.659ZM124.583 106.199H127.383V91.399H124.583V106.199ZM134.195 100.619C134.195 104.079 136.435 106.379 139.235 106.379C140.995 106.379 142.255 105.539 142.915 104.579V106.199H145.735V95.119H142.915V96.699C142.255 95.779 141.035 94.939 139.255 94.939C136.435 94.939 134.195 97.159 134.195 100.619ZM142.915 100.659C142.915 102.759 141.515 103.919 139.975 103.919C138.475 103.919 137.055 102.719 137.055 100.619C137.055 98.519 138.475 97.399 139.975 97.399C141.515 97.399 142.915 98.559 142.915 100.659ZM151.27 100.679C151.27 98.539 152.27 97.899 153.93 97.899H154.67V94.959C153.13 94.959 151.97 95.699 151.27 96.839V95.119H148.47V106.199H151.27V100.679ZM161.321 106.199H164.121V91.399H161.321V106.199ZM167.008 106.199H169.808V95.119H167.008V106.199ZM165.988 92.339V94.339L170.588 92.239V89.959L165.988 92.339ZM180.449 106.199H183.249V99.699C183.249 96.639 181.409 94.959 178.829 94.959C177.409 94.959 176.209 95.559 175.489 96.499V95.119H172.689V106.199H175.489V100.079C175.489 98.299 176.469 97.339 177.989 97.339C179.469 97.339 180.449 98.299 180.449 100.079V106.199ZM190.671 97.239C192.111 97.239 193.271 98.159 193.311 99.619H188.051C188.271 98.099 189.331 97.239 190.671 97.239ZM195.931 102.719H192.911C192.551 103.459 191.891 104.059 190.691 104.059C189.291 104.059 188.171 103.139 188.031 101.499H196.131C196.191 101.139 196.211 100.779 196.211 100.419C196.211 97.119 193.951 94.939 190.751 94.939C187.471 94.939 185.191 97.159 185.191 100.659C185.191 104.139 187.531 106.379 190.751 106.379C193.491 106.379 195.331 104.759 195.931 102.719Z" fill="#788995"/>
<ellipse cx="160.225" cy="43.6494" rx="24.1816" ry="25.3847" fill="#EE9D3D"/>
<path d="M172.413 28.3634C171.876 28.0497 171.285 27.8502 170.675 27.7763C170.064 27.7024 169.446 27.7556 168.855 27.9328C168.264 28.1101 167.712 28.4078 167.23 28.8091C166.749 29.2104 166.348 29.7074 166.05 30.2716L157.364 46.6813L152.392 41.4627C151.961 40.9936 151.444 40.6194 150.874 40.362C150.303 40.1046 149.689 39.9691 149.068 39.9634C148.446 39.9577 147.83 40.082 147.255 40.329C146.68 40.5759 146.158 40.9406 145.718 41.4018C145.279 41.863 144.932 42.4114 144.696 43.015C144.461 43.6186 144.343 44.2654 144.348 44.9175C144.354 45.5697 144.483 46.2142 144.728 46.8134C144.973 47.4127 145.33 47.9546 145.776 48.4077L155.134 58.2309C156.018 59.1617 157.211 59.6725 158.442 59.6725L159.09 59.6234C159.807 59.518 160.491 59.2394 161.088 58.8095C161.686 58.3795 162.179 57.8099 162.531 57.1455L174.228 35.0432C174.527 34.4795 174.717 33.8595 174.787 33.2187C174.858 32.578 174.807 31.9289 174.639 31.3086C174.47 30.6883 174.187 30.109 173.805 29.6036C173.423 29.0983 172.95 28.6769 172.413 28.3634V28.3634Z" fill="#FFE3CA"/>
</svg>
