<svg width="210" height="121" viewBox="0 0 210 121" fill="none" xmlns="http://www.w3.org/2000/svg">
<path d="M0 121H210V0H111.464V19.7385H0V121Z" fill="#6FACB6"/>
<path d="M203.204 113.117V27.0017V5.31421H116.214V15.7083V26.571H60.8252H5.43689L5.43689 69.8438V113.117H103.641H128.447H153.252H203.204Z" fill="#89D2DE"/>
<path d="M5.43688 26.5711L0 19.7385H111.456L116.214 26.5711H5.43688Z" fill="#C6E9F1"/>
<path d="M116.214 5.3142L111.456 0H210L203.204 5.3142H116.214Z" fill="#C6E9F1"/>
<path d="M52.4293 91.5288H44.3293V105.509H52.4293V103.229H47.1293V99.5288H51.8293V97.3088H47.1293V93.8088H52.4293V91.5288ZM65.6738 99.9688C65.6738 96.4688 63.1738 94.2488 59.9738 94.2488C56.7738 94.2488 54.2738 96.4688 54.2738 99.9688C54.2738 103.449 56.6938 105.689 59.8938 105.689C63.1138 105.689 65.6738 103.449 65.6738 99.9688ZM57.1138 99.9688C57.1138 97.7488 58.4538 96.6888 59.9338 96.6888C61.4138 96.6888 62.7938 97.7488 62.7938 99.9688C62.7938 102.169 61.3738 103.249 59.8938 103.249C58.3938 103.249 57.1138 102.169 57.1138 99.9688ZM67.7277 105.509H70.5277V90.7088H67.7277V105.509ZM72.5741 99.9288C72.5741 103.389 74.8141 105.689 77.6141 105.689C79.3741 105.689 80.6341 104.849 81.2941 103.889V105.509H84.1141V94.4288H81.2941V96.0088C80.6341 95.0888 79.4141 94.2488 77.6341 94.2488C74.8141 94.2488 72.5741 96.4688 72.5741 99.9288ZM81.2941 99.9688C81.2941 102.069 79.8941 103.229 78.3541 103.229C76.8541 103.229 75.4341 102.029 75.4341 99.9288C75.4341 97.8288 76.8541 96.7088 78.3541 96.7088C79.8941 96.7088 81.2941 97.8688 81.2941 99.9688ZM95.4488 102.349C95.3688 98.2888 89.2288 99.5488 89.2288 97.5288C89.2288 96.8888 89.7688 96.4688 90.8088 96.4688C91.9088 96.4688 92.5888 97.0488 92.6688 97.9088H95.3488C95.1888 95.7088 93.5688 94.2488 90.8888 94.2488C88.1488 94.2488 86.5088 95.7288 86.5088 97.5688C86.5088 101.629 92.7688 100.369 92.7688 102.349C92.7688 102.989 92.1688 103.489 91.0688 103.489C89.9488 103.489 89.1688 102.849 89.0688 102.009H86.2488C86.3688 104.069 88.3088 105.689 91.0888 105.689C93.7888 105.689 95.4488 104.249 95.4488 102.349ZM107.393 91.5488H102.513V105.509H107.393C111.853 105.509 114.753 102.769 114.753 98.5488C114.753 94.3088 111.853 91.5488 107.393 91.5488ZM105.313 103.129V93.9088H107.293C110.233 93.9088 111.893 95.6488 111.893 98.5488C111.893 101.449 110.233 103.129 107.293 103.129H105.313ZM116.849 105.509H119.649V94.4288H116.849V105.509ZM118.269 93.1088C119.249 93.1088 119.989 92.3888 119.989 91.4688C119.989 90.5488 119.249 89.8288 118.269 89.8288C117.269 89.8288 116.549 90.5488 116.549 91.4688C116.549 92.3888 117.269 93.1088 118.269 93.1088ZM121.695 99.9288C121.695 103.389 123.935 105.689 126.755 105.689C128.495 105.689 129.755 104.829 130.415 103.869V105.589C130.415 107.649 129.215 108.529 127.675 108.529C126.275 108.529 125.235 107.869 124.955 106.869H122.175C122.455 109.409 124.635 110.969 127.755 110.969C131.395 110.969 133.235 108.589 133.235 105.589V94.4288H130.415V96.0088C129.755 95.0488 128.495 94.2488 126.755 94.2488C123.935 94.2488 121.695 96.4688 121.695 99.9288ZM130.415 99.9688C130.415 102.069 129.015 103.229 127.475 103.229C125.975 103.229 124.555 102.029 124.555 99.9288C124.555 97.8288 125.975 96.7088 127.475 96.7088C129.015 96.7088 130.415 97.8688 130.415 99.9688ZM135.97 105.509H138.77V94.4288H135.97V105.509ZM137.39 93.1088C138.37 93.1088 139.11 92.3888 139.11 91.4688C139.11 90.5488 138.37 89.8288 137.39 89.8288C136.39 89.8288 135.67 90.5488 135.67 91.4688C135.67 92.3888 136.39 93.1088 137.39 93.1088ZM141.976 102.069C141.976 104.609 143.396 105.509 145.516 105.509H147.276V103.149H145.976C145.096 103.149 144.796 102.829 144.796 102.089V96.7288H147.276V94.4288H144.796V91.6888H141.976V94.4288H140.656V96.7288H141.976V102.069ZM154.05 96.5488C155.49 96.5488 156.65 97.4688 156.69 98.9288H151.43C151.65 97.4088 152.71 96.5488 154.05 96.5488ZM159.31 102.029H156.29C155.93 102.769 155.27 103.369 154.07 103.369C152.67 103.369 151.55 102.449 151.41 100.809H159.51C159.57 100.449 159.59 100.089 159.59 99.7288C159.59 96.4288 157.33 94.2488 154.13 94.2488C150.85 94.2488 148.57 96.4688 148.57 99.9688C148.57 103.449 150.91 105.689 154.13 105.689C156.87 105.689 158.71 104.069 159.31 102.029ZM160.914 99.9288C160.914 103.389 163.154 105.689 165.954 105.689C167.714 105.689 168.974 104.849 169.634 103.889V105.509H172.454V94.4288H169.634V96.0088C168.974 95.0888 167.754 94.2488 165.974 94.2488C163.154 94.2488 160.914 96.4688 160.914 99.9288ZM169.634 99.9688C169.634 102.069 168.234 103.229 166.694 103.229C165.194 103.229 163.774 102.029 163.774 99.9288C163.774 97.8288 165.194 96.7088 166.694 96.7088C168.234 96.7088 169.634 97.8688 169.634 99.9688ZM174.469 99.9688C174.469 103.449 176.749 105.689 179.949 105.689C182.709 105.689 184.569 104.129 185.169 101.769H182.149C181.809 102.769 181.089 103.289 179.929 103.289C178.369 103.289 177.329 102.129 177.329 99.9688C177.329 97.8088 178.369 96.6288 179.929 96.6288C181.089 96.6288 181.829 97.2288 182.149 98.1688H185.169C184.569 95.6888 182.709 94.2488 179.949 94.2488C176.749 94.2488 174.469 96.4888 174.469 99.9688ZM187.22 105.509H190.02V99.3888C190.02 97.6088 191 96.6488 192.52 96.6488C194 96.6488 194.98 97.6088 194.98 99.3888V105.509H197.78V99.0088C197.78 95.9488 195.96 94.2688 193.46 94.2688C191.98 94.2688 190.74 94.8688 190.02 95.8088V90.7088H187.22V105.509Z" fill="#788995"/>
<ellipse cx="163.871" cy="43.2915" rx="24.1816" ry="25.1767" fill="#EE9D3D"/>
<path d="M176.059 28.1308C175.522 27.8197 174.931 27.6218 174.32 27.5485C173.71 27.4752 173.091 27.528 172.5 27.7038C171.909 27.8795 171.358 28.1749 170.876 28.5729C170.395 28.9709 169.994 29.4638 169.696 30.0233L161.009 46.2985L156.038 41.1227C155.607 40.6574 155.09 40.2863 154.519 40.031C153.949 39.7757 153.335 39.6413 152.713 39.6357C152.092 39.6301 151.476 39.7534 150.901 39.9983C150.326 40.2432 149.804 40.6049 149.364 41.0623C148.925 41.5197 148.578 42.0636 148.342 42.6623C148.107 43.2609 147.989 43.9024 147.994 44.5492C147.999 45.196 148.129 45.8352 148.374 46.4296C148.619 47.0239 148.975 47.5614 149.422 48.0108L158.78 57.7535C159.664 58.6766 160.857 59.1832 162.088 59.1832L162.736 59.1345C163.453 59.0301 164.137 58.7537 164.734 58.3273C165.331 57.9008 165.825 57.3359 166.177 56.6769L177.874 34.7558C178.173 34.1967 178.363 33.5819 178.433 32.9463C178.504 32.3108 178.453 31.6671 178.284 31.0519C178.116 30.4367 177.833 29.8621 177.451 29.3609C177.069 28.8597 176.596 28.4417 176.059 28.1308V28.1308Z" fill="#FFE3CA"/>
</svg>
