<svg width="123" height="97" viewBox="0 0 123 97" fill="none" xmlns="http://www.w3.org/2000/svg">
<path opacity="0.1" d="M85.3023 90.4256C87.8325 89.2355 128.168 89.7978 121.753 60.5136C115.338 31.2295 74.361 34.7179 64.3766 14.3704C54.3921 -5.97538 27.5645 2.74474 12.4009 17.8588C-3.00333 33.2135 -17.9264 102.735 70.6911 71.3956C105.178 59.1996 83.6066 89.3541 83.6066 89.3541" fill="#2A94F4"/>
<path d="M62.4088 5.20926C57.5801 4.40811 52.7929 6.90407 50.7349 11.331C50.1339 12.6226 49.6059 14.1324 49.2194 15.8882C47.211 25.0098 46.1018 31.2394 37.7284 37.4689C29.355 43.6985 47.6876 63.0258 57.0467 55.0313C66.4059 47.0369 82.2525 57.0854 85.8242 51.1702C89.395 45.2559 82.9373 38.8036 86.0477 33.9096C89.1572 29.0147 92.0891 10.9942 83.6076 4.98742C75.1252 -1.0203 64.4389 -2.35495 62.4088 5.20926Z" fill="#063656"/>
<path d="M59.9111 43.0312C59.9111 43.0312 39.6224 41.1954 43.6392 89.2355H87.8326C87.8326 89.2355 92.018 44.0317 71.5535 43.0312H59.9111Z" fill="#2A94F4"/>
<path d="M61.2724 29.0704C61.2724 29.0704 59.71 44.3658 59.9335 47.4806C60.157 50.5954 69.5773 53.2647 71.3163 48.8153C72.3696 46.1199 69.5773 29.0704 69.5773 29.0704H61.2724Z" fill="#AE7440"/>
<path d="M78.9469 10.1123C78.9469 10.1123 90.3316 36.2735 73.1316 38.6823C68.6931 39.3039 62.2758 34.4098 61.2721 30.8496C60.3918 27.7312 58.8915 30.1266 57.749 27.4681C56.1893 23.8368 57.2633 13.3878 60.6026 20.1149C63.0579 25.0628 68.1912 10.9188 73.1019 13.1435C78.0125 15.3691 78.9469 10.1123 78.9469 10.1123Z" fill="#AF6A2D"/>
<path d="M52.9684 96.0569L36.8307 45.2451C36.8307 45.2451 23.9044 51.1738 16.1338 56.1953C16.1338 56.1953 20.8841 69.1861 24.409 76.295C27.9338 83.4038 29.7539 85.7067 35.6017 88.6912C41.4495 91.6767 52.9684 96.0569 52.9684 96.0569Z" fill="#0E538C"/>
<path d="M52.9682 96.0569L36.8306 45.2451C36.8306 45.2451 50.8247 42.6791 60.0784 42.3279C60.0784 42.3279 63.6933 55.6771 64.9151 63.5125C66.137 71.348 65.9775 74.2759 62.9184 80.0717C59.8594 85.8674 52.9682 96.0569 52.9682 96.0569Z" fill="#0E538C"/>
<path d="M18.3809 56.9525C19.7 60.4786 23.2924 69.8948 26.0622 75.4813C29.3907 82.1958 30.9594 84.258 36.4422 87.0557C40.9547 89.3586 49.0415 92.5614 52.2555 93.8116L37.3919 47.0118C35.7935 47.7528 25.4522 52.592 18.3809 56.9525Z" fill="#F9F3ED"/>
<path d="M61.2868 79.2158C64.1548 73.7829 64.2476 71.1953 63.0934 63.7955C62.1338 57.6405 59.6343 47.8776 58.6783 44.2365C50.3779 44.7269 39.1266 46.701 37.3921 47.0118L52.2548 93.8116C54.1623 90.9456 58.9261 83.6885 61.2868 79.2158Z" fill="#F9F3ED"/>
<path d="M19.7373 57.4186C21.2916 61.5402 24.5173 69.8759 27.0538 74.9927C30.2471 81.4342 31.6365 83.3643 36.9463 86.0749C41.0623 88.1757 48.203 91.0408 51.8261 92.4599L37.7284 48.0716C36.1083 48.826 26.5879 53.2979 19.7373 57.4186Z" fill="#0E538C"/>
<path d="M60.3081 78.702C63.0861 73.4398 63.1077 71.0651 62.0003 63.9643C61.1218 58.3275 58.9467 49.6595 57.8375 45.3951C49.8561 45.9546 39.4887 47.759 37.728 48.0716L51.8257 92.459C53.9684 89.222 58.1538 82.7832 60.3081 78.702Z" fill="#0E538C"/>
<path d="M71.9318 93.5951L100.164 96.6784C101.035 96.7736 101.82 96.1467 101.916 95.2773L107.289 46.3992C107.384 45.5307 106.755 44.7484 105.883 44.6532L76.0721 41.3974L70.5262 91.8482C70.4307 92.7185 71.0605 93.4999 71.9318 93.5951Z" fill="#D3D3D3"/>
<path d="M105.28 44.5886L104.224 44.4736L76.0721 41.3983L75.0161 41.2834C73.8114 41.1513 72.7274 42.019 72.595 43.2198L67.3537 90.8944C67.2212 92.0952 68.0916 93.1757 69.2963 93.3077L96.3221 96.2599C97.5268 96.3919 98.6107 95.5243 98.7432 94.3235L101.138 72.5353L102.194 72.6503C103.399 72.7823 104.483 71.9147 104.615 70.7139L107.222 47.0019C107.355 45.8011 106.485 44.7206 105.28 44.5886Z" fill="#F7F7F7"/>
<path d="M56.9007 71.3956V63.4093C56.9007 60.8567 59.265 58.958 61.1689 58.958H65.766C68.9837 58.958 70.6911 60.8567 70.6911 63.4093V71.3956H74.6314V63.4093C74.6314 58.6958 71.1507 55.0304 65.766 55.0304H61.1689C57.0971 55.0304 52.9604 58.6958 52.9604 63.4093V71.3956H56.9007Z" fill="#CCE9FF"/>
<path d="M76.6018 91.8195C76.6018 93.9795 75.2881 95.616 73.1211 95.616H55.1273C52.9603 95.616 50.9897 93.9795 50.9897 91.8195V72.574C50.9897 70.4139 52.9594 70.0861 55.1273 70.0861H73.1211C75.2881 70.0861 76.6018 70.413 76.6018 72.574V91.8195Z" fill="#FFBE55"/>
<path d="M67.3419 80.1022C67.3419 78.2691 65.8975 76.7638 64.0584 76.7638C62.2194 76.7638 60.8408 78.2691 60.8408 80.1022C60.8408 81.4117 61.4977 82.459 62.8105 83.0482V89.2014C62.8105 90.0519 63.27 90.7067 64.1242 90.7067C64.9784 90.7067 65.4379 90.0519 65.4379 89.2014V83.0482C66.7508 82.4581 67.3419 81.4108 67.3419 80.1022Z" fill="#333333"/>
<path d="M46.6882 88.6679L51.9683 87.3063C51.9683 87.3063 52.6108 84.8022 53.8163 83.852C55.0219 82.9018 56.4672 82.1815 57.1097 82.2614C57.7521 82.3413 56.387 84.1035 55.7437 84.9037C55.1003 85.704 56.0653 85.9447 58.636 84.1834C61.2067 82.4222 63.3755 81.8554 64.0179 85.4615C64.6604 89.0675 60.9652 90.7498 56.4663 90.7498C51.9674 90.7498 48.4353 93.2736 48.4353 93.2736C48.4353 93.2736 41.7289 92.6718 46.6882 88.6679Z" fill="#AF6A2D"/>
<path d="M24.409 76.295C24.409 76.295 22.4357 76.4028 20.6498 79.9621C18.864 83.5215 21.1418 100.54 52.2548 93.8106L50.2058 87.361C50.2067 87.361 26.1894 80.1247 24.409 76.295Z" fill="#2A94F4"/>
<path d="M81.7805 88.6679L76.5004 87.3063C76.5004 87.3063 75.858 84.8022 74.6524 83.852C73.4468 82.9018 72.0015 82.1815 71.3591 82.2614C70.7166 82.3413 72.0817 84.1035 72.7251 84.9037C73.3684 85.704 72.4034 85.9447 69.8327 84.1834C67.2621 82.4222 65.0932 81.8554 64.4508 85.4615C63.8084 89.0675 67.5035 90.7498 72.0024 90.7498C76.5013 90.7498 80.0334 93.2736 80.0334 93.2736C80.0334 93.2736 86.739 92.6718 81.7805 88.6679Z" fill="#AF6A2D"/>
<path d="M104.012 76.295C104.012 76.295 105.985 76.4028 107.771 79.9621C109.557 83.5215 107.279 100.54 76.166 93.8106L78.215 87.361C78.2141 87.361 102.231 80.1247 104.012 76.295Z" fill="#2A94F4"/>
</svg>
