<svg width="210" height="122" viewBox="0 0 210 122" fill="none" xmlns="http://www.w3.org/2000/svg">
<path d="M0 122H210V0H111.464V19.9016H0V122Z" fill="#6FACB6"/>
<path d="M203.204 114.051V27.2249V5.35815H116.214V15.8381V26.7906H60.8252H5.43689L5.43689 70.421V114.051H103.641H128.447H153.252H203.204Z" fill="#89D2DE"/>
<path d="M5.43688 26.7906L0 19.9016H111.456L116.214 26.7906H5.43688Z" fill="#C6E9F1"/>
<path d="M116.214 5.35812L111.456 0H210L203.204 5.35812H116.214Z" fill="#C6E9F1"/>
<path d="M75.2819 106.339C73.9752 106.339 72.7752 106.032 71.6819 105.419C70.5885 104.806 69.7219 103.959 69.0819 102.879C68.4419 101.786 68.1219 100.552 68.1219 99.179C68.1219 97.819 68.4419 96.599 69.0819 95.519C69.7219 94.4256 70.5885 93.5723 71.6819 92.959C72.7752 92.3456 73.9752 92.039 75.2819 92.039C76.6019 92.039 77.8019 92.3456 78.8819 92.959C79.9752 93.5723 80.8352 94.4256 81.4619 95.519C82.1019 96.599 82.4219 97.819 82.4219 99.179C82.4219 100.552 82.1019 101.786 81.4619 102.879C80.8352 103.959 79.9752 104.806 78.8819 105.419C77.7885 106.032 76.5885 106.339 75.2819 106.339ZM75.2819 103.839C76.1219 103.839 76.8619 103.652 77.5019 103.279C78.1419 102.892 78.6419 102.346 79.0019 101.639C79.3619 100.932 79.5419 100.112 79.5419 99.179C79.5419 98.2456 79.3619 97.4323 79.0019 96.739C78.6419 96.0323 78.1419 95.4923 77.5019 95.119C76.8619 94.7456 76.1219 94.559 75.2819 94.559C74.4419 94.559 73.6952 94.7456 73.0419 95.119C72.4019 95.4923 71.9019 96.0323 71.5419 96.739C71.1819 97.4323 71.0019 98.2456 71.0019 99.179C71.0019 100.112 71.1819 100.932 71.5419 101.639C71.9019 102.346 72.4019 102.892 73.0419 103.279C73.6952 103.652 74.4419 103.839 75.2819 103.839ZM90.645 94.959C91.965 94.959 93.0317 95.379 93.845 96.219C94.6583 97.0456 95.065 98.2056 95.065 99.699V106.199H92.265V100.079C92.265 99.199 92.045 98.5256 91.605 98.059C91.165 97.579 90.565 97.339 89.805 97.339C89.0317 97.339 88.4183 97.579 87.965 98.059C87.525 98.5256 87.305 99.199 87.305 100.079V106.199H84.505V95.119H87.305V96.499C87.6783 96.019 88.1517 95.6456 88.725 95.379C89.3117 95.099 89.9517 94.959 90.645 94.959ZM100.528 91.399V106.199H97.7276V91.399H100.528ZM104.714 93.799C104.221 93.799 103.807 93.6456 103.474 93.339C103.154 93.019 102.994 92.6256 102.994 92.159C102.994 91.6923 103.154 91.3056 103.474 90.999C103.807 90.679 104.221 90.519 104.714 90.519C105.207 90.519 105.614 90.679 105.934 90.999C106.267 91.3056 106.434 91.6923 106.434 92.159C106.434 92.6256 106.267 93.019 105.934 93.339C105.614 93.6456 105.207 93.799 104.714 93.799ZM106.094 95.119V106.199H103.294V95.119H106.094ZM115 94.959C116.32 94.959 117.387 95.379 118.2 96.219C119.014 97.0456 119.42 98.2056 119.42 99.699V106.199H116.62V100.079C116.62 99.199 116.4 98.5256 115.96 98.059C115.52 97.579 114.92 97.339 114.16 97.339C113.387 97.339 112.774 97.579 112.32 98.059C111.88 98.5256 111.66 99.199 111.66 100.079V106.199H108.86V95.119H111.66V96.499C112.034 96.019 112.507 95.6456 113.08 95.379C113.667 95.099 114.307 94.959 115 94.959ZM132.383 100.419C132.383 100.819 132.356 101.179 132.303 101.499H124.203C124.27 102.299 124.55 102.926 125.043 103.379C125.536 103.832 126.143 104.059 126.863 104.059C127.903 104.059 128.643 103.612 129.083 102.719H132.103C131.783 103.786 131.17 104.666 130.263 105.359C129.356 106.039 128.243 106.379 126.923 106.379C125.856 106.379 124.896 106.146 124.043 105.679C123.203 105.199 122.543 104.526 122.063 103.659C121.596 102.792 121.363 101.792 121.363 100.659C121.363 99.5123 121.596 98.5056 122.063 97.639C122.53 96.7723 123.183 96.1056 124.023 95.639C124.863 95.1723 125.83 94.939 126.923 94.939C127.976 94.939 128.916 95.1656 129.743 95.619C130.583 96.0723 131.23 96.719 131.683 97.559C132.15 98.3856 132.383 99.339 132.383 100.419ZM129.483 99.619C129.47 98.899 129.21 98.3256 128.703 97.899C128.196 97.459 127.576 97.239 126.843 97.239C126.15 97.239 125.563 97.4523 125.083 97.879C124.616 98.2923 124.33 98.8723 124.223 99.619H129.483ZM141.992 103.979H146.592V106.199H139.192V92.239H141.992V103.979ZM149.792 93.799C149.299 93.799 148.886 93.6456 148.552 93.339C148.232 93.019 148.072 92.6256 148.072 92.159C148.072 91.6923 148.232 91.3056 148.552 90.999C148.886 90.679 149.299 90.519 149.792 90.519C150.286 90.519 150.692 90.679 151.012 90.999C151.346 91.3056 151.512 91.6923 151.512 92.159C151.512 92.6256 151.346 93.019 151.012 93.339C150.692 93.6456 150.286 93.799 149.792 93.799ZM151.172 95.119V106.199H148.372V95.119H151.172ZM158.559 103.619L161.359 95.119H164.339L160.239 106.199H156.839L152.759 95.119H155.759L158.559 103.619ZM167.331 93.799C166.838 93.799 166.425 93.6456 166.091 93.339C165.771 93.019 165.611 92.6256 165.611 92.159C165.611 91.6923 165.771 91.3056 166.091 90.999C166.425 90.679 166.838 90.519 167.331 90.519C167.825 90.519 168.231 90.679 168.551 90.999C168.885 91.3056 169.051 91.6923 169.051 92.159C169.051 92.6256 168.885 93.019 168.551 93.339C168.231 93.6456 167.825 93.799 167.331 93.799ZM168.711 95.119V106.199H165.911V95.119H168.711ZM177.618 94.959C178.938 94.959 180.004 95.379 180.818 96.219C181.631 97.0456 182.038 98.2056 182.038 99.699V106.199H179.238V100.079C179.238 99.199 179.018 98.5256 178.578 98.059C178.138 97.579 177.538 97.339 176.778 97.339C176.004 97.339 175.391 97.579 174.938 98.059C174.498 98.5256 174.278 99.199 174.278 100.079V106.199H171.478V95.119H174.278V96.499C174.651 96.019 175.124 95.6456 175.698 95.379C176.284 95.099 176.924 94.959 177.618 94.959ZM189.04 94.939C189.867 94.939 190.594 95.1056 191.22 95.439C191.847 95.759 192.34 96.179 192.7 96.699V95.119H195.52V106.279C195.52 107.306 195.314 108.219 194.9 109.019C194.487 109.832 193.867 110.472 193.04 110.939C192.214 111.419 191.214 111.659 190.04 111.659C188.467 111.659 187.174 111.292 186.16 110.559C185.16 109.826 184.594 108.826 184.46 107.559H187.24C187.387 108.066 187.7 108.466 188.18 108.759C188.674 109.066 189.267 109.219 189.96 109.219C190.774 109.219 191.434 108.972 191.94 108.479C192.447 107.999 192.7 107.266 192.7 106.279V104.559C192.34 105.079 191.84 105.512 191.2 105.859C190.574 106.206 189.854 106.379 189.04 106.379C188.107 106.379 187.254 106.139 186.48 105.659C185.707 105.179 185.094 104.506 184.64 103.639C184.2 102.759 183.98 101.752 183.98 100.619C183.98 99.499 184.2 98.5056 184.64 97.639C185.094 96.7723 185.7 96.1056 186.46 95.639C187.234 95.1723 188.094 94.939 189.04 94.939ZM192.7 100.659C192.7 99.979 192.567 99.399 192.3 98.919C192.034 98.4256 191.674 98.0523 191.22 97.799C190.767 97.5323 190.28 97.399 189.76 97.399C189.24 97.399 188.76 97.5256 188.32 97.779C187.88 98.0323 187.52 98.4056 187.24 98.899C186.974 99.379 186.84 99.9523 186.84 100.619C186.84 101.286 186.974 101.872 187.24 102.379C187.52 102.872 187.88 103.252 188.32 103.519C188.774 103.786 189.254 103.919 189.76 103.919C190.28 103.919 190.767 103.792 191.22 103.539C191.674 103.272 192.034 102.899 192.3 102.419C192.567 101.926 192.7 101.339 192.7 100.659Z" fill="#788995"/>
<ellipse cx="160.225" cy="43.6494" rx="24.1816" ry="25.3847" fill="#EE9D3D"/>
<path d="M172.413 28.3634C171.876 28.0497 171.285 27.8502 170.675 27.7763C170.064 27.7024 169.446 27.7556 168.855 27.9328C168.264 28.1101 167.712 28.4078 167.23 28.8091C166.749 29.2104 166.348 29.7074 166.05 30.2716L157.364 46.6813L152.392 41.4627C151.961 40.9936 151.444 40.6194 150.874 40.362C150.303 40.1046 149.689 39.9691 149.068 39.9634C148.446 39.9577 147.83 40.082 147.255 40.329C146.68 40.5759 146.158 40.9406 145.718 41.4018C145.279 41.863 144.932 42.4114 144.696 43.015C144.461 43.6186 144.343 44.2654 144.348 44.9175C144.354 45.5697 144.483 46.2142 144.728 46.8134C144.973 47.4127 145.33 47.9546 145.776 48.4077L155.134 58.2309C156.018 59.1617 157.212 59.6725 158.442 59.6725L159.09 59.6234C159.807 59.518 160.491 59.2394 161.088 58.8095C161.686 58.3795 162.18 57.8099 162.531 57.1455L174.228 35.0432C174.527 34.4795 174.717 33.8595 174.787 33.2187C174.858 32.578 174.807 31.9289 174.639 31.3086C174.47 30.6883 174.187 30.109 173.805 29.6036C173.423 29.0983 172.95 28.6769 172.413 28.3634Z" fill="#FFE3CA"/>
</svg>
