<svg width="396" height="364" viewBox="0 0 436 404" fill="none" xmlns="http://www.w3.org/2000/svg">
<path d="M366.847 385.313C380.894 377.704 394.993 369.565 405.837 357.834C416.681 346.104 423.97 330.101 421.732 314.283C419.674 299.739 410.02 287.196 407.457 272.731C403.059 247.909 420.054 224.604 424.02 199.709C427.003 180.988 422.185 161.146 410.949 145.878C400.706 131.959 385.629 121.974 376.383 107.374C363.924 87.6999 363.281 61.5698 348.066 43.9399C337.045 31.17 320.309 25.1689 304.312 19.8166C275.964 10.3306 247.032 1.18109 217.158 0.0970794C187.284 -0.986936 155.897 6.9324 134.327 27.6292C127.623 34.062 121.908 41.7573 119.017 50.5875C112.181 71.4676 121.968 93.6226 128.103 114.719C129.304 118.846 130.373 123.201 129.466 127.402C128.573 131.54 125.864 135.036 123.008 138.162C109.703 152.725 91.9952 162.34 74.9073 172.196C57.8195 182.051 40.5527 192.829 29.0351 208.844C17.5174 224.859 12.9976 247.44 23.0074 264.438C26.8909 271.033 32.8154 276.711 34.3887 284.2C37.17 297.44 25.6307 308.758 18.8445 320.461C7.57749 339.892 9.65696 366.201 23.8368 383.621C38.0167 401.04 63.3564 408.415 84.6692 401.324L366.847 385.313Z" fill="#AFCEDE"/>
<path d="M58.3268 382.823C60.4523 344.564 32.112 292.956 3.06368 290.42C-7.56392 312.681 10.7705 371.579 37.8292 382.357C64.888 393.135 58.3268 382.823 58.3268 382.823Z" fill="#2A94F4"/>
<path d="M41.5496 373.91C41.4115 371.037 40.8588 367.999 40.1933 365.007C39.5189 362.006 38.705 359.011 37.8251 356.031C36.0609 350.069 34.02 344.163 31.8143 338.32C29.6033 332.477 27.2201 326.692 24.6123 321.007C23.3012 318.169 21.9329 315.356 20.449 312.603C19.6953 311.235 18.9332 309.868 18.0892 308.552C17.251 307.236 16.3755 305.929 15.2676 304.816C16.4406 305.863 17.3993 307.126 18.3181 308.397C19.2441 309.669 20.0894 310.995 20.9277 312.325C22.5798 315 24.1195 317.743 25.6034 320.514C28.5569 326.065 31.2913 331.731 33.861 337.476C36.4258 343.223 38.8321 349.047 40.9802 354.995C42.0527 357.97 43.0632 360.975 43.9466 364.046C44.8181 367.125 45.6014 370.237 45.9676 373.616L41.5496 373.91Z" fill="#CCE9FF"/>
<path d="M72.1868 375.079C72.1868 375.079 71.6377 376.594 69.2686 377.068C68.7904 377.165 68.2369 377.218 67.5992 377.205C64.9777 377.165 60.9171 376.045 54.6867 372.378C39.4582 363.407 39.1704 326.905 47.606 314.542C64.7918 318.753 77.0046 352.332 72.1868 375.079Z" fill="#0E538C"/>
<path d="M69.2685 377.068C68.7903 377.165 68.2367 377.218 67.5991 377.205C67.5902 377.103 67.577 377.006 67.5681 376.904C67.0102 371.803 66.1732 366.715 65.1548 361.667C64.1407 356.614 62.9362 351.597 61.5015 346.646C60.7797 344.171 59.9959 341.709 59.0926 339.295C58.8579 338.698 58.6365 338.091 58.3841 337.498L58.0121 336.603L57.6136 335.726C57.0601 334.566 56.4844 333.402 55.7095 332.365C56.5198 333.375 57.1398 334.517 57.7376 335.664L58.1715 336.532L58.5745 337.413C58.849 338.002 59.0926 338.6 59.3494 339.194C60.3413 341.585 61.2181 344.025 62.0285 346.478C63.6447 351.398 65.0352 356.388 66.2397 361.427C67.4441 366.467 68.4626 371.55 69.2154 376.696C69.2331 376.82 69.2508 376.944 69.2685 377.068Z" fill="#0E538C"/>
<path d="M142.071 375.342C142.071 375.342 141.589 376.67 139.513 377.085C139.094 377.17 138.609 377.216 138.05 377.205C135.752 377.17 132.193 376.188 126.732 372.974C113.385 365.111 113.133 333.118 120.526 322.282C135.589 325.973 146.293 355.405 142.071 375.342Z" fill="#51AEF4"/>
<path opacity="0.5" d="M139.514 377.085C139.094 377.17 138.61 377.217 138.051 377.205C138.043 377.116 138.031 377.031 138.024 376.941C137.535 372.47 136.801 368.011 135.908 363.586C135.02 359.158 133.964 354.76 132.706 350.421C132.074 348.252 131.387 346.094 130.595 343.978C130.389 343.454 130.195 342.923 129.974 342.403L129.648 341.618L129.299 340.85C128.814 339.833 128.309 338.812 127.63 337.904C128.34 338.789 128.883 339.791 129.407 340.796L129.788 341.556L130.141 342.329C130.382 342.845 130.595 343.369 130.82 343.889C131.69 345.985 132.458 348.123 133.169 350.273C134.585 354.585 135.804 358.96 136.86 363.376C137.915 367.793 138.808 372.248 139.468 376.759C139.483 376.868 139.498 376.976 139.514 377.085Z" fill="#51AEF4"/>
<path d="M377.359 382.823C375.233 344.564 403.574 292.956 432.622 290.42C443.25 312.681 424.915 371.579 397.857 382.357C370.798 393.135 377.359 382.823 377.359 382.823Z" fill="#0E538C"/>
<path d="M394.136 373.91C394.274 371.037 394.827 367.999 395.493 365.007C396.167 362.006 396.981 359.011 397.861 356.031C399.625 350.069 401.666 344.163 403.872 338.32C406.083 332.477 408.466 326.692 411.073 321.007C412.385 318.169 413.753 315.356 415.236 312.603C415.99 311.235 416.752 309.868 417.596 308.552C418.434 307.236 419.31 305.929 420.418 304.816C419.245 305.863 418.286 307.126 417.367 308.397C416.441 309.669 415.596 310.995 414.758 312.325C413.106 315 411.566 317.743 410.082 320.514C407.128 326.065 404.394 331.731 401.824 337.476C399.26 343.223 396.853 349.047 394.705 354.995C393.633 357.97 392.622 360.975 391.739 364.046C390.867 367.125 390.084 370.237 389.718 373.616L394.136 373.91Z" fill="#0E538C"/>
<path d="M320.99 384.251C322.433 358.272 303.189 323.229 283.465 321.507C276.249 336.624 288.698 376.616 307.072 383.935C325.445 391.253 320.99 384.251 320.99 384.251Z" fill="#0E538C"/>
<path d="M309.597 378.199C309.504 376.248 309.128 374.185 308.676 372.154C308.218 370.116 307.666 368.082 307.068 366.058C305.87 362.01 304.484 358 302.987 354.032C301.485 350.064 299.867 346.136 298.096 342.277C297.206 340.349 296.277 338.439 295.269 336.57C294.757 335.641 294.24 334.712 293.667 333.82C293.098 332.926 292.503 332.038 291.751 331.282C292.548 331.993 293.199 332.851 293.822 333.714C294.451 334.578 295.025 335.478 295.594 336.381C296.716 338.198 297.761 340.06 298.769 341.942C300.775 345.711 302.631 349.558 304.377 353.459C306.118 357.361 307.752 361.316 309.211 365.355C309.939 367.375 310.625 369.416 311.225 371.501C311.816 373.592 312.348 375.705 312.597 377.999L309.597 378.199Z" fill="#0E538C"/>
<path d="M312.752 375.669C313.402 363.165 324.416 347.391 333.943 347.584C336.616 355.189 328.597 373.682 319.428 376.236C310.259 378.79 312.752 375.669 312.752 375.669Z" fill="#51AEF4"/>
<path d="M318.515 373.361C318.661 372.433 318.946 371.465 319.267 370.516C319.591 369.565 319.961 368.62 320.351 367.683C321.133 365.808 322.003 363.961 322.924 362.14C323.847 360.319 324.824 358.523 325.87 356.767C326.396 355.891 326.939 355.025 327.517 354.183C327.81 353.765 328.105 353.347 328.426 352.949C328.744 352.551 329.075 352.157 329.474 351.834C329.056 352.133 328.7 352.51 328.357 352.891C328.012 353.272 327.691 353.673 327.372 354.076C326.741 354.887 326.145 355.724 325.566 356.572C324.412 358.272 323.326 360.018 322.289 361.794C321.255 363.571 320.269 365.379 319.363 367.236C318.91 368.165 318.477 369.106 318.082 370.073C317.691 371.043 317.328 372.027 317.09 373.112L318.515 373.361Z" fill="#2797E2"/>
<path d="M132.298 375.669C132.948 363.165 143.962 347.391 153.489 347.584C156.162 355.189 148.143 373.682 138.974 376.236C129.805 378.79 132.298 375.669 132.298 375.669Z" fill="#0E538C"/>
<path d="M138.061 373.361C138.206 372.433 138.492 371.465 138.813 370.516C139.137 369.565 139.507 368.62 139.897 367.683C140.679 365.808 141.549 363.961 142.47 362.14C143.393 360.319 144.37 358.523 145.416 356.767C145.942 355.891 146.485 355.025 147.063 354.183C147.356 353.765 147.651 353.347 147.972 352.949C148.29 352.551 148.621 352.157 149.02 351.834C148.602 352.133 148.246 352.51 147.903 352.891C147.557 353.272 147.236 353.673 146.917 354.076C146.287 354.887 145.691 355.724 145.112 356.572C143.958 358.272 142.871 360.018 141.835 361.794C140.8 363.571 139.815 365.379 138.908 367.236C138.456 368.165 138.022 369.106 137.628 370.073C137.237 371.043 136.873 372.027 136.636 373.112L138.061 373.361Z" fill="#0E538C"/>
<path d="M363.499 375.079C363.499 375.079 364.048 376.594 366.417 377.068C366.895 377.165 367.449 377.218 368.086 377.205C370.708 377.165 374.768 376.045 380.999 372.378C396.227 363.407 396.515 326.905 388.079 314.542C370.894 318.753 358.681 352.332 363.499 375.079Z" fill="#2A94F4"/>
<path d="M366.417 377.068C366.895 377.165 367.449 377.218 368.086 377.205C368.095 377.103 368.109 377.006 368.117 376.904C368.675 371.803 369.512 366.715 370.531 361.667C371.545 356.614 372.749 351.597 374.184 346.646C374.906 344.171 375.69 341.709 376.593 339.295C376.828 338.698 377.049 338.091 377.301 337.498L377.673 336.603L378.072 335.726C378.625 334.566 379.201 333.402 379.976 332.365C379.166 333.375 378.546 334.517 377.948 335.664L377.514 336.532L377.111 337.413C376.836 338.002 376.593 338.6 376.336 339.194C375.344 341.585 374.467 344.025 373.657 346.478C372.041 351.398 370.65 356.388 369.446 361.427C368.241 366.467 367.223 371.55 366.47 376.696C366.452 376.82 366.435 376.944 366.417 377.068Z" fill="#2A94F4"/>
<path d="M180.512 105.138L234.639 70.0085L240.41 53.3364L240.053 71.9334L194.257 111.786L180.512 105.138Z" fill="#DF9481"/>
<path d="M159.911 117.497L194.181 96.2595L201.113 121.679L162.407 147.098L159.911 117.497Z" fill="#FFBE55"/>
<path opacity="0.2" d="M159.911 117.497L194.181 96.2595L201.113 121.679L162.407 147.098L159.911 117.497Z" fill="#FFBE55"/>
<path d="M90.1256 276.014L75.7349 304.748L73.6988 276.456L80.4894 273.297L73.0483 272.175L73.0736 268.14L90.0578 267.763L90.1256 276.014Z" fill="#FFBE55"/>
<path d="M144.938 186.445C144.938 186.445 161.399 248.824 156.634 257.054C151.869 265.284 89.2153 278.832 89.2153 278.832L89.0581 266.584C89.0581 266.584 132.847 246.294 138.046 247.594C127.649 238.064 117.361 189.477 117.361 189.477L144.938 186.445Z" fill="#093C59"/>
<path d="M79.9335 326.851L92.266 356.526L69.5278 339.569L71.5771 332.365L65.8634 337.262L62.8262 334.605L73.646 321.507L79.9335 326.851Z" fill="#FFBE55"/>
<path d="M141.836 187.004C141.836 187.004 105.289 273.706 83.4173 332.365C69.9875 332.365 71.6423 319.311 71.6423 319.311C71.6423 319.311 98.1546 196.321 113.252 178.187C136.471 179.768 141.836 187.004 141.836 187.004Z" fill="#0B4870"/>
<path d="M117.361 147.098L73.1768 187.955L49.3276 192.25L72.9895 193.814L120.007 162.135L117.361 147.098Z" fill="#DF9481"/>
<path d="M157.152 107.301C167.22 107.301 175.383 98.6818 175.383 88.0498C175.383 77.4177 167.22 68.7988 157.152 68.7988C147.083 68.7988 138.92 77.4177 138.92 88.0498C138.92 98.6818 147.083 107.301 157.152 107.301Z" fill="#0B4870"/>
<path d="M174.372 75.1766C174.372 75.1766 179.261 105.68 173.59 111.786C156.386 110.613 152.086 104.11 147.785 95.1175C143.483 86.1248 153.259 67.7479 174.372 75.1766Z" fill="#DF9481"/>
<path d="M178.678 75.1509C177.802 81.8353 151.883 98.8908 146.2 95.9142C145.389 83.7372 152.183 61.5857 178.678 75.1509Z" fill="#0B4870"/>
<path d="M150.409 96.5722C148.244 94.3621 146.154 94.1052 145.808 96.9384C145.495 99.5005 148.853 103.264 151.289 102.671C153.724 102.077 150.409 96.5722 150.409 96.5722Z" fill="#DF9481"/>
<path d="M151.305 71.8803C145.419 63.7798 135.098 59.1303 125.131 60.0885C121.754 60.4131 118.339 61.3873 115.712 63.5327C113.084 65.6782 111.382 69.1503 111.979 72.49C112.961 77.9836 119.568 81.8065 118.944 87.3523C118.67 89.7829 116.95 91.8611 114.885 93.1718C112.82 94.4825 110.421 95.1468 108.062 95.7937C102.762 97.247 97.2968 98.7818 93.0165 102.229C88.7362 105.676 85.9305 111.581 87.7589 116.764C88.9474 120.133 91.9639 123.184 91.2355 126.681C90.4845 130.285 86.2064 131.939 84.3603 135.124C82.5519 138.243 83.4964 142.436 85.8964 145.127C88.2965 147.819 91.8528 149.214 95.3984 149.872C101.115 150.933 108.025 149.726 110.855 144.647C112.827 141.11 112.24 136.674 110.812 132.884C109.383 129.095 107.186 125.616 105.952 121.759C104.719 117.902 104.608 113.34 107.096 110.145C109.707 106.793 114.3 105.895 118.448 104.973C122.596 104.05 127.192 102.461 128.918 98.5773C130.478 95.0679 129.232 90.5118 131.651 87.5294C133.828 84.8464 137.811 84.8167 141.093 83.7354C145.61 82.2471 149.213 78.2644 150.244 73.6219L151.305 71.8803Z" fill="#0B4870"/>
<path d="M162.407 106.488L161.559 116.75L168.517 133.506L152.182 117.208L151.305 101.488L162.407 106.488Z" fill="#DF9481"/>
<path d="M171.654 152.846L159.908 164.816L148.983 193.814L117.54 182.665L106.902 178.889L117.36 169.743C117.36 169.743 106.547 158.476 104.438 150.227C124.147 133.529 139.278 120.122 152.181 117.21H155.621L168.518 133.504L171.654 152.846Z" fill="#FFBE55"/>
<path opacity="0.5" d="M138.046 151.503L117.541 182.665L106.902 178.889L117.36 169.744L138.046 151.503Z" fill="#FFBE55"/>
<path d="M365.551 276.037L388.51 306.362L379.985 258.899L362.287 262.196L365.551 276.037Z" fill="#FFBE55"/>
<path d="M310.077 198.324C303.305 218.48 295.179 247.068 305.579 263.311C315.979 279.554 367.482 277.005 367.482 277.005L365.448 262.016C365.448 262.016 329.766 254.736 331.315 250.095C332.866 245.455 341.812 211.97 340.459 207.465C339.105 202.961 337.254 189.394 337.254 189.394L310.077 198.324Z" fill="#B1D9F2"/>
<path d="M373.345 335.127L346.633 362.205L392.379 346.949L386.574 329.908L373.345 335.127Z" fill="#FFBE55"/>
<path d="M312.635 194.517C312.996 201.698 370.837 336.151 370.837 336.151L387.801 332.084C387.801 332.084 357.086 208.611 353.94 192.438C350.793 176.266 312.635 194.517 312.635 194.517Z" fill="#CCE9FF"/>
<path d="M376.253 152.499L381.068 158.517L392.677 198.993L395.818 216.054L387.494 213.641L385.807 202.658L383.646 206.991L381.272 207.43L384.213 198.114L370.869 164.955L362.439 159.31L376.253 152.499Z" fill="#FFE3CA"/>
<path d="M303.119 102.322L247.295 69.9571L240.41 53.3365L240.053 71.9334L289.726 109.653L303.119 102.322Z" fill="#FFE3CA"/>
<path d="M322.631 112.966L296.169 93.782L282.194 108.863L313.919 136.342L322.631 112.966Z" fill="#0B3E5B"/>
<path d="M322.631 112.966C321.57 113.912 311.366 121.681 306.666 130.548C301.966 139.414 306.996 202 306.996 202L361.659 199.249L350.748 153.015L361.64 164.778L380.583 148.862C380.583 148.862 360.43 121.361 356.155 118.5C348.139 113.135 322.631 112.966 322.631 112.966Z" fill="#0B4870"/>
<path d="M324.015 69.4231C328.384 69.7472 349.881 73.1848 332.094 99.2012C328.358 106.054 324.015 69.4231 324.015 69.4231Z" fill="#0B4870"/>
<path d="M305.33 75.5291C305.33 75.5291 302.605 102.89 308.576 108.704C312.856 108.195 319.491 108.057 322.331 106.998C330.851 103.82 329.57 97.9059 332.892 93.8732C339.23 86.1793 326.044 67.0483 305.33 75.5291Z" fill="#FFE3CA"/>
<path d="M321.268 102.761L322.162 113.359L320.326 119.415C319.498 121.732 322.457 123.505 324.109 121.682L333.132 113.442L332.448 93.8954L321.268 102.761Z" fill="#FFE3CA"/>
<path d="M314.971 83.1008C312.903 82.9892 310.87 83.4693 308.837 83.8651C306.804 84.261 304.542 84.3784 302.819 83.2297C300.455 81.6546 300.005 78.3769 298.253 76.142C297.005 74.5514 295.159 73.567 293.612 72.2669C293.384 72.0756 293.155 71.8675 293.041 71.5934C292.782 70.9734 293.187 70.2857 293.614 69.7672C295.134 67.922 297.21 66.5067 299.531 65.932C301.851 65.3567 304.409 65.6601 306.449 66.907C308.309 68.0442 309.765 69.935 311.879 70.4682C315.068 71.2728 318.064 68.6796 321.3 68.0845C322.424 67.8777 323.594 67.9184 324.701 68.2027C325.406 68.3838 326.095 68.6681 326.659 69.126C328.211 70.3845 328.561 72.6889 330.053 74.0182C331.607 75.4029 334.045 75.4189 335.585 76.8182C336.66 77.7941 337.104 79.2669 337.488 80.6671C337.967 82.4184 338.389 84.4186 337.407 85.9464C336.98 86.6124 335.885 92.5346 335.209 92.9469C331.323 95.3195 327.271 90.6092 323.566 88.7751C322.226 88.1117 321.151 87.0344 320.313 85.7958C319.619 84.7671 318.081 83.2687 314.971 83.1008Z" fill="#0B4870"/>
<path d="M328.207 85.6855L328.308 95.5905L330.283 95.4913L333.492 85.4194L328.207 85.6855Z" fill="#0B4870"/>
<path d="M330.918 86.9255C334.796 83.9776 336.035 85.0244 335.707 89.4415C335.379 93.8586 330.283 95.4913 330.283 95.4913L330.918 86.9255Z" fill="#FFE3CA"/>
<path d="M313.818 160.613C316.926 160.457 319.173 154.907 318.836 148.218C318.499 141.529 315.706 136.233 312.598 136.39C309.49 136.546 307.243 142.096 307.58 148.785C307.917 155.474 310.71 160.77 313.818 160.613Z" fill="#FFBE55"/>
<path d="M233.628 57.2323L224.626 47.799" stroke="#FFBE55" stroke-width="2" stroke-miterlimit="10" stroke-linecap="round"/>
<path d="M245.878 57.2323L254.88 47.799" stroke="#FFBE55" stroke-width="2" stroke-miterlimit="10" stroke-linecap="round"/>
<path d="M249.788 42.7957L250.38 42.1757" stroke="#FFBE55" stroke-width="2" stroke-miterlimit="10" stroke-linecap="round"/>
<path d="M245.878 46.8922L248.755 43.877" stroke="#FFBE55" stroke-width="2" stroke-miterlimit="10" stroke-linecap="round"/>
<path d="M236.777 46.8922L233.9 43.877" stroke="#FFBE55" stroke-width="2" stroke-miterlimit="10" stroke-linecap="round"/>
<path d="M226.285 34.1842C217.544 34.1842 210.463 41.2693 210.463 50.0105C210.463 41.2693 203.378 34.1842 194.637 34.1842C203.378 34.1842 210.463 27.0991 210.463 18.3579C210.463 27.0991 217.544 34.1842 226.285 34.1842Z" fill="#FFBE55"/>
<path d="M261.408 98.7987C257.03 98.7987 253.484 102.347 253.484 106.725C253.484 102.347 249.935 98.7987 245.557 98.7987C249.935 98.7987 253.484 95.2499 253.484 90.8722C253.484 95.2499 257.03 98.7987 261.408 98.7987Z" fill="#FFBE55"/>
</svg>
