<svg width="414" height="404" viewBox="0 0 414 404" fill="none" xmlns="http://www.w3.org/2000/svg">
<path d="M355.232 385.313C369.279 377.704 383.379 369.565 394.223 357.834C405.067 346.104 412.356 330.101 410.118 314.283C408.059 299.739 398.406 287.196 395.843 272.731C391.445 247.909 408.44 224.604 412.406 199.709C415.389 180.988 410.571 161.146 399.335 145.878C389.092 131.959 374.015 121.974 364.769 107.374C352.31 87.6999 351.666 61.5698 336.452 43.9399C325.431 31.17 308.694 25.1689 292.698 19.8166C264.349 10.3306 235.418 1.18109 205.543 0.0970794C175.669 -0.986936 144.283 6.9324 122.713 27.6292C116.009 34.062 110.294 41.7573 107.403 50.5875C100.567 71.4676 110.353 93.6226 116.489 114.719C117.69 118.846 118.759 123.201 117.852 127.402C116.959 131.54 114.249 135.036 111.394 138.162C98.0891 152.725 80.3809 162.34 63.293 172.196C46.2052 182.051 28.9385 192.829 17.4208 208.844C5.90314 224.859 1.38331 247.44 11.3932 264.438C15.2767 271.033 21.2011 276.711 22.7744 284.2C25.5558 297.44 14.0164 308.758 7.23026 320.461C-4.03677 339.892 -1.9573 366.201 12.2226 383.621C26.4024 401.04 51.7422 408.415 73.0549 401.324L355.232 385.313Z" fill="#AFCEDE"/>
<path d="M162.512 118.138L216.639 83.0085L222.41 66.3365L222.053 84.9334L176.257 124.786L162.512 118.138Z" fill="#DF9481"/>
<path d="M141.911 130.497L176.181 109.26L183.113 134.679L144.407 160.098L141.911 130.497Z" fill="#FFBE55"/>
<path opacity="0.2" d="M141.911 130.497L176.181 109.26L183.113 134.679L144.407 160.098L141.911 130.497Z" fill="#FFBE55"/>
<path d="M72.1256 289.014L57.7349 317.748L55.6988 289.456L62.4894 286.297L55.0483 285.175L55.0736 281.14L72.0578 280.763L72.1256 289.014Z" fill="#FFBE55"/>
<path d="M126.938 199.445C126.938 199.445 143.399 261.824 138.634 270.054C133.869 278.284 71.2153 291.832 71.2153 291.832L71.0581 279.584C71.0581 279.584 114.847 259.294 120.046 260.594C109.649 251.064 99.3607 202.477 99.3607 202.477L126.938 199.445Z" fill="#093C59"/>
<path d="M61.9335 339.851L74.266 369.526L51.5278 352.569L53.5771 345.365L47.8634 350.262L44.8262 347.605L55.646 334.507L61.9335 339.851Z" fill="#FFBE55"/>
<path d="M123.836 200.004C123.836 200.004 87.2893 286.706 65.4173 345.365C51.9875 345.365 53.6423 332.311 53.6423 332.311C53.6423 332.311 80.1546 209.321 95.2516 191.187C118.471 192.768 123.836 200.004 123.836 200.004Z" fill="#0B4870"/>
<path d="M99.3611 160.098L55.1768 200.955L31.3276 205.25L54.9895 206.814L102.007 175.135L99.3611 160.098Z" fill="#DF9481"/>
<path d="M139.152 120.301C149.22 120.301 157.383 111.682 157.383 101.05C157.383 90.4177 149.22 81.7988 139.152 81.7988C129.083 81.7988 120.92 90.4177 120.92 101.05C120.92 111.682 129.083 120.301 139.152 120.301Z" fill="#0B4870"/>
<path d="M156.372 88.1766C156.372 88.1766 161.261 118.68 155.59 124.786C138.386 123.613 134.086 117.11 129.785 108.118C125.483 99.1248 135.259 80.7479 156.372 88.1766Z" fill="#DF9481"/>
<path d="M160.678 88.151C159.802 94.8353 133.883 111.891 128.2 108.914C127.389 96.7372 134.183 74.5857 160.678 88.151Z" fill="#0B4870"/>
<path d="M132.409 109.572C130.244 107.362 128.154 107.105 127.808 109.938C127.495 112.501 130.853 116.264 133.289 115.671C135.724 115.077 132.409 109.572 132.409 109.572Z" fill="#DF9481"/>
<path d="M133.305 84.8803C127.419 76.7799 117.098 72.1303 107.131 73.0885C103.754 73.4131 100.339 74.3873 97.7117 76.5328C95.0841 78.6782 93.3819 82.1503 93.9792 85.4901C94.9614 90.9836 101.568 94.8065 100.944 100.352C100.67 102.783 98.9503 104.861 96.885 106.172C94.8197 107.483 92.4209 108.147 90.0621 108.794C84.762 110.247 79.2968 111.782 75.0165 115.229C70.7362 118.676 67.9305 124.581 69.7589 129.764C70.9474 133.133 73.9639 136.184 73.2355 139.681C72.4845 143.285 68.2064 144.939 66.3603 148.124C64.5519 151.243 65.4964 155.436 67.8964 158.127C70.2965 160.819 73.8528 162.214 77.3984 162.872C83.1147 163.933 90.0249 162.726 92.8554 157.647C94.8268 154.11 94.2405 149.674 92.8115 145.884C91.3825 142.095 89.1862 138.616 87.9525 134.759C86.7188 130.902 86.6077 126.34 89.0958 123.145C91.7071 119.793 96.2996 118.895 100.448 117.973C104.596 117.05 109.192 115.461 110.918 111.577C112.478 108.068 111.232 103.512 113.651 100.529C115.828 97.8464 119.811 97.8167 123.093 96.7354C127.61 95.2471 131.213 91.2644 132.244 86.6219L133.305 84.8803Z" fill="#0B4870"/>
<path d="M144.407 119.488L143.559 129.75L150.517 146.506L134.182 130.208L133.305 114.488L144.407 119.488Z" fill="#DF9481"/>
<path d="M153.654 165.846L141.908 177.816L130.983 206.814L99.5405 195.665L88.9018 191.889L99.3598 182.743C99.3598 182.743 88.5471 171.476 86.438 163.227C106.147 146.529 121.278 133.122 134.181 130.21H137.621L150.518 146.504L153.654 165.846Z" fill="#FFBE55"/>
<path opacity="0.5" d="M120.046 164.503L99.5405 195.665L88.9019 191.889L99.3603 182.744L120.046 164.503Z" fill="#FFBE55"/>
<path d="M347.551 289.037L370.51 319.362L361.985 271.899L344.287 275.196L347.551 289.037Z" fill="#FFBE55"/>
<path d="M292.077 211.324C285.305 231.48 277.179 260.068 287.579 276.311C297.979 292.554 349.482 290.005 349.482 290.005L347.448 275.016C347.448 275.016 311.766 267.736 313.315 263.095C314.866 258.455 323.812 224.97 322.459 220.465C321.105 215.961 319.254 202.394 319.254 202.394L292.077 211.324Z" fill="#B1D9F2"/>
<path d="M355.345 348.127L328.633 375.205L374.379 359.949L368.574 342.908L355.345 348.127Z" fill="#FFBE55"/>
<path d="M294.635 207.517C294.996 214.698 352.837 349.151 352.837 349.151L369.801 345.084C369.801 345.084 339.086 221.611 335.94 205.438C332.793 189.266 294.635 207.517 294.635 207.517Z" fill="#CCE9FF"/>
<path d="M358.253 165.499L363.068 171.517L374.677 211.993L377.818 229.054L369.494 226.641L367.807 215.658L365.646 219.991L363.272 220.43L366.213 211.114L352.869 177.955L344.439 172.31L358.253 165.499Z" fill="#FFE3CA"/>
<path d="M285.119 115.322L229.295 82.9571L222.41 66.3365L222.053 84.9334L271.726 122.653L285.119 115.322Z" fill="#FFE3CA"/>
<path d="M304.631 125.966L278.169 106.782L264.194 121.863L295.919 149.342L304.631 125.966Z" fill="#0B3E5B"/>
<path d="M304.631 125.966C303.57 126.912 293.366 134.681 288.666 143.548C283.966 152.414 288.996 215 288.996 215L343.659 212.249L332.748 166.015L343.64 177.778L362.583 161.862C362.583 161.862 342.43 134.361 338.155 131.5C330.139 126.135 304.631 125.966 304.631 125.966Z" fill="#0B4870"/>
<path d="M306.015 82.4231C310.384 82.7472 331.881 86.1848 314.094 112.201C310.358 119.054 306.015 82.4231 306.015 82.4231Z" fill="#0B4870"/>
<path d="M287.33 88.5291C287.33 88.5291 284.605 115.89 290.576 121.704C294.856 121.195 301.491 121.057 304.331 119.998C312.851 116.82 311.57 110.906 314.892 106.873C321.23 99.1792 308.044 80.0482 287.33 88.5291Z" fill="#FFE3CA"/>
<path d="M303.268 115.761L304.162 126.359L302.326 132.415C301.498 134.732 304.457 136.505 306.109 134.682L315.132 126.442L314.448 106.895L303.268 115.761Z" fill="#FFE3CA"/>
<path d="M296.971 96.1008C294.903 95.9892 292.87 96.4692 290.837 96.8651C288.804 97.261 286.542 97.3784 284.819 96.2297C282.455 94.6546 282.005 91.3769 280.253 89.142C279.005 87.5514 277.159 86.567 275.612 85.2669C275.384 85.0756 275.155 84.8675 275.041 84.5934C274.782 83.9734 275.187 83.2857 275.614 82.7672C277.134 80.922 279.21 79.5067 281.531 78.932C283.851 78.3567 286.409 78.6601 288.449 79.907C290.309 81.0442 291.765 82.935 293.879 83.4682C297.068 84.2728 300.064 81.6796 303.3 81.0845C304.424 80.8777 305.594 80.9184 306.701 81.2027C307.406 81.3838 308.095 81.6681 308.659 82.126C310.211 83.3845 310.561 85.6889 312.053 87.0182C313.607 88.4029 316.045 88.4189 317.585 89.8182C318.66 90.7941 319.104 92.2669 319.488 93.6671C319.967 95.4184 320.389 97.4186 319.407 98.9464C318.98 99.6124 317.885 105.535 317.209 105.947C313.323 108.319 309.271 103.609 305.566 101.775C304.226 101.112 303.151 100.034 302.313 98.7958C301.619 97.7671 300.081 96.2686 296.971 96.1008Z" fill="#0B4870"/>
<path d="M310.207 98.6855L310.308 108.59L312.283 108.491L315.492 98.4194L310.207 98.6855Z" fill="#0B4870"/>
<path d="M312.918 99.9254C316.796 96.9776 318.035 98.0244 317.707 102.442C317.379 106.859 312.283 108.491 312.283 108.491L312.918 99.9254Z" fill="#FFE3CA"/>
<path d="M295.818 173.613C298.926 173.457 301.173 167.907 300.836 161.218C300.499 154.529 297.706 149.233 294.598 149.39C291.49 149.546 289.243 155.096 289.58 161.785C289.917 168.474 292.71 173.77 295.818 173.613Z" fill="#FFBE55"/>
<path d="M215.628 70.2323L206.626 60.799" stroke="#FFBE55" stroke-width="2" stroke-miterlimit="10" stroke-linecap="round"/>
<path d="M227.878 70.2323L236.88 60.799" stroke="#FFBE55" stroke-width="2" stroke-miterlimit="10" stroke-linecap="round"/>
<path d="M231.788 55.7957L232.38 55.1757" stroke="#FFBE55" stroke-width="2" stroke-miterlimit="10" stroke-linecap="round"/>
<path d="M227.878 59.8922L230.755 56.877" stroke="#FFBE55" stroke-width="2" stroke-miterlimit="10" stroke-linecap="round"/>
<path d="M218.777 59.8922L215.9 56.877" stroke="#FFBE55" stroke-width="2" stroke-miterlimit="10" stroke-linecap="round"/>
<path d="M208.285 47.1842C199.544 47.1842 192.463 54.2692 192.463 63.0105C192.463 54.2692 185.378 47.1842 176.637 47.1842C185.378 47.1842 192.463 40.0991 192.463 31.3579C192.463 40.0991 199.544 47.1842 208.285 47.1842Z" fill="#FFBE55"/>
<path d="M243.408 111.799C239.03 111.799 235.484 115.347 235.484 119.725C235.484 115.347 231.935 111.799 227.557 111.799C231.935 111.799 235.484 108.25 235.484 103.872C235.484 108.25 239.03 111.799 243.408 111.799Z" fill="#FFBE55"/>
</svg>
