<svg width="210" height="122" viewBox="0 0 210 122" fill="none" xmlns="http://www.w3.org/2000/svg">
<path d="M0 122H210V0H111.464V19.9016H0V122Z" fill="#6FACB6"/>
<path d="M203.204 114.051V27.2249V5.35815H116.214V15.8381V26.7906H60.8252H5.43689L5.43689 70.421V114.051H103.641H128.447H153.252H203.204Z" fill="#89D2DE"/>
<path d="M5.43688 26.7906L0 19.9016H111.456L116.214 26.7906H5.43688Z" fill="#C6E9F1"/>
<path d="M116.214 5.35812L111.456 0H210L203.204 5.35812H116.214Z" fill="#C6E9F1"/>
<path d="M165.771 65.5236V62.0332H156.962V65.5236L161.366 69.5123L165.771 65.5236Z" fill="#834616"/>
<path d="M172.582 67.1561L166.526 65.7043C166.434 65.6825 166.35 65.6452 166.271 65.6001L161.366 68.5149L156.652 65.4587C156.53 65.5758 156.379 65.6627 156.207 65.704L150.151 67.1558C149.267 67.3682 148.642 68.1719 148.642 69.0972V73.0026C148.642 73.5534 149.08 73.9999 149.621 73.9999H173.112C173.653 73.9999 174.091 73.5534 174.091 73.0026V69.0972C174.091 68.1719 173.466 67.3682 172.582 67.1561Z" fill="#CCE9FF"/>
<path d="M162.59 73.9999H160.143L160.449 69.5122H162.284L162.59 73.9999Z" fill="#0B4870"/>
<path d="M162.59 68.515H160.143V68.8031C160.143 69.4703 160.673 70.0109 161.328 70.0109H161.404C162.059 70.0109 162.59 69.4703 162.59 68.8031L162.59 68.515Z" fill="#0B4870"/>
<path d="M156.893 64.4132L161.366 68.515C161.366 68.515 160.114 69.1594 158.568 70.4578C158.249 70.7257 157.766 70.6172 157.595 70.2338L155.494 65.5229L156.158 64.5071C156.324 64.2544 156.671 64.2097 156.893 64.4132Z" fill="#D3D3D3"/>
<path d="M165.84 64.4132L161.367 68.515C161.367 68.515 162.619 69.1594 164.165 70.4578C164.484 70.7257 164.967 70.6172 165.138 70.2338L167.239 65.5229L166.574 64.5071C166.409 64.2544 166.062 64.2097 165.84 64.4132Z" fill="#D3D3D3"/>
<path d="M168.677 56.8332L168.125 59.086C168.059 59.3528 167.824 59.5396 167.553 59.5396C167.474 59.5396 167.397 59.5233 167.329 59.4936L167.301 60.1235C167.262 61.0172 166.833 61.8457 166.13 62.3823L164.107 63.9281C163.599 64.3164 162.981 64.5254 162.345 64.5254H160.387C159.753 64.5254 159.135 64.3164 158.625 63.9281L156.602 62.3823C155.901 61.8457 155.47 61.0172 155.431 60.1235L155.403 59.4936C155.335 59.5233 155.258 59.5396 155.179 59.5396C154.91 59.5396 154.674 59.3528 154.609 59.086L154.056 56.8332C153.896 56.1826 154.38 55.5512 155.039 55.5512H155.041C155.105 55.5512 155.166 55.5571 155.227 55.569L155.005 50.5653H167.729L167.505 55.569C167.566 55.5571 167.627 55.5512 167.691 55.5512H167.694C168.353 55.5512 168.836 56.1826 168.677 56.8332Z" fill="#97571E"/>
<path d="M164.333 47.2616L164.792 50.5653C166.886 50.9918 167.188 54.3405 167.232 55.2971C167.24 55.4707 167.294 55.6381 167.386 55.7843L168.186 57.0472C168.186 57.0472 168.938 56.0602 169.165 53.5568C169.165 53.5568 169.011 46.2992 164.333 47.2616Z" fill="#0B4870"/>
<path d="M156.451 47.3089C153.179 49.7706 153.79 53.9935 153.79 53.9935C154.015 55.9878 154.769 57.4838 154.769 57.4838L155.617 55.8045C155.617 55.8045 155.579 51.5752 157.062 51.273C158.843 50.3661 163.739 50.5469 165.667 50.9707C166.854 49.7615 167.053 50.1666 166.854 48.2501C166.751 47.2584 165.787 45.9191 161.297 45.9968C159.766 46.0233 157.94 46.5194 156.451 47.3089Z" fill="#0B4870"/>
<path d="M161.366 20C155.526 20 154.959 27.4361 158.336 29.8361C160.057 30.0549 159.023 30.3175 159.189 30.4196C159.836 30.8173 156.88 34.5544 161.366 34.2826C163.833 34.1331 162.714 33.4346 163.362 33.037C164.317 33.0234 163.377 30.7104 163.378 30.5124C167.233 28.7577 167.205 20 161.366 20Z" fill="#FFBE55"/>
<path d="M166.956 33.6177L163.665 32.2203C163.39 32.1035 163.21 31.8299 163.21 31.5264V30.6182H159.521V31.5264C159.521 31.8299 159.342 32.1037 159.067 32.2203L155.775 33.6177C155.363 33.7929 155.094 34.2034 155.094 34.6586V36.162C155.094 36.5772 155.425 36.9138 155.832 36.9138H166.9C167.307 36.9138 167.637 36.5772 167.637 36.162V34.6584C167.637 34.2033 167.369 33.7929 166.956 33.6177Z" fill="#FCD2B1"/>
<path d="M166.956 33.6175L163.773 32.2664L161.366 33.3252L158.958 32.2664L155.775 33.6175C155.363 33.7926 155.094 34.2032 155.094 34.6584V36.1618C155.094 36.577 155.424 36.9136 155.832 36.9136H166.899C167.307 36.9136 167.637 36.577 167.637 36.1618V34.6582C167.637 34.203 167.368 33.7926 166.956 33.6175Z" fill="#CCE9FF"/>
<path d="M161.366 33.3253L159.254 31.7117C159.119 31.6083 158.926 31.6418 158.832 31.7856L158.414 32.4232L159.709 34.2696C159.807 34.41 160.001 34.4374 160.133 34.3296L161.366 33.3253Z" fill="#D3D3D3"/>
<path d="M161.366 33.3252L163.477 31.7116C163.613 31.6082 163.806 31.6417 163.9 31.7854L164.317 32.423L163.023 34.2695C162.924 34.4098 162.73 34.4372 162.598 34.3295L161.366 33.3252Z" fill="#D3D3D3"/>
<path d="M157.748 25.7874C157.742 25.975 157.746 26.1632 157.765 26.3501L158.029 28.9807C158.073 29.4761 158.355 29.9171 158.782 30.1589L160.882 31.3477C161.217 31.537 161.623 31.537 161.957 31.3477L164.058 30.1589C164.485 29.9173 164.766 29.4762 164.811 28.9807L165.04 26.7657C165.04 23.7589 161.42 25.2622 159.575 23.3831C159.206 24.1348 157.886 24.8305 157.748 25.7874Z" fill="#FFE3CA"/>
<path d="M181.729 32.5778C175.889 32.5778 175.321 40.0139 178.699 42.4139C180.42 42.6326 179.386 42.8953 179.552 42.9974C180.199 43.395 177.243 47.1322 181.729 46.8604C184.196 46.7108 183.077 46.0123 183.725 45.6148C184.68 45.6012 183.74 43.2882 183.741 43.0902C187.596 41.3353 187.568 32.5778 181.729 32.5778Z" fill="#0E538C"/>
<path d="M187.319 46.1954L184.027 44.7981C183.752 44.6813 183.573 44.4077 183.573 44.1042V43.1959H179.884V44.1042C179.884 44.4077 179.705 44.6815 179.43 44.7981L176.138 46.1954C175.726 46.3706 175.457 46.7812 175.457 47.2363V48.7398C175.457 49.1549 175.787 49.4915 176.195 49.4915H187.262C187.67 49.4915 188 49.1549 188 48.7398V47.2363C188 46.7812 187.731 46.3706 187.319 46.1954Z" fill="#CA7D41"/>
<path d="M187.319 46.1952L184.136 44.8441L181.729 45.9029L179.321 44.8441L176.138 46.1952C175.726 46.3704 175.457 46.781 175.457 47.2361V48.7396C175.457 49.1547 175.787 49.4913 176.195 49.4913H187.262C187.67 49.4913 188 49.1547 188 48.7396V47.2361C188 46.781 187.732 46.3704 187.319 46.1952Z" fill="#FFBE55"/>
<path d="M181.728 45.9035L179.617 44.2899C179.481 44.1864 179.288 44.2199 179.194 44.3637L178.777 45.0013L180.072 46.8477C180.17 46.9881 180.364 47.0155 180.496 46.9077L181.728 45.9035Z" fill="#FFE3CA"/>
<path d="M181.728 45.9031L183.84 44.2895C183.975 44.1861 184.168 44.2195 184.262 44.3633L184.679 45.0009L183.385 46.8474C183.287 46.9877 183.093 47.0151 182.96 46.9074L181.728 45.9031Z" fill="#FFE3CA"/>
<path d="M178.111 38.365C178.105 38.5526 178.109 38.7409 178.127 38.9278L178.392 41.5584C178.436 42.0537 178.718 42.4948 179.145 42.7365L181.245 43.9253C181.58 44.1146 181.986 44.1146 182.32 43.9253L184.421 42.7365C184.848 42.4949 185.129 42.0538 185.174 41.5584L185.403 39.3433C185.403 36.3366 181.783 37.8399 179.938 35.9607C179.569 36.7123 178.249 37.4081 178.111 38.365Z" fill="#D08D51"/>
<path d="M144.131 44.5738V42.5095H138.921V44.5738L141.526 46.9329L144.131 44.5738Z" fill="#E79C62"/>
<path d="M148.159 45.5396L144.577 44.681C144.523 44.6681 144.473 44.6461 144.427 44.6194L141.526 46.3432L138.738 44.5356C138.666 44.6049 138.576 44.6563 138.474 44.6807L134.893 45.5393C134.37 45.665 134 46.1403 134 46.6875V48.9973C134 49.323 134.259 49.5872 134.579 49.5872H148.473C148.792 49.5872 149.052 49.323 149.052 48.9973V46.6875C149.052 46.1405 148.682 45.6652 148.159 45.5396Z" fill="#FFE3CA"/>
<path d="M142.249 49.5872H140.802L140.983 46.9329H142.068L142.249 49.5872Z" fill="#0E538C"/>
<path d="M142.249 46.3431H140.802V46.5136C140.802 46.9081 141.116 47.228 141.503 47.228H141.548C141.935 47.228 142.249 46.9081 142.249 46.5136V46.3431Z" fill="#0E538C"/>
<path d="M138.88 43.9175L141.526 46.3436C141.526 46.3436 140.785 46.7246 139.871 47.4925C139.682 47.6511 139.397 47.5869 139.295 47.36L138.052 44.5739L138.446 43.9731C138.544 43.8235 138.749 43.7973 138.88 43.9175Z" fill="#FFBE55"/>
<path d="M144.171 43.9172L141.526 46.3433C141.526 46.3433 142.267 46.7244 143.181 47.4923C143.37 47.6509 143.655 47.5867 143.756 47.3598L144.999 44.5737L144.606 43.9728C144.508 43.8233 144.303 43.797 144.171 43.9172Z" fill="#FFBE55"/>
<path d="M145.85 39.4339L145.523 40.7663C145.484 40.924 145.345 41.0346 145.185 41.0346C145.139 41.0346 145.093 41.0249 145.053 41.0075L145.036 41.3801C145.013 41.9086 144.759 42.3987 144.344 42.716L143.147 43.6302C142.847 43.8598 142.481 43.9836 142.105 43.9836H140.947C140.572 43.9836 140.206 43.86 139.905 43.6302L138.708 42.716C138.293 42.3987 138.038 41.9086 138.015 41.3801L137.999 41.0075C137.959 41.0249 137.913 41.0346 137.867 41.0346C137.707 41.0346 137.568 40.9242 137.529 40.7663L137.202 39.4339C137.108 39.0491 137.394 38.6756 137.784 38.6756H137.785C137.823 38.6756 137.859 38.679 137.895 38.6862L137.763 35.7268H145.289L145.157 38.6862C145.193 38.6792 145.229 38.6756 145.267 38.6756H145.269C145.658 38.6756 145.944 39.0491 145.85 39.4339Z" fill="#EAAA71"/>
<path d="M143.281 33.7731L143.552 35.7269C144.791 35.9793 144.969 37.9597 144.995 38.5256C145 38.6282 145.032 38.7273 145.087 38.8137L145.559 39.5606C145.559 39.5606 146.004 38.9769 146.138 37.4963C146.138 37.4961 146.393 32.5934 143.281 33.7731Z" fill="#0B4870"/>
<path d="M138.468 33.5427C136.533 34.9987 136.895 37.4961 136.895 37.4961C137.027 38.6756 137.473 39.5604 137.473 39.5604L138.052 38.9707C138.052 38.9707 137.829 37.267 138.921 36.6116C139.934 36.0033 140.82 36.3166 141.725 36.3166C144.149 36.3166 144.827 35.3858 144.71 34.2523C144.649 33.6657 143.769 32.4441 141.526 32.483C140.62 32.4984 139.349 33.0757 138.468 33.5427Z" fill="#0B4870"/>
<path d="M145.39 71.2967C145.39 72.1535 144.708 72.8491 143.866 72.8491C143.331 72.8491 142.86 72.5682 142.589 72.1418H140.057C139.599 72.1418 139.228 71.7634 139.228 71.2967V56.2521C138.81 55.9751 138.535 55.4955 138.535 54.9507C138.535 54.0925 139.216 53.3983 140.057 53.3983C140.899 53.3983 141.581 54.0925 141.581 54.9507C141.581 55.4967 141.305 55.9765 140.887 56.2533V70.4516H142.587C142.859 70.0252 143.33 69.7443 143.866 69.7443C144.708 69.7443 145.39 70.4387 145.39 71.2967Z" fill="#2A94F4"/>
<path d="M152.162 23.6568C152.162 24.515 151.48 25.2092 150.64 25.2092C150.103 25.2092 149.633 24.9283 149.362 24.5021H140.887V28.3971C141.305 28.6741 141.581 29.1537 141.581 29.6997C141.581 30.5579 140.899 31.2521 140.057 31.2521C139.216 31.2521 138.535 30.5579 138.535 29.6997C138.535 29.155 138.81 28.6753 139.228 28.3984V23.6568C139.228 23.1902 139.599 22.8119 140.057 22.8119H149.362C149.633 22.3855 150.103 22.1047 150.639 22.1047C151.481 22.1046 152.162 22.8001 152.162 23.6568Z" fill="#2A94F4"/>
<path d="M156.291 41.0348C156.291 41.3466 156.201 41.6367 156.046 41.8799C155.775 42.3062 155.305 42.587 154.769 42.587C154.233 42.587 153.762 42.3062 153.491 41.8799H150.285C150.014 42.3062 149.543 42.587 149.007 42.587C148.471 42.587 148 42.3062 147.729 41.8799C147.574 41.6367 147.485 41.3468 147.485 41.0348C147.485 40.724 147.574 40.4328 147.73 40.1897C148.002 39.7633 148.473 39.4824 149.007 39.4824C149.543 39.4824 150.014 39.7633 150.285 40.1897H153.491C153.762 39.7633 154.233 39.4824 154.769 39.4824C155.303 39.4824 155.774 39.7633 156.045 40.1897C156.201 40.4328 156.291 40.724 156.291 41.0348Z" fill="#2A94F4"/>
<path d="M175.022 41.0348C175.022 41.3466 174.931 41.6367 174.777 41.8799C174.506 42.3062 174.035 42.587 173.499 42.587C172.963 42.587 172.492 42.3062 172.222 41.8799H169.015C168.745 42.3062 168.274 42.587 167.738 42.587C167.202 42.587 166.731 42.3062 166.459 41.8799C166.305 41.6367 166.216 41.3468 166.216 41.0348C166.216 40.724 166.305 40.4328 166.461 40.1897C166.732 39.7633 167.203 39.4824 167.738 39.4824C168.274 39.4824 168.745 39.7633 169.015 40.1897H172.222C172.492 39.7633 172.964 39.4824 173.499 39.4824C174.034 39.4824 174.505 39.7633 174.775 40.1897C174.931 40.4328 175.022 40.724 175.022 41.0348Z" fill="#2A94F4"/>
<path d="M184.078 29.6996C184.078 30.5578 183.397 31.252 182.555 31.252C181.714 31.252 181.031 30.5578 181.031 29.6996C181.031 29.1549 181.307 28.6752 181.725 28.3983V24.502H173.251C172.979 24.9284 172.508 25.2091 171.974 25.2091C171.133 25.2091 170.45 24.5149 170.45 23.6567C170.45 22.8001 171.132 22.1045 171.974 22.1045C172.508 22.1045 172.979 22.3854 173.251 22.8116H182.555C183.013 22.8116 183.384 23.19 183.384 23.6566V28.398C183.803 28.6752 184.078 29.1551 184.078 29.6996Z" fill="#2A94F4"/>
<path d="M162.878 42.7472C162.878 43.604 162.195 44.2983 161.354 44.2983C160.513 44.2983 159.83 43.604 159.83 42.7472C159.83 42.2012 160.106 41.7215 160.525 41.4458V40.97C160.106 40.6945 159.83 40.2146 159.83 39.6699C159.83 38.8118 160.513 38.1177 161.354 38.1177C162.195 38.1177 162.878 38.8119 162.878 39.6699C162.878 40.2146 162.602 40.6945 162.184 40.97V41.4458C162.602 41.7215 162.878 42.2012 162.878 42.7472Z" fill="#2A94F4"/>
<path d="M184.078 54.8572C184.078 55.4019 183.803 55.8817 183.384 56.1585V71.2968C183.384 71.7635 183.013 72.1419 182.555 72.1419H180.143C179.871 72.5683 179.4 72.8491 178.866 72.8491C178.023 72.8491 177.342 72.1536 177.342 71.2968C177.342 70.4386 178.023 69.7444 178.866 69.7444C179.402 69.7444 179.872 70.0253 180.144 70.4517H181.725V56.1584C181.308 55.8815 181.032 55.4017 181.032 54.8571C181.032 53.9989 181.714 53.3047 182.555 53.3047C183.397 53.3048 184.078 53.9991 184.078 54.8572Z" fill="#2A94F4"/>
<path d="M101.818 106.339C100.512 106.339 99.3117 106.032 98.2184 105.419C97.125 104.806 96.2584 103.959 95.6184 102.879C94.9784 101.786 94.6584 100.552 94.6584 99.179C94.6584 97.819 94.9784 96.599 95.6184 95.519C96.2584 94.4256 97.125 93.5723 98.2184 92.959C99.3117 92.3456 100.512 92.039 101.818 92.039C103.138 92.039 104.338 92.3456 105.418 92.959C106.512 93.5723 107.372 94.4256 107.998 95.519C108.638 96.599 108.958 97.819 108.958 99.179C108.958 100.552 108.638 101.786 107.998 102.879C107.372 103.959 106.512 104.806 105.418 105.419C104.325 106.032 103.125 106.339 101.818 106.339ZM101.818 103.839C102.658 103.839 103.398 103.652 104.038 103.279C104.678 102.892 105.178 102.346 105.538 101.639C105.898 100.932 106.078 100.112 106.078 99.179C106.078 98.2456 105.898 97.4323 105.538 96.739C105.178 96.0323 104.678 95.4923 104.038 95.119C103.398 94.7456 102.658 94.559 101.818 94.559C100.978 94.559 100.232 94.7456 99.5784 95.119C98.9384 95.4923 98.4384 96.0323 98.0784 96.739C97.7184 97.4323 97.5384 98.2456 97.5384 99.179C97.5384 100.112 97.7184 100.932 98.0784 101.639C98.4384 102.346 98.9384 102.892 99.5784 103.279C100.232 103.652 100.978 103.839 101.818 103.839ZM117.181 94.959C118.501 94.959 119.568 95.379 120.381 96.219C121.195 97.0456 121.601 98.2056 121.601 99.699V106.199H118.801V100.079C118.801 99.199 118.581 98.5256 118.141 98.059C117.701 97.579 117.101 97.339 116.341 97.339C115.568 97.339 114.955 97.579 114.501 98.059C114.061 98.5256 113.841 99.199 113.841 100.079V106.199H111.041V95.119H113.841V96.499C114.215 96.019 114.688 95.6456 115.261 95.379C115.848 95.099 116.488 94.959 117.181 94.959ZM127.064 91.399V106.199H124.264V91.399H127.064ZM131.251 93.799C130.757 93.799 130.344 93.6456 130.011 93.339C129.691 93.019 129.531 92.6256 129.531 92.159C129.531 91.6923 129.691 91.3056 130.011 90.999C130.344 90.679 130.757 90.519 131.251 90.519C131.744 90.519 132.151 90.679 132.471 90.999C132.804 91.3056 132.971 91.6923 132.971 92.159C132.971 92.6256 132.804 93.019 132.471 93.339C132.151 93.6456 131.744 93.799 131.251 93.799ZM132.631 95.119V106.199H129.831V95.119H132.631ZM141.537 94.959C142.857 94.959 143.924 95.379 144.737 96.219C145.55 97.0456 145.957 98.2056 145.957 99.699V106.199H143.157V100.079C143.157 99.199 142.937 98.5256 142.497 98.059C142.057 97.579 141.457 97.339 140.697 97.339C139.924 97.339 139.31 97.579 138.857 98.059C138.417 98.5256 138.197 99.199 138.197 100.079V106.199H135.397V95.119H138.197V96.499C138.57 96.019 139.044 95.6456 139.617 95.379C140.204 95.099 140.844 94.959 141.537 94.959ZM158.92 100.419C158.92 100.819 158.893 101.179 158.84 101.499H150.74C150.806 102.299 151.086 102.926 151.58 103.379C152.073 103.832 152.68 104.059 153.4 104.059C154.44 104.059 155.18 103.612 155.62 102.719H158.64C158.32 103.786 157.706 104.666 156.8 105.359C155.893 106.039 154.78 106.379 153.46 106.379C152.393 106.379 151.433 106.146 150.58 105.679C149.74 105.199 149.08 104.526 148.6 103.659C148.133 102.792 147.9 101.792 147.9 100.659C147.9 99.5123 148.133 98.5056 148.6 97.639C149.066 96.7723 149.72 96.1056 150.56 95.639C151.4 95.1723 152.366 94.939 153.46 94.939C154.513 94.939 155.453 95.1656 156.28 95.619C157.12 96.0723 157.766 96.719 158.22 97.559C158.686 98.3856 158.92 99.339 158.92 100.419ZM156.02 99.619C156.006 98.899 155.746 98.3256 155.24 97.899C154.733 97.459 154.113 97.239 153.38 97.239C152.686 97.239 152.1 97.4523 151.62 97.879C151.153 98.2923 150.866 98.8723 150.76 99.619H156.02ZM168.529 103.979H173.129V106.199H165.729V92.239H168.529V103.979ZM176.329 93.799C175.835 93.799 175.422 93.6456 175.089 93.339C174.769 93.019 174.609 92.6256 174.609 92.159C174.609 91.6923 174.769 91.3056 175.089 90.999C175.422 90.679 175.835 90.519 176.329 90.519C176.822 90.519 177.229 90.679 177.549 90.999C177.882 91.3056 178.049 91.6923 178.049 92.159C178.049 92.6256 177.882 93.019 177.549 93.339C177.229 93.6456 176.822 93.799 176.329 93.799ZM177.709 95.119V106.199H174.909V95.119H177.709ZM185.555 97.419H183.615V106.199H180.775V97.419H179.515V95.119H180.775V94.559C180.775 93.199 181.162 92.199 181.935 91.559C182.708 90.919 183.875 90.619 185.435 90.659V93.019C184.755 93.0056 184.282 93.119 184.015 93.359C183.748 93.599 183.615 94.0323 183.615 94.659V95.119H185.555V97.419ZM197.67 100.419C197.67 100.819 197.643 101.179 197.59 101.499H189.49C189.556 102.299 189.836 102.926 190.33 103.379C190.823 103.832 191.43 104.059 192.15 104.059C193.19 104.059 193.93 103.612 194.37 102.719H197.39C197.07 103.786 196.456 104.666 195.55 105.359C194.643 106.039 193.53 106.379 192.21 106.379C191.143 106.379 190.183 106.146 189.33 105.679C188.49 105.199 187.83 104.526 187.35 103.659C186.883 102.792 186.65 101.792 186.65 100.659C186.65 99.5123 186.883 98.5056 187.35 97.639C187.816 96.7723 188.47 96.1056 189.31 95.639C190.15 95.1723 191.116 94.939 192.21 94.939C193.263 94.939 194.203 95.1656 195.03 95.619C195.87 96.0723 196.516 96.719 196.97 97.559C197.436 98.3856 197.67 99.339 197.67 100.419ZM194.77 99.619C194.756 98.899 194.496 98.3256 193.99 97.899C193.483 97.459 192.863 97.239 192.13 97.239C191.436 97.239 190.85 97.4523 190.37 97.879C189.903 98.2923 189.616 98.8723 189.51 99.619H194.77Z" fill="#0B4870"/>
</svg>
