<svg width="210" height="122" viewBox="0 0 210 122" fill="none" xmlns="http://www.w3.org/2000/svg">
<path d="M0 122H210V0H111.464V19.9016H0V122Z" fill="#6FACB6"/>
<path d="M203.204 114.051V27.2249V5.35815H116.214V15.8381V26.7906H60.8252H5.43689L5.43689 70.421V114.051H103.641H128.447H153.252H203.204Z" fill="#89D2DE"/>
<path d="M5.43688 26.7906L0 19.9016H111.456L116.214 26.7906H5.43688Z" fill="#C6E9F1"/>
<path d="M116.214 5.35812L111.456 0H210L203.204 5.35812H116.214Z" fill="#C6E9F1"/>
<path d="M100.36 106.339C99.0533 106.339 97.8533 106.032 96.76 105.419C95.6667 104.806 94.8 103.959 94.16 102.879C93.52 101.786 93.2 100.552 93.2 99.179C93.2 97.819 93.52 96.599 94.16 95.519C94.8 94.4256 95.6667 93.5723 96.76 92.959C97.8533 92.3456 99.0533 92.039 100.36 92.039C101.68 92.039 102.88 92.3456 103.96 92.959C105.053 93.5723 105.913 94.4256 106.54 95.519C107.18 96.599 107.5 97.819 107.5 99.179C107.5 100.552 107.18 101.786 106.54 102.879C105.913 103.959 105.053 104.806 103.96 105.419C102.867 106.032 101.667 106.339 100.36 106.339ZM100.36 103.839C101.2 103.839 101.94 103.652 102.58 103.279C103.22 102.892 103.72 102.346 104.08 101.639C104.44 100.932 104.62 100.112 104.62 99.179C104.62 98.2456 104.44 97.4323 104.08 96.739C103.72 96.0323 103.22 95.4923 102.58 95.119C101.94 94.7456 101.2 94.559 100.36 94.559C99.52 94.559 98.7733 94.7456 98.12 95.119C97.48 95.4923 96.98 96.0323 96.62 96.739C96.26 97.4323 96.08 98.2456 96.08 99.179C96.08 100.112 96.26 100.932 96.62 101.639C96.98 102.346 97.48 102.892 98.12 103.279C98.7733 103.652 99.52 103.839 100.36 103.839ZM115.723 94.959C117.043 94.959 118.11 95.379 118.923 96.219C119.736 97.0456 120.143 98.2056 120.143 99.699V106.199H117.343V100.079C117.343 99.199 117.123 98.5256 116.683 98.059C116.243 97.579 115.643 97.339 114.883 97.339C114.11 97.339 113.496 97.579 113.043 98.059C112.603 98.5256 112.383 99.199 112.383 100.079V106.199H109.583V95.119H112.383V96.499C112.756 96.019 113.23 95.6456 113.803 95.379C114.39 95.099 115.03 94.959 115.723 94.959ZM125.606 91.399V106.199H122.806V91.399H125.606ZM129.792 93.799C129.299 93.799 128.886 93.6456 128.552 93.339C128.232 93.019 128.072 92.6256 128.072 92.159C128.072 91.6923 128.232 91.3056 128.552 90.999C128.886 90.679 129.299 90.519 129.792 90.519C130.286 90.519 130.692 90.679 131.012 90.999C131.346 91.3056 131.512 91.6923 131.512 92.159C131.512 92.6256 131.346 93.019 131.012 93.339C130.692 93.6456 130.286 93.799 129.792 93.799ZM131.172 95.119V106.199H128.372V95.119H131.172ZM140.079 94.959C141.399 94.959 142.465 95.379 143.279 96.219C144.092 97.0456 144.499 98.2056 144.499 99.699V106.199H141.699V100.079C141.699 99.199 141.479 98.5256 141.039 98.059C140.599 97.579 139.999 97.339 139.239 97.339C138.465 97.339 137.852 97.579 137.399 98.059C136.959 98.5256 136.739 99.199 136.739 100.079V106.199H133.939V95.119H136.739V96.499C137.112 96.019 137.585 95.6456 138.159 95.379C138.745 95.099 139.385 94.959 140.079 94.959ZM157.461 100.419C157.461 100.819 157.435 101.179 157.381 101.499H149.281C149.348 102.299 149.628 102.926 150.121 103.379C150.615 103.832 151.221 104.059 151.941 104.059C152.981 104.059 153.721 103.612 154.161 102.719H157.181C156.861 103.786 156.248 104.666 155.341 105.359C154.435 106.039 153.321 106.379 152.001 106.379C150.935 106.379 149.975 106.146 149.121 105.679C148.281 105.199 147.621 104.526 147.141 103.659C146.675 102.792 146.441 101.792 146.441 100.659C146.441 99.5123 146.675 98.5056 147.141 97.639C147.608 96.7723 148.261 96.1056 149.101 95.639C149.941 95.1723 150.908 94.939 152.001 94.939C153.055 94.939 153.995 95.1656 154.821 95.619C155.661 96.0723 156.308 96.719 156.761 97.559C157.228 98.3856 157.461 99.339 157.461 100.419ZM154.561 99.619C154.548 98.899 154.288 98.3256 153.781 97.899C153.275 97.459 152.655 97.239 151.921 97.239C151.228 97.239 150.641 97.4523 150.161 97.879C149.695 98.2923 149.408 98.8723 149.301 99.619H154.561ZM167.071 103.979H171.671V106.199H164.271V92.239H167.071V103.979ZM174.87 93.799C174.377 93.799 173.964 93.6456 173.63 93.339C173.31 93.019 173.15 92.6256 173.15 92.159C173.15 91.6923 173.31 91.3056 173.63 90.999C173.964 90.679 174.377 90.519 174.87 90.519C175.364 90.519 175.77 90.679 176.09 90.999C176.424 91.3056 176.59 91.6923 176.59 92.159C176.59 92.6256 176.424 93.019 176.09 93.339C175.77 93.6456 175.364 93.799 174.87 93.799ZM176.25 95.119V106.199H173.45V95.119H176.25ZM184.097 97.419H182.157V106.199H179.317V97.419H178.057V95.119H179.317V94.559C179.317 93.199 179.703 92.199 180.477 91.559C181.25 90.919 182.417 90.619 183.977 90.659V93.019C183.297 93.0056 182.823 93.119 182.557 93.359C182.29 93.599 182.157 94.0323 182.157 94.659V95.119H184.097V97.419ZM196.211 100.419C196.211 100.819 196.185 101.179 196.131 101.499H188.031C188.098 102.299 188.378 102.926 188.871 103.379C189.365 103.832 189.971 104.059 190.691 104.059C191.731 104.059 192.471 103.612 192.911 102.719H195.931C195.611 103.786 194.998 104.666 194.091 105.359C193.185 106.039 192.071 106.379 190.751 106.379C189.685 106.379 188.725 106.146 187.871 105.679C187.031 105.199 186.371 104.526 185.891 103.659C185.425 102.792 185.191 101.792 185.191 100.659C185.191 99.5123 185.425 98.5056 185.891 97.639C186.358 96.7723 187.011 96.1056 187.851 95.639C188.691 95.1723 189.658 94.939 190.751 94.939C191.805 94.939 192.745 95.1656 193.571 95.619C194.411 96.0723 195.058 96.719 195.511 97.559C195.978 98.3856 196.211 99.339 196.211 100.419ZM193.311 99.619C193.298 98.899 193.038 98.3256 192.531 97.899C192.025 97.459 191.405 97.239 190.671 97.239C189.978 97.239 189.391 97.4523 188.911 97.879C188.445 98.2923 188.158 98.8723 188.051 99.619H193.311Z" fill="#788995"/>
<ellipse cx="160.225" cy="43.6494" rx="24.1816" ry="25.3847" fill="#EE9D3D"/>
<path d="M172.413 28.3634C171.876 28.0497 171.285 27.8502 170.675 27.7763C170.064 27.7024 169.446 27.7556 168.855 27.9328C168.264 28.1101 167.712 28.4078 167.23 28.8091C166.749 29.2104 166.348 29.7074 166.05 30.2716L157.364 46.6813L152.392 41.4627C151.961 40.9936 151.444 40.6194 150.874 40.362C150.303 40.1046 149.689 39.9691 149.068 39.9634C148.446 39.9577 147.83 40.082 147.255 40.329C146.68 40.5759 146.158 40.9406 145.718 41.4018C145.279 41.863 144.932 42.4114 144.696 43.015C144.461 43.6186 144.343 44.2654 144.348 44.9175C144.354 45.5697 144.483 46.2142 144.728 46.8134C144.973 47.4127 145.33 47.9546 145.776 48.4077L155.134 58.2309C156.018 59.1617 157.212 59.6725 158.442 59.6725L159.09 59.6234C159.807 59.518 160.491 59.2394 161.088 58.8095C161.686 58.3795 162.18 57.8099 162.531 57.1455L174.228 35.0432C174.527 34.4795 174.717 33.8595 174.787 33.2187C174.858 32.578 174.807 31.9289 174.639 31.3086C174.47 30.6883 174.187 30.109 173.805 29.6036C173.423 29.0983 172.95 28.6769 172.413 28.3634Z" fill="#FFE3CA"/>
</svg>
