<svg width="210" height="121" viewBox="0 0 210 121" fill="none" xmlns="http://www.w3.org/2000/svg">
<path d="M0 121H210V0H111.464V19.7385H0V121Z" fill="#6FACB6"/>
<path d="M203.204 113.117V27.0017V5.31421H116.214V15.7083V26.571H60.8252H5.43689L5.43689 69.8438V113.117H103.641H128.447H153.252H203.204Z" fill="#89D2DE"/>
<path d="M5.43688 26.5711L0 19.7385H111.456L116.214 26.5711H5.43688Z" fill="#C6E9F1"/>
<path d="M116.214 5.3142L111.456 0H210L203.204 5.3142H116.214Z" fill="#C6E9F1"/>
<path d="M173.42 75.3913H143.976C142.637 75.3913 141.552 74.2385 141.552 72.8162V31.3257C141.552 29.9034 142.637 28.7506 143.976 28.7506H173.42C174.758 28.7506 175.843 29.9034 175.843 31.3257V72.8174C175.843 74.2385 174.758 75.3913 173.42 75.3913Z" fill="#F7F7F7"/>
<path d="M173.474 75.3912H143.923C142.615 75.3912 141.554 74.2637 141.554 72.8738V66.4229C141.554 66.4229 147.813 71.2602 158.699 71.2602C169.586 71.2602 175.845 66.4229 175.845 66.4229V72.8738C175.843 74.2649 174.784 75.3912 173.474 75.3912Z" fill="#D3D3D3"/>
<path d="M173.474 75.9797H143.923C142.311 75.9797 141 74.5863 141 72.8739V31.268C141 29.5557 142.311 28.1622 143.923 28.1622H173.475C175.087 28.1622 176.398 29.5557 176.398 31.268V72.8739C176.397 74.5863 175.086 75.9797 173.474 75.9797ZM143.923 29.3391C142.922 29.3391 142.107 30.2043 142.107 31.268V72.8739C142.107 73.9377 142.922 74.8029 143.923 74.8029H173.475C174.476 74.8029 175.291 73.9377 175.291 72.8739V31.268C175.291 30.2043 174.476 29.3391 173.475 29.3391H143.923Z" fill="#0B4870"/>
<path d="M163.362 25.5435C163.362 22.806 161.274 20.5883 158.699 20.5883C156.123 20.5883 154.036 22.8072 154.036 25.5435H146.415C145.851 25.5435 145.395 26.0297 145.395 26.6277V29.4134C145.395 30.0126 145.852 30.4976 146.415 30.4976H170.983C171.547 30.4976 172.003 30.0114 172.003 29.4134V26.6277C172.003 26.0285 171.546 25.5435 170.983 25.5435H163.362V25.5435ZM158.921 26.4207C157.8 26.5712 156.857 25.5688 156.998 24.3775C157.094 23.5653 157.712 22.9095 158.476 22.8072C159.598 22.6568 160.541 23.6591 160.4 24.8516C160.302 25.6639 159.685 26.3197 158.921 26.4207Z" fill="#D3D3D3"/>
<path d="M170.982 31.0874H146.415C145.547 31.0874 144.841 30.3365 144.841 29.4148V26.6279C144.841 25.7049 145.548 24.9553 146.415 24.9553H153.511C153.788 22.1744 156.009 20 158.698 20C161.387 20 163.608 22.1744 163.885 24.9553H170.982C171.851 24.9553 172.556 25.7061 172.556 26.6279V29.4136C172.557 30.3365 171.851 31.0874 170.982 31.0874ZM146.415 26.1321C146.157 26.1321 145.948 26.3547 145.948 26.6291V29.4148C145.948 29.6891 146.157 29.9117 146.415 29.9117H170.983C171.241 29.9117 171.451 29.6891 171.451 29.4148V26.6279C171.451 26.3535 171.241 26.1309 170.983 26.1309H162.81V25.5425C162.81 23.1346 160.966 21.1744 158.7 21.1744C156.434 21.1744 154.59 23.1334 154.59 25.5425V26.1309H146.415V26.1321ZM158.698 27.025C158.097 27.025 157.525 26.7759 157.095 26.3186C156.595 25.788 156.36 25.0539 156.449 24.3043C156.576 23.2345 157.399 22.3585 158.406 22.2237C159.111 22.1287 159.802 22.379 160.303 22.9096C160.802 23.4403 161.038 24.1743 160.948 24.9252C160.821 25.9961 159.997 26.8697 158.99 27.0045C158.893 27.0178 158.794 27.025 158.698 27.025ZM158.697 23.3813C158.647 23.3813 158.596 23.3849 158.545 23.391C158.032 23.4595 157.612 23.906 157.548 24.4511C157.502 24.8373 157.622 25.2152 157.878 25.4871C158.134 25.7591 158.49 25.8866 158.853 25.8385C159.366 25.7699 159.786 25.3247 159.851 24.7784C159.897 24.3921 159.776 24.0143 159.52 23.7423C159.299 23.5089 159.006 23.3813 158.697 23.3813Z" fill="#0B4870"/>
<path d="M178.378 67.6298H164.136V59.1885C164.136 55.0154 167.331 51.6208 171.258 51.6208C175.184 51.6208 178.378 55.0154 178.378 59.1885V67.6298V67.6298ZM166.307 65.3218H176.205V59.1885C176.205 56.2885 173.986 53.9288 171.257 53.9288C168.528 53.9288 166.307 56.2885 166.307 59.1885V65.3218Z" fill="#FFBE55"/>
<path d="M178.931 68.2181H163.583V59.1884C163.583 54.6916 167.025 51.0323 171.258 51.0323C175.49 51.0323 178.932 54.6904 178.932 59.1884V68.2181H178.931ZM164.689 67.0413H177.824V59.1884C177.824 55.3402 174.877 52.2092 171.257 52.2092C167.636 52.2092 164.689 55.3402 164.689 59.1884V67.0413ZM176.76 65.9102H165.755V59.1884C165.755 55.9635 168.223 53.3403 171.258 53.3403C174.292 53.3403 176.76 55.9635 176.76 59.1884V65.9102V65.9102ZM166.861 64.7333H175.653V59.1884C175.653 56.6121 173.681 54.5172 171.257 54.5172C168.832 54.5172 166.861 56.6121 166.861 59.1884V64.7333Z" fill="#0B4870"/>
<path d="M176.752 79.4114H165.762C163.721 79.4114 162.068 77.6534 162.068 75.4862V67.7416C162.068 65.5733 163.722 63.8164 165.762 63.8164H176.752C178.793 63.8164 180.446 65.5745 180.446 67.7416V75.4862C180.447 77.6546 178.793 79.4114 176.752 79.4114Z" fill="#FFBE55"/>
<path d="M176.835 80.0001H165.679C163.383 80.0001 161.514 78.0147 161.514 75.5743V67.6541C161.514 65.2137 163.383 63.2283 165.679 63.2283H176.835C179.132 63.2283 181 65.2137 181 67.6541V75.5743C181 78.0147 179.132 80.0001 176.835 80.0001ZM165.679 64.4051C163.993 64.4051 162.62 65.8635 162.62 67.6553V75.5755C162.62 77.3673 163.993 78.8257 165.679 78.8257H176.835C178.521 78.8257 179.894 77.3673 179.894 75.5755V67.6553C179.894 65.8635 178.521 64.4051 176.835 64.4051H165.679Z" fill="#0B4870"/>
<path d="M172.929 74.4153L172.188 71.4684C172.489 71.1892 172.689 70.7921 172.689 70.3336C172.689 69.4937 172.048 68.8126 171.257 68.8126C170.467 68.8126 169.826 69.4937 169.826 70.3336C169.826 70.7909 170.025 71.1892 170.327 71.4684L169.586 74.4153H172.929Z" fill="#FFBE55"/>
<path d="M173.65 75.0035H168.864L169.711 71.6366C169.426 71.2648 169.272 70.8136 169.272 70.3346C169.272 69.171 170.162 68.2252 171.257 68.2252C172.352 68.2252 173.242 69.171 173.242 70.3346C173.242 70.8136 173.088 71.2648 172.803 71.6366L173.65 75.0035ZM170.306 73.8267H172.207L171.564 71.266L171.824 71.0253C171.941 70.9183 172.136 70.6848 172.136 70.3346C172.136 69.8196 171.742 69.4021 171.257 69.4021C170.772 69.4021 170.379 69.8208 170.379 70.3346C170.379 70.6848 170.574 70.9183 170.69 71.0253L170.95 71.266L170.306 73.8267Z" fill="#0B4870"/>
<path d="M169.448 42.8763L166.816 40.0798L155.707 51.8856L150.581 46.4394L147.949 49.2371L155.659 57.4305L155.707 57.3812L155.753 57.4305L169.448 42.8763Z" fill="#CCE9FF"/>
<path d="M155.751 58.2633L155.705 58.2139L155.659 58.2633L147.165 49.2372L150.58 45.608L155.705 51.0542L166.815 39.2484L170.23 42.8776L155.751 58.2633ZM155.706 56.5485L155.753 56.5979L168.665 42.8764L166.816 40.9114L155.706 52.7172L150.581 47.2709L148.732 49.236L155.66 56.5979L155.706 56.5485Z" fill="#0B4870"/>
<path d="M134.405 95.8688C134.405 96.6155 134.225 97.3155 133.865 97.9688C133.518 98.6221 132.965 99.1488 132.205 99.5488C131.458 99.9488 130.512 100.149 129.365 100.149H127.025V105.509H124.225V91.5488H129.365C130.445 91.5488 131.365 91.7355 132.125 92.1088C132.885 92.4821 133.452 92.9955 133.825 93.6488C134.212 94.3021 134.405 95.0421 134.405 95.8688ZM129.245 97.8888C130.018 97.8888 130.592 97.7155 130.965 97.3688C131.338 97.0088 131.525 96.5088 131.525 95.8688C131.525 94.5088 130.765 93.8288 129.245 93.8288H127.025V97.8888H129.245ZM139.193 96.1488C139.553 95.5621 140.02 95.1021 140.593 94.7688C141.18 94.4355 141.846 94.2688 142.593 94.2688V97.2088H141.853C140.973 97.2088 140.306 97.4155 139.853 97.8288C139.413 98.2421 139.193 98.9621 139.193 99.9888V105.509H136.393V94.4288H139.193V96.1488ZM145.899 93.1088C145.406 93.1088 144.992 92.9555 144.659 92.6488C144.339 92.3288 144.179 91.9355 144.179 91.4688C144.179 91.0021 144.339 90.6155 144.659 90.3088C144.992 89.9888 145.406 89.8288 145.899 89.8288C146.392 89.8288 146.799 89.9888 147.119 90.3088C147.452 90.6155 147.619 91.0021 147.619 91.4688C147.619 91.9355 147.452 92.3288 147.119 92.6488C146.799 92.9555 146.392 93.1088 145.899 93.1088ZM147.279 94.4288V105.509H144.479V94.4288H147.279ZM154.665 102.929L157.465 94.4288H160.445L156.345 105.509H152.945L148.865 94.4288H151.865L154.665 102.929ZM161.298 99.9288C161.298 98.8088 161.518 97.8155 161.958 96.9488C162.411 96.0821 163.018 95.4155 163.778 94.9488C164.551 94.4821 165.411 94.2488 166.358 94.2488C167.185 94.2488 167.905 94.4155 168.518 94.7488C169.145 95.0821 169.645 95.5021 170.018 96.0088V94.4288H172.838V105.509H170.018V103.889C169.658 104.409 169.158 104.842 168.518 105.189C167.891 105.522 167.165 105.689 166.338 105.689C165.405 105.689 164.551 105.449 163.778 104.969C163.018 104.489 162.411 103.815 161.958 102.949C161.518 102.069 161.298 101.062 161.298 99.9288ZM170.018 99.9688C170.018 99.2888 169.885 98.7088 169.618 98.2288C169.351 97.7355 168.991 97.3621 168.538 97.1088C168.085 96.8421 167.598 96.7088 167.078 96.7088C166.558 96.7088 166.078 96.8355 165.638 97.0888C165.198 97.3421 164.838 97.7155 164.558 98.2088C164.291 98.6888 164.158 99.2621 164.158 99.9288C164.158 100.595 164.291 101.182 164.558 101.689C164.838 102.182 165.198 102.562 165.638 102.829C166.091 103.095 166.571 103.229 167.078 103.229C167.598 103.229 168.085 103.102 168.538 102.849C168.991 102.582 169.351 102.209 169.618 101.729C169.885 101.235 170.018 100.649 170.018 99.9688ZM174.853 99.9688C174.853 98.8221 175.086 97.8221 175.553 96.9688C176.019 96.1021 176.666 95.4355 177.493 94.9688C178.319 94.4888 179.266 94.2488 180.333 94.2488C181.706 94.2488 182.839 94.5955 183.733 95.2888C184.639 95.9688 185.246 96.9288 185.553 98.1688H182.533C182.373 97.6888 182.099 97.3155 181.713 97.0488C181.339 96.7688 180.873 96.6288 180.313 96.6288C179.513 96.6288 178.879 96.9221 178.413 97.5088C177.946 98.0821 177.713 98.9021 177.713 99.9688C177.713 101.022 177.946 101.842 178.413 102.429C178.879 103.002 179.513 103.289 180.313 103.289C181.446 103.289 182.186 102.782 182.533 101.769H185.553C185.246 102.969 184.639 103.922 183.733 104.629C182.826 105.335 181.693 105.689 180.333 105.689C179.266 105.689 178.319 105.455 177.493 104.989C176.666 104.509 176.019 103.842 175.553 102.989C175.086 102.122 174.853 101.115 174.853 99.9688ZM198.204 94.4288L191.344 110.749H188.364L190.764 105.229L186.324 94.4288H189.464L192.324 102.169L195.224 94.4288H198.204Z" fill="#0B4870"/>
</svg>
