<svg width="210" height="121" viewBox="0 0 210 121" fill="none" xmlns="http://www.w3.org/2000/svg">
<path d="M0 121H210V0H111.464V19.7385H0V121Z" fill="#6FACB6"/>
<path d="M203.204 113.117V27.0017V5.31421H116.214V15.7083V26.571H60.8252H5.43689L5.43689 69.8438V113.117H103.641H128.447H153.252H203.204Z" fill="#89D2DE"/>
<path d="M5.43688 26.5711L0 19.7385H111.456L116.214 26.5711H5.43688Z" fill="#C6E9F1"/>
<path d="M116.214 5.3142L111.456 0H210L203.204 5.3142H116.214Z" fill="#C6E9F1"/>
<path d="M132.947 95.8688C132.947 96.6155 132.767 97.3155 132.407 97.9688C132.06 98.6221 131.507 99.1488 130.747 99.5488C130 99.9488 129.053 100.149 127.907 100.149H125.567V105.509H122.767V91.5488H127.907C128.987 91.5488 129.907 91.7355 130.667 92.1088C131.427 92.4821 131.993 92.9955 132.367 93.6488C132.753 94.3021 132.947 95.0421 132.947 95.8688ZM127.787 97.8888C128.56 97.8888 129.133 97.7155 129.507 97.3688C129.88 97.0088 130.067 96.5088 130.067 95.8688C130.067 94.5088 129.307 93.8288 127.787 93.8288H125.567V97.8888H127.787ZM137.735 96.1488C138.095 95.5621 138.561 95.1021 139.135 94.7688C139.721 94.4355 140.388 94.2688 141.135 94.2688V97.2088H140.395C139.515 97.2088 138.848 97.4155 138.395 97.8288C137.955 98.2421 137.735 98.9621 137.735 99.9888V105.509H134.935V94.4288H137.735V96.1488ZM144.441 93.1088C143.947 93.1088 143.534 92.9555 143.201 92.6488C142.881 92.3288 142.721 91.9355 142.721 91.4688C142.721 91.0021 142.881 90.6155 143.201 90.3088C143.534 89.9888 143.947 89.8288 144.441 89.8288C144.934 89.8288 145.341 89.9888 145.661 90.3088C145.994 90.6155 146.161 91.0021 146.161 91.4688C146.161 91.9355 145.994 92.3288 145.661 92.6488C145.341 92.9555 144.934 93.1088 144.441 93.1088ZM145.821 94.4288V105.509H143.021V94.4288H145.821ZM153.207 102.929L156.007 94.4288H158.987L154.887 105.509H151.487L147.407 94.4288H150.407L153.207 102.929ZM159.84 99.9288C159.84 98.8088 160.06 97.8155 160.5 96.9488C160.953 96.0821 161.56 95.4155 162.32 94.9488C163.093 94.4821 163.953 94.2488 164.9 94.2488C165.726 94.2488 166.446 94.4155 167.06 94.7488C167.686 95.0821 168.186 95.5021 168.56 96.0088V94.4288H171.38V105.509H168.56V103.889C168.2 104.409 167.7 104.842 167.06 105.189C166.433 105.522 165.706 105.689 164.88 105.689C163.946 105.689 163.093 105.449 162.32 104.969C161.56 104.489 160.953 103.815 160.5 102.949C160.06 102.069 159.84 101.062 159.84 99.9288ZM168.56 99.9688C168.56 99.2888 168.426 98.7088 168.16 98.2288C167.893 97.7355 167.533 97.3621 167.08 97.1088C166.626 96.8421 166.14 96.7088 165.62 96.7088C165.1 96.7088 164.62 96.8355 164.18 97.0888C163.74 97.3421 163.38 97.7155 163.1 98.2088C162.833 98.6888 162.7 99.2621 162.7 99.9288C162.7 100.595 162.833 101.182 163.1 101.689C163.38 102.182 163.74 102.562 164.18 102.829C164.633 103.095 165.113 103.229 165.62 103.229C166.14 103.229 166.626 103.102 167.08 102.849C167.533 102.582 167.893 102.209 168.16 101.729C168.426 101.235 168.56 100.649 168.56 99.9688ZM173.394 99.9688C173.394 98.8221 173.628 97.8221 174.094 96.9688C174.561 96.1021 175.208 95.4355 176.034 94.9688C176.861 94.4888 177.808 94.2488 178.874 94.2488C180.248 94.2488 181.381 94.5955 182.274 95.2888C183.181 95.9688 183.788 96.9288 184.094 98.1688H181.074C180.914 97.6888 180.641 97.3155 180.254 97.0488C179.881 96.7688 179.414 96.6288 178.854 96.6288C178.054 96.6288 177.421 96.9221 176.954 97.5088C176.488 98.0821 176.254 98.9021 176.254 99.9688C176.254 101.022 176.488 101.842 176.954 102.429C177.421 103.002 178.054 103.289 178.854 103.289C179.988 103.289 180.728 102.782 181.074 101.769H184.094C183.788 102.969 183.181 103.922 182.274 104.629C181.368 105.335 180.234 105.689 178.874 105.689C177.808 105.689 176.861 105.455 176.034 104.989C175.208 104.509 174.561 103.842 174.094 102.989C173.628 102.122 173.394 101.115 173.394 99.9688ZM196.746 94.4288L189.886 110.749H186.906L189.306 105.229L184.866 94.4288H188.006L190.866 102.169L193.766 94.4288H196.746Z" fill="#0B4870"/>
<ellipse cx="160.225" cy="43.2915" rx="24.1816" ry="25.1767" fill="#EE9D3D"/>
<path d="M172.413 28.1308C171.876 27.8197 171.285 27.6218 170.675 27.5485C170.064 27.4752 169.446 27.528 168.855 27.7038C168.264 27.8795 167.712 28.1749 167.23 28.5729C166.749 28.9709 166.348 29.4638 166.05 30.0233L157.364 46.2985L152.392 41.1227C151.961 40.6574 151.444 40.2863 150.874 40.031C150.303 39.7757 149.689 39.6413 149.068 39.6357C148.446 39.6301 147.83 39.7534 147.255 39.9983C146.68 40.2432 146.158 40.6049 145.718 41.0623C145.279 41.5197 144.932 42.0636 144.696 42.6623C144.461 43.2609 144.343 43.9024 144.348 44.5492C144.354 45.196 144.483 45.8352 144.728 46.4296C144.973 47.0239 145.33 47.5614 145.776 48.0108L155.134 57.7535C156.018 58.6766 157.212 59.1832 158.442 59.1832L159.09 59.1345C159.807 59.0301 160.491 58.7537 161.088 58.3273C161.686 57.9008 162.18 57.3359 162.531 56.6769L174.228 34.7558C174.527 34.1967 174.717 33.5819 174.787 32.9463C174.858 32.3108 174.807 31.6671 174.639 31.0519C174.47 30.4367 174.187 29.8621 173.805 29.3609C173.423 28.8597 172.95 28.4417 172.413 28.1308V28.1308Z" fill="#FFE3CA"/>
</svg>
