<svg width="300" height="160" viewBox="0 0 300 160" fill="none" xmlns="http://www.w3.org/2000/svg">
<path d="M12 159.384H300V0H164.865V26H12V159.384Z" fill="#6FACB6"/>
<path d="M290.68 149V35.5673V7H171.379V20.6913V35H95.4175H19.4563L19.4563 92V149H154.136H188.155H222.175H290.68Z" fill="#89D2DE"/>
<path d="M19.4563 35L12 26H164.854L171.379 35H19.4563Z" fill="#C6E9F1"/>
<path d="M171.379 7L164.854 0H300L290.68 7H171.379Z" fill="#C6E9F1"/>
<path d="M188.438 126.675C188.438 128.125 187.938 129.333 186.938 130.3C185.955 131.25 184.447 131.725 182.413 131.725H179.063V139H176.788V121.575H182.413C184.38 121.575 185.872 122.05 186.888 123C187.922 123.95 188.438 125.175 188.438 126.675ZM182.413 129.85C183.68 129.85 184.613 129.575 185.213 129.025C185.813 128.475 186.113 127.692 186.113 126.675C186.113 124.525 184.88 123.45 182.413 123.45H179.063V129.85H182.413ZM193.541 127.525C193.941 126.742 194.507 126.133 195.241 125.7C195.991 125.267 196.899 125.05 197.966 125.05V127.4H197.366C194.816 127.4 193.541 128.783 193.541 131.55V139H191.266V125.3H193.541V127.525ZM201.767 123.075C201.334 123.075 200.967 122.925 200.667 122.625C200.367 122.325 200.217 121.958 200.217 121.525C200.217 121.092 200.367 120.725 200.667 120.425C200.967 120.125 201.334 119.975 201.767 119.975C202.184 119.975 202.534 120.125 202.817 120.425C203.117 120.725 203.267 121.092 203.267 121.525C203.267 121.958 203.117 122.325 202.817 122.625C202.534 122.925 202.184 123.075 201.767 123.075ZM202.867 125.3V139H200.592V125.3H202.867ZM211.844 136.9L216.094 125.3H218.519L213.144 139H210.494L205.119 125.3H207.569L211.844 136.9ZM219.908 132.1C219.908 130.7 220.191 129.475 220.758 128.425C221.325 127.358 222.1 126.533 223.083 125.95C224.083 125.367 225.191 125.075 226.408 125.075C227.608 125.075 228.65 125.333 229.533 125.85C230.416 126.367 231.075 127.017 231.508 127.8V125.3H233.808V139H231.508V136.45C231.058 137.25 230.383 137.917 229.483 138.45C228.6 138.967 227.566 139.225 226.383 139.225C225.166 139.225 224.066 138.925 223.083 138.325C222.1 137.725 221.325 136.883 220.758 135.8C220.191 134.717 219.908 133.483 219.908 132.1ZM231.508 132.125C231.508 131.092 231.3 130.192 230.883 129.425C230.466 128.658 229.9 128.075 229.183 127.675C228.483 127.258 227.708 127.05 226.858 127.05C226.008 127.05 225.233 127.25 224.533 127.65C223.833 128.05 223.275 128.633 222.858 129.4C222.441 130.167 222.233 131.067 222.233 132.1C222.233 133.15 222.441 134.067 222.858 134.85C223.275 135.617 223.833 136.208 224.533 136.625C225.233 137.025 226.008 137.225 226.858 137.225C227.708 137.225 228.483 137.025 229.183 136.625C229.9 136.208 230.466 135.617 230.883 134.85C231.3 134.067 231.508 133.158 231.508 132.125ZM236.803 132.125C236.803 130.708 237.086 129.475 237.653 128.425C238.219 127.358 239.003 126.533 240.003 125.95C241.019 125.367 242.178 125.075 243.478 125.075C245.161 125.075 246.544 125.483 247.628 126.3C248.728 127.117 249.453 128.25 249.803 129.7H247.353C247.119 128.867 246.661 128.208 245.978 127.725C245.311 127.242 244.478 127 243.478 127C242.178 127 241.128 127.45 240.328 128.35C239.528 129.233 239.128 130.492 239.128 132.125C239.128 133.775 239.528 135.05 240.328 135.95C241.128 136.85 242.178 137.3 243.478 137.3C244.478 137.3 245.311 137.067 245.978 136.6C246.644 136.133 247.103 135.467 247.353 134.6H249.803C249.436 136 248.703 137.125 247.603 137.975C246.503 138.808 245.128 139.225 243.478 139.225C242.178 139.225 241.019 138.933 240.003 138.35C239.003 137.767 238.219 136.942 237.653 135.875C237.086 134.808 236.803 133.558 236.803 132.125ZM264.638 125.3L256.388 145.45H254.038L256.738 138.85L251.213 125.3H253.738L258.038 136.4L262.288 125.3H264.638Z" fill="#0B4870"/>
<circle cx="231.738" cy="57.0247" r="33.1634" fill="#EE9D3D"/>
<path d="M248.452 37.0547C247.716 36.6448 246.905 36.3842 246.068 36.2877C245.231 36.1911 244.383 36.2606 243.572 36.4922C242.762 36.7237 242.005 37.1127 241.345 37.637C240.685 38.1613 240.134 38.8105 239.725 39.5476L227.813 60.9857L220.995 54.1679C220.403 53.5551 219.695 53.0663 218.912 52.73C218.13 52.3937 217.288 52.2167 216.436 52.2093C215.584 52.2018 214.739 52.3642 213.95 52.6868C213.161 53.0095 212.445 53.4859 211.843 54.0884C211.24 54.6909 210.764 55.4073 210.441 56.1959C210.118 56.9845 209.956 57.8294 209.963 58.6814C209.971 59.5334 210.148 60.3754 210.484 61.1583C210.82 61.9411 211.309 62.6492 211.922 63.2411L224.755 76.0744C225.968 77.2904 227.604 77.9577 229.292 77.9577L230.181 77.8936C231.164 77.756 232.102 77.392 232.921 76.8303C233.74 76.2685 234.418 75.5244 234.9 74.6564L250.942 45.7814C251.351 45.0449 251.612 44.235 251.708 43.3978C251.805 42.5607 251.736 41.7127 251.504 40.9024C251.273 40.092 250.885 39.3351 250.361 38.675C249.837 38.0148 249.189 37.4642 248.452 37.0547V37.0547Z" fill="#FFE3CA"/>
</svg>
