<svg width="251" height="120" viewBox="0 0 291 160" fill="none" xmlns="http://www.w3.org/2000/svg">
<path d="M3 159.384H291V0H155.865V26H3V159.384Z" fill="#6FACB6"/>
<path d="M281.68 149V35.5673V7H162.379V20.6913V35H86.4175H10.4563L10.4563 92V149H145.136H179.155H213.175H281.68Z" fill="#89D2DE"/>
<path d="M10.4563 35L3 26H155.854L162.379 35H10.4563Z" fill="#C6E9F1"/>
<path d="M162.379 7L155.854 0H291L281.68 7H162.379Z" fill="#C6E9F1"/>
<path d="M245.872 99.401H198.761C196.619 99.401 194.884 97.6653 194.884 95.5237V33.0528C194.884 30.9112 196.619 29.1755 198.761 29.1755H245.872C248.013 29.1755 249.749 30.9112 249.749 33.0528V95.5255C249.749 97.6653 248.013 99.401 245.872 99.401Z" fill="#F7F7F7"/>
<path d="M245.959 99.4009H198.677C196.584 99.4009 194.886 97.7033 194.886 95.6107V85.8976C194.886 85.8976 204.9 93.181 222.319 93.181C239.738 93.181 249.751 85.8976 249.751 85.8976V95.6107C249.75 97.7051 248.054 99.4009 245.959 99.4009Z" fill="#D3D3D3"/>
<path d="M245.959 100.287H198.676C196.098 100.287 194 98.189 194 95.6108V32.9659C194 30.3877 196.098 28.2897 198.676 28.2897H245.961C248.539 28.2897 250.637 30.3877 250.637 32.9659V95.6108C250.635 98.189 248.537 100.287 245.959 100.287ZM198.676 30.0616C197.075 30.0616 195.772 31.3643 195.772 32.9659V95.6108C195.772 97.2124 197.075 98.5151 198.676 98.5151H245.961C247.562 98.5151 248.865 97.2124 248.865 95.6108V32.9659C248.865 31.3643 247.562 30.0616 245.961 30.0616H198.676Z" fill="#0B4870"/>
<path d="M229.779 24.3469C229.779 20.225 226.438 16.8859 222.318 16.8859C218.197 16.8859 214.857 20.2268 214.857 24.3469H202.664C201.762 24.3469 201.031 25.0788 201.031 25.9793V30.1736C201.031 31.0759 201.763 31.8061 202.664 31.8061H241.973C242.875 31.8061 243.605 31.0741 243.605 30.1736V25.9793C243.605 25.077 242.873 24.3469 241.973 24.3469H229.779V24.3469ZM222.673 25.6677C220.88 25.8941 219.371 24.3849 219.597 22.5912C219.751 21.3683 220.738 20.3808 221.961 20.2268C223.757 20.0004 225.266 21.5096 225.04 23.3051C224.884 24.528 223.896 25.5155 222.673 25.6677Z" fill="#D3D3D3"/>
<path d="M241.971 32.6939H202.664C201.275 32.6939 200.146 31.5634 200.146 30.1755V25.9794C200.146 24.5898 201.276 23.461 202.664 23.461H214.017C214.461 19.2739 218.014 16 222.317 16C226.62 16 230.173 19.2739 230.617 23.461H241.971C243.361 23.461 244.49 24.5916 244.49 25.9794V30.1737C244.491 31.5634 243.361 32.6939 241.971 32.6939ZM202.664 25.2329C202.251 25.2329 201.916 25.5681 201.916 25.9812V30.1755C201.916 30.5886 202.251 30.9238 202.664 30.9238H241.973C242.386 30.9238 242.721 30.5886 242.721 30.1755V25.9794C242.721 25.5663 242.386 25.2311 241.973 25.2311H228.895V24.3452C228.895 20.7197 225.946 17.7683 222.32 17.7683C218.695 17.7683 215.744 20.7179 215.744 24.3452V25.2311H202.664V25.2329ZM222.317 26.5773C221.355 26.5773 220.44 26.2023 219.751 25.5138C218.952 24.7148 218.575 23.6096 218.719 22.4808C218.922 20.8701 220.239 19.5511 221.849 19.3482C222.978 19.2051 224.083 19.5819 224.884 20.3809C225.683 21.1799 226.06 22.2851 225.917 23.4157C225.714 25.0282 224.395 26.3436 222.784 26.5465C222.628 26.5664 222.471 26.5773 222.317 26.5773ZM222.315 21.0912C222.235 21.0912 222.154 21.0966 222.072 21.1057C221.251 21.2089 220.579 21.8811 220.476 22.7019C220.404 23.2834 220.596 23.8524 221.005 24.2618C221.415 24.6713 221.983 24.8633 222.565 24.7909C223.386 24.6876 224.058 24.0172 224.161 23.1947C224.236 22.6131 224.042 22.0442 223.632 21.6347C223.279 21.2832 222.81 21.0912 222.315 21.0912Z" fill="#0B4870"/>
<path d="M253.805 87.7148H231.018V75.005C231.018 68.7217 236.129 63.6106 242.413 63.6106C248.694 63.6106 253.805 68.7217 253.805 75.005V87.7148V87.7148ZM234.491 84.2398H250.328V75.005C250.328 70.6386 246.777 67.0856 242.411 67.0856C238.044 67.0856 234.491 70.6386 234.491 75.005V84.2398Z" fill="#FFBE55"/>
<path d="M254.69 88.6006H230.132V75.0049C230.132 68.2342 235.64 62.7245 242.413 62.7245C249.184 62.7245 254.691 68.2324 254.691 75.0049V88.6006H254.69ZM231.903 86.8287H252.918V75.0049C252.918 69.2107 248.203 64.4964 242.411 64.4964C236.617 64.4964 231.903 69.2107 231.903 75.0049V86.8287ZM251.216 85.1256H233.607V75.0049C233.607 70.1493 237.557 66.1995 242.413 66.1995C247.267 66.1995 251.216 70.1493 251.216 75.0049V85.1256V85.1256ZM235.378 83.3537H249.444V75.0049C249.444 71.1258 246.29 67.9715 242.411 67.9715C238.532 67.9715 235.378 71.1258 235.378 75.0049V83.3537Z" fill="#0B4870"/>
<path d="M251.204 105.454H233.619C230.354 105.454 227.709 102.807 227.709 99.544V87.8832C227.709 84.6184 230.356 81.9731 233.619 81.9731H251.204C254.469 81.9731 257.114 84.6202 257.114 87.8832V99.544C257.116 102.809 254.469 105.454 251.204 105.454Z" fill="#FFBE55"/>
<path d="M251.336 106.34H233.486C229.812 106.34 226.823 103.351 226.823 99.6765V87.7512C226.823 84.0769 229.812 81.0874 233.486 81.0874H251.336C255.011 81.0874 258 84.0769 258 87.7512V99.6765C258 103.351 255.011 106.34 251.336 106.34ZM233.486 82.8593C230.789 82.8593 228.593 85.0553 228.593 87.753V99.6783C228.593 102.376 230.789 104.572 233.486 104.572H251.336C254.034 104.572 256.23 102.376 256.23 99.6783V87.753C256.23 85.0553 254.034 82.8593 251.336 82.8593H233.486Z" fill="#0B4870"/>
<path d="M245.086 97.9315L243.901 93.4944C244.383 93.074 244.702 92.4761 244.702 91.7858C244.702 90.5212 243.677 89.4957 242.412 89.4957C241.147 89.4957 240.122 90.5212 240.122 91.7858C240.122 92.4743 240.441 93.074 240.923 93.4944L239.738 97.9315H245.086Z" fill="#FFBE55"/>
<path d="M246.24 98.8173H238.583L239.938 93.7479C239.482 93.1881 239.235 92.5086 239.235 91.7875C239.235 90.0355 240.659 88.6115 242.411 88.6115C244.163 88.6115 245.587 90.0355 245.587 91.7875C245.587 92.5086 245.341 93.1881 244.884 93.7479L246.24 98.8173ZM240.889 97.0454H243.931L242.902 93.1899L243.319 92.8275C243.506 92.6663 243.817 92.3148 243.817 91.7875C243.817 91.0121 243.187 90.3834 242.411 90.3834C241.636 90.3834 241.007 91.0139 241.007 91.7875C241.007 92.3148 241.319 92.6663 241.504 92.8275L241.92 93.1899L240.889 97.0454Z" fill="#0B4870"/>
<path d="M239.517 50.4443L235.306 46.2336L217.531 64.0092L209.33 55.809L205.118 60.0215L217.454 72.358L217.531 72.2837L217.605 72.358L239.517 50.4443Z" fill="#CCE9FF"/>
<path d="M217.602 73.6118L217.528 73.5375L217.454 73.6118L203.864 60.0215L209.328 54.5571L217.528 62.7573L235.304 44.9817L240.768 50.4461L217.602 73.6118ZM217.53 71.03L217.604 71.1043L238.264 50.4443L235.306 47.4856L217.53 65.2612L209.33 57.061L206.371 60.0196L217.456 71.1043L217.53 71.03Z" fill="#0B4870"/>
<path d="M188.438 126.675C188.438 128.125 187.938 129.333 186.938 130.3C185.955 131.25 184.447 131.725 182.413 131.725H179.063V139H176.788V121.575H182.413C184.38 121.575 185.872 122.05 186.888 123C187.922 123.95 188.438 125.175 188.438 126.675ZM182.413 129.85C183.68 129.85 184.613 129.575 185.213 129.025C185.813 128.475 186.113 127.692 186.113 126.675C186.113 124.525 184.88 123.45 182.413 123.45H179.063V129.85H182.413ZM193.541 127.525C193.941 126.742 194.507 126.133 195.241 125.7C195.991 125.267 196.899 125.05 197.966 125.05V127.4H197.366C194.816 127.4 193.541 128.783 193.541 131.55V139H191.266V125.3H193.541V127.525ZM201.767 123.075C201.334 123.075 200.967 122.925 200.667 122.625C200.367 122.325 200.217 121.958 200.217 121.525C200.217 121.092 200.367 120.725 200.667 120.425C200.967 120.125 201.334 119.975 201.767 119.975C202.184 119.975 202.534 120.125 202.817 120.425C203.117 120.725 203.267 121.092 203.267 121.525C203.267 121.958 203.117 122.325 202.817 122.625C202.534 122.925 202.184 123.075 201.767 123.075ZM202.867 125.3V139H200.592V125.3H202.867ZM211.844 136.9L216.094 125.3H218.519L213.144 139H210.494L205.119 125.3H207.569L211.844 136.9ZM219.908 132.1C219.908 130.7 220.191 129.475 220.758 128.425C221.325 127.358 222.1 126.533 223.083 125.95C224.083 125.367 225.191 125.075 226.408 125.075C227.608 125.075 228.65 125.333 229.533 125.85C230.416 126.367 231.075 127.017 231.508 127.8V125.3H233.808V139H231.508V136.45C231.058 137.25 230.383 137.917 229.483 138.45C228.6 138.967 227.566 139.225 226.383 139.225C225.166 139.225 224.066 138.925 223.083 138.325C222.1 137.725 221.325 136.883 220.758 135.8C220.191 134.717 219.908 133.483 219.908 132.1ZM231.508 132.125C231.508 131.092 231.3 130.192 230.883 129.425C230.466 128.658 229.9 128.075 229.183 127.675C228.483 127.258 227.708 127.05 226.858 127.05C226.008 127.05 225.233 127.25 224.533 127.65C223.833 128.05 223.275 128.633 222.858 129.4C222.441 130.167 222.233 131.067 222.233 132.1C222.233 133.15 222.441 134.067 222.858 134.85C223.275 135.617 223.833 136.208 224.533 136.625C225.233 137.025 226.008 137.225 226.858 137.225C227.708 137.225 228.483 137.025 229.183 136.625C229.9 136.208 230.466 135.617 230.883 134.85C231.3 134.067 231.508 133.158 231.508 132.125ZM236.803 132.125C236.803 130.708 237.086 129.475 237.653 128.425C238.219 127.358 239.003 126.533 240.003 125.95C241.019 125.367 242.178 125.075 243.478 125.075C245.161 125.075 246.544 125.483 247.628 126.3C248.728 127.117 249.453 128.25 249.803 129.7H247.353C247.119 128.867 246.661 128.208 245.978 127.725C245.311 127.242 244.478 127 243.478 127C242.178 127 241.128 127.45 240.328 128.35C239.528 129.233 239.128 130.492 239.128 132.125C239.128 133.775 239.528 135.05 240.328 135.95C241.128 136.85 242.178 137.3 243.478 137.3C244.478 137.3 245.311 137.067 245.978 136.6C246.644 136.133 247.103 135.467 247.353 134.6H249.803C249.436 136 248.703 137.125 247.603 137.975C246.503 138.808 245.128 139.225 243.478 139.225C242.178 139.225 241.019 138.933 240.003 138.35C239.003 137.767 238.219 136.942 237.653 135.875C237.086 134.808 236.803 133.558 236.803 132.125ZM264.638 125.3L256.388 145.45H254.038L256.738 138.85L251.213 125.3H253.738L258.038 136.4L262.288 125.3H264.638Z" fill="#0B4870"/>
</svg>
