<svg width="113" height="100" viewBox="0 0 113 100" fill="none" xmlns="http://www.w3.org/2000/svg">
<path opacity="0.1" d="M56.3518 100C87.3411 100 112.463 97.1645 112.463 93.6667C112.463 90.1689 87.3411 87.3333 56.3518 87.3333C25.3625 87.3333 0.240723 90.1689 0.240723 93.6667C0.240723 97.1645 25.3625 100 56.3518 100Z" fill="#2A94F4"/>
<path d="M56.7131 42.0278C56.7131 42.0278 46.6391 38.5926 45.3983 30.7129C44.4446 24.6574 44.2872 10.4907 52.5742 6.3611C73.9817 -4.32409 87.5095 8.99999 87.5095 8.99999C87.5095 8.99999 94.7224 17.9259 92.7687 24.6667C90.815 31.4074 78.4446 55.6481 63.6113 44L56.7131 42.0278Z" fill="#0B4870"/>
<path d="M50.574 38.7315C50.574 38.7315 30.324 36 23.4443 41.713V77.0833H75.7314C75.7314 77.0833 74.3147 54.4537 65.3517 46.7222C56.4073 39 50.574 38.7315 50.574 38.7315Z" fill="#2A94F4"/>
<path d="M51.8243 37.4352L45.7317 46.1389C43.1576 49.8055 43.9169 54.8796 47.4354 57.5833C51.0835 60.3888 56.2965 59.5925 59.0002 55.8148C62.1761 51.3796 65.7779 46.2685 66.1946 45.3796C66.9631 43.7407 55.2687 36.0463 51.8243 37.4352Z" fill="#CC9272"/>
<path d="M8.77766 88.8056L8.18506 90.2593L9.37026 90.9537L10.6018 88.4908L8.77766 88.8056Z" fill="#DBA17B"/>
<path d="M13.1019 61.1759C13.1019 61.1759 12.7408 72.1759 12.5464 74.7592C12.3519 77.3426 8.77783 88.8055 8.77783 88.8055L10.4723 89.5555C10.4723 89.5555 15.9815 79.7222 16.6112 77.1667C17.2408 74.6111 17.6204 70.1018 18.6482 68.5926C19.676 67.0833 20.6204 76.6852 20.713 78C20.8056 79.3148 21.6852 90.5648 21.6852 90.5648L23.8889 90.3796L22.3982 62.537C22.4075 62.537 15.0741 59.1111 13.1019 61.1759Z" fill="#0E538C"/>
<path d="M20.2036 0V93.6667H98.4073V0H20.2036ZM93.6666 74.3611H24.9258V5.61111H93.6666V74.3611Z" fill="#FFBE55"/>
<path d="M20.2037 39.0463C20.2037 39.0463 12.1203 45.1111 13.111 61.1852L20.2037 62.5463V39.0463Z" fill="#2A94F4"/>
<path d="M8.19458 89.8981C8.15754 89.787 8.00939 89.7685 7.93532 89.8611C7.73162 90.1574 7.43532 90.5926 7.33347 90.8148C7.26865 90.963 7.19458 91.1204 7.13902 91.2407C7.07421 91.3796 7.13902 91.537 7.27791 91.5833C7.68532 91.7407 8.45384 92.1018 8.77791 92.6667C9.2131 93.4537 10.9353 93.9537 12.315 93.5092C12.315 93.5092 12.9446 92.3426 12.0557 92.4259C11.5279 92.4722 11.0001 92.7592 10.5927 92.0648C10.1853 91.3796 10.5001 90.6204 9.59273 90.5C9.59273 90.5 9.27792 90.5648 8.93532 90.5C8.6668 90.4537 8.31495 90.2685 8.19458 89.8981Z" fill="#0B4870"/>
<path d="M22.4072 55.8241C23.898 54.9167 25.1665 55.6944 24.5091 55.8241C23.7036 55.9815 23.3517 56.6667 24.1943 57.2315C25.0461 57.7963 25.9628 59.6481 24.4721 59.8056C23.7684 59.8796 22.5091 59.1296 21.8795 57.4167C21.2498 55.6944 21.9998 56.0741 22.4072 55.8241Z" fill="#DBA17B"/>
<path d="M20.2038 37.2407C20.2038 37.2407 14.426 38.9074 12.7315 47.1759C11.0371 55.4444 21.7501 57.5093 21.7501 57.5093L22.4075 55.537C22.4075 55.537 16.7686 51.6852 16.0186 49.8056C15.2686 47.9259 20.2038 40.9444 20.2038 40.9444V37.2407Z" fill="#2A94F4"/>
<path d="M57.2316 10.4722C57.1853 10.9352 60.6575 23.537 73.6575 19.3611C84.5927 15.8426 83.9723 14.463 85.0927 25.537C86.139 35.8981 71.7038 62.3333 54.1575 45.4815C48.2131 39.7685 49.0094 26.463 53.3705 16.4352C54.3427 14.1945 55.6205 12.1574 57.2316 10.4722Z" fill="#DBA17B"/>
<path d="M47.7963 17.0463C47.7963 17.0463 50.3055 14.713 51.0925 18.8704C51.8796 23.0278 52.8148 37.0741 49.0648 31.7315C45.3148 26.3889 43.7129 21.3056 47.7963 17.0463Z" fill="#DBA17B"/>
<path d="M87.3424 32.9722C87.3424 32.9722 87.1479 29.5463 83.7035 32C80.259 34.4537 69.8516 43.9352 76.259 42.6759C82.6664 41.4166 87.3331 38.8704 87.3424 32.9722Z" fill="#DBA17B"/>
</svg>
