<svg width="210" height="121" viewBox="0 0 210 121" fill="none" xmlns="http://www.w3.org/2000/svg">
<path d="M0 121H210V0H111.464V19.7385H0V121Z" fill="#6FACB6"/>
<path d="M203.204 113.117V27.0017V5.31421H116.214V15.7083V26.571H60.8252H5.43689L5.43689 69.8438V113.117H103.641H128.447H153.252H203.204Z" fill="#89D2DE"/>
<path d="M5.43688 26.5711L0 19.7385H111.456L116.214 26.5711H5.43688Z" fill="#C6E9F1"/>
<path d="M116.214 5.3142L111.456 0H210L203.204 5.3142H116.214Z" fill="#C6E9F1"/>
<path d="M137.933 49.8142L129.252 40.6824C128.916 40.3288 128.916 39.756 129.252 39.4024L137.933 30.2699C150.949 16.578 172.052 16.578 185.067 30.2699L193.748 39.4024C194.084 39.756 194.084 40.3288 193.748 40.6824L185.067 49.8142C173.869 61.5944 156.684 63.2393 143.814 54.7489C141.725 53.3712 139.75 51.7263 137.933 49.8142Z" fill="#CCE9FF"/>
<path d="M176.372 40.0416C176.372 48.682 169.713 55.6866 161.5 55.6866C153.286 55.6866 146.627 48.682 146.627 40.0416C146.627 31.4005 153.286 24.3958 161.5 24.3958C169.713 24.3958 176.372 31.4005 176.372 40.0416Z" fill="#2A94F4"/>
<path d="M172.654 38.8678H169.976C169.475 34.8446 166.439 31.651 162.615 31.1242V28.3074C162.615 27.6589 162.116 27.1343 161.5 27.1343C160.883 27.1343 160.384 27.6589 160.384 28.3074V31.1242C156.56 31.651 153.524 34.8448 153.023 38.8678H150.345C149.729 38.8678 149.229 39.3932 149.229 40.0417C149.229 40.6894 149.729 41.2148 150.345 41.2148H153.023C153.524 45.2381 156.56 48.4316 160.384 48.9584V51.7752C160.384 52.4237 160.883 52.9491 161.5 52.9491C162.116 52.9491 162.615 52.4237 162.615 51.7752V48.9584C166.44 48.4316 169.475 45.2379 169.976 41.2148H172.654C173.27 41.2148 173.77 40.6894 173.77 40.0417C173.77 39.3932 173.27 38.8678 172.654 38.8678ZM160.385 33.498V35.9031C159.025 36.309 157.952 37.4378 157.566 38.8676H155.279C155.743 36.1408 157.792 33.9861 160.385 33.498ZM160.385 46.5854C157.792 46.0975 155.743 43.9425 155.279 41.215H157.566C157.952 42.6456 159.025 43.7736 160.385 44.1802V46.5854V46.5854ZM161.5 41.9971C160.475 41.9971 159.64 41.1201 159.64 40.0417C159.64 38.9632 160.475 38.0855 161.5 38.0855C162.525 38.0855 163.359 38.9632 163.359 40.0417C163.359 41.1201 162.525 41.9971 161.5 41.9971ZM162.615 46.5854V44.1801C163.975 43.7734 165.048 42.6454 165.434 41.2148H167.72C167.256 43.9418 165.208 46.0973 162.615 46.5854ZM165.434 38.8678C165.048 37.438 163.975 36.3092 162.615 35.9033V33.4982C165.208 33.9861 167.256 36.141 167.72 38.8678H165.434Z" fill="#F7F7F7"/>
<path d="M130.617 37.9645L137.933 30.2689C150.948 16.577 172.051 16.577 185.067 30.2689L192.382 37.9645C183.881 32.6019 173.157 29.4019 161.5 29.4019C149.842 29.4019 139.118 32.6019 130.617 37.9645Z" fill="#FFBE55"/>
<path d="M41.4446 105.509L38.3646 100.069H37.0446V105.509H34.2446V91.5488H39.4846C40.5646 91.5488 41.4846 91.7421 42.2446 92.1288C43.0046 92.5021 43.5713 93.0155 43.9446 93.6688C44.3313 94.3088 44.5246 95.0288 44.5246 95.8288C44.5246 96.7488 44.2579 97.5821 43.7246 98.3288C43.1913 99.0621 42.3979 99.5688 41.3446 99.8488L44.6846 105.509H41.4446ZM37.0446 97.9688H39.3846C40.1446 97.9688 40.7113 97.7888 41.0846 97.4288C41.4579 97.0555 41.6446 96.5421 41.6446 95.8888C41.6446 95.2488 41.4579 94.7555 41.0846 94.4088C40.7113 94.0488 40.1446 93.8688 39.3846 93.8688H37.0446V97.9688ZM57.3571 99.7288C57.3571 100.129 57.3304 100.489 57.2771 100.809H49.1771C49.2438 101.609 49.5238 102.235 50.0171 102.689C50.5104 103.142 51.1171 103.369 51.8371 103.369C52.8771 103.369 53.6171 102.922 54.0571 102.029H57.0771C56.7571 103.095 56.1438 103.975 55.2371 104.669C54.3304 105.349 53.2171 105.689 51.8971 105.689C50.8304 105.689 49.8704 105.455 49.0171 104.989C48.1771 104.509 47.5171 103.835 47.0371 102.969C46.5704 102.102 46.3371 101.102 46.3371 99.9688C46.3371 98.8221 46.5704 97.8155 47.0371 96.9488C47.5038 96.0821 48.1571 95.4155 48.9971 94.9488C49.8371 94.4821 50.8038 94.2488 51.8971 94.2488C52.9504 94.2488 53.8904 94.4755 54.7171 94.9288C55.5571 95.3821 56.2038 96.0288 56.6571 96.8688C57.1238 97.6955 57.3571 98.6488 57.3571 99.7288ZM54.4571 98.9288C54.4438 98.2088 54.1838 97.6355 53.6771 97.2088C53.1704 96.7688 52.5504 96.5488 51.8171 96.5488C51.1238 96.5488 50.5371 96.7621 50.0571 97.1888C49.5904 97.6021 49.3038 98.1821 49.1971 98.9288H54.4571ZM63.6409 105.689C62.7342 105.689 61.9209 105.529 61.2009 105.209C60.4809 104.875 59.9075 104.429 59.4809 103.869C59.0675 103.309 58.8409 102.689 58.8009 102.009H61.6209C61.6742 102.435 61.8809 102.789 62.2409 103.069C62.6142 103.349 63.0742 103.489 63.6209 103.489C64.1542 103.489 64.5675 103.382 64.8609 103.169C65.1675 102.955 65.3209 102.682 65.3209 102.349C65.3209 101.989 65.1342 101.722 64.7609 101.549C64.4009 101.362 63.8209 101.162 63.0209 100.949C62.1942 100.749 61.5142 100.542 60.9809 100.329C60.4609 100.115 60.0075 99.7888 59.6209 99.3488C59.2475 98.9088 59.0609 98.3155 59.0609 97.5688C59.0609 96.9555 59.2342 96.3955 59.5809 95.8888C59.9409 95.3821 60.4475 94.9821 61.1009 94.6888C61.7675 94.3955 62.5475 94.2488 63.4409 94.2488C64.7609 94.2488 65.8142 94.5821 66.6009 95.2488C67.3875 95.9021 67.8209 96.7888 67.9009 97.9088H65.2209C65.1809 97.4688 64.9942 97.1221 64.6609 96.8688C64.3409 96.6021 63.9075 96.4688 63.3609 96.4688C62.8542 96.4688 62.4609 96.5621 62.1809 96.7488C61.9142 96.9355 61.7809 97.1955 61.7809 97.5288C61.7809 97.9021 61.9675 98.1888 62.3409 98.3888C62.7142 98.5755 63.2942 98.7688 64.0809 98.9688C64.8809 99.1688 65.5409 99.3755 66.0609 99.5888C66.5809 99.8021 67.0275 100.135 67.4009 100.589C67.7875 101.029 67.9875 101.615 68.0009 102.349C68.0009 102.989 67.8209 103.562 67.4609 104.069C67.1142 104.575 66.6075 104.975 65.9409 105.269C65.2875 105.549 64.5209 105.689 63.6409 105.689ZM73.0993 96.0288C73.4593 95.5221 73.9526 95.1021 74.5793 94.7688C75.2193 94.4221 75.946 94.2488 76.7593 94.2488C77.706 94.2488 78.5593 94.4821 79.3193 94.9488C80.0926 95.4155 80.6993 96.0821 81.1393 96.9488C81.5926 97.8021 81.8193 98.7955 81.8193 99.9288C81.8193 101.062 81.5926 102.069 81.1393 102.949C80.6993 103.815 80.0926 104.489 79.3193 104.969C78.5593 105.449 77.706 105.689 76.7593 105.689C75.946 105.689 75.226 105.522 74.5993 105.189C73.986 104.855 73.486 104.435 73.0993 103.929V110.789H70.2993V94.4288H73.0993V96.0288ZM78.9593 99.9288C78.9593 99.2621 78.8193 98.6888 78.5393 98.2088C78.2726 97.7155 77.9126 97.3421 77.4593 97.0888C77.0193 96.8355 76.5393 96.7088 76.0193 96.7088C75.5126 96.7088 75.0326 96.8421 74.5793 97.1088C74.1393 97.3621 73.7793 97.7355 73.4993 98.2288C73.2326 98.7221 73.0993 99.3021 73.0993 99.9688C73.0993 100.635 73.2326 101.215 73.4993 101.709C73.7793 102.202 74.1393 102.582 74.5793 102.849C75.0326 103.102 75.5126 103.229 76.0193 103.229C76.5393 103.229 77.0193 103.095 77.4593 102.829C77.9126 102.562 78.2726 102.182 78.5393 101.689C78.8193 101.195 78.9593 100.609 78.9593 99.9288ZM88.774 105.689C87.7073 105.689 86.7473 105.455 85.894 104.989C85.0407 104.509 84.3673 103.835 83.874 102.969C83.394 102.102 83.154 101.102 83.154 99.9688C83.154 98.8355 83.4007 97.8355 83.894 96.9688C84.4007 96.1021 85.0873 95.4355 85.954 94.9688C86.8207 94.4888 87.7873 94.2488 88.854 94.2488C89.9207 94.2488 90.8873 94.4888 91.754 94.9688C92.6207 95.4355 93.3007 96.1021 93.794 96.9688C94.3007 97.8355 94.554 98.8355 94.554 99.9688C94.554 101.102 94.294 102.102 93.774 102.969C93.2673 103.835 92.574 104.509 91.694 104.989C90.8273 105.455 89.854 105.689 88.774 105.689ZM88.774 103.249C89.2807 103.249 89.754 103.129 90.194 102.889C90.6473 102.635 91.0073 102.262 91.274 101.769C91.5407 101.275 91.674 100.675 91.674 99.9688C91.674 98.9155 91.394 98.1088 90.834 97.5488C90.2873 96.9755 89.614 96.6888 88.814 96.6888C88.014 96.6888 87.3407 96.9755 86.794 97.5488C86.2607 98.1088 85.994 98.9155 85.994 99.9688C85.994 101.022 86.254 101.835 86.774 102.409C87.3073 102.969 87.974 103.249 88.774 103.249ZM102.748 94.2688C104.068 94.2688 105.135 94.6888 105.948 95.5288C106.761 96.3555 107.168 97.5155 107.168 99.0088V105.509H104.368V99.3888C104.368 98.5088 104.148 97.8355 103.708 97.3688C103.268 96.8888 102.668 96.6488 101.908 96.6488C101.135 96.6488 100.521 96.8888 100.068 97.3688C99.6279 97.8355 99.4079 98.5088 99.4079 99.3888V105.509H96.6079V94.4288H99.4079V95.8088C99.7812 95.3288 100.255 94.9555 100.828 94.6888C101.415 94.4088 102.055 94.2688 102.748 94.2688ZM114.071 105.689C113.164 105.689 112.351 105.529 111.631 105.209C110.911 104.875 110.337 104.429 109.911 103.869C109.497 103.309 109.271 102.689 109.231 102.009H112.051C112.104 102.435 112.311 102.789 112.671 103.069C113.044 103.349 113.504 103.489 114.051 103.489C114.584 103.489 114.997 103.382 115.291 103.169C115.597 102.955 115.751 102.682 115.751 102.349C115.751 101.989 115.564 101.722 115.191 101.549C114.831 101.362 114.251 101.162 113.451 100.949C112.624 100.749 111.944 100.542 111.411 100.329C110.891 100.115 110.437 99.7888 110.051 99.3488C109.677 98.9088 109.491 98.3155 109.491 97.5688C109.491 96.9555 109.664 96.3955 110.011 95.8888C110.371 95.3821 110.877 94.9821 111.531 94.6888C112.197 94.3955 112.977 94.2488 113.871 94.2488C115.191 94.2488 116.244 94.5821 117.031 95.2488C117.817 95.9021 118.251 96.7888 118.331 97.9088H115.651C115.611 97.4688 115.424 97.1221 115.091 96.8688C114.771 96.6021 114.337 96.4688 113.791 96.4688C113.284 96.4688 112.891 96.5621 112.611 96.7488C112.344 96.9355 112.211 97.1955 112.211 97.5288C112.211 97.9021 112.397 98.1888 112.771 98.3888C113.144 98.5755 113.724 98.7688 114.511 98.9688C115.311 99.1688 115.971 99.3755 116.491 99.5888C117.011 99.8021 117.457 100.135 117.831 100.589C118.217 101.029 118.417 101.615 118.431 102.349C118.431 102.989 118.251 103.562 117.891 104.069C117.544 104.575 117.037 104.975 116.371 105.269C115.717 105.549 114.951 105.689 114.071 105.689ZM122.149 93.1088C121.656 93.1088 121.242 92.9555 120.909 92.6488C120.589 92.3288 120.429 91.9355 120.429 91.4688C120.429 91.0021 120.589 90.6155 120.909 90.3088C121.242 89.9888 121.656 89.8288 122.149 89.8288C122.642 89.8288 123.049 89.9888 123.369 90.3088C123.702 90.6155 123.869 91.0021 123.869 91.4688C123.869 91.9355 123.702 92.3288 123.369 92.6488C123.049 92.9555 122.642 93.1088 122.149 93.1088ZM123.529 94.4288V105.509H120.729V94.4288H123.529ZM129.095 96.0488C129.455 95.5155 129.949 95.0821 130.575 94.7488C131.215 94.4155 131.942 94.2488 132.755 94.2488C133.702 94.2488 134.555 94.4821 135.315 94.9488C136.089 95.4155 136.695 96.0821 137.135 96.9488C137.589 97.8021 137.815 98.7955 137.815 99.9288C137.815 101.062 137.589 102.069 137.135 102.949C136.695 103.815 136.089 104.489 135.315 104.969C134.555 105.449 133.702 105.689 132.755 105.689C131.929 105.689 131.202 105.529 130.575 105.209C129.962 104.875 129.469 104.449 129.095 103.929V105.509H126.295V90.7088H129.095V96.0488ZM134.955 99.9288C134.955 99.2621 134.815 98.6888 134.535 98.2088C134.269 97.7155 133.909 97.3421 133.455 97.0888C133.015 96.8355 132.535 96.7088 132.015 96.7088C131.509 96.7088 131.029 96.8421 130.575 97.1088C130.135 97.3621 129.775 97.7355 129.495 98.2288C129.229 98.7221 129.095 99.3021 129.095 99.9688C129.095 100.635 129.229 101.215 129.495 101.709C129.775 102.202 130.135 102.582 130.575 102.849C131.029 103.102 131.509 103.229 132.015 103.229C132.535 103.229 133.015 103.095 133.455 102.829C133.909 102.562 134.269 102.182 134.535 101.689C134.815 101.195 134.955 100.609 134.955 99.9288ZM142.65 90.7088V105.509H139.85V90.7088H142.65ZM155.716 99.7288C155.716 100.129 155.69 100.489 155.636 100.809H147.536C147.603 101.609 147.883 102.235 148.376 102.689C148.87 103.142 149.476 103.369 150.196 103.369C151.236 103.369 151.976 102.922 152.416 102.029H155.436C155.116 103.095 154.503 103.975 153.596 104.669C152.69 105.349 151.576 105.689 150.256 105.689C149.19 105.689 148.23 105.455 147.376 104.989C146.536 104.509 145.876 103.835 145.396 102.969C144.93 102.102 144.696 101.102 144.696 99.9688C144.696 98.8221 144.93 97.8155 145.396 96.9488C145.863 96.0821 146.516 95.4155 147.356 94.9488C148.196 94.4821 149.163 94.2488 150.256 94.2488C151.31 94.2488 152.25 94.4755 153.076 94.9288C153.916 95.3821 154.563 96.0288 155.016 96.8688C155.483 97.6955 155.716 98.6488 155.716 99.7288ZM152.816 98.9288C152.803 98.2088 152.543 97.6355 152.036 97.2088C151.53 96.7688 150.91 96.5488 150.176 96.5488C149.483 96.5488 148.896 96.7621 148.416 97.1888C147.95 97.6021 147.663 98.1821 147.556 98.9288H152.816ZM165.286 91.5488V100.189C165.286 101.135 165.533 101.862 166.026 102.369C166.519 102.862 167.213 103.109 168.106 103.109C169.013 103.109 169.713 102.862 170.206 102.369C170.699 101.862 170.946 101.135 170.946 100.189V91.5488H173.766V100.169C173.766 101.355 173.506 102.362 172.986 103.189C172.479 104.002 171.793 104.615 170.926 105.029C170.073 105.442 169.119 105.649 168.066 105.649C167.026 105.649 166.079 105.442 165.226 105.029C164.386 104.615 163.719 104.002 163.226 103.189C162.733 102.362 162.486 101.355 162.486 100.169V91.5488H165.286ZM180.711 105.689C179.805 105.689 178.991 105.529 178.271 105.209C177.551 104.875 176.978 104.429 176.551 103.869C176.138 103.309 175.911 102.689 175.871 102.009H178.691C178.745 102.435 178.951 102.789 179.311 103.069C179.685 103.349 180.145 103.489 180.691 103.489C181.225 103.489 181.638 103.382 181.931 103.169C182.238 102.955 182.391 102.682 182.391 102.349C182.391 101.989 182.205 101.722 181.831 101.549C181.471 101.362 180.891 101.162 180.091 100.949C179.265 100.749 178.585 100.542 178.051 100.329C177.531 100.115 177.078 99.7888 176.691 99.3488C176.318 98.9088 176.131 98.3155 176.131 97.5688C176.131 96.9555 176.305 96.3955 176.651 95.8888C177.011 95.3821 177.518 94.9821 178.171 94.6888C178.838 94.3955 179.618 94.2488 180.511 94.2488C181.831 94.2488 182.885 94.5821 183.671 95.2488C184.458 95.9021 184.891 96.7888 184.971 97.9088H182.291C182.251 97.4688 182.065 97.1221 181.731 96.8688C181.411 96.6021 180.978 96.4688 180.431 96.4688C179.925 96.4688 179.531 96.5621 179.251 96.7488C178.985 96.9355 178.851 97.1955 178.851 97.5288C178.851 97.9021 179.038 98.1888 179.411 98.3888C179.785 98.5755 180.365 98.7688 181.151 98.9688C181.951 99.1688 182.611 99.3755 183.131 99.5888C183.651 99.8021 184.098 100.135 184.471 100.589C184.858 101.029 185.058 101.615 185.071 102.349C185.071 102.989 184.891 103.562 184.531 104.069C184.185 104.575 183.678 104.975 183.011 105.269C182.358 105.549 181.591 105.689 180.711 105.689ZM197.67 99.7288C197.67 100.129 197.643 100.489 197.59 100.809H189.49C189.556 101.609 189.836 102.235 190.33 102.689C190.823 103.142 191.43 103.369 192.15 103.369C193.19 103.369 193.93 102.922 194.37 102.029H197.39C197.07 103.095 196.456 103.975 195.55 104.669C194.643 105.349 193.53 105.689 192.21 105.689C191.143 105.689 190.183 105.455 189.33 104.989C188.49 104.509 187.83 103.835 187.35 102.969C186.883 102.102 186.65 101.102 186.65 99.9688C186.65 98.8221 186.883 97.8155 187.35 96.9488C187.816 96.0821 188.47 95.4155 189.31 94.9488C190.15 94.4821 191.116 94.2488 192.21 94.2488C193.263 94.2488 194.203 94.4755 195.03 94.9288C195.87 95.3821 196.516 96.0288 196.97 96.8688C197.436 97.6955 197.67 98.6488 197.67 99.7288ZM194.77 98.9288C194.756 98.2088 194.496 97.6355 193.99 97.2088C193.483 96.7688 192.863 96.5488 192.13 96.5488C191.436 96.5488 190.85 96.7621 190.37 97.1888C189.903 97.6021 189.616 98.1821 189.51 98.9288H194.77Z" fill="#0B4870"/>
</svg>
