<svg width="251" height="120" viewBox="0 0 291 160" fill="none" xmlns="http://www.w3.org/2000/svg">
<path d="M3 159.384H291V0H155.865V26H3V159.384Z" fill="#6FACB6"/>
<path d="M281.68 149V35.5673V7H162.379V20.6913V35H86.4175H10.4563L10.4563 92V149H145.136H179.155H213.175H281.68Z" fill="#89D2DE"/>
<path d="M10.4563 35L3 26H155.854L162.379 35H10.4563Z" fill="#C6E9F1"/>
<path d="M162.379 7L155.854 0H291L281.68 7H162.379Z" fill="#C6E9F1"/>
<path d="M181.43 75.7818L167.407 61.7591C166.864 61.2161 166.864 60.3365 167.407 59.7936L181.43 45.7698C202.456 24.7447 236.545 24.7447 257.57 45.7698L271.593 59.7936C272.136 60.3365 272.136 61.2161 271.593 61.7591L257.57 75.7818C239.48 93.8714 211.72 96.3973 190.931 83.3596C187.556 81.244 184.365 78.7181 181.43 75.7818Z" fill="#CCE9FF"/>
<path d="M243.524 60.7755C243.524 74.0438 232.768 84.7999 219.5 84.7999C206.232 84.7999 195.474 74.0438 195.474 60.7755C195.474 47.5065 206.232 36.75 219.5 36.75C232.768 36.75 243.524 47.5065 243.524 60.7755Z" fill="#2A94F4"/>
<path d="M237.519 58.9731H233.192C232.383 52.795 227.479 47.8911 221.301 47.0821V42.7567C221.301 41.7609 220.495 40.9552 219.5 40.9552C218.504 40.9552 217.697 41.7609 217.697 42.7567V47.0821C211.519 47.8911 206.615 52.7953 205.806 58.9731H201.481C200.485 58.9731 199.678 59.7799 199.678 60.7757C199.678 61.7704 200.485 62.5771 201.481 62.5771H205.806C206.615 68.7552 211.52 73.6591 217.697 74.4681V78.7936C217.697 79.7894 218.504 80.5961 219.5 80.5961C220.495 80.5961 221.301 79.7894 221.301 78.7936V74.4681C227.479 73.6591 232.383 68.7549 233.192 62.5771H237.519C238.513 62.5771 239.32 61.7704 239.32 60.7757C239.32 59.7799 238.514 58.9731 237.519 58.9731ZM217.698 50.7273V54.4205C215.501 55.0438 213.768 56.7772 213.145 58.9728H209.452C210.201 54.7855 213.51 51.4768 217.698 50.7273ZM217.698 70.8241C213.51 70.0748 210.201 66.7658 209.452 62.5774H213.145C213.768 64.7742 215.501 66.5064 217.698 67.1308V70.8241V70.8241ZM219.5 63.7784C217.844 63.7784 216.496 62.4317 216.496 60.7757C216.496 59.1196 217.844 57.7718 219.5 57.7718C221.156 57.7718 222.502 59.1196 222.502 60.7757C222.502 62.4317 221.156 63.7784 219.5 63.7784ZM221.301 70.8241V67.1305C223.498 66.5061 225.231 64.7739 225.855 62.5771H229.548C228.799 66.7647 225.49 70.0746 221.301 70.8241ZM225.855 58.9731C225.231 56.7774 223.498 55.0441 221.301 54.4208V50.7275C225.49 51.4768 228.799 54.7858 229.548 58.9731H225.855Z" fill="#F7F7F7"/>
<path d="M169.613 57.5861L181.43 45.7688C202.455 24.7437 236.544 24.7437 257.57 45.7688L269.386 57.5861C255.655 49.3514 238.33 44.4374 219.5 44.4374C200.669 44.4374 183.344 49.3514 169.613 57.5861Z" fill="#FFBE55"/>
<path d="M73.5854 139L69.4354 131.875H66.6854V139H64.4104V121.575H70.0354C71.352 121.575 72.4604 121.8 73.3604 122.25C74.277 122.7 74.9604 123.308 75.4104 124.075C75.8604 124.842 76.0854 125.717 76.0854 126.7C76.0854 127.9 75.7354 128.958 75.0354 129.875C74.352 130.792 73.3187 131.4 71.9354 131.7L76.3104 139H73.5854ZM66.6854 130.05H70.0354C71.2687 130.05 72.1937 129.75 72.8104 129.15C73.427 128.533 73.7354 127.717 73.7354 126.7C73.7354 125.667 73.427 124.867 72.8104 124.3C72.2104 123.733 71.2854 123.45 70.0354 123.45H66.6854V130.05ZM92.1203 131.625C92.1203 132.058 92.0953 132.517 92.0453 133H81.0953C81.1786 134.35 81.637 135.408 82.4703 136.175C83.3203 136.925 84.3453 137.3 85.5453 137.3C86.5286 137.3 87.3453 137.075 87.9953 136.625C88.662 136.158 89.1286 135.542 89.3953 134.775H91.8453C91.4786 136.092 90.7453 137.167 89.6453 138C88.5453 138.817 87.1786 139.225 85.5453 139.225C84.2453 139.225 83.0786 138.933 82.0453 138.35C81.0286 137.767 80.2286 136.942 79.6453 135.875C79.062 134.792 78.7703 133.542 78.7703 132.125C78.7703 130.708 79.0536 129.467 79.6203 128.4C80.187 127.333 80.9786 126.517 81.9953 125.95C83.0286 125.367 84.212 125.075 85.5453 125.075C86.8453 125.075 87.9953 125.358 88.9953 125.925C89.9953 126.492 90.762 127.275 91.2953 128.275C91.8453 129.258 92.1203 130.375 92.1203 131.625ZM89.7703 131.15C89.7703 130.283 89.5786 129.542 89.1953 128.925C88.812 128.292 88.287 127.817 87.6203 127.5C86.9703 127.167 86.2453 127 85.4453 127C84.2953 127 83.312 127.367 82.4953 128.1C81.6953 128.833 81.237 129.85 81.1203 131.15H89.7703ZM99.9732 139.225C98.9232 139.225 97.9816 139.05 97.1482 138.7C96.3149 138.333 95.6566 137.833 95.1732 137.2C94.6899 136.55 94.4232 135.808 94.3732 134.975H96.7232C96.7899 135.658 97.1066 136.217 97.6732 136.65C98.2566 137.083 99.0149 137.3 99.9482 137.3C100.815 137.3 101.498 137.108 101.998 136.725C102.498 136.342 102.748 135.858 102.748 135.275C102.748 134.675 102.482 134.233 101.948 133.95C101.415 133.65 100.59 133.358 99.4732 133.075C98.4566 132.808 97.6232 132.542 96.9732 132.275C96.3399 131.992 95.7899 131.583 95.3232 131.05C94.8732 130.5 94.6482 129.783 94.6482 128.9C94.6482 128.2 94.8566 127.558 95.2732 126.975C95.6899 126.392 96.2816 125.933 97.0482 125.6C97.8149 125.25 98.6899 125.075 99.6732 125.075C101.19 125.075 102.415 125.458 103.348 126.225C104.282 126.992 104.782 128.042 104.848 129.375H102.573C102.523 128.658 102.232 128.083 101.698 127.65C101.182 127.217 100.482 127 99.5982 127C98.7816 127 98.1316 127.175 97.6482 127.525C97.1649 127.875 96.9232 128.333 96.9232 128.9C96.9232 129.35 97.0649 129.725 97.3482 130.025C97.6482 130.308 98.0149 130.542 98.4482 130.725C98.8982 130.892 99.5149 131.083 100.298 131.3C101.282 131.567 102.082 131.833 102.698 132.1C103.315 132.35 103.84 132.733 104.273 133.25C104.723 133.767 104.957 134.442 104.973 135.275C104.973 136.025 104.765 136.7 104.348 137.3C103.932 137.9 103.34 138.375 102.573 138.725C101.823 139.058 100.957 139.225 99.9732 139.225ZM110.46 127.825C110.91 127.042 111.576 126.392 112.46 125.875C113.36 125.342 114.401 125.075 115.585 125.075C116.801 125.075 117.901 125.367 118.885 125.95C119.885 126.533 120.668 127.358 121.235 128.425C121.801 129.475 122.085 130.7 122.085 132.1C122.085 133.483 121.801 134.717 121.235 135.8C120.668 136.883 119.885 137.725 118.885 138.325C117.901 138.925 116.801 139.225 115.585 139.225C114.418 139.225 113.385 138.967 112.485 138.45C111.601 137.917 110.926 137.258 110.46 136.475V145.5H108.185V125.3H110.46V127.825ZM119.76 132.1C119.76 131.067 119.551 130.167 119.135 129.4C118.718 128.633 118.151 128.05 117.435 127.65C116.735 127.25 115.96 127.05 115.11 127.05C114.276 127.05 113.501 127.258 112.785 127.675C112.085 128.075 111.518 128.667 111.085 129.45C110.668 130.217 110.46 131.108 110.46 132.125C110.46 133.158 110.668 134.067 111.085 134.85C111.518 135.617 112.085 136.208 112.785 136.625C113.501 137.025 114.276 137.225 115.11 137.225C115.96 137.225 116.735 137.025 117.435 136.625C118.151 136.208 118.718 135.617 119.135 134.85C119.551 134.067 119.76 133.15 119.76 132.1ZM131.054 139.225C129.771 139.225 128.604 138.933 127.554 138.35C126.521 137.767 125.704 136.942 125.104 135.875C124.521 134.792 124.229 133.542 124.229 132.125C124.229 130.725 124.529 129.492 125.129 128.425C125.746 127.342 126.579 126.517 127.629 125.95C128.679 125.367 129.854 125.075 131.154 125.075C132.454 125.075 133.629 125.367 134.679 125.95C135.729 126.517 136.554 127.333 137.154 128.4C137.771 129.467 138.079 130.708 138.079 132.125C138.079 133.542 137.763 134.792 137.129 135.875C136.513 136.942 135.671 137.767 134.604 138.35C133.538 138.933 132.354 139.225 131.054 139.225ZM131.054 137.225C131.871 137.225 132.638 137.033 133.354 136.65C134.071 136.267 134.646 135.692 135.079 134.925C135.529 134.158 135.754 133.225 135.754 132.125C135.754 131.025 135.538 130.092 135.104 129.325C134.671 128.558 134.104 127.992 133.404 127.625C132.704 127.242 131.946 127.05 131.129 127.05C130.296 127.05 129.529 127.242 128.829 127.625C128.146 127.992 127.596 128.558 127.179 129.325C126.763 130.092 126.554 131.025 126.554 132.125C126.554 133.242 126.754 134.183 127.154 134.95C127.571 135.717 128.121 136.292 128.804 136.675C129.488 137.042 130.238 137.225 131.054 137.225ZM147.746 125.05C149.412 125.05 150.762 125.558 151.796 126.575C152.829 127.575 153.346 129.025 153.346 130.925V139H151.096V131.25C151.096 129.883 150.754 128.842 150.071 128.125C149.387 127.392 148.454 127.025 147.271 127.025C146.071 127.025 145.112 127.4 144.396 128.15C143.696 128.9 143.346 129.992 143.346 131.425V139H141.071V125.3H143.346V127.25C143.796 126.55 144.404 126.008 145.171 125.625C145.954 125.242 146.812 125.05 147.746 125.05ZM161.912 139.225C160.862 139.225 159.92 139.05 159.087 138.7C158.253 138.333 157.595 137.833 157.112 137.2C156.628 136.55 156.362 135.808 156.312 134.975H158.662C158.728 135.658 159.045 136.217 159.612 136.65C160.195 137.083 160.953 137.3 161.887 137.3C162.753 137.3 163.437 137.108 163.937 136.725C164.437 136.342 164.687 135.858 164.687 135.275C164.687 134.675 164.42 134.233 163.887 133.95C163.353 133.65 162.528 133.358 161.412 133.075C160.395 132.808 159.562 132.542 158.912 132.275C158.278 131.992 157.728 131.583 157.262 131.05C156.812 130.5 156.587 129.783 156.587 128.9C156.587 128.2 156.795 127.558 157.212 126.975C157.628 126.392 158.22 125.933 158.987 125.6C159.753 125.25 160.628 125.075 161.612 125.075C163.128 125.075 164.353 125.458 165.287 126.225C166.22 126.992 166.72 128.042 166.787 129.375H164.512C164.462 128.658 164.17 128.083 163.637 127.65C163.12 127.217 162.42 127 161.537 127C160.72 127 160.07 127.175 159.587 127.525C159.103 127.875 158.862 128.333 158.862 128.9C158.862 129.35 159.003 129.725 159.287 130.025C159.587 130.308 159.953 130.542 160.387 130.725C160.837 130.892 161.453 131.083 162.237 131.3C163.22 131.567 164.02 131.833 164.637 132.1C165.253 132.35 165.778 132.733 166.212 133.25C166.662 133.767 166.895 134.442 166.912 135.275C166.912 136.025 166.703 136.7 166.287 137.3C165.87 137.9 165.278 138.375 164.512 138.725C163.762 139.058 162.895 139.225 161.912 139.225ZM171.298 123.075C170.865 123.075 170.498 122.925 170.198 122.625C169.898 122.325 169.748 121.958 169.748 121.525C169.748 121.092 169.898 120.725 170.198 120.425C170.498 120.125 170.865 119.975 171.298 119.975C171.715 119.975 172.065 120.125 172.348 120.425C172.648 120.725 172.798 121.092 172.798 121.525C172.798 121.958 172.648 122.325 172.348 122.625C172.065 122.925 171.715 123.075 171.298 123.075ZM172.398 125.3V139H170.123V125.3H172.398ZM178.551 127.85C179.017 127.033 179.701 126.367 180.601 125.85C181.501 125.333 182.526 125.075 183.676 125.075C184.909 125.075 186.017 125.367 187.001 125.95C187.984 126.533 188.759 127.358 189.326 128.425C189.892 129.475 190.176 130.7 190.176 132.1C190.176 133.483 189.892 134.717 189.326 135.8C188.759 136.883 187.976 137.725 186.976 138.325C185.992 138.925 184.892 139.225 183.676 139.225C182.492 139.225 181.451 138.967 180.551 138.45C179.667 137.933 179.001 137.275 178.551 136.475V139H176.276V120.5H178.551V127.85ZM187.851 132.1C187.851 131.067 187.642 130.167 187.226 129.4C186.809 128.633 186.242 128.05 185.526 127.65C184.826 127.25 184.051 127.05 183.201 127.05C182.367 127.05 181.592 127.258 180.876 127.675C180.176 128.075 179.609 128.667 179.176 129.45C178.759 130.217 178.551 131.108 178.551 132.125C178.551 133.158 178.759 134.067 179.176 134.85C179.609 135.617 180.176 136.208 180.876 136.625C181.592 137.025 182.367 137.225 183.201 137.225C184.051 137.225 184.826 137.025 185.526 136.625C186.242 136.208 186.809 135.617 187.226 134.85C187.642 134.067 187.851 133.15 187.851 132.1ZM195.445 120.5V139H193.17V120.5H195.445ZM211.822 131.625C211.822 132.058 211.797 132.517 211.747 133H200.797C200.881 134.35 201.339 135.408 202.172 136.175C203.022 136.925 204.047 137.3 205.247 137.3C206.231 137.3 207.047 137.075 207.697 136.625C208.364 136.158 208.831 135.542 209.097 134.775H211.547C211.181 136.092 210.447 137.167 209.347 138C208.247 138.817 206.881 139.225 205.247 139.225C203.947 139.225 202.781 138.933 201.747 138.35C200.731 137.767 199.931 136.942 199.347 135.875C198.764 134.792 198.472 133.542 198.472 132.125C198.472 130.708 198.756 129.467 199.322 128.4C199.889 127.333 200.681 126.517 201.697 125.95C202.731 125.367 203.914 125.075 205.247 125.075C206.547 125.075 207.697 125.358 208.697 125.925C209.697 126.492 210.464 127.275 210.997 128.275C211.547 129.258 211.822 130.375 211.822 131.625ZM209.472 131.15C209.472 130.283 209.281 129.542 208.897 128.925C208.514 128.292 207.989 127.817 207.322 127.5C206.672 127.167 205.947 127 205.147 127C203.997 127 203.014 127.367 202.197 128.1C201.397 128.833 200.939 129.85 200.822 131.15H209.472ZM223.715 121.575V132.6C223.715 134.15 224.09 135.3 224.84 136.05C225.607 136.8 226.665 137.175 228.015 137.175C229.349 137.175 230.39 136.8 231.14 136.05C231.907 135.3 232.29 134.15 232.29 132.6V121.575H234.565V132.575C234.565 134.025 234.274 135.25 233.69 136.25C233.107 137.233 232.315 137.967 231.315 138.45C230.332 138.933 229.224 139.175 227.99 139.175C226.757 139.175 225.64 138.933 224.64 138.45C223.657 137.967 222.874 137.233 222.29 136.25C221.724 135.25 221.44 134.025 221.44 132.575V121.575H223.715ZM243.211 139.225C242.161 139.225 241.219 139.05 240.386 138.7C239.552 138.333 238.894 137.833 238.411 137.2C237.927 136.55 237.661 135.808 237.611 134.975H239.961C240.027 135.658 240.344 136.217 240.911 136.65C241.494 137.083 242.252 137.3 243.186 137.3C244.052 137.3 244.736 137.108 245.236 136.725C245.736 136.342 245.986 135.858 245.986 135.275C245.986 134.675 245.719 134.233 245.186 133.95C244.652 133.65 243.827 133.358 242.711 133.075C241.694 132.808 240.861 132.542 240.211 132.275C239.577 131.992 239.027 131.583 238.561 131.05C238.111 130.5 237.886 129.783 237.886 128.9C237.886 128.2 238.094 127.558 238.511 126.975C238.927 126.392 239.519 125.933 240.286 125.6C241.052 125.25 241.927 125.075 242.911 125.075C244.427 125.075 245.652 125.458 246.586 126.225C247.519 126.992 248.019 128.042 248.086 129.375H245.811C245.761 128.658 245.469 128.083 244.936 127.65C244.419 127.217 243.719 127 242.836 127C242.019 127 241.369 127.175 240.886 127.525C240.402 127.875 240.161 128.333 240.161 128.9C240.161 129.35 240.302 129.725 240.586 130.025C240.886 130.308 241.252 130.542 241.686 130.725C242.136 130.892 242.752 131.083 243.536 131.3C244.519 131.567 245.319 131.833 245.936 132.1C246.552 132.35 247.077 132.733 247.511 133.25C247.961 133.767 248.194 134.442 248.211 135.275C248.211 136.025 248.002 136.7 247.586 137.3C247.169 137.9 246.577 138.375 245.811 138.725C245.061 139.058 244.194 139.225 243.211 139.225ZM263.922 131.625C263.922 132.058 263.897 132.517 263.847 133H252.897C252.98 134.35 253.439 135.408 254.272 136.175C255.122 136.925 256.147 137.3 257.347 137.3C258.33 137.3 259.147 137.075 259.797 136.625C260.464 136.158 260.93 135.542 261.197 134.775H263.647C263.28 136.092 262.547 137.167 261.447 138C260.347 138.817 258.98 139.225 257.347 139.225C256.047 139.225 254.88 138.933 253.847 138.35C252.83 137.767 252.03 136.942 251.447 135.875C250.864 134.792 250.572 133.542 250.572 132.125C250.572 130.708 250.855 129.467 251.422 128.4C251.989 127.333 252.78 126.517 253.797 125.95C254.83 125.367 256.014 125.075 257.347 125.075C258.647 125.075 259.797 125.358 260.797 125.925C261.797 126.492 262.564 127.275 263.097 128.275C263.647 129.258 263.922 130.375 263.922 131.625ZM261.572 131.15C261.572 130.283 261.38 129.542 260.997 128.925C260.614 128.292 260.089 127.817 259.422 127.5C258.772 127.167 258.047 127 257.247 127C256.097 127 255.114 127.367 254.297 128.1C253.497 128.833 253.039 129.85 252.922 131.15H261.572Z" fill="#0B4870"/>
</svg>
