<svg width="210" height="121" viewBox="0 0 210 121" fill="none" xmlns="http://www.w3.org/2000/svg">
<path d="M0 121H210V0H111.464V19.7385H0V121Z" fill="#6FACB6"/>
<path d="M203.204 113.117V27.0017V5.31421H116.214V15.7083V26.571H60.8252H5.43689L5.43689 69.8438V113.117H103.641H128.447H153.252H203.204Z" fill="#89D2DE"/>
<path d="M5.43688 26.5711L0 19.7385H111.456L116.214 26.5711H5.43688Z" fill="#C6E9F1"/>
<path d="M116.214 5.3142L111.456 0H210L203.204 5.3142H116.214Z" fill="#C6E9F1"/>
<path d="M39.2571 105.509L36.1771 100.069H34.8571V105.509H32.0571V91.5488H37.2971C38.3771 91.5488 39.2971 91.7421 40.0571 92.1288C40.8171 92.5021 41.3838 93.0155 41.7571 93.6688C42.1438 94.3088 42.3371 95.0288 42.3371 95.8288C42.3371 96.7488 42.0704 97.5821 41.5371 98.3288C41.0038 99.0621 40.2104 99.5688 39.1571 99.8488L42.4971 105.509H39.2571ZM34.8571 97.9688H37.1971C37.9571 97.9688 38.5238 97.7888 38.8971 97.4288C39.2704 97.0555 39.4571 96.5421 39.4571 95.8888C39.4571 95.2488 39.2704 94.7555 38.8971 94.4088C38.5238 94.0488 37.9571 93.8688 37.1971 93.8688H34.8571V97.9688ZM55.1696 99.7288C55.1696 100.129 55.1429 100.489 55.0896 100.809H46.9896C47.0563 101.609 47.3363 102.235 47.8296 102.689C48.3229 103.142 48.9296 103.369 49.6496 103.369C50.6896 103.369 51.4296 102.922 51.8696 102.029H54.8896C54.5696 103.095 53.9563 103.975 53.0496 104.669C52.1429 105.349 51.0296 105.689 49.7096 105.689C48.6429 105.689 47.6829 105.455 46.8296 104.989C45.9896 104.509 45.3296 103.835 44.8496 102.969C44.3829 102.102 44.1496 101.102 44.1496 99.9688C44.1496 98.8221 44.3829 97.8155 44.8496 96.9488C45.3163 96.0821 45.9696 95.4155 46.8096 94.9488C47.6496 94.4821 48.6163 94.2488 49.7096 94.2488C50.7629 94.2488 51.7029 94.4755 52.5296 94.9288C53.3696 95.3821 54.0163 96.0288 54.4696 96.8688C54.9363 97.6955 55.1696 98.6488 55.1696 99.7288ZM52.2696 98.9288C52.2563 98.2088 51.9963 97.6355 51.4896 97.2088C50.9829 96.7688 50.3629 96.5488 49.6296 96.5488C48.9363 96.5488 48.3496 96.7621 47.8696 97.1888C47.4029 97.6021 47.1163 98.1821 47.0096 98.9288H52.2696ZM61.4534 105.689C60.5467 105.689 59.7334 105.529 59.0134 105.209C58.2934 104.875 57.72 104.429 57.2934 103.869C56.88 103.309 56.6534 102.689 56.6134 102.009H59.4334C59.4867 102.435 59.6934 102.789 60.0534 103.069C60.4267 103.349 60.8867 103.489 61.4334 103.489C61.9667 103.489 62.38 103.382 62.6734 103.169C62.98 102.955 63.1334 102.682 63.1334 102.349C63.1334 101.989 62.9467 101.722 62.5734 101.549C62.2134 101.362 61.6334 101.162 60.8334 100.949C60.0067 100.749 59.3267 100.542 58.7934 100.329C58.2734 100.115 57.82 99.7888 57.4334 99.3488C57.06 98.9088 56.8734 98.3155 56.8734 97.5688C56.8734 96.9555 57.0467 96.3955 57.3934 95.8888C57.7534 95.3821 58.26 94.9821 58.9134 94.6888C59.58 94.3955 60.36 94.2488 61.2534 94.2488C62.5734 94.2488 63.6267 94.5821 64.4134 95.2488C65.2 95.9021 65.6334 96.7888 65.7134 97.9088H63.0334C62.9934 97.4688 62.8067 97.1221 62.4734 96.8688C62.1534 96.6021 61.72 96.4688 61.1734 96.4688C60.6667 96.4688 60.2734 96.5621 59.9934 96.7488C59.7267 96.9355 59.5934 97.1955 59.5934 97.5288C59.5934 97.9021 59.78 98.1888 60.1534 98.3888C60.5267 98.5755 61.1067 98.7688 61.8934 98.9688C62.6934 99.1688 63.3534 99.3755 63.8734 99.5888C64.3934 99.8021 64.84 100.135 65.2134 100.589C65.6 101.029 65.8 101.615 65.8134 102.349C65.8134 102.989 65.6334 103.562 65.2734 104.069C64.9267 104.575 64.42 104.975 63.7534 105.269C63.1 105.549 62.3334 105.689 61.4534 105.689ZM70.9118 96.0288C71.2718 95.5221 71.7651 95.1021 72.3918 94.7688C73.0318 94.4221 73.7585 94.2488 74.5718 94.2488C75.5185 94.2488 76.3718 94.4821 77.1318 94.9488C77.9051 95.4155 78.5118 96.0821 78.9518 96.9488C79.4051 97.8021 79.6318 98.7955 79.6318 99.9288C79.6318 101.062 79.4051 102.069 78.9518 102.949C78.5118 103.815 77.9051 104.489 77.1318 104.969C76.3718 105.449 75.5185 105.689 74.5718 105.689C73.7585 105.689 73.0385 105.522 72.4118 105.189C71.7985 104.855 71.2985 104.435 70.9118 103.929V110.789H68.1118V94.4288H70.9118V96.0288ZM76.7718 99.9288C76.7718 99.2621 76.6318 98.6888 76.3518 98.2088C76.0851 97.7155 75.7251 97.3421 75.2718 97.0888C74.8318 96.8355 74.3518 96.7088 73.8318 96.7088C73.3251 96.7088 72.8451 96.8421 72.3918 97.1088C71.9518 97.3621 71.5918 97.7355 71.3118 98.2288C71.0451 98.7221 70.9118 99.3021 70.9118 99.9688C70.9118 100.635 71.0451 101.215 71.3118 101.709C71.5918 102.202 71.9518 102.582 72.3918 102.849C72.8451 103.102 73.3251 103.229 73.8318 103.229C74.3518 103.229 74.8318 103.095 75.2718 102.829C75.7251 102.562 76.0851 102.182 76.3518 101.689C76.6318 101.195 76.7718 100.609 76.7718 99.9288ZM86.5865 105.689C85.5198 105.689 84.5598 105.455 83.7065 104.989C82.8532 104.509 82.1798 103.835 81.6865 102.969C81.2065 102.102 80.9665 101.102 80.9665 99.9688C80.9665 98.8355 81.2132 97.8355 81.7065 96.9688C82.2132 96.1021 82.8998 95.4355 83.7665 94.9688C84.6332 94.4888 85.5998 94.2488 86.6665 94.2488C87.7332 94.2488 88.6998 94.4888 89.5665 94.9688C90.4332 95.4355 91.1132 96.1021 91.6065 96.9688C92.1132 97.8355 92.3665 98.8355 92.3665 99.9688C92.3665 101.102 92.1065 102.102 91.5865 102.969C91.0798 103.835 90.3865 104.509 89.5065 104.989C88.6398 105.455 87.6665 105.689 86.5865 105.689ZM86.5865 103.249C87.0932 103.249 87.5665 103.129 88.0065 102.889C88.4598 102.635 88.8198 102.262 89.0865 101.769C89.3532 101.275 89.4865 100.675 89.4865 99.9688C89.4865 98.9155 89.2065 98.1088 88.6465 97.5488C88.0998 96.9755 87.4265 96.6888 86.6265 96.6888C85.8265 96.6888 85.1532 96.9755 84.6065 97.5488C84.0732 98.1088 83.8065 98.9155 83.8065 99.9688C83.8065 101.022 84.0665 101.835 84.5865 102.409C85.1198 102.969 85.7865 103.249 86.5865 103.249ZM100.56 94.2688C101.88 94.2688 102.947 94.6888 103.76 95.5288C104.574 96.3555 104.98 97.5155 104.98 99.0088V105.509H102.18V99.3888C102.18 98.5088 101.96 97.8355 101.52 97.3688C101.08 96.8888 100.48 96.6488 99.7204 96.6488C98.9471 96.6488 98.3337 96.8888 97.8804 97.3688C97.4404 97.8355 97.2204 98.5088 97.2204 99.3888V105.509H94.4204V94.4288H97.2204V95.8088C97.5937 95.3288 98.0671 94.9555 98.6404 94.6888C99.2271 94.4088 99.8671 94.2688 100.56 94.2688ZM111.883 105.689C110.976 105.689 110.163 105.529 109.443 105.209C108.723 104.875 108.15 104.429 107.723 103.869C107.31 103.309 107.083 102.689 107.043 102.009H109.863C109.916 102.435 110.123 102.789 110.483 103.069C110.856 103.349 111.316 103.489 111.863 103.489C112.396 103.489 112.81 103.382 113.103 103.169C113.41 102.955 113.563 102.682 113.563 102.349C113.563 101.989 113.376 101.722 113.003 101.549C112.643 101.362 112.063 101.162 111.263 100.949C110.436 100.749 109.756 100.542 109.223 100.329C108.703 100.115 108.25 99.7888 107.863 99.3488C107.49 98.9088 107.303 98.3155 107.303 97.5688C107.303 96.9555 107.476 96.3955 107.823 95.8888C108.183 95.3821 108.69 94.9821 109.343 94.6888C110.01 94.3955 110.79 94.2488 111.683 94.2488C113.003 94.2488 114.056 94.5821 114.843 95.2488C115.63 95.9021 116.063 96.7888 116.143 97.9088H113.463C113.423 97.4688 113.236 97.1221 112.903 96.8688C112.583 96.6021 112.15 96.4688 111.603 96.4688C111.096 96.4688 110.703 96.5621 110.423 96.7488C110.156 96.9355 110.023 97.1955 110.023 97.5288C110.023 97.9021 110.21 98.1888 110.583 98.3888C110.956 98.5755 111.536 98.7688 112.323 98.9688C113.123 99.1688 113.783 99.3755 114.303 99.5888C114.823 99.8021 115.27 100.135 115.643 100.589C116.03 101.029 116.23 101.615 116.243 102.349C116.243 102.989 116.063 103.562 115.703 104.069C115.356 104.575 114.85 104.975 114.183 105.269C113.53 105.549 112.763 105.689 111.883 105.689ZM119.961 93.1088C119.468 93.1088 119.055 92.9555 118.721 92.6488C118.401 92.3288 118.241 91.9355 118.241 91.4688C118.241 91.0021 118.401 90.6155 118.721 90.3088C119.055 89.9888 119.468 89.8288 119.961 89.8288C120.455 89.8288 120.861 89.9888 121.181 90.3088C121.515 90.6155 121.681 91.0021 121.681 91.4688C121.681 91.9355 121.515 92.3288 121.181 92.6488C120.861 92.9555 120.455 93.1088 119.961 93.1088ZM121.341 94.4288V105.509H118.541V94.4288H121.341ZM126.908 96.0488C127.268 95.5155 127.761 95.0821 128.388 94.7488C129.028 94.4155 129.755 94.2488 130.568 94.2488C131.515 94.2488 132.368 94.4821 133.128 94.9488C133.901 95.4155 134.508 96.0821 134.948 96.9488C135.401 97.8021 135.628 98.7955 135.628 99.9288C135.628 101.062 135.401 102.069 134.948 102.949C134.508 103.815 133.901 104.489 133.128 104.969C132.368 105.449 131.515 105.689 130.568 105.689C129.741 105.689 129.015 105.529 128.388 105.209C127.775 104.875 127.281 104.449 126.908 103.929V105.509H124.108V90.7088H126.908V96.0488ZM132.768 99.9288C132.768 99.2621 132.628 98.6888 132.348 98.2088C132.081 97.7155 131.721 97.3421 131.268 97.0888C130.828 96.8355 130.348 96.7088 129.828 96.7088C129.321 96.7088 128.841 96.8421 128.388 97.1088C127.948 97.3621 127.588 97.7355 127.308 98.2288C127.041 98.7221 126.908 99.3021 126.908 99.9688C126.908 100.635 127.041 101.215 127.308 101.709C127.588 102.202 127.948 102.582 128.388 102.849C128.841 103.102 129.321 103.229 129.828 103.229C130.348 103.229 130.828 103.095 131.268 102.829C131.721 102.562 132.081 102.182 132.348 101.689C132.628 101.195 132.768 100.609 132.768 99.9288ZM140.463 90.7088V105.509H137.663V90.7088H140.463ZM153.529 99.7288C153.529 100.129 153.502 100.489 153.449 100.809H145.349C145.416 101.609 145.696 102.235 146.189 102.689C146.682 103.142 147.289 103.369 148.009 103.369C149.049 103.369 149.789 102.922 150.229 102.029H153.249C152.929 103.095 152.316 103.975 151.409 104.669C150.502 105.349 149.389 105.689 148.069 105.689C147.002 105.689 146.042 105.455 145.189 104.989C144.349 104.509 143.689 103.835 143.209 102.969C142.742 102.102 142.509 101.102 142.509 99.9688C142.509 98.8221 142.742 97.8155 143.209 96.9488C143.676 96.0821 144.329 95.4155 145.169 94.9488C146.009 94.4821 146.976 94.2488 148.069 94.2488C149.122 94.2488 150.062 94.4755 150.889 94.9288C151.729 95.3821 152.376 96.0288 152.829 96.8688C153.296 97.6955 153.529 98.6488 153.529 99.7288ZM150.629 98.9288C150.616 98.2088 150.356 97.6355 149.849 97.2088C149.342 96.7688 148.722 96.5488 147.989 96.5488C147.296 96.5488 146.709 96.7621 146.229 97.1888C145.762 97.6021 145.476 98.1821 145.369 98.9288H150.629ZM163.098 91.5488V100.189C163.098 101.135 163.345 101.862 163.838 102.369C164.332 102.862 165.025 103.109 165.918 103.109C166.825 103.109 167.525 102.862 168.018 102.369C168.512 101.862 168.758 101.135 168.758 100.189V91.5488H171.578V100.169C171.578 101.355 171.318 102.362 170.798 103.189C170.292 104.002 169.605 104.615 168.738 105.029C167.885 105.442 166.932 105.649 165.878 105.649C164.838 105.649 163.892 105.442 163.038 105.029C162.198 104.615 161.532 104.002 161.038 103.189C160.545 102.362 160.298 101.355 160.298 100.169V91.5488H163.098ZM178.524 105.689C177.617 105.689 176.804 105.529 176.084 105.209C175.364 104.875 174.79 104.429 174.364 103.869C173.95 103.309 173.724 102.689 173.684 102.009H176.504C176.557 102.435 176.764 102.789 177.124 103.069C177.497 103.349 177.957 103.489 178.504 103.489C179.037 103.489 179.45 103.382 179.744 103.169C180.05 102.955 180.204 102.682 180.204 102.349C180.204 101.989 180.017 101.722 179.644 101.549C179.284 101.362 178.704 101.162 177.904 100.949C177.077 100.749 176.397 100.542 175.864 100.329C175.344 100.115 174.89 99.7888 174.504 99.3488C174.13 98.9088 173.944 98.3155 173.944 97.5688C173.944 96.9555 174.117 96.3955 174.464 95.8888C174.824 95.3821 175.33 94.9821 175.984 94.6888C176.65 94.3955 177.43 94.2488 178.324 94.2488C179.644 94.2488 180.697 94.5821 181.484 95.2488C182.27 95.9021 182.704 96.7888 182.784 97.9088H180.104C180.064 97.4688 179.877 97.1221 179.544 96.8688C179.224 96.6021 178.79 96.4688 178.244 96.4688C177.737 96.4688 177.344 96.5621 177.064 96.7488C176.797 96.9355 176.664 97.1955 176.664 97.5288C176.664 97.9021 176.85 98.1888 177.224 98.3888C177.597 98.5755 178.177 98.7688 178.964 98.9688C179.764 99.1688 180.424 99.3755 180.944 99.5888C181.464 99.8021 181.91 100.135 182.284 100.589C182.67 101.029 182.87 101.615 182.884 102.349C182.884 102.989 182.704 103.562 182.344 104.069C181.997 104.575 181.49 104.975 180.824 105.269C180.17 105.549 179.404 105.689 178.524 105.689ZM195.482 99.7288C195.482 100.129 195.455 100.489 195.402 100.809H187.302C187.369 101.609 187.649 102.235 188.142 102.689C188.635 103.142 189.242 103.369 189.962 103.369C191.002 103.369 191.742 102.922 192.182 102.029H195.202C194.882 103.095 194.269 103.975 193.362 104.669C192.455 105.349 191.342 105.689 190.022 105.689C188.955 105.689 187.995 105.455 187.142 104.989C186.302 104.509 185.642 103.835 185.162 102.969C184.695 102.102 184.462 101.102 184.462 99.9688C184.462 98.8221 184.695 97.8155 185.162 96.9488C185.629 96.0821 186.282 95.4155 187.122 94.9488C187.962 94.4821 188.929 94.2488 190.022 94.2488C191.075 94.2488 192.015 94.4755 192.842 94.9288C193.682 95.3821 194.329 96.0288 194.782 96.8688C195.249 97.6955 195.482 98.6488 195.482 99.7288ZM192.582 98.9288C192.569 98.2088 192.309 97.6355 191.802 97.2088C191.295 96.7688 190.675 96.5488 189.942 96.5488C189.249 96.5488 188.662 96.7621 188.182 97.1888C187.715 97.6021 187.429 98.1821 187.322 98.9288H192.582Z" fill="#788995"/>
<ellipse cx="160.225" cy="43.2915" rx="24.1816" ry="25.1767" fill="#EE9D3D"/>
<path d="M172.413 28.1308C171.876 27.8197 171.285 27.6218 170.675 27.5485C170.064 27.4752 169.446 27.528 168.855 27.7038C168.264 27.8795 167.712 28.1749 167.23 28.5729C166.749 28.9709 166.348 29.4638 166.05 30.0233L157.364 46.2985L152.392 41.1227C151.961 40.6574 151.444 40.2863 150.874 40.031C150.303 39.7757 149.689 39.6413 149.068 39.6357C148.446 39.6301 147.83 39.7533 147.255 39.9983C146.68 40.2432 146.158 40.6049 145.718 41.0623C145.279 41.5197 144.932 42.0636 144.696 42.6623C144.461 43.2609 144.343 43.9024 144.348 44.5492C144.354 45.196 144.483 45.8352 144.728 46.4296C144.973 47.0239 145.33 47.5614 145.776 48.0108L155.134 57.7535C156.018 58.6766 157.212 59.1832 158.442 59.1832L159.09 59.1345C159.807 59.0301 160.491 58.7537 161.088 58.3273C161.686 57.9008 162.18 57.3359 162.531 56.6769L174.228 34.7558C174.527 34.1967 174.717 33.5819 174.787 32.9463C174.858 32.3108 174.807 31.6671 174.639 31.0519C174.47 30.4367 174.187 29.8621 173.805 29.3609C173.423 28.8597 172.95 28.4417 172.413 28.1308Z" fill="#FFE3CA"/>
</svg>
