<svg width="461" height="414" viewBox="0 0 461 414" fill="none" xmlns="http://www.w3.org/2000/svg">
<path opacity="0.09" d="M41.3389 370.872C41.3389 263.069 128.729 175.679 236.532 175.679C344.336 175.679 431.726 263.069 431.726 370.872" fill="#2A94F4"/>
<path d="M327.082 310.752C325.845 310.752 324.631 310.823 323.433 310.957C321.132 305.432 317.821 300.443 313.731 296.195C313.794 295.383 313.833 294.564 313.833 293.728C313.833 275.443 299.016 260.626 280.731 260.626C262.454 260.626 247.629 275.443 247.629 293.728C242.175 298.607 237.856 304.731 235.097 311.651C230.077 312.841 225.49 315.166 221.643 318.358C221.517 318.185 221.399 318.011 221.281 317.846C225.364 312.336 227.783 305.527 227.783 298.142C227.783 279.857 212.966 265.039 194.681 265.039C176.396 265.039 161.578 279.857 161.578 298.142C161.578 301.09 161.965 303.943 162.69 306.662C160.648 306.268 158.544 306.055 156.392 306.055C138.107 306.055 123.29 320.872 123.29 339.157C123.29 357.442 138.107 372.26 156.392 372.26C164.037 372.26 171.068 369.667 176.672 365.316C181.858 368.689 188.037 370.652 194.689 370.652C202.712 370.652 210.073 367.791 215.803 363.046C221.785 371.464 231.621 376.957 242.75 376.957C248.779 376.957 254.431 375.333 259.301 372.52C265.409 375.365 272.211 376.957 279.399 376.957C289.101 376.957 298.126 374.049 305.652 369.075C311.43 373.986 318.909 376.957 327.082 376.957C345.367 376.957 360.185 362.14 360.185 343.855C360.185 325.57 345.367 310.752 327.082 310.752Z" fill="#F2F2F2"/>
<path d="M301.018 371.156H280.439V147.605H301.018V371.156ZM281.842 369.753H299.607V149.016H281.842V369.753Z" fill="#2A94F4"/>
<path d="M299.877 359.567L280.704 369.674L281.535 371.249L300.708 361.143L299.877 359.567Z" fill="#2A94F4"/>
<path d="M299.877 325.401L280.704 335.508L281.535 337.084L300.708 326.977L299.877 325.401Z" fill="#2A94F4"/>
<path d="M299.877 291.236L280.704 301.342L281.535 302.918L300.708 292.811L299.877 291.236Z" fill="#2A94F4"/>
<path d="M299.904 257.091L280.733 267.204L281.565 268.779L300.735 258.666L299.904 257.091Z" fill="#2A94F4"/>
<path d="M299.906 222.934L280.735 233.048L281.566 234.623L300.737 224.51L299.906 222.934Z" fill="#2A94F4"/>
<path d="M299.892 188.709L280.721 198.82L281.552 200.396L300.722 190.285L299.892 188.709Z" fill="#2A94F4"/>
<path d="M299.889 154.544L280.718 164.655L281.549 166.231L300.719 156.12L299.889 154.544Z" fill="#2A94F4"/>
<path d="M190.891 371.156H170.312V147.605H190.891V371.156ZM171.715 369.753H189.48V149.016H171.715V369.753Z" fill="#2A94F4"/>
<path d="M189.757 359.562L170.584 369.668L171.415 371.244L190.587 361.137L189.757 359.562Z" fill="#2A94F4"/>
<path d="M189.757 325.396L170.584 335.502L171.415 337.078L190.588 326.972L189.757 325.396Z" fill="#2A94F4"/>
<path d="M189.757 291.23L170.584 301.337L171.415 302.912L190.588 292.806L189.757 291.23Z" fill="#2A94F4"/>
<path d="M189.778 257.086L170.607 267.199L171.439 268.774L190.609 258.661L189.778 257.086Z" fill="#2A94F4"/>
<path d="M189.781 222.928L170.61 233.042L171.441 234.617L190.612 224.504L189.781 222.928Z" fill="#2A94F4"/>
<path d="M189.773 188.709L170.603 198.82L171.433 200.396L190.604 190.285L189.773 188.709Z" fill="#2A94F4"/>
<path d="M189.77 154.545L170.6 164.656L171.431 166.231L190.601 156.12L189.77 154.545Z" fill="#2A94F4"/>
<path d="M438.606 414H21.6742C9.70214 414 0 404.298 0 392.326C0 380.354 9.70214 370.652 21.6742 370.652H438.606C450.578 370.652 460.28 380.354 460.28 392.326C460.28 404.298 450.578 414 438.606 414Z" fill="#F2F2F2"/>
<path d="M109.245 223.583C109.237 223.583 109.237 223.583 109.229 223.583C109.292 223.606 109.3 223.614 109.245 223.583Z" fill="#0B4870"/>
<path d="M70.8159 360.658L70.8316 365.442C70.8316 366.419 70.7055 367.389 70.4376 368.327L70.0198 369.8C69.6809 371.014 70.5873 372.212 71.8484 372.212C75.1113 372.204 80.6836 372.212 82.118 372.212C82.3544 372.212 82.583 372.054 82.6067 371.818C82.7249 370.423 78.6895 369.485 75.6473 368.311C73.3301 367.412 73.4562 363.251 73.7399 360.815C73.8503 359.893 73.0779 359.113 72.1636 359.192C71.3991 359.255 70.8159 359.893 70.8159 360.658Z" fill="#FCD2B1"/>
<path d="M48.4085 359.318L46.7613 364.796C46.6903 365.04 46.58 365.269 46.4381 365.474L45.2717 367.208C44.5308 368.311 45.0668 369.816 46.3357 370.203C46.3357 370.203 48.6922 371.03 51.1276 371.834C53.6182 372.654 56.7472 371.968 56.7472 371.314C56.7472 369.856 55.3837 371.014 53.1059 369.485C52.3414 368.973 51.5532 368.437 50.8518 367.885C48.8893 366.348 50.5996 362.447 51.8055 360.256C52.2389 359.468 51.7818 358.491 50.8991 358.301L50.3316 358.183C49.4804 358.01 48.6529 358.498 48.4085 359.318Z" fill="#FCD2B1"/>
<path d="M65.2598 295.249L83.3321 293.736C83.3321 293.736 85.1527 306.89 80.5814 330.7C78.4376 341.868 73.9767 363.204 73.9767 363.204C72.8733 363.684 71.7462 363.811 70.6034 363.527C70.6034 363.527 70.2645 354.116 70.0596 343.981C69.8626 334.263 69.8074 323.875 69.1848 320.47C67.9158 313.527 65.2598 295.249 65.2598 295.249Z" fill="#0B4870"/>
<path d="M68.9866 295.478C70.8545 305.495 75.0238 320.47 66.9926 334.531C58.9613 348.599 50.5281 363.219 50.5281 363.219C49.4404 363.267 48.4553 362.873 47.541 362.171C47.541 362.171 48.9518 355.795 50.9852 348.347C53.3103 339.827 56.2658 329.81 55.4225 324.584C53.8462 314.795 52.0414 301.752 52.5852 295.423C53.1369 289.102 68.0093 290.213 68.9866 295.478Z" fill="#0B4870"/>
<path d="M82.5508 260.05L96.7927 267.877L111.098 245.367L93.7977 239.361L82.5508 260.05Z" fill="#0B4870"/>
<path d="M83.457 259.372L96.7768 266.694L110.152 245.643L93.971 240.023L83.457 259.372Z" fill="#D3D3D3"/>
<path d="M78.5791 255.432C78.5791 255.432 81.0618 254.25 82.1494 253.627C83.2371 253.004 86.035 252.153 86.2636 251.956C86.4921 251.751 94.5628 251.255 95.0514 250.837C95.5401 250.411 96.013 251.83 93.9244 252.287C91.8358 252.744 88.9196 253.863 88.762 254.683C88.6044 255.503 90.9137 255.692 91.1422 256.37C91.3787 257.04 91.0792 256.89 90.7481 257.04C90.4171 257.182 88.0054 255.85 86.9414 256.228C85.8774 256.606 84.2538 256.078 83.442 256.362C82.6302 256.638 78.6737 257.97 78.6737 257.97L78.5791 255.432Z" fill="#FCD2B1"/>
<path d="M83.0548 257.182L84.3316 256.709C84.3316 256.709 82.7396 252.973 82.046 253.059C81.2421 253.162 80.249 253.43 80.249 253.43L83.0548 257.182Z" fill="#D3D3D3"/>
<path d="M83.3469 257.828C83.1814 257.71 80.6356 252.815 80.6356 252.815L75.1816 253.556L78.1293 259.357L83.3469 257.828Z" fill="#FCD2B1"/>
<path d="M97.4943 265.055C97.4943 265.055 99.575 263.179 100.584 262.399C101.593 261.619 103.484 259.31 103.76 259.176C104.036 259.042 107.654 251.625 108.237 251.334C108.828 251.034 107.677 250.041 106.432 251.83C105.187 253.627 102.996 255.928 102.16 255.763C101.325 255.597 102.042 253.343 101.498 252.863C100.954 252.382 100.978 252.721 100.718 252.973C100.45 253.233 100.773 256.023 100.001 256.874C99.2282 257.725 99.0942 259.459 98.511 260.121C97.9356 260.783 95.1377 263.991 95.1377 263.991L97.4943 265.055Z" fill="#FCD2B1"/>
<path d="M64.2906 218.799C64.2906 218.799 70.5406 216.466 73.4252 221.226C76.3098 225.986 76.0261 235.507 72.8814 236.674C69.7288 237.848 64.9999 237.233 63.3842 234.254C61.7685 231.275 60.3183 226.972 60.3892 224.103C60.4523 221.218 62.6433 219.626 64.2906 218.799Z" fill="#FCD2B1"/>
<path d="M72.195 236.887C72.195 236.887 71.6906 241.371 72.1241 242.207C72.5576 243.034 64.3214 242.207 64.3214 242.207C64.3214 242.207 63.5806 235.736 62.2644 231.921C60.9481 228.099 72.195 236.887 72.195 236.887Z" fill="#FCD2B1"/>
<path d="M62.2643 231.921C62.2643 231.921 62.5638 236.737 64.9677 236.359C67.3715 235.98 70.5871 228.942 71.5881 228.595C72.589 228.241 72.5969 227.657 72.5969 227.657L73.2275 228.572L74.2915 228.643C74.2915 228.643 73.322 225.782 74.788 224.615C76.254 223.449 73.2669 215.362 65.5667 218.058C65.5667 218.058 59.6476 219.689 59.8683 223.055C60.0732 226.412 60.9402 230.242 62.2643 231.921Z" fill="#0B4870"/>
<path d="M73.0936 243.208C73.0936 243.208 73.07 241.624 72.3449 241.466C71.6277 241.316 64.4003 240.623 63.5176 240.969V242.822C63.5176 242.822 65.22 243.862 73.0936 243.208Z" fill="#D3D3D3"/>
<path d="M72.4385 226.428C72.3045 225.86 70.87 224.253 70.3183 225.979C69.7666 227.705 71.1459 230.03 71.9183 229.825C72.6907 229.628 72.7852 227.855 72.4385 226.428Z" fill="#FCD2B1"/>
<path d="M51.4902 302.508C51.4902 302.508 55.3206 303.635 61.8544 304.36C68.3881 305.077 84.7186 304.1 84.8211 303.328C84.9235 302.555 81.3059 274.576 81.5108 273.134C81.7158 271.691 81.8261 266.56 81.8261 266.56C81.9049 267.971 83.3394 273.717 85.0733 276.846C85.6959 277.981 87.7924 281.527 88.8091 280.716C93.7035 276.814 101.278 262.092 101.758 261.966C101.356 261.792 98.1645 260.326 97.7231 260.176C97.329 260.042 93.806 263.778 91.6622 266.095C90.7086 267.128 90.0308 267.877 90.0308 267.877C89.416 266.49 87.1619 257.733 86.4683 254.707C84.892 247.873 85.1363 247.59 85.1363 247.59C80.3522 246.139 73.1013 243.2 73.1013 243.2L63.5252 242.813C63.5252 242.813 54.7373 244.744 51.2774 246.313C50.9463 246.463 50.9463 254.155 50.0479 256.173L52.9167 262.226C52.9167 262.226 54.5718 274.221 54.9186 279.549C55.0684 282 51.4902 302.508 51.4902 302.508Z" fill="#E6C48E"/>
<path d="M49.637 266.159C49.8892 266.963 51.0242 267.648 51.7571 267.948C52.23 268.137 52.7581 268.2 53.294 268.105L53.6723 268.034L60.2376 266.813C60.2376 266.813 61.672 250.277 51.2764 246.313C50.9926 246.408 47.3435 258.758 49.637 266.159Z" fill="#E5C48E"/>
<path d="M62.508 219.358C62.508 219.358 54.6423 220.154 62.3661 232.095L62.508 219.358Z" fill="#0B4870"/>
<path d="M104.516 244.161L105.344 242.727L98.7865 240.465L97.959 241.891L104.516 244.161Z" fill="#0B4870"/>
<path opacity="0.09" d="M101.419 160.412H148.716C148.716 160.412 152.744 151.246 140.937 149.631C129.131 148.023 143.617 141.245 131.275 140.173C118.932 139.101 128.335 150.434 115.716 148.827C103.106 147.219 95.8865 152.854 99.7642 153.39C103.634 153.926 68.0726 160.412 101.419 160.412Z" fill="#2A94F4"/>
<path opacity="0.09" d="M167.963 120.012H215.252C215.252 120.012 219.279 110.846 207.473 109.23C195.666 107.622 210.153 100.844 197.81 99.7721C185.468 98.7002 194.87 110.034 182.252 108.426C169.642 106.818 162.422 112.453 166.3 112.989C170.178 113.525 134.624 120.012 167.963 120.012Z" fill="#2A94F4"/>
<path opacity="0.09" d="M328.218 198.89H375.515C375.515 198.89 379.542 189.724 367.736 188.108C355.929 186.5 370.415 179.722 358.073 178.65C345.731 177.578 355.133 188.912 342.515 187.304C329.904 185.696 322.685 191.332 326.563 191.867C330.44 192.403 294.879 198.89 328.218 198.89Z" fill="#2A94F4"/>
<path d="M242.797 309.203L243.847 266.816C243.93 263.435 241.213 260.649 237.831 260.649C234.459 260.649 231.745 263.419 231.814 266.79L232.676 308.913C232.693 309.712 232.896 310.495 233.269 311.201L233.384 311.418C235.365 315.16 240.81 314.898 242.422 310.983C242.655 310.417 242.782 309.814 242.797 309.203Z" fill="#FF9255" fill-opacity="0.74"/>
<path opacity="0.09" d="M266.079 120.012H313.376C313.376 120.012 317.404 110.846 305.597 109.23C293.791 107.622 308.277 100.844 295.934 99.7721C283.592 98.7002 292.995 110.034 280.376 108.426C267.758 106.818 260.546 112.453 264.424 112.989C268.302 113.525 232.74 120.012 266.079 120.012Z" fill="#2A94F4"/>
<path d="M266.276 54.5637H209.758V259.656H266.276V54.5637Z" fill="#0B65B7"/>
<path d="M238.021 0C213.147 24.874 209.758 54.5636 209.758 54.5636H238.021H266.284C266.284 54.5636 262.895 24.874 238.021 0Z" fill="#0B4870"/>
<g opacity="0.54">
<g opacity="0.54">
<path opacity="0.54" d="M248.129 71.809C248.129 77.3942 243.605 81.9183 238.02 81.9183C232.434 81.9183 227.91 77.3942 227.91 71.809C227.91 66.2237 232.434 61.6996 238.02 61.6996C243.605 61.6996 248.129 66.2237 248.129 71.809Z" fill="#D3D3D3"/>
</g>
</g>
<g opacity="0.54">
<g opacity="0.54">
<path opacity="0.54" d="M237.984 100.734C242.852 100.734 246.798 96.7878 246.798 91.9198C246.798 87.0519 242.852 83.1056 237.984 83.1056C233.116 83.1056 229.17 87.0519 229.17 91.9198C229.17 96.7878 233.116 100.734 237.984 100.734Z" fill="#D3D3D3"/>
</g>
</g>
<path d="M244.551 91.9199C244.551 95.5493 241.613 98.4873 237.983 98.4873C234.354 98.4873 231.416 95.5493 231.416 91.9199C231.416 88.2956 234.354 85.3524 237.983 85.3524C241.613 85.3524 244.551 88.2956 244.551 91.9199Z" fill="#D3D3D3"/>
<path d="M245.552 71.8091C245.552 75.9659 242.182 79.3416 238.02 79.3416C233.857 79.3416 230.487 75.9718 230.487 71.8091C230.487 67.6464 233.857 64.2766 238.02 64.2766C242.182 64.2766 245.552 67.6464 245.552 71.8091Z" fill="#D3D3D3"/>
<path d="M217.347 308.408L215.203 266.062C215.032 262.684 212.112 260.111 208.74 260.365C205.378 260.619 202.88 263.586 203.203 266.942L207.233 308.881C207.31 309.675 207.571 310.441 207.997 311.117L208.128 311.325C210.385 314.907 215.795 314.235 217.107 310.21C217.297 309.629 217.378 309.018 217.347 308.408Z" fill="#FF9255" fill-opacity="0.74"/>
<path d="M248.205 265.694H227.839C227.839 260.066 232.394 255.511 238.022 255.511C243.649 255.511 248.205 260.074 248.205 265.694Z" fill="#0B4870"/>
<path d="M219.941 265.694H199.575C199.575 260.066 204.131 255.511 209.758 255.511C215.385 255.511 219.941 260.074 219.941 265.694Z" fill="#0B4870"/>
<path d="M268.965 308.289L273.496 266.132C273.857 262.769 271.378 259.769 268.007 259.491C264.647 259.214 261.715 261.751 261.506 265.117L258.902 307.168C258.853 307.965 258.991 308.763 259.305 309.497L259.402 309.722C261.069 313.614 266.517 313.801 268.445 310.031C268.724 309.487 268.9 308.897 268.965 308.289Z" fill="#FF9255" fill-opacity="0.74"/>
<path d="M275.174 266.087H259C259 261.618 262.624 258 267.087 258C271.55 258 275.174 261.624 275.174 266.087Z" fill="#0B4870"/>
<path d="M415.518 346.407C415.518 346.407 418.376 353.533 418.948 354.709C419.423 355.675 420.349 356.295 421.235 356.907C421.517 357.1 421.814 357.567 422.064 357.962C422.265 358.276 422.273 358.662 422.145 359.008C419.898 365.136 413.038 367.6 412.877 367.141C412.587 366.311 413.601 364.645 415.043 363.807C416.492 362.97 417.329 361.359 417.386 359.693C417.434 358.364 417.144 357.044 416.532 355.852L413.738 350.546L415.518 346.407Z" fill="#8D511B"/>
<path d="M405.646 355.321L403.931 362.93C403.408 365.257 403.738 367.696 404.857 369.806C405.485 370.982 404.93 372.439 403.673 372.89C399.607 374.339 391.732 377.093 391.378 376.795C389.591 375.281 394.317 372.777 397.82 370.144C400.179 368.373 401.081 360.112 401.29 353.767L405.042 354.709C405.34 354.805 405.566 355.031 405.646 355.321Z" fill="#8D511B"/>
<path d="M398.447 372.624C396.764 373.18 394.92 373.357 393.229 373.566C393.036 373.59 392.851 373.663 392.698 373.784C391.079 375.04 390.258 376.304 391.208 377.109C391.587 377.431 400.846 374.154 404.454 372.858C405.21 372.584 405.541 371.714 405.162 371.006L404.478 369.717C402.586 370.917 400.581 371.924 398.447 372.624Z" fill="#0B4870"/>
<path d="M402.456 270.622C406.933 271.234 410.742 276.387 409.953 282.152C409.502 285.462 406.418 297.306 403.036 306.671C401.74 310.262 402.263 314.336 404.703 317.283C405.097 317.766 405.444 318.257 405.717 318.765C407.127 321.365 412.562 336.729 415.758 346.979C415.501 348.323 414.703 350.022 413.697 350.61C408.085 341.906 398.954 326.02 397.456 323.25C396.619 321.712 395.709 319.94 395.049 318.265C391.417 313.458 392.118 286.581 392.851 281.235C393.623 275.485 397.98 270.01 402.456 270.622Z" fill="#0B4870"/>
<path d="M401.233 226.61C401.233 226.61 397.36 229.05 397.827 232.335C397.827 232.335 395.757 230.87 395.29 225.821C394.968 222.318 401.233 226.61 401.233 226.61Z" fill="#0B4870"/>
<path d="M399.002 246.627C398.873 249.349 398.43 252.247 396.819 254.929C396.022 256.249 394.895 257.441 393.575 258.303C392.254 259.172 390.772 259.696 389.331 259.897C386.424 260.307 383.719 259.776 381.263 258.898C378.799 258.021 376.553 256.765 374.491 255.315C374.129 255.058 374.04 254.55 374.298 254.188C374.524 253.866 374.95 253.761 375.297 253.922L375.305 253.93C377.487 254.937 379.749 255.702 382.02 256.128C384.275 256.539 386.577 256.612 388.502 256.016C390.442 255.444 391.763 254.228 392.496 252.57C393.261 250.903 393.438 248.785 393.357 246.627V246.595C393.301 245.041 394.525 243.728 396.079 243.68C397.633 243.624 398.945 244.848 398.994 246.402C399.01 246.474 399.01 246.555 399.002 246.627Z" fill="#8D511B"/>
<path d="M396.901 263.657C395.347 258.987 392.231 249.091 392.496 245.854C392.666 243.785 394.397 242.199 396.474 242.199H409.961C412.2 242.199 414.027 243.97 414.092 246.208C414.204 250.114 412.409 259.011 411.394 263.665H396.901V263.657Z" fill="#FFBE55"/>
<path d="M401.378 355.417C401.169 355.288 401.048 355.047 401.056 354.797C401.338 344.877 401.942 332.228 402.16 329.804C402.184 329.53 402.216 329.256 402.256 328.983C400.13 317.251 399.808 292.04 399.599 287.628C399.325 281.822 402.82 275.268 407.329 275.059C411.838 274.841 416.734 279.511 418.183 284.834C419.141 288.344 415.445 307.025 411.435 320.56C410.59 323.411 410.461 326.406 410.888 329.353C411.178 331.39 411.266 333.484 411.121 335.086C410.904 337.469 408.231 347.18 405.727 355.498C405.654 355.739 405.461 355.932 405.219 355.981C403.931 356.263 402.578 356.15 401.378 355.417Z" fill="#0B4870"/>
<path d="M412.941 269.583C412.24 267.627 412.031 265.525 412.329 263.472C413.013 258.689 414.197 249.687 414.092 245.862C414.036 243.817 412.361 242.199 410.316 242.199H408.319C407.554 243.962 405.944 245.331 403.431 245.331C400.927 245.331 399.309 243.962 398.552 242.199H396.676C398.721 246.571 397.98 252.336 394.47 255.694C395.122 257.997 395.669 260.324 396.08 262.2C396.636 264.752 396.394 267.401 395.388 269.809C393.664 273.947 392.296 280.582 392.706 283.207C406.894 287.225 416.709 280.107 416.709 280.107L412.941 269.583Z" fill="#FFBE55"/>
<path d="M401.233 243.124L407.353 242.48L405.42 235.781L401.459 236.272L401.233 243.124Z" fill="#8D511B"/>
<path d="M401.458 236.272L405.42 235.781L406.024 237.875C405.138 238.873 404.003 241.031 402.562 241.031C402.103 241.031 401.692 240.902 401.313 240.661L401.458 236.272Z" fill="#663306"/>
<path d="M401.322 239.509C402.666 239.509 404.116 238.833 406.121 237.086C407.272 236.079 408.126 234.332 408.126 233.148V226.602H398.053C398.053 226.602 397.296 230.081 398.029 233.527C398.576 236.12 400.267 239.509 401.322 239.509Z" fill="#8D511B"/>
<path d="M406.419 231.916C406.419 233.197 407.031 234.227 407.788 234.227C408.545 234.227 409.374 232.552 409.374 231.28C409.374 230.008 408.545 229.605 407.788 229.605C407.031 229.605 406.419 230.636 406.419 231.916Z" fill="#8D511B"/>
<path d="M409.365 227.399C409.365 225.354 407.706 223.703 405.661 223.703H402.263C401.289 223.703 400.347 223.446 399.517 222.979C398.317 222.294 396.804 222.528 395.982 223.639C395.097 224.839 394.718 226.449 396.957 227.931C398.076 228.671 399.702 227.85 400.789 228.204C400.854 228.204 400.918 228.188 400.983 228.188H403.978C405.017 228.188 405.814 229.042 405.846 230.08C405.862 230.741 406.402 231.264 407.07 231.264H407.207L407.69 229.726L409.365 231.981V227.399V227.399Z" fill="#0B4870"/>
<path d="M376.207 252.803C376.207 252.803 378.47 255.106 378.172 256.064C377.874 257.022 377.89 256.934 376.417 256.652C374.943 256.37 373.268 255.678 372.31 254.824C371.352 253.971 372.898 252.24 373.124 252.022C373.88 251.305 376.747 251.112 377.544 251.909C378.341 252.706 374.67 254.277 374.992 253.785C375.314 253.294 376.634 252.594 376.803 251.925C376.988 251.265 376.207 252.803 376.207 252.803Z" fill="#8D511B"/>
<path d="M398.801 226.489C399.139 227.987 398.64 228.8 403.544 231.135C408.447 233.47 409.993 232.472 411.523 234.984C411.523 234.984 410.855 230.821 408.149 229.396C405.444 227.971 400.75 227.037 399.244 223.728C399.244 223.728 398.567 225.475 398.801 226.489Z" fill="#0B4870"/>
<path d="M399.744 226.771C399.744 226.771 399.559 231.804 395.154 234.227C395.154 234.227 397.095 230.419 396.958 227.931C396.829 225.443 400.034 225.048 399.744 226.771Z" fill="#0B4870"/>
<path d="M423.779 360.748C424.069 360.409 424.077 359.918 423.787 359.58C423.554 359.306 422.934 358.541 422.467 357.97C422.265 357.72 421.879 357.776 421.742 358.066C420.18 361.335 417.563 363.888 414.157 364.355C413.054 365.104 412.345 366.787 412.579 367.447C412.635 367.6 414.141 367.624 415.735 366.714C422.789 362.68 423.779 360.748 423.779 360.748Z" fill="#0B4870"/>
<path d="M414.269 243.938C414.301 244.308 414.301 244.518 414.309 244.791C414.309 245.049 414.309 245.299 414.301 245.548C414.285 246.047 414.245 246.531 414.189 247.022C414.076 247.996 413.899 248.962 413.641 249.92C413.094 251.821 412.28 253.697 411.064 255.347C409.849 256.998 408.27 258.391 406.523 259.389C404.776 260.396 402.9 261.024 401.032 261.346C397.288 261.974 393.656 261.676 390.218 260.952C386.772 260.235 383.478 259.14 380.306 257.827C379.895 257.658 379.694 257.183 379.871 256.773C380.024 256.41 380.411 256.209 380.789 256.289H380.797C384.09 256.982 387.392 257.57 390.661 257.795C392.295 257.916 393.914 257.908 395.5 257.844C397.07 257.707 398.632 257.529 400.065 257.071C401.491 256.628 402.827 256.064 403.963 255.267C405.098 254.478 406.016 253.487 406.741 252.352C407.481 251.233 407.964 249.92 408.286 248.552C408.439 247.859 408.56 247.159 408.625 246.45C408.657 246.096 408.681 245.741 408.681 245.387C408.689 245.21 408.689 245.041 408.689 244.872L408.673 244.453L408.665 244.252C408.617 242.698 409.84 241.401 411.395 241.353C412.884 241.289 414.148 242.44 414.269 243.938Z" fill="#8D511B"/>
<path d="M378.511 253.214C378.511 253.214 375.427 252.465 376.159 253.939C376.892 255.404 377.689 254.961 377.689 254.961L378.511 253.214Z" fill="#8D511B"/>
<path d="M243.001 251.427C243.001 251.927 242.826 252.357 242.476 252.716C242.115 253.066 241.685 253.241 241.185 253.241L236.115 253.239C235.615 253.238 235.19 253.063 234.841 252.713C234.481 252.353 234.301 251.923 234.301 251.423L234.304 244.403L235.534 244.403L235.531 251.423C235.531 251.583 235.591 251.723 235.711 251.843C235.821 251.953 235.956 252.009 236.116 252.009L241.186 252.011C241.346 252.011 241.486 251.956 241.606 251.846C241.716 251.726 241.771 251.586 241.771 251.426L241.774 244.376L243.004 244.377L243.001 251.427ZM246.456 241.344L245.211 241.343L245.213 235.913C245.213 235.753 245.153 235.618 245.033 235.508C244.923 235.388 244.788 235.328 244.628 235.328L243.008 235.327L243.006 241.132C243.006 241.632 242.83 242.062 242.48 242.422C242.12 242.772 241.69 242.946 241.19 242.946L234.335 242.943L234.335 241.713L241.19 241.716C241.35 241.716 241.49 241.661 241.611 241.551C241.721 241.431 241.776 241.291 241.776 241.131L241.778 235.911C241.778 235.751 241.723 235.616 241.613 235.506C241.493 235.386 241.353 235.326 241.193 235.326L234.338 235.323L234.339 234.093L244.629 234.098C245.139 234.098 245.569 234.273 245.919 234.623C246.278 234.973 246.458 235.404 246.458 235.914L246.456 241.344ZM243.01 232.498L231.46 232.493L231.46 231.263L234.31 231.265L234.313 225.445C234.313 224.945 234.493 224.52 234.853 224.17C235.203 223.81 235.629 223.63 236.129 223.63L241.199 223.633C241.699 223.633 242.128 223.813 242.488 224.173C242.838 224.523 243.013 224.948 243.013 225.448L243.01 232.498ZM241.78 230.668L241.783 225.448C241.783 225.288 241.728 225.153 241.618 225.043C241.498 224.923 241.358 224.863 241.198 224.863L236.128 224.86C235.968 224.86 235.833 224.92 235.723 225.04C235.603 225.15 235.543 225.285 235.543 225.445L235.54 230.665C235.54 230.825 235.6 230.965 235.72 231.085C235.83 231.205 235.965 231.265 236.125 231.265L241.195 231.268C241.355 231.268 241.495 231.208 241.615 231.088C241.725 230.968 241.78 230.828 241.78 230.668ZM243.015 220.724C243.015 221.224 242.839 221.653 242.489 222.013C242.129 222.363 241.699 222.538 241.199 222.538L236.129 222.535C235.629 222.535 235.204 222.36 234.854 222.01C234.494 221.65 234.315 221.22 234.315 220.72L234.317 215.5C234.317 214.99 234.498 214.56 234.858 214.21C235.208 213.85 235.633 213.67 236.133 213.67L239.283 213.672L239.28 221.307L241.2 221.308C241.36 221.308 241.5 221.253 241.62 221.143C241.73 221.023 241.785 220.883 241.785 220.723L241.788 213.673L243.018 213.674L243.015 220.724ZM238.05 221.306L238.052 214.916L236.132 214.915C235.972 214.915 235.837 214.975 235.727 215.095C235.607 215.205 235.547 215.34 235.547 215.5L235.545 220.72C235.545 220.88 235.605 221.02 235.725 221.14C235.835 221.25 235.97 221.305 236.13 221.305L238.05 221.306ZM243.019 212.211L236.134 212.208C235.634 212.208 235.209 212.033 234.859 211.682C234.499 211.322 234.319 210.892 234.319 210.392L234.322 205.502L235.552 205.503L235.549 210.393C235.549 210.553 235.609 210.693 235.729 210.813C235.839 210.923 235.974 210.978 236.134 210.978L243.019 210.981L243.019 212.211ZM243.025 198.693C243.024 199.193 242.849 199.623 242.499 199.983C242.139 200.333 241.709 200.508 241.209 200.508L241.089 200.507L241.089 199.277L241.209 199.278C241.369 199.278 241.509 199.223 241.629 199.113C241.739 198.993 241.795 198.853 241.795 198.693L241.797 193.473C241.797 193.313 241.742 193.178 241.632 193.068C241.512 192.948 241.372 192.888 241.212 192.888L239.877 192.887C239.717 192.887 239.582 192.947 239.472 193.067C239.352 193.177 239.292 193.312 239.292 193.472L239.29 198.692C239.289 199.192 239.114 199.622 238.764 199.981C238.404 200.331 237.974 200.506 237.474 200.506L236.139 200.505C235.639 200.505 235.214 200.33 234.864 199.98C234.504 199.62 234.324 199.189 234.325 198.689L234.327 193.469C234.327 192.959 234.507 192.53 234.867 192.18C235.218 191.82 235.643 191.64 236.143 191.64L236.263 191.64L236.262 192.885L236.142 192.885C235.982 192.885 235.847 192.945 235.737 193.065C235.617 193.175 235.557 193.31 235.557 193.47L235.555 198.69C235.555 198.85 235.614 198.99 235.734 199.11C235.844 199.22 235.979 199.275 236.139 199.275L237.474 199.276C237.634 199.276 237.774 199.221 237.894 199.111C238.004 198.991 238.06 198.851 238.06 198.691L238.062 193.471C238.062 192.961 238.242 192.531 238.602 192.181C238.953 191.822 239.378 191.642 239.878 191.642L241.213 191.643C241.713 191.643 242.143 191.823 242.502 192.183C242.852 192.533 243.027 192.963 243.027 193.473L243.025 198.693ZM243.029 188.35C243.029 188.85 242.854 189.28 242.504 189.64C242.143 189.99 241.713 190.165 241.213 190.164L238.063 190.163L238.067 182.543L236.147 182.542C235.987 182.542 235.852 182.602 235.742 182.722C235.622 182.832 235.562 182.967 235.562 183.127L235.558 190.162L234.328 190.161L234.332 183.126C234.332 182.616 234.512 182.186 234.872 181.837C235.222 181.477 235.647 181.297 236.147 181.297L243.032 181.3L243.029 188.35ZM241.799 188.35L241.802 182.545L239.297 182.543L239.294 188.933L241.214 188.934C241.374 188.934 241.514 188.879 241.634 188.77C241.744 188.65 241.799 188.51 241.799 188.35ZM243.033 179.735L233.298 179.731C232.788 179.731 232.358 179.555 232.008 179.205C231.658 178.855 231.484 178.425 231.484 177.915L231.485 174.735L232.715 174.736L232.714 177.916C232.714 178.076 232.774 178.216 232.894 178.336C233.004 178.446 233.139 178.501 233.299 178.501L234.334 178.501L234.335 174.736L235.565 174.737L235.564 178.502L243.034 178.505L243.033 179.735ZM243.037 171.842C243.036 172.342 242.861 172.772 242.511 173.131C242.151 173.481 241.721 173.656 241.221 173.656L236.151 173.654C235.651 173.653 235.226 173.478 234.876 173.128C234.516 172.768 234.336 172.338 234.337 171.838L234.339 166.618C234.339 166.108 234.519 165.678 234.879 165.328C235.23 164.968 235.655 164.788 236.155 164.789L239.305 164.79L239.301 172.425L241.221 172.426C241.381 172.426 241.521 172.371 241.641 172.261C241.751 172.141 241.806 172.001 241.807 171.841L241.81 164.791L243.04 164.792L243.037 171.842ZM238.071 172.425L238.074 166.035L236.154 166.034C235.994 166.034 235.859 166.094 235.749 166.213C235.629 166.323 235.569 166.458 235.569 166.618L235.567 171.838C235.566 171.998 235.626 172.138 235.746 172.258C235.856 172.369 235.991 172.424 236.151 172.424L238.071 172.425ZM243.042 159.169L234.342 159.165L234.343 157.935L243.043 157.939L243.042 159.169ZM232.722 159.164L231.492 159.164L231.493 157.934L232.723 157.934L232.722 159.164ZM243.044 156.049L236.159 156.046C235.659 156.046 235.234 155.87 234.884 155.52C234.524 155.16 234.344 154.73 234.344 154.23L234.347 149.34L235.577 149.341L235.574 154.231C235.574 154.391 235.634 154.531 235.754 154.651C235.864 154.761 235.999 154.816 236.159 154.816L243.044 154.819L243.044 156.049ZM243.048 146.573C243.048 147.073 242.872 147.503 242.522 147.863C242.162 148.213 241.732 148.388 241.232 148.387L236.162 148.385C235.662 148.385 235.237 148.21 234.887 147.86C234.527 147.499 234.348 147.069 234.348 146.569L234.35 141.349C234.35 140.839 234.531 140.409 234.891 140.06C235.241 139.7 235.666 139.52 236.166 139.52L239.316 139.522L239.313 147.157L241.233 147.157C241.393 147.157 241.533 147.102 241.653 146.993C241.763 146.873 241.818 146.733 241.818 146.573L241.821 139.523L243.051 139.523L243.048 146.573ZM238.083 147.156L238.085 140.766L236.165 140.765C236.005 140.765 235.87 140.825 235.76 140.945C235.64 141.055 235.58 141.19 235.58 141.35L235.578 146.57C235.578 146.73 235.638 146.87 235.758 146.99C235.868 147.1 236.003 147.155 236.163 147.155L238.083 147.156ZM243.052 136.465C243.052 136.965 242.877 137.395 242.527 137.755C242.167 138.105 241.736 138.28 241.236 138.28L231.501 138.275L231.502 137.045L241.237 137.05C241.397 137.05 241.537 136.995 241.657 136.885C241.767 136.765 241.822 136.625 241.822 136.465L241.823 134.995L243.053 134.995L243.052 136.465ZM243.054 132.086C243.054 132.586 242.879 133.015 242.529 133.375C242.168 133.725 241.738 133.9 241.238 133.9L238.088 133.898L238.092 126.278L236.172 126.277C236.012 126.277 235.877 126.337 235.767 126.457C235.647 126.567 235.587 126.702 235.587 126.862L235.583 133.897L234.353 133.897L234.357 126.862C234.357 126.352 234.537 125.922 234.897 125.572C235.247 125.212 235.672 125.032 236.172 125.032L243.057 125.036L243.054 132.086ZM241.824 132.085L241.827 126.28L239.322 126.279L239.319 132.669L241.239 132.67C241.399 132.67 241.539 132.615 241.659 132.505C241.769 132.385 241.824 132.245 241.824 132.085ZM243.058 123.675L234.358 123.671L234.361 116.621C234.361 116.121 234.542 115.696 234.902 115.347C235.252 114.987 235.677 114.807 236.177 114.807L243.062 114.81L243.061 116.04L236.176 116.037C236.016 116.037 235.881 116.097 235.771 116.217C235.651 116.327 235.591 116.462 235.591 116.622L235.589 121.842C235.589 122.002 235.649 122.142 235.769 122.262C235.879 122.382 236.014 122.442 236.174 122.442L243.059 122.445L243.058 123.675ZM243.063 111.866C243.063 112.376 242.888 112.811 242.538 113.171C242.177 113.52 241.747 113.695 241.247 113.695L236.177 113.693C235.677 113.693 235.252 113.517 234.903 113.167C234.543 112.807 234.363 112.372 234.363 111.862L234.366 106.057L231.516 106.056L231.516 104.826L243.066 104.831L243.063 111.866ZM241.833 111.865L241.836 106.645C241.836 106.485 241.781 106.35 241.671 106.24C241.551 106.12 241.411 106.06 241.251 106.06L236.181 106.058C236.021 106.058 235.886 106.118 235.776 106.238C235.656 106.348 235.596 106.483 235.596 106.643L235.593 111.863C235.593 112.023 235.653 112.163 235.773 112.283C235.883 112.393 236.018 112.448 236.178 112.448L241.248 112.45C241.408 112.45 241.548 112.395 241.668 112.285C241.778 112.165 241.833 112.025 241.833 111.865Z" fill="#53FFFF"/>
<path d="M69.9951 366.861C69.9951 366.861 72.6175 368.012 75.0035 367.069C78.0849 368.742 80.2011 369.379 82.8853 369.744C85.5739 370.129 85.3667 372.918 80.8153 372.613C76.2639 372.307 73.136 372.638 72.1413 372.766C71.151 372.915 69.5599 373.108 69.4016 372.22C69.2276 371.336 69.1415 366.574 69.9951 366.861Z" fill="#0B4870"/>
<path d="M45.8055 366.027C45.8055 366.027 48.2576 367.448 50.931 367.092C53.7407 369.028 55.7841 369.933 58.4746 370.715C61.1651 371.514 60.3307 373.786 55.699 372.721C51.0673 371.656 47.7638 371.372 46.708 371.301C45.6523 371.247 43.9665 371.123 44.0005 370.359C44.0175 369.596 44.9881 365.636 45.8055 366.027Z" fill="#0B4870"/>
</svg>
