<svg width="473" height="334" viewBox="0 0 473 334" fill="none" xmlns="http://www.w3.org/2000/svg">
<path opacity="0.11" d="M393.298 316.117C380.15 301.524 385.887 283.241 401.574 263.644C417.261 244.047 403.324 247.364 403.854 229.159C404.761 197.981 442.963 191.765 447.1 220.397C451.238 249.028 448.451 256.307 438.641 271.365C428.832 286.422 460.011 272.361 460 300.324C460 314.544 406.436 330.699 393.298 316.117Z" fill="#2A94F4"/>
<path opacity="0.11" d="M458.725 317.116C458.725 317.806 449.844 318.429 438.868 318.508C427.902 318.588 419 318.089 419 317.399C419 316.708 427.881 316.086 438.857 316.006C449.823 315.938 458.714 316.425 458.725 317.116Z" fill="#5ECAF2"/>
<path opacity="0.09" d="M32.8296 294.536C32.8296 208.922 102.232 139.519 187.846 139.519C273.461 139.519 342.863 208.922 342.863 294.536" fill="#2A94F4"/>
<path d="M259.759 246.79C258.777 246.79 257.813 246.846 256.861 246.953C255.034 242.565 252.405 238.603 249.156 235.229C249.206 234.585 249.237 233.934 249.237 233.27C249.237 218.749 237.47 206.981 222.949 206.981C208.433 206.981 196.66 218.749 196.66 233.27C192.328 237.145 188.898 242.008 186.707 247.504C182.72 248.449 179.077 250.295 176.023 252.83C175.923 252.693 175.829 252.555 175.735 252.423C178.977 248.048 180.899 242.64 180.899 236.775C180.899 222.254 169.131 210.486 154.61 210.486C140.088 210.486 128.321 222.254 128.321 236.775C128.321 239.116 128.628 241.382 129.204 243.542C127.582 243.229 125.911 243.06 124.202 243.06C109.681 243.06 97.9136 254.827 97.9136 269.348C97.9136 283.87 109.681 295.637 124.202 295.637C130.274 295.637 135.857 293.578 140.308 290.123C144.426 292.802 149.333 294.36 154.616 294.36C160.988 294.36 166.834 292.088 171.385 288.32C176.136 295.005 183.947 299.368 192.785 299.368C197.574 299.368 202.061 298.078 205.93 295.844C210.781 298.104 216.182 299.368 221.891 299.368C229.596 299.368 236.763 297.058 242.74 293.109C247.328 297.008 253.268 299.368 259.759 299.368C274.281 299.368 286.048 287.6 286.048 273.079C286.048 258.558 274.281 246.79 259.759 246.79Z" fill="#F2F2F2"/>
<path d="M239.06 294.761H222.717V117.223H239.06V294.761ZM223.831 293.647H237.939V118.344H223.831V293.647Z" fill="#2A94F4"/>
<path d="M238.153 285.557L222.926 293.584L223.586 294.835L238.812 286.809L238.153 285.557Z" fill="#2A94F4"/>
<path d="M238.153 258.424L222.926 266.45L223.586 267.702L238.812 259.675L238.153 258.424Z" fill="#2A94F4"/>
<path d="M238.153 231.291L222.927 239.317L223.586 240.568L238.813 232.542L238.153 231.291Z" fill="#2A94F4"/>
<path d="M238.175 204.174L222.95 212.205L223.61 213.457L238.835 205.425L238.175 204.174Z" fill="#2A94F4"/>
<path d="M238.176 177.048L222.952 185.079L223.612 186.331L238.837 178.299L238.176 177.048Z" fill="#2A94F4"/>
<path d="M238.163 149.867L222.938 157.897L223.598 159.148L238.823 151.118L238.163 149.867Z" fill="#2A94F4"/>
<path d="M238.162 122.735L222.937 130.764L223.597 132.016L238.822 123.986L238.162 122.735Z" fill="#2A94F4"/>
<path d="M151.599 294.761H135.256V117.223H151.599V294.761ZM136.37 293.647H150.479V118.344H136.37V293.647Z" fill="#2A94F4"/>
<path d="M150.699 285.553L135.473 293.579L136.132 294.831L151.359 286.804L150.699 285.553Z" fill="#2A94F4"/>
<path d="M150.699 258.42L135.473 266.446L136.132 267.697L151.359 259.671L150.699 258.42Z" fill="#2A94F4"/>
<path d="M150.699 231.286L135.473 239.313L136.132 240.564L151.359 232.538L150.699 231.286Z" fill="#2A94F4"/>
<path d="M150.716 204.17L135.491 212.201L136.151 213.452L151.376 205.421L150.716 204.17Z" fill="#2A94F4"/>
<path d="M150.718 177.043L135.493 185.075L136.153 186.326L151.378 178.294L150.718 177.043Z" fill="#2A94F4"/>
<path d="M150.712 149.867L135.487 157.897L136.147 159.148L151.372 151.118L150.712 149.867Z" fill="#2A94F4"/>
<path d="M150.71 122.735L135.485 130.765L136.145 132.016L151.37 123.986L150.71 122.735Z" fill="#2A94F4"/>
<path d="M348.328 328.786H17.213C7.70515 328.786 0 321.081 0 311.573C0 302.066 7.70515 294.36 17.213 294.36H348.328C357.836 294.36 365.541 302.066 365.541 311.573C365.541 321.081 357.836 328.786 348.328 328.786Z" fill="#F2F2F2"/>
<path d="M86.7596 177.563C86.7533 177.563 86.7533 177.563 86.7471 177.563C86.7972 177.582 86.8034 177.588 86.7596 177.563Z" fill="#0B4870"/>
<path d="M56.2393 286.424L56.2519 290.223C56.2519 290.999 56.1517 291.769 55.9389 292.514L55.6072 293.684C55.338 294.648 56.0578 295.6 57.0593 295.6C59.6507 295.594 64.076 295.6 65.2152 295.6C65.4029 295.6 65.5844 295.475 65.6032 295.287C65.6971 294.179 62.4924 293.434 60.0763 292.501C58.2361 291.788 58.3362 288.483 58.5615 286.549C58.6492 285.817 58.0358 285.197 57.3097 285.259C56.7025 285.31 56.2393 285.817 56.2393 286.424Z" fill="#FCD2B1"/>
<path d="M38.4445 285.36L37.1363 289.71C37.0799 289.904 36.9923 290.085 36.8796 290.248L35.9533 291.625C35.3649 292.502 35.7905 293.697 36.7983 294.004C36.7983 294.004 38.6698 294.661 40.6039 295.299C42.5818 295.95 45.0668 295.406 45.0668 294.886C45.0668 293.728 43.9839 294.649 42.175 293.434C41.5678 293.027 40.9419 292.602 40.3848 292.164C38.8263 290.943 40.1845 287.845 41.1422 286.105C41.4865 285.479 41.1234 284.702 40.4224 284.552L39.9717 284.458C39.2957 284.321 38.6385 284.709 38.4445 285.36Z" fill="#FCD2B1"/>
<path d="M51.8267 234.478L66.1791 233.276C66.1791 233.276 67.625 243.723 63.9946 262.632C62.2921 271.502 58.7494 288.445 58.7494 288.445C57.8731 288.827 56.978 288.927 56.0704 288.702C56.0704 288.702 55.8013 281.229 55.6386 273.179C55.4821 265.461 55.4383 257.212 54.9438 254.508C53.936 248.993 51.8267 234.478 51.8267 234.478Z" fill="#0B4870"/>
<path d="M54.7873 234.66C56.2707 242.615 59.5819 254.508 53.2037 265.674C46.8255 276.847 40.1281 288.458 40.1281 288.458C39.2643 288.496 38.4819 288.183 37.7559 287.625C37.7559 287.625 38.8763 282.562 40.4912 276.647C42.3376 269.88 44.6849 261.925 44.0151 257.775C42.7633 250.001 41.3299 239.642 41.7618 234.616C42.1999 229.596 54.0112 230.478 54.7873 234.66Z" fill="#0B4870"/>
<path d="M65.5596 206.524L76.87 212.74L88.2306 194.863L74.4915 190.094L65.5596 206.524Z" fill="#0B4870"/>
<path d="M66.2793 205.986L76.8574 211.801L87.4794 195.082L74.6291 190.619L66.2793 205.986Z" fill="#D3D3D3"/>
<path d="M62.4048 202.856C62.4048 202.856 64.3764 201.918 65.2402 201.423C66.104 200.929 68.326 200.253 68.5076 200.096C68.6891 199.933 75.0985 199.539 75.4866 199.207C75.8747 198.869 76.2503 199.996 74.5916 200.359C72.9329 200.722 70.6169 201.611 70.4917 202.262C70.3665 202.913 72.2005 203.063 72.382 203.601C72.5698 204.133 72.332 204.014 72.0691 204.133C71.8062 204.246 69.8908 203.188 69.0458 203.489C68.2008 203.789 66.9114 203.37 66.2667 203.595C65.622 203.814 62.4799 204.872 62.4799 204.872L62.4048 202.856Z" fill="#FCD2B1"/>
<path d="M65.9602 204.246L66.9742 203.87C66.9742 203.87 65.7099 200.903 65.159 200.972C64.5206 201.054 63.7319 201.266 63.7319 201.266L65.9602 204.246Z" fill="#D3D3D3"/>
<path d="M66.1916 204.759C66.0602 204.665 64.0384 200.778 64.0384 200.778L59.707 201.367L62.048 205.973L66.1916 204.759Z" fill="#FCD2B1"/>
<path d="M77.4272 210.499C77.4272 210.499 79.0796 209.009 79.8808 208.39C80.682 207.77 82.1842 205.936 82.4033 205.83C82.6224 205.723 85.4954 199.833 85.9585 199.602C86.428 199.364 85.5141 198.575 84.5252 199.996C83.5362 201.423 81.7961 203.251 81.1327 203.119C80.4692 202.988 81.0388 201.198 80.6069 200.816C80.175 200.434 80.1938 200.703 79.9872 200.904C79.7744 201.11 80.031 203.326 79.4176 204.002C78.8042 204.678 78.6978 206.055 78.2346 206.581C77.7777 207.106 75.5557 209.654 75.5557 209.654L77.4272 210.499Z" fill="#FCD2B1"/>
<path d="M51.0569 173.763C51.0569 173.763 56.0204 171.911 58.3113 175.691C60.6022 179.472 60.3769 187.033 57.8794 187.959C55.3757 188.892 51.6202 188.404 50.3371 186.038C49.0539 183.672 47.9022 180.254 47.9585 177.976C48.0086 175.685 49.7487 174.421 51.0569 173.763Z" fill="#FCD2B1"/>
<path d="M57.335 188.128C57.335 188.128 56.9344 191.69 57.2787 192.353C57.6229 193.011 51.082 192.353 51.082 192.353C51.082 192.353 50.4937 187.214 49.4484 184.185C48.4031 181.149 57.335 188.128 57.335 188.128Z" fill="#FCD2B1"/>
<path d="M49.4481 184.185C49.4481 184.185 49.686 188.009 51.595 187.709C53.5041 187.408 56.0579 181.819 56.8528 181.544C57.6477 181.262 57.654 180.799 57.654 180.799L58.1547 181.525L58.9997 181.581C58.9997 181.581 58.2298 179.309 59.3941 178.383C60.5583 177.456 58.186 171.034 52.0707 173.175C52.0707 173.175 47.3701 174.471 47.5453 177.143C47.708 179.81 48.3966 182.852 49.4481 184.185Z" fill="#0B4870"/>
<path d="M58.0484 193.148C58.0484 193.148 58.0296 191.89 57.4537 191.765C56.8841 191.646 51.1444 191.095 50.4434 191.371V192.842C50.4434 192.842 51.7954 193.668 58.0484 193.148Z" fill="#D3D3D3"/>
<path d="M57.5287 179.822C57.4223 179.372 56.2831 178.095 55.8449 179.466C55.4068 180.836 56.5022 182.683 57.1156 182.52C57.729 182.364 57.8041 180.955 57.5287 179.822Z" fill="#FCD2B1"/>
<path d="M40.892 240.243C40.892 240.243 43.934 241.138 49.123 241.714C54.3119 242.283 67.2811 241.507 67.3624 240.894C67.4438 240.28 64.5708 218.06 64.7335 216.915C64.8963 215.769 64.9839 211.694 64.9839 211.694C65.0465 212.815 66.1857 217.378 67.5627 219.863C68.0572 220.764 69.7222 223.581 70.5296 222.936C74.4166 219.838 80.4318 208.145 80.8136 208.045C80.4943 207.907 77.9593 206.743 77.6088 206.624C77.2959 206.518 74.498 209.485 72.7955 211.325C72.0381 212.145 71.4998 212.74 71.4998 212.74C71.0116 211.638 69.2214 204.684 68.6706 202.28C67.4188 196.854 67.6128 196.628 67.6128 196.628C63.8134 195.477 58.0549 193.142 58.0549 193.142L50.4499 192.835C50.4499 192.835 43.4708 194.369 40.723 195.614C40.4601 195.733 40.4601 201.842 39.7466 203.445L42.025 208.252C42.025 208.252 43.3394 217.778 43.6148 222.01C43.7337 223.956 40.892 240.243 40.892 240.243Z" fill="#E6C48E"/>
<path d="M39.4209 211.375C39.6212 212.014 40.5226 212.558 41.1047 212.796C41.4802 212.946 41.8996 212.996 42.3252 212.921L42.6257 212.865L47.8396 211.895C47.8396 211.895 48.9788 198.763 40.7229 195.614C40.4975 195.689 37.5995 205.498 39.4209 211.375Z" fill="#E5C48E"/>
<path d="M49.6425 174.208C49.6425 174.208 43.3958 174.84 49.5299 184.323L49.6425 174.208Z" fill="#0B4870"/>
<path d="M83.0041 193.906L83.6613 192.766L78.4536 190.97L77.7964 192.103L83.0041 193.906Z" fill="#0B4870"/>
<path opacity="0.09" d="M80.5439 127.395H118.106C118.106 127.395 121.304 120.115 111.928 118.832C102.551 117.555 114.056 112.172 104.254 111.321C94.452 110.47 101.919 119.47 91.8982 118.194C81.8834 116.917 76.1499 121.392 79.2295 121.818C82.3028 122.243 54.061 127.395 80.5439 127.395Z" fill="#2A94F4"/>
<path opacity="0.09" d="M133.391 95.3098H170.946C170.946 95.3098 174.145 88.0302 164.769 86.7471C155.392 85.4702 166.897 80.0872 157.095 79.236C147.293 78.3847 154.76 87.3856 144.739 86.1087C134.724 84.8318 128.991 89.3071 132.07 89.7328C135.15 90.1584 106.914 95.3098 133.391 95.3098Z" fill="#2A94F4"/>
<path opacity="0.09" d="M260.66 157.952H298.222C298.222 157.952 301.421 150.673 292.044 149.39C282.668 148.113 294.172 142.73 284.37 141.879C274.568 141.027 282.036 150.028 272.015 148.751C262 147.474 256.266 151.95 259.346 152.375C262.425 152.801 234.184 157.952 260.66 157.952Z" fill="#2A94F4"/>
<path d="M192.822 245.56L193.656 211.897C193.722 209.213 191.564 207 188.878 207C186.2 207 184.045 209.2 184.1 211.877L184.784 245.33C184.797 245.964 184.959 246.586 185.255 247.147L185.347 247.319C186.92 250.291 191.244 250.082 192.525 246.973C192.709 246.524 192.81 246.045 192.822 245.56Z" fill="#FF9255" fill-opacity="0.74"/>
<path opacity="0.09" d="M211.313 95.3098H248.875C248.875 95.3098 252.073 88.0302 242.697 86.7471C233.32 85.4702 244.825 80.0872 235.023 79.236C225.221 78.3847 232.688 87.3856 222.667 86.1087C212.646 84.8318 206.919 89.3071 209.998 89.7328C213.078 90.1584 184.836 95.3098 211.313 95.3098Z" fill="#2A94F4"/>
<path d="M211.469 43.3329H166.584V206.211H211.469V43.3329Z" fill="#0B65B7"/>
<path d="M189.03 0C169.275 19.7542 166.584 43.3328 166.584 43.3328H189.03H211.475C211.475 43.3328 208.784 19.7542 189.03 0Z" fill="#0B4870"/>
<g opacity="0.54">
<g opacity="0.54">
<path opacity="0.54" d="M197.057 57.0286C197.057 61.4642 193.464 65.0571 189.029 65.0571C184.593 65.0571 181 61.4642 181 57.0286C181 52.5929 184.593 49 189.029 49C193.464 49 197.057 52.5929 197.057 57.0286Z" fill="#D3D3D3"/>
</g>
</g>
<g opacity="0.54">
<g opacity="0.54">
<path opacity="0.54" d="M189 80C192.866 80 196 76.866 196 73C196 69.134 192.866 66 189 66C185.134 66 182 69.134 182 73C182 76.866 185.134 80 189 80Z" fill="#D3D3D3"/>
</g>
</g>
<path d="M194.216 73C194.216 75.8823 191.882 78.2157 189 78.2157C186.118 78.2157 183.784 75.8823 183.784 73C183.784 70.1217 186.118 67.7843 189 67.7843C191.882 67.7843 194.216 70.1217 194.216 73Z" fill="#D3D3D3"/>
<path d="M195.01 57.0286C195.01 60.3298 192.334 63.0106 189.028 63.0106C185.723 63.0106 183.046 60.3345 183.046 57.0286C183.046 53.7227 185.723 51.0465 189.028 51.0465C192.334 51.0465 195.01 53.7227 195.01 57.0286Z" fill="#D3D3D3"/>
<path d="M172.611 244.928L170.908 211.298C170.772 208.616 168.453 206.572 165.775 206.774C163.105 206.976 161.122 209.332 161.378 211.997L164.579 245.304C164.639 245.935 164.847 246.543 165.185 247.08L165.289 247.245C167.081 250.09 171.378 249.556 172.42 246.36C172.571 245.898 172.636 245.413 172.611 244.928Z" fill="#FF9255" fill-opacity="0.74"/>
<path d="M197.117 211.006H180.943C180.943 206.537 184.561 202.919 189.03 202.919C193.499 202.919 197.117 206.543 197.117 211.006Z" fill="#0B4870"/>
<path d="M174.671 211.006H158.497C158.497 206.537 162.115 202.919 166.584 202.919C171.053 202.919 174.671 206.543 174.671 211.006Z" fill="#0B4870"/>
<path d="M213.603 244.834L217.201 211.354C217.488 208.683 215.519 206.301 212.842 206.08C210.174 205.86 207.845 207.875 207.679 210.548L205.612 243.944C205.572 244.577 205.682 245.21 205.932 245.793L206.008 245.972C207.332 249.063 211.659 249.211 213.19 246.218C213.412 245.785 213.552 245.316 213.603 244.834Z" fill="#FF9255" fill-opacity="0.74"/>
<path d="M220.562 211.006H204.388C204.388 206.537 208.012 202.919 212.475 202.919C216.938 202.919 220.562 206.543 220.562 211.006Z" fill="#0B4870"/>
<path d="M422.606 306.447C422.606 306.447 422.458 308.769 422.754 310.555C423.17 311.763 422.995 312.166 422.995 312.166L418.225 312.475C418.225 312.475 420.147 311.132 419.273 306.312C418.4 301.466 422.606 306.447 422.606 306.447Z" fill="#FCD2B1"/>
<path d="M422.875 310.918C422.875 310.918 420.94 311.992 418.83 311.723C416.613 313.187 415 313.871 412.877 314.462C410.754 315.066 411.412 316.785 415.067 315.979C418.722 315.174 421.329 314.959 422.162 314.905C422.996 314.865 424.326 314.771 424.299 314.193C424.286 313.616 423.52 310.622 422.875 310.918Z" fill="#0B4870"/>
<path d="M446.887 302.942C446.887 302.942 447.747 305.104 448.782 306.581C449.669 307.494 449.682 307.924 449.682 307.924L445.503 310.246C445.503 310.246 446.672 308.219 443.797 304.218C440.948 300.244 446.887 302.942 446.887 302.942Z" fill="#FCD2B1"/>
<path d="M449.051 306.863C449.051 306.863 447.761 308.662 445.745 309.32C444.374 311.589 443.205 312.891 441.552 314.341C439.886 315.791 441.216 317.067 444.186 314.771C447.142 312.475 449.413 311.159 450.139 310.77C450.878 310.381 452.034 309.723 451.765 309.212C451.469 308.702 449.507 306.326 449.051 306.863Z" fill="#0B4870"/>
<path d="M415.269 213.714C415.269 213.714 416.653 211.23 417.284 210.21C417.929 209.176 420.724 211.713 420.724 211.713C420.724 211.713 420.98 212.814 419.636 213.539C418.279 214.264 417.459 214.251 417.19 215.164C416.908 216.077 415.255 214.815 415.255 214.815L415.269 213.714Z" fill="#FFE3CA"/>
<path d="M434.337 214.305C434.337 214.305 433.074 211.606 432.482 210.545C431.891 209.485 428.989 211.888 428.989 211.888C428.989 211.888 428.68 212.976 429.996 213.768C431.313 214.546 432.133 214.573 432.375 215.5C432.617 216.426 434.323 215.231 434.323 215.231L434.337 214.305Z" fill="#FFE3CA"/>
<path d="M418.736 212.64C418.736 212.64 419.65 212.425 419.824 212.036C419.999 211.646 420.241 211.029 420.671 211.109C421.222 211.217 420.751 212.479 420.483 212.801" fill="#FFE3CA"/>
<path d="M430.937 212.908C430.937 212.908 430.037 212.653 429.876 212.25C429.714 211.848 429.499 211.23 429.069 211.284C428.505 211.364 429.029 212.814 429.284 213.136" fill="#FFE3CA"/>
<path d="M424.662 265.981C424.662 265.981 428.854 281.152 431.367 285.18C433.88 289.208 444.952 306.729 444.952 306.729C444.952 306.729 446.941 305.628 448.07 305.091C442.547 290.953 440.934 286.979 437.481 281.488C435.465 273.486 436.769 262.732 431.783 255.858C430.265 253.763 423.345 257.724 423.345 257.724L424.662 265.981Z" fill="#0E538C"/>
<path d="M417.634 257.187C417.634 257.187 417.016 278.897 417.016 283.018C417.016 287.127 419.085 309.186 419.085 309.186C419.085 309.186 420.577 309.897 423.049 308.581C423.13 303.506 424.003 295.988 423.277 284.106C425.925 272.801 427.524 261.671 427.524 261.671L427.268 255.777L417.634 257.187Z" fill="#0E538C"/>
<path d="M419.771 227.14C419.771 227.14 417.406 229.221 418.333 233.691C418.642 235.007 416.881 236.954 415.699 237.948C414.516 238.954 413.495 241.223 414.624 243.251C415.739 245.278 416.021 245.426 415.497 247.399C414.973 249.373 414.946 253.481 420.523 252.649C426.1 251.816 426.046 238.176 426.046 238.176L425.307 232.255L419.771 227.14Z" fill="#0B4870"/>
<path d="M428.129 234.873C428.129 234.873 427.887 235.007 427.497 235.182C427.497 235.383 427.511 235.571 427.497 235.759C427.511 236.914 427.497 237.666 427.497 237.666C426.61 239.143 424.958 239.169 424.192 238.807C424.111 238.767 424.044 238.726 423.99 238.686C423.694 238.471 423.56 238.095 423.627 237.746C423.735 237.169 423.748 236.632 423.735 236.135C422.969 236.162 422.176 236.068 421.423 235.746C418.467 234.511 420.16 226.455 420.16 226.455C420.16 226.455 425.186 224.32 426.772 226.388C428.33 228.469 428.129 234.873 428.129 234.873Z" fill="#FFE3CA"/>
<path d="M425.213 222.857C423.842 223.085 422.283 224.065 421.611 225.287C421.222 225.985 423.52 226.603 423.546 227.623C423.6 229.61 425.858 230.389 427.645 231.127C428.115 231.315 428.747 232.175 427.658 233.208C427.658 233.208 426.073 234.672 426.261 236.471C426.422 237.988 429.217 237.719 429.217 237.719C429.217 237.719 425.24 249.722 425.737 251.414C426.005 252.313 433.745 256.999 439.053 252.555C441.23 250.729 441.512 247.306 439.658 245.144C438.247 243.506 438.26 242.392 438.368 241.975C439.806 236.82 437.185 233.302 434.229 231.866C433.033 231.288 432.214 230.147 432.146 228.818C432.066 227.408 431.703 225.676 430.48 224.535C428.733 222.911 426.839 222.575 425.213 222.857Z" fill="#0B4870"/>
<path d="M418.373 224.065C417.244 224.978 417.285 226.724 418.494 227.529C419.703 228.335 421.665 228.818 424.621 227.314C428.142 225.529 427.067 222.749 424.716 222.964C420.254 224.481 419.717 222.978 418.373 224.065Z" fill="#0B4870"/>
<path d="M423.6 237.84C423.6 237.84 423.735 239.263 425.67 238.954C426.677 238.659 426.866 237.961 427.054 237.451C427.846 237.504 429.795 237.531 431.421 235.276C432.671 233.53 434.525 230.523 435.398 228.952C435.761 228.308 435.855 227.556 435.667 226.844C434.794 223.528 431.555 215.311 431.555 215.311L434.767 214.143C434.767 214.143 438.046 222.239 439.698 226.348C440.236 227.69 440.182 229.18 439.537 230.469C437.79 233.96 434.417 239.921 432.832 242.982C432.335 244.822 434.915 257.831 434.915 257.831C434.915 257.831 427.82 262.195 417.607 258.986C417.594 255.079 418.051 247.91 417.943 243.882C417.836 239.76 415.686 240.149 410.19 228.831C409.666 227.757 409.518 226.536 409.773 225.354C410.337 222.736 412.192 218.332 415.256 213.7C417.432 214.68 417.782 215.029 417.782 215.029C417.782 215.029 414.906 222.239 413.898 225.22C413.697 225.837 413.751 226.509 414.06 227.086C415.712 230.147 420.711 237.813 423.6 237.84Z" fill="#2A94F4"/>
<path d="M426.328 200.65L426.395 189.399L423.882 189.386L423.828 199.603C423.828 199.603 423.828 199.63 423.828 199.657V200.489C423.775 201.939 423.412 204.692 421.463 204.678L428.652 204.718C426.758 204.705 426.382 202.141 426.328 200.65Z" fill="#FFBE55"/>
<path d="M414.248 177.867C414.799 178.162 415.309 178.565 415.713 179.061C416.761 180.337 416.962 181.935 416.237 183.358C415.954 183.922 415.484 184.338 414.92 184.539C414.664 184.647 414.382 184.7 414.087 184.7C413.119 184.727 412.152 184.23 411.695 183.465C411.318 182.821 411.318 182.069 411.708 181.384C411.963 180.941 412.541 180.78 412.985 181.049C413.428 181.304 413.589 181.881 413.321 182.324C413.253 182.431 413.267 182.472 413.294 182.512C413.388 182.673 413.71 182.834 414.019 182.834C414.355 182.821 414.49 182.633 414.557 182.499C414.57 182.472 414.584 182.458 414.584 182.431C415 181.559 414.678 180.834 414.369 180.404C414.328 180.35 414.288 180.297 414.248 180.256C413.495 179.343 412.178 178.9 411.13 179.209C409.921 179.572 409.128 180.887 408.913 182.915C408.47 186.822 411.224 189.493 412.904 190.729C414.732 192.071 416.546 192.756 417.782 193.011C418.481 193.159 418.991 193.172 419.206 193.078C419.677 192.877 420.228 193.092 420.429 193.561C420.563 193.843 420.523 194.166 420.389 194.407C420.295 194.568 420.147 194.716 419.959 194.797C419.744 194.891 419.488 194.958 419.206 194.985C417.365 195.186 414.288 194.085 411.802 192.246C408.335 189.695 406.656 186.325 407.059 182.727C407.489 178.914 409.464 177.773 410.606 177.437C411.802 177.074 413.119 177.262 414.248 177.867Z" fill="#FFBE55"/>
<path opacity="0.5" d="M420.456 193.561C420.59 193.843 420.55 194.166 420.415 194.407C420.321 194.568 420.174 194.716 419.985 194.797C419.77 194.891 419.515 194.958 419.233 194.985C418.709 194.394 418.239 193.736 417.809 193.024C418.507 193.172 419.018 193.186 419.233 193.092C419.703 192.877 420.254 193.092 420.456 193.561Z" fill="#FFBE55"/>
<path d="M435.667 177.853C435.103 178.135 434.592 178.525 434.162 178.994C433.074 180.23 432.818 181.827 433.504 183.277C433.772 183.855 434.216 184.271 434.78 184.499C435.035 184.606 435.318 184.674 435.6 184.687C436.567 184.741 437.548 184.271 438.032 183.532C438.435 182.901 438.449 182.15 438.072 181.451C437.831 180.995 437.266 180.834 436.809 181.075C436.366 181.317 436.191 181.881 436.433 182.338C436.5 182.458 436.473 182.485 436.46 182.525C436.352 182.673 436.03 182.834 435.721 182.821C435.385 182.794 435.25 182.606 435.183 182.458C435.17 182.431 435.156 182.418 435.156 182.391C434.767 181.505 435.116 180.794 435.439 180.364C435.479 180.31 435.519 180.27 435.56 180.216C436.339 179.33 437.669 178.927 438.704 179.263C439.9 179.666 440.652 180.995 440.814 183.036C441.136 186.956 438.301 189.534 436.581 190.715C434.713 192.004 432.872 192.635 431.636 192.85C430.924 192.984 430.413 192.971 430.211 192.877C429.741 192.649 429.19 192.85 428.975 193.32C428.841 193.602 428.854 193.911 428.989 194.166C429.083 194.34 429.217 194.475 429.405 194.555C429.62 194.663 429.875 194.73 430.158 194.756C431.985 195.012 435.103 194.005 437.642 192.246C441.176 189.802 442.964 186.473 442.668 182.875C442.346 179.048 440.411 177.853 439.282 177.477C438.14 177.142 436.809 177.276 435.667 177.853Z" fill="#FFBE55"/>
<path opacity="0.5" d="M428.989 193.347C428.854 193.629 428.868 193.938 429.002 194.193C429.096 194.367 429.231 194.501 429.419 194.582C429.634 194.689 429.889 194.757 430.171 194.783C430.722 194.206 431.206 193.562 431.65 192.877C430.937 193.011 430.427 192.998 430.225 192.904C429.768 192.689 429.204 192.89 428.989 193.347Z" fill="#FFBE55"/>
<path d="M434.552 176.511C434.552 176.511 434.552 177.182 434.499 178.283C434.27 182.646 433.074 193.817 426.665 196.999L426.355 197.267C425.966 197.603 425.455 197.777 424.931 197.75L424.609 197.737C424.152 197.724 423.722 197.562 423.372 197.28L423.01 196.985C416.721 193.776 415.592 182.834 415.39 178.35C415.337 177.142 415.35 176.403 415.35 176.403C415.35 175.329 416.613 175.047 416.613 175.047L433.276 175.141C433.303 175.141 434.566 175.436 434.552 176.511Z" fill="#FFBE55"/>
<path d="M433.571 177.934L416.331 177.84C415.269 177.84 414.423 176.967 414.423 175.906C414.423 174.846 415.296 174 416.358 174L433.598 174.094C434.66 174.094 435.506 174.967 435.506 176.027C435.506 177.088 434.633 177.947 433.571 177.934Z" fill="#FFBE55"/>
<path d="M433.571 177.934L416.331 177.84C415.269 177.84 414.423 176.967 414.423 175.906C414.423 174.846 415.296 174 416.358 174L433.598 174.094C434.66 174.094 435.506 174.967 435.506 176.027C435.506 177.088 434.633 177.947 433.571 177.934Z" fill="#FFBE55"/>
<path d="M433.571 177.934L416.331 177.84C415.269 177.84 414.423 176.967 414.423 175.906C414.423 174.846 415.296 174 416.358 174L433.598 174.094C434.66 174.094 435.506 174.967 435.506 176.027C435.506 177.088 434.633 177.947 433.571 177.934Z" fill="#FFBE55"/>
<path d="M433.033 214.278L416.949 214.184L416.989 206.518C416.989 206.021 417.392 205.631 417.889 205.631L432.187 205.712C432.684 205.712 433.074 206.115 433.074 206.612L433.033 214.278Z" fill="#0E538C"/>
<path d="M433.974 214.291L416.008 214.184C415.928 214.184 415.86 214.117 415.874 214.036V212.949C415.874 212.868 415.941 212.801 416.022 212.801L433.988 212.908C434.068 212.908 434.135 212.976 434.135 213.056V214.144C434.122 214.224 434.055 214.291 433.974 214.291Z" fill="#FFB127"/>
<path d="M433.974 214.291L416.008 214.184C415.928 214.184 415.86 214.117 415.874 214.036V212.949C415.874 212.868 415.941 212.801 416.022 212.801L433.988 212.908C434.068 212.908 434.135 212.976 434.135 213.056V214.144C434.122 214.224 434.055 214.291 433.974 214.291Z" fill="#0B4870"/>
<path d="M428.962 205.699L421.115 205.658C421.061 205.658 421.007 205.618 421.007 205.551V204.772C421.007 204.719 421.048 204.665 421.115 204.665L428.962 204.705C429.016 204.705 429.07 204.745 429.07 204.813V205.591C429.056 205.658 429.016 205.699 428.962 205.699Z" fill="#FFBE55"/>
<path opacity="0.5" d="M428.962 205.699L421.115 205.658C421.061 205.658 421.007 205.618 421.007 205.551V204.772C421.007 204.719 421.048 204.665 421.115 204.665L428.962 204.705C429.016 204.705 429.07 204.745 429.07 204.813V205.591C429.056 205.658 429.016 205.699 428.962 205.699Z" fill="#FFBE55"/>
<path d="M308.515 321.641C337.415 321.641 360.842 321.05 360.842 320.321C360.842 319.591 337.415 319 308.515 319C279.615 319 256.188 319.591 256.188 320.321C256.188 321.05 279.615 321.641 308.515 321.641Z" fill="#D3D3D3"/>
<path d="M168.051 321.641C196.95 321.641 220.378 321.05 220.378 320.321C220.378 319.591 196.95 319 168.051 319C139.151 319 115.723 319.591 115.723 320.321C115.723 321.05 139.151 321.641 168.051 321.641Z" fill="#D3D3D3"/>
<path d="M55.3274 321.641C84.227 321.641 107.655 321.05 107.655 320.321C107.655 319.591 84.227 319 55.3274 319C26.4278 319 3 319.591 3 320.321C3 321.05 26.4278 321.641 55.3274 321.641Z" fill="#D3D3D3"/>
<path d="M337.828 270.247C337.828 270.247 340.05 275.787 340.495 276.701C340.864 277.452 341.584 277.934 342.273 278.41C342.492 278.56 342.723 278.923 342.917 279.23C343.074 279.474 343.08 279.774 342.98 280.043C341.233 284.807 335.901 286.722 335.775 286.365C335.55 285.72 336.339 284.425 337.459 283.774C338.586 283.123 339.237 281.871 339.281 280.575C339.318 279.542 339.093 278.516 338.617 277.59L336.445 273.465L337.828 270.247Z" fill="#8D511B"/>
<path d="M330.155 277.177L328.821 283.092C328.414 284.9 328.671 286.797 329.541 288.437C330.029 289.351 329.597 290.484 328.621 290.834C325.46 291.961 319.338 294.102 319.063 293.87C317.674 292.693 321.348 290.747 324.07 288.7C325.904 287.323 326.605 280.901 326.768 275.969L329.685 276.701C329.917 276.776 330.092 276.951 330.155 277.177Z" fill="#8D511B"/>
<path d="M324.559 290.628C323.251 291.059 321.817 291.197 320.503 291.36C320.353 291.379 320.209 291.435 320.09 291.529C318.832 292.505 318.193 293.488 318.932 294.114C319.226 294.364 326.424 291.817 329.228 290.809C329.817 290.596 330.073 289.92 329.779 289.369L329.247 288.368C327.776 289.301 326.218 290.083 324.559 290.628Z" fill="#0B4870"/>
<path d="M327.676 211.335C331.156 211.811 334.117 215.817 333.503 220.299C333.153 222.871 330.755 232.078 328.127 239.358C327.119 242.15 327.526 245.317 329.422 247.608C329.729 247.983 329.998 248.365 330.211 248.759C331.306 250.781 335.531 262.724 338.016 270.692C337.816 271.737 337.196 273.058 336.414 273.515C332.051 266.749 324.953 254.399 323.789 252.246C323.138 251.05 322.431 249.673 321.917 248.371C319.095 244.635 319.639 223.741 320.209 219.585C320.81 215.116 324.196 210.86 327.676 211.335Z" fill="#0B4870"/>
<path d="M326.725 177.122C326.725 177.122 323.714 179.019 324.077 181.573C324.077 181.573 322.469 180.433 322.106 176.509C321.855 173.786 326.725 177.122 326.725 177.122Z" fill="#0B4870"/>
<path d="M324.991 192.683C324.891 194.798 324.546 197.052 323.294 199.136C322.675 200.162 321.798 201.089 320.772 201.759C319.745 202.435 318.594 202.841 317.473 202.998C315.214 203.317 313.111 202.904 311.202 202.222C309.286 201.54 307.54 200.563 305.937 199.436C305.656 199.236 305.587 198.842 305.787 198.56C305.962 198.31 306.294 198.228 306.563 198.354L306.57 198.36C308.266 199.142 310.025 199.737 311.79 200.069C313.542 200.388 315.333 200.444 316.829 199.981C318.337 199.537 319.364 198.591 319.933 197.302C320.528 196.006 320.666 194.36 320.603 192.683V192.658C320.559 191.45 321.511 190.429 322.719 190.392C323.927 190.348 324.947 191.299 324.984 192.507C324.997 192.564 324.997 192.626 324.991 192.683Z" fill="#8D511B"/>
<path d="M323.357 205.921C322.149 202.291 319.727 194.598 319.933 192.082C320.065 190.473 321.41 189.24 323.025 189.24H333.51C335.25 189.24 336.671 190.617 336.721 192.357C336.808 195.393 335.412 202.309 334.624 205.927H323.357V205.921Z" fill="#FFBE55"/>
<path d="M326.837 277.252C326.675 277.151 326.581 276.964 326.587 276.77C326.806 269.058 327.276 259.225 327.445 257.341C327.463 257.128 327.488 256.915 327.52 256.702C325.867 247.583 325.617 227.985 325.454 224.555C325.241 220.042 327.958 214.947 331.463 214.784C334.968 214.615 338.774 218.245 339.9 222.383C340.645 225.112 337.772 239.633 334.655 250.155C333.998 252.371 333.898 254.699 334.23 256.99C334.455 258.574 334.524 260.201 334.411 261.447C334.242 263.3 332.164 270.848 330.217 277.314C330.161 277.502 330.011 277.652 329.823 277.69C328.822 277.909 327.77 277.821 326.837 277.252Z" fill="#0B4870"/>
<path d="M335.826 210.528C335.281 209.007 335.118 207.373 335.35 205.777C335.882 202.059 336.802 195.061 336.721 192.088C336.677 190.498 335.375 189.24 333.785 189.24H332.233C331.638 190.611 330.386 191.675 328.433 191.675C326.487 191.675 325.229 190.611 324.64 189.24H323.182C324.772 192.639 324.196 197.12 321.467 199.731C321.974 201.521 322.4 203.33 322.719 204.788C323.151 206.772 322.963 208.831 322.18 210.703C320.841 213.92 319.777 219.078 320.096 221.118C331.125 224.242 338.755 218.709 338.755 218.709L335.826 210.528Z" fill="#FFBE55"/>
<path d="M326.725 189.96L331.482 189.459L329.979 184.251L326.9 184.633L326.725 189.96Z" fill="#8D511B"/>
<path d="M326.9 184.633L329.979 184.251L330.449 185.879C329.76 186.655 328.878 188.332 327.757 188.332C327.401 188.332 327.081 188.232 326.787 188.044L326.9 184.633Z" fill="#663306"/>
<path d="M326.794 187.15C327.839 187.15 328.966 186.624 330.524 185.266C331.419 184.483 332.083 183.125 332.083 182.205V177.116H324.252C324.252 177.116 323.664 179.82 324.234 182.499C324.659 184.514 325.974 187.15 326.794 187.15Z" fill="#8D511B"/>
<path d="M330.755 181.247C330.755 182.242 331.231 183.043 331.819 183.043C332.408 183.043 333.052 181.741 333.052 180.753C333.052 179.764 332.408 179.451 331.819 179.451C331.231 179.451 330.755 180.252 330.755 181.247Z" fill="#8D511B"/>
<path d="M333.046 177.735C333.046 176.146 331.757 174.862 330.167 174.862H327.526C326.768 174.862 326.036 174.662 325.391 174.299C324.459 173.767 323.282 173.949 322.644 174.812C321.955 175.745 321.661 176.997 323.401 178.149C324.271 178.724 325.535 178.086 326.38 178.361C326.43 178.361 326.48 178.349 326.531 178.349H328.859C329.666 178.349 330.286 179.012 330.311 179.82C330.324 180.333 330.743 180.74 331.262 180.74H331.369L331.744 179.544L333.046 181.297V177.735Z" fill="#0B4870"/>
<path d="M307.271 197.484C307.271 197.484 309.03 199.274 308.798 200.018C308.566 200.763 308.579 200.695 307.433 200.475C306.288 200.256 304.986 199.718 304.241 199.055C303.496 198.391 304.698 197.045 304.873 196.876C305.462 196.319 307.69 196.169 308.31 196.789C308.929 197.408 306.075 198.629 306.326 198.247C306.576 197.865 307.602 197.321 307.734 196.801C307.878 196.288 307.271 197.484 307.271 197.484Z" fill="#8D511B"/>
<path d="M324.835 177.028C325.097 178.192 324.709 178.825 328.521 180.64C332.333 182.455 333.535 181.679 334.724 183.632C334.724 183.632 334.205 180.396 332.101 179.288C329.998 178.18 326.349 177.454 325.179 174.881C325.179 174.881 324.653 176.24 324.835 177.028Z" fill="#0B4870"/>
<path d="M325.567 177.247C325.567 177.247 325.423 181.159 321.999 183.043C321.999 183.043 323.507 180.083 323.401 178.149C323.301 176.215 325.792 175.908 325.567 177.247Z" fill="#0B4870"/>
<path d="M344.251 281.395C344.476 281.132 344.482 280.75 344.257 280.488C344.075 280.275 343.593 279.68 343.23 279.236C343.074 279.042 342.773 279.085 342.667 279.311C341.453 281.852 339.418 283.836 336.771 284.199C335.913 284.781 335.362 286.09 335.544 286.603C335.588 286.722 336.758 286.741 337.998 286.033C343.481 282.897 344.251 281.395 344.251 281.395Z" fill="#0B4870"/>
<path d="M336.858 190.592C336.883 190.88 336.883 191.043 336.889 191.255C336.889 191.456 336.889 191.65 336.883 191.844C336.871 192.232 336.839 192.607 336.795 192.989C336.708 193.747 336.57 194.498 336.37 195.243C335.944 196.72 335.312 198.178 334.367 199.461C333.422 200.745 332.195 201.827 330.837 202.604C329.478 203.386 328.02 203.874 326.568 204.125C323.657 204.613 320.834 204.381 318.162 203.818C315.483 203.261 312.923 202.409 310.457 201.389C310.137 201.258 309.981 200.888 310.119 200.569C310.237 200.288 310.538 200.131 310.832 200.194H310.838C313.398 200.732 315.965 201.189 318.506 201.364C319.777 201.458 321.035 201.452 322.268 201.402C323.488 201.295 324.703 201.158 325.817 200.801C326.925 200.457 327.964 200.018 328.846 199.399C329.729 198.785 330.442 198.015 331.006 197.133C331.582 196.263 331.957 195.243 332.207 194.179C332.326 193.64 332.42 193.096 332.47 192.545C332.495 192.269 332.514 191.994 332.514 191.719C332.52 191.581 332.52 191.45 332.52 191.318L332.508 190.993L332.502 190.836C332.464 189.628 333.415 188.62 334.623 188.583C335.781 188.533 336.764 189.428 336.858 190.592Z" fill="#8D511B"/>
<path d="M309.061 197.803C309.061 197.803 306.663 197.221 307.233 198.366C307.803 199.505 308.422 199.161 308.422 199.161L309.061 197.803Z" fill="#8D511B"/>
<path d="M56.2185 292.078C56.2185 292.078 58.1229 292.913 59.8556 292.228C62.0933 293.443 63.6301 293.906 65.5794 294.171C67.5318 294.451 67.3813 296.476 64.0761 296.254C60.7709 296.032 58.4994 296.273 57.777 296.366C57.0579 296.474 55.9024 296.614 55.7875 295.97C55.6611 295.327 55.5986 291.869 56.2185 292.078Z" fill="#0B4870"/>
<path d="M193.001 195.113C193.001 195.48 192.872 195.795 192.615 196.059C192.351 196.315 192.036 196.443 191.669 196.443L187.951 196.442C187.585 196.441 187.273 196.313 187.016 196.056C186.753 195.792 186.621 195.477 186.621 195.11L186.623 189.962L187.525 189.962L187.523 195.11C187.523 195.228 187.567 195.33 187.655 195.419C187.735 195.499 187.834 195.54 187.952 195.54L191.67 195.541C191.787 195.541 191.89 195.501 191.978 195.42C192.058 195.332 192.099 195.23 192.099 195.112L192.101 189.942L193.003 189.943L193.001 195.113ZM195.534 187.719L194.621 187.718L194.623 183.736C194.623 183.619 194.579 183.52 194.491 183.439C194.41 183.351 194.311 183.307 194.194 183.307L193.006 183.306L193.004 187.563C193.004 187.93 192.876 188.245 192.619 188.509C192.355 188.766 192.039 188.894 191.673 188.894L186.646 188.892L186.646 187.99L191.673 187.992C191.79 187.992 191.893 187.952 191.981 187.871C192.062 187.783 192.102 187.68 192.102 187.563L192.104 183.735C192.104 183.618 192.064 183.519 191.983 183.438C191.895 183.35 191.792 183.306 191.675 183.306L186.648 183.304L186.648 182.402L194.194 182.405C194.568 182.405 194.884 182.534 195.14 182.79C195.404 183.047 195.536 183.363 195.536 183.737L195.534 187.719ZM193.007 181.232L184.537 181.228L184.537 180.326L186.627 180.327L186.629 176.059C186.629 175.693 186.762 175.381 187.026 175.125C187.283 174.861 187.594 174.729 187.961 174.729L191.679 174.731C192.046 174.731 192.361 174.863 192.625 175.127C192.881 175.384 193.009 175.696 193.009 176.062L193.007 181.232ZM192.106 179.89L192.107 176.062C192.107 175.944 192.067 175.845 191.986 175.765C191.898 175.677 191.796 175.633 191.679 175.633L187.961 175.631C187.843 175.631 187.744 175.675 187.663 175.763C187.575 175.843 187.531 175.942 187.531 176.06L187.53 179.888C187.53 180.005 187.574 180.108 187.661 180.196C187.742 180.284 187.841 180.328 187.958 180.328L191.676 180.33C191.794 180.33 191.896 180.286 191.984 180.198C192.065 180.11 192.106 180.007 192.106 179.89ZM193.011 172.597C193.011 172.964 192.882 173.279 192.625 173.543C192.361 173.8 192.046 173.928 191.679 173.928L187.961 173.926C187.595 173.926 187.283 173.797 187.026 173.541C186.763 173.276 186.631 172.961 186.631 172.594L186.633 168.766C186.633 168.392 186.765 168.077 187.029 167.821C187.286 167.557 187.597 167.425 187.964 167.425L190.274 167.426L190.272 173.025L191.68 173.026C191.797 173.026 191.9 172.985 191.988 172.905C192.068 172.817 192.109 172.714 192.109 172.597L192.111 167.427L193.013 167.427L193.011 172.597ZM189.37 173.025L189.372 168.339L187.964 168.338C187.846 168.338 187.747 168.382 187.667 168.47C187.579 168.551 187.535 168.65 187.535 168.767L187.533 172.595C187.533 172.712 187.577 172.815 187.665 172.903C187.745 172.984 187.844 173.024 187.962 173.024L189.37 173.025ZM193.014 166.355L187.965 166.353C187.598 166.352 187.286 166.224 187.03 165.967C186.766 165.703 186.634 165.388 186.634 165.021L186.636 161.435L187.538 161.435L187.536 165.021C187.536 165.139 187.58 165.241 187.668 165.329C187.749 165.41 187.848 165.45 187.965 165.451L193.014 165.453L193.014 166.355ZM193.018 156.442C193.018 156.808 192.889 157.124 192.633 157.388C192.369 157.644 192.053 157.772 191.686 157.772L191.598 157.772L191.599 156.87L191.687 156.87C191.804 156.87 191.907 156.83 191.995 156.749C192.076 156.661 192.116 156.559 192.116 156.441L192.118 152.613C192.118 152.496 192.078 152.397 191.997 152.316C191.909 152.228 191.806 152.184 191.689 152.184L190.71 152.184C190.593 152.184 190.494 152.228 190.413 152.316C190.325 152.396 190.281 152.495 190.281 152.613L190.279 156.441C190.279 156.807 190.15 157.123 189.894 157.386C189.63 157.643 189.314 157.771 188.947 157.771L187.968 157.771C187.602 157.77 187.29 157.642 187.034 157.385C186.77 157.121 186.638 156.806 186.638 156.439L186.64 152.611C186.64 152.237 186.772 151.922 187.036 151.665C187.293 151.401 187.605 151.269 187.971 151.27L188.059 151.27L188.059 152.183L187.971 152.183C187.854 152.182 187.755 152.226 187.674 152.314C187.586 152.395 187.542 152.494 187.542 152.611L187.54 156.439C187.54 156.557 187.584 156.659 187.672 156.747C187.753 156.828 187.852 156.868 187.969 156.869L188.948 156.869C189.065 156.869 189.168 156.829 189.256 156.748C189.337 156.66 189.377 156.558 189.377 156.44L189.379 152.612C189.379 152.238 189.511 151.923 189.775 151.666C190.032 151.402 190.344 151.271 190.71 151.271L191.689 151.271C192.056 151.271 192.371 151.404 192.635 151.668C192.892 151.924 193.02 152.24 193.02 152.614L193.018 156.442ZM193.021 148.857C193.021 149.223 192.893 149.539 192.636 149.803C192.372 150.059 192.056 150.187 191.69 150.187L189.38 150.186L189.382 144.598L187.974 144.598C187.857 144.597 187.758 144.641 187.677 144.729C187.589 144.81 187.545 144.909 187.545 145.026L187.543 150.185L186.641 150.185L186.643 145.026C186.643 144.652 186.775 144.337 187.04 144.08C187.296 143.816 187.608 143.684 187.975 143.685L193.024 143.687L193.021 148.857ZM192.119 148.856L192.121 144.599L190.284 144.599L190.282 149.285L191.69 149.285C191.808 149.285 191.91 149.245 191.998 149.164C192.079 149.076 192.119 148.974 192.119 148.856ZM193.024 142.539L185.885 142.536C185.511 142.536 185.196 142.407 184.939 142.15C184.683 141.894 184.555 141.578 184.555 141.204L184.556 138.872L185.458 138.873L185.457 141.205C185.457 141.322 185.501 141.425 185.589 141.513C185.669 141.593 185.768 141.634 185.886 141.634L186.645 141.634L186.646 138.873L187.548 138.874L187.547 141.635L193.025 141.637L193.024 142.539ZM193.027 136.751C193.027 137.117 192.898 137.433 192.641 137.696C192.377 137.953 192.062 138.081 191.695 138.081L187.977 138.079C187.611 138.079 187.299 137.951 187.042 137.694C186.778 137.43 186.647 137.114 186.647 136.748L186.649 132.92C186.649 132.546 186.781 132.23 187.045 131.974C187.302 131.71 187.613 131.578 187.98 131.578L190.29 131.579L190.288 137.178L191.696 137.179C191.813 137.179 191.916 137.139 192.004 137.058C192.084 136.97 192.125 136.868 192.125 136.75L192.127 131.58L193.029 131.581L193.027 136.751ZM189.386 137.178L189.388 132.492L187.98 132.491C187.862 132.491 187.763 132.535 187.683 132.623C187.595 132.704 187.551 132.803 187.551 132.92L187.549 136.748C187.549 136.865 187.593 136.968 187.681 137.056C187.761 137.137 187.86 137.177 187.978 137.177L189.386 137.178ZM193.031 127.457L186.651 127.454L186.651 126.552L193.031 126.555L193.031 127.457ZM185.463 127.454L184.561 127.454L184.561 126.552L185.463 126.552L185.463 127.454ZM193.032 125.169L187.983 125.167C187.616 125.167 187.305 125.038 187.048 124.782C186.784 124.517 186.652 124.202 186.653 123.835L186.654 120.249L187.556 120.25L187.555 123.836C187.554 123.953 187.598 124.056 187.686 124.144C187.767 124.225 187.866 124.265 187.983 124.265L193.032 124.267L193.032 125.169ZM193.035 118.22C193.035 118.587 192.906 118.902 192.65 119.166C192.386 119.423 192.07 119.551 191.703 119.551L187.985 119.549C187.619 119.549 187.307 119.42 187.051 119.164C186.787 118.9 186.655 118.584 186.655 118.217L186.657 114.389C186.657 114.015 186.789 113.7 187.053 113.444C187.31 113.18 187.622 113.048 187.988 113.048L190.298 113.049L190.296 118.648L191.704 118.649C191.821 118.649 191.924 118.608 192.012 118.528C192.093 118.44 192.133 118.337 192.133 118.22L192.135 113.05L193.037 113.05L193.035 118.22ZM189.394 118.648L189.396 113.962L187.988 113.961C187.871 113.961 187.772 114.005 187.691 114.093C187.603 114.174 187.559 114.273 187.559 114.39L187.557 118.218C187.557 118.335 187.601 118.438 187.689 118.526C187.77 118.607 187.869 118.647 187.986 118.647L189.394 118.648ZM193.038 110.808C193.038 111.175 192.91 111.49 192.653 111.754C192.389 112.01 192.073 112.139 191.707 112.138L184.568 112.135L184.568 111.233L191.707 111.236C191.824 111.236 191.927 111.196 192.015 111.116C192.096 111.028 192.136 110.925 192.136 110.808L192.137 109.73L193.039 109.73L193.038 110.808ZM193.04 107.596C193.04 107.963 192.911 108.278 192.654 108.542C192.39 108.798 192.075 108.927 191.708 108.926L189.398 108.925L189.401 103.337L187.993 103.337C187.875 103.337 187.776 103.381 187.696 103.469C187.608 103.549 187.564 103.648 187.563 103.766L187.561 108.925L186.659 108.924L186.661 103.765C186.662 103.391 186.794 103.076 187.058 102.819C187.315 102.555 187.626 102.424 187.993 102.424L193.042 102.426L193.04 107.596ZM192.138 107.596L192.14 103.339L190.303 103.338L190.301 108.024L191.709 108.024C191.826 108.025 191.929 107.984 192.017 107.904C192.097 107.816 192.138 107.713 192.138 107.596ZM193.043 101.428L186.663 101.426L186.665 96.2556C186.665 95.889 186.797 95.5774 187.061 95.3208C187.318 95.0569 187.63 94.9251 187.996 94.9252L193.045 94.9275L193.045 95.8295L187.996 95.8272C187.879 95.8272 187.78 95.8711 187.699 95.9591C187.611 96.0397 187.567 96.1387 187.567 96.256L187.565 100.084C187.565 100.201 187.609 100.304 187.697 100.392C187.778 100.48 187.877 100.524 187.994 100.524L193.043 100.526L193.043 101.428ZM193.046 92.7683C193.046 93.1423 192.918 93.4612 192.661 93.7251C192.397 93.9817 192.081 94.1099 191.715 94.1097L187.997 94.1081C187.63 94.1079 187.318 93.9794 187.062 93.7226C186.798 93.4585 186.666 93.1395 186.666 92.7655L186.668 88.5085L184.578 88.5075L184.579 87.6055L193.049 87.6093L193.046 92.7683ZM192.144 92.7679L192.146 88.9399C192.146 88.8226 192.106 88.7236 192.025 88.6428C191.937 88.5548 191.835 88.5108 191.717 88.5107L187.999 88.5091C187.882 88.509 187.783 88.553 187.702 88.6409C187.614 88.7216 187.57 88.8205 187.57 88.9379L187.568 92.7659C187.568 92.8832 187.612 92.9859 187.7 93.0739C187.781 93.1546 187.88 93.195 187.997 93.1951L191.715 93.1967C191.833 93.1968 191.935 93.1565 192.023 93.0758C192.104 92.9879 192.144 92.8852 192.144 92.7679Z" fill="#53FFFF"/>
<path d="M36.2413 291.019C36.2413 291.019 37.9271 292.034 39.7651 291.78C41.6967 293.163 43.1016 293.81 44.9513 294.368C46.801 294.938 46.2274 296.562 43.0431 295.801C39.8587 295.04 37.5876 294.837 36.8618 294.786C36.1359 294.748 34.9769 294.659 35.0003 294.114C35.0121 293.569 35.6794 290.74 36.2413 291.019Z" fill="#0B4870"/>
</svg>
