<svg width="461" height="414" viewBox="0 0 461 414" fill="none" xmlns="http://www.w3.org/2000/svg">
<path opacity="0.09" d="M41.3389 370.872C41.3389 263.069 128.729 175.679 236.532 175.679C344.336 175.679 431.726 263.069 431.726 370.872" fill="#2A94F4"/>
<path d="M327.082 310.752C325.845 310.752 324.631 310.823 323.433 310.957C321.132 305.432 317.822 300.443 313.731 296.195C313.794 295.383 313.833 294.564 313.833 293.728C313.833 275.443 299.016 260.626 280.731 260.626C262.454 260.626 247.629 275.443 247.629 293.728C242.175 298.607 237.856 304.731 235.097 311.651C230.077 312.841 225.49 315.166 221.643 318.358C221.517 318.185 221.399 318.011 221.281 317.846C225.364 312.336 227.783 305.527 227.783 298.142C227.783 279.857 212.966 265.039 194.681 265.039C176.396 265.039 161.578 279.857 161.578 298.142C161.578 301.09 161.965 303.943 162.69 306.662C160.648 306.268 158.544 306.055 156.392 306.055C138.107 306.055 123.29 320.872 123.29 339.157C123.29 357.442 138.107 372.26 156.392 372.26C164.037 372.26 171.068 369.667 176.672 365.316C181.858 368.689 188.037 370.652 194.689 370.652C202.712 370.652 210.073 367.791 215.803 363.046C221.785 371.464 231.621 376.957 242.75 376.957C248.779 376.957 254.431 375.333 259.301 372.52C265.409 375.365 272.211 376.957 279.399 376.957C289.101 376.957 298.126 374.049 305.652 369.075C311.43 373.986 318.909 376.957 327.082 376.957C345.367 376.957 360.185 362.14 360.185 343.855C360.185 325.57 345.367 310.752 327.082 310.752Z" fill="#F2F2F2"/>
<path d="M301.018 371.156H280.439V147.605H301.018V371.156ZM281.842 369.753H299.607V149.016H281.842V369.753Z" fill="#2A94F4"/>
<path d="M299.877 359.567L280.704 369.674L281.535 371.249L300.708 361.143L299.877 359.567Z" fill="#2A94F4"/>
<path d="M299.877 325.401L280.704 335.508L281.535 337.084L300.708 326.977L299.877 325.401Z" fill="#2A94F4"/>
<path d="M299.877 291.236L280.704 301.342L281.535 302.918L300.708 292.811L299.877 291.236Z" fill="#2A94F4"/>
<path d="M299.905 257.091L280.734 267.204L281.565 268.779L300.736 258.666L299.905 257.091Z" fill="#2A94F4"/>
<path d="M299.907 222.934L280.736 233.048L281.567 234.623L300.738 224.51L299.907 222.934Z" fill="#2A94F4"/>
<path d="M299.891 188.709L280.72 198.82L281.551 200.396L300.722 190.285L299.891 188.709Z" fill="#2A94F4"/>
<path d="M299.889 154.544L280.718 164.655L281.549 166.231L300.72 156.12L299.889 154.544Z" fill="#2A94F4"/>
<path d="M190.891 371.156H170.312V147.605H190.891V371.156ZM171.715 369.753H189.48V149.016H171.715V369.753Z" fill="#2A94F4"/>
<path d="M189.756 359.562L170.583 369.668L171.414 371.244L190.587 361.137L189.756 359.562Z" fill="#2A94F4"/>
<path d="M189.756 325.396L170.583 335.502L171.414 337.078L190.587 326.972L189.756 325.396Z" fill="#2A94F4"/>
<path d="M189.756 291.23L170.583 301.337L171.414 302.912L190.587 292.806L189.756 291.23Z" fill="#2A94F4"/>
<path d="M189.778 257.086L170.607 267.199L171.438 268.774L190.609 258.661L189.778 257.086Z" fill="#2A94F4"/>
<path d="M189.781 222.928L170.61 233.042L171.441 234.617L190.612 224.504L189.781 222.928Z" fill="#2A94F4"/>
<path d="M189.772 188.709L170.602 198.82L171.433 200.396L190.603 190.285L189.772 188.709Z" fill="#2A94F4"/>
<path d="M189.77 154.545L170.6 164.656L171.431 166.231L190.601 156.12L189.77 154.545Z" fill="#2A94F4"/>
<path d="M438.606 414H21.6742C9.70214 414 0 404.298 0 392.326C0 380.354 9.70214 370.652 21.6742 370.652H438.606C450.578 370.652 460.28 380.354 460.28 392.326C460.28 404.298 450.578 414 438.606 414Z" fill="#F2F2F2"/>
<path d="M109.246 223.583C109.238 223.583 109.238 223.583 109.23 223.583C109.293 223.606 109.301 223.614 109.246 223.583Z" fill="#0B4870"/>
<path d="M70.8154 360.658L70.8312 365.442C70.8312 366.419 70.705 367.389 70.4371 368.327L70.0194 369.8C69.6804 371.014 70.5868 372.212 71.8479 372.212C75.1108 372.204 80.6831 372.212 82.1175 372.212C82.354 372.212 82.5825 372.054 82.6062 371.818C82.7244 370.423 78.6891 369.485 75.6468 368.311C73.3296 367.412 73.4557 363.251 73.7394 360.815C73.8498 359.893 73.0774 359.113 72.1631 359.192C71.3986 359.255 70.8154 359.893 70.8154 360.658Z" fill="#FCD2B1"/>
<path d="M48.408 359.318L46.7608 364.796C46.6898 365.04 46.5795 365.269 46.4377 365.474L45.2712 367.208C44.5303 368.311 45.0663 369.816 46.3352 370.203C46.3352 370.203 48.6918 371.03 51.1271 371.834C53.6177 372.654 56.7467 371.968 56.7467 371.314C56.7467 369.856 55.3832 371.014 53.1054 369.485C52.3409 368.973 51.5527 368.437 50.8513 367.885C48.8888 366.348 50.5991 362.447 51.805 360.256C52.2385 359.468 51.7813 358.491 50.8986 358.301L50.3311 358.183C49.4799 358.01 48.6524 358.498 48.408 359.318Z" fill="#FCD2B1"/>
<path d="M65.2593 295.249L83.3316 293.736C83.3316 293.736 85.1522 306.89 80.5809 330.7C78.4371 341.868 73.9762 363.204 73.9762 363.204C72.8728 363.684 71.7457 363.811 70.6029 363.527C70.6029 363.527 70.264 354.116 70.0591 343.981C69.8621 334.263 69.8069 323.875 69.1843 320.47C67.9154 313.527 65.2593 295.249 65.2593 295.249Z" fill="#0B4870"/>
<path d="M68.9866 295.478C70.8545 305.495 75.0238 320.47 66.9926 334.531C58.9613 348.599 50.5281 363.219 50.5281 363.219C49.4404 363.267 48.4553 362.873 47.541 362.171C47.541 362.171 48.9518 355.795 50.9852 348.347C53.3103 339.827 56.2658 329.81 55.4225 324.584C53.8462 314.795 52.0414 301.752 52.5852 295.423C53.1369 289.102 68.0093 290.213 68.9866 295.478Z" fill="#0B4870"/>
<path d="M82.5508 260.05L96.7927 267.877L111.098 245.367L93.7977 239.361L82.5508 260.05Z" fill="#0B4870"/>
<path d="M83.457 259.372L96.7768 266.694L110.152 245.643L93.971 240.023L83.457 259.372Z" fill="#D3D3D3"/>
<path d="M78.5791 255.432C78.5791 255.432 81.0618 254.25 82.1494 253.627C83.2371 253.004 86.035 252.153 86.2636 251.956C86.4921 251.751 94.5628 251.255 95.0514 250.837C95.5401 250.411 96.013 251.83 93.9244 252.287C91.8358 252.744 88.9196 253.863 88.762 254.683C88.6044 255.503 90.9137 255.692 91.1422 256.37C91.3787 257.04 91.0792 256.89 90.7481 257.04C90.4171 257.182 88.0054 255.85 86.9414 256.228C85.8774 256.606 84.2538 256.078 83.442 256.362C82.6302 256.638 78.6737 257.97 78.6737 257.97L78.5791 255.432Z" fill="#FCD2B1"/>
<path d="M83.0548 257.182L84.3316 256.709C84.3316 256.709 82.7396 252.973 82.046 253.059C81.2421 253.162 80.249 253.43 80.249 253.43L83.0548 257.182Z" fill="#D3D3D3"/>
<path d="M83.3464 257.828C83.1809 257.71 80.6351 252.815 80.6351 252.815L75.1812 253.556L78.1288 259.357L83.3464 257.828Z" fill="#FCD2B1"/>
<path d="M97.4943 265.055C97.4943 265.055 99.575 263.179 100.584 262.399C101.593 261.619 103.484 259.31 103.76 259.176C104.036 259.042 107.654 251.625 108.237 251.334C108.828 251.034 107.677 250.041 106.432 251.83C105.187 253.627 102.996 255.928 102.16 255.763C101.325 255.597 102.042 253.343 101.498 252.863C100.954 252.382 100.978 252.721 100.718 252.973C100.45 253.233 100.773 256.023 100.001 256.874C99.2282 257.725 99.0942 259.459 98.511 260.121C97.9356 260.783 95.1377 263.991 95.1377 263.991L97.4943 265.055Z" fill="#FCD2B1"/>
<path d="M64.2901 218.799C64.2901 218.799 70.5401 216.466 73.4247 221.226C76.3093 225.986 76.0256 235.507 72.8809 236.674C69.7283 237.848 64.9994 237.233 63.3837 234.254C61.768 231.275 60.3178 226.972 60.3887 224.103C60.4518 221.218 62.6428 219.626 64.2901 218.799Z" fill="#FCD2B1"/>
<path d="M72.1945 236.887C72.1945 236.887 71.6901 241.371 72.1236 242.207C72.5571 243.034 64.3209 242.207 64.3209 242.207C64.3209 242.207 63.5801 235.736 62.2639 231.921C60.9477 228.099 72.1945 236.887 72.1945 236.887Z" fill="#FCD2B1"/>
<path d="M62.2643 231.921C62.2643 231.921 62.5638 236.737 64.9677 236.359C67.3715 235.98 70.5871 228.942 71.5881 228.595C72.589 228.241 72.5969 227.657 72.5969 227.657L73.2275 228.572L74.2915 228.643C74.2915 228.643 73.322 225.782 74.788 224.615C76.254 223.449 73.2669 215.362 65.5667 218.058C65.5667 218.058 59.6476 219.689 59.8683 223.055C60.0732 226.412 60.9402 230.242 62.2643 231.921Z" fill="#0B4870"/>
<path d="M73.0926 243.208C73.0926 243.208 73.069 241.624 72.3439 241.466C71.6267 241.316 64.3993 240.623 63.5166 240.969V242.822C63.5166 242.822 65.219 243.862 73.0926 243.208Z" fill="#D3D3D3"/>
<path d="M72.4385 226.428C72.3045 225.86 70.87 224.253 70.3183 225.979C69.7666 227.705 71.1459 230.03 71.9183 229.825C72.6907 229.628 72.7852 227.855 72.4385 226.428Z" fill="#FCD2B1"/>
<path d="M51.4892 302.508C51.4892 302.508 55.3196 303.635 61.8534 304.36C68.3872 305.077 84.7176 304.1 84.8201 303.328C84.9226 302.555 81.305 274.576 81.5099 273.134C81.7148 271.691 81.8251 266.56 81.8251 266.56C81.9039 267.971 83.3384 273.717 85.0723 276.846C85.6949 277.981 87.7914 281.527 88.8081 280.716C93.7026 276.814 101.277 262.092 101.757 261.966C101.355 261.792 98.1635 260.326 97.7221 260.176C97.328 260.042 93.805 263.778 91.6612 266.095C90.7076 267.128 90.0298 267.877 90.0298 267.877C89.415 266.49 87.1609 257.733 86.4673 254.707C84.891 247.873 85.1353 247.59 85.1353 247.59C80.3513 246.139 73.1003 243.2 73.1003 243.2L63.5243 242.813C63.5243 242.813 54.7364 244.744 51.2764 246.313C50.9454 246.463 50.9454 254.155 50.0469 256.173L52.9158 262.226C52.9158 262.226 54.5709 274.221 54.9176 279.549C55.0674 282 51.4892 302.508 51.4892 302.508Z" fill="#E6C48E"/>
<path d="M49.637 266.159C49.8892 266.963 51.0242 267.648 51.7571 267.948C52.23 268.137 52.7581 268.2 53.294 268.105L53.6723 268.034L60.2376 266.813C60.2376 266.813 61.672 250.277 51.2764 246.313C50.9926 246.408 47.3435 258.758 49.637 266.159Z" fill="#E5C48E"/>
<path d="M62.5075 219.358C62.5075 219.358 54.6418 220.154 62.3657 232.095L62.5075 219.358Z" fill="#0B4870"/>
<path d="M104.516 244.161L105.343 242.727L98.786 240.465L97.9585 241.891L104.516 244.161Z" fill="#0B4870"/>
<path opacity="0.09" d="M101.419 160.412H148.716C148.716 160.412 152.743 151.246 140.937 149.631C129.13 148.023 143.616 141.245 131.274 140.173C118.932 139.101 128.334 150.434 115.716 148.827C103.105 147.219 95.886 152.854 99.7637 153.39C103.634 153.926 68.0721 160.412 101.419 160.412Z" fill="#2A94F4"/>
<path opacity="0.09" d="M167.963 120.012H215.252C215.252 120.012 219.279 110.846 207.473 109.23C195.666 107.622 210.153 100.844 197.81 99.7721C185.468 98.7002 194.87 110.034 182.252 108.426C169.642 106.818 162.422 112.453 166.3 112.989C170.178 113.525 134.624 120.012 167.963 120.012Z" fill="#2A94F4"/>
<path opacity="0.09" d="M328.218 198.89H375.515C375.515 198.89 379.542 189.724 367.736 188.108C355.929 186.5 370.415 179.722 358.073 178.65C345.731 177.578 355.133 188.912 342.515 187.304C329.904 185.696 322.685 191.332 326.563 191.867C330.44 192.403 294.879 198.89 328.218 198.89Z" fill="#2A94F4"/>
<path d="M242.797 309.203L243.847 266.816C243.93 263.435 241.213 260.649 237.831 260.649C234.459 260.649 231.745 263.419 231.814 266.79L232.676 308.913C232.693 309.712 232.896 310.495 233.269 311.201L233.384 311.418C235.365 315.16 240.81 314.898 242.422 310.983C242.655 310.417 242.782 309.814 242.797 309.203Z" fill="#FF9255" fill-opacity="0.74"/>
<path opacity="0.09" d="M266.079 120.012H313.376C313.376 120.012 317.404 110.846 305.597 109.23C293.791 107.622 308.277 100.844 295.934 99.7721C283.592 98.7002 292.995 110.034 280.376 108.426C267.758 106.818 260.546 112.453 264.424 112.989C268.302 113.525 232.74 120.012 266.079 120.012Z" fill="#2A94F4"/>
<path d="M266.276 54.5637H209.758V259.656H266.276V54.5637Z" fill="#0B65B7"/>
<path d="M238.021 0C213.147 24.874 209.758 54.5636 209.758 54.5636H238.021H266.284C266.284 54.5636 262.895 24.874 238.021 0Z" fill="#0B4870"/>
<g opacity="0.54">
<g opacity="0.54">
<path opacity="0.54" d="M248.129 71.809C248.129 77.3942 243.605 81.9183 238.02 81.9183C232.434 81.9183 227.91 77.3942 227.91 71.809C227.91 66.2237 232.434 61.6996 238.02 61.6996C243.605 61.6996 248.129 66.2237 248.129 71.809Z" fill="#D3D3D3"/>
</g>
</g>
<g opacity="0.54">
<g opacity="0.54">
<path opacity="0.54" d="M237.984 100.734C242.852 100.734 246.798 96.7878 246.798 91.9198C246.798 87.0519 242.852 83.1056 237.984 83.1056C233.116 83.1056 229.169 87.0519 229.169 91.9198C229.169 96.7878 233.116 100.734 237.984 100.734Z" fill="#D3D3D3"/>
</g>
</g>
<path d="M244.551 91.9199C244.551 95.5493 241.613 98.4873 237.983 98.4873C234.354 98.4873 231.416 95.5493 231.416 91.9199C231.416 88.2956 234.354 85.3524 237.983 85.3524C241.613 85.3524 244.551 88.2956 244.551 91.9199Z" fill="#D3D3D3"/>
<path d="M245.553 71.8091C245.553 75.966 242.183 79.3416 238.02 79.3416C233.858 79.3416 230.488 75.9718 230.488 71.8091C230.488 67.6464 233.858 64.2766 238.02 64.2766C242.183 64.2766 245.553 67.6464 245.553 71.8091Z" fill="#D3D3D3"/>
<path d="M217.347 308.408L215.203 266.062C215.032 262.684 212.112 260.111 208.74 260.365C205.377 260.619 202.88 263.586 203.202 266.942L207.233 308.881C207.309 309.675 207.571 310.441 207.996 311.117L208.127 311.325C210.384 314.907 215.794 314.235 217.107 310.21C217.296 309.629 217.378 309.018 217.347 308.408Z" fill="#FF9255" fill-opacity="0.74"/>
<path d="M248.205 265.694H227.839C227.839 260.066 232.394 255.511 238.022 255.511C243.649 255.511 248.205 260.074 248.205 265.694Z" fill="#0B4870"/>
<path d="M219.941 265.694H199.575C199.575 260.066 204.131 255.511 209.758 255.511C215.385 255.511 219.941 260.074 219.941 265.694Z" fill="#0B4870"/>
<path d="M268.965 308.289L273.495 266.132C273.857 262.769 271.377 259.769 268.007 259.491C264.646 259.214 261.714 261.751 261.506 265.117L258.902 307.168C258.852 307.965 258.99 308.763 259.305 309.497L259.402 309.722C261.068 313.614 266.517 313.801 268.445 310.031C268.723 309.487 268.9 308.897 268.965 308.289Z" fill="#FF9255" fill-opacity="0.74"/>
<path d="M275.174 266.087H259C259 261.618 262.624 258 267.087 258C271.55 258 275.174 261.624 275.174 266.087Z" fill="#0B4870"/>
<path d="M415.518 346.407C415.518 346.407 418.376 353.533 418.948 354.709C419.423 355.675 420.349 356.295 421.235 356.907C421.517 357.1 421.814 357.567 422.064 357.962C422.265 358.276 422.273 358.662 422.145 359.008C419.898 365.136 413.038 367.6 412.877 367.141C412.587 366.311 413.601 364.645 415.043 363.807C416.492 362.97 417.329 361.359 417.386 359.693C417.434 358.364 417.144 357.044 416.532 355.852L413.738 350.546L415.518 346.407Z" fill="#8D511B"/>
<path d="M405.646 355.321L403.931 362.93C403.407 365.257 403.737 367.696 404.857 369.806C405.485 370.982 404.929 372.439 403.673 372.89C399.607 374.339 391.732 377.093 391.378 376.795C389.59 375.281 394.317 372.777 397.819 370.144C400.178 368.373 401.08 360.112 401.29 353.767L405.042 354.709C405.34 354.805 405.565 355.031 405.646 355.321Z" fill="#8D511B"/>
<path d="M398.447 372.624C396.764 373.18 394.92 373.357 393.229 373.566C393.036 373.59 392.851 373.663 392.698 373.784C391.079 375.04 390.258 376.304 391.208 377.109C391.587 377.431 400.846 374.154 404.454 372.858C405.21 372.584 405.541 371.714 405.162 371.006L404.478 369.717C402.586 370.917 400.581 371.924 398.447 372.624Z" fill="#0B4870"/>
<path d="M402.457 270.622C406.934 271.234 410.742 276.387 409.953 282.152C409.502 285.462 406.418 297.306 403.037 306.671C401.74 310.262 402.264 314.336 404.703 317.283C405.098 317.766 405.444 318.257 405.718 318.765C407.127 321.365 412.562 336.729 415.759 346.979C415.501 348.323 414.704 350.022 413.697 350.61C408.085 341.906 398.954 326.02 397.457 323.25C396.619 321.712 395.709 319.94 395.049 318.265C391.418 313.458 392.118 286.581 392.851 281.235C393.624 275.485 397.98 270.01 402.457 270.622Z" fill="#0B4870"/>
<path d="M401.233 226.61C401.233 226.61 397.36 229.05 397.827 232.335C397.827 232.335 395.757 230.87 395.29 225.821C394.968 222.318 401.233 226.61 401.233 226.61Z" fill="#0B4870"/>
<path d="M399.002 246.627C398.873 249.349 398.43 252.247 396.82 254.929C396.023 256.249 394.896 257.441 393.575 258.303C392.254 259.172 390.773 259.696 389.332 259.897C386.425 260.307 383.719 259.776 381.264 258.898C378.8 258.021 376.553 256.765 374.492 255.315C374.13 255.058 374.041 254.55 374.299 254.188C374.524 253.866 374.951 253.761 375.297 253.922L375.305 253.93C377.487 254.937 379.75 255.702 382.02 256.128C384.275 256.539 386.578 256.612 388.502 256.016C390.443 255.444 391.763 254.228 392.496 252.57C393.261 250.903 393.438 248.785 393.358 246.627V246.595C393.301 245.041 394.525 243.728 396.079 243.68C397.633 243.624 398.946 244.848 398.994 246.402C399.01 246.474 399.01 246.555 399.002 246.627Z" fill="#8D511B"/>
<path d="M396.901 263.657C395.347 258.987 392.231 249.091 392.497 245.854C392.666 243.785 394.397 242.199 396.475 242.199H409.962C412.2 242.199 414.028 243.97 414.092 246.208C414.205 250.114 412.409 259.011 411.395 263.665H396.901V263.657Z" fill="#FFBE55"/>
<path d="M401.378 355.417C401.169 355.288 401.048 355.047 401.056 354.797C401.338 344.877 401.942 332.228 402.159 329.804C402.183 329.53 402.215 329.256 402.256 328.983C400.13 317.251 399.808 292.04 399.599 287.628C399.325 281.822 402.819 275.268 407.328 275.059C411.837 274.841 416.733 279.511 418.182 284.834C419.141 288.344 415.445 307.025 411.435 320.56C410.589 323.411 410.461 326.406 410.887 329.353C411.177 331.39 411.266 333.484 411.121 335.086C410.903 337.469 408.23 347.18 405.726 355.498C405.654 355.739 405.46 355.932 405.219 355.981C403.93 356.263 402.578 356.15 401.378 355.417Z" fill="#0B4870"/>
<path d="M412.941 269.583C412.24 267.627 412.031 265.525 412.329 263.472C413.013 258.689 414.197 249.687 414.092 245.862C414.036 243.817 412.361 242.199 410.316 242.199H408.319C407.554 243.962 405.944 245.331 403.431 245.331C400.927 245.331 399.309 243.962 398.552 242.199H396.676C398.721 246.571 397.98 252.336 394.47 255.694C395.122 257.997 395.669 260.324 396.08 262.2C396.636 264.752 396.394 267.401 395.388 269.809C393.664 273.947 392.296 280.582 392.706 283.207C406.894 287.225 416.709 280.107 416.709 280.107L412.941 269.583Z" fill="#FFBE55"/>
<path d="M401.233 243.124L407.352 242.48L405.42 235.781L401.458 236.272L401.233 243.124Z" fill="#8D511B"/>
<path d="M401.458 236.272L405.42 235.781L406.024 237.875C405.138 238.873 404.003 241.031 402.562 241.031C402.103 241.031 401.692 240.902 401.313 240.661L401.458 236.272Z" fill="#663306"/>
<path d="M401.322 239.509C402.667 239.509 404.116 238.833 406.121 237.086C407.273 236.079 408.126 234.332 408.126 233.148V226.602H398.053C398.053 226.602 397.296 230.081 398.029 233.527C398.577 236.12 400.267 239.509 401.322 239.509Z" fill="#8D511B"/>
<path d="M406.419 231.916C406.419 233.197 407.031 234.227 407.788 234.227C408.545 234.227 409.374 232.552 409.374 231.28C409.374 230.008 408.545 229.605 407.788 229.605C407.031 229.605 406.419 230.636 406.419 231.916Z" fill="#8D511B"/>
<path d="M409.365 227.399C409.365 225.354 407.706 223.703 405.661 223.703H402.263C401.289 223.703 400.347 223.446 399.517 222.979C398.317 222.294 396.804 222.528 395.982 223.639C395.097 224.839 394.718 226.449 396.957 227.931C398.076 228.671 399.702 227.85 400.789 228.204C400.854 228.204 400.918 228.188 400.983 228.188H403.978C405.017 228.188 405.814 229.042 405.846 230.08C405.862 230.741 406.402 231.264 407.07 231.264H407.207L407.69 229.726L409.365 231.981V227.399Z" fill="#0B4870"/>
<path d="M376.207 252.803C376.207 252.803 378.47 255.106 378.172 256.064C377.874 257.022 377.89 256.934 376.417 256.652C374.943 256.37 373.268 255.678 372.31 254.824C371.352 253.971 372.898 252.24 373.124 252.022C373.88 251.305 376.747 251.112 377.544 251.909C378.341 252.706 374.67 254.277 374.992 253.785C375.314 253.294 376.634 252.594 376.803 251.925C376.988 251.265 376.207 252.803 376.207 252.803Z" fill="#8D511B"/>
<path d="M398.801 226.489C399.139 227.987 398.64 228.8 403.544 231.135C408.447 233.47 409.993 232.472 411.523 234.984C411.523 234.984 410.855 230.821 408.149 229.396C405.444 227.971 400.75 227.037 399.244 223.728C399.244 223.728 398.567 225.475 398.801 226.489Z" fill="#0B4870"/>
<path d="M399.743 226.771C399.743 226.771 399.558 231.804 395.154 234.227C395.154 234.227 397.094 230.419 396.957 227.931C396.829 225.443 400.033 225.048 399.743 226.771Z" fill="#0B4870"/>
<path d="M423.779 360.748C424.069 360.409 424.077 359.918 423.787 359.58C423.554 359.306 422.934 358.541 422.467 357.97C422.265 357.72 421.879 357.776 421.742 358.066C420.18 361.335 417.563 363.888 414.157 364.355C413.054 365.104 412.345 366.787 412.579 367.447C412.635 367.6 414.141 367.624 415.735 366.714C422.789 362.68 423.779 360.748 423.779 360.748Z" fill="#0B4870"/>
<path d="M414.269 243.938C414.301 244.308 414.301 244.518 414.309 244.791C414.309 245.049 414.309 245.299 414.301 245.548C414.285 246.047 414.244 246.531 414.188 247.022C414.075 247.996 413.898 248.962 413.641 249.92C413.093 251.821 412.28 253.697 411.064 255.347C409.848 256.998 408.27 258.391 406.523 259.389C404.775 260.396 402.899 261.024 401.031 261.346C397.287 261.974 393.656 261.676 390.217 260.952C386.771 260.235 383.478 259.14 380.305 257.827C379.895 257.658 379.694 257.183 379.871 256.773C380.024 256.41 380.41 256.209 380.789 256.289H380.797C384.09 256.982 387.391 257.57 390.66 257.795C392.295 257.916 393.913 257.908 395.5 257.844C397.07 257.707 398.632 257.529 400.065 257.071C401.49 256.628 402.827 256.064 403.962 255.267C405.097 254.478 406.015 253.487 406.74 252.352C407.481 251.233 407.964 249.92 408.286 248.552C408.439 247.859 408.56 247.159 408.624 246.45C408.656 246.096 408.681 245.741 408.681 245.387C408.689 245.21 408.689 245.041 408.689 244.872L408.672 244.453L408.664 244.252C408.616 242.698 409.84 241.401 411.394 241.353C412.884 241.289 414.148 242.44 414.269 243.938Z" fill="#8D511B"/>
<path d="M378.51 253.214C378.51 253.214 375.426 252.465 376.159 253.939C376.892 255.404 377.689 254.961 377.689 254.961L378.51 253.214Z" fill="#8D511B"/>
<path d="M243.001 236.598C243.001 237.065 242.837 237.466 242.511 237.802C242.174 238.129 241.773 238.292 241.306 238.291L236.574 238.289C236.108 238.289 235.711 238.126 235.385 237.799C235.049 237.463 234.881 237.061 234.881 236.595L234.884 230.043L236.032 230.043L236.029 236.595C236.029 236.744 236.085 236.875 236.197 236.987C236.3 237.09 236.425 237.141 236.575 237.141L241.307 237.143C241.456 237.144 241.587 237.092 241.699 236.99C241.802 236.878 241.853 236.747 241.853 236.598L241.856 230.018L243.004 230.018L243.001 236.598ZM246.225 227.187L245.063 227.187L245.066 222.119C245.066 221.969 245.01 221.843 244.898 221.741C244.795 221.629 244.669 221.573 244.52 221.573L243.008 221.572L243.005 226.99C243.005 227.457 242.842 227.858 242.515 228.194C242.179 228.52 241.777 228.683 241.311 228.683L234.913 228.68L234.913 227.532L241.311 227.535C241.46 227.535 241.591 227.484 241.703 227.381C241.806 227.269 241.857 227.139 241.857 226.989L241.86 222.117C241.86 221.968 241.808 221.842 241.706 221.739C241.594 221.627 241.463 221.571 241.314 221.571L234.916 221.568L234.916 220.42L244.52 220.425C244.996 220.425 245.398 220.588 245.724 220.915C246.06 221.242 246.228 221.643 246.228 222.119L246.225 227.187ZM243.009 218.932L232.229 218.927L232.229 217.779L234.889 217.78L234.892 212.348C234.892 211.882 235.06 211.485 235.396 211.158C235.723 210.823 236.12 210.655 236.587 210.655L241.319 210.657C241.785 210.657 242.187 210.826 242.522 211.162C242.849 211.488 243.012 211.885 243.012 212.352L243.009 218.932ZM241.862 217.223L241.864 212.351C241.864 212.202 241.813 212.076 241.71 211.973C241.598 211.861 241.467 211.805 241.318 211.805L236.586 211.803C236.437 211.803 236.311 211.859 236.208 211.971C236.096 212.073 236.04 212.199 236.04 212.349L236.038 217.221C236.038 217.37 236.094 217.501 236.206 217.613C236.308 217.725 236.434 217.781 236.583 217.781L241.315 217.783C241.465 217.783 241.595 217.727 241.708 217.615C241.81 217.503 241.862 217.373 241.862 217.223ZM243.014 207.942C243.014 208.409 242.85 208.81 242.523 209.146C242.187 209.472 241.786 209.635 241.319 209.635L236.587 209.633C236.12 209.633 235.724 209.469 235.397 209.143C235.061 208.806 234.894 208.405 234.894 207.938L234.896 203.066C234.896 202.59 235.064 202.189 235.401 201.863C235.727 201.527 236.124 201.359 236.591 201.359L239.531 201.36L239.528 208.486L241.32 208.487C241.469 208.487 241.6 208.436 241.712 208.333C241.814 208.221 241.866 208.091 241.866 207.941L241.869 201.361L243.017 201.362L243.014 207.942ZM238.38 208.486L238.382 202.522L236.59 202.521C236.441 202.521 236.315 202.577 236.212 202.689C236.1 202.792 236.044 202.918 236.044 203.067L236.042 207.939C236.042 208.088 236.098 208.219 236.21 208.331C236.312 208.434 236.438 208.485 236.588 208.485L238.38 208.486ZM243.017 199.997L236.591 199.994C236.125 199.994 235.728 199.83 235.402 199.504C235.066 199.167 234.898 198.766 234.898 198.299L234.9 193.735L236.048 193.736L236.046 198.3C236.046 198.449 236.102 198.58 236.214 198.692C236.317 198.795 236.443 198.846 236.592 198.846L243.018 198.849L243.017 199.997ZM243.021 191.195C243.021 191.662 242.858 192.063 242.531 192.399C242.195 192.725 241.793 192.888 241.327 192.888L241.215 192.888L241.215 191.74L241.327 191.74C241.476 191.74 241.607 191.689 241.719 191.586C241.822 191.474 241.873 191.344 241.873 191.194L241.875 186.322C241.875 186.173 241.824 186.047 241.722 185.944C241.61 185.832 241.479 185.776 241.33 185.776L240.084 185.776C239.934 185.776 239.808 185.831 239.706 185.943C239.594 186.046 239.537 186.172 239.537 186.321L239.535 191.193C239.535 191.66 239.372 192.061 239.045 192.397C238.709 192.724 238.307 192.887 237.841 192.887L236.595 192.886C236.128 192.886 235.731 192.722 235.405 192.396C235.069 192.059 234.901 191.658 234.901 191.191L234.903 186.319C234.904 185.843 235.072 185.442 235.408 185.116C235.735 184.78 236.132 184.612 236.598 184.612L236.71 184.612L236.71 185.774L236.598 185.774C236.448 185.774 236.322 185.83 236.22 185.942C236.108 186.045 236.051 186.17 236.051 186.32L236.049 191.192C236.049 191.341 236.105 191.472 236.217 191.584C236.32 191.687 236.446 191.738 236.595 191.738L237.841 191.739C237.99 191.739 238.121 191.687 238.233 191.585C238.336 191.473 238.387 191.342 238.387 191.193L238.389 186.321C238.39 185.845 238.558 185.444 238.894 185.117C239.221 184.781 239.618 184.613 240.084 184.614L241.33 184.614C241.797 184.614 242.198 184.783 242.534 185.119C242.86 185.446 243.024 185.847 243.023 186.323L243.021 191.195ZM243.026 181.541C243.025 182.008 242.862 182.409 242.535 182.745C242.199 183.072 241.797 183.235 241.331 183.235L238.391 183.233L238.394 176.121L236.602 176.12C236.453 176.12 236.327 176.176 236.224 176.288C236.112 176.391 236.056 176.517 236.056 176.666L236.053 183.232L234.905 183.232L234.908 176.666C234.908 176.19 235.076 175.788 235.412 175.462C235.739 175.126 236.136 174.958 236.602 174.958L243.028 174.961L243.026 181.541ZM241.878 181.541L241.88 176.123L239.542 176.122L239.539 182.086L241.331 182.087C241.481 182.087 241.611 182.035 241.723 181.933C241.826 181.821 241.877 181.69 241.878 181.541ZM243.029 173.501L233.943 173.497C233.467 173.496 233.066 173.333 232.739 173.006C232.413 172.679 232.25 172.278 232.25 171.802L232.251 168.834L233.399 168.834L233.398 171.802C233.398 171.952 233.454 172.082 233.566 172.194C233.668 172.297 233.794 172.348 233.944 172.349L234.91 172.349L234.911 168.835L236.059 168.835L236.058 172.349L243.03 172.353L243.029 173.501ZM243.032 166.133C243.032 166.6 242.869 167.001 242.542 167.337C242.206 167.664 241.804 167.827 241.338 167.827L236.606 167.825C236.139 167.824 235.742 167.661 235.416 167.334C235.08 166.998 234.912 166.596 234.912 166.13L234.915 161.258C234.915 160.782 235.083 160.381 235.419 160.054C235.746 159.718 236.143 159.55 236.609 159.551L239.549 159.552L239.546 166.678L241.338 166.679C241.488 166.679 241.618 166.627 241.73 166.525C241.833 166.413 241.884 166.282 241.884 166.133L241.887 159.553L243.035 159.553L243.032 166.133ZM238.398 166.677L238.401 160.713L236.609 160.713C236.459 160.712 236.333 160.768 236.231 160.88C236.119 160.983 236.063 161.109 236.063 161.258L236.06 166.13C236.06 166.28 236.116 166.41 236.228 166.522C236.331 166.625 236.457 166.676 236.606 166.677L238.398 166.677ZM243.036 158.092L232.256 158.087L232.256 156.939L238.402 156.942L238.403 154.702L234.919 151.508L234.92 149.996L234.934 149.996L238.978 153.68L243.026 150.014L243.04 150.014L243.039 151.512L239.551 154.702L239.55 156.942L243.036 156.944L243.036 158.092ZM243.04 149.069L234.92 149.066L234.921 147.918L243.041 147.921L243.04 149.069ZM233.408 149.065L232.26 149.064L232.261 147.916L233.409 147.917L233.408 149.065ZM243.042 144.855C243.042 145.331 242.878 145.737 242.551 146.073C242.215 146.399 241.814 146.563 241.347 146.562L236.615 146.56C236.148 146.56 235.752 146.397 235.425 146.07C235.089 145.734 234.922 145.328 234.922 144.852L234.924 139.434L232.264 139.432L232.265 138.284L243.045 138.289L243.042 144.855ZM241.894 144.855L241.896 139.983C241.896 139.833 241.845 139.707 241.742 139.605C241.63 139.493 241.5 139.436 241.35 139.436L236.618 139.434C236.469 139.434 236.343 139.49 236.24 139.602C236.128 139.705 236.072 139.831 236.072 139.98L236.07 144.852C236.07 145.001 236.126 145.132 236.238 145.244C236.34 145.347 236.466 145.398 236.616 145.398L241.348 145.4C241.497 145.4 241.628 145.349 241.74 145.247C241.842 145.135 241.894 145.004 241.894 144.855ZM243.046 135.181C243.046 135.648 242.882 136.049 242.556 136.385C242.219 136.712 241.818 136.875 241.351 136.875L241.239 136.874L241.24 135.726L241.352 135.727C241.501 135.727 241.632 135.675 241.744 135.573C241.847 135.461 241.898 135.33 241.898 135.181L241.9 130.309C241.9 130.159 241.849 130.033 241.747 129.931C241.635 129.819 241.504 129.763 241.355 129.763L240.109 129.762C239.959 129.762 239.833 129.818 239.731 129.93C239.618 130.032 239.562 130.158 239.562 130.308L239.56 135.18C239.56 135.646 239.396 136.048 239.07 136.383C238.733 136.71 238.332 136.873 237.865 136.873L236.619 136.872C236.153 136.872 235.756 136.709 235.43 136.382C235.094 136.046 234.926 135.644 234.926 135.178L234.928 130.306C234.929 129.83 235.097 129.428 235.433 129.102C235.76 128.766 236.156 128.598 236.623 128.598L236.735 128.598L236.735 129.76L236.623 129.76C236.473 129.76 236.347 129.816 236.245 129.928C236.132 130.031 236.076 130.157 236.076 130.306L236.074 135.178C236.074 135.327 236.13 135.458 236.242 135.57C236.345 135.673 236.471 135.724 236.62 135.724L237.866 135.725C238.015 135.725 238.146 135.674 238.258 135.571C238.361 135.459 238.412 135.329 238.412 135.179L238.414 130.307C238.415 129.831 238.583 129.43 238.919 129.103C239.246 128.768 239.642 128.6 240.109 128.6L241.355 128.601C241.822 128.601 242.223 128.769 242.559 129.105C242.885 129.432 243.049 129.833 243.048 130.309L243.046 135.181Z" fill="#53FFFF"/>
<path d="M69.9951 366.861C69.9951 366.861 72.6175 368.012 75.0035 367.069C78.0849 368.742 80.2011 369.379 82.8853 369.744C85.5739 370.129 85.3667 372.918 80.8153 372.613C76.2639 372.307 73.136 372.638 72.1413 372.766C71.151 372.915 69.5599 373.108 69.4016 372.22C69.2276 371.336 69.1415 366.574 69.9951 366.861Z" fill="#0B4870"/>
<path d="M45.8055 366.027C45.8055 366.027 48.2576 367.448 50.931 367.092C53.7407 369.028 55.7841 369.933 58.4746 370.715C61.1651 371.514 60.3307 373.786 55.699 372.721C51.0673 371.656 47.7638 371.372 46.708 371.301C45.6523 371.247 43.9665 371.123 44.0005 370.359C44.0175 369.596 44.9881 365.636 45.8055 366.027Z" fill="#0B4870"/>
</svg>
