<svg width="502" height="364" viewBox="0 0 472 334" fill="none" xmlns="http://www.w3.org/2000/svg">
<path d="M343.407 270.584C343.407 270.584 345.629 276.124 346.073 277.038C346.442 277.789 347.162 278.271 347.851 278.747C348.07 278.897 348.301 279.26 348.495 279.567C348.652 279.811 348.658 280.111 348.558 280.38C346.812 285.144 341.479 287.059 341.353 286.702C341.128 286.057 341.917 284.762 343.037 284.111C344.164 283.46 344.815 282.208 344.859 280.912C344.896 279.879 344.671 278.853 344.195 277.927L342.023 273.802L343.407 270.584Z" fill="#8D511B"/>
<path d="M335.733 277.514L334.399 283.429C333.993 285.238 334.249 287.134 335.119 288.774C335.607 289.688 335.176 290.821 334.199 291.171C331.038 292.298 324.917 294.439 324.641 294.207C323.252 293.03 326.926 291.084 329.649 289.037C331.483 287.66 332.184 281.238 332.346 276.306L335.263 277.038C335.495 277.113 335.67 277.288 335.733 277.514Z" fill="#8D511B"/>
<path d="M330.137 290.965C328.829 291.397 327.395 291.534 326.081 291.697C325.931 291.716 325.787 291.772 325.668 291.866C324.41 292.842 323.771 293.825 324.51 294.451C324.804 294.702 332.002 292.154 334.806 291.146C335.395 290.933 335.651 290.257 335.357 289.707L334.825 288.705C333.354 289.638 331.796 290.42 330.137 290.965Z" fill="#0B4870"/>
<path d="M333.254 211.672C336.734 212.148 339.695 216.154 339.081 220.636C338.731 223.208 336.334 232.416 333.705 239.695C332.697 242.487 333.104 245.654 335 247.945C335.307 248.32 335.576 248.702 335.789 249.096C336.884 251.118 341.109 263.061 343.594 271.029C343.394 272.074 342.774 273.395 341.992 273.852C337.629 267.086 330.531 254.736 329.367 252.583C328.716 251.387 328.009 250.01 327.496 248.708C324.673 244.972 325.217 224.078 325.787 219.922C326.388 215.453 329.774 211.197 333.254 211.672Z" fill="#0B4870"/>
<path d="M332.303 177.459C332.303 177.459 329.292 179.356 329.655 181.91C329.655 181.91 328.047 180.77 327.684 176.846C327.433 174.123 332.303 177.459 332.303 177.459Z" fill="#0B4870"/>
<path d="M330.569 193.02C330.469 195.135 330.124 197.389 328.873 199.473C328.253 200.5 327.377 201.426 326.35 202.096C325.324 202.772 324.172 203.179 323.051 203.335C320.792 203.654 318.689 203.241 316.78 202.559C314.864 201.877 313.118 200.9 311.516 199.774C311.234 199.573 311.165 199.179 311.365 198.897C311.541 198.647 311.872 198.566 312.142 198.691L312.148 198.697C313.844 199.479 315.603 200.074 317.368 200.406C319.121 200.725 320.911 200.781 322.407 200.318C323.915 199.874 324.942 198.929 325.511 197.639C326.106 196.343 326.244 194.697 326.181 193.02V192.995C326.137 191.787 327.089 190.766 328.297 190.729C329.505 190.685 330.525 191.636 330.563 192.845C330.575 192.901 330.575 192.963 330.569 193.02Z" fill="#8D511B"/>
<path d="M328.935 206.258C327.727 202.628 325.305 194.935 325.511 192.419C325.643 190.81 326.989 189.577 328.604 189.577H339.088C340.828 189.577 342.249 190.954 342.299 192.694C342.386 195.73 340.991 202.646 340.202 206.264H328.935V206.258Z" fill="#FFBE55"/>
<path d="M332.415 277.589C332.253 277.489 332.159 277.301 332.165 277.107C332.384 269.395 332.854 259.562 333.023 257.678C333.041 257.465 333.066 257.252 333.098 257.04C331.445 247.92 331.195 228.322 331.032 224.892C330.819 220.379 333.536 215.284 337.041 215.121C340.546 214.952 344.352 218.583 345.479 222.72C346.223 225.449 343.35 239.971 340.233 250.492C339.576 252.708 339.476 255.037 339.808 257.327C340.033 258.911 340.102 260.538 339.989 261.784C339.82 263.637 337.742 271.185 335.795 277.651C335.739 277.839 335.589 277.989 335.401 278.027C334.4 278.246 333.348 278.158 332.415 277.589Z" fill="#0B4870"/>
<path d="M341.404 210.865C340.859 209.344 340.696 207.71 340.928 206.114C341.46 202.396 342.38 195.398 342.299 192.425C342.255 190.835 340.953 189.577 339.363 189.577H337.811C337.216 190.948 335.965 192.012 334.012 192.012C332.065 192.012 330.807 190.948 330.218 189.577H328.76C330.35 192.976 329.774 197.458 327.045 200.068C327.552 201.858 327.978 203.667 328.297 205.125C328.729 207.109 328.541 209.169 327.759 211.04C326.419 214.257 325.355 219.415 325.674 221.456C336.703 224.579 344.333 219.046 344.333 219.046L341.404 210.865Z" fill="#FFBE55"/>
<path d="M332.303 190.297L337.06 189.796L335.558 184.589L332.478 184.97L332.303 190.297Z" fill="#8D511B"/>
<path d="M332.478 184.97L335.557 184.589L336.027 186.216C335.338 186.992 334.456 188.67 333.335 188.67C332.979 188.67 332.659 188.569 332.365 188.382L332.478 184.97Z" fill="#663306"/>
<path d="M332.372 187.487C333.417 187.487 334.544 186.961 336.102 185.603C336.998 184.82 337.661 183.462 337.661 182.542V177.453H329.831C329.831 177.453 329.242 180.157 329.812 182.836C330.237 184.851 331.552 187.487 332.372 187.487Z" fill="#8D511B"/>
<path d="M336.334 181.584C336.334 182.579 336.81 183.381 337.398 183.381C337.986 183.381 338.631 182.079 338.631 181.09C338.631 180.101 337.986 179.788 337.398 179.788C336.81 179.788 336.334 180.589 336.334 181.584Z" fill="#8D511B"/>
<path d="M338.625 178.073C338.625 176.483 337.335 175.2 335.745 175.2H333.104C332.346 175.2 331.614 174.999 330.969 174.636C330.037 174.104 328.86 174.286 328.222 175.15C327.533 176.082 327.239 177.334 328.979 178.486C329.849 179.062 331.113 178.423 331.958 178.699C332.008 178.699 332.059 178.686 332.109 178.686H334.437C335.245 178.686 335.864 179.35 335.889 180.157C335.902 180.67 336.321 181.077 336.841 181.077H336.947L337.323 179.882L338.625 181.634V178.073V178.073Z" fill="#0B4870"/>
<path d="M312.849 197.821C312.849 197.821 314.608 199.611 314.376 200.356C314.144 201.1 314.157 201.032 313.012 200.813C311.866 200.594 310.564 200.055 309.819 199.392C309.074 198.728 310.276 197.383 310.452 197.214C311.04 196.656 313.268 196.506 313.888 197.126C314.508 197.746 311.653 198.966 311.904 198.584C312.154 198.203 313.181 197.658 313.312 197.138C313.456 196.625 312.849 197.821 312.849 197.821Z" fill="#8D511B"/>
<path d="M330.413 177.365C330.676 178.53 330.287 179.162 334.099 180.977C337.911 182.792 339.113 182.016 340.302 183.969C340.302 183.969 339.783 180.733 337.68 179.625C335.577 178.517 331.927 177.791 330.757 175.219C330.757 175.219 330.231 176.577 330.413 177.365Z" fill="#0B4870"/>
<path d="M288.644 167L286.322 178.699L284 190.397C284 190.397 297.288 186.241 312.373 189.233L313.4 184.069L314.426 178.88C299.348 175.888 288.644 167 288.644 167Z" fill="#D3D3D3"/>
<path d="M310.27 202.033L308.937 201.401L314.971 188.607L318.351 190.203L313.237 201.05C312.668 202.252 311.472 202.603 310.27 202.033Z" fill="#0B4870"/>
<path d="M322.801 191.392L309.5 188.907L311.666 178.004L324.86 181.008L322.801 191.392Z" fill="#555555"/>
<path d="M331.145 177.584C331.145 177.584 331.001 181.496 327.577 183.381C327.577 183.381 329.086 180.42 328.979 178.486C328.879 176.552 331.37 176.245 331.145 177.584Z" fill="#0B4870"/>
<path d="M349.829 281.732C350.054 281.469 350.06 281.087 349.835 280.825C349.653 280.612 349.171 280.017 348.808 279.573C348.652 279.379 348.351 279.422 348.245 279.648C347.031 282.189 344.996 284.173 342.349 284.536C341.491 285.118 340.94 286.427 341.122 286.94C341.166 287.059 342.336 287.078 343.576 286.37C349.059 283.234 349.829 281.732 349.829 281.732Z" fill="#0B4870"/>
<path d="M342.436 190.929C342.461 191.217 342.461 191.38 342.467 191.593C342.467 191.793 342.468 191.987 342.461 192.181C342.449 192.569 342.417 192.945 342.374 193.326C342.286 194.084 342.148 194.835 341.948 195.58C341.522 197.057 340.89 198.515 339.945 199.799C339 201.082 337.773 202.165 336.415 202.941C335.057 203.723 333.598 204.211 332.146 204.462C329.235 204.95 326.412 204.718 323.74 204.155C321.061 203.598 318.501 202.747 316.035 201.726C315.715 201.595 315.559 201.226 315.697 200.906C315.816 200.625 316.116 200.468 316.41 200.531H316.416C318.976 201.069 321.543 201.526 324.084 201.701C325.355 201.795 326.613 201.789 327.846 201.739C329.066 201.632 330.281 201.495 331.395 201.138C332.503 200.794 333.542 200.356 334.424 199.736C335.307 199.123 336.02 198.353 336.584 197.47C337.16 196.6 337.535 195.58 337.786 194.516C337.904 193.977 337.998 193.433 338.048 192.882C338.073 192.607 338.092 192.331 338.092 192.056C338.099 191.918 338.099 191.787 338.099 191.655L338.086 191.33L338.08 191.173C338.042 189.965 338.994 188.958 340.202 188.92C341.36 188.87 342.342 189.765 342.436 190.929Z" fill="#8D511B"/>
<path d="M314.639 198.14C314.639 198.14 312.242 197.558 312.811 198.703C313.381 199.842 314 199.498 314 199.498L314.639 198.14Z" fill="#8D511B"/>
<path opacity="0.09" d="M32.8296 294.536C32.8296 208.922 102.232 139.519 187.846 139.519C273.461 139.519 342.863 208.922 342.863 294.536" fill="#2A94F4"/>
<path d="M259.759 246.79C258.777 246.79 257.813 246.846 256.861 246.953C255.034 242.565 252.405 238.603 249.156 235.229C249.206 234.585 249.237 233.934 249.237 233.27C249.237 218.749 237.47 206.981 222.949 206.981C208.433 206.981 196.66 218.749 196.66 233.27C192.328 237.145 188.898 242.008 186.707 247.504C182.72 248.449 179.077 250.295 176.023 252.83C175.923 252.693 175.829 252.555 175.735 252.423C178.977 248.048 180.899 242.64 180.899 236.775C180.899 222.254 169.131 210.486 154.61 210.486C140.088 210.486 128.321 222.254 128.321 236.775C128.321 239.116 128.628 241.382 129.204 243.542C127.582 243.229 125.911 243.06 124.202 243.06C109.681 243.06 97.9136 254.827 97.9136 269.348C97.9136 283.87 109.681 295.637 124.202 295.637C130.274 295.637 135.857 293.578 140.308 290.123C144.426 292.802 149.333 294.36 154.616 294.36C160.988 294.36 166.834 292.088 171.385 288.32C176.136 295.005 183.947 299.368 192.785 299.368C197.574 299.368 202.061 298.078 205.93 295.844C210.781 298.104 216.182 299.368 221.891 299.368C229.596 299.368 236.763 297.058 242.74 293.109C247.328 297.008 253.268 299.368 259.759 299.368C274.281 299.368 286.048 287.6 286.048 273.079C286.048 258.558 274.281 246.79 259.759 246.79Z" fill="#F2F2F2"/>
<path d="M211.469 43.3329H166.584V206.211H211.469V43.3329Z" fill="#2A94F4"/>
<path d="M189.03 0C169.275 19.7542 166.584 43.3328 166.584 43.3328H189.03H211.475C211.475 43.3328 208.784 19.7542 189.03 0Z" fill="#0B4870"/>
<g opacity="0.54">
<g opacity="0.54">
<path opacity="0.54" d="M199.883 77.7964C199.883 83.7928 195.026 88.65 189.03 88.65C183.033 88.65 178.176 83.7928 178.176 77.7964C178.176 71.8001 183.033 66.9429 189.03 66.9429C195.026 66.9429 199.883 71.8001 199.883 77.7964Z" fill="#D3D3D3"/>
</g>
</g>
<g opacity="0.54">
<g opacity="0.54">
<path opacity="0.54" d="M189.03 121.229C195.024 121.229 199.883 116.37 199.883 110.376C199.883 104.382 195.024 99.5222 189.03 99.5222C183.036 99.5222 178.176 104.382 178.176 110.376C178.176 116.37 183.036 121.229 189.03 121.229Z" fill="#D3D3D3"/>
</g>
</g>
<path d="M197.117 110.376C197.117 114.845 193.499 118.463 189.03 118.463C184.561 118.463 180.943 114.845 180.943 110.376C180.943 105.913 184.561 102.289 189.03 102.289C193.499 102.289 197.117 105.913 197.117 110.376Z" fill="#D3D3D3"/>
<path d="M197.117 77.7964C197.117 82.2593 193.499 85.8834 189.03 85.8834C184.561 85.8834 180.943 82.2656 180.943 77.7964C180.943 73.3273 184.561 69.7095 189.03 69.7095C193.499 69.7095 197.117 73.3273 197.117 77.7964Z" fill="#D3D3D3"/>
<path d="M171.473 206.706H161.696V248.211H171.473V206.706Z" fill="#FCD2B1"/>
<path d="M193.918 206.706H184.141V248.211H193.918V206.706Z" fill="#FCD2B1"/>
<path d="M216.364 206.706H206.587V248.211H216.364V206.706Z" fill="#FCD2B1"/>
<path d="M197.117 211.006H180.943C180.943 206.537 184.561 202.919 189.03 202.919C193.499 202.919 197.117 206.543 197.117 211.006Z" fill="#0B4870"/>
<path d="M219.562 211.006H203.388C203.388 206.537 207.012 202.919 211.475 202.919C215.938 202.919 219.562 206.543 219.562 211.006Z" fill="#0B4870"/>
<path d="M174.671 211.006H158.497C158.497 206.537 162.115 202.919 166.584 202.919C171.053 202.919 174.671 206.543 174.671 211.006Z" fill="#0B4870"/>
<path d="M239.06 294.761H222.717V117.223H239.06V294.761ZM223.831 293.647H237.939V118.344H223.831V293.647Z" fill="#2A94F4"/>
<path d="M238.153 285.557L222.926 293.584L223.586 294.835L238.812 286.809L238.153 285.557Z" fill="#2A94F4"/>
<path d="M238.153 258.424L222.926 266.45L223.586 267.702L238.812 259.675L238.153 258.424Z" fill="#2A94F4"/>
<path d="M238.153 231.291L222.927 239.317L223.586 240.568L238.813 232.542L238.153 231.291Z" fill="#2A94F4"/>
<path d="M238.175 204.174L222.95 212.205L223.61 213.457L238.835 205.425L238.175 204.174Z" fill="#2A94F4"/>
<path d="M238.176 177.048L222.952 185.079L223.612 186.331L238.837 178.299L238.176 177.048Z" fill="#2A94F4"/>
<path d="M238.163 149.867L222.938 157.897L223.598 159.148L238.823 151.118L238.163 149.867Z" fill="#2A94F4"/>
<path d="M238.162 122.735L222.937 130.764L223.597 132.016L238.822 123.986L238.162 122.735Z" fill="#2A94F4"/>
<path d="M151.599 294.761H135.256V117.223H151.599V294.761ZM136.37 293.647H150.479V118.344H136.37V293.647Z" fill="#2A94F4"/>
<path d="M150.699 285.553L135.473 293.579L136.132 294.831L151.359 286.804L150.699 285.553Z" fill="#2A94F4"/>
<path d="M150.699 258.42L135.473 266.446L136.132 267.697L151.359 259.671L150.699 258.42Z" fill="#2A94F4"/>
<path d="M150.699 231.286L135.473 239.313L136.132 240.564L151.359 232.538L150.699 231.286Z" fill="#2A94F4"/>
<path d="M150.716 204.17L135.491 212.201L136.151 213.452L151.376 205.421L150.716 204.17Z" fill="#2A94F4"/>
<path d="M150.718 177.043L135.493 185.075L136.153 186.326L151.378 178.294L150.718 177.043Z" fill="#2A94F4"/>
<path d="M150.712 149.867L135.487 157.897L136.147 159.148L151.372 151.118L150.712 149.867Z" fill="#2A94F4"/>
<path d="M150.71 122.735L135.485 130.765L136.145 132.016L151.37 123.986L150.71 122.735Z" fill="#2A94F4"/>
<path d="M348.328 328.786H17.213C7.70515 328.786 0 321.081 0 311.573C0 302.066 7.70515 294.36 17.213 294.36H348.328C357.836 294.36 365.541 302.066 365.541 311.573C365.541 321.081 357.836 328.786 348.328 328.786Z" fill="#F2F2F2"/>
<path d="M86.7596 177.563C86.7533 177.563 86.7533 177.563 86.7471 177.563C86.7972 177.582 86.8034 177.588 86.7596 177.563Z" fill="#0B4870"/>
<path d="M56.2393 286.424L56.2519 290.223C56.2519 290.999 56.1517 291.769 55.9389 292.514L55.6072 293.684C55.338 294.648 56.0578 295.6 57.0593 295.6C59.6507 295.594 64.076 295.6 65.2152 295.6C65.4029 295.6 65.5844 295.475 65.6032 295.287C65.6971 294.179 62.4924 293.434 60.0763 292.501C58.2361 291.788 58.3362 288.483 58.5615 286.549C58.6492 285.817 58.0358 285.197 57.3097 285.259C56.7025 285.31 56.2393 285.817 56.2393 286.424Z" fill="#FCD2B1"/>
<path d="M38.4445 285.36L37.1363 289.71C37.0799 289.904 36.9923 290.085 36.8796 290.248L35.9533 291.625C35.3649 292.502 35.7905 293.697 36.7983 294.004C36.7983 294.004 38.6698 294.661 40.6039 295.299C42.5818 295.95 45.0668 295.406 45.0668 294.886C45.0668 293.728 43.9839 294.649 42.175 293.434C41.5678 293.027 40.9419 292.602 40.3848 292.164C38.8263 290.943 40.1845 287.845 41.1422 286.105C41.4865 285.479 41.1234 284.702 40.4224 284.552L39.9717 284.458C39.2957 284.321 38.6385 284.709 38.4445 285.36Z" fill="#FCD2B1"/>
<path d="M51.8267 234.478L66.1791 233.276C66.1791 233.276 67.625 243.723 63.9946 262.632C62.2921 271.502 58.7494 288.445 58.7494 288.445C57.8731 288.827 56.978 288.927 56.0704 288.702C56.0704 288.702 55.8013 281.229 55.6386 273.179C55.4821 265.461 55.4383 257.212 54.9438 254.508C53.936 248.993 51.8267 234.478 51.8267 234.478Z" fill="#0B4870"/>
<path d="M54.7873 234.66C56.2707 242.615 59.5819 254.508 53.2037 265.674C46.8255 276.847 40.1281 288.458 40.1281 288.458C39.2643 288.496 38.4819 288.183 37.7559 287.625C37.7559 287.625 38.8763 282.562 40.4912 276.647C42.3376 269.88 44.6849 261.925 44.0151 257.775C42.7633 250.001 41.3299 239.642 41.7618 234.616C42.1999 229.596 54.0112 230.478 54.7873 234.66Z" fill="#0B4870"/>
<path d="M65.5596 206.524L76.87 212.74L88.2306 194.863L74.4915 190.094L65.5596 206.524Z" fill="#0B4870"/>
<path d="M66.2793 205.986L76.8574 211.801L87.4794 195.082L74.6291 190.619L66.2793 205.986Z" fill="#D3D3D3"/>
<path d="M62.4048 202.856C62.4048 202.856 64.3764 201.918 65.2402 201.423C66.104 200.929 68.326 200.253 68.5076 200.096C68.6891 199.933 75.0986 199.539 75.4866 199.207C75.8747 198.869 76.2503 199.996 74.5916 200.359C72.9329 200.722 70.6169 201.611 70.4917 202.262C70.3665 202.913 72.2005 203.063 72.382 203.601C72.5698 204.133 72.332 204.014 72.0691 204.133C71.8062 204.246 69.8908 203.188 69.0458 203.489C68.2008 203.789 66.9114 203.37 66.2667 203.595C65.622 203.814 62.4799 204.872 62.4799 204.872L62.4048 202.856Z" fill="#FCD2B1"/>
<path d="M65.9602 204.246L66.9742 203.87C66.9742 203.87 65.7099 200.903 65.159 200.972C64.5206 201.054 63.7319 201.266 63.7319 201.266L65.9602 204.246Z" fill="#D3D3D3"/>
<path d="M66.1916 204.759C66.0602 204.665 64.0384 200.778 64.0384 200.778L59.707 201.367L62.048 205.973L66.1916 204.759Z" fill="#FCD2B1"/>
<path d="M77.4272 210.499C77.4272 210.499 79.0796 209.009 79.8808 208.39C80.682 207.77 82.1842 205.936 82.4033 205.83C82.6224 205.723 85.4954 199.833 85.9585 199.602C86.428 199.364 85.5141 198.575 84.5252 199.996C83.5362 201.423 81.7961 203.251 81.1327 203.119C80.4692 202.988 81.0388 201.198 80.6069 200.816C80.175 200.434 80.1938 200.703 79.9872 200.904C79.7744 201.11 80.031 203.326 79.4176 204.002C78.8042 204.678 78.6978 206.055 78.2346 206.581C77.7777 207.106 75.5557 209.654 75.5557 209.654L77.4272 210.499Z" fill="#FCD2B1"/>
<path d="M51.0569 173.763C51.0569 173.763 56.0204 171.911 58.3113 175.691C60.6022 179.472 60.3769 187.033 57.8794 187.959C55.3757 188.892 51.6202 188.404 50.3371 186.038C49.0539 183.672 47.9022 180.254 47.9585 177.976C48.0086 175.685 49.7487 174.421 51.0569 173.763Z" fill="#FCD2B1"/>
<path d="M57.335 188.128C57.335 188.128 56.9344 191.69 57.2787 192.353C57.6229 193.011 51.082 192.353 51.082 192.353C51.082 192.353 50.4937 187.214 49.4484 184.185C48.4031 181.149 57.335 188.128 57.335 188.128Z" fill="#FCD2B1"/>
<path d="M49.4481 184.185C49.4481 184.185 49.686 188.009 51.595 187.709C53.5041 187.408 56.0579 181.819 56.8528 181.544C57.6477 181.262 57.654 180.799 57.654 180.799L58.1547 181.525L58.9997 181.581C58.9997 181.581 58.2298 179.309 59.3941 178.383C60.5583 177.456 58.186 171.034 52.0707 173.175C52.0707 173.175 47.3701 174.471 47.5453 177.143C47.708 179.81 48.3966 182.852 49.4481 184.185Z" fill="#0B4870"/>
<path d="M58.0484 193.148C58.0484 193.148 58.0296 191.89 57.4537 191.765C56.8841 191.646 51.1444 191.095 50.4434 191.371V192.842C50.4434 192.842 51.7954 193.668 58.0484 193.148Z" fill="#D3D3D3"/>
<path d="M57.5287 179.822C57.4223 179.372 56.2831 178.095 55.8449 179.466C55.4068 180.836 56.5022 182.683 57.1156 182.52C57.729 182.364 57.8041 180.955 57.5287 179.822Z" fill="#FCD2B1"/>
<path d="M40.892 240.243C40.892 240.243 43.934 241.138 49.123 241.714C54.3119 242.283 67.2811 241.507 67.3624 240.894C67.4438 240.28 64.5708 218.06 64.7335 216.915C64.8963 215.769 64.9839 211.694 64.9839 211.694C65.0465 212.815 66.1857 217.378 67.5627 219.863C68.0572 220.764 69.7222 223.581 70.5296 222.936C74.4166 219.838 80.4318 208.145 80.8136 208.045C80.4943 207.907 77.9593 206.743 77.6088 206.624C77.2959 206.518 74.498 209.485 72.7955 211.325C72.0381 212.145 71.4998 212.74 71.4998 212.74C71.0116 211.638 69.2214 204.684 68.6706 202.28C67.4188 196.854 67.6128 196.628 67.6128 196.628C63.8134 195.477 58.0549 193.142 58.0549 193.142L50.4499 192.835C50.4499 192.835 43.4708 194.369 40.723 195.614C40.4601 195.733 40.4601 201.842 39.7466 203.445L42.025 208.252C42.025 208.252 43.3394 217.778 43.6148 222.01C43.7337 223.956 40.892 240.243 40.892 240.243Z" fill="#C0A475"/>
<path d="M39.4209 211.375C39.6212 212.014 40.5226 212.558 41.1047 212.796C41.4802 212.946 41.8996 212.996 42.3252 212.921L42.6257 212.865L47.8396 211.895C47.8396 211.895 48.9788 198.763 40.7229 195.614C40.4975 195.689 37.5995 205.498 39.4209 211.375Z" fill="#C0A475"/>
<path d="M49.6425 174.208C49.6425 174.208 43.3958 174.84 49.5299 184.323L49.6425 174.208Z" fill="#0B4870"/>
<path d="M83.0041 193.906L83.6613 192.766L78.4536 190.97L77.7964 192.103L83.0041 193.906Z" fill="#0B4870"/>
<path opacity="0.09" d="M80.5439 127.395H118.106C118.106 127.395 121.304 120.115 111.928 118.832C102.551 117.555 114.056 112.172 104.254 111.321C94.452 110.47 101.919 119.47 91.8982 118.194C81.8834 116.917 76.1499 121.392 79.2295 121.818C82.3028 122.243 54.061 127.395 80.5439 127.395Z" fill="#2A94F4"/>
<path opacity="0.09" d="M133.391 95.3098H170.946C170.946 95.3098 174.145 88.0302 164.769 86.7471C155.392 85.4702 166.897 80.0872 157.095 79.236C147.293 78.3847 154.76 87.3856 144.739 86.1087C134.724 84.8318 128.991 89.3071 132.07 89.7328C135.15 90.1584 106.914 95.3098 133.391 95.3098Z" fill="#2A94F4"/>
<path opacity="0.09" d="M260.66 157.952H298.222C298.222 157.952 301.421 150.673 292.044 149.39C282.668 148.113 294.172 142.73 284.37 141.879C274.568 141.027 282.036 150.028 272.015 148.751C262 147.474 256.266 151.95 259.346 152.375C262.425 152.801 234.184 157.952 260.66 157.952Z" fill="#2A94F4"/>
<path opacity="0.09" d="M211.313 95.3098H248.875C248.875 95.3098 252.073 88.0302 242.697 86.7471C233.32 85.4702 244.825 80.0872 235.023 79.236C225.221 78.3847 232.688 87.3856 222.667 86.1087C212.646 84.8318 206.919 89.3071 209.998 89.7328C213.078 90.1584 184.836 95.3098 211.313 95.3098Z" fill="#2A94F4"/>
<path d="M421.606 306.447C421.606 306.447 421.458 308.769 421.754 310.555C422.17 311.763 421.995 312.166 421.995 312.166L417.225 312.475C417.225 312.475 419.147 311.132 418.273 306.312C417.4 301.466 421.606 306.447 421.606 306.447Z" fill="#FCD2B1"/>
<path d="M421.875 310.918C421.875 310.918 419.94 311.992 417.83 311.723C415.613 313.187 414 313.871 411.877 314.462C409.754 315.066 410.412 316.785 414.067 315.979C417.722 315.174 420.329 314.959 421.162 314.905C421.996 314.865 423.326 314.771 423.299 314.193C423.286 313.616 422.52 310.622 421.875 310.918Z" fill="#0B4870"/>
<path d="M445.887 302.942C445.887 302.942 446.747 305.104 447.782 306.581C448.669 307.494 448.682 307.924 448.682 307.924L444.503 310.246C444.503 310.246 445.672 308.219 442.797 304.218C439.948 300.244 445.887 302.942 445.887 302.942Z" fill="#FCD2B1"/>
<path d="M448.051 306.863C448.051 306.863 446.761 308.662 444.745 309.32C443.374 311.589 442.205 312.891 440.552 314.341C438.886 315.791 440.216 317.067 443.186 314.771C446.142 312.475 448.413 311.159 449.139 310.77C449.878 310.381 451.034 309.723 450.765 309.212C450.469 308.702 448.507 306.326 448.051 306.863Z" fill="#0B4870"/>
<path d="M414.269 213.714C414.269 213.714 415.653 211.23 416.284 210.21C416.929 209.176 419.724 211.713 419.724 211.713C419.724 211.713 419.98 212.814 418.636 213.539C417.279 214.264 416.459 214.251 416.19 215.164C415.908 216.077 414.255 214.815 414.255 214.815L414.269 213.714Z" fill="#FFE3CA"/>
<path d="M433.337 214.305C433.337 214.305 432.074 211.606 431.482 210.545C430.891 209.485 427.989 211.888 427.989 211.888C427.989 211.888 427.68 212.976 428.996 213.768C430.313 214.546 431.133 214.573 431.375 215.5C431.617 216.426 433.323 215.231 433.323 215.231L433.337 214.305Z" fill="#FFE3CA"/>
<path d="M417.736 212.64C417.736 212.64 418.65 212.425 418.824 212.036C418.999 211.646 419.241 211.029 419.671 211.109C420.222 211.217 419.751 212.479 419.483 212.801" fill="#FFE3CA"/>
<path d="M429.937 212.908C429.937 212.908 429.037 212.653 428.876 212.25C428.714 211.848 428.499 211.23 428.069 211.284C427.505 211.364 428.029 212.814 428.284 213.136" fill="#FFE3CA"/>
<path d="M423.662 265.981C423.662 265.981 427.854 281.152 430.367 285.18C432.88 289.208 443.952 306.729 443.952 306.729C443.952 306.729 445.941 305.628 447.07 305.091C441.547 290.953 439.934 286.979 436.481 281.488C434.465 273.486 435.769 262.732 430.783 255.858C429.265 253.763 422.345 257.724 422.345 257.724L423.662 265.981Z" fill="#0E538C"/>
<path d="M416.634 257.187C416.634 257.187 416.016 278.897 416.016 283.018C416.016 287.127 418.085 309.186 418.085 309.186C418.085 309.186 419.577 309.897 422.049 308.581C422.13 303.506 423.003 295.988 422.277 284.106C424.925 272.801 426.524 261.671 426.524 261.671L426.268 255.777L416.634 257.187Z" fill="#0E538C"/>
<path d="M418.771 227.14C418.771 227.14 416.406 229.221 417.333 233.691C417.642 235.007 415.881 236.954 414.699 237.948C413.516 238.954 412.495 241.223 413.624 243.251C414.739 245.278 415.021 245.426 414.497 247.399C413.973 249.373 413.946 253.481 419.523 252.649C425.1 251.816 425.046 238.176 425.046 238.176L424.307 232.255L418.771 227.14Z" fill="#0B4870"/>
<path d="M427.129 234.873C427.129 234.873 426.887 235.007 426.497 235.182C426.497 235.383 426.511 235.571 426.497 235.759C426.511 236.914 426.497 237.666 426.497 237.666C425.61 239.143 423.958 239.169 423.192 238.807C423.111 238.767 423.044 238.726 422.99 238.686C422.694 238.471 422.56 238.095 422.627 237.746C422.735 237.169 422.748 236.632 422.735 236.135C421.969 236.162 421.176 236.068 420.423 235.746C417.467 234.511 419.16 226.455 419.16 226.455C419.16 226.455 424.186 224.32 425.772 226.388C427.33 228.469 427.129 234.873 427.129 234.873Z" fill="#FFE3CA"/>
<path d="M424.213 222.857C422.842 223.085 421.283 224.065 420.611 225.287C420.222 225.985 422.52 226.603 422.546 227.623C422.6 229.61 424.858 230.389 426.645 231.127C427.115 231.315 427.747 232.175 426.658 233.208C426.658 233.208 425.073 234.672 425.261 236.471C425.422 237.988 428.217 237.719 428.217 237.719C428.217 237.719 424.24 249.722 424.737 251.414C425.005 252.313 432.745 256.999 438.053 252.555C440.23 250.729 440.512 247.306 438.658 245.144C437.247 243.506 437.26 242.392 437.368 241.975C438.806 236.82 436.185 233.302 433.229 231.866C432.033 231.288 431.214 230.147 431.146 228.818C431.066 227.408 430.703 225.676 429.48 224.535C427.733 222.911 425.839 222.575 424.213 222.857Z" fill="#0B4870"/>
<path d="M417.373 224.065C416.244 224.978 416.285 226.724 417.494 227.529C418.703 228.335 420.665 228.818 423.621 227.314C427.142 225.529 426.067 222.749 423.716 222.964C419.254 224.481 418.717 222.978 417.373 224.065Z" fill="#0B4870"/>
<path d="M422.6 237.84C422.6 237.84 422.735 239.263 424.67 238.954C425.677 238.659 425.866 237.961 426.054 237.451C426.846 237.504 428.795 237.531 430.421 235.276C431.671 233.53 433.525 230.523 434.398 228.952C434.761 228.308 434.855 227.556 434.667 226.844C433.794 223.528 430.555 215.311 430.555 215.311L433.767 214.143C433.767 214.143 437.046 222.239 438.698 226.348C439.236 227.69 439.182 229.18 438.537 230.469C436.79 233.96 433.417 239.921 431.832 242.982C431.335 244.822 433.915 257.831 433.915 257.831C433.915 257.831 426.82 262.195 416.607 258.986C416.594 255.079 417.051 247.91 416.943 243.882C416.836 239.76 414.686 240.149 409.19 228.831C408.666 227.757 408.518 226.536 408.773 225.354C409.337 222.736 411.192 218.332 414.256 213.7C416.432 214.68 416.782 215.029 416.782 215.029C416.782 215.029 413.906 222.239 412.898 225.22C412.697 225.837 412.751 226.509 413.06 227.086C414.712 230.147 419.711 237.813 422.6 237.84Z" fill="#2A94F4"/>
<path d="M425.328 200.65L425.395 189.399L422.882 189.386L422.828 199.603C422.828 199.603 422.828 199.63 422.828 199.657V200.489C422.775 201.939 422.412 204.692 420.463 204.678L427.652 204.718C425.758 204.705 425.382 202.141 425.328 200.65Z" fill="#FFBE55"/>
<path d="M413.248 177.867C413.799 178.162 414.309 178.565 414.713 179.061C415.761 180.337 415.962 181.935 415.237 183.358C414.954 183.922 414.484 184.338 413.92 184.539C413.664 184.647 413.382 184.7 413.087 184.7C412.119 184.727 411.152 184.23 410.695 183.465C410.318 182.821 410.318 182.069 410.708 181.384C410.963 180.941 411.541 180.78 411.985 181.049C412.428 181.304 412.589 181.881 412.321 182.324C412.253 182.431 412.267 182.472 412.294 182.512C412.388 182.673 412.71 182.834 413.019 182.834C413.355 182.821 413.49 182.633 413.557 182.499C413.57 182.472 413.584 182.458 413.584 182.431C414 181.559 413.678 180.834 413.369 180.404C413.328 180.35 413.288 180.297 413.248 180.256C412.495 179.343 411.178 178.9 410.13 179.209C408.921 179.572 408.128 180.887 407.913 182.915C407.47 186.822 410.224 189.493 411.904 190.729C413.732 192.071 415.546 192.756 416.782 193.011C417.481 193.159 417.991 193.172 418.206 193.078C418.677 192.877 419.228 193.092 419.429 193.561C419.563 193.843 419.523 194.166 419.389 194.407C419.295 194.568 419.147 194.716 418.959 194.797C418.744 194.891 418.488 194.958 418.206 194.985C416.365 195.186 413.288 194.085 410.802 192.246C407.335 189.695 405.656 186.325 406.059 182.727C406.489 178.914 408.464 177.773 409.606 177.437C410.802 177.074 412.119 177.262 413.248 177.867Z" fill="#FFBE55"/>
<path opacity="0.5" d="M419.456 193.561C419.59 193.843 419.55 194.166 419.415 194.407C419.321 194.568 419.174 194.716 418.985 194.797C418.77 194.891 418.515 194.958 418.233 194.985C417.709 194.394 417.239 193.736 416.809 193.024C417.507 193.172 418.018 193.186 418.233 193.092C418.703 192.877 419.254 193.092 419.456 193.561Z" fill="#FFBE55"/>
<path d="M434.667 177.853C434.103 178.135 433.592 178.525 433.162 178.994C432.074 180.23 431.818 181.827 432.504 183.277C432.772 183.855 433.216 184.271 433.78 184.499C434.035 184.606 434.318 184.674 434.6 184.687C435.567 184.741 436.548 184.271 437.032 183.532C437.435 182.901 437.449 182.15 437.072 181.451C436.831 180.995 436.266 180.834 435.809 181.075C435.366 181.317 435.191 181.881 435.433 182.338C435.5 182.458 435.473 182.485 435.46 182.525C435.352 182.673 435.03 182.834 434.721 182.821C434.385 182.794 434.25 182.606 434.183 182.458C434.17 182.431 434.156 182.418 434.156 182.391C433.767 181.505 434.116 180.794 434.439 180.364C434.479 180.31 434.519 180.27 434.56 180.216C435.339 179.33 436.669 178.927 437.704 179.263C438.9 179.666 439.652 180.995 439.814 183.036C440.136 186.956 437.301 189.534 435.581 190.715C433.713 192.004 431.872 192.635 430.636 192.85C429.924 192.984 429.413 192.971 429.211 192.877C428.741 192.649 428.19 192.85 427.975 193.32C427.841 193.602 427.854 193.911 427.989 194.166C428.083 194.34 428.217 194.475 428.405 194.555C428.62 194.663 428.875 194.73 429.158 194.756C430.985 195.012 434.103 194.005 436.642 192.246C440.176 189.802 441.964 186.473 441.668 182.875C441.346 179.048 439.411 177.853 438.282 177.477C437.14 177.142 435.809 177.276 434.667 177.853Z" fill="#FFBE55"/>
<path opacity="0.5" d="M427.989 193.347C427.854 193.629 427.868 193.938 428.002 194.193C428.096 194.367 428.231 194.501 428.419 194.582C428.634 194.689 428.889 194.757 429.171 194.783C429.722 194.206 430.206 193.562 430.65 192.877C429.937 193.011 429.427 192.998 429.225 192.904C428.768 192.689 428.204 192.89 427.989 193.347Z" fill="#FFBE55"/>
<path d="M433.552 176.511C433.552 176.511 433.552 177.182 433.499 178.283C433.27 182.646 432.074 193.817 425.665 196.999L425.355 197.267C424.966 197.603 424.455 197.777 423.931 197.75L423.609 197.737C423.152 197.724 422.722 197.562 422.372 197.28L422.01 196.985C415.721 193.776 414.592 182.834 414.39 178.35C414.337 177.142 414.35 176.403 414.35 176.403C414.35 175.329 415.613 175.047 415.613 175.047L432.276 175.141C432.303 175.141 433.566 175.436 433.552 176.511Z" fill="#FFBE55"/>
<path d="M432.571 177.934L415.331 177.84C414.269 177.84 413.423 176.967 413.423 175.906C413.423 174.846 414.296 174 415.358 174L432.598 174.094C433.66 174.094 434.506 174.967 434.506 176.027C434.506 177.088 433.633 177.947 432.571 177.934Z" fill="#FFBE55"/>
<path d="M432.571 177.934L415.331 177.84C414.269 177.84 413.423 176.967 413.423 175.906C413.423 174.846 414.296 174 415.358 174L432.598 174.094C433.66 174.094 434.506 174.967 434.506 176.027C434.506 177.088 433.633 177.947 432.571 177.934Z" fill="#FFBE55"/>
<path d="M432.571 177.934L415.331 177.84C414.269 177.84 413.423 176.967 413.423 175.906C413.423 174.846 414.296 174 415.358 174L432.598 174.094C433.66 174.094 434.506 174.967 434.506 176.027C434.506 177.088 433.633 177.947 432.571 177.934Z" fill="#FFBE55"/>
<path d="M432.033 214.278L415.949 214.184L415.989 206.518C415.989 206.021 416.392 205.631 416.889 205.631L431.187 205.712C431.684 205.712 432.074 206.115 432.074 206.612L432.033 214.278Z" fill="#0E538C"/>
<path d="M432.974 214.291L415.008 214.184C414.928 214.184 414.86 214.117 414.874 214.036V212.949C414.874 212.868 414.941 212.801 415.022 212.801L432.988 212.908C433.068 212.908 433.135 212.976 433.135 213.056V214.144C433.122 214.224 433.055 214.291 432.974 214.291Z" fill="#FFB127"/>
<path d="M432.974 214.291L415.008 214.184C414.928 214.184 414.86 214.117 414.874 214.036V212.949C414.874 212.868 414.941 212.801 415.022 212.801L432.988 212.908C433.068 212.908 433.135 212.976 433.135 213.056V214.144C433.122 214.224 433.055 214.291 432.974 214.291Z" fill="#0B4870"/>
<path d="M427.962 205.699L420.115 205.658C420.061 205.658 420.007 205.618 420.007 205.551V204.772C420.007 204.719 420.048 204.665 420.115 204.665L427.962 204.705C428.016 204.705 428.07 204.745 428.07 204.813V205.591C428.056 205.658 428.016 205.699 427.962 205.699Z" fill="#FFBE55"/>
<path opacity="0.5" d="M427.962 205.699L420.115 205.658C420.061 205.658 420.007 205.618 420.007 205.551V204.772C420.007 204.719 420.048 204.665 420.115 204.665L427.962 204.705C428.016 204.705 428.07 204.745 428.07 204.813V205.591C428.056 205.658 428.016 205.699 427.962 205.699Z" fill="#FFBE55"/>
<path opacity="0.11" d="M388.078 324.333C371.724 307.027 378.86 285.344 398.371 262.104C417.882 238.864 400.548 242.797 401.206 221.208C402.335 184.233 449.85 176.863 454.997 210.817C460.143 244.771 456.676 253.404 444.475 271.26C432.274 289.117 471.054 272.442 471.041 305.604C471.041 322.467 404.418 341.626 388.078 324.333Z" fill="#2A94F4"/>
<path opacity="0.11" d="M453.088 332.321C453.088 333.14 442.043 333.879 428.39 333.973C414.751 334.067 403.679 333.476 403.679 332.657C403.679 331.838 414.724 331.1 428.377 331.006C442.016 330.925 453.075 331.502 453.088 332.321Z" fill="#5ECAF2"/>
<path d="M307.515 321.641C336.415 321.641 359.842 321.05 359.842 320.321C359.842 319.591 336.415 319 307.515 319C278.615 319 255.188 319.591 255.188 320.321C255.188 321.05 278.615 321.641 307.515 321.641Z" fill="#D3D3D3"/>
<path d="M167.051 321.641C195.95 321.641 219.378 321.05 219.378 320.321C219.378 319.591 195.95 319 167.051 319C138.151 319 114.723 319.591 114.723 320.321C114.723 321.05 138.151 321.641 167.051 321.641Z" fill="#D3D3D3"/>
<path d="M54.3274 321.641C83.227 321.641 106.655 321.05 106.655 320.321C106.655 319.591 83.227 319 54.3274 319C25.4278 319 2 319.591 2 320.321C2 321.05 25.4278 321.641 54.3274 321.641Z" fill="#D3D3D3"/>
</svg>
