<svg width="733" height="593" viewBox="0 0 733 593" fill="none" xmlns="http://www.w3.org/2000/svg">
<path d="M672.963 313.337C672.574 301.278 671.841 289.176 670.766 277.029C664.727 209.611 647.357 142.061 613.613 84.9691C611.117 80.7541 608.536 76.6048 605.87 72.5213C583.095 37.7762 550.026 9.43576 511.658 1.97862C479.74 -4.22059 447.181 4.73291 418.679 20.6667C390.028 36.6991 368.24 61.0109 342.157 80.9404C270.58 135.681 172.467 136.635 103.704 195.593C36.2327 253.466 12.4368 361.837 40.6513 450.616C54.0468 493.007 74.3869 528.821 100.437 557.498H545.582V574.147C612.371 528.04 638.364 469.427 649.43 441.111C665.039 401.244 674.329 356.361 672.963 313.337Z" fill="#D9E3FF" fill-opacity="0.9"/>
<path d="M440.682 327.561C441.842 331.252 443.364 335.034 446.376 337.599C450.794 341.373 457.27 341.661 463.186 341.71C470.015 341.809 477.495 341.71 482.703 337.476C485.649 335.092 487.459 331.663 488.775 328.185C491.017 322.169 491.989 315.754 491.629 309.345C491.27 302.935 489.586 296.669 486.685 290.941C485.708 288.789 484.28 286.871 482.497 285.317C480.029 283.377 476.828 282.612 473.668 282.324C465.601 281.609 457.531 283.669 450.794 288.162C444.475 292.437 439.332 299.163 437.44 306.414C435.745 312.975 438.732 321.353 440.682 327.561Z" fill="#0B4870"/>
<path d="M485.279 376.579C481.93 378.831 472.113 377.442 468.872 379.3C465.63 381.158 454.818 381.709 451.65 380.846C451.65 364.838 458.981 348.649 459.121 333.924C465.588 347.465 472.36 340.025 478.935 330.759C478.803 345.188 485.114 362.133 485.279 376.579Z" fill="#FDCDA2"/>
<path d="M458.841 345.402C459.419 346.991 460.193 348.502 461.145 349.899C462.895 352.53 465.546 354.433 468.6 355.251C472.22 356.279 475.898 354.429 478.622 352.119C479.51 351.354 480.366 350.54 481.205 349.718C479.938 343.207 478.877 336.777 478.934 330.808C472.352 340.074 465.588 347.515 459.121 333.973C459.524 334.796 459.006 336.991 458.924 337.928C458.8 339.383 458.545 340.822 458.397 342.277C458.327 343.338 458.478 344.402 458.841 345.402V345.402Z" fill="#F1BE91"/>
<path d="M493.902 285.917C493.902 285.301 493.819 284.684 493.737 284.068C493.416 281.601 492.091 279.743 491.211 277.424C490.372 275.191 489.125 273.134 487.533 271.357C486.805 270.264 486.002 269.223 485.13 268.241L484.67 267.575C483.32 265.527 482.201 263.316 480.556 261.515C475.849 256.418 468.09 255.76 461.153 256.064C456.858 256.237 452.497 256.64 448.531 258.284C444.565 259.928 441.011 262.987 439.67 267.065C439.517 267.549 439.399 268.044 439.316 268.545C429.96 274.481 424.703 286.698 427.517 297.518C428.471 301.169 430.224 304.918 429.475 308.552C429.779 310.69 430.002 312.844 430.174 314.998C431.729 316.724 434.214 317.604 435.835 316.067C437.012 314.948 437.111 313.148 437.135 311.528C437.212 306.749 437.283 301.975 437.349 297.206C437.296 296.316 437.454 295.426 437.81 294.608C438.313 293.86 438.97 293.226 439.735 292.75C442.693 290.522 445.104 287.652 446.787 284.355C449.664 287.05 453.01 289.196 456.661 290.686C463.12 293.153 470.237 293.317 477.091 292.519C478.997 292.309 480.888 291.98 482.752 291.533C483.147 298.165 483.545 304.795 483.946 311.421C484.085 313.888 484.661 316.881 487.015 317.571C488.611 318.048 490.364 317.078 491.31 315.705C492.155 314.261 492.677 312.651 492.84 310.986C493.367 307.804 493.795 304.597 494.042 301.383C494.173 299.738 494.338 298.094 494.387 296.392C494.437 294.69 494.198 293.325 494.107 291.755C493.935 289.806 494 287.858 493.902 285.917Z" fill="#0B4870"/>
<path d="M490.281 311.298C490.043 310.155 489.656 308.914 488.734 308.346C488.186 308.05 487.556 307.943 486.94 308.042C485.511 308.24 484.21 308.975 483.304 310.098C483.16 310.149 483.024 310.221 482.9 310.311C482.991 312.482 482.966 314.652 482.966 316.889C482.966 321.18 483.106 323.729 482.497 328.004C482.431 328.424 481.93 330.685 481.773 331.063C482.324 331.011 482.86 330.854 483.353 330.603C486.595 329.386 489.047 326.188 490.141 322.578C491.134 318.889 491.182 315.01 490.281 311.298Z" fill="#FDCDA2"/>
<path d="M427.879 297.173C427.879 297.173 432.626 308.355 434.675 317.958C436.724 327.561 441.801 351.486 457.508 346.356C473.216 341.225 479.963 336.991 481.888 331.795C483.814 326.599 487.747 297.987 476.433 288.515C465.119 279.044 431.063 273.585 427.879 297.173Z" fill="#FDCDA2"/>
<path d="M474.574 270.378C474.491 269.877 474.373 269.382 474.22 268.898C472.887 264.787 469.283 261.762 465.358 260.117C461.433 258.473 457.031 258.062 452.744 257.897C445.8 257.618 438.04 258.251 433.334 263.348C431.688 265.149 430.545 267.361 429.22 269.408L428.759 270.074C427.894 271.059 427.092 272.097 426.356 273.182C425.213 274.538 424.02 275.846 422.818 277.153C421.806 278.246 420.457 279.455 419.017 279.036L418.466 277.013C417.495 276.553 416.754 278.008 416.779 279.077C416.836 282.258 418.375 284.371 419.971 286.953C422.265 290.452 424.044 294.262 425.254 298.266C425.748 300.108 426.027 302.13 426.48 304.087C427.08 306.718 428.718 309.579 430.092 311.832C430.199 310.229 431.672 293.481 431.203 293.366C433.064 293.815 434.952 294.142 436.856 294.344C443.718 295.167 450.844 294.953 457.286 292.519C460.935 291.026 464.281 288.88 467.16 286.188C468.843 289.485 471.254 292.356 474.212 294.583C474.979 295.057 475.636 295.691 476.137 296.441C476.462 297.268 476.618 298.151 476.598 299.039C478.054 314.414 482.645 319.092 484.201 317.357C484.373 315.203 484.201 312.523 484.472 310.385C484.661 306.134 485.813 303.216 486.768 299.557C489.524 288.745 483.929 276.314 474.574 270.378Z" fill="#0B4870"/>
<path d="M388.597 408.643C388.597 408.643 359.379 464.173 360.951 470.849C362.522 477.525 377.843 482.359 410.46 475.626C443.076 468.892 446.664 467.018 446.664 467.018L441.9 457.151C441.9 457.151 391.601 465.373 392.777 458.911C393.954 452.449 416.754 425.736 416.754 425.736L388.597 408.643Z" fill="#FDCDA2"/>
<path d="M525.983 469.098C524.223 455.943 522.577 442.599 520.66 429.305C520.002 424.848 519.324 420.392 518.627 415.936C517.887 411.373 517.179 406.703 516.406 401.959C514.234 388.804 512.127 372.418 506.59 360.431C506.423 360.075 506.294 359.703 506.203 359.321C505.923 359.255 486.941 352.374 481.025 351.921C481.189 356.287 483.83 373.446 468.896 372.755C456.422 372.18 457.434 358.589 457.187 351.921C449.288 352.637 432.034 359.428 431.976 359.444C427.772 360.34 425.032 385.047 424.571 388.22C422.407 402.115 419.98 415.722 418.178 429.625L418.128 430.028C416.754 440.716 415.487 451.405 414.236 462.142C411.976 481.469 409.782 500.804 407.654 520.147C407.539 521.158 407.432 522.161 407.316 523.164L533.298 523.501C530.846 505.386 528.408 487.252 525.983 469.098Z" fill="#0E538C"/>
<path d="M525.983 469.098C524.223 455.943 522.577 442.599 520.66 429.305C520.002 424.848 519.324 420.392 518.627 415.936C517.887 411.373 517.179 406.703 516.406 401.959C514.234 388.804 512.127 372.418 506.59 360.431C506.423 360.075 506.294 359.703 506.203 359.321C506.088 359.321 502.986 358.178 498.929 356.854C498.978 357.118 499.02 357.392 499.053 357.677C499.053 357.964 499.053 358.77 499.209 359.017C499.16 358.951 498.954 357.323 499.16 358.614C499.266 359.255 499.365 359.897 499.472 360.53C499.719 361.971 499.993 363.405 500.295 364.83C500.929 367.847 501.636 370.856 502.344 373.874C503.924 380.541 505.528 387.217 506.59 393.992C508.424 405.601 509.453 418.945 503.076 429.461C497.07 439.327 485.089 444.03 474.541 447.269C469.999 448.667 465.375 449.785 460.783 451.027C453.51 452.992 446.351 455.376 439.168 457.653C430.783 460.309 422.382 462.858 413.874 464.938C411.719 483.371 409.623 501.81 407.588 520.254C407.473 521.265 407.366 522.268 407.251 523.271L533.232 523.608C530.824 505.422 528.408 487.252 525.983 469.098Z" fill="#0B4870"/>
<path d="M431.976 359.478L432.198 359.428C427.541 360.867 418.992 366.277 414.458 368.834C406.995 373.035 400.758 379.777 395.92 387.875C391.564 395.39 388.18 403.427 385.849 411.793C388.207 415.973 391.481 419.565 395.427 422.3C401.088 426.214 412.459 430.366 413.586 430.859C416.104 426.049 418.441 423.13 419.436 420.557C420.959 410.42 422.925 398.498 424.513 388.287C425.048 385.08 427.772 360.374 431.976 359.478Z" fill="#0E538C"/>
<path d="M447.264 455.787C447.264 455.787 514.489 459.742 532.467 461.287C542.283 462.266 537.133 456.609 525.663 432.026C515.106 412.631 551.688 411.932 551.688 411.932C551.688 411.932 566.145 452.49 569.091 462.817C573.493 478.257 560.139 482.549 557.045 482.549C498.699 483.009 448.326 467.503 448.326 467.503C448.326 467.503 438.6 457.152 447.264 455.787Z" fill="#FDCDA2"/>
<path d="M534.039 449.654C537.057 448.322 539.872 446.569 542.399 444.449C548.158 439.516 552.272 433.038 556.387 426.633C552.931 416.767 550.043 408.652 550.043 408.652C550.043 408.652 513.46 409.342 523.992 428.738C528.493 438.374 532.015 445.091 534.039 449.654Z" fill="#F1BE91"/>
<path d="M542.777 386.798C537.947 378.576 531.702 371.752 524.239 367.493C519.302 364.649 505.923 359.272 506.203 359.362C506.293 359.732 514.234 388.829 516.406 402C517.179 406.703 516.34 408.865 517.08 413.428C517.796 417.86 525.761 435.405 529.522 440.026C534.549 438.611 543.509 432.906 546.924 430.258C550.176 427.858 553.035 424.968 555.399 421.691C552.914 413.066 547.122 394.173 542.777 386.798Z" fill="#0B4870"/>
<path d="M541.592 426.32C546.113 423.716 550.278 420.538 553.984 416.865C553.252 414.448 552.412 411.735 551.515 408.907C542.926 416.592 533.008 422.652 522.248 426.789C523.358 429.173 524.535 431.558 525.662 433.679C531.48 432.215 536.408 429.42 541.592 426.32Z" fill="#2A94F4"/>
<path d="M478.531 474.977H382.887C382.513 474.947 382.153 474.823 381.84 474.616C381.528 474.409 381.274 474.126 381.101 473.793L353.125 415.016C352.813 414.366 353.125 413.84 353.784 413.84H449.461C449.835 413.867 450.195 413.989 450.507 414.195C450.82 414.401 451.075 414.683 451.247 415.016L479.223 473.793C479.527 474.418 479.231 474.977 478.531 474.977Z" fill="#F7F7F7"/>
<path d="M425.106 446.159C426.751 449.662 423.806 452.498 418.474 452.498C413.142 452.498 407.473 449.662 405.802 446.159C404.132 442.657 407.111 439.82 412.443 439.82C417.774 439.82 423.444 442.657 425.106 446.159Z" fill="#D3D3D3"/>
<path d="M381.669 474.977H527.769C527.899 474.977 528.027 475.002 528.147 475.052C528.267 475.101 528.375 475.174 528.467 475.266C528.559 475.357 528.632 475.466 528.681 475.586C528.731 475.705 528.756 475.834 528.756 475.963V477.797C528.756 477.926 528.731 478.055 528.681 478.174C528.632 478.294 528.559 478.403 528.467 478.494C528.375 478.586 528.267 478.659 528.147 478.708C528.027 478.758 527.899 478.783 527.769 478.783H384.105C383.45 478.783 382.822 478.524 382.359 478.061C381.896 477.598 381.636 476.971 381.636 476.317V474.944L381.669 474.977Z" fill="#F2F0F0"/>
<path d="M527.769 474.977H479.642V478.783H527.769C527.899 478.783 528.027 478.758 528.147 478.708C528.267 478.659 528.376 478.586 528.467 478.494C528.559 478.403 528.632 478.294 528.681 478.174C528.731 478.054 528.756 477.926 528.756 477.797V475.963C528.756 475.834 528.731 475.705 528.681 475.586C528.632 475.466 528.559 475.357 528.467 475.266C528.376 475.174 528.267 475.101 528.147 475.052C528.027 475.002 527.899 474.977 527.769 474.977V474.977Z" fill="#F2F0F0"/>
<path d="M468.296 372.352C468.296 372.352 483.106 380.788 484.9 381.396C486.694 382.004 490.24 381.503 490.726 377.68C491.211 373.857 494.437 355.481 494.437 355.481L480.687 346.708C480.687 346.708 481.823 359.617 478.671 364.246C475.52 368.874 468.296 372.352 468.296 372.352Z" fill="#2A94F4"/>
<path d="M470.303 372.419C470.303 372.419 455.542 380.854 453.707 381.463C451.872 382.071 448.367 381.569 447.873 377.746C447.379 373.923 444.491 355.071 444.491 355.071L457.27 348.197C457.27 348.197 456.759 359.708 459.936 364.361C463.112 369.015 470.303 372.419 470.303 372.419Z" fill="#2A94F4"/>
<path d="M667.648 478.874H69.7054V490.655H667.648V478.874Z" fill="#492817"/>
<path d="M613.803 490.647H99.2118V593H613.803V490.647Z" fill="#D3D3D3"/>
<path d="M613.803 593L109.242 490.655H613.803V593Z" fill="#F2F2F2"/>
<path d="M117.363 592.811C115.964 574.09 114.253 555.262 112.196 535.497C111.373 527.818 110.55 520.032 107.794 512.83C99.2448 490.631 71.2936 478.167 48.8224 486.75C30.5065 493.747 17.9091 511.588 14.4615 528.952C10.3474 549.721 8.51251 571.138 8.11755 592.811H117.363Z" fill="#FFBE55"/>
<path d="M55.6024 592.811C65.8054 566.181 81.1098 542.305 107.835 532.093C109.084 531.626 110.369 531.263 111.678 531.008C110.97 524.809 110.032 518.634 107.769 512.83C99.2201 490.631 71.2689 478.167 48.7977 486.75C30.5065 493.747 17.9091 511.588 14.4615 528.952C10.3474 549.721 8.51251 571.138 8.11755 592.811H55.6024Z" fill="#FFBE55"/>
<path d="M186.496 452.523C186.455 452.637 186.455 452.762 186.496 452.876C186.573 452.975 186.68 453.044 186.801 453.074C189.664 454.019 192.24 453.986 195.227 454.397C196.379 454.562 197.876 454.907 199.02 455.154C200.163 455.4 201.093 456.502 202.13 456.856C205.411 457.992 208.791 458.818 212.226 459.322C214.073 459.696 215.979 459.665 217.813 459.232C218.504 459.034 225.498 455.277 225.737 455.121C227.108 454.161 228.374 453.059 229.513 451.832C229.536 451.765 229.556 451.696 229.571 451.627C234.566 464.461 237.149 461.386 237.149 461.386C237.149 461.386 233.537 443.15 232.722 442.731C231.908 442.311 227.613 440.503 227.613 440.503L217.574 438.036C217.2 437.866 216.808 437.736 216.406 437.65C216.167 437.65 215.92 437.65 215.674 437.584H215.542C211.905 437.288 207.882 439.097 204.335 439.393C199.035 439.925 193.904 441.555 189.269 444.178C188.068 444.893 188.06 446.274 187.739 447.54C187.328 449.201 186.916 450.862 186.496 452.523Z" fill="#CD8A4F"/>
<path d="M194.379 441.309C172.986 447.664 136.592 455.672 121.741 439.369C115.207 432.199 105.408 412.122 98.1174 392.504C97.1876 390.038 95.5091 384.801 93.1805 378.412C91.469 377.467 89.7575 376.521 88.0132 375.642C83.4465 373.34 77.7279 370.577 72.4454 371.629C64.7109 373.175 61.6583 380.887 60.6709 388.361C70.1333 410.124 89.4696 452.622 98.3889 461.715C101.289 464.693 104.617 467.223 108.263 469.222C115.973 473.423 124.81 474.878 133.515 474.508C142.566 474.13 151.444 471.951 159.952 468.992C168.057 466.171 175.824 464.165 183.427 460.219C186.546 458.575 191.73 456.93 194.799 455.245C195.309 448.881 195.704 444.992 194.379 441.309Z" fill="#0B4870"/>
<path d="M38.3725 471.31C38.677 463.45 37.7061 455.606 36.7269 447.804C35.2623 436.006 33.6989 423.879 27.9145 413.503C23.8498 406.21 16.7242 371.498 29.7823 353.632C34.7192 346.865 66.1674 350.105 83.4795 355.893C99.1131 361.13 95.9123 364.353 105.696 388.517C109.308 393.853 113.669 400.849 116.137 406.934C120.013 416.454 109.036 436.302 104.98 443.109C105.465 458.065 107.292 470.997 105.539 491.05C105.185 495.046 115.545 538.178 113.586 541.672C102.157 562.062 53.4713 546.605 49.2667 529.339C37.9858 544.804 11.7132 536.147 11.7955 535.251C14.3298 508.768 37.92 482.927 38.3725 471.31Z" fill="#2A94F4"/>
<path d="M90.745 376.036C92.2919 374.63 91.7323 371.563 91.6747 369.771L91.3785 360.34C91.3045 357.8 85.4542 356.55 83.4959 355.892C70.734 351.625 50.3199 348.748 38.4795 350.244C41.5404 352.069 44.2392 354.741 47.0368 356.706C47.1438 356.78 47.2178 356.863 47.3083 356.937C47.6345 357.027 47.9432 357.172 48.2217 357.364C51.8421 359.831 54.6479 362.897 58.7044 364.657C63.9293 366.926 69.22 369.088 74.338 371.538C76.9763 372.739 79.6857 373.777 82.451 374.646C84.3517 375.279 88.0461 377.343 90.0044 376.496C90.2786 376.392 90.5301 376.235 90.745 376.036V376.036Z" fill="#E29B5D"/>
<path d="M183.287 465.629C183.264 465.689 183.256 465.755 183.264 465.82C183.273 465.884 183.297 465.946 183.336 465.998C183.374 466.051 183.426 466.092 183.485 466.12C183.544 466.147 183.609 466.159 183.674 466.155C186.743 466.771 189.434 466.401 192.528 466.443C193.737 466.443 195.325 466.623 196.535 466.739C197.744 466.854 198.847 467.857 199.958 468.095C203.479 468.827 207.059 469.234 210.654 469.312C212.611 469.457 214.576 469.176 216.414 468.49C217.097 468.194 223.819 463.425 224.058 463.277C225.366 462.105 226.544 460.796 227.572 459.372C227.575 459.301 227.575 459.229 227.572 459.158C234.376 471.746 236.623 468.202 236.623 468.202C236.623 468.202 230.55 449.868 229.661 449.547C228.773 449.226 224.099 447.903 224.099 447.903L213.444 446.694C213.033 446.57 212.612 446.487 212.185 446.447C211.938 446.447 211.675 446.447 211.42 446.447H211.28C207.495 446.612 203.578 448.988 199.966 449.736C194.568 450.964 189.484 453.302 185.04 456.601C183.896 457.497 184.061 458.928 183.896 460.268L183.287 465.629Z" fill="#E29B5D"/>
<path d="M37.8707 357.257C57.6183 355.185 79.5053 405.651 84.434 415.114C94.4806 434.394 107.177 453.838 114.829 460.391C132.24 475.289 168.74 462.356 189.969 453.057C191.804 456.691 191.902 460.745 192.223 467.371C189.286 469.542 184.151 471.885 181.148 473.949C173.809 478.997 166.066 482.064 158.109 486.01C149.716 490.121 140.83 493.549 131.557 495.054C122.629 496.55 113.331 496.189 104.84 492.851C100.822 491.255 97.0622 489.075 93.6825 486.38C80.3775 475.832 42.4126 410.913 38.4302 403.644C24.3353 377.993 24.9935 358.614 37.8707 357.257Z" fill="#0E538C"/>
<path d="M44.0828 297.222C45.1278 293.654 47.1602 290.472 49.2501 287.405C51.3401 284.338 53.4218 281.461 56.2523 279.233C59.7 276.511 63.9539 275.023 68.1914 273.889C76.6747 271.628 86.1454 270.674 93.8552 274.867C95.7079 275.776 97.2759 277.175 98.3889 278.912C99.0816 280.261 99.5617 281.709 99.8124 283.204C101.795 292.248 103.194 301.53 102.643 310.788C102.092 320.046 99.4997 329.344 94.0856 336.876C92.5469 339.005 90.7285 341.036 88.3258 342.096C86.3708 342.843 84.2879 343.198 82.1958 343.141C81.5129 343.141 80.8382 343.099 80.1635 343.091C79.5052 347.021 78.9292 351.075 78.2874 355.424C82.2617 356.452 86.3264 357.685 86.6966 358.491C87.5606 360.373 88.5151 369.45 86.8036 372.056C78.2627 368.085 64.785 362.749 56.2606 359.962C54.4421 359.37 54.3516 357.586 54.0801 355.695C53.9731 354.922 54.0801 355.695 57.6429 354.873C57.4701 350.976 56.8777 344.185 56.3922 337.772C53.1421 336.366 49.9578 334.557 48.164 332.181C46.5823 329.892 45.4951 327.299 44.9715 324.568C43.6565 318.732 43.0188 312.765 43.0708 306.784C42.9438 303.564 43.2848 300.344 44.0828 297.222Z" fill="#E29B5D"/>
<path d="M99.0391 269.071C89.4944 262.6 78.4686 257.914 66.9491 257.273C55.4296 256.631 43.4083 260.397 35.4187 268.717C27.8488 276.602 24.5986 288.778 28.2766 298.998C26.8443 298.786 25.3953 298.709 23.9486 298.768C20.1309 298.817 16.3808 299.782 13.0133 301.58C4.71108 306.25 3.01607 318.845 7.63208 327.215C7.63208 327.297 7.63208 327.38 7.57449 327.462C3.93763 328.901 1.09068 332.123 0.169119 337.698C-0.760667 343.593 2.20148 350.129 7.62386 352.629C9.41628 353.392 11.3496 353.769 13.2977 353.735C15.2458 353.701 17.1647 353.256 18.9294 352.431C20.2788 358.186 25.8164 362.347 31.609 363.843C36.3318 365.066 41.3066 364.91 45.9434 363.394C50.5802 361.877 54.6844 359.064 57.7695 355.287C60.8545 351.511 62.7909 346.929 63.3489 342.086C63.9069 337.243 63.0632 332.342 60.9179 327.963C59.0171 324.083 56.162 320.745 54.0802 316.954C49.1433 308.017 52.0808 302.977 58.5893 300.387C58.6349 300.409 58.6789 300.434 58.7209 300.461C59.6589 301.21 64.7028 310.402 64.1022 310.952C65.4516 309.719 65.5339 307.664 65.8959 305.888C66.5706 302.599 68.3644 299.837 70.6436 297.313C76.5103 295.602 80.9123 293.07 87.2234 288.269C93.5344 283.467 100.199 276.873 99.0391 269.071Z" fill="#6B4200"/>
<path d="M295.586 477.484H250.899V473.932H295.586C296.351 473.932 314.651 473.398 319.225 442.69C324.047 410.263 344.256 281.749 344.461 280.458L347.967 281.009C347.761 282.3 327.561 410.798 322.731 443.208C317.687 477.09 296.483 477.484 295.586 477.484Z" fill="#CCC6C6"/>
<path d="M244.48 473.933H200.172V477.476H244.48V473.933Z" fill="#CCC6C6"/>
<path d="M321.562 430.02C328.375 385.401 344.692 281.642 344.873 280.475L341.368 279.924C341.187 281.058 324.738 385.623 317.975 430.02H321.562Z" fill="#0B4870"/>
<path d="M334.341 415.772C339.969 379.596 346.107 340.238 351.677 304.655C351.747 304.214 351.729 303.763 351.623 303.33C351.518 302.896 351.327 302.487 351.062 302.128C350.797 301.768 350.464 301.465 350.081 301.236C349.697 301.006 349.272 300.855 348.83 300.79C347.514 300.61 346.197 300.453 344.873 300.33C338.989 337.936 332.432 379.867 326.491 418.14C327.692 418.337 328.893 418.543 330.095 418.765C330.571 418.854 331.06 418.847 331.534 418.744C332.007 418.641 332.455 418.444 332.851 418.165C333.247 417.886 333.583 417.531 333.839 417.12C334.095 416.708 334.265 416.25 334.341 415.772Z" fill="white"/>
<path d="M619.719 500.02C619.719 500.02 601.576 499.601 601.551 515.576C601.526 531.551 613.219 541.885 613.219 541.885L619.719 500.02Z" fill="#A5642C"/>
<path d="M630.58 365.89C630.58 365.89 617.695 374.753 613.161 434.953C608.627 495.153 609.31 544.713 610.182 544.903C611.055 545.092 628.54 548.15 628.54 548.15L642.346 453.509L630.58 365.89Z" fill="#A5642C"/>
<path d="M649.373 352.917C649.373 352.917 620.056 360.135 614.297 401.335L639.804 402.157L649.373 352.917Z" fill="#FFBE55"/>
<path d="M648.592 592.811L667.558 531.025L667.113 592.811H725.534C729.557 565.77 732.552 541.327 732.939 526.33C734.297 475.355 712.582 456.618 712.582 456.618H637.336C617.283 472.116 603.435 558.757 603.435 558.757L596.853 592.811H648.592Z" fill="#2A94F4"/>
<path d="M701.046 459.166C701.046 459.166 729.903 467.388 710.155 592.359" stroke="#CCE9FF" stroke-width="0.75" stroke-miterlimit="10"/>
<path d="M667.558 531.024V457.012" stroke="#CCE9FF" stroke-width="0.75" stroke-miterlimit="10"/>
<path d="M654.195 457.012V500.258C654.195 503.844 655.62 507.283 658.157 509.819C660.693 512.355 664.134 513.781 667.722 513.783H667.829" stroke="#CCE9FF" stroke-width="0.75" stroke-miterlimit="10"/>
<path d="M680.122 349.488C680.122 349.488 710.492 355.613 718.976 372.854L715.874 455.795L637.105 457.152L633.871 365.068C633.871 365.068 645.448 353.212 662.349 348.436L680.122 349.488Z" fill="#FFBE55"/>
<path d="M704.346 373.158C701.738 354.051 749.066 412.836 718.795 471.951C708.921 487.572 682.591 457.875 682.591 457.875L702.495 443.619L704.346 373.158Z" fill="#AD6C33"/>
<path d="M670.462 350.31C670.462 350.31 728.668 349.488 730.799 402.929L693.098 405.289L670.462 350.31Z" fill="#FFBE55"/>
<path d="M706.049 437.781L632.44 428.935L627.618 443.273L697.196 472.239C699.946 473.322 702.922 473.709 705.858 473.366C708.794 473.023 711.6 471.96 714.026 470.271C716.452 468.583 718.423 466.322 719.763 463.688C721.103 461.055 721.771 458.132 721.707 455.178V455.178C721.616 450.885 719.985 446.768 717.111 443.575C714.237 440.382 710.312 438.326 706.049 437.781V437.781Z" fill="#AD6C33"/>
<path d="M636.389 430.02L629.412 420.713C627.238 417.798 624.091 415.756 620.542 414.958L611.137 412.837L620.682 433.58L636.389 430.02Z" fill="#AD6C33"/>
<path d="M604.237 439.149L623.185 432.644C623.839 432.42 624.186 431.709 623.962 431.056L611.696 395.382C611.472 394.729 610.76 394.381 610.107 394.606L591.158 401.11C590.505 401.335 590.158 402.045 590.382 402.698L602.648 438.373C602.872 439.026 603.583 439.373 604.237 439.149Z" fill="#D3D3D3"/>
<path d="M636.389 430.02L621.183 422.933L600.119 424.635C599.885 424.601 599.646 424.619 599.419 424.687C599.191 424.755 598.982 424.87 598.804 425.026C598.625 425.183 598.483 425.375 598.386 425.591C598.29 425.808 598.241 426.042 598.243 426.279C598.663 431.302 601.008 444.589 614.05 446.669C630.185 449.242 636.899 444.285 636.899 444.285L636.389 430.02Z" fill="#AD6C33"/>
<path d="M643.597 306.784C643.599 308.718 643.026 310.609 641.952 312.218C640.877 313.827 639.35 315.081 637.562 315.822C635.774 316.563 633.806 316.757 631.907 316.381C630.009 316.004 628.265 315.072 626.896 313.705C625.527 312.337 624.595 310.594 624.218 308.697C623.841 306.8 624.035 304.834 624.777 303.047C625.518 301.261 626.774 299.734 628.384 298.661C629.994 297.587 631.886 297.015 633.822 297.017C636.415 297.017 638.901 298.046 640.734 299.877C642.567 301.709 643.597 304.194 643.597 306.784Z" fill="#AD6C33"/>
<path d="M628.918 295.619C632.028 316.444 645.991 333.735 667.064 333.735C677.181 333.735 686.883 329.719 694.037 322.571C701.191 315.423 705.21 305.728 705.21 295.619C705.21 285.51 701.191 275.815 694.037 268.666C686.883 261.518 677.181 257.502 667.064 257.502C645.991 257.502 625.478 272.688 628.918 295.619Z" fill="#0B4870"/>
<path d="M681.159 348.822L681.002 309.744L652.969 309.875L653.117 348.945C653.117 350.788 653.482 352.613 654.19 354.315C654.899 356.016 655.938 357.561 657.246 358.86C658.555 360.159 660.107 361.187 661.815 361.884C663.522 362.581 665.351 362.934 667.196 362.922C669.041 362.919 670.867 362.551 672.57 361.839C674.272 361.128 675.816 360.087 677.114 358.776C678.412 357.465 679.438 355.911 680.132 354.203C680.826 352.494 681.175 350.665 681.159 348.822V348.822Z" fill="#AD6C33"/>
<path d="M682.006 311.832C682.006 311.832 679.061 345.303 653.15 344.768L653.101 328.004L682.006 311.832Z" fill="#A56126"/>
<path d="M676.411 350.08C676.411 350.08 677.374 348.542 689.996 352.735C689.996 352.735 686.836 362.338 672.717 364.953C666.899 366.03 661.296 364.221 655.832 361.936C652.196 360.406 647.102 355.564 646.181 354.174C646.181 354.174 654.146 349.833 659.025 349.241C663.904 348.649 676.411 350.08 676.411 350.08Z" fill="#AD6C33"/>
<path d="M658.046 339.013C643.029 339.013 630.736 329.969 630.736 314.956V289.148C630.736 278.073 642.84 266.407 649.373 266.407L673.465 273.157C676.613 273.168 679.629 274.422 681.855 276.646C684.081 278.87 685.336 281.884 685.347 285.029V310.738C685.347 325.743 670.709 339.013 658.046 339.013Z" fill="#AD6C33"/>
<path d="M675.901 271.792C675.901 271.792 665.928 298.702 682.006 306.784L697.401 282.275L675.901 271.792Z" fill="#0B4870"/>
<path d="M697.401 306.784C697.403 308.718 696.83 310.609 695.756 312.218C694.682 313.827 693.154 315.081 691.366 315.822C689.578 316.563 687.61 316.757 685.711 316.381C683.813 316.004 682.069 315.072 680.7 313.705C679.331 312.337 678.399 310.594 678.022 308.697C677.645 306.8 677.839 304.834 678.581 303.047C679.322 301.261 680.578 299.734 682.188 298.661C683.798 297.587 685.69 297.015 687.626 297.017C690.219 297.017 692.705 298.046 694.538 299.877C696.371 301.709 697.401 304.194 697.401 306.784Z" fill="#AD6C33"/>
<path d="M685.182 250.038C679.62 260.932 682.204 273.379 690.942 277.852C699.681 282.325 711.315 277.12 716.886 266.226C722.456 255.332 719.864 242.885 711.126 238.412C702.388 233.939 690.753 239.144 685.182 250.038Z" fill="#0B4870"/>
<path d="M685.108 276.273C685.108 276.273 646.436 298.052 622.327 280.589C621.155 279.79 620.156 278.763 619.39 277.569C618.624 276.376 618.106 275.04 617.868 273.642C617.366 270.107 618.871 265.955 628.918 266.39C646.14 267.13 657.947 270.501 665.945 266.39C673.943 262.279 685.108 276.273 685.108 276.273Z" fill="#0B4870"/>
<path d="M658.046 267.566C658.046 267.566 642.272 254.847 633.814 260.651C625.355 266.456 644.354 273.148 644.354 273.148L658.046 267.566Z" fill="#0B4870"/>
</svg>
