<svg width="432" height="400" viewBox="0 0 532 500" fill="none" xmlns="http://www.w3.org/2000/svg">
<path d="M523.01 365.012H9.09843C4.26356 365.012 0.25415 361.119 0.25415 356.165V9.36197C0.25415 4.5256 4.14563 0.514954 9.09843 0.514954H522.892C527.727 0.514954 531.736 4.40764 531.736 9.36197V356.165C531.736 361.119 527.845 365.012 523.01 365.012Z" fill="#F5F5F5"/>
<path d="M506.501 27.2919H25.4898V338.471H506.501V27.2919Z" fill="#ECECEC"/>
<path d="M506.501 27.2919H25.4898V41.0932H506.501V27.2919Z" fill="#ECECEC"/>
<path d="M506.501 37.2006H25.4898V51.0019H506.501V37.2006Z" fill="#ECECEC"/>
<path d="M404.261 249.765H62.5179V262.033H404.261V249.765Z" fill="#F5F5F5"/>
<path d="M404.261 274.418H62.5179V286.686H404.261V274.418Z" fill="#F5F5F5"/>
<path d="M473.836 79.0764H62.5179V91.3443H473.836V79.0764Z" fill="#F5F5F5"/>
<path d="M473.836 103.73H62.5179V115.998H473.836V103.73Z" fill="#F5F5F5"/>
<path d="M193.295 130.625H62.5179V235.138H193.295V130.625Z" fill="#F5F5F5"/>
<path d="M473.954 191.964H203.083V203.288H473.954V191.964Z" fill="#F5F5F5"/>
<path d="M404.379 217.444H203.083V229.122H404.379V217.444Z" fill="#F5F5F5"/>
<path d="M473.954 130.507H203.083V141.831H473.954V130.507Z" fill="#F5F5F5"/>
<path d="M357.799 156.34H203.083V167.664H357.799V156.34Z" fill="#F5F5F5"/>
<path d="M401.077 387.306L402.61 358.76L418.058 360.765L414.992 390.845L400.251 388.25L401.077 387.306Z" fill="#FACBB6"/>
<path d="M417.115 383.532C417.115 383.532 406.738 388.84 401.077 380.936L373.247 395.917L421.006 395.563L417.115 383.532Z" fill="#004970"/>
<path d="M421.002 395.54L373.243 395.843L373.27 400.207L421.029 399.905L421.002 395.54Z" fill="#01384F"/>
<path d="M417.586 195.857C417.586 195.857 403.789 203.996 402.138 249.411C400.487 294.826 397.657 371.264 397.657 371.264H420.888L432.798 223.106L429.614 195.857H417.586Z" fill="#01384F"/>
<path d="M441.171 387.306L439.638 358.76L454.968 360.765L455.086 390.845L440.346 388.25L441.171 387.306Z" fill="#FACBB6"/>
<path d="M457.209 383.532C457.209 383.532 446.832 388.84 441.171 380.936L413.341 395.917L461.101 395.563L457.209 383.532Z" fill="#004970"/>
<path d="M461.096 395.54L413.337 395.843L413.365 400.207L461.124 399.905L461.096 395.54Z" fill="#01384F"/>
<path d="M449.072 201.755C449.072 201.755 462.987 217.915 460.982 246.108L460.275 371.5L433.86 370.792L425.487 200.103L449.072 201.755Z" fill="#01384F"/>
<path d="M331.266 144.78L360.983 172.973C364.874 176.629 371.124 175.686 373.719 170.967L376.549 165.659L336.455 136.523L331.266 144.78Z" fill="#FACBB6"/>
<path d="M337.044 140.77C335.511 145.488 330.441 148.201 325.606 146.55C320.889 145.016 318.177 139.944 319.828 135.107C321.361 130.389 326.431 127.676 331.266 129.327C335.983 130.979 338.577 136.051 337.044 140.77Z" fill="#FACBB6"/>
<path d="M330.676 129.209L322.304 124.019C321.596 123.547 320.653 123.665 320.181 124.373C319.71 124.963 319.827 125.671 320.299 126.142L328.2 133.22L330.676 129.209Z" fill="#FACBB6"/>
<path d="M365.464 160.115L403.671 145.96L401.902 164.008C401.902 164.008 381.266 172.973 368.412 174.978C355.44 177.101 365.464 160.115 365.464 160.115Z" fill="#FACBB6"/>
<path d="M413.695 145.252C413.695 145.252 410.157 139.826 401.195 143.601C392.233 147.375 375.605 152.919 375.605 152.919L389.992 177.573L417.233 167.311L413.695 145.252Z" fill="#FABB58"/>
<path d="M450.133 139.826L429.968 137.939L404.733 142.539C404.733 142.539 403.082 178.989 407.327 197.626C408.034 200.929 411.1 203.171 414.402 202.935L450.487 203.406C450.487 203.406 455.558 199.868 455.676 192.318L453.081 142.657C452.845 141.241 451.666 139.944 450.133 139.826Z" fill="#FABB58"/>
<path d="M479.142 202.345C479.024 201.637 483.741 193.616 483.741 193.616L470.534 166.249C468.647 160.823 457.209 141.831 452.492 145.134C449.072 147.611 451.312 168.726 453.081 172.619L467.114 199.396L479.142 202.345Z" fill="#FACBB6"/>
<path d="M448.128 139.59C448.128 139.59 459.685 140.416 464.284 147.493C469.944 156.458 479.85 170.967 479.85 170.967L450.133 182.056L448.128 139.59Z" fill="#FABB58"/>
<path d="M470.77 188.543L438.341 211.9L443.529 219.449L478.671 204.232C484.095 201.873 485.746 194.795 481.855 190.313C479.024 187.246 474.425 186.42 470.77 188.543Z" fill="#FACBB6"/>
<path d="M444.355 218.387C444.355 218.387 439.992 228.886 431.619 227.824C422.067 226.645 421.242 218.977 425.605 217.444L432.091 217.916C432.091 217.916 432.209 213.669 436.218 211.9C437.162 211.428 438.341 211.192 439.638 211.074L444.355 218.387Z" fill="#FACBB6"/>
<path d="M437.751 211.428L428.789 213.079C428.199 213.197 427.728 213.669 427.728 214.377C427.728 215.084 428.199 215.556 428.907 215.674L437.515 216.382L437.751 211.428Z" fill="#FACBB6"/>
<path d="M400.841 111.633C403.553 109.274 406.737 104.202 406.737 104.202L409.45 97.2423L418.058 99.6015L413.931 108.095L411.572 109.746L428.907 129.917C428.907 129.917 416.407 142.067 404.261 134.4C394.119 127.912 395.77 115.998 400.841 111.633Z" fill="#01384F"/>
<path d="M448.129 101.843C448.129 101.843 449.072 108.095 454.379 111.633C459.685 115.172 461.1 127.912 450.959 134.282C438.93 141.949 426.313 129.799 426.313 129.799L448.129 101.843Z" fill="#01384F"/>
<path d="M414.049 90.4006C414.049 90.4006 438.341 79.9021 446.595 96.0627C451.43 105.499 445.652 122.132 433.742 126.85C422.421 131.333 425.605 94.2933 425.605 94.2933L414.049 90.4006Z" fill="#01384F"/>
<path d="M418.883 128.738L419.827 140.77C420.181 145.016 422.893 147.139 427.138 146.786C430.676 146.432 433.86 144.308 434.096 140.77L431.737 121.778L418.883 128.738Z" fill="#FACBB6"/>
<path d="M419.473 137.467L433.506 124.845L418.766 127.558L419.473 137.467Z" fill="#F6B7A0"/>
<path d="M422.539 130.625C415.346 130.743 409.449 125.199 409.096 119.419L408.506 105.617C408.152 98.3039 413.577 92.052 420.888 91.3443C428.317 90.7545 436.218 96.1806 436.808 103.612L437.162 114.7C437.515 123.311 431.148 129.917 422.539 130.625Z" fill="#FACBB6"/>
<path d="M435.039 113.521C435.039 113.521 434.449 108.566 430.322 106.089C426.195 103.612 414.756 100.073 415.935 91.2263C415.935 91.2263 433.624 86.036 440.11 97.5961C446.595 109.274 435.039 113.521 435.039 113.521Z" fill="#01384F"/>
<path d="M420.652 91.3443C420.652 91.3443 419.355 98.5398 408.152 103.494C408.152 103.494 405.322 98.186 412.869 91.2263C413.577 90.6365 414.52 90.1647 415.464 90.1647H424.072L420.652 91.3443Z" fill="#01384F"/>
<path d="M439.874 138.764L428.671 137.585L413.813 140.888C413.813 140.888 413.813 151.622 425.959 150.914C437.869 150.088 439.874 138.764 439.874 138.764Z" fill="#FACBB6"/>
<path d="M160.748 264.746V410.073" stroke="#01384F" stroke-width="1.9084" stroke-miterlimit="10"/>
<path d="M221.125 260.735H100.489V268.756H221.125V260.735Z" fill="#01384F"/>
<path d="M187.517 260.263H127.848C126.079 260.263 124.664 258.848 124.664 257.078C124.664 255.309 126.079 253.893 127.848 253.893H187.517C189.286 253.893 190.701 255.309 190.701 257.078C190.701 258.848 189.286 260.263 187.517 260.263Z" fill="#FABB58"/>
<path d="M310.512 351.446V496.773" stroke="#01384F" stroke-width="1.9084" stroke-miterlimit="10"/>
<path d="M370.771 347.436H250.135V355.457H370.771V347.436Z" fill="#01384F"/>
<path d="M337.28 346.964H277.611C275.842 346.964 274.427 345.548 274.427 343.779C274.427 342.01 275.842 340.594 277.611 340.594H337.28C339.049 340.594 340.464 342.01 340.464 343.779C340.346 345.548 338.931 346.964 337.28 346.964Z" fill="#FABB58"/>
<path d="M61.5745 285.507L124.428 287.158C135.159 287.63 143.06 297.185 141.527 307.683C140.23 316.53 132.683 323.018 123.72 323.018H48.9567C48.9567 323.018 22.0701 313.463 30.4427 290.225L61.5745 285.507Z" fill="#01384F"/>
<path d="M127.022 400.164L137.517 405.354C138.579 405.944 139.286 407.124 138.932 408.303C138.697 409.247 137.753 409.955 135.395 409.955C130.206 410.073 107.211 406.652 107.211 406.652V409.011L96.5979 407.831C96.5979 407.831 95.8903 395.681 99.0743 393.912L127.022 400.164Z" fill="#01384F"/>
<path d="M110.159 388.014L127.14 400.164C127.14 400.164 125.371 404.764 117.352 401.697C109.334 398.63 99.3101 393.912 99.3101 393.912L100.725 386.599L110.159 388.014Z" fill="#DBA27C"/>
<path d="M99.1922 393.912L109.334 347.908L126.315 349.559L112.046 392.379L99.1922 393.912Z" fill="#DBA27C"/>
<path d="M141.527 307.683L127.376 383.296H94.9469L107.447 308.863L141.527 307.683Z" fill="#01384F"/>
<path d="M64.6406 285.507L112.046 287.158C122.777 287.63 130.678 297.185 129.145 307.683C127.848 316.53 120.301 323.018 111.338 323.018H36.5747C36.5747 323.018 9.6881 313.463 18.0607 290.225L64.6406 285.507Z" fill="#01384F"/>
<path d="M114.64 400.164L125.135 405.354C126.197 405.944 126.904 407.124 126.551 408.303C126.315 409.247 125.371 409.955 123.013 409.955C117.824 410.073 94.829 406.652 94.829 406.652V409.011L84.2159 407.831C84.2159 407.831 83.5084 395.681 86.6923 393.912L114.64 400.164Z" fill="#01384F"/>
<path d="M97.7771 388.014L114.758 400.164C114.758 400.164 112.989 404.764 104.97 401.697C96.9517 398.63 86.9282 393.912 86.9282 393.912L88.3432 386.599L97.7771 388.014Z" fill="#DBA27C"/>
<path d="M86.8102 393.912L96.9517 347.908L113.933 349.559L99.546 392.379L86.8102 393.912Z" fill="#DBA27C"/>
<path d="M129.145 307.683L114.876 383.296H82.4471L95.0649 308.863L129.145 307.683Z" fill="#01384F"/>
<path d="M45.3011 330.685H35.1596V386.481H45.3011V330.685Z" fill="#01384F"/>
<path d="M37.7539 379.403L8.74469 392.614L9.09846 396.271L39.4049 386.481L37.7539 379.403Z" fill="#01384F"/>
<path d="M42.7067 379.403L71.8339 392.614L71.3622 396.271L41.0558 386.481L42.7067 379.403Z" fill="#01384F"/>
<path d="M10.0419 409.955C13.8844 409.955 16.9994 406.839 16.9994 402.995C16.9994 399.151 13.8844 396.035 10.0419 396.035C6.19933 396.035 3.08435 399.151 3.08435 402.995C3.08435 406.839 6.19933 409.955 10.0419 409.955Z" fill="#01384F"/>
<path d="M71.8339 409.955C75.6764 409.955 78.7914 406.839 78.7914 402.995C78.7914 399.151 75.6764 396.035 71.8339 396.035C67.9914 396.035 64.8764 399.151 64.8764 402.995C64.8764 406.839 67.9914 409.955 71.8339 409.955Z" fill="#01384F"/>
<path d="M68.7679 334.578H10.1598C6.97583 334.578 4.26358 331.983 4.26358 328.68C4.26358 325.495 6.8579 322.782 10.1598 322.782H68.8858C72.0697 322.782 74.782 325.377 74.782 328.68C74.6641 331.983 72.0697 334.578 68.7679 334.578Z" fill="#01384F"/>
<path d="M197.894 420.689H187.753V476.484H197.894V420.689Z" fill="#01384F"/>
<path d="M190.347 469.407L161.338 482.5L161.692 486.275L191.998 476.484L190.347 469.407Z" fill="#01384F"/>
<path d="M195.3 469.407L224.427 482.5L223.956 486.275L193.649 476.484L195.3 469.407Z" fill="#01384F"/>
<path d="M162.635 499.84C166.478 499.84 169.593 496.724 169.593 492.881C169.593 489.037 166.478 485.921 162.635 485.921C158.793 485.921 155.678 489.037 155.678 492.881C155.678 496.724 158.793 499.84 162.635 499.84Z" fill="#01384F"/>
<path d="M224.427 499.84C228.27 499.84 231.385 496.724 231.385 492.881C231.385 489.037 228.27 485.921 224.427 485.921C220.585 485.921 217.47 489.037 217.47 492.881C217.47 496.724 220.585 499.84 224.427 499.84Z" fill="#01384F"/>
<path d="M221.361 424.582H162.635C159.451 424.582 156.739 421.987 156.739 418.684C156.739 415.499 159.333 412.786 162.635 412.786H221.361C224.545 412.786 227.257 415.381 227.257 418.684C227.257 421.987 224.663 424.582 221.361 424.582Z" fill="#01384F"/>
<path d="M61.2208 217.915L86.1027 251.534C89.7583 256.488 89.2866 263.448 84.8055 267.813C79.381 273.003 70.6547 272.295 66.1736 266.279L43.886 236.081L61.2208 217.915Z" fill="#ECA646"/>
<path d="M107.565 231.009C107.565 231.009 113.461 220.865 123.249 218.505C130.914 216.736 137.164 227.588 139.64 232.425C140.23 233.604 139.522 235.02 138.343 235.374C137.635 235.61 136.81 235.256 136.338 234.666L133.626 231.363C133.626 231.363 134.098 238.676 127.494 237.969C120.772 237.261 118.65 234.902 118.65 234.902L111.22 239.738L107.565 231.009Z" fill="#DBA17B"/>
<path d="M71.9518 252.124L108.154 227.588L117.824 242.215L80.3244 270.998L71.9518 252.124Z" fill="#2A94F4"/>
<path d="M62.1642 210.72C62.1642 210.72 45.8907 217.09 34.2162 239.738C22.5418 262.386 18.0607 290.343 18.0607 290.343C18.0607 290.343 39.6407 296.359 64.5226 285.625L73.3669 257.432C73.3669 257.432 81.032 248.349 73.3669 220.157L62.1642 210.72Z" fill="#2A94F4"/>
<path d="M118.532 242.097C118.532 242.097 126.551 233.486 136.692 233.486C144.593 233.486 148.131 245.518 149.428 250.826C149.664 252.124 148.72 253.304 147.423 253.304C146.598 253.304 145.89 252.832 145.536 252.124L143.649 248.231C143.649 248.231 142.47 255.545 136.102 253.304C129.734 251.062 128.201 248.231 128.201 248.231L119.829 251.18L118.532 242.097Z" fill="#DBA17B"/>
<path d="M79.0272 254.247L119.947 238.794L125.961 255.191L82.8008 274.536L79.0272 254.247Z" fill="#2A94F4"/>
<path d="M64.4047 221.572L89.2866 255.191C92.9423 260.145 92.4706 267.105 87.9895 271.469C82.565 276.66 73.8386 275.952 69.3575 269.936L47.1878 239.856L64.4047 221.572Z" fill="#2A94F4"/>
<path d="M83.5083 195.149L94.4753 195.503C100.254 201.637 98.1309 213.433 98.1309 213.433L80.3244 208.243L83.5083 195.149Z" fill="#01384F"/>
<path d="M84.6876 203.76L73.4848 220.157L62.1642 210.72L78.5556 186.892L84.6876 203.76Z" fill="#DBA17B"/>
<path d="M99.0743 170.967C99.0743 170.967 106.503 174.506 104.145 184.415C104.145 184.415 102.376 191.61 99.6639 201.873C98.2488 207.299 91.9989 210.248 87.0461 207.653C83.98 206.002 80.7961 203.642 78.3197 200.221L75.0178 194.677C67.9424 179.814 83.0367 163.772 98.013 170.378C98.3667 170.613 98.7205 170.731 99.0743 170.967Z" fill="#DBA17B"/>
<path d="M100.254 194.323L102.848 198.688C103.202 199.278 102.73 199.986 102.022 199.868L98.3668 199.278L100.254 194.323Z" fill="#DBA17B"/>
<path d="M83.6263 185.476C83.6263 185.476 85.8668 160.233 103.673 175.922C103.673 175.922 99.428 160.587 79.0272 163.182C74.782 163.772 69.4754 167.193 67.5886 171.085C64.5226 177.337 66.5273 184.061 69.4754 196.093L78.6735 190.077C79.6169 188.661 83.6263 185.476 83.6263 185.476Z" fill="#01384F"/>
<path d="M79.0272 176.629L80.3244 187.6C109.098 187.01 100.607 171.203 100.607 171.203C100.607 171.203 81.0319 158.7 79.0272 176.629Z" fill="#01384F"/>
<path d="M90.8196 185.123L85.631 189.605L82.8008 181.82L90.8196 185.123Z" fill="#01384F"/>
<path d="M96.3621 171.439C96.3621 171.439 104.97 175.568 104.499 182.174C104.499 182.174 113.697 176.865 99.8998 169.552C91.6451 165.187 96.3621 171.439 96.3621 171.439Z" fill="#01384F"/>
<path d="M80.3244 190.667C80.3244 190.667 75.1358 202.109 75.0178 206.709L53.3199 199.16C53.3199 199.16 59.6878 192.554 61.6925 186.656C63.3434 181.938 64.0509 170.496 73.4848 165.305L73.0131 180.522L80.3244 190.667Z" fill="#01384F"/>
<path d="M75.2537 186.656C74.1924 189.487 75.6074 192.554 78.4376 193.616C81.2678 194.677 84.3338 193.262 85.3951 190.431C86.4564 187.6 85.0414 184.533 82.2112 183.471C79.4989 182.409 76.315 183.825 75.2537 186.656Z" fill="#DBA17B"/>
<path d="M62.1642 210.72C62.1642 210.72 65.584 220.865 74.5462 224.639L71.9518 213.433L62.1642 210.72Z" fill="#DBA17B"/>
<path d="M214.993 275.244C214.993 275.244 208.625 287.276 204.97 298.01C203.201 303.083 215.347 311.93 215.937 311.812C216.644 311.694 217.234 311.222 217.352 310.396C218.177 304.852 220.3 295.179 226.078 288.692L214.993 275.244Z" fill="#F6B7A0"/>
<path d="M209.215 281.968C211.573 289.163 217.706 296.005 223.72 295.887C230.323 295.769 235.866 290.579 238.578 284.327C238.578 284.327 238.696 284.327 238.814 284.327C239.639 284.327 241.88 284.327 242.116 283.619C242.352 282.912 240.701 275.716 240.701 274.418C240.819 271.116 240.819 268.167 240.465 265.689C239.168 254.365 233.743 251.18 227.139 250.708C221.479 250.355 214.757 256.842 210.866 264.038C210.276 265.218 206.385 273.239 209.215 281.968Z" fill="#F6B7A0"/>
<path d="M251.196 271.233C246.479 273.947 240.583 270.998 236.691 268.167C236.337 267.931 235.984 267.695 235.63 267.459C231.267 264.864 225.488 266.633 222.894 270.998C221.361 273.475 219.828 276.66 219.592 279.727C219.356 284.445 211.102 288.692 207.8 281.496C204.852 274.89 203.201 265.689 208.507 253.893C209.333 252.006 210.394 250.472 212.163 249.411C210.984 251.77 211.691 252.714 211.809 253.304C212.281 252.242 214.05 249.175 216.644 247.759C219.474 246.226 222.658 245.046 225.96 244.928C224.899 245.518 224.191 245.872 224.073 247.052C224.073 247.052 227.847 245.282 230.559 245.282C236.102 245.4 239.993 248.113 242.823 251.77C244.356 253.657 245.889 257.432 247.776 259.084C249.781 260.735 252.375 261.561 255.205 261.089C257.092 265.807 254.498 269.464 251.196 271.233Z" fill="#01384F"/>
<path d="M223.484 274.772C224.545 277.485 223.956 280.198 222.069 280.906C220.3 281.614 217.941 279.962 216.88 277.367C215.819 274.654 216.408 271.941 218.295 271.233C220.182 270.408 222.422 272.059 223.484 274.772Z" fill="#F6B7A0"/>
<path d="M266.998 409.247L234.687 484.505L227.493 483.326L247.304 406.77L266.998 409.247Z" fill="#01384F"/>
<path d="M227.493 483.326L234.687 484.505L236.22 489.342C236.22 489.342 257.917 487.454 259.451 496.773L244.474 497.717C241.172 497.953 237.87 497.481 234.687 496.537L227.021 494.178C225.135 493.588 224.073 491.465 224.899 489.578L227.493 483.326Z" fill="#004970"/>
<path d="M208.154 384.003L270.771 390.137C286.101 391.671 296.832 406.18 293.648 421.279C287.87 449.353 279.851 488.28 279.851 488.87C279.851 489.814 272.894 488.87 272.894 488.87L271.243 414.437L204.144 413.14C195.654 413.022 189.286 405.236 190.937 396.861C192.352 388.84 199.899 383.178 208.154 384.003Z" fill="#01384F"/>
<path d="M272.776 487.926H279.733V492.173C279.733 492.173 303.672 490.639 303.908 498.071H275.134C273.837 498.071 272.776 497.009 272.776 495.712V487.926Z" fill="#004970"/>
<path d="M184.687 303.201C182.564 304.97 180.677 307.211 178.791 309.571C171.362 319.597 167.588 332.927 167.942 346.846C169.121 394.856 181.503 417.032 205.677 412.078C216.29 409.955 223.13 397.687 220.772 384.593C217.352 365.366 221.243 345.902 231.267 331.393C234.804 326.321 234.687 318.771 231.149 313.227C227.965 308.155 219.592 301.313 219.592 301.313L205.677 295.179C205.795 295.297 192.116 296.831 184.687 303.201Z" fill="#2A94F4"/>
<path d="M305.912 326.439L306.384 328.916L304.144 328.208L280.795 304.97C280.323 304.498 280.323 303.673 280.795 303.201C281.266 302.729 282.092 302.729 282.564 303.201L305.912 326.439Z" fill="#01384F"/>
<path d="M253.436 330.449C251.314 333.752 246.715 341.774 247.776 348.851C237.517 347.318 227.493 343.071 218.885 335.994C213.578 331.629 207.328 326.203 204.498 322.9C200.017 317.828 198.13 310.868 199.781 304.262C201.786 296.241 207.21 294.354 217.234 300.252C220.536 302.139 223.484 304.498 226.078 307.211L241.054 322.074C244.71 325.731 248.955 328.562 253.436 330.449Z" fill="#2A94F4"/>
<path d="M304.38 317.946C301.313 313.935 298.719 311.812 297.068 313.345C295.889 314.289 295.181 315.704 295.181 317.828L292.823 319.833C291.998 320.541 291.88 321.72 292.469 322.664C292.823 323.254 293.413 323.844 294.356 324.551L293.059 325.731C285.983 331.157 277.493 333.752 269.12 333.752C266.644 333.752 264.285 333.516 261.927 333.045C259.215 338.235 259.686 344.487 260.748 349.441C274.427 348.497 287.87 342.599 297.894 331.747C298.365 331.275 298.837 330.803 299.191 330.214C300.016 329.152 300.96 328.208 301.903 327.383C303.79 325.613 307.328 321.838 304.38 317.946Z" fill="#F6B7A0"/>
<path d="M260.512 349.323C256.267 349.677 252.021 349.441 247.776 348.851C246.715 341.774 251.314 333.752 253.436 330.449C256.149 331.629 258.861 332.455 261.691 332.927C258.979 338.235 259.451 344.369 260.512 349.323Z" fill="#2A94F4"/>
</svg>
