<svg width="291" height="160" viewBox="0 0 291 160" fill="none" xmlns="http://www.w3.org/2000/svg">
<path d="M3 159.384H291V0H155.865V26H3V159.384Z" fill="#6FACB6"/>
<path d="M281.68 149V35.5673V7H162.379V20.6913V35H86.4175H10.4563L10.4563 92V149H145.136H179.155H213.175H281.68Z" fill="#89D2DE"/>
<path d="M10.4563 35L3 26H155.854L162.379 35H10.4563Z" fill="#C6E9F1"/>
<path d="M162.379 7L155.854 0H291L281.68 7H162.379Z" fill="#C6E9F1"/>
<path d="M231.54 90.2984V84.5251H216.695V90.2984L224.118 96.8959L231.54 90.2984Z" fill="#834616"/>
<path d="M243.017 92.9987L232.812 90.5975C232.658 90.5615 232.516 90.4997 232.384 90.4252L224.118 95.2463L216.174 90.1913C215.968 90.385 215.713 90.5286 215.423 90.597L205.218 92.9983C203.727 93.3496 202.674 94.679 202.674 96.2095V102.669C202.674 103.58 203.413 104.319 204.324 104.319H243.912C244.822 104.319 245.561 103.58 245.561 102.669V96.2095C245.561 94.679 244.507 93.3496 243.017 92.9987Z" fill="#CCE9FF"/>
<path d="M226.179 104.319H222.055L222.571 96.8956H225.664L226.179 104.319Z" fill="#0B4870"/>
<path d="M226.18 95.2463H222.056V95.7229C222.056 96.8263 222.95 97.7206 224.054 97.7206H224.181C225.285 97.7206 226.179 96.8263 226.179 95.7229L226.18 95.2463Z" fill="#0B4870"/>
<path d="M216.579 88.4617L224.118 95.2463C224.118 95.2463 222.007 96.3122 219.401 98.4597C218.864 98.9029 218.051 98.7235 217.763 98.0893L214.221 90.2972L215.341 88.6169C215.62 88.1989 216.205 88.1251 216.579 88.4617Z" fill="#D3D3D3"/>
<path d="M231.656 88.4617L224.118 95.2463C224.118 95.2463 226.229 96.3122 228.835 98.4597C229.372 98.9029 230.185 98.7235 230.473 98.0893L234.015 90.2972L232.894 88.6169C232.616 88.1989 232.031 88.1251 231.656 88.4617Z" fill="#D3D3D3"/>
<path d="M236.438 75.9242L235.507 79.6505C235.396 80.0917 234.999 80.4006 234.543 80.4006C234.411 80.4006 234.281 80.3737 234.166 80.3246L234.119 81.3665C234.053 82.8448 233.33 84.2152 232.146 85.1026L228.735 87.6595C227.88 88.3018 226.838 88.6475 225.767 88.6475H222.467C221.398 88.6475 220.356 88.3018 219.498 87.6595L216.088 85.1026C214.907 84.2152 214.181 82.8448 214.115 81.3665L214.068 80.3246C213.953 80.3737 213.823 80.4006 213.691 80.4006C213.237 80.4006 212.84 80.0917 212.73 79.6505L211.798 75.9242C211.528 74.848 212.345 73.8036 213.455 73.8036H213.458C213.566 73.8036 213.669 73.8134 213.772 73.833L213.397 65.5568H234.84L234.463 73.833C234.566 73.8134 234.669 73.8036 234.776 73.8036H234.781C235.892 73.8036 236.705 74.848 236.438 75.9242Z" fill="#97571E"/>
<path d="M229.118 60.0919L229.891 65.5563C233.42 66.2619 233.929 71.8008 234.002 73.383C234.015 73.6701 234.107 73.9471 234.263 74.1888L235.61 76.2778C235.61 76.2778 236.877 74.6453 237.259 70.5045C237.259 70.5045 237 58.5 229.118 60.0919Z" fill="#0B4870"/>
<path d="M215.835 60.1703C210.32 64.242 211.351 71.2268 211.351 71.2268C211.729 74.5255 213 77.0001 213 77.0001L214.429 74.2224C214.429 74.2224 214.365 67.227 216.865 66.727C219.865 65.227 228.116 65.526 231.365 66.227C233.365 64.227 233.7 64.897 233.365 61.727C233.191 60.0866 231.568 57.8714 224 57.9999C221.421 58.0438 218.344 58.8643 215.835 60.1703Z" fill="#0B4870"/>
<path d="M224.117 14.9998C214.276 14.9998 213.319 27.2994 219.011 31.2692C221.911 31.631 220.168 32.0654 220.448 32.2343C221.539 32.8921 216.557 39.0735 224.117 38.6239C228.275 38.3766 226.389 37.2212 227.48 36.5637C229.09 36.5411 227.506 32.7153 227.508 32.3878C234.004 29.4855 233.956 14.9998 224.117 14.9998Z" fill="#FFBE55"/>
<path d="M233.538 37.5243L227.99 35.2131C227.527 35.0199 227.225 34.5673 227.225 34.0653V32.563H221.008V34.0653C221.008 34.5673 220.707 35.0201 220.243 35.2131L214.696 37.5243C214.001 37.8141 213.548 38.4932 213.548 39.246V41.7328C213.548 42.4195 214.105 42.9762 214.792 42.9762H233.442C234.128 42.9762 234.685 42.4195 234.685 41.7328V39.2458C234.685 38.4929 234.233 37.8141 233.538 37.5243Z" fill="#FCD2B1"/>
<path d="M233.538 37.5241L228.174 35.2893L224.116 37.0407L220.059 35.2893L214.696 37.5241C214.001 37.8139 213.547 38.4929 213.547 39.2458V41.7326C213.547 42.4193 214.104 42.976 214.791 42.976H233.441C234.128 42.976 234.685 42.4193 234.685 41.7326V39.2455C234.685 38.4927 234.232 37.8139 233.538 37.5241Z" fill="#CCE9FF"/>
<path d="M224.117 37.0406L220.558 34.3717C220.33 34.2006 220.004 34.256 219.846 34.4938L219.143 35.5484L221.325 38.6025C221.49 38.8346 221.817 38.88 222.04 38.7018L224.117 37.0406Z" fill="#D3D3D3"/>
<path d="M224.117 37.0405L227.675 34.3716C227.903 34.2004 228.229 34.2559 228.387 34.4936L229.09 35.5483L226.909 38.6024C226.743 38.8345 226.416 38.8799 226.193 38.7017L224.117 37.0405Z" fill="#D3D3D3"/>
<path d="M218.02 24.5723C218.009 24.8827 218.016 25.194 218.048 25.5031L218.493 29.8543C218.568 30.6736 219.042 31.4032 219.762 31.803L223.301 33.7694C223.865 34.0824 224.55 34.0824 225.113 33.7694L228.653 31.803C229.372 31.4034 229.847 30.6738 229.921 29.8543L230.308 26.1905C230.308 21.2172 224.207 23.7037 221.099 20.5955C220.478 21.8389 218.252 22.9896 218.02 24.5723Z" fill="#FFE3CA"/>
<path d="M258.432 35.8042C248.592 35.8042 247.635 48.1039 253.327 52.0736C256.226 52.4355 254.483 52.8699 254.764 53.0388C255.854 53.6965 250.872 59.878 258.432 59.4284C262.59 59.181 260.705 58.0256 261.795 57.3681C263.406 57.3456 261.822 53.5198 261.824 53.1922C268.32 50.2896 268.272 35.8042 258.432 35.8042Z" fill="#0E538C"/>
<path d="M267.853 58.3285L262.305 56.0173C261.842 55.8241 261.54 55.3715 261.54 54.8695V53.3672H255.323V54.8695C255.323 55.3715 255.022 55.8243 254.558 56.0173L249.011 58.3285C248.316 58.6183 247.863 59.2974 247.863 60.0502V62.537C247.863 63.2237 248.42 63.7804 249.107 63.7804H267.757C268.443 63.7804 269 63.2237 269 62.537V60.0502C269 59.2974 268.547 58.6183 267.853 58.3285Z" fill="#CA7D41"/>
<path d="M267.853 58.3283L262.489 56.0935L258.432 57.8449L254.375 56.0935L249.011 58.3283C248.316 58.6181 247.863 59.2971 247.863 60.05V62.5368C247.863 63.2235 248.42 63.7802 249.107 63.7802H267.757C268.444 63.7802 269 63.2235 269 62.5368V60.05C269.001 59.2971 268.548 58.6181 267.853 58.3283Z" fill="#FFBE55"/>
<path d="M258.431 57.8453L254.873 55.1764C254.645 55.0053 254.319 55.0607 254.161 55.2985L253.458 56.3531L255.639 59.4072C255.805 59.6393 256.132 59.6847 256.355 59.5065L258.431 57.8453Z" fill="#FFE3CA"/>
<path d="M258.431 57.845L261.989 55.176C262.218 55.0049 262.543 55.0603 262.701 55.2981L263.405 56.3527L261.223 59.4068C261.057 59.639 260.73 59.6843 260.508 59.5061L258.431 57.845Z" fill="#FFE3CA"/>
<path d="M252.335 45.3767C252.325 45.6871 252.331 45.9984 252.363 46.3076L252.808 50.6587C252.883 51.478 253.358 52.2076 254.077 52.6074L257.617 54.5738C258.18 54.8869 258.865 54.8869 259.429 54.5738L262.968 52.6074C263.688 52.2079 264.162 51.4783 264.237 50.6587L264.623 46.995C264.623 42.0216 258.523 44.5082 255.414 41.3999C254.793 42.6431 252.568 43.794 252.335 45.3767Z" fill="#D08D51"/>
<path d="M195.073 55.6465V52.2321H186.293V55.6465L190.683 59.5486L195.073 55.6465Z" fill="#E79C62"/>
<path d="M201.86 57.2438L195.825 55.8236C195.733 55.8023 195.65 55.7658 195.571 55.7216L190.683 58.573L185.984 55.5831C185.863 55.6976 185.712 55.7827 185.54 55.8231L179.504 57.2433C178.623 57.4512 178 58.2374 178 59.1425V62.9629C178 63.5017 178.437 63.9386 178.975 63.9386H202.389C202.928 63.9386 203.365 63.5017 203.365 62.9629V59.1425C203.365 58.2376 202.742 57.4514 201.86 57.2438Z" fill="#FFE3CA"/>
<path d="M191.902 63.939H189.463L189.768 59.5486H191.597L191.902 63.939Z" fill="#0E538C"/>
<path d="M191.902 58.5731H189.463V58.855C189.463 59.5076 189.992 60.0367 190.644 60.0367H190.72C191.373 60.0367 191.902 59.5076 191.902 58.855V58.5731Z" fill="#0E538C"/>
<path d="M186.224 54.5607L190.682 58.5736C190.682 58.5736 189.434 59.2039 187.893 60.474C187.575 60.7363 187.094 60.6302 186.924 60.2548L184.829 55.6465L185.492 54.6527C185.657 54.4053 186.003 54.3619 186.224 54.5607Z" fill="#FFBE55"/>
<path d="M195.141 54.5605L190.682 58.5734C190.682 58.5734 191.931 59.2036 193.472 60.4738C193.79 60.7361 194.27 60.6299 194.441 60.2546L196.535 55.6463L195.873 54.6524C195.708 54.4051 195.362 54.3617 195.141 54.5605Z" fill="#FFBE55"/>
<path d="M197.97 47.1449L197.419 49.3488C197.353 49.6096 197.119 49.7925 196.849 49.7925C196.771 49.7925 196.694 49.7766 196.626 49.7477L196.598 50.364C196.559 51.2382 196.131 52.0489 195.431 52.5737L193.414 54.0858C192.908 54.4656 192.292 54.6703 191.658 54.6703H189.706C189.074 54.6703 188.458 54.4658 187.951 54.0858L185.934 52.5737C185.235 52.0489 184.806 51.2382 184.767 50.364L184.739 49.7477C184.671 49.7766 184.594 49.7925 184.516 49.7925C184.248 49.7925 184.013 49.6099 183.948 49.3488L183.397 47.1449C183.237 46.5085 183.72 45.8907 184.377 45.8907H184.378C184.442 45.8907 184.503 45.8963 184.564 45.9081L184.342 41.0132H197.024L196.801 45.9081C196.862 45.8966 196.923 45.8907 196.987 45.8907H196.99C197.646 45.8907 198.128 46.5085 197.97 47.1449Z" fill="#EAAA71"/>
<path d="M193.64 37.7813L194.097 41.0131C196.185 41.4306 196.485 44.7063 196.529 45.6423C196.537 45.8119 196.591 45.9759 196.683 46.1189L197.48 47.3542C197.48 47.3542 198.229 46.3888 198.455 43.9397C198.455 43.9395 198.884 35.8302 193.64 37.7813Z" fill="#0B4870"/>
<path d="M185.53 37.4006C182.268 39.8089 182.878 43.9397 182.878 43.9397C183.102 45.8906 183.853 47.3542 183.853 47.3542L184.829 46.3787C184.829 46.3787 184.452 43.5607 186.292 42.4766C188 41.4705 189.494 41.9888 191.018 41.9888C195.103 41.9888 196.246 40.4493 196.048 38.5743C195.945 37.604 194.462 35.5835 190.682 35.6477C189.157 35.6732 187.014 36.6281 185.53 37.4006Z" fill="#0B4870"/>
<path d="M197.194 99.8474C197.194 101.265 196.045 102.415 194.626 102.415C193.725 102.415 192.931 101.951 192.473 101.245H188.207C187.435 101.245 186.809 100.619 186.809 99.8474V74.9629C186.106 74.5047 185.642 73.7114 185.642 72.8103C185.642 71.3908 186.79 70.2426 188.207 70.2426C189.626 70.2426 190.775 71.3908 190.775 72.8103C190.775 73.7134 190.31 74.507 189.605 74.9649V98.4496H192.471C192.93 97.7443 193.723 97.2797 194.626 97.2797C196.045 97.2797 197.194 98.4282 197.194 99.8474Z" fill="#2A94F4"/>
<path d="M208.606 21.0485C208.606 22.468 207.458 23.6162 206.041 23.6162C205.137 23.6162 204.344 23.1517 203.888 22.4466H189.605V28.8892C190.31 29.3474 190.775 30.1407 190.775 31.0438C190.775 32.4632 189.626 33.6115 188.207 33.6115C186.79 33.6115 185.642 32.4632 185.642 31.0438C185.642 30.1429 186.106 29.3493 186.809 28.8914V21.0485C186.809 20.2768 187.435 19.6509 188.207 19.6509H203.888C204.344 18.9456 205.137 18.4813 206.041 18.4813C207.458 18.4811 208.606 19.6316 208.606 21.0485Z" fill="#2A94F4"/>
<path d="M215.565 49.7926C215.565 50.3084 215.412 50.7881 215.152 51.1904C214.696 51.8955 213.902 52.36 212.999 52.36C212.096 52.36 211.302 51.8955 210.847 51.1904H205.443C204.987 51.8955 204.193 52.36 203.29 52.36C202.387 52.36 201.593 51.8955 201.135 51.1904C200.875 50.7881 200.725 50.3086 200.725 49.7926C200.725 49.2785 200.875 48.7968 201.138 48.3947C201.596 47.6894 202.389 47.2249 203.29 47.2249C204.193 47.2249 204.987 47.6894 205.443 48.3947H210.847C211.302 47.6894 212.096 47.2249 212.999 47.2249C213.9 47.2249 214.694 47.6894 215.15 48.3947C215.412 48.7968 215.565 49.2785 215.565 49.7926Z" fill="#2A94F4"/>
<path d="M247.129 49.7926C247.129 50.3084 246.977 50.7881 246.716 51.1904C246.26 51.8955 245.467 52.36 244.564 52.36C243.661 52.36 242.867 51.8955 242.411 51.1904H237.007C236.552 51.8955 235.758 52.36 234.855 52.36C233.952 52.36 233.158 51.8955 232.7 51.1904C232.44 50.7881 232.289 50.3086 232.289 49.7926C232.289 49.2785 232.44 48.7968 232.702 48.3947C233.16 47.6894 233.954 47.2249 234.855 47.2249C235.758 47.2249 236.552 47.6894 237.007 48.3947H242.411C242.867 47.6894 243.661 47.2249 244.564 47.2249C245.465 47.2249 246.259 47.6894 246.714 48.3947C246.977 48.7968 247.129 49.2785 247.129 49.7926Z" fill="#2A94F4"/>
<path d="M262.392 31.0436C262.392 32.463 261.243 33.6113 259.824 33.6113C258.407 33.6113 257.256 32.463 257.256 31.0436C257.256 30.1426 257.721 29.3491 258.426 28.8911V22.4464H244.145C243.687 23.1517 242.894 23.616 241.993 23.616C240.575 23.616 239.425 22.4677 239.425 21.0483C239.425 19.6313 240.575 18.4808 241.993 18.4808C242.894 18.4808 243.687 18.9454 244.145 19.6504H259.824C260.596 19.6504 261.222 20.2763 261.222 21.0481V28.8907C261.927 29.3491 262.392 30.1429 262.392 31.0436Z" fill="#2A94F4"/>
<path d="M226.665 52.625C226.665 54.0423 225.514 55.1905 224.097 55.1905C222.68 55.1905 221.529 54.0423 221.529 52.625C221.529 51.7219 221.994 50.9284 222.699 50.4724V49.6854C221.994 49.2297 221.529 48.4359 221.529 47.535C221.529 46.1156 222.68 44.9675 224.097 44.9675C225.514 44.9675 226.665 46.1158 226.665 47.535C226.665 48.4359 226.2 49.2297 225.495 49.6854V50.4724C226.2 50.9284 226.665 51.7219 226.665 52.625Z" fill="#2A94F4"/>
<path d="M262.391 72.6557C262.391 73.5566 261.927 74.3502 261.222 74.8081V99.8476C261.222 100.62 260.596 101.245 259.824 101.245H255.759C255.301 101.951 254.508 102.415 253.607 102.415C252.188 102.415 251.039 101.265 251.039 99.8476C251.039 98.4281 252.188 97.2799 253.607 97.2799C254.51 97.2799 255.304 97.7444 255.762 98.4497H258.426V74.8079C257.723 74.35 257.258 73.5564 257.258 72.6555C257.258 71.2361 258.407 70.0878 259.824 70.0878C261.243 70.088 262.391 71.2363 262.391 72.6557Z" fill="#2A94F4"/>
<path d="M176.527 139.175C175.377 139.175 174.344 138.975 173.427 138.575C172.527 138.158 171.819 137.592 171.302 136.875C170.785 136.142 170.519 135.3 170.502 134.35H172.927C173.01 135.167 173.344 135.858 173.927 136.425C174.527 136.975 175.394 137.25 176.527 137.25C177.61 137.25 178.46 136.983 179.077 136.45C179.71 135.9 180.027 135.2 180.027 134.35C180.027 133.683 179.844 133.142 179.477 132.725C179.11 132.308 178.652 131.992 178.102 131.775C177.552 131.558 176.81 131.325 175.877 131.075C174.727 130.775 173.802 130.475 173.102 130.175C172.419 129.875 171.827 129.408 171.327 128.775C170.844 128.125 170.602 127.258 170.602 126.175C170.602 125.225 170.844 124.383 171.327 123.65C171.81 122.917 172.485 122.35 173.352 121.95C174.235 121.55 175.244 121.35 176.377 121.35C178.01 121.35 179.344 121.758 180.377 122.575C181.427 123.392 182.019 124.475 182.152 125.825H179.652C179.569 125.158 179.219 124.575 178.602 124.075C177.985 123.558 177.169 123.3 176.152 123.3C175.202 123.3 174.427 123.55 173.827 124.05C173.227 124.533 172.927 125.217 172.927 126.1C172.927 126.733 173.102 127.25 173.452 127.65C173.819 128.05 174.26 128.358 174.777 128.575C175.31 128.775 176.052 129.008 177.002 129.275C178.152 129.592 179.077 129.908 179.777 130.225C180.477 130.525 181.077 131 181.577 131.65C182.077 132.283 182.327 133.15 182.327 134.25C182.327 135.1 182.102 135.9 181.652 136.65C181.202 137.4 180.535 138.008 179.652 138.475C178.769 138.942 177.727 139.175 176.527 139.175ZM192.475 125.05C193.508 125.05 194.442 125.275 195.275 125.725C196.108 126.158 196.758 126.817 197.225 127.7C197.708 128.583 197.95 129.658 197.95 130.925V139H195.7V131.25C195.7 129.883 195.358 128.842 194.675 128.125C193.992 127.392 193.058 127.025 191.875 127.025C190.675 127.025 189.717 127.4 189 128.15C188.3 128.9 187.95 129.992 187.95 131.425V139H185.675V120.5H187.95V127.25C188.4 126.55 189.017 126.008 189.8 125.625C190.6 125.242 191.492 125.05 192.475 125.05ZM200.816 132.1C200.816 130.7 201.1 129.475 201.666 128.425C202.233 127.358 203.008 126.533 203.991 125.95C204.991 125.367 206.1 125.075 207.316 125.075C208.516 125.075 209.558 125.333 210.441 125.85C211.325 126.367 211.983 127.017 212.416 127.8V125.3H214.716V139H212.416V136.45C211.966 137.25 211.291 137.917 210.391 138.45C209.508 138.967 208.475 139.225 207.291 139.225C206.075 139.225 204.975 138.925 203.991 138.325C203.008 137.725 202.233 136.883 201.666 135.8C201.1 134.717 200.816 133.483 200.816 132.1ZM212.416 132.125C212.416 131.092 212.208 130.192 211.791 129.425C211.375 128.658 210.808 128.075 210.091 127.675C209.391 127.258 208.616 127.05 207.766 127.05C206.916 127.05 206.141 127.25 205.441 127.65C204.741 128.05 204.183 128.633 203.766 129.4C203.35 130.167 203.141 131.067 203.141 132.1C203.141 133.15 203.35 134.067 203.766 134.85C204.183 135.617 204.741 136.208 205.441 136.625C206.141 137.025 206.916 137.225 207.766 137.225C208.616 137.225 209.391 137.025 210.091 136.625C210.808 136.208 211.375 135.617 211.791 134.85C212.208 134.067 212.416 133.158 212.416 132.125ZM220.836 127.525C221.236 126.742 221.802 126.133 222.536 125.7C223.286 125.267 224.194 125.05 225.261 125.05V127.4H224.661C222.111 127.4 220.836 128.783 220.836 131.55V139H218.561V125.3H220.836V127.525ZM229.062 123.075C228.629 123.075 228.262 122.925 227.962 122.625C227.662 122.325 227.512 121.958 227.512 121.525C227.512 121.092 227.662 120.725 227.962 120.425C228.262 120.125 228.629 119.975 229.062 119.975C229.479 119.975 229.829 120.125 230.112 120.425C230.412 120.725 230.562 121.092 230.562 121.525C230.562 121.958 230.412 122.325 230.112 122.625C229.829 122.925 229.479 123.075 229.062 123.075ZM230.162 125.3V139H227.887V125.3H230.162ZM240.714 125.05C242.381 125.05 243.731 125.558 244.764 126.575C245.798 127.575 246.314 129.025 246.314 130.925V139H244.064V131.25C244.064 129.883 243.723 128.842 243.039 128.125C242.356 127.392 241.423 127.025 240.239 127.025C239.039 127.025 238.081 127.4 237.364 128.15C236.664 128.9 236.314 129.992 236.314 131.425V139H234.039V125.3H236.314V127.25C236.764 126.55 237.373 126.008 238.139 125.625C238.923 125.242 239.781 125.05 240.714 125.05ZM255.68 125.075C256.864 125.075 257.897 125.333 258.78 125.85C259.68 126.367 260.347 127.017 260.78 127.8V125.3H263.08V139.3C263.08 140.55 262.814 141.658 262.28 142.625C261.747 143.608 260.98 144.375 259.98 144.925C258.997 145.475 257.847 145.75 256.53 145.75C254.73 145.75 253.23 145.325 252.03 144.475C250.83 143.625 250.122 142.467 249.905 141H252.155C252.405 141.833 252.922 142.5 253.705 143C254.489 143.517 255.43 143.775 256.53 143.775C257.78 143.775 258.797 143.383 259.58 142.6C260.38 141.817 260.78 140.717 260.78 139.3V136.425C260.33 137.225 259.664 137.892 258.78 138.425C257.897 138.958 256.864 139.225 255.68 139.225C254.464 139.225 253.355 138.925 252.355 138.325C251.372 137.725 250.597 136.883 250.03 135.8C249.464 134.717 249.18 133.483 249.18 132.1C249.18 130.7 249.464 129.475 250.03 128.425C250.597 127.358 251.372 126.533 252.355 125.95C253.355 125.367 254.464 125.075 255.68 125.075ZM260.78 132.125C260.78 131.092 260.572 130.192 260.155 129.425C259.739 128.658 259.172 128.075 258.455 127.675C257.755 127.258 256.98 127.05 256.13 127.05C255.28 127.05 254.505 127.25 253.805 127.65C253.105 128.05 252.547 128.633 252.13 129.4C251.714 130.167 251.505 131.067 251.505 132.1C251.505 133.15 251.714 134.067 252.13 134.85C252.547 135.617 253.105 136.208 253.805 136.625C254.505 137.025 255.28 137.225 256.13 137.225C256.98 137.225 257.755 137.025 258.455 136.625C259.172 136.208 259.739 135.617 260.155 134.85C260.572 134.067 260.78 133.158 260.78 132.125Z" fill="#0B4870"/>
</svg>
