<svg width="210" height="122" viewBox="0 0 210 122" fill="none" xmlns="http://www.w3.org/2000/svg">
<path d="M0 122H210V0H111.464V19.9016H0V122Z" fill="#6FACB6"/>
<path d="M203.204 114.051V27.2249V5.35815H116.214V15.8381V26.7906H60.8252H5.43689L5.43689 70.421V114.051H103.641H128.447H153.252H203.204Z" fill="#89D2DE"/>
<path d="M5.43688 26.7906L0 19.9016H111.456L116.214 26.7906H5.43688Z" fill="#C6E9F1"/>
<path d="M116.214 5.35812L111.456 0H210L203.204 5.35812H116.214Z" fill="#C6E9F1"/>
<path d="M123.68 106.339C122.707 106.339 121.827 106.172 121.04 105.839C120.267 105.506 119.654 105.026 119.2 104.399C118.747 103.772 118.514 103.032 118.5 102.179H121.5C121.54 102.752 121.74 103.206 122.1 103.539C122.474 103.872 122.98 104.039 123.62 104.039C124.274 104.039 124.787 103.886 125.16 103.579C125.534 103.259 125.72 102.846 125.72 102.339C125.72 101.926 125.594 101.586 125.34 101.319C125.087 101.052 124.767 100.846 124.38 100.699C124.007 100.539 123.487 100.366 122.82 100.179C121.914 99.9123 121.174 99.6523 120.6 99.399C120.04 99.1323 119.554 98.739 119.14 98.219C118.74 97.6856 118.54 96.979 118.54 96.099C118.54 95.2723 118.747 94.5523 119.16 93.939C119.574 93.3256 120.154 92.859 120.9 92.539C121.647 92.2056 122.5 92.039 123.46 92.039C124.9 92.039 126.067 92.3923 126.96 93.099C127.867 93.7923 128.367 94.7656 128.46 96.019H125.38C125.354 95.539 125.147 95.1456 124.76 94.839C124.387 94.519 123.887 94.359 123.26 94.359C122.714 94.359 122.274 94.499 121.94 94.779C121.62 95.059 121.46 95.4656 121.46 95.999C121.46 96.3723 121.58 96.6856 121.82 96.939C122.074 97.179 122.38 97.379 122.74 97.539C123.114 97.6856 123.634 97.859 124.3 98.059C125.207 98.3256 125.947 98.5923 126.52 98.859C127.094 99.1256 127.587 99.5256 128 100.059C128.414 100.592 128.62 101.292 128.62 102.159C128.62 102.906 128.427 103.599 128.04 104.239C127.654 104.879 127.087 105.392 126.34 105.779C125.594 106.152 124.707 106.339 123.68 106.339ZM137.288 94.959C138.128 94.959 138.875 95.1456 139.528 95.519C140.181 95.879 140.688 96.419 141.048 97.139C141.421 97.8456 141.608 98.699 141.608 99.699V106.199H138.808V100.079C138.808 99.199 138.588 98.5256 138.148 98.059C137.708 97.579 137.108 97.339 136.348 97.339C135.575 97.339 134.961 97.579 134.508 98.059C134.068 98.5256 133.848 99.199 133.848 100.079V106.199H131.048V91.399H133.848V96.499C134.208 96.019 134.688 95.6456 135.288 95.379C135.888 95.099 136.555 94.959 137.288 94.959ZM143.551 100.619C143.551 99.499 143.771 98.5056 144.211 97.639C144.664 96.7723 145.271 96.1056 146.031 95.639C146.804 95.1723 147.664 94.939 148.611 94.939C149.437 94.939 150.157 95.1056 150.771 95.439C151.397 95.7723 151.897 96.1923 152.271 96.699V95.119H155.091V106.199H152.271V104.579C151.911 105.099 151.411 105.532 150.771 105.879C150.144 106.212 149.417 106.379 148.591 106.379C147.657 106.379 146.804 106.139 146.031 105.659C145.271 105.179 144.664 104.506 144.211 103.639C143.771 102.759 143.551 101.752 143.551 100.619ZM152.271 100.659C152.271 99.979 152.137 99.399 151.871 98.919C151.604 98.4256 151.244 98.0523 150.791 97.799C150.337 97.5323 149.851 97.399 149.331 97.399C148.811 97.399 148.331 97.5256 147.891 97.779C147.451 98.0323 147.091 98.4056 146.811 98.899C146.544 99.379 146.411 99.9523 146.411 100.619C146.411 101.286 146.544 101.872 146.811 102.379C147.091 102.872 147.451 103.252 147.891 103.519C148.344 103.786 148.824 103.919 149.331 103.919C149.851 103.919 150.337 103.792 150.791 103.539C151.244 103.272 151.604 102.899 151.871 102.419C152.137 101.926 152.271 101.339 152.271 100.659ZM160.625 96.839C160.985 96.2523 161.452 95.7923 162.025 95.459C162.612 95.1256 163.279 94.959 164.025 94.959V97.899H163.285C162.405 97.899 161.739 98.1056 161.285 98.519C160.845 98.9323 160.625 99.6523 160.625 100.679V106.199H157.825V95.119H160.625V96.839ZM167.331 93.799C166.838 93.799 166.425 93.6456 166.091 93.339C165.771 93.019 165.611 92.6256 165.611 92.159C165.611 91.6923 165.771 91.3056 166.091 90.999C166.425 90.679 166.838 90.519 167.331 90.519C167.825 90.519 168.231 90.679 168.551 90.999C168.885 91.3056 169.051 91.6923 169.051 92.159C169.051 92.6256 168.885 93.019 168.551 93.339C168.231 93.6456 167.825 93.799 167.331 93.799ZM168.711 95.119V106.199H165.911V95.119H168.711ZM177.618 94.959C178.938 94.959 180.004 95.379 180.818 96.219C181.631 97.0456 182.038 98.2056 182.038 99.699V106.199H179.238V100.079C179.238 99.199 179.018 98.5256 178.578 98.059C178.138 97.579 177.538 97.339 176.778 97.339C176.004 97.339 175.391 97.579 174.938 98.059C174.498 98.5256 174.278 99.199 174.278 100.079V106.199H171.478V95.119H174.278V96.499C174.651 96.019 175.124 95.6456 175.698 95.379C176.284 95.099 176.924 94.959 177.618 94.959ZM189.04 94.939C189.867 94.939 190.594 95.1056 191.22 95.439C191.847 95.759 192.34 96.179 192.7 96.699V95.119H195.52V106.279C195.52 107.306 195.314 108.219 194.9 109.019C194.487 109.832 193.867 110.472 193.04 110.939C192.214 111.419 191.214 111.659 190.04 111.659C188.467 111.659 187.174 111.292 186.16 110.559C185.16 109.826 184.594 108.826 184.46 107.559H187.24C187.387 108.066 187.7 108.466 188.18 108.759C188.674 109.066 189.267 109.219 189.96 109.219C190.774 109.219 191.434 108.972 191.94 108.479C192.447 107.999 192.7 107.266 192.7 106.279V104.559C192.34 105.079 191.84 105.512 191.2 105.859C190.574 106.206 189.854 106.379 189.04 106.379C188.107 106.379 187.254 106.139 186.48 105.659C185.707 105.179 185.094 104.506 184.64 103.639C184.2 102.759 183.98 101.752 183.98 100.619C183.98 99.499 184.2 98.5056 184.64 97.639C185.094 96.7723 185.7 96.1056 186.46 95.639C187.234 95.1723 188.094 94.939 189.04 94.939ZM192.7 100.659C192.7 99.979 192.567 99.399 192.3 98.919C192.034 98.4256 191.674 98.0523 191.22 97.799C190.767 97.5323 190.28 97.399 189.76 97.399C189.24 97.399 188.76 97.5256 188.32 97.779C187.88 98.0323 187.52 98.4056 187.24 98.899C186.974 99.379 186.84 99.9523 186.84 100.619C186.84 101.286 186.974 101.872 187.24 102.379C187.52 102.872 187.88 103.252 188.32 103.519C188.774 103.786 189.254 103.919 189.76 103.919C190.28 103.919 190.767 103.792 191.22 103.539C191.674 103.272 192.034 102.899 192.3 102.419C192.567 101.926 192.7 101.339 192.7 100.659Z" fill="#0B4870"/>
<ellipse cx="160.225" cy="43.6494" rx="24.1816" ry="25.3847" fill="#EE9D3D"/>
<path d="M172.413 28.3634C171.876 28.0497 171.285 27.8502 170.675 27.7763C170.064 27.7024 169.446 27.7556 168.855 27.9328C168.264 28.1101 167.712 28.4078 167.23 28.8091C166.749 29.2104 166.348 29.7074 166.05 30.2716L157.364 46.6813L152.392 41.4627C151.961 40.9936 151.444 40.6194 150.874 40.362C150.303 40.1046 149.689 39.9691 149.068 39.9634C148.446 39.9577 147.83 40.082 147.255 40.329C146.68 40.5759 146.158 40.9406 145.718 41.4018C145.279 41.863 144.932 42.4114 144.696 43.015C144.461 43.6186 144.343 44.2654 144.348 44.9175C144.354 45.5697 144.483 46.2142 144.728 46.8134C144.973 47.4127 145.33 47.9546 145.776 48.4077L155.134 58.2309C156.018 59.1617 157.212 59.6725 158.442 59.6725L159.09 59.6234C159.807 59.518 160.491 59.2394 161.088 58.8095C161.686 58.3795 162.18 57.8099 162.531 57.1455L174.228 35.0432C174.527 34.4795 174.717 33.8595 174.787 33.2187C174.858 32.578 174.807 31.9289 174.639 31.3086C174.47 30.6883 174.187 30.109 173.805 29.6036C173.423 29.0983 172.95 28.6769 172.413 28.3634V28.3634Z" fill="#FFE3CA"/>
</svg>
