<svg width="300" height="160" viewBox="0 0 300 160" fill="none" xmlns="http://www.w3.org/2000/svg">
<path d="M12 159.384H300V0H164.865V26H12V159.384Z" fill="#6FACB6"/>
<path d="M290.68 149V35.5673V7H171.379V20.6913V35H95.4175H19.4563L19.4563 92V149H154.136H188.155H222.175H290.68Z" fill="#89D2DE"/>
<path d="M19.4563 35L12 26H164.854L171.379 35H19.4563Z" fill="#C6E9F1"/>
<path d="M171.379 7L164.854 0H300L290.68 7H171.379Z" fill="#C6E9F1"/>
<path d="M176.527 139.175C175.377 139.175 174.344 138.975 173.427 138.575C172.527 138.158 171.819 137.592 171.302 136.875C170.785 136.142 170.519 135.3 170.502 134.35H172.927C173.01 135.167 173.344 135.858 173.927 136.425C174.527 136.975 175.394 137.25 176.527 137.25C177.61 137.25 178.46 136.983 179.077 136.45C179.71 135.9 180.027 135.2 180.027 134.35C180.027 133.683 179.844 133.142 179.477 132.725C179.11 132.308 178.652 131.992 178.102 131.775C177.552 131.558 176.81 131.325 175.877 131.075C174.727 130.775 173.802 130.475 173.102 130.175C172.419 129.875 171.827 129.408 171.327 128.775C170.844 128.125 170.602 127.258 170.602 126.175C170.602 125.225 170.844 124.383 171.327 123.65C171.81 122.917 172.485 122.35 173.352 121.95C174.235 121.55 175.244 121.35 176.377 121.35C178.01 121.35 179.344 121.758 180.377 122.575C181.427 123.392 182.019 124.475 182.152 125.825H179.652C179.569 125.158 179.219 124.575 178.602 124.075C177.985 123.558 177.169 123.3 176.152 123.3C175.202 123.3 174.427 123.55 173.827 124.05C173.227 124.533 172.927 125.217 172.927 126.1C172.927 126.733 173.102 127.25 173.452 127.65C173.819 128.05 174.26 128.358 174.777 128.575C175.31 128.775 176.052 129.008 177.002 129.275C178.152 129.592 179.077 129.908 179.777 130.225C180.477 130.525 181.077 131 181.577 131.65C182.077 132.283 182.327 133.15 182.327 134.25C182.327 135.1 182.102 135.9 181.652 136.65C181.202 137.4 180.535 138.008 179.652 138.475C178.769 138.942 177.727 139.175 176.527 139.175ZM192.475 125.05C193.508 125.05 194.442 125.275 195.275 125.725C196.108 126.158 196.758 126.817 197.225 127.7C197.708 128.583 197.95 129.658 197.95 130.925V139H195.7V131.25C195.7 129.883 195.358 128.842 194.675 128.125C193.992 127.392 193.058 127.025 191.875 127.025C190.675 127.025 189.717 127.4 189 128.15C188.3 128.9 187.95 129.992 187.95 131.425V139H185.675V120.5H187.95V127.25C188.4 126.55 189.017 126.008 189.8 125.625C190.6 125.242 191.492 125.05 192.475 125.05ZM200.816 132.1C200.816 130.7 201.1 129.475 201.666 128.425C202.233 127.358 203.008 126.533 203.991 125.95C204.991 125.367 206.1 125.075 207.316 125.075C208.516 125.075 209.558 125.333 210.441 125.85C211.325 126.367 211.983 127.017 212.416 127.8V125.3H214.716V139H212.416V136.45C211.966 137.25 211.291 137.917 210.391 138.45C209.508 138.967 208.475 139.225 207.291 139.225C206.075 139.225 204.975 138.925 203.991 138.325C203.008 137.725 202.233 136.883 201.666 135.8C201.1 134.717 200.816 133.483 200.816 132.1ZM212.416 132.125C212.416 131.092 212.208 130.192 211.791 129.425C211.375 128.658 210.808 128.075 210.091 127.675C209.391 127.258 208.616 127.05 207.766 127.05C206.916 127.05 206.141 127.25 205.441 127.65C204.741 128.05 204.183 128.633 203.766 129.4C203.35 130.167 203.141 131.067 203.141 132.1C203.141 133.15 203.35 134.067 203.766 134.85C204.183 135.617 204.741 136.208 205.441 136.625C206.141 137.025 206.916 137.225 207.766 137.225C208.616 137.225 209.391 137.025 210.091 136.625C210.808 136.208 211.375 135.617 211.791 134.85C212.208 134.067 212.416 133.158 212.416 132.125ZM220.836 127.525C221.236 126.742 221.802 126.133 222.536 125.7C223.286 125.267 224.194 125.05 225.261 125.05V127.4H224.661C222.111 127.4 220.836 128.783 220.836 131.55V139H218.561V125.3H220.836V127.525ZM229.062 123.075C228.629 123.075 228.262 122.925 227.962 122.625C227.662 122.325 227.512 121.958 227.512 121.525C227.512 121.092 227.662 120.725 227.962 120.425C228.262 120.125 228.629 119.975 229.062 119.975C229.479 119.975 229.829 120.125 230.112 120.425C230.412 120.725 230.562 121.092 230.562 121.525C230.562 121.958 230.412 122.325 230.112 122.625C229.829 122.925 229.479 123.075 229.062 123.075ZM230.162 125.3V139H227.887V125.3H230.162ZM240.714 125.05C242.381 125.05 243.731 125.558 244.764 126.575C245.798 127.575 246.314 129.025 246.314 130.925V139H244.064V131.25C244.064 129.883 243.723 128.842 243.039 128.125C242.356 127.392 241.423 127.025 240.239 127.025C239.039 127.025 238.081 127.4 237.364 128.15C236.664 128.9 236.314 129.992 236.314 131.425V139H234.039V125.3H236.314V127.25C236.764 126.55 237.373 126.008 238.139 125.625C238.923 125.242 239.781 125.05 240.714 125.05ZM255.68 125.075C256.864 125.075 257.897 125.333 258.78 125.85C259.68 126.367 260.347 127.017 260.78 127.8V125.3H263.08V139.3C263.08 140.55 262.814 141.658 262.28 142.625C261.747 143.608 260.98 144.375 259.98 144.925C258.997 145.475 257.847 145.75 256.53 145.75C254.73 145.75 253.23 145.325 252.03 144.475C250.83 143.625 250.122 142.467 249.905 141H252.155C252.405 141.833 252.922 142.5 253.705 143C254.489 143.517 255.43 143.775 256.53 143.775C257.78 143.775 258.797 143.383 259.58 142.6C260.38 141.817 260.78 140.717 260.78 139.3V136.425C260.33 137.225 259.664 137.892 258.78 138.425C257.897 138.958 256.864 139.225 255.68 139.225C254.464 139.225 253.355 138.925 252.355 138.325C251.372 137.725 250.597 136.883 250.03 135.8C249.464 134.717 249.18 133.483 249.18 132.1C249.18 130.7 249.464 129.475 250.03 128.425C250.597 127.358 251.372 126.533 252.355 125.95C253.355 125.367 254.464 125.075 255.68 125.075ZM260.78 132.125C260.78 131.092 260.572 130.192 260.155 129.425C259.739 128.658 259.172 128.075 258.455 127.675C257.755 127.258 256.98 127.05 256.13 127.05C255.28 127.05 254.505 127.25 253.805 127.65C253.105 128.05 252.547 128.633 252.13 129.4C251.714 130.167 251.505 131.067 251.505 132.1C251.505 133.15 251.714 134.067 252.13 134.85C252.547 135.617 253.105 136.208 253.805 136.625C254.505 137.025 255.28 137.225 256.13 137.225C256.98 137.225 257.755 137.025 258.455 136.625C259.172 136.208 259.739 135.617 260.155 134.85C260.572 134.067 260.78 133.158 260.78 132.125Z" fill="#0B4870"/>
<circle cx="231.738" cy="57.0247" r="33.1634" fill="#EE9D3D"/>
<path d="M248.452 37.0547C247.716 36.6448 246.905 36.3842 246.068 36.2877C245.231 36.1911 244.383 36.2606 243.572 36.4922C242.762 36.7237 242.005 37.1127 241.345 37.637C240.685 38.1613 240.134 38.8105 239.725 39.5476L227.813 60.9857L220.995 54.1679C220.403 53.5551 219.695 53.0663 218.912 52.73C218.13 52.3937 217.288 52.2167 216.436 52.2093C215.584 52.2018 214.739 52.3642 213.95 52.6868C213.161 53.0095 212.445 53.4859 211.843 54.0884C211.24 54.6909 210.764 55.4073 210.441 56.1959C210.118 56.9845 209.956 57.8294 209.963 58.6814C209.971 59.5334 210.148 60.3754 210.484 61.1583C210.82 61.9411 211.309 62.6492 211.922 63.2411L224.755 76.0744C225.968 77.2904 227.604 77.9577 229.292 77.9577L230.181 77.8936C231.164 77.756 232.102 77.392 232.921 76.8303C233.74 76.2685 234.418 75.5244 234.9 74.6564L250.942 45.7814C251.351 45.0449 251.612 44.235 251.708 43.3978C251.805 42.5607 251.736 41.7127 251.504 40.9024C251.273 40.092 250.885 39.3351 250.361 38.675C249.837 38.0148 249.189 37.4642 248.452 37.0547V37.0547Z" fill="#FFE3CA"/>
</svg>
