<svg width="210" height="122" viewBox="0 0 210 122" fill="none" xmlns="http://www.w3.org/2000/svg">
<path d="M0 122H210V0H111.464V19.9016H0V122Z" fill="#6FACB6"/>
<path d="M203.204 114.051V27.2249V5.35815H116.214V15.8381V26.7906H60.8252H5.43689L5.43689 70.421V114.051H103.641H128.447H153.252H203.204Z" fill="#89D2DE"/>
<path d="M5.43688 26.7906L0 19.9016H111.456L116.214 26.7906H5.43688Z" fill="#C6E9F1"/>
<path d="M116.214 5.35812L111.456 0H210L203.204 5.35812H116.214Z" fill="#C6E9F1"/>
<path d="M165.771 65.5236V62.0332H156.962V65.5236L161.366 69.5123L165.771 65.5236Z" fill="#834616"/>
<path d="M172.582 67.1561L166.526 65.7043C166.434 65.6825 166.35 65.6452 166.271 65.6001L161.366 68.5149L156.652 65.4587C156.53 65.5758 156.379 65.6627 156.207 65.704L150.151 67.1558C149.267 67.3682 148.642 68.1719 148.642 69.0972V73.0026C148.642 73.5534 149.08 73.9999 149.621 73.9999H173.112C173.653 73.9999 174.091 73.5534 174.091 73.0026V69.0972C174.091 68.1719 173.466 67.3682 172.582 67.1561Z" fill="#CCE9FF"/>
<path d="M162.59 73.9999H160.143L160.449 69.5122H162.284L162.59 73.9999Z" fill="#0B4870"/>
<path d="M162.59 68.515H160.143V68.8031C160.143 69.4703 160.673 70.0109 161.328 70.0109H161.404C162.059 70.0109 162.59 69.4703 162.59 68.8031L162.59 68.515Z" fill="#0B4870"/>
<path d="M156.893 64.4132L161.366 68.515C161.366 68.515 160.114 69.1594 158.568 70.4578C158.249 70.7257 157.766 70.6173 157.595 70.2338L155.494 65.5229L156.158 64.5071C156.324 64.2544 156.671 64.2097 156.893 64.4132Z" fill="#D3D3D3"/>
<path d="M165.84 64.4132L161.367 68.515C161.367 68.515 162.619 69.1594 164.165 70.4578C164.484 70.7257 164.967 70.6173 165.138 70.2338L167.239 65.5229L166.574 64.5071C166.409 64.2544 166.062 64.2097 165.84 64.4132Z" fill="#D3D3D3"/>
<path d="M168.677 56.8332L168.125 59.086C168.059 59.3528 167.824 59.5396 167.553 59.5396C167.474 59.5396 167.397 59.5233 167.329 59.4936L167.301 60.1235C167.262 61.0172 166.833 61.8457 166.13 62.3823L164.107 63.9281C163.599 64.3164 162.981 64.5254 162.345 64.5254H160.387C159.753 64.5254 159.135 64.3164 158.625 63.9281L156.602 62.3823C155.901 61.8457 155.47 61.0172 155.431 60.1235L155.403 59.4936C155.335 59.5233 155.258 59.5396 155.179 59.5396C154.91 59.5396 154.674 59.3528 154.609 59.086L154.056 56.8332C153.896 56.1826 154.38 55.5512 155.039 55.5512H155.041C155.105 55.5512 155.166 55.5571 155.227 55.569L155.005 50.5653H167.729L167.505 55.569C167.566 55.5571 167.627 55.5512 167.691 55.5512H167.694C168.353 55.5512 168.836 56.1826 168.677 56.8332Z" fill="#97571E"/>
<path d="M164.333 47.2616L164.792 50.5653C166.886 50.9918 167.188 54.3405 167.232 55.2971C167.24 55.4707 167.294 55.6381 167.386 55.7843L168.186 57.0472C168.186 57.0472 168.938 56.0602 169.165 53.5568C169.165 53.5568 169.011 46.2992 164.333 47.2616Z" fill="#0B4870"/>
<path d="M156.451 47.3089C153.179 49.7706 153.79 53.9935 153.79 53.9935C154.015 55.9878 154.769 57.4838 154.769 57.4838L155.617 55.8045C155.617 55.8045 155.579 51.5752 157.062 51.273C158.843 50.3661 163.739 50.5469 165.667 50.9707C166.854 49.7615 167.053 50.1666 166.854 48.2501C166.751 47.2584 165.787 45.9191 161.297 45.9968C159.766 46.0233 157.94 46.5194 156.451 47.3089Z" fill="#0B4870"/>
<path d="M161.366 20C155.526 20 154.959 27.4361 158.336 29.8361C160.057 30.0549 159.023 30.3175 159.189 30.4196C159.836 30.8173 156.88 34.5544 161.366 34.2826C163.833 34.1331 162.714 33.4346 163.362 33.037C164.317 33.0234 163.377 30.7104 163.378 30.5124C167.233 28.7577 167.205 20 161.366 20Z" fill="#FFBE55"/>
<path d="M166.956 33.6177L163.665 32.2203C163.39 32.1035 163.21 31.8299 163.21 31.5264V30.6182H159.521V31.5264C159.521 31.8299 159.342 32.1037 159.067 32.2203L155.775 33.6177C155.363 33.7929 155.094 34.2034 155.094 34.6586V36.162C155.094 36.5772 155.425 36.9138 155.832 36.9138H166.9C167.307 36.9138 167.637 36.5772 167.637 36.162V34.6584C167.637 34.2033 167.369 33.7929 166.956 33.6177Z" fill="#FCD2B1"/>
<path d="M166.956 33.6175L163.773 32.2664L161.366 33.3252L158.958 32.2664L155.775 33.6175C155.363 33.7926 155.094 34.2032 155.094 34.6584V36.1618C155.094 36.577 155.424 36.9136 155.832 36.9136H166.899C167.307 36.9136 167.637 36.577 167.637 36.1618V34.6582C167.637 34.203 167.368 33.7926 166.956 33.6175Z" fill="#CCE9FF"/>
<path d="M161.366 33.3253L159.254 31.7117C159.119 31.6083 158.926 31.6418 158.832 31.7856L158.414 32.4232L159.709 34.2696C159.807 34.41 160.001 34.4374 160.133 34.3296L161.366 33.3253Z" fill="#D3D3D3"/>
<path d="M161.366 33.3252L163.477 31.7116C163.613 31.6082 163.806 31.6417 163.9 31.7854L164.317 32.423L163.023 34.2695C162.924 34.4098 162.73 34.4372 162.598 34.3295L161.366 33.3252Z" fill="#D3D3D3"/>
<path d="M157.748 25.7874C157.742 25.975 157.746 26.1632 157.765 26.3501L158.029 28.9807C158.073 29.4761 158.355 29.9171 158.782 30.1589L160.882 31.3477C161.217 31.537 161.623 31.537 161.957 31.3477L164.058 30.1589C164.485 29.9173 164.766 29.4762 164.811 28.9807L165.04 26.7657C165.04 23.7589 161.42 25.2622 159.575 23.3831C159.206 24.1348 157.886 24.8305 157.748 25.7874Z" fill="#FFE3CA"/>
<path d="M181.729 32.5778C175.889 32.5778 175.321 40.0139 178.699 42.4139C180.42 42.6326 179.386 42.8953 179.552 42.9974C180.199 43.395 177.243 47.1322 181.729 46.8604C184.196 46.7108 183.077 46.0123 183.725 45.6148C184.68 45.6012 183.74 43.2882 183.741 43.0902C187.596 41.3353 187.568 32.5778 181.729 32.5778Z" fill="#0E538C"/>
<path d="M187.319 46.1954L184.027 44.7981C183.752 44.6813 183.573 44.4077 183.573 44.1042V43.1959H179.884V44.1042C179.884 44.4077 179.705 44.6815 179.43 44.7981L176.138 46.1954C175.726 46.3706 175.457 46.7812 175.457 47.2363V48.7398C175.457 49.1549 175.787 49.4915 176.195 49.4915H187.262C187.67 49.4915 188 49.1549 188 48.7398V47.2363C188 46.7812 187.731 46.3706 187.319 46.1954Z" fill="#CA7D41"/>
<path d="M187.319 46.1952L184.136 44.8441L181.729 45.9029L179.321 44.8441L176.138 46.1952C175.726 46.3704 175.457 46.781 175.457 47.2361V48.7396C175.457 49.1547 175.787 49.4913 176.195 49.4913H187.262C187.67 49.4913 188 49.1547 188 48.7396V47.2361C188 46.781 187.732 46.3704 187.319 46.1952Z" fill="#FFBE55"/>
<path d="M181.728 45.9035L179.617 44.2899C179.481 44.1864 179.288 44.2199 179.194 44.3637L178.777 45.0013L180.072 46.8477C180.17 46.9881 180.364 47.0155 180.496 46.9077L181.728 45.9035Z" fill="#FFE3CA"/>
<path d="M181.728 45.9031L183.84 44.2895C183.975 44.1861 184.168 44.2195 184.262 44.3633L184.679 45.0009L183.385 46.8474C183.287 46.9877 183.093 47.0151 182.96 46.9074L181.728 45.9031Z" fill="#FFE3CA"/>
<path d="M178.111 38.365C178.105 38.5526 178.109 38.7409 178.127 38.9278L178.392 41.5584C178.436 42.0537 178.718 42.4948 179.145 42.7365L181.245 43.9253C181.58 44.1146 181.986 44.1146 182.32 43.9253L184.421 42.7365C184.848 42.4949 185.129 42.0538 185.174 41.5584L185.403 39.3433C185.403 36.3366 181.783 37.8399 179.938 35.9607C179.569 36.7123 178.249 37.4081 178.111 38.365Z" fill="#D08D51"/>
<path d="M144.131 44.5738V42.5095H138.921V44.5738L141.526 46.9329L144.131 44.5738Z" fill="#E79C62"/>
<path d="M148.159 45.5396L144.577 44.681C144.523 44.6681 144.473 44.6461 144.427 44.6194L141.526 46.3432L138.738 44.5356C138.666 44.6049 138.576 44.6563 138.474 44.6807L134.893 45.5393C134.37 45.665 134 46.1403 134 46.6875V48.9973C134 49.323 134.259 49.5872 134.579 49.5872H148.473C148.792 49.5872 149.052 49.323 149.052 48.9973V46.6875C149.052 46.1405 148.682 45.6652 148.159 45.5396Z" fill="#FFE3CA"/>
<path d="M142.249 49.5872H140.802L140.983 46.9329H142.068L142.249 49.5872Z" fill="#0E538C"/>
<path d="M142.249 46.3431H140.802V46.5136C140.802 46.9081 141.116 47.228 141.503 47.228H141.548C141.935 47.228 142.249 46.9081 142.249 46.5136V46.3431Z" fill="#0E538C"/>
<path d="M138.88 43.9175L141.526 46.3436C141.526 46.3436 140.785 46.7246 139.871 47.4925C139.682 47.6511 139.397 47.5869 139.295 47.36L138.052 44.5739L138.446 43.9731C138.544 43.8235 138.749 43.7973 138.88 43.9175Z" fill="#FFBE55"/>
<path d="M144.171 43.9172L141.526 46.3433C141.526 46.3433 142.267 46.7244 143.181 47.4923C143.37 47.6509 143.655 47.5867 143.756 47.3598L144.999 44.5737L144.606 43.9728C144.508 43.8233 144.303 43.797 144.171 43.9172Z" fill="#FFBE55"/>
<path d="M145.85 39.4339L145.523 40.7663C145.484 40.924 145.345 41.0346 145.185 41.0346C145.139 41.0346 145.093 41.0249 145.053 41.0075L145.036 41.3801C145.013 41.9086 144.759 42.3987 144.344 42.716L143.147 43.6302C142.847 43.8598 142.481 43.9836 142.105 43.9836H140.947C140.572 43.9836 140.206 43.86 139.905 43.6302L138.708 42.716C138.293 42.3987 138.038 41.9086 138.015 41.3801L137.999 41.0075C137.959 41.0249 137.913 41.0346 137.867 41.0346C137.707 41.0346 137.568 40.9242 137.529 40.7663L137.202 39.4339C137.108 39.0491 137.394 38.6756 137.784 38.6756H137.785C137.823 38.6756 137.859 38.679 137.895 38.6862L137.763 35.7268H145.289L145.157 38.6862C145.193 38.6792 145.229 38.6756 145.267 38.6756H145.269C145.658 38.6756 145.944 39.0491 145.85 39.4339Z" fill="#EAAA71"/>
<path d="M143.281 33.7731L143.552 35.7269C144.791 35.9793 144.969 37.9597 144.995 38.5256C145 38.6282 145.032 38.7273 145.087 38.8137L145.559 39.5606C145.559 39.5606 146.004 38.9769 146.138 37.4963C146.138 37.4961 146.393 32.5934 143.281 33.7731Z" fill="#0B4870"/>
<path d="M138.468 33.5427C136.533 34.9987 136.895 37.4961 136.895 37.4961C137.027 38.6756 137.473 39.5604 137.473 39.5604L138.052 38.9707C138.052 38.9707 137.829 37.267 138.921 36.6116C139.934 36.0033 140.82 36.3166 141.725 36.3166C144.149 36.3166 144.827 35.3858 144.71 34.2523C144.649 33.6657 143.769 32.4441 141.526 32.483C140.62 32.4984 139.349 33.0757 138.468 33.5427Z" fill="#0B4870"/>
<path d="M145.39 71.2967C145.39 72.1535 144.708 72.8491 143.866 72.8491C143.331 72.8491 142.86 72.5682 142.589 72.1418H140.057C139.599 72.1418 139.228 71.7634 139.228 71.2967V56.2521C138.81 55.9751 138.535 55.4955 138.535 54.9507C138.535 54.0925 139.216 53.3983 140.057 53.3983C140.899 53.3983 141.581 54.0925 141.581 54.9507C141.581 55.4967 141.305 55.9765 140.887 56.2533V70.4516H142.587C142.859 70.0252 143.33 69.7443 143.866 69.7443C144.708 69.7443 145.39 70.4387 145.39 71.2967Z" fill="#2A94F4"/>
<path d="M152.162 23.6568C152.162 24.515 151.48 25.2092 150.64 25.2092C150.103 25.2092 149.633 24.9283 149.362 24.5021H140.887V28.3971C141.305 28.6741 141.581 29.1537 141.581 29.6997C141.581 30.5579 140.899 31.2521 140.057 31.2521C139.216 31.2521 138.535 30.5579 138.535 29.6997C138.535 29.155 138.81 28.6753 139.228 28.3984V23.6568C139.228 23.1902 139.599 22.8119 140.057 22.8119H149.362C149.633 22.3855 150.103 22.1047 150.639 22.1047C151.481 22.1046 152.162 22.8001 152.162 23.6568Z" fill="#2A94F4"/>
<path d="M156.291 41.0348C156.291 41.3466 156.201 41.6367 156.046 41.8799C155.775 42.3062 155.305 42.587 154.769 42.587C154.233 42.587 153.762 42.3062 153.491 41.8799H150.285C150.014 42.3062 149.543 42.587 149.007 42.587C148.471 42.587 148 42.3062 147.729 41.8799C147.574 41.6367 147.485 41.3468 147.485 41.0348C147.485 40.724 147.574 40.4328 147.73 40.1897C148.002 39.7633 148.473 39.4824 149.007 39.4824C149.543 39.4824 150.014 39.7633 150.285 40.1897H153.491C153.762 39.7633 154.233 39.4824 154.769 39.4824C155.303 39.4824 155.774 39.7633 156.045 40.1897C156.201 40.4328 156.291 40.724 156.291 41.0348Z" fill="#2A94F4"/>
<path d="M175.022 41.0348C175.022 41.3466 174.931 41.6367 174.777 41.8799C174.506 42.3062 174.035 42.587 173.499 42.587C172.963 42.587 172.492 42.3062 172.222 41.8799H169.015C168.745 42.3062 168.274 42.587 167.738 42.587C167.202 42.587 166.731 42.3062 166.459 41.8799C166.305 41.6367 166.216 41.3468 166.216 41.0348C166.216 40.724 166.305 40.4328 166.461 40.1897C166.732 39.7633 167.203 39.4824 167.738 39.4824C168.274 39.4824 168.745 39.7633 169.015 40.1897H172.222C172.492 39.7633 172.964 39.4824 173.499 39.4824C174.034 39.4824 174.505 39.7633 174.775 40.1897C174.931 40.4328 175.022 40.724 175.022 41.0348Z" fill="#2A94F4"/>
<path d="M184.078 29.6996C184.078 30.5578 183.397 31.252 182.555 31.252C181.714 31.252 181.031 30.5578 181.031 29.6996C181.031 29.1549 181.307 28.6752 181.725 28.3983V24.502H173.251C172.979 24.9284 172.508 25.2091 171.974 25.2091C171.133 25.2091 170.45 24.5149 170.45 23.6567C170.45 22.8001 171.132 22.1045 171.974 22.1045C172.508 22.1045 172.979 22.3854 173.251 22.8116H182.555C183.013 22.8116 183.384 23.19 183.384 23.6566V28.398C183.803 28.6752 184.078 29.1551 184.078 29.6996Z" fill="#2A94F4"/>
<path d="M162.878 42.7472C162.878 43.604 162.195 44.2983 161.354 44.2983C160.513 44.2983 159.83 43.604 159.83 42.7472C159.83 42.2012 160.106 41.7215 160.525 41.4458V40.97C160.106 40.6945 159.83 40.2146 159.83 39.6699C159.83 38.8118 160.513 38.1177 161.354 38.1177C162.195 38.1177 162.878 38.8119 162.878 39.6699C162.878 40.2146 162.602 40.6945 162.184 40.97V41.4458C162.602 41.7215 162.878 42.2012 162.878 42.7472Z" fill="#2A94F4"/>
<path d="M184.078 54.8572C184.078 55.4019 183.803 55.8817 183.384 56.1585V71.2968C183.384 71.7635 183.013 72.1419 182.555 72.1419H180.143C179.871 72.5683 179.4 72.8491 178.866 72.8491C178.023 72.8491 177.342 72.1536 177.342 71.2968C177.342 70.4386 178.023 69.7444 178.866 69.7444C179.402 69.7444 179.872 70.0253 180.144 70.4517H181.725V56.1584C181.308 55.8815 181.032 55.4017 181.032 54.8571C181.032 53.9989 181.714 53.3047 182.555 53.3047C183.397 53.3048 184.078 53.9991 184.078 54.8572Z" fill="#2A94F4"/>
<path d="M125.139 106.339C124.165 106.339 123.285 106.172 122.499 105.839C121.725 105.506 121.112 105.026 120.659 104.399C120.205 103.772 119.972 103.032 119.959 102.179H122.959C122.999 102.752 123.199 103.206 123.559 103.539C123.932 103.872 124.439 104.039 125.079 104.039C125.732 104.039 126.245 103.886 126.619 103.579C126.992 103.259 127.179 102.846 127.179 102.339C127.179 101.926 127.052 101.586 126.799 101.319C126.545 101.052 126.225 100.846 125.839 100.699C125.465 100.539 124.945 100.366 124.279 100.179C123.372 99.9123 122.632 99.6523 122.059 99.399C121.499 99.1323 121.012 98.739 120.599 98.219C120.199 97.6856 119.999 96.979 119.999 96.099C119.999 95.2723 120.205 94.5523 120.619 93.939C121.032 93.3256 121.612 92.859 122.359 92.539C123.105 92.2056 123.959 92.039 124.919 92.039C126.359 92.039 127.525 92.3923 128.419 93.099C129.325 93.7923 129.825 94.7656 129.919 96.019H126.839C126.812 95.539 126.605 95.1456 126.219 94.839C125.845 94.519 125.345 94.359 124.719 94.359C124.172 94.359 123.732 94.499 123.399 94.779C123.079 95.059 122.919 95.4656 122.919 95.999C122.919 96.3723 123.039 96.6856 123.279 96.939C123.532 97.179 123.839 97.379 124.199 97.539C124.572 97.6856 125.092 97.859 125.759 98.059C126.665 98.3256 127.405 98.5923 127.979 98.859C128.552 99.1256 129.045 99.5256 129.459 100.059C129.872 100.592 130.079 101.292 130.079 102.159C130.079 102.906 129.885 103.599 129.499 104.239C129.112 104.879 128.545 105.392 127.799 105.779C127.052 106.152 126.165 106.339 125.139 106.339ZM138.746 94.959C139.586 94.959 140.333 95.1456 140.986 95.519C141.64 95.879 142.146 96.419 142.506 97.139C142.88 97.8456 143.066 98.699 143.066 99.699V106.199H140.266V100.079C140.266 99.199 140.046 98.5256 139.606 98.059C139.166 97.579 138.566 97.339 137.806 97.339C137.033 97.339 136.42 97.579 135.966 98.059C135.526 98.5256 135.306 99.199 135.306 100.079V106.199H132.506V91.399H135.306V96.499C135.666 96.019 136.146 95.6456 136.746 95.379C137.346 95.099 138.013 94.959 138.746 94.959ZM145.009 100.619C145.009 99.499 145.229 98.5056 145.669 97.639C146.122 96.7723 146.729 96.1056 147.489 95.639C148.262 95.1723 149.122 94.939 150.069 94.939C150.896 94.939 151.616 95.1056 152.229 95.439C152.856 95.7723 153.356 96.1923 153.729 96.699V95.119H156.549V106.199H153.729V104.579C153.369 105.099 152.869 105.532 152.229 105.879C151.602 106.212 150.876 106.379 150.049 106.379C149.116 106.379 148.262 106.139 147.489 105.659C146.729 105.179 146.122 104.506 145.669 103.639C145.229 102.759 145.009 101.752 145.009 100.619ZM153.729 100.659C153.729 99.979 153.596 99.399 153.329 98.919C153.062 98.4256 152.702 98.0523 152.249 97.799C151.796 97.5323 151.309 97.399 150.789 97.399C150.269 97.399 149.789 97.5256 149.349 97.779C148.909 98.0323 148.549 98.4056 148.269 98.899C148.002 99.379 147.869 99.9523 147.869 100.619C147.869 101.286 148.002 101.872 148.269 102.379C148.549 102.872 148.909 103.252 149.349 103.519C149.802 103.786 150.282 103.919 150.789 103.919C151.309 103.919 151.796 103.792 152.249 103.539C152.702 103.272 153.062 102.899 153.329 102.419C153.596 101.926 153.729 101.339 153.729 100.659ZM162.084 96.839C162.444 96.2523 162.91 95.7923 163.484 95.459C164.07 95.1256 164.737 94.959 165.484 94.959V97.899H164.744C163.864 97.899 163.197 98.1056 162.744 98.519C162.304 98.9323 162.084 99.6523 162.084 100.679V106.199H159.284V95.119H162.084V96.839ZM168.79 93.799C168.296 93.799 167.883 93.6456 167.55 93.339C167.23 93.019 167.07 92.6256 167.07 92.159C167.07 91.6923 167.23 91.3056 167.55 90.999C167.883 90.679 168.296 90.519 168.79 90.519C169.283 90.519 169.69 90.679 170.01 90.999C170.343 91.3056 170.51 91.6923 170.51 92.159C170.51 92.6256 170.343 93.019 170.01 93.339C169.69 93.6456 169.283 93.799 168.79 93.799ZM170.17 95.119V106.199H167.37V95.119H170.17ZM179.076 94.959C180.396 94.959 181.463 95.379 182.276 96.219C183.089 97.0456 183.496 98.2056 183.496 99.699V106.199H180.696V100.079C180.696 99.199 180.476 98.5256 180.036 98.059C179.596 97.579 178.996 97.339 178.236 97.339C177.463 97.339 176.849 97.579 176.396 98.059C175.956 98.5256 175.736 99.199 175.736 100.079V106.199H172.936V95.119H175.736V96.499C176.109 96.019 176.583 95.6456 177.156 95.379C177.743 95.099 178.383 94.959 179.076 94.959ZM190.499 94.939C191.325 94.939 192.052 95.1056 192.679 95.439C193.305 95.759 193.799 96.179 194.159 96.699V95.119H196.979V106.279C196.979 107.306 196.772 108.219 196.359 109.019C195.945 109.832 195.325 110.472 194.499 110.939C193.672 111.419 192.672 111.659 191.499 111.659C189.925 111.659 188.632 111.292 187.619 110.559C186.619 109.826 186.052 108.826 185.919 107.559H188.699C188.845 108.066 189.159 108.466 189.639 108.759C190.132 109.066 190.725 109.219 191.419 109.219C192.232 109.219 192.892 108.972 193.399 108.479C193.905 107.999 194.159 107.266 194.159 106.279V104.559C193.799 105.079 193.299 105.512 192.659 105.859C192.032 106.206 191.312 106.379 190.499 106.379C189.565 106.379 188.712 106.139 187.939 105.659C187.165 105.179 186.552 104.506 186.099 103.639C185.659 102.759 185.439 101.752 185.439 100.619C185.439 99.499 185.659 98.5056 186.099 97.639C186.552 96.7723 187.159 96.1056 187.919 95.639C188.692 95.1723 189.552 94.939 190.499 94.939ZM194.159 100.659C194.159 99.979 194.025 99.399 193.759 98.919C193.492 98.4256 193.132 98.0523 192.679 97.799C192.225 97.5323 191.739 97.399 191.219 97.399C190.699 97.399 190.219 97.5256 189.779 97.779C189.339 98.0323 188.979 98.4056 188.699 98.899C188.432 99.379 188.299 99.9523 188.299 100.619C188.299 101.286 188.432 101.872 188.699 102.379C188.979 102.872 189.339 103.252 189.779 103.519C190.232 103.786 190.712 103.919 191.219 103.919C191.739 103.919 192.225 103.792 192.679 103.539C193.132 103.272 193.492 102.899 193.759 102.419C194.025 101.926 194.159 101.339 194.159 100.659Z" fill="#0B4870"/>
</svg>
