<svg width="129" height="105" viewBox="0 0 129 105" fill="none" xmlns="http://www.w3.org/2000/svg">
<path d="M63.5702 40.2308C63.5702 40.2308 79.6482 44.8529 82.0869 43.747C84.4972 42.6411 110.075 17.7443 112.939 10.6836L118.667 13.3207C118.667 13.3207 94.195 54.3239 88.2402 55.2029C82.2854 56.082 62.0106 53.4448 62.0106 53.4448L63.5702 40.2308Z" fill="#FFE3CA"/>
<path d="M65.9805 38.8981L63.5702 55.4298C63.5702 55.4298 59.6003 57.4147 55.4036 54.7776C51.2068 52.1405 44.7416 37.2534 48.9667 35.6655C53.1918 34.0775 65.9805 38.8981 65.9805 38.8981Z" fill="#FFBE55"/>
<path d="M115.69 16.9787L123.176 11.4775C123.176 11.4775 116.569 4.87054 115.009 5.74959C113.478 6.62863 110.501 13.264 110.444 14.6818C110.387 16.0996 115.69 16.9787 115.69 16.9787Z" fill="#FFE3CA"/>
<path d="M54.4397 8.15988C54.4397 8.15988 58.7215 2.74382 55.4038 1.21258C52.0861 -0.318657 45.4791 -0.318667 41.736 0.758872C37.993 1.86477 34.25 4.9556 34.25 4.9556C34.25 4.9556 31.1591 3.19751 30.0532 6.71369C28.9473 10.2299 31.8113 22.7917 26.0834 30.5046C20.3554 38.2175 21.8866 59.1445 24.0984 63.1144C26.3102 67.0843 34.0231 67.9633 36.2065 64.8725C38.4183 61.7816 46.7835 24.323 46.7835 24.323L54.4397 8.15988Z" fill="#041E2F"/>
<path d="M48.1162 34.5028C48.1162 34.5028 55.1769 43.9738 58.0409 50.5809C60.9049 57.1879 63.3435 62.9158 62.8898 74.3718C62.4361 85.8277 63.542 95.9793 63.542 95.9793C63.542 95.9793 34.9873 99.2403 32.577 94.76C30.0533 90.0245 33.456 78.0014 31.2442 71.6212C29.0324 65.2411 29.7981 49.2481 30.0249 46.3841C30.2518 43.5201 34.25 37.14 48.1162 34.5028Z" fill="#FFBE55"/>
<path d="M53.4189 5.40932C53.4189 5.40932 63.9958 30.9867 48.57 29.8808L49.6759 38.4727L38.8721 37.3669V23.4723L34.9022 8.69864L53.4189 5.40932Z" fill="#FFE3CA"/>
<path d="M20.1277 46.1573C20.1277 46.1573 2.0647 66.432 0.0797577 70.8273C-1.90518 75.2225 33.7954 100.8 34.9013 104.997L41.083 100.601C41.083 100.601 12.4431 76.8104 13.9743 73.039C15.5056 69.296 30.024 53.2747 30.024 53.2747L20.1277 46.1573Z" fill="#FFE3CA"/>
<path d="M29.4007 57.8401L17.2925 48.1422C17.2925 48.1422 29.6275 35.3536 32.9452 34.4745C36.2629 33.5955 41.1118 36.6863 41.1118 38.8697C41.1118 41.0532 29.4007 57.8401 29.4007 57.8401Z" fill="#FFBE55"/>
<path d="M45.0538 14.0013V19.3039H43.2957C43.2957 19.3039 42.6435 16.213 41.0839 15.7877C39.5527 15.334 38.2199 19.3039 42.1898 21.9694L38.8721 35.9774L35.3559 27.4705L33.371 8.5285C33.371 8.5285 37.114 5.01231 37.5677 5.01231C38.0214 5.01231 51.0086 3.90643 51.0086 3.90643C51.0086 3.90643 57.3888 4.13327 54.9785 6.99725C52.5398 9.80453 46.585 14.2281 45.0538 14.0013Z" fill="#0B2739"/>
<path d="M126.039 12.1298L106.643 3.73627L104.885 6.17492L125.16 14.9937H128.449L126.039 12.1298Z" fill="#F7F7F7"/>
<path d="M124.479 10.3717C124.479 10.3717 125.131 12.782 124.706 12.782C124.252 12.782 123.6 11.9029 122.494 11.9029C120.935 11.9029 118.751 10.797 118.099 10.3717C117.447 9.91797 116.341 10.1448 115.887 9.49261C115.434 8.84041 115.037 7.39425 115.037 7.39425L115.008 5.74958C115.008 5.72122 122.069 5.72122 124.479 10.3717Z" fill="#FFE3CA"/>
<path d="M118.1 9.46425C118.1 9.46425 114.583 11.2223 113.251 11.4492C111.918 11.676 111.266 9.2374 113.251 8.58521C115.236 7.93302 120.311 6.82712 118.1 9.46425Z" fill="#FFE3CA"/>
</svg>
