<svg width="30" height="30" viewBox="0 0 71 71" fill="none" xmlns="http://www.w3.org/2000/svg">
<path d="M70.3066 13.7979L67.0479 17.0566C66.5856 17.5189 66.0309 17.75 65.3838 17.75C64.7367 17.75 64.2051 17.5189 63.7891 17.0566L61.293 14.6299L57.6875 18.2354C60.4609 21.1012 62.6219 24.4062 64.1704 28.1504C65.7189 31.8945 66.4932 35.8236 66.4932 39.9375C66.4932 44.1439 65.6842 48.1654 64.0664 52.002C62.4486 55.8385 60.2529 59.1436 57.4795 61.917C54.7061 64.6904 51.401 66.8976 47.5645 68.5386C43.7279 70.1795 39.7064 71 35.5 71C31.2936 71 27.2721 70.1795 23.4355 68.5386C19.599 66.8976 16.2939 64.6904 13.5205 61.917C10.7471 59.1436 8.53988 55.8385 6.89893 52.002C5.25798 48.1654 4.4375 44.1439 4.4375 39.9375C4.4375 35.8236 5.22331 31.8945 6.79492 28.1504C8.36654 24.4062 10.5391 21.1012 13.3125 18.2354L9.70703 14.6299L7.21094 17.0566C6.79492 17.5189 6.26335 17.75 5.61621 17.75C4.96908 17.75 4.41439 17.5189 3.95215 17.0566L0.693359 13.7979C0.23112 13.3356 0 12.7809 0 12.1338C0 11.4867 0.23112 10.9551 0.693359 10.5391L10.5391 0.693359C10.9551 0.23112 11.4867 0 12.1338 0C12.7809 0 13.3356 0.23112 13.7979 0.693359L17.0566 3.95215C17.5189 4.41439 17.75 4.96908 17.75 5.61621C17.75 6.26335 17.5189 6.79492 17.0566 7.21094L14.6299 9.70703L18.7207 13.8672C22.5111 11.4173 26.6481 9.86882 31.1318 9.22168V8.94434H28.8438C28.2428 8.94434 27.7228 8.72477 27.2837 8.28564C26.8446 7.84652 26.625 7.3265 26.625 6.72559V2.28809C26.625 1.64095 26.8446 1.10938 27.2837 0.693359C27.7228 0.277344 28.2428 0.0693359 28.8438 0.0693359H42.1562C42.7572 0.0693359 43.2772 0.277344 43.7163 0.693359C44.1554 1.10938 44.375 1.64095 44.375 2.28809V6.72559C44.375 7.3265 44.1554 7.84652 43.7163 8.28564C43.2772 8.72477 42.7572 8.94434 42.1562 8.94434H39.9375V9.22168C44.375 9.86882 48.4889 11.4173 52.2793 13.8672L56.3701 9.70703L53.9434 7.21094C53.4811 6.79492 53.25 6.26335 53.25 5.61621C53.25 4.96908 53.4811 4.41439 53.9434 3.95215L57.2021 0.693359C57.6644 0.23112 58.2191 0 58.8662 0C59.5133 0 60.0449 0.23112 60.4609 0.693359L70.3066 10.5391C70.7689 10.9551 71 11.4867 71 12.1338C71 12.7809 70.7689 13.3356 70.3066 13.7979ZM35.5 17.75C31.4785 17.75 27.769 18.7438 24.3716 20.7314C20.9741 22.7191 18.2816 25.4116 16.2939 28.8091C14.3063 32.2065 13.3125 35.916 13.3125 39.9375C13.3125 43.959 14.3063 47.6685 16.2939 51.0659C18.2816 54.4634 20.9741 57.1559 24.3716 59.1436C27.769 61.1312 31.4785 62.125 35.5 62.125C39.5215 62.125 43.231 61.1312 46.6284 59.1436C50.0259 57.1559 52.7184 54.4634 54.7061 51.0659C56.6937 47.6685 57.6875 43.959 57.6875 39.9375C57.6875 35.916 56.6937 32.2065 54.7061 28.8091C52.7184 25.4116 50.0259 22.7191 46.6284 20.7314C43.231 18.7438 39.5215 17.75 35.5 17.75ZM39.9375 39.9375C39.9375 41.1855 39.5099 42.2371 38.6548 43.0923C37.7996 43.9474 36.748 44.375 35.5 44.375C34.2982 44.375 33.2581 43.9474 32.3799 43.0923C31.5016 42.2371 31.0625 41.1971 31.0625 39.9722C31.0625 38.7472 31.5016 37.6956 32.3799 36.8174C33.2581 35.9391 34.2982 35.5 35.5 35.5C35.6387 35.5 35.8698 35.5231 36.1934 35.5693L46.5938 26.6943V26.625H48.8125V28.8438L39.8682 39.3135C39.9144 39.637 39.9375 39.8451 39.9375 39.9375Z" fill="#181818"/>
</svg>
